<svg xmlns="http://www.w3.org/2000/svg" xmlns:xlink="http://www.w3.org/1999/xlink" viewBox="0 0 48 34">
  <defs>
    <polygon id="icons_illustrated_branch_noground-a" points="0 0 14.346 0 14.346 12.014 0 12.014"/>
  </defs>
  <g fill="none" fill-rule="evenodd" transform="translate(.444 3.603)">
    <g transform="matrix(-1 0 0 1 47.357 0)">
      <path fill="#F5002E" d="M17.0486771,13.1745861 L24.8710114,13.1745861 C26.194791,13.1745861 27.2778834,12.1041509 27.2778834,10.7958414 C27.2778834,9.48753177 26.194791,8.41709665 24.8710114,8.41709665 L17.0486771,8.41709665"/>
      <g transform="translate(1.137 .014)">
        <mask id="icons_illustrated_branch_noground-b" fill="#fff">
          <use xlink:href="#icons_illustrated_branch_noground-a"/>
        </mask>
        <path fill="#017AFF" d="M0,11.9657914 L0,3.27056464 C0,3.27056464 6.99697845,-4.12037814 14.3463227,3.31887146 L14.3463227,12.0140983" mask="url(#icons_illustrated_branch_noground-b)"/>
      </g>
      <path fill="#383940" d="M45.5187333,23.9510052 C45.5187333,27.0026746 42.9705971,29.4852999 39.8384011,29.4852999 C36.7062051,29.4852999 34.1580689,27.0026746 34.1580689,23.9510052 C34.1580689,23.9423085 34.1559388,23.9343035 34.155533,23.9258044 L36.0352158,23.9222466 C36.0466779,25.9561988 37.7481403,27.6075928 39.8384011,27.6075928 C41.9337336,27.6075928 43.6386447,25.9483914 43.6419921,23.9077191 L45.5236021,23.9040625 C45.5218777,23.919776 45.5187333,23.9349953 45.5187333,23.9510052 L45.5187333,23.9510052 Z M5.71532708,23.061565 C5.95237951,22.2847872 6.5062119,20.7741224 7.57644734,19.2761074 C9.60493453,16.4370143 12.4270453,15.0174677 15.9707611,15.0566031 C18.3159268,15.0825945 19.947095,15.734653 20.8189246,16.9947921 C22.2216623,19.0223205 21.346384,22.1180666 21.0285897,23.0613673 L20.9283724,23.061565 L5.71532708,23.061565 Z M10.6773001,23.9510052 L16.4564295,23.9510052 C16.429245,25.4812377 15.143867,26.7181525 13.5668648,26.7181525 C11.9898626,26.7181525 10.7044845,25.4812377 10.6773001,23.9510052 L10.6773001,23.9510052 Z M13.5668648,29.4852999 C10.4346688,29.4852999 7.88653261,27.0026746 7.88653261,23.9510052 L9.76438957,23.9510052 C9.79167545,25.9717145 11.4864431,27.6075928 13.5668648,27.6075928 C15.6472864,27.6075928 17.3420541,25.9717145 17.36934,23.9510052 L19.247197,23.9510052 C19.247197,27.0026746 16.6990608,29.4852999 13.5668648,29.4852999 L13.5668648,29.4852999 Z M3.96578477,13.475376 L15.0123065,13.475376 L15.0123065,14.1928578 C11.5456809,14.4135378 9.21126722,16.0182856 7.70273329,17.6816376 L3.96578477,13.475376 Z M2.89088334,3.96992843 C3.48113071,3.39307704 6.21073319,0.92646167 9.74268259,0.889895794 C9.76935986,0.889698141 9.7956314,0.889500488 9.82220724,0.889500488 C12.1421158,0.889500488 14.3650529,1.94190592 16.4323895,4.01855116 L16.4323895,12.5859358 L2.89088334,12.5859358 L2.89088334,3.96992843 Z M25.4854189,9.02817493 C26.4781584,9.02817493 27.2858813,9.81513187 27.2858813,10.7823487 L27.2858813,10.831762 C27.2858813,11.1809167 27.0829109,11.3191753 26.5457138,11.5977677 C26.4524954,11.6461928 26.3591757,11.6946179 26.268899,11.7455136 C25.9028219,11.9514684 25.5711311,12.2384611 25.2897517,12.5859358 L17.3453,12.5859358 L17.3453,9.02817493 L25.4854189,9.02817493 Z M27.9262373,20.4788283 C28.5076599,20.6552339 29.1492331,20.7420037 29.8190052,20.7420037 C30.9762714,20.7419049 32.2168154,20.4828802 33.3720529,19.9800499 C36.1191022,18.7845435 36.9879901,15.7668705 35.9546768,11.010836 C35.5373753,9.09004044 34.9210592,7.19642222 34.1216539,5.37158738 L36.5222029,5.37158738 C42.265323,13.981171 41.6297344,14.5685969 40.1082169,15.9686746 C39.0129271,16.9764103 37.7350552,18.5037768 36.6074079,19.8514764 C35.8340712,20.7757036 35.166125,21.5740256 34.7228562,22.0058983 C33.7888473,22.9157956 32.4267848,23.0315217 32.3089179,23.0398231 L21.9888701,23.0594896 C22.3927823,21.7652553 23.0961292,18.6984654 21.577959,16.5003622 C20.5288219,14.9816924 18.6457918,14.196712 15.9811074,14.1671628 C15.9622406,14.1669652 15.9438809,14.1669652 15.925217,14.1668664 L15.925217,13.475376 L24.7440341,13.475376 C24.7319634,13.5019604 24.7195884,13.5282483 24.7080249,13.555228 C24.011677,15.1783575 24.0205018,16.7974352 24.7321663,17.9971912 C25.4276012,19.1692758 26.5916636,20.0738365 27.9262373,20.4788283 L27.9262373,20.4788283 Z M32.3354938,3.71050837 C32.3308278,3.69588202 32.3278862,3.68105801 32.3215972,3.66653049 C32.3044548,3.62709864 32.2805163,3.59270695 32.2540419,3.56098359 C32.1586934,3.35977244 32.1040202,3.1367206 32.1040202,2.90092012 C32.1040202,2.02907106 32.8321171,1.31969307 33.7269723,1.31969307 L36.2121176,1.31969307 L36.2121176,4.48214717 L33.7269723,4.48214717 C33.1360149,4.48214717 32.6193075,4.17173253 32.3354938,3.71050837 L32.3354938,3.71050837 Z M42.7290816,23.9093992 C42.7247199,25.4589028 41.4297056,26.7181525 39.8384011,26.7181525 C38.2509511,26.7181525 36.9584727,25.4647336 36.9480249,23.9204678 L42.7290816,23.9093992 Z M45.418516,20.4776423 C45.9769129,21.4794485 46.2274561,22.4543738 46.3344695,23.0131399 L34.8870787,23.0348818 C35.0524169,22.9175745 35.2143064,22.7848503 35.3683854,22.6348313 C35.8444175,22.1709389 36.525956,21.3565081 37.3150149,20.413405 C38.2828015,19.2568362 39.3628761,17.9658632 40.3212293,17.0124821 C42.6141563,17.3604509 44.3296166,18.5239375 45.418516,20.4776423 L45.418516,20.4776423 Z M47.3574365,23.9006036 L47.3176742,23.4211953 C47.3122981,23.3547838 47.1725214,21.7770157 46.237701,20.0837191 C45.4450918,18.6482615 43.9264144,16.8873675 41.1122156,16.2533943 C41.8639467,15.4910452 42.3289224,14.6773062 41.9286619,13.1666414 C41.5106503,11.5885768 40.1269822,9.13105352 37.1525169,4.6840501 C37.1443007,4.67189441 37.1341572,4.66201174 37.1250281,4.65084433 L37.1250281,0.430252857 L33.7269723,0.430252857 C32.3286976,0.430252857 31.1911097,1.53859419 31.1911097,2.90092012 C31.1911097,3.14591149 31.2284376,3.38240376 31.2969059,3.60594973 L29.0860395,4.51723064 C28.8538559,4.61299371 28.745321,4.873995 28.8434081,5.10011046 C28.917151,5.26979589 29.0861409,5.37168621 29.264057,5.37168621 C29.3233962,5.37168621 29.3837497,5.36041997 29.4416688,5.33650391 L31.7131931,4.40012102 C32.0522886,4.83149952 32.5334939,5.15130269 33.0884421,5.29213072 C33.9587501,7.19533513 34.6236533,9.17967625 35.061546,11.1949501 C36.0067127,15.5448069 35.3322747,18.1528433 32.9997883,19.1680899 C31.397326,19.865411 29.5572027,20.0422119 28.1976761,19.6296105 C27.0795635,19.2903385 26.1045751,18.5330295 25.5225439,17.5520758 C24.9547136,16.5948405 24.9647556,15.263052 25.5504384,13.8981566 C25.8133566,13.2851346 26.2307596,12.7941636 26.7255571,12.51567 C26.8068062,12.4699133 26.8907939,12.4264295 26.9747817,12.3828469 C27.4912862,12.1149278 28.1987919,11.7479843 28.1987919,10.831762 L28.1987919,10.7823487 C28.1987919,9.324655 26.9815778,8.13873472 25.4854189,8.13873472 L17.3453,8.13873472 L17.3453,3.6624786 L17.2201298,3.53380625 C14.9118863,1.16166919 12.3902246,-0.0294889074 9.73294487,0.000554406484 C5.35919054,0.0458170307 2.22770456,3.35068039 2.09654974,3.49131077 L1.97797281,3.61850072 L1.97797281,12.5859358 L0.456455264,12.5859358 C0.204390524,12.5859358 0,12.7850716 0,13.0306559 C0,13.2762402 0.204390524,13.475376 0.456455264,13.475376 L2.75830844,13.475376 L7.11603613,18.3802435 C7.01500736,18.5104971 6.91864459,18.63996 6.8272521,18.7679406 C5.19527238,21.0520231 4.69611319,23.319898 4.67562342,23.4153645 L4.560901,23.9510052 L6.97362209,23.9510052 C6.97362209,27.4930526 9.93135076,30.3747401 13.5668648,30.3747401 C17.2023788,30.3747401 20.1601075,27.4930526 20.1601075,23.9510052 L20.9292853,23.9510052 L20.9301982,23.9510052 L21.6628596,23.9510052 L32.3235245,23.9292633 L33.2474914,23.9275833 C33.2471871,23.9354894 33.2451584,23.9430002 33.2451584,23.9510052 C33.2451584,27.4930526 36.2028871,30.3747401 39.8384011,30.3747401 C43.4739151,30.3747401 46.4316438,27.4930526 46.4316438,23.9510052 C46.4316438,23.9344023 46.4284993,23.91859 46.4265721,23.9023825 L47.3574365,23.9006036 Z"/>
      <g transform="rotate(-90 8.028 2.887)">
        <path fill="#FFF" d="M8.18691786,2.33002354 L5.92272725,0.143209806 C5.82721733,0.0507201395 5.70020025,0 5.56490483,0 C5.42998007,0 5.30271588,0.0507201395 5.20720595,0.143209806 L3.30837478,1.97725005 L0.14789829,5.02976705 C-0.0492994299,5.22035544 -0.0492994299,5.53040467 0.14789829,5.72075437 L2.41221246,7.90804546 C2.50772238,8.00029645 2.63473946,8.05113593 2.76991133,8.05113593 C2.90495964,8.05113593 3.03222384,8.00029645 3.12773376,7.90804546 L5.96053584,5.17178344 L8.18691786,3.02113019 C8.38423914,2.83066115 8.38423914,2.52061192 8.18691786,2.33002354"/>
        <path fill="#F5002E" d="M5.98863025,3.11680907 C5.86690521,3.23416047 5.70718507,3.29283617 5.54828581,3.29283617 C5.38938655,3.29283617 5.22990095,3.23416047 5.10817591,3.11680907 C4.98680267,2.99957093 4.92570562,2.84529235 4.92558835,2.6916934 C4.92570562,2.53786791 4.98680267,2.38358933 5.10817591,2.26657774 C5.22990095,2.14933961 5.38915201,2.09021081 5.54828581,2.09021081 C5.70718507,2.09021081 5.86690521,2.14888652 5.98863025,2.26669102 C6.10976894,2.38358933 6.17110054,2.53786791 6.17110054,2.6916934 C6.17110054,2.84529235 6.10976894,2.99957093 5.98863025,3.11680907 M7.8783001,2.51668576 L5.72946614,0.441061092 C5.62591777,0.340927268 5.45787154,0.340927268 5.35432317,0.441061092 L3.03087594,2.68535009 L5.55497013,5.12345013 L7.8783001,2.87904787 C7.98196574,2.77914059 7.98196574,2.61681958 7.8783001,2.51668576"/>
        <path fill="#017AFF" d="M3.26440821,4.94314099 C3.38592475,4.82542454 3.54544454,4.76684956 3.70461244,4.76684956 C3.86378035,4.76684956 4.02353472,4.82542454 4.14469938,4.94314099 C4.2668024,5.06051754 4.32767796,5.21414941 4.32767796,5.36846106 C4.32767796,5.52186633 4.2668024,5.67606469 4.14469938,5.79332794 C4.02353472,5.91002472 3.86378035,5.96927948 3.70461244,5.96927948 C3.54544454,5.96927948 3.38592475,5.91025131 3.2645255,5.79332794 C3.14289167,5.67583809 3.0820161,5.52175303 3.0820161,5.36846106 C3.0820161,5.2144893 3.14289167,5.06051754 3.26440821,4.94314099 L3.26440821,4.94314099 Z M2.31796324,5.7693088 C2.19609482,5.88600557 2.03645774,5.94492045 1.87752442,5.94492045 C1.71788734,5.94469385 1.55871944,5.88611887 1.4370856,5.7693088 C1.31533447,5.65204554 1.25504538,5.49784719 1.25504538,5.34421532 C1.25504538,5.19047016 1.31568635,5.03627181 1.4370856,4.91844206 C1.55871944,4.80140539 1.71788734,4.74260382 1.87752442,4.74260382 C2.03645774,4.74260382 2.19632941,4.80140539 2.31796324,4.91855536 C2.43947979,5.03627181 2.49988618,5.19047016 2.49965227,5.34410203 C2.49965227,5.49784719 2.43936249,5.65227214 2.31796324,5.7693088 L2.31796324,5.7693088 Z M0.456625388,5.17132283 C0.352937527,5.27147811 0.352937527,5.43372061 0.456625388,5.5338759 L2.60591992,7.61028533 C2.65776385,7.66013638 2.72555976,7.6851752 2.79347296,7.6851752 C2.86138616,7.6851752 2.92941666,7.66013638 2.98126059,7.61028533 L5.30403289,5.3663084 L2.77928039,2.92768579 L0.456625388,5.17132283 Z"/>
      </g>
    </g>
    <path fill="#D8D8D8" d="M6.98020715,15.6564652 L7.88476449,16.5768694 C4.18796758,18.7690538 3.07146432,20.9612383 4.53525471,23.1534227 L1.27487735,23.1534227 C-0.393773978,20.6544369 1.50800262,18.155451 6.98020715,15.6564652 Z" style="mix-blend-mode:multiply"/>
    <path fill="#D1D1D1" d="M39.0746802,23.9501967 L40.3387132,23.9501967 C40.3916075,24.1396098 39.9702631,24.1396098 39.0746802,23.9501967 Z M29.5259774,15.0796779 L29.790605,15.0803761 C29.8097181,15.0805149 29.829138,15.0806811 29.8488597,15.0808804 C27.5350086,15.5771237 27.1013576,18.5339197 28.5478642,23.9501967 L26.5916377,23.9501967 C24.8527698,17.4392062 25.830883,14.4823666 29.5259774,15.0796779 Z" style="mix-blend-mode:multiply"/>
  </g>
</svg>
