<svg xmlns="http://www.w3.org/2000/svg" viewBox="0 0 48 35">
  <g fill="none" fill-rule="evenodd" transform="translate(6.575 .642)">
    <path fill="#D1D1D1" d="M0.657478291,7.40594741 L8.21912213,7.40594741 L8.21912213,10.3609745 C8.21912213,12.4490648 6.5263905,14.1417965 4.43830021,14.1417965 C2.35020992,14.1417965 0.657478291,12.4490648 0.657478291,10.3609745 L0.657478291,7.40594741 L0.657478291,7.40594741 Z"/>
    <path fill="#D1D1D1" d="M1.64377966 5.48141911L9.2054235 5.48141911 9.2054235 8.43644624C9.2054235 10.5245365 7.51269187 12.2172682 5.42460158 12.2172682 3.33651129 12.2172682 1.64377966 10.5245365 1.64377966 8.43644624L1.64377966 5.48141911 1.64377966 5.48141911zM17.7533687 7.40594741L25.3150125 7.40594741 25.3150125 10.3609745C25.3150125 12.4490648 23.6222809 14.1417965 21.5341906 14.1417965 19.4461003 14.1417965 17.7533687 12.4490648 17.7533687 10.3609745L17.7533687 7.40594741 17.7533687 7.40594741z"/>
    <path fill="#D1D1D1" d="M18.7396701,5.48141911 L26.3013139,5.48141911 L26.3013139,8.43644624 C26.3013139,10.5245365 24.6085823,12.2172682 22.520492,12.2172682 C20.4324017,12.2172682 18.7396701,10.5245365 18.7396701,8.43644624 L18.7396701,5.48141911 L18.7396701,5.48141911 Z"/>
    <polygon fill="#017AFF" points="9.939 30.422 25.445 30.422 25.445 16.923 9.939 16.923"/>
    <path fill="#F5002E" d="M10.5085639.0501273378L16.1497903.0501273378 16.1497903 7.59677304 16.1497903 9.59258017C16.1497903 11.7536651 14.4484204 13.5218255 12.3689684 13.5218255 10.2895163 13.5218255 8.58814646 11.7536651 8.58814646 9.59258017L8.58814646 6.34939359M33.2456807 6.6307725L29.2963656.0501273378 23.0538999.0501273378 25.2196533 7.12742496 25.2196533 9.61068729C25.2196533 11.7618133 27.0255095 13.5218255 29.232667 13.5218255 31.4398245 13.5218255 33.2456807 11.7618133 33.2456807 9.61068729L33.2456807 6.6307725z"/>
    <path fill="#393940" d="M30.1759976,0 C30.5851781,0 30.8086154,0.119346719 31.0048134,0.444526808 C31.5532882,1.35353152 32.1166499,2.27158199 32.667846,3.1679584 L32.7857635,3.35969612 L32.9032307,3.55067302 L32.9149494,3.56972467 C33.495115,4.51278792 34.087255,5.47531473 34.6623543,6.4256817 C34.7711513,6.60532291 34.8392549,6.82447615 34.8472273,7.02000892 L34.8478104,7.03885559 L34.8480122,7.05731088 L34.8486011,7.3864078 C34.8508342,8.37151157 34.8531967,9.39014932 34.7658685,10.3802052 C34.6976908,11.152975 34.3229969,11.8816293 33.5939221,12.6761119 C33.4136861,12.8725407 33.2983111,13.156298 33.2979234,13.3985346 C33.2918478,17.0517848 33.2897223,20.7425903 33.2891502,24.4017927 L33.2890446,25.2456316 L33.2889924,25.9829199 L33.2889984,27.8764734 L33.2893188,31.259055 L33.2894367,32.6234516 C33.2894367,32.9530372 33.2598281,33.1505838 33.1618422,33.2438703 C33.0648291,33.3362316 32.8620766,33.365755 32.5232534,33.3667894 L32.5049718,33.3667894 L28.7833857,33.3664368 L25.0618024,33.3663381 L21.2472218,33.3663381 L17.6684227,33.3664509 L13.7580949,33.3649842 L10.0835484,33.365097 C7.47029381,33.365097 4.85774642,33.3649842 2.24460684,33.3644201 C1.98253967,33.3643709 1.80887487,33.3400759 1.70589344,33.2420315 C1.60810292,33.1489292 1.5809996,32.9942844 1.57862096,32.7647479 L1.57849656,32.7489815 L1.57845175,32.7325544 L1.57845224,29.3890601 L1.57848288,27.1866426 C1.57855497,24.9112853 1.57879405,22.612797 1.57958686,20.3106665 L1.57975292,19.8501976 L1.57993444,19.3896676 L1.58026284,18.6440003 C1.58108075,16.9041491 1.58226804,15.1649019 1.5839915,13.4346851 C1.58437672,13.1187995 1.48267654,12.8711166 1.25324254,12.6321921 C0.454490837,11.800279 0.0364659442,10.8031737 0.0102622967,9.6676872 L0.00958819127,9.63323619 L0.00914645963,9.59802159 L0.0067892384,9.35534826 C-0.000440126815,8.59837288 -0.00785572802,7.82407929 0.0185241333,7.06597856 C0.0261121721,6.84639173 0.0962608137,6.60660847 0.20647833,6.42466429 C0.759109669,5.5121329 1.32565713,4.58927003 1.87981001,3.68809425 L1.99835776,3.49532877 L2.12726687,3.28574099 C2.71199247,2.33524835 3.31652282,1.35236894 3.90548991,0.382132541 C4.06955128,0.111896018 4.26546073,0.00575888999 4.60103651,0.00255695317 L4.61686934,0.00248202104 L4.78378479,0.00276814077 L4.95058304,0.00304441012 L5.11722952,0.00331098995 C7.00020672,0.00627055547 8.84903634,0.00740601055 10.4677354,0.0078088504 L10.5458791,0.00782777547 L10.6224461,0.00784531466 L10.7636893,0.00787510761 L10.9731743,0.00791334018 L11.1112014,0.00793476901 L11.179716,0.00794432868 L11.3832101,0.0079686394 L11.4503495,0.00797535721 L11.8456157,0.00800257917 L12.2273402,0.00801064581 C13.377861,0.00801064581 14.5284997,0.00778499317 15.6791387,0.00755933981 C16.8104358,0.00733368871 17.9417295,0.00710803784 19.0731411,0.00710803784 C19.9254896,0.00710803784 20.7664771,0.00747358876 21.6063305,0.0078756938 L21.8862536,0.00801063138 L23.2859154,0.00863118643 L24.6855696,0.00891325374 L24.8832411,0.00890592069 L25.0781775,0.00888383731 L25.1425629,0.00887317574 L25.2704497,0.00884687517 C27.2013605,0.00839747788 28.7336339,0.00564659358 30.1759976,0 Z M24.8488707,19.4132598 L10.0311582,19.4132598 L10.0311582,32.4864407 L24.8488707,32.4864407 L24.8488707,19.4132598 Z M8.93944303,11.6494807 L8.66961828,12.0131539 L8.64850454,12.0414668 L8.62770739,12.0690584 C7.94014161,12.9763996 7.12769035,13.5687104 6.14450168,13.8767789 C5.6909726,14.0188005 5.21919794,14.0910319 4.74269218,14.0910319 C4.18213467,14.0910319 3.61030769,13.9962935 2.99530673,13.8025015 L2.99530673,13.8025015 L2.95653449,13.7901714 L2.51610014,13.6485735 L2.51610014,32.4835073 L9.07806906,32.4835073 L9.07806906,18.5483683 L25.7998382,18.5483683 L25.7998382,32.4794455 L32.3369369,32.4794455 L32.3369369,13.6727441 L31.9037191,13.8009426 L31.8629365,13.8129068 L31.8225149,13.8245343 C31.2167225,13.9970612 30.6349695,14.0847136 30.0921931,14.0847136 C28.5718365,14.0847136 27.3029483,13.419291 26.2112582,12.0580932 L26.2112582,12.0580932 L26.1779228,12.0162435 L25.9046051,11.6708723 L25.6402999,12.0228627 L25.6086807,12.0646561 L25.5775094,12.105238 C24.5463692,13.4375483 23.2689149,14.0875343 21.6706086,14.0875343 C20.0712984,14.0865484 18.7833471,13.4201099 17.7324328,12.0551138 L17.7324328,12.0551138 L17.7003754,12.0131635 L17.4290192,11.6554305 L17.1590096,12.0143295 L17.1272023,12.0562901 L17.095848,12.0970353 C16.0587106,13.434707 14.7792012,14.0873086 13.1838428,14.0873086 C11.5827096,14.0867609 10.2943123,13.4195903 9.24464405,12.0525688 L9.24464405,12.0525688 L9.21262509,12.0105559 L8.93944303,11.6494807 Z M8.57640859,7.30657901 L0.913913996,7.30657901 L0.913913996,7.62888276 L0.91376544,7.72144216 L0.913350706,7.81404177 C0.912640501,7.93751737 0.91134226,8.06089755 0.909946498,8.18258327 L0.909946498,8.18258327 L0.908887898,8.2735989 L0.90847637,8.30873689 L0.907461233,8.39445483 L0.906475429,8.48072214 C0.901686686,8.91279252 0.899444821,9.35547371 0.919673263,9.7909429 C0.96166308,10.698805 1.35318609,11.5142135 1.97913527,12.1246109 C2.6034316,12.7333964 3.46122174,13.1383011 4.43799228,13.2260715 C4.54275994,13.2355894 4.64981208,13.2403564 4.75589345,13.2403564 C5.61048087,13.2403564 6.42299362,12.9456449 7.0634815,12.4552163 C7.70536092,11.9637223 8.17415197,11.2759489 8.34120141,10.492343 C8.46099999,9.93097834 8.49182782,9.34828639 8.51038426,8.77462252 L8.51038426,8.77462252 L8.51203069,8.72279908 L8.51508998,8.62226062 L8.51657633,8.57200096 L8.51657633,8.57200096 L8.51805936,8.52141768 C8.52562903,8.26378009 8.53341827,7.99836765 8.54877773,7.73622975 L8.54877773,7.73622975 L8.55419152,7.6489342 L8.57640859,7.30657901 Z M16.9974375,7.29924532 L9.40103336,7.29924532 L9.40103336,7.62154907 L9.4008747,7.71349555 L9.40043177,7.80520667 C9.39967325,7.92734135 9.39828657,8.04879964 9.39679528,8.16851186 L9.39679528,8.16851186 L9.39566403,8.25805393 L9.39502967,8.30802661 L9.39397654,8.3871816 L9.39295567,8.46617976 C9.38732498,8.91267422 9.38475349,9.33994791 9.40752719,9.77502398 C9.45472095,10.6745764 9.82187722,11.469719 10.4205418,12.0723812 C11.0174237,12.6732489 11.8450697,13.0830545 12.8169044,13.2118347 C12.9598805,13.2308042 13.1066418,13.2403564 13.2527959,13.2403564 C14.0168096,13.2403564 14.7690929,12.9804056 15.3940624,12.5401995 C16.0184387,12.1004113 16.5153497,11.48099 16.7705825,10.7635136 C16.9998855,10.118853 17.0111975,9.46537228 16.9951491,8.82634845 L16.9951491,8.82634845 L16.9934301,8.76141372 C16.9925309,8.72897218 16.9915777,8.69657006 16.9905955,8.66421041 L16.9905955,8.66421041 L16.9896003,8.63170225 L16.9875476,8.56574793 L16.9856486,8.50411404 L16.9836397,8.43739557 C16.9764093,8.19229505 16.9710402,7.94235199 16.9796565,7.69697569 L16.9796565,7.69697569 L16.9821216,7.6354723 L16.9974375,7.29924532 Z M34.0212271,7.30330706 L26.3743291,7.30330706 L26.3743291,7.62561081 L26.374159,7.71744644 L26.373684,7.80919673 C26.3728706,7.93147251 26.3713837,8.0533992 26.3697857,8.17356839 L26.3697857,8.17356839 L26.3685736,8.26345264 L26.3682087,8.29034313 L26.3671201,8.36782473 L26.3660074,8.44969938 C26.3602512,8.88518309 26.3578009,9.30233312 26.3807123,9.72822476 C26.4317428,10.6694207 26.8209506,11.499449 27.4442978,12.1165485 C28.0667915,12.7328031 28.9232633,13.1370228 29.911381,13.2257337 C30.014541,13.2350276 30.1199178,13.2396795 30.2243237,13.2396795 C31.072679,13.2396795 31.8920388,12.9338968 32.5392129,12.4320592 C33.1876421,11.9292484 33.6626425,11.2300723 33.8231055,10.446698 C33.9536581,9.80956868 33.9658762,9.14641546 33.9771799,8.50449318 C33.9815644,8.25277893 33.9862132,7.99362023 33.998081,7.73781771 L33.998081,7.73781771 L34.0028829,7.64207849 L34.0212271,7.30330706 Z M25.4103962,7.30804575 L17.9382468,7.30804575 L17.9382468,7.6303495 L17.93797,7.71693597 L17.9371838,7.80366072 C17.9348043,8.00617629 17.9287873,8.20950833 17.9228484,8.40760264 C17.9057366,8.9789592 17.8885011,9.5698541 17.95754,10.1460824 C18.0603884,11.0042563 18.5162423,11.7732006 19.1802372,12.3293199 C19.8358724,12.8784377 20.6941582,13.2197231 21.6131804,13.2345863 L21.6131804,13.2345863 L21.6411238,13.234938 L21.6758085,13.2350538 L21.7035574,13.2349542 L21.731244,13.2346572 C22.6443017,13.2216205 23.4973334,12.8887497 24.1518299,12.3501654 C24.821498,11.7990965 25.2830485,11.0330001 25.3903375,10.1744258 C25.4622109,9.59883329 25.4452353,9.03152788 25.4264728,8.41849634 C25.4194444,8.18948454 25.4122075,7.95387338 25.4106866,7.7184546 L25.4106866,7.7184546 L25.4103957,7.63014239 L25.4103962,7.30804575 Z M8.31001289,0.867859642 L7.71997524,0.867859642 C7.0095148,0.868193803 6.21297421,0.869861447 5.40647263,0.876645777 L5.40647263,0.876645777 L5.3331329,0.877276701 L5.20111517,0.878484533 L5.13504274,0.879124896 L5.06898458,0.879789754 L5.05658712,0.88007773 C4.80836507,0.889051071 4.54464757,1.08975109 4.42321981,1.28385512 C3.68208762,2.46815637 2.93851345,3.67627024 2.21696437,4.84975227 L2.21696437,4.84975227 L2.09692819,5.04497936 L1.7376414,5.62942263 L1.72601573,5.64868704 L1.71478852,5.66800106 C1.68533411,5.71960014 1.65943778,5.77227464 1.62941225,5.83358865 C1.61605979,5.86092479 1.60183516,5.89005062 1.58589246,5.92155248 L1.58589246,5.92155248 L1.57774657,5.93755787 L1.35253074,6.37743291 L1.86148106,6.40185604 L1.88782773,6.40312076 L1.91329816,6.40442167 C1.94684898,6.40618373 1.97879502,6.40804733 2.00954733,6.40991041 C2.09220636,6.41475687 2.1707051,6.41930388 2.24901012,6.42057574 L2.24901012,6.42057574 L2.28818216,6.42092727 L2.60259911,6.4211534 L3.37555474,6.42169653 L4.14848218,6.42211432 L4.14848218,6.42211432 L4.92138078,6.42228142 C5.63631676,6.42228142 6.3508991,6.42183006 7.06937145,6.42047603 C7.17606741,6.42047621 7.29377357,6.43008788 7.4217614,6.44051323 C7.55694194,6.45147806 7.69637859,6.46267313 7.83072829,6.46267313 C8.01786719,6.46267313 8.28951082,6.44111081 8.50010376,6.2899849 C8.76334843,6.10107776 8.87880501,5.77909961 8.96938774,5.44405405 L8.96938774,5.44405405 L8.97401495,5.42686274 L8.98334504,5.391788 L8.98952445,5.36831472 C8.99364545,5.35260905 8.99779216,5.3367134 9.002102,5.3201696 C9.03124461,5.20836625 9.05876255,5.1025311 9.091368,5.00714719 C9.39255516,4.12836151 9.68292153,3.26541533 9.99026374,2.35180037 C10.0886746,2.05942059 10.1877448,1.76522549 10.2876746,1.4687708 L10.2876746,1.4687708 L10.3477378,1.29062147 L10.4899748,0.868614772 L10.0293289,0.868614772 L9.82428838,0.8685895 L9.61987365,0.868520906 C9.41575944,0.86843426 9.21253297,0.868298874 9.01007026,0.868163491 L9.01007026,0.868163491 L8.84220614,0.86809865 L8.67474593,0.868024347 L8.45470073,0.867928272 L8.41980232,0.867859642 L8.41980232,0.867859642 L8.38491895,0.867859642 L8.31001289,0.867859642 Z M26.9332078,0.86782499 L26.6270985,0.86782499 L25.7443658,0.867937817 L24.8452526,0.868163471 L24.3930612,0.868163467 L24.5250328,1.28457063 L24.5313533,1.30433326 L24.5374461,1.3234921 C24.5495252,1.36158089 24.5610892,1.3986689 24.5743701,1.44146212 C24.5996538,1.52190643 24.6207129,1.58888651 24.6430368,1.65546295 C24.7280584,1.90707002 24.8132843,2.1584555 24.8986289,2.40974698 L24.8986289,2.40974698 L25.0267074,2.78658002 L25.0361111,2.81426758 L25.0997024,3.00151223 L25.163495,3.18941093 C25.4616339,4.0678063 25.7654553,4.96694809 26.05484,5.85574856 C26.1204238,6.05738386 26.2179168,6.19872985 26.3542242,6.2915479 C26.4882593,6.38281861 26.6622602,6.42814688 26.8913346,6.42814688 C27.8508052,6.42177529 28.8048524,6.42048166 29.6399935,6.42028206 L29.6399935,6.42028206 L29.7008951,6.42026935 L29.9243569,6.42025056 L30.9498885,6.42058903 L31.9757201,6.42070186 L32.6281004,6.42058898 L32.6569561,6.42032539 L32.6856069,6.41957647 C32.7522578,6.41730058 32.8178162,6.41146821 32.8888773,6.40506531 C32.9089743,6.40324558 32.9288973,6.40144079 32.9486802,6.39981709 L32.9486802,6.39981709 L32.9784224,6.39752761 L33.2698217,6.37672365 L33.2898943,6.075693 L33.290361,6.07178801 C33.2950953,6.03130669 33.3011627,5.94819964 33.245988,5.85095318 L33.245988,5.85095318 L32.9311695,5.33562817 L32.8060618,5.13085578 L32.6657543,4.90122049 C31.9161807,3.67449742 31.1468493,2.41684685 30.3827014,1.18093626 C30.2772168,1.01052129 30.0331811,0.875660343 29.8270419,0.874595904 C28.8388512,0.86911174 27.8580696,0.868014574 26.9332078,0.86782499 L26.9332078,0.86782499 Z M21.0097162,0.866696731 L20.8726452,0.866696731 L20.4776142,0.866851878 L20.0825709,0.867260924 L19.8853583,0.867444151 L19.589298,0.867705988 L19.2932922,0.867824996 L17.9017076,0.86782499 L17.9017076,6.39554166 L25.1593438,6.39554166 L25.1235284,6.03311659 L25.1230353,6.02629218 C25.122571,6.01942702 25.1221783,6.01234184 25.121722,6.0041567 C25.1196739,5.96325119 25.1167219,5.91736989 25.0965737,5.85112909 L25.0965737,5.85112909 L24.8645452,5.16234107 L24.8488997,5.11590008 L24.7742271,4.89425588 L24.6992564,4.6717888 C24.3237055,3.55764144 23.9377787,2.41733372 23.5452257,1.29674441 C23.5041226,1.17944578 23.4069959,1.07931489 23.288057,1.00685191 C23.1522638,0.924120491 22.9905615,0.878447219 22.8710561,0.876971635 C22.2092362,0.868634644 21.5656818,0.866933892 21.0097162,0.866696731 L21.0097162,0.866696731 Z M11.940399,0.86128238 C11.7433675,0.86128238 11.6078957,0.917286656 11.5109655,0.993304366 C11.3667055,1.10644068 11.3084105,1.26922583 11.2722035,1.37803968 C11.0185431,2.13967117 10.7583711,2.91251236 10.5050003,3.66429511 L10.5050003,3.66429511 L10.4466518,3.83740989 L10.3070874,4.25184383 L10.2465342,4.43140277 L10.1858633,4.61110653 C10.1251234,4.79092654 10.0641603,4.97116314 10.002829,5.15242706 L10.002829,5.15242706 L9.94136579,5.33406726 L9.90708627,5.43536978 L9.72616003,5.96993386 L9.58339886,6.39215688 L16.9734887,6.39215688 L16.9734887,0.937914397 L16.6732308,0.895818373 L16.6710018,0.895481971 C16.6657013,0.894677692 16.6594116,0.893691286 16.6459705,0.891540932 L16.6459705,0.891540932 L16.6171532,0.886807197 L16.5996875,0.883869327 C16.5590792,0.877130999 16.519262,0.871373488 16.4755179,0.870038658 L16.4755179,0.870038658 L16.4567743,0.869743286 L15.9817351,0.869517392 L15.1853242,0.869855867 L14.3891227,0.870194345 L14.2871183,0.870186458 L14.2328302,0.870175321 L14.175055,0.870157645 C13.498199,0.869913798 12.7237865,0.868314055 11.940399,0.86128238 Z"/>
    <g transform="translate(14.168 19.96)">
      <path fill="#FFF" d="M7.61557521,2.14858758 L5.50939628,0.132058241 C5.42055174,0.046770627 5.30239883,0 5.1765453,0 C5.05103658,0 4.93265381,0.046770627 4.84380926,0.132058241 L3.07749233,1.82328411 L0.137576872,4.63810552 C-0.0458589573,4.81385302 -0.0458589573,5.09975912 0.137576872,5.27528653 L2.24387073,7.29225606 C2.33271528,7.37732358 2.45086818,7.42420425 2.57660678,7.42420425 C2.70223044,7.42420425 2.82061321,7.37732358 2.90945776,7.29225606 L5.54456631,4.76906327 L7.61557521,2.78587864 C7.79912597,2.61024118 7.79912597,2.32433509 7.61557521,2.14858758"/>
      <path fill="#F5002E" d="M5.57070009,2.87410712 C5.4574699,2.98232052 5.3088962,3.03642722 5.16108608,3.03642722 C5.01327597,3.03642722 4.86492043,2.98232052 4.75169025,2.87410712 C4.63878732,2.76599817 4.58195406,2.62373307 4.58184498,2.48209468 C4.58195406,2.34024738 4.63878732,2.19798227 4.75169025,2.09008223 C4.86492043,1.98197328 5.0130578,1.92744877 5.16108608,1.92744877 C5.3088962,1.92744877 5.4574699,1.98155547 5.57070009,2.09018668 C5.68338484,2.19798227 5.74043628,2.34024738 5.74043628,2.48209468 C5.74043628,2.62373307 5.68338484,2.76599817 5.57070009,2.87410712 M7.32849504,2.32071465 L5.32962234,0.406716228 C5.23330032,0.314379697 5.07698158,0.314379697 4.98065957,0.406716228 L2.81935938,2.4762453 L5.16730393,4.72449361 L7.32849504,2.65486009 C7.42492614,2.56273246 7.42492614,2.41305118 7.32849504,2.32071465"/>
      <path fill="#017AFF" d="M3.03659407,4.55822491 C3.14963031,4.44967489 3.29801764,4.39566107 3.44607765,4.39566107 C3.59413766,4.39566107 3.74274321,4.44967489 3.85545212,4.55822491 C3.9690339,4.6664615 4.02566113,4.80813025 4.02566113,4.95042585 C4.02566113,5.09188565 3.9690339,5.23407678 3.85545212,5.34220889 C3.74274321,5.44981864 3.59413766,5.50445931 3.44607765,5.50445931 C3.29801764,5.50445931 3.14963031,5.45002759 3.03670318,5.34220889 C2.92355784,5.23386782 2.86693061,5.09178117 2.86693061,4.95042585 C2.86693061,4.80844368 2.92355784,4.6664615 3.03659407,4.55822491 L3.03659407,4.55822491 Z M2.15619892,5.32006009 C2.04283536,5.42766984 1.89433891,5.48199708 1.74649712,5.48199708 C1.59800067,5.48178813 1.44994066,5.42777431 1.33679532,5.32006009 C1.22354087,5.21192797 1.16745918,5.06973685 1.16745918,4.9280681 C1.16745918,4.78629488 1.22386819,4.64410375 1.33679532,4.53544926 C1.44994066,4.42752609 1.59800067,4.37330331 1.74649712,4.37330331 C1.89433891,4.37330331 2.04305357,4.42752609 2.15619892,4.53555373 C2.26923515,4.64410375 2.32542594,4.78629488 2.32520836,4.92796363 C2.32520836,5.06973685 2.26912604,5.21213692 2.15619892,5.32006009 L2.15619892,5.32006009 Z M0.424758748,4.76863852 C0.32830698,4.86099484 0.32830698,5.01060373 0.424758748,5.10296005 L2.42405988,7.01768213 C2.47228576,7.06365134 2.53535038,7.08674042 2.59852411,7.08674042 C2.66169783,7.08674042 2.72498067,7.06365134 2.77320655,7.01768213 L4.93387891,4.94844082 L2.585322,2.69971064 L0.424758748,4.76863852 Z"/>
    </g>
  </g>
</svg>
