<?xml version="1.0" encoding="UTF-8"?><svg version="1.1" width="40px" height="40px" viewBox="0 0 40.0 40.0" xmlns="http://www.w3.org/2000/svg" xmlns:xlink="http://www.w3.org/1999/xlink"><defs><clipPath id="i0"><path d="M360,0 L360,960 L0,960 L0,0 L360,0 Z"></path></clipPath><clipPath id="i1"><path d="M7.81638595,0 C8.46827343,-1.19749787e-16 8.99673265,0.528459214 8.99673265,1.18034669 L8.99624255,1.21448996 C8.85911206,5.9531785 8.68755269,9.26239059 8.48156443,11.1421262 C8.40115038,11.8759407 8.3038237,12.498361 8.18958442,13.009387 C7.97468328,13.9754572 7.19179375,14.7121849 6.21467169,14.8693672 L3.71068444,15.2670086 C2.56607849,15.4487758 1.49084062,14.6682408 1.30907342,13.5236348 C1.24811994,13.1398047 1.29495494,12.746588 1.44435813,12.3878129 L6.13649181,1.12017847 C6.4189535,0.441878305 7.0816236,1.34973656e-16 7.81638595,0 Z"></path></clipPath><clipPath id="i2"><path d="M7.41,0 C8.60165526,0 9.46834474,0.0758447368 10.01,0.2275 L10.01,3.12 C9.77165526,3.055 9.51165526,3.01165526 9.23,2.99 C8.97,2.94665526 8.65584474,2.925 8.2875,2.925 C7.78915526,2.925 7.35584474,3.04415526 6.9875,3.2825 C6.64084474,3.52084474 6.4675,3.98665526 6.4675,4.68 L6.4675,6.4025 L9.62,6.4025 L9.62,9.165 L6.4675,9.165 L6.30722791,20.3849369 L2.64097637,20.3849369 L2.7625,9.165 L0,9.165 L0,6.4025 L2.7625,6.4025 L2.7625,5.005 C2.7625,3.94334474 2.8925,3.0875 3.1525,2.4375 C3.4125,1.76584474 3.75915526,1.25665526 4.1925,0.91 C4.62584474,0.541655263 5.11334474,0.303344737 5.655,0.195 C6.21834474,0.065 6.80334474,0 7.41,0 Z"></path></clipPath><clipPath id="i3"><path d="M20.6142585,0 C23.5887214,-5.46399975e-16 26,2.41127862 26,5.38574155 L26,20.6142585 C26,23.5887214 23.5887214,26 20.6142585,26 L5.38574155,26 C2.41127862,26 3.6426665e-16,23.5887214 0,20.6142585 L0,5.38574155 C-3.6426665e-16,2.41127862 2.41127862,5.46399975e-16 5.38574155,0 L20.6142585,0 Z"></path></clipPath></defs><g transform="translate(-40.0 -259.0)"><g clip-path="url(#i0)"><g transform="translate(40.0 191.0)"><g transform="translate(0.0 68.0)"><g transform="translate(7.0 7.0)"><g transform="translate(16.61684667179309 10.065086455851661)"><g clip-path="url(#i1)"><polygon points="1.28310268,0 8.99673265,0 8.99673265,15.2932863 1.28310268,15.2932863 1.28310268,0" stroke="none" fill="#F4002E"></polygon></g></g><g transform="translate(6.782516063826079 4.803437116453724)"><g clip-path="url(#i2)"><polygon points="0,0 10.01,0 10.01,20.3849369 0,20.3849369 0,0" stroke="none" fill="#0179FF"></polygon></g></g><g clip-path="url(#i3)"><path d="M5.38574155,0 L20.6142585,0 C23.5887214,-5.46399975e-16 26,2.41127862 26,5.38574155 L26,20.6142585 C26,23.5887214 23.5887214,26 20.6142585,26 L5.38574155,26 C2.41127862,26 3.6426665e-16,23.5887214 0,20.6142585 L0,5.38574155 C-3.6426665e-16,2.41127862 2.41127862,5.46399975e-16 5.38574155,0 Z" stroke="#FFFFFF" stroke-width="2.5051416" fill="none" stroke-miterlimit="10"></path></g><g transform="translate(7.699078947366281 5.72000000000021)"><path d="M0,6.32974668 L2.7625,6.32974668 L2.7625,4.94812685 C2.7625,3.89853546 2.8925,3.05241591 3.1525,2.40980204 C3.4125,1.74577897 3.75915526,1.24237555 4.1925,0.899659427 C4.62584474,0.535500289 5.11334474,0.299897749 5.655,0.192784163 C6.21834474,0.0642613876 6.80334474,0 7.41,0 C8.60165526,0 9.46834474,0.0749828928 10.01,0.224914857 L10.01,3.08454661 C9.77165526,3.02028522 9.51165526,2.97743302 9.23,2.95602383 C8.97,2.91317163 8.65584474,2.89176244 8.2875,2.89176244 C7.78915526,2.89176244 7.35584474,3.00956371 6.9875,3.24520007 C6.64084474,3.48083644 6.4675,3.94135383 6.4675,4.62681991 L6.4675,6.32974668 L9.62,6.32974668 L9.62,9.06085565 L6.4675,9.06085565 L6.4675,19.7002236 L2.7625,19.7002236 L2.7625,9.06085565 L0,9.06085565 L0,6.32974668 Z" stroke="#FFFFFF" stroke-width="0.96648986" fill="none" stroke-miterlimit="10"></path></g></g></g></g></g></g></svg>