<?xml version="1.0" encoding="UTF-8"?><svg version="1.1" width="40px" height="40px" viewBox="0 0 40.0 40.0" xmlns="http://www.w3.org/2000/svg" xmlns:xlink="http://www.w3.org/1999/xlink"><defs><clipPath id="i0"><path d="M360,0 L360,960 L0,960 L0,0 L360,0 Z"></path></clipPath><clipPath id="i1"><path d="M7.94353764,0 C8.60541988,-3.436304e-16 9.14198145,0.536561572 9.14198145,1.19844381 L9.14140468,1.23436299 C9.00224013,5.87535521 8.82828417,9.11791465 8.61953679,10.9620413 C8.53914343,11.6722564 8.44211673,12.2764128 8.32845671,12.7745103 C8.1080456,13.7418356 7.31863635,14.4760295 6.33786375,14.6256437 L3.77104734,15.0202552 C2.61694993,15.1976812 1.5375369,14.4059326 1.36011085,13.2518352 C1.29988229,12.8600685 1.35099619,12.4592606 1.50761989,12.0951484 L6.22309674,1.13280539 C6.5187793,0.445414962 7.19525041,8.02070701e-16 7.94353764,0 Z"></path></clipPath><clipPath id="i2"><path d="M6.71494589,0 C10.1941414,-2.41547468e-15 13.0145866,2.82044521 13.0145866,6.29964071 C13.0145866,9.7788362 10.1941414,12.5992814 6.71494589,12.5992814 L6.29964071,12.5992814 C2.82044521,12.5992814 4.26078562e-16,9.7788362 0,6.29964071 C-4.26078562e-16,2.82044521 2.82044521,6.39117843e-16 6.29964071,0 L6.71494589,0 Z"></path></clipPath></defs><g transform="translate(-100.0 -259.0)"><g clip-path="url(#i0)"><g transform="translate(40.0 191.0)"><g transform="translate(60.0 68.0)"><g transform="translate(7.0 7.0)"><g transform="translate(17.82330028924151 10.39999999999997)"><g clip-path="url(#i1)"><polygon points="1.3355596,0 9.14198145,0 9.14198145,15.0451027 1.3355596,15.0451027 1.3355596,0" stroke="none" fill="#F4002E"></polygon></g></g><g transform="translate(4.906034878740812 6.552977462765254)"><g clip-path="url(#i2)"><polygon points="0,0 13.0145866,0 13.0145866,12.5992814 0,12.5992814 0,0" stroke="none" fill="#0179FF"></polygon></g></g><path d="M4.78732582,0 L21.7303305,0 C24.3742976,4.02489553e-16 26.5176563,2.14335878 26.5176563,4.78732582 L26.5176563,20.8841323 C26.5176563,23.5280993 24.3742976,25.6714581 21.7303305,25.6714581 L4.78732582,25.6714581 C2.14335878,25.6714581 3.23792578e-16,23.5280993 0,20.8841323 L0,4.78732582 C-3.23792578e-16,2.14335878 2.14335878,1.37386729e-15 4.78732582,0 Z" stroke="#FFFFFF" stroke-width="1.2" fill="none" stroke-miterlimit="10"></path><g transform="translate(6.768980696415969 6.552977462765254)"><path d="M6.29964071,0 L6.71494589,0 C10.1941414,-2.41547468e-15 13.0145866,2.82044521 13.0145866,6.29964071 C13.0145866,9.7788362 10.1941414,12.5992814 6.71494589,12.5992814 L6.29964071,12.5992814 C2.82044521,12.5992814 4.26078562e-16,9.7788362 0,6.29964071 C-4.26078562e-16,2.82044521 2.82044521,-2.49060576e-16 6.29964071,0 Z" stroke="#FFFFFF" stroke-width="1.11339632" fill="none" stroke-miterlimit="10"></path></g><g transform="translate(20.725641926163576 3.1751540283500526)"><path d="M1.23290555,0 L1.31418512,0 C1.99510006,9.69625605e-17 2.54709067,0.551990618 2.54709067,1.23290555 C2.54709067,1.91382049 1.99510006,2.46581111 1.31418512,2.46581111 L1.23290555,2.46581111 C0.551990618,2.46581111 8.33880296e-17,1.91382049 0,1.23290555 C-8.33880296e-17,0.551990618 0.551990618,1.25082044e-16 1.23290555,0 Z" stroke="#FFFFFF" stroke-width="1.11339632" fill="none" stroke-miterlimit="10"></path></g></g></g></g></g></g></svg>