<?xml version="1.0" encoding="UTF-8"?><svg version="1.1" width="41px" height="41px" viewBox="0 0 41.0 41.0" xmlns="http://www.w3.org/2000/svg" xmlns:xlink="http://www.w3.org/1999/xlink"><defs><clipPath id="i0"><path d="M360,0 L360,960 L0,960 L0,0 L360,0 Z"></path></clipPath><clipPath id="i1"><path d="M5.00854515,2.28005792 C5.30963393,2.28538905 5.58613717,2.4473849 5.73799866,2.7074252 L6.98072751,4.83541429 C7.19920974,5.20953274 7.27791251,5.64901862 7.20283811,6.07570695 L5.91983105,13.3677283 C5.8311648,13.8716665 5.53561899,14.315489 5.1048369,14.5916088 L2.89035858,16.0110302 C2.44465684,16.2967132 1.85175244,16.1669923 1.56606953,15.7212905 C1.38737809,15.4425091 1.36522608,15.0912436 1.50747958,14.7922224 C2.72993722,12.2225732 3.45596766,10.4444034 3.68557091,9.45771303 C3.92606873,8.4242046 4.07453172,6.31398964 4.1309599,3.12706814 C4.13943103,2.65084553 4.53232185,2.27162583 5.00854515,2.28005792 Z"></path></clipPath><clipPath id="i2"><path d="M6.80854729,0.125 C10.6991457,0.791666667 12.3202284,2.79166667 11.6717954,6.125 C9.74412952,8.26014626 8.12304683,9.26014626 6.80854729,9.125 C5.49404776,8.98985374 3.22453199,7.98985374 0,6.125 C0.648433076,1.45833333 2.91794884,-0.541666667 6.80854729,0.125 Z"></path></clipPath></defs><g transform="translate(-264.0 -83.0)"><g clip-path="url(#i0)"><g transform="translate(33.0 55.0)"><g transform="translate(33.999999999999986 28.75000204358457)"><g transform="translate(197.6834223387207 0.0)"><g transform="translate(0.999999999999833 3.0000000000000178)"><g transform="translate(15.099354374542491 16.46162692473089) rotate(150.00000000000003)"><g clip-path="url(#i1)"><polygon points="1.41451784,2.27991998 7.23053381,2.27991998 7.23053381,16.162698 1.41451784,16.162698 1.41451784,2.27991998" stroke="none" fill="#F4002E"></polygon></g></g><g transform="translate(21.70621063746097 24.12499795641315)"><g clip-path="url(#i2)"><polygon points="0,0 11.8107453,0 11.8107453,9.1370675 0,9.1370675 0,0" stroke="none" fill="#0179FF"></polygon></g></g><g transform="translate(23.82239685678725 0.0)"><path d="M0,0 C6.1710378,0.704570613 11.0465078,5.7102791 11.7401451,12.0548432" stroke="#FFFFFF" stroke-width="1.5" fill="none" stroke-linecap="round" stroke-linejoin="round"></path></g><g transform="translate(23.82239685678725 6.073655825477543)"><path d="M0,0 C2.95296081,0.589713603 5.26063882,2.96399657 5.83589092,6" stroke="#FFFFFF" stroke-width="1.5" fill="none" stroke-linecap="round" stroke-linejoin="round"></path></g><g transform="translate(3.2258724073438696 0.42857243445814674)"><path d="M9.50498022,22.7982578 C-1.99670375,10.9717915 -0.361193648,5.55624921 0.851287725,3.81112551 C1.00703932,3.52905727 4.84623852,-2.37963303 8.96157541,1.08697438 C19.1764021,9.73618723 6.24456801,8.51332007 14.8221605,17.3336356 C23.4015871,26.1520825 22.2102317,12.8571265 30.623252,23.3569429 C33.9952298,27.5896808 28.2478777,31.5366477 27.9752582,31.6950475 C26.2778476,32.9433889 21.0083716,34.6247584 9.50498022,22.7982578 Z" stroke="#FFFFFF" stroke-width="1.5" fill="none" stroke-linecap="round" stroke-linejoin="round"></path></g></g></g></g></g></g></g></svg>