<?xml version="1.0" encoding="UTF-8"?><svg version="1.1" width="40px" height="40px" viewBox="0 0 40.0 40.0" xmlns="http://www.w3.org/2000/svg" xmlns:xlink="http://www.w3.org/1999/xlink"><defs><clipPath id="i0"><path d="M360,0 L360,960 L0,960 L0,0 L360,0 Z"></path></clipPath><clipPath id="i1"><path d="M5.83510206,2.75564649 C6.19979138,2.75789173 6.53684042,2.95039408 6.72406074,3.26336675 L8.26218828,5.83462553 C8.5294777,6.28144821 8.62935564,6.80868987 8.54400837,7.32231423 L7.10309572,15.9938016 C6.9999943,16.6142713 6.63585418,17.1607757 6.10293331,17.4948533 L3.47048296,19.1450849 C2.92169052,19.4891122 2.19791716,19.3231172 1.85388992,18.7743247 C1.64170848,18.4358528 1.61640874,18.0126538 1.78673908,17.6513067 C3.22450558,14.6014823 4.07496046,12.488715 4.3381037,11.3130047 C4.61297145,10.08491 4.76205835,7.5780955 4.78536439,3.79256123 C4.78888817,3.21634141 5.25888238,2.75209893 5.83510206,2.75564649 Z"></path></clipPath><clipPath id="i2"><path d="M17.3029998,1.34678353 L14.6843955,13.900934 C14.4868219,14.7869707 13.9716391,15.0073802 13.2394885,14.590126 L9.24961344,11.601166 L7.32448732,13.4834835 C7.11146012,13.700044 6.93320341,13.8812574 6.52260256,13.8812574 L6.80926593,9.75030759 L14.2040605,2.95739875 C14.5256489,2.66598065 14.134365,2.50452245 13.70437,2.79594055 L4.56251277,8.64767104 L0.626879655,7.39547651 C-0.22920844,7.12369575 -0.244623357,6.52514967 0.805059099,6.10777768 L16.1989595,0.0787613089 C16.9116772,-0.192901631 17.5353439,0.240219506 17.3029998,1.34678353 Z"></path></clipPath></defs><g transform="translate(-220.0 -259.0)"><g clip-path="url(#i0)"><g transform="translate(40.0 191.0)"><g transform="translate(180.0 68.0)"><g transform="translate(5.0 5.0)"><g transform="translate(21.32379259005614 6.158904204956915)"><g clip-path="url(#i1)"><polygon points="1.6747797,2.75562629 8.57372437,2.75562629 8.57372437,19.324346 1.6747797,19.324346 1.6747797,2.75562629" stroke="none" fill="#F4002E"></polygon></g></g><g transform="translate(3.9713777701641657 7.464250905039369)"><g clip-path="url(#i2)"><polygon points="2.22044605e-16,2.91433544e-16 17.3524148,2.91433544e-16 17.3524148,14.7939293 2.22044605e-16,14.7939293 2.22044605e-16,2.91433544e-16" stroke="none" fill="#0179FF"></polygon></g></g><g transform="translate(5.186046807558187 7.986389585073566)"><path d="M17.3029998,1.34678353 L14.6843955,13.900934 C14.4868219,14.7869707 13.9716391,15.0073802 13.2394885,14.590126 L9.24961344,11.601166 L7.32448732,13.4834835 C7.11146012,13.700044 6.93320341,13.8812574 6.52260256,13.8812574 L6.80926593,9.75030759 L14.2040605,2.95739875 C14.5256489,2.66598065 14.134365,2.50452245 13.70437,2.79594055 L4.56251277,8.64767104 L0.626879655,7.39547651 C-0.22920844,7.12369575 -0.244623357,6.52514967 0.805059099,6.10777768 L16.1989595,0.0787613089 C16.9116772,-0.192901631 17.5353439,0.240219506 17.3029998,1.34678353 Z" stroke="#FFFFFF" stroke-width="1.2" fill="none" stroke-miterlimit="10"></path></g><path d="M14.9550052,0 C23.2144265,-1.51723108e-15 29.9100104,6.69558389 29.9100104,14.9550052 L29.9100104,15.0449948 C29.9100104,23.3044161 23.2144265,30 14.9550052,30 C6.69558389,30 1.01148739e-15,23.3044161 0,15.0449948 L0,14.9550052 C-1.01148739e-15,6.69558389 6.69558389,1.51723108e-15 14.9550052,0 Z" stroke="#FFFFFF" stroke-width="1.2" fill="none" stroke-miterlimit="10"></path></g></g></g></g></g></svg>