<?xml version="1.0" encoding="UTF-8"?><svg version="1.1" width="40px" height="40px" viewBox="0 0 40.0 40.0" xmlns="http://www.w3.org/2000/svg" xmlns:xlink="http://www.w3.org/1999/xlink"><defs><clipPath id="i0"><path d="M360,0 L360,960 L0,960 L0,0 L360,0 Z"></path></clipPath><clipPath id="i1"><path d="M5.83510206,2.75564649 C6.19979138,2.75789173 6.53684042,2.95039408 6.72406074,3.26336675 L8.26218828,5.83462553 C8.5294777,6.28144821 8.62935564,6.80868987 8.54400837,7.32231423 L7.10309572,15.9938016 C6.9999943,16.6142713 6.63585418,17.1607757 6.10293331,17.4948533 L3.47048296,19.1450849 C2.92169052,19.4891122 2.19791716,19.3231172 1.85388992,18.7743247 C1.64170848,18.4358528 1.61640874,18.0126538 1.78673908,17.6513067 C3.22450558,14.6014823 4.07496046,12.488715 4.3381037,11.3130047 C4.61297145,10.08491 4.76205835,7.5780955 4.78536439,3.79256123 C4.78888817,3.21634141 5.25888238,2.75209893 5.83510206,2.75564649 Z"></path></clipPath><clipPath id="i2"><path d="M9.43468305,0.00129744172 C9.55310308,-0.000399926706 9.70552607,-0.00257097934 9.84803153,0.0102184943 C10.0254451,0.0261263891 10.2537844,0.0686790207 10.4027835,0.218442179 C10.556702,0.373179021 10.5833062,0.599915863 10.5873204,0.769850073 C10.5894456,0.861034284 10.5849984,0.953086915 10.5804726,1.03467902 L10.5785835,1.06846849 C10.574648,1.13853428 10.5713028,1.19821849 10.5713028,1.25079744 C10.5713028,2.01263955 10.8723707,2.74321849 11.4081141,3.28179744 C11.9438574,3.82037639 12.6703952,4.12286323 13.4278269,4.12286323 C13.4563594,4.12286323 13.4887488,4.12235007 13.5238537,4.12183692 C13.637984,4.12010007 13.7809618,4.11796849 13.9137071,4.13071849 C14.083958,4.14702113 14.295532,4.19127113 14.4421304,4.33862639 L14.5172389,4.43096323 C14.6042348,4.56166849 14.6412288,4.71877376 14.6593322,4.85478428 C14.6801905,5.01125797 14.6797576,5.17535007 14.6795514,5.3013106 L14.679416,5.48957725 C14.6786581,5.60069876 14.6750349,5.73022178 14.6595683,5.85548165 C14.6377261,6.03287639 14.5872727,6.25302113 14.4421304,6.39895534 C14.2879364,6.55396849 14.0654217,6.57946849 13.8983192,6.5823106 C13.8091008,6.58385007 13.7190559,6.57871849 13.6394008,6.57378428 C13.6312149,6.57327113 13.6231865,6.57275797 13.615276,6.57224481 C13.5431772,6.56774481 13.4820978,6.56391586 13.4283385,6.56387639 C12.4121065,6.56932376 11.4195271,6.27560007 10.5713028,5.72328428 L10.5713028,11.482258 C10.5713028,12.5329685 10.2613406,13.5601527 9.68061418,14.4338632 C9.09988771,15.3075738 8.27441078,15.9886527 7.30851422,16.3908501 C6.34265702,16.7930474 5.27978906,16.8982843 4.25438732,16.6932185 C3.22898558,16.4881922 2.28717445,15.9821001 1.54796429,15.239008 C0.808793481,14.4959159 0.305478846,13.549258 0.101539802,12.518679 C-0.102359887,11.4881395 0.0022857936,10.4199422 0.402292827,9.44916586 C0.802299861,8.47835007 1.47972224,7.64853428 2.34892288,7.06467902 C3.21816288,6.48082376 4.24014071,6.16913955 5.28565299,6.16913955 C5.31611398,6.16913955 5.35121889,6.16846849 5.38943286,6.16775797 C5.49994248,6.16570534 5.63638722,6.16317902 5.76141894,6.17458692 C5.92887564,6.1899027 6.13513664,6.23324481 6.28142021,6.38028428 C6.42368953,6.52333692 6.47595334,6.72548165 6.49862198,6.89513955 C6.51948028,7.05110007 6.51908673,7.21471849 6.51877188,7.34052113 L6.51869317,7.38260007 C6.51869317,7.43067902 6.52097578,7.48385007 6.52357323,7.54507376 C6.52436033,7.56358692 6.52518679,7.58285007 6.5259739,7.60294218 C6.52927974,7.68595534 6.53191655,7.77887639 6.52794166,7.87112639 C6.52054287,8.04299481 6.48921607,8.26929744 6.3369505,8.42237639 C6.18452752,8.57557376 5.95473206,8.60833692 5.78101786,8.61698165 C5.68731295,8.62163955 5.59297835,8.61962639 5.50856128,8.61674481 C5.48451521,8.61595534 5.46164979,8.61508692 5.43984697,8.61425797 C5.38195536,8.61208692 5.33146254,8.6101527 5.28565299,8.6101527 C4.72078671,8.6101527 4.16855346,8.77854744 3.69880888,9.09410007 C3.22906429,9.40961323 2.86286344,9.8581527 2.6466062,10.3829948 C2.43034895,10.9078764 2.37375606,11.4854159 2.48402955,12.0426264 C2.59426368,12.5998369 2.86640542,13.1116132 3.26594019,13.513258 C3.6654356,13.9149027 4.1744174,14.1883369 4.72846099,14.2991395 C5.28246522,14.4099027 5.85673742,14.3530606 6.3786671,14.135758 C6.90055742,13.9184159 7.3467282,13.5503632 7.66066524,13.0780606 C7.97460228,12.6057185 8.14217705,12.0503632 8.14217705,11.482258 L8.14217705,1.25079744 C8.14217705,1.19821849 8.13883185,1.13853428 8.13489633,1.06846849 C8.13426664,1.05745534 8.13363696,1.04620534 8.13300727,1.03467902 C8.12848142,0.953086915 8.12403427,0.861034284 8.12619881,0.769850073 C8.13021305,0.599915863 8.15677786,0.373179021 8.31069635,0.218442179 C8.45792444,0.0704553365 8.6739062,0.0266000733 8.84596747,0.0102974417 C8.98158575,-0.00253150565 9.12727899,-0.000399926706 9.24266866,0.00129744172 C9.27769485,0.00181059961 9.30992683,0.00224481014 9.33822327,0.00224481014 C9.36651971,0.00224481014 9.39906653,0.00181059961 9.43468305,0.00129744172 Z"></path></clipPath></defs><g transform="translate(-280.0 -259.0)"><g clip-path="url(#i0)"><g transform="translate(40.0 191.0)"><g transform="translate(240.0 68.0)"><g transform="translate(5.0 4.0)"><g transform="translate(21.32379259005749 6.158904204956915)"><g clip-path="url(#i1)"><polygon points="1.6747797,2.75562629 8.57372437,2.75562629 8.57372437,19.324346 1.6747797,19.324346 1.6747797,2.75562629" stroke="none" fill="#F4002E"></polygon></g></g><g transform="translate(6.826332688093991 6.611847295126777)"><g clip-path="url(#i2)"><polygon points="-6.10622664e-16,4.94396191e-16 14.6795994,4.94396191e-16 14.6795994,16.7953445 -6.10622664e-16,16.7953445 -6.10622664e-16,4.94396191e-16" stroke="none" fill="#0179FF"></polygon></g></g><g transform="translate(7.693953429083617 6.611847295127005)"><path d="M13.4278269,4.12286323 C12.6703952,4.12286323 11.9438574,3.82037639 11.4081141,3.28179744 C10.8723707,2.74321849 10.5713028,2.01263955 10.5713028,1.25079744 C10.5713028,1.19821849 10.574648,1.13853428 10.5785835,1.06846849 C10.5792132,1.05749481 10.5798429,1.04620534 10.5804726,1.03467902 C10.5849984,0.953086915 10.5894456,0.861034284 10.5873204,0.769850073 C10.5833062,0.599915863 10.556702,0.373179021 10.4027835,0.218442179 C10.2537844,0.0686790207 10.0254451,0.0261263891 9.84803153,0.0102184943 C9.70552607,-0.00257097934 9.55310308,-0.000399926706 9.43468305,0.00129744172 C9.39906653,0.00181059961 9.36651971,0.00224481014 9.33822327,0.00224481014 C9.30992683,0.00224481014 9.27769485,0.00181059961 9.24266866,0.00129744172 C9.12727899,-0.000399926706 8.98158575,-0.00253150565 8.84596747,0.0102974417 C8.6739062,0.0266000733 8.45792444,0.0704553365 8.31069635,0.218442179 C8.15677786,0.373179021 8.13021305,0.599915863 8.12619881,0.769850073 C8.12403427,0.861034284 8.12848142,0.953086915 8.13300727,1.03467902 C8.13363696,1.04620534 8.13426664,1.05745534 8.13489633,1.06846849 C8.13883185,1.13853428 8.14217705,1.19821849 8.14217705,1.25079744 L8.14217705,11.482258 C8.14217705,12.0503632 7.97460228,12.6057185 7.66066524,13.0780606 C7.3467282,13.5503632 6.90055742,13.9184159 6.3786671,14.135758 C5.85673742,14.3530606 5.28246522,14.4099027 4.72846099,14.2991395 C4.1744174,14.1883369 3.6654356,13.9149027 3.26594019,13.513258 C2.86640542,13.1116132 2.59426368,12.5998369 2.48402955,12.0426264 C2.37375606,11.4854159 2.43034895,10.9078764 2.6466062,10.3829948 C2.86286344,9.8581527 3.22906429,9.40961323 3.69880888,9.09410007 C4.16855346,8.77854744 4.72078671,8.6101527 5.28565299,8.6101527 C5.33146254,8.6101527 5.38195536,8.61208692 5.43984697,8.61425797 C5.46164979,8.61508692 5.48451521,8.61595534 5.50856128,8.61674481 C5.59297835,8.61962639 5.68731295,8.62163955 5.78101786,8.61698165 C5.95473206,8.60833692 6.18452752,8.57557376 6.3369505,8.42237639 C6.48921607,8.26929744 6.52054287,8.04299481 6.52794166,7.87112639 C6.53191655,7.77887639 6.52927974,7.68595534 6.5259739,7.60294218 C6.52518679,7.58285007 6.52436033,7.56358692 6.52357323,7.54507376 C6.52097578,7.48385007 6.51869317,7.43067902 6.51869317,7.38260007 C6.51869317,7.36913955 6.51873253,7.35508692 6.51877188,7.34052113 C6.51908673,7.21471849 6.51948028,7.05110007 6.49862198,6.89513955 C6.47595334,6.72548165 6.42368953,6.52333692 6.28142021,6.38028428 C6.13513664,6.23324481 5.92887564,6.1899027 5.76141894,6.17458692 C5.63638722,6.16317902 5.49994248,6.16570534 5.38943286,6.16775797 C5.35121889,6.16846849 5.31611398,6.16913955 5.28565299,6.16913955 C4.24014071,6.16913955 3.21816288,6.48082376 2.34892288,7.06467902 C1.47972224,7.64853428 0.802299861,8.47835007 0.402292827,9.44916586 C0.0022857936,10.4199422 -0.102359887,11.4881395 0.101539802,12.518679 C0.305478846,13.549258 0.808793481,14.4959159 1.54796429,15.239008 C2.28717445,15.9821001 3.22898558,16.4881922 4.25438732,16.6932185 C5.27978906,16.8982843 6.34265702,16.7930474 7.30851422,16.3908501 C8.27441078,15.9886527 9.09988771,15.3075738 9.68061418,14.4338632 C10.2613406,13.5601527 10.5713028,12.5329685 10.5713028,11.482258 L10.5713028,5.72328428 C11.4195271,6.27560007 12.4121065,6.56932376 13.4283385,6.56387639 C13.4820978,6.56391586 13.5431772,6.56774481 13.615276,6.57224481 C13.6231865,6.57275797 13.6312149,6.57327113 13.6394008,6.57378428 C13.7190559,6.57871849 13.8091008,6.58385007 13.8983192,6.5823106 C14.0654217,6.57946849 14.2879364,6.55396849 14.4421304,6.39895534 C14.5872727,6.25302113 14.6377261,6.03287639 14.6595683,5.85548165 C14.6801905,5.68846849 14.6797576,5.51387639 14.6795514,5.38542902 C14.6795514,5.37078428 14.6794034,5.35673165 14.6794034,5.34338955 C14.6794034,5.32992902 14.6795514,5.31587639 14.6795514,5.3013106 C14.6797576,5.17535007 14.6801905,5.01125797 14.6593322,4.85478428 C14.6367029,4.68477113 14.5845572,4.48179744 14.4421304,4.33862639 L14.3028127,4.47804744 L14.4421304,4.33862639 C14.295532,4.19127113 14.083958,4.14702113 13.9137071,4.13071849 C13.7809618,4.11796849 13.637984,4.12010007 13.5238537,4.12183692 C13.4887488,4.12235007 13.4563594,4.12286323 13.4278269,4.12286323 Z" stroke="#FFFFFF" stroke-width="1.2" fill="none" stroke-miterlimit="10"></path></g><path d="M14.9550052,0 C23.2144265,-1.51723108e-15 29.9100104,6.69558389 29.9100104,14.9550052 L29.9100104,15.0449948 C29.9100104,23.3044161 23.2144265,30 14.9550052,30 C6.69558389,30 1.01148739e-15,23.3044161 0,15.0449948 L0,14.9550052 C-1.01148739e-15,6.69558389 6.69558389,1.51723108e-15 14.9550052,0 Z" stroke="#FFFFFF" stroke-width="1.2" fill="none" stroke-miterlimit="10"></path></g></g></g></g></g></svg>