<?xml version="1.0" encoding="UTF-8"?><svg version="1.1" width="40px" height="40px" viewBox="0 0 40.0 40.0" xmlns="http://www.w3.org/2000/svg" xmlns:xlink="http://www.w3.org/1999/xlink"><defs><clipPath id="i0"><path d="M360,0 L360,960 L0,960 L0,0 L360,0 Z"></path></clipPath><clipPath id="i1"><path d="M7.70817119,0 C8.35095309,-1.18077119e-16 8.87203077,0.521077682 8.87203077,1.16385958 C8.87203077,1.17513924 8.87186679,1.1864183 8.87153515,1.19769308 C8.73632941,5.84673886 8.56719787,9.09356658 8.36414054,10.9381762 C8.28655904,11.6429406 8.19301442,12.2430401 8.08350668,12.7384746 C7.86799696,13.7081332 7.0813067,14.4474235 6.10004366,14.6017116 L3.65931148,14.987555 C2.53175898,15.1658043 1.4731975,14.396242 1.29494822,13.2686895 C1.23507458,12.8899464 1.28173497,12.5020142 1.42971183,12.1482714 L6.04975533,1.10392747 C6.32946572,0.435271912 6.98336905,1.33143994e-16 7.70817119,0 Z"></path></clipPath><clipPath id="i2"><path d="M1.37206859,0.180195562 L7.24809327,4.73714717 C7.68484939,5.07586366 7.68484939,5.73318137 7.24809327,6.07189785 L1.37206859,10.6288495 C0.813978205,11.0617035 0,10.6657901 0,9.96152112 L0,0.847523903 C0,0.143254927 0.813978205,-0.252658443 1.37206859,0.180195562 Z"></path></clipPath></defs><g transform="translate(-160.0 -259.0)"><g clip-path="url(#i0)"><g transform="translate(40.0 191.0)"><g transform="translate(120.0 68.0)"><g transform="translate(2.0 8.0)"><g transform="translate(27.09520523711439 9.433962264150857)"><g clip-path="url(#i1)"><polygon points="1.26959386,0 8.87203077,0 8.87203077,15.01321 1.26959386,15.01321 1.26959386,0" stroke="none" fill="#F4002E"></polygon></g></g><g transform="translate(13.13234644568625 6.932521609401443)"><g clip-path="url(#i2)"><polygon points="0,5.55111512e-16 7.57566036,5.55111512e-16 7.57566036,10.809045 0,10.809045 0,5.55111512e-16" stroke="none" fill="#0179FF"></polygon></g></g><path d="M6.50425886,0 L29.329478,0 C32.921681,-1.5480554e-15 35.8337369,2.91205588 35.8337369,6.50425886 L35.8337369,18.2168277 C35.8337369,21.8090306 32.921681,24.7210865 29.329478,24.7210865 L6.50425886,24.7210865 C2.91205588,24.7210865 -1.33643885e-15,21.8090306 0,18.2168277 L0,6.50425886 C-1.32809641e-15,2.91205588 2.91205588,-2.28301438e-16 6.50425886,0 Z" stroke="#FFFFFF" stroke-width="1.2" fill="none" stroke-miterlimit="10"></path><g transform="translate(15.213994354291682 6.932521609401444)"><path d="M7.24809327,4.73714717 C7.68484939,5.07586366 7.68484939,5.73318137 7.24809327,6.07189785 L1.37206859,10.6288495 C0.813978205,11.0617035 0,10.6657901 0,9.96152112 L0,0.847523903 C0,0.143254927 0.813978205,-0.252658443 1.37206859,0.180195562 L7.24809327,4.73714717 Z" stroke="#FFFFFF" stroke-width="1.2" fill="none" stroke-miterlimit="10"></path></g></g></g></g></g></g></svg>