<svg xmlns="http://www.w3.org/2000/svg" xmlns:xlink="http://www.w3.org/1999/xlink" viewBox="0 0 30 29">
  <defs>
    <path id="buttons_radiobuttons_unselected_copy_2_1-b" d="M11.49993,0.99963 C17.2983375,0.99963 21.9996225,5.7005325 21.9996225,11.49975 C21.9996225,17.2986525 17.2983375,21.9997125 11.49993,21.9997125 C5.7007575,21.9997125 0.9997425,17.2986525 0.9997425,11.49975 C0.9997425,5.7005325 5.7007575,0.99963 11.49993,0.99963 Z"/>
    <filter id="buttons_radiobuttons_unselected_copy_2_1-a" width="160%" height="160%" x="-28.9%" y="-15.6%" filterUnits="objectBoundingBox">
      <feOffset dy="3" in="SourceAlpha" result="shadowOffsetOuter1"/>
      <feGaussianBlur in="shadowOffsetOuter1" result="shadowBlurOuter1" stdDeviation="2"/>
      <feColorMatrix in="shadowBlurOuter1" values="0 0 0 0 0.959461987   0 0 0 0 0   0 0 0 0 0.182184726  0 0 0 0.32 0"/>
    </filter>
  </defs>
  <g fill="none" fill-rule="evenodd" transform="translate(3.366)">
    <use fill="#000" filter="url(#buttons_radiobuttons_unselected_copy_2_1-a)" xlink:href="#buttons_radiobuttons_unselected_copy_2_1-b"/>
    <use fill="#F5002E" xlink:href="#buttons_radiobuttons_unselected_copy_2_1-b"/>
    <path fill="#FFF" fill-rule="nonzero" d="M20.5018047,3.52595797 C20.9083591,3.44747385 21.2526258,3.56879739 21.4855921,3.7948184 C21.7240397,4.02615732 21.855024,4.37892697 21.7895335,4.78677155 C21.7445667,5.06680391 21.6040228,5.37710912 21.3262285,5.67819051 L21.3262285,5.67819051 L12.7013793,15.5978294 C12.2318141,16.0637274 11.8898274,16.2642398 11.5635598,16.274528 C11.2552612,16.2842496 10.929271,16.1352782 10.4992503,15.7229127 L10.4992503,15.7229127 L6.77914789,12.5600192 C6.47976514,12.261542 6.3434936,11.9444997 6.31309108,11.6560873 C6.27413873,11.2865672 6.40656238,10.9536124 6.63957145,10.7221675 C6.87027075,10.4930168 7.20196315,10.3609965 7.57347432,10.3983814 C7.83997768,10.4251994 8.13143198,10.5404787 8.41382919,10.7875662 L8.41382919,10.7875662 L11.5630644,13.3655794 L19.5461479,4.07606219 C19.878241,3.74712353 20.2099339,3.58230276 20.5018047,3.52595797 Z"/>
  </g>
</svg>
