<svg xmlns="http://www.w3.org/2000/svg" viewBox="0 0 21 21">
  <g fill="none" fill-rule="evenodd" transform="translate(.691)">
    <path fill="#F5002E" d="M15.6831683,5 C16.3226286,5 16.9014886,5.25263614 17.3205485,5.66076407 C17.7311406,6.06064508 17.9883862,6.60972982 17.9996166,7.21720874 L18,7.25871718 L18,15.3947482 C18,16.0187001 17.7404723,16.5837321 17.3205485,16.9927013 C16.9110127,17.3915536 16.3488578,17.6419016 15.7266728,17.653075 L15.6831683,17.6534653 L2.31683168,17.6534653 C1.67737144,17.6534653 1.09851139,17.4008292 0.679451473,16.9927013 C0.268859363,16.5928203 0.0116137734,16.0437355 0.000383397652,15.4362566 L0,15.3947482 L0,7.25871718 C0,6.63476528 0.259527724,6.06973328 0.679451473,5.66076407 C1.0889873,5.26191178 1.65114216,5.01156378 2.27332719,5.00039034 L2.31683168,5 L15.6831683,5 Z"/>
    <path fill="#FFF" fill-rule="nonzero" d="M16.6831683,4 C17.3226286,4 17.9014886,4.25263614 18.3205485,4.66076407 C18.7311406,5.06064508 18.9883862,5.60972982 18.9996166,6.21720874 L19,6.25871718 L19,14.3947482 C19,15.0187001 18.7404723,15.5837321 18.3205485,15.9927013 C17.9110127,16.3915536 17.3488578,16.6419016 16.7266728,16.653075 L16.6831683,16.6534653 L3.31683168,16.6534653 C2.67737144,16.6534653 2.09851139,16.4008292 1.67945147,15.9927013 C1.26885936,15.5928203 1.01161377,15.0437355 1.0003834,14.4362566 L1,14.3947482 L1,6.25871718 C1,5.63476528 1.25952772,5.06973328 1.67945147,4.66076407 C2.0889873,4.26191178 2.65114216,4.01156378 3.27332719,4.00039034 L3.31683168,4 L16.6831683,4 Z M16.6831683,4.72061989 L3.31683168,4.72061989 L3.27727516,4.72109384 C2.8565733,4.73118522 2.47602386,4.90179396 2.19810548,5.1724623 C1.91236683,5.4507469 1.73514851,5.83489774 1.73514851,6.25871718 L1.73514851,6.25871718 L1.73514851,14.3947482 L1.73563481,14.4331661 C1.74598867,14.8417523 1.92102557,15.2111513 2.19810548,15.481003 C2.48470881,15.7601298 2.88045786,15.9328455 3.31683168,15.9328455 L3.31683168,15.9328455 L16.6831683,15.9328455 L16.7227248,15.9323715 C17.1434267,15.9222801 17.5239761,15.7516714 17.8018945,15.481003 C18.0876332,15.2027185 18.2648515,14.8185676 18.2648515,14.3947482 L18.2648515,14.3947482 L18.2648515,6.25871718 L18.2643652,6.22029926 C18.2540113,5.81171308 18.0789744,5.44231403 17.8018945,5.1724623 C17.5152912,4.89333557 17.1195421,4.72061989 16.6831683,4.72061989 L16.6831683,4.72061989 Z M5.26608911,12.6784331 C5.36740205,12.6784331 5.45893566,12.7185418 5.52521379,12.7830909 C5.59235521,12.8484808 5.63366337,12.9388982 5.63366337,13.038743 C5.63366337,13.1385878 5.59235521,13.2290052 5.52521379,13.2943951 C5.46366982,13.3543336 5.38034943,13.3931984 5.2876437,13.3984447 L5.26608911,13.3990529 L3.03836634,13.3990529 C2.9370534,13.3990529 2.84551978,13.3589442 2.77924166,13.2943951 C2.71210023,13.2290052 2.67079208,13.1385878 2.67079208,13.038743 C2.67079208,12.9388982 2.71210023,12.8484808 2.77924166,12.7830909 C2.84078563,12.7231525 2.92410602,12.6842876 3.01681174,12.6790413 L3.03836634,12.6784331 L5.26608911,12.6784331 Z M8.60767327,12.6784331 C8.70898621,12.6784331 8.80051982,12.7185418 8.86679795,12.7830909 C8.93393937,12.8484808 8.97524752,12.9388982 8.97524752,13.038743 C8.97524752,13.1385878 8.93393937,13.2290052 8.86679795,13.2943951 C8.80525397,13.3543336 8.72193358,13.3931984 8.62922786,13.3984447 L8.60767327,13.3990529 L6.3799505,13.3990529 C6.27863755,13.3990529 6.18710394,13.3589442 6.12082582,13.2943951 C6.05368439,13.2290052 6.01237624,13.1385878 6.01237624,13.038743 C6.01237624,12.9388982 6.05368439,12.8484808 6.12082582,12.7830909 C6.18236979,12.7231525 6.26569018,12.6842876 6.3583959,12.6790413 L6.3799505,12.6784331 L8.60767327,12.6784331 Z M11.9492574,12.6784331 C12.0505704,12.6784331 12.142104,12.7185418 12.2083821,12.7830909 C12.2755235,12.8484808 12.3168317,12.9388982 12.3168317,13.038743 C12.3168317,13.1385878 12.2755235,13.2290052 12.2083821,13.2943951 C12.1468381,13.3543336 12.0635177,13.3931984 11.970812,13.3984447 L11.9492574,13.3990529 L9.72153465,13.3990529 C9.62022171,13.3990529 9.5286881,13.3589442 9.46240997,13.2943951 C9.39526855,13.2290052 9.3539604,13.1385878 9.3539604,13.038743 C9.3539604,12.9388982 9.39526855,12.8484808 9.46240997,12.7830909 C9.52395395,12.7231525 9.60727434,12.6842876 9.69998006,12.6790413 L9.72153465,12.6784331 L11.9492574,12.6784331 Z M15.2908416,12.6784331 C15.3921545,12.6784331 15.4836881,12.7185418 15.5499663,12.7830909 C15.6171077,12.8484808 15.6584158,12.9388982 15.6584158,13.038743 C15.6584158,13.1385878 15.6171077,13.2290052 15.5499663,13.2943951 C15.4884223,13.3543336 15.4051019,13.3931984 15.3123962,13.3984447 L15.2908416,13.3990529 L13.0631188,13.3990529 C12.9618059,13.3990529 12.8702723,13.3589442 12.8039941,13.2943951 C12.7368527,13.2290052 12.6955446,13.1385878 12.6955446,13.038743 C12.6955446,12.9388982 12.7368527,12.8484808 12.8039941,12.7830909 C12.8655381,12.7231525 12.9488585,12.6842876 13.0415642,12.6790413 L13.0631188,12.6784331 L15.2908416,12.6784331 Z M6.93688119,5.6272062 C7.49937746,5.6272062 8.00862289,5.84951733 8.37730808,6.20858464 C8.74685717,6.56849332 8.97524752,7.06572688 8.97524752,7.61472234 C8.97524752,8.1637178 8.74685717,8.66095137 8.37730808,9.02086005 C8.00862289,9.37992736 7.49937746,9.60223848 6.93688119,9.60223848 C6.52492132,9.60223848 6.14322391,9.48134093 5.82293598,9.27617426 C5.50219726,9.48139709 5.12054191,9.60223848 4.70915842,9.60223848 C4.14645683,9.60223848 3.63726964,9.37997482 3.26866402,9.02098501 C2.89910587,8.6610675 2.67079208,8.16378364 2.67079208,7.61472234 C2.67079208,7.06565665 2.89910076,6.56836944 3.26865952,6.20845135 C3.63725983,5.8494667 4.14644314,5.6272062 4.70915842,5.6272062 C5.12056835,5.6272062 5.50224631,5.74806312 5.82302447,5.95327011 C6.13183194,5.75538762 6.49776125,5.63594612 6.89286243,5.62766698 L6.93688119,5.6272062 L6.93688119,5.6272062 Z M4.70915842,6.34782609 C4.3494893,6.34782609 4.02335387,6.49008885 3.78718973,6.72009218 C3.55189016,6.9492535 3.40594059,7.26560696 3.40594059,7.61472234 C3.40594059,7.96384175 3.5518849,8.28019877 3.78718525,8.50936085 C4.02334474,8.73935966 4.34947713,8.8816186 4.70915842,8.8816186 C4.91239481,8.8816186 5.10278983,8.83265925 5.27361259,8.75079301 C5.04004507,8.42842561 4.89851485,8.03921851 4.89851485,7.61472234 C4.89851485,7.19025442 5.04002623,6.80107088 5.27364913,6.47869331 C5.10281728,6.39679249 4.91240946,6.34782609 4.70915842,6.34782609 Z M6.93688119,6.34782609 C6.57721207,6.34782609 6.25107664,6.49008885 6.0149125,6.72009218 C5.77961294,6.9492535 5.63366337,7.26560696 5.63366337,7.61472234 C5.63366337,7.96384175 5.77960767,8.28019877 6.01490802,8.50936085 C6.25106752,8.73935966 6.57719991,8.8816186 6.93688119,8.8816186 C7.29656247,8.8816186 7.62269486,8.73935966 7.85885436,8.50936085 C8.09415471,8.28019877 8.24009901,7.96384175 8.24009901,7.61472234 C8.24009901,7.26560696 8.09414944,6.9492535 7.85884987,6.72009218 C7.62268573,6.49008885 7.29655031,6.34782609 6.93688119,6.34782609 Z"/>
  </g>
</svg>
