<svg xmlns="http://www.w3.org/2000/svg" viewBox="0 0 21 20">
  <g fill="#2F383F" transform="translate(1.794 1.55)">
    <path d="M7.92460169,0.0948057013 C8.05311415,-0.0135436716 8.23251505,-0.0290221535 8.37556707,0.0483702558 L8.44366013,0.0948057013 L16.2251595,6.65541876 C16.2977504,6.71662049 16.3457814,6.80094971 16.3620901,6.89299997 L16.3682618,6.96324464 L16.3682618,15.9956377 C16.3682618,16.218005 16.1879975,16.3982693 15.9656302,16.3982693 C15.7679704,16.3982693 15.6035772,16.2558382 15.5694856,16.0680113 L15.5629987,15.9956377 L15.5621579,7.14984211 L8.18415789,0.929631579 L0.805263158,7.14984211 L0.805263158,16.4519737 C0.805263158,16.6496335 0.662832108,16.8140267 0.475005114,16.8481183 L0.402631579,16.8546053 C0.204971774,16.8546053 0.0405785228,16.7121742 0.00648693379,16.5243472 L0,16.4519737 L0,6.96324464 C0,6.86829676 0.033512737,6.77721831 0.0933760486,6.70541574 L0.143102356,6.65541876 L7.92460169,0.0948057013 Z"/>
    <path d="M4.53460171,7.91973721 C5.70560511,6.46127848 7.68541077,5.89467512 9.4665298,6.50688021 C11.2498069,7.11982707 12.4433951,8.78029558 12.4367348,10.6387613 C12.4412687,11.2753043 12.3021153,11.9048271 12.0294063,12.4817701 C11.9343789,12.6828099 11.6943691,12.76875 11.4933292,12.6737226 C11.2922894,12.5786953 11.2063493,12.3386854 11.3013767,12.1376456 C11.522441,11.669962 11.6351639,11.1600096 11.6314844,10.6401911 C11.6368993,9.12401181 10.6634475,7.76978762 9.2047759,7.26841396 C7.74394629,6.76629854 6.1203224,7.23096575 5.16251589,8.42389248 C4.24851479,9.56226054 4.13257997,11.124838 4.85645825,12.3838076 L7.81731579,17.2048947 L10.4790397,13.388814 C10.5903492,13.2292264 10.7964177,13.1750329 10.9683799,13.2491995 L11.0396141,13.2889109 C11.1992018,13.4002204 11.2533952,13.6062889 11.1792287,13.7782511 L11.1395173,13.8494853 L8.1261692,18.1698093 C7.97680215,18.3839612 7.67388795,18.3969887 7.50411261,18.2172419 L7.45284517,18.150198 L4.27984172,12.9838926 C3.25889688,11.415281 3.36133839,9.3810106 4.53460171,7.91973721 Z"/>
    <path d="M8.00789474,7.87368421 C7.25058158,7.87368421 6.53985417,8.17429656 6.0149701,8.69918062 C5.49008603,9.22406469 5.18947368,9.9347921 5.18947368,10.6921053 C5.18947368,11.4494184 5.49008603,12.1601458 6.0149701,12.6850299 C6.53985417,13.209914 7.25058158,13.5105263 8.00789474,13.5105263 C8.75538648,13.5105263 9.4722629,13.2135864 10.0008194,12.6850299 C10.5293759,12.1564734 10.8263158,11.439597 10.8263158,10.6921053 C10.8263158,9.9347921 10.5257034,9.22406469 10.0008194,8.69918062 C9.47593531,8.17429656 8.7652079,7.87368421 8.00789474,7.87368421 Z M8.00789474,8.67894737 C8.54944363,8.67894737 9.05604734,8.89322267 9.43141234,9.26858766 C9.80677733,9.64395266 10.0210526,10.1505564 10.0210526,10.6921053 C10.0210526,11.2260279 9.80895268,11.7380825 9.43141234,12.1156229 C9.05387199,12.4931632 8.54181741,12.7052632 8.00789474,12.7052632 C7.46634585,12.7052632 6.95974213,12.4909879 6.58437714,12.1156229 C6.20901214,11.7402579 5.99473684,11.2336542 5.99473684,10.6921053 C5.99473684,10.1505564 6.20901214,9.64395266 6.58437714,9.26858766 C6.95974213,8.89322267 7.46634585,8.67894737 8.00789474,8.67894737 Z"/>
  </g>
</svg>
