<svg xmlns="http://www.w3.org/2000/svg" viewBox="0 0 21 21">
  <g fill="none" fill-rule="evenodd" transform="translate(1.042 .73)">
    <path fill="#F5002E" d="M1.01017638,16.2732877 L14.7999757,16.2655244 C15.2661747,16.2652619 15.6462279,15.8915744 15.6543642,15.4254463 L15.8046352,6.81642631 C15.8091507,6.55773412 15.6962808,6.31091116 15.4976509,6.1451155 L8.81809373,0.569713939 C8.51335719,0.315351485 8.07363312,0.304176788 7.75637008,0.542732383 L0.650317073,5.88589704 C0.439708362,6.04425739 0.31388425,6.29088255 0.309285482,6.55434579 L0.154825258,15.4033661 C0.146584171,15.8754976 0.522641688,16.2649166 0.99477323,16.2731577 C0.99990712,16.2732473 1.00504171,16.2732906 1.01017638,16.2732877 Z" transform="rotate(-1 7.976 8.205)"/>
    <path fill="#FFF" fill-rule="nonzero" d="M10.6660701,7.32771044 C12.4493471,7.94065729 13.6429354,9.6011258 13.636275,11.4595915 C13.640809,12.0961345 13.5016555,12.7256573 13.2289466,13.3026003 C13.1339192,13.5036401 12.8939093,13.5895802 12.6928695,13.4945529 C12.4918297,13.3995255 12.4058896,13.1595157 12.500917,12.9584758 C12.7219813,12.4907922 12.8347042,11.9808398 12.8310247,11.4610214 C12.8364395,9.94484203 11.8629877,8.59061785 10.4043162,8.08924419 C8.94348656,7.58712877 7.31986267,8.05179597 6.36205616,9.2447227 C5.44805506,10.3830908 5.33212024,11.9456682 6.05599853,13.2046378 L9.01685606,18.025725 L11.6785799,14.2096443 C11.7898894,14.0500566 11.995958,13.9958632 12.1679202,14.0700297 L12.2391544,14.1097411 C12.398742,14.2210506 12.4529355,14.4271191 12.378769,14.5990813 L12.3390576,14.6703155 L9.32570947,18.9906395 C9.17634242,19.2047914 8.87342822,19.2178189 8.70365289,19.0380721 L8.65238544,18.9710282 L5.479382,13.8047228 C4.45843715,12.2361112 4.56087866,10.2018408 5.73414198,8.74056743 C6.90514539,7.28210871 8.88495104,6.71550535 10.6660701,7.32771044 Z M9.57510734,0.869200481 L9.6432004,0.915635926 L17.4246997,7.47624899 C17.4972907,7.53745072 17.5453216,7.62177994 17.5616304,7.7138302 L17.5678021,7.78407486 L17.5678021,16.8164679 C17.5678021,17.0388352 17.3875378,17.2190995 17.1651705,17.2190995 C16.9675107,17.2190995 16.8031175,17.0766685 16.7690259,16.8888415 L16.7625389,16.8164679 L16.7616982,7.97067233 L9.38369817,1.7504618 L2.00480343,7.97067233 L2.00480343,17.2728039 C2.00480343,17.4704637 1.86237238,17.634857 1.67454539,17.6689486 L1.60217185,17.6754355 C1.40451205,17.6754355 1.24011879,17.5330044 1.20602721,17.3451774 L1.19954027,17.2728039 L1.19954027,7.78407486 C1.19954027,7.68912698 1.23305301,7.59804853 1.29291632,7.52624596 L1.34264263,7.47624899 L9.12414196,0.915635926 C9.25265443,0.807286553 9.43205532,0.791808071 9.57510734,0.869200481 Z M9.20743501,8.69451444 C9.96474817,8.69451444 10.6754756,8.99512678 11.2003596,9.52001085 C11.7252437,10.0448949 12.0258561,10.7556223 12.0258561,11.5129355 C12.0258561,12.2604272 11.7289161,12.9773036 11.2003596,13.5058601 C10.6718032,14.0344166 9.95492675,14.3313565 9.20743501,14.3313565 C8.45012185,14.3313565 7.73939444,14.0307442 7.21451037,13.5058601 C6.6896263,12.9809761 6.38901396,12.2702486 6.38901396,11.5129355 C6.38901396,10.7556223 6.6896263,10.0448949 7.21451037,9.52001085 C7.73939444,8.99512678 8.45012185,8.69451444 9.20743501,8.69451444 Z M9.20743501,9.49977759 C8.66588612,9.49977759 8.1592824,9.7140529 7.78391741,10.0894179 C7.40855242,10.4647829 7.19427711,10.9713866 7.19427711,11.5129355 C7.19427711,12.0544844 7.40855242,12.5610881 7.78391741,12.9364531 C8.1592824,13.3118181 8.66588612,13.5260934 9.20743501,13.5260934 C9.74135768,13.5260934 10.2534123,13.3139934 10.6309526,12.9364531 C11.0084929,12.5589127 11.2205929,12.0468582 11.2205929,11.5129355 C11.2205929,10.9713866 11.0063176,10.4647829 10.6309526,10.0894179 C10.2555876,9.7140529 9.7489839,9.49977759 9.20743501,9.49977759 Z"/>
  </g>
</svg>
