<svg xmlns="http://www.w3.org/2000/svg" viewBox="0 0 20 20">
  <path fill="#31383E" d="M9.681818,2 C4.88598174,2 1,5.88598174 1,10.681818 C1,15.4776543 4.88598174,19.363636 9.681818,19.363636 C14.4776543,19.363636 18.363636,15.4776543 18.363636,10.681818 C18.363636,5.88598174 14.4776543,2 9.681818,2 Z M8.56012711,2.98972725 C7.7162544,4.03849087 7.05990896,5.20879993 6.60845443,6.45203627 C5.70554536,6.20894537 4.82347265,5.85472719 3.98654539,5.38938175 C5.16727264,4.12183632 6.76472715,3.24670906 8.56012711,2.98972725 Z M3.59759995,5.84430901 C4.49703629,6.35479991 5.44509082,6.74374536 6.42092716,7.00767262 C6.08407262,8.09116351 5.89654535,9.2267453 5.86876353,10.3866362 L1.91332725,10.3866362 C1.97583634,8.67458168 2.59745451,7.10143626 3.59759995,5.84430901 Z M1.91332725,10.9735271 L5.86876353,10.9735271 C5.89654535,12.1368907 6.08407262,13.2689998 6.42092716,14.3524907 C5.44509082,14.6198906 4.49703629,15.0053634 3.59759995,15.5158543 C2.59745451,14.2621997 1.97583634,12.6890543 1.91332725,10.9735271 Z M3.98654539,15.9707815 C4.82347265,15.5089088 5.70207263,15.1546906 6.60845443,14.908127 C7.06338169,16.1548361 7.71972713,17.3216724 8.56012711,18.370436 C6.76472715,18.1134542 5.16727264,17.2417997 3.98654539,15.9707815 Z M9.39010892,18.446836 C8.42469075,17.352927 7.68152713,16.1096906 7.18145442,14.7692179 C7.9072544,14.6129452 8.64694529,14.5226543 9.39010892,14.5052906 L9.39010892,18.446836 Z M9.39010892,13.9218725 C8.5844362,13.9392361 7.78223622,14.0399452 6.99045442,14.2135816 C6.66401806,13.1752361 6.48343625,12.0882725 6.45565443,10.9735271 L9.39010892,10.9735271 L9.39010892,13.9218725 Z M9.39010892,10.3901089 L6.45565443,10.3901089 C6.48343625,9.27536348 6.66401806,8.18839987 6.99045442,7.15005444 C7.77876349,7.32716352 8.5844362,7.42439989 9.39010892,7.44176352 L9.39010892,10.3901089 Z M9.39010892,6.85487263 C8.65041802,6.83750899 7.91072713,6.74721808 7.18145442,6.59094536 C7.67805441,5.25047266 8.42121803,4.00723632 9.39010892,2.91332725 L9.39010892,6.85487263 Z M17.4503087,10.3901089 L13.4913997,10.3901089 C13.4636179,9.24758167 13.2795634,8.11199987 12.9392361,7.01114535 C13.9185452,6.74374536 14.8700724,6.35479991 15.7695088,5.84430901 C16.7661815,7.10143626 17.3877997,8.67458168 17.4503087,10.3901089 Z M15.3770906,5.39285447 C14.5401634,5.85819992 13.6546179,6.21241809 12.7482361,6.455509 C12.3002543,5.22616357 11.6508543,4.05238178 10.8000362,2.98972725 C12.5989088,3.24670906 14.1963634,4.12183632 15.3770906,5.39285447 Z M9.97699981,2.91679998 C10.9563089,4.02459996 11.6890543,5.27478175 12.1787089,6.59441809 C11.4529089,6.75069081 10.7166907,6.83750899 9.97699981,6.85834535 L9.97699981,2.91679998 Z M9.97699981,7.44176352 C10.7791998,7.42439989 11.5813998,7.32716352 12.3697089,7.15005444 C12.6996179,8.20229078 12.8801998,9.29272712 12.9045088,10.3866362 L9.97699981,10.3866362 L9.97699981,7.44176352 L9.97699981,7.44176352 Z M9.97699981,10.9735271 L12.9045088,10.9735271 C12.876727,12.0674362 12.6996179,13.1578725 12.3697089,14.2101088 C11.5813998,14.0364725 10.7826725,13.9392361 9.97699981,13.9183998 L9.97699981,10.9735271 Z M9.97699981,14.5087634 C10.7166907,14.526127 11.4529089,14.6129452 12.1787089,14.7726906 C11.6890543,16.092327 10.9563089,17.3425088 9.97699981,18.4503087 L9.97699981,14.5087634 Z M10.8035089,18.3739087 C11.654327,17.3112542 12.303727,16.1374724 12.7517088,14.908127 C13.6580906,15.1512179 14.5401634,15.5054361 15.3805633,15.9707815 C14.1963634,17.2417997 12.5989088,18.1169269 10.8035089,18.3739087 Z M15.7660361,15.519327 C14.8665997,15.0088361 13.9150725,14.6198906 12.9357634,14.3524907 C13.2760907,13.2551089 13.4601452,12.1160543 13.487927,10.9735271 L17.446836,10.9735271 C17.3877997,12.6890543 16.7661815,14.2621997 15.7660361,15.519327 Z"/>
</svg>
