<svg xmlns="http://www.w3.org/2000/svg" viewBox="0 0 20 20">
  <path fill="#FFF" fill-rule="evenodd" d="M9.84690058,4 L9.90792714,4 C11.1092127,4.01035606 12.3038899,4.45614807 13.2230142,5.33408401 C14.3672614,6.42724966 14.8542263,7.77323169 14.6553667,9.32567751 C14.4559561,10.8835014 13.6038787,12.0366851 12.2377285,12.8518108 C12.1759416,12.8886765 12.1140455,12.9242885 12.0523547,12.9585757 C12.1190323,12.9818395 12.1861505,13.0061857 12.2537763,13.0316363 C12.9479999,13.2929035 13.5252672,13.6064163 14.0558689,14.0019262 C14.8932413,14.6258726 15.5539382,15.3960957 16.0367721,16.3111946 C16.2718515,16.7570812 16.4557413,17.2226406 16.5791815,17.7098779 C16.5976028,17.7820945 16.6138086,17.8548527 16.6300242,17.9275841 C16.654326,18.0365844 16.6786829,18.1455167 16.7098456,18.2525241 C16.7375272,18.3480304 16.7316621,18.4470182 16.6963044,18.534341 C16.6616971,18.6198105 16.5987887,18.6939453 16.5121664,18.7424837 C16.3800068,18.8161798 16.233138,18.813826 16.1124367,18.755381 C15.9904432,18.6963101 15.8955428,18.5803555 15.8684841,18.4294431 C15.8333663,18.2311104 15.7906721,18.0331529 15.7377622,17.8387206 C15.5935149,17.3121487 15.375101,16.8151817 15.0865959,16.3482116 C14.5375215,15.4598025 13.803564,14.7551753 12.8831544,14.2370031 C12.344654,13.933708 11.7706233,13.7194997 11.164117,13.5896881 C10.5771596,13.4636317 9.98340171,13.4291371 9.38402162,13.4723846 C8.99094007,13.5005072 8.60504767,13.566748 8.22670894,13.6711011 C7.12378048,13.9754601 6.18083674,14.5383854 5.39965511,15.3590287 C4.7587419,16.0328911 4.30285536,16.8118561 4.03005097,17.6926382 C3.95257185,17.9433841 3.88965694,18.1971273 3.85359431,18.4570285 C3.84138997,18.5441819 3.7928841,18.623953 3.72634564,18.6843771 C3.65791273,18.7465216 3.56963391,18.7888513 3.47711882,18.7959485 C3.37155748,18.8041784 3.27169378,18.7791947 3.19052198,18.7281641 C3.1113718,18.6784044 3.05020136,18.6038355 3.01987403,18.5122174 C2.99321505,18.4316229 2.99508491,18.3522611 3.01533981,18.2700604 C3.03360521,18.1959108 3.04894056,18.1211686 3.0642565,18.0463914 C3.07798402,17.9793695 3.09169781,17.912319 3.10778205,17.8454143 C3.19166488,17.492158 3.30671492,17.1482281 3.44882861,16.8129112 C3.73178957,16.1457496 4.11335447,15.5381037 4.59422476,14.9903404 C5.15740677,14.3491301 5.81923041,13.8284322 6.58087414,13.4285189 C6.8484204,13.2876407 7.12402229,13.1639511 7.40879495,13.0599948 C7.47451306,13.0360044 7.54053468,13.0131325 7.60678968,12.991227 C7.54703949,12.9557725 7.48754366,12.9191512 7.42830049,12.8813812 C6.28097188,12.1499113 5.4842265,11.1507188 5.15253231,9.81697474 C4.94359556,8.97747187 4.97797474,8.14012522 5.24187004,7.31488096 C5.49498798,6.52301256 5.93541322,5.84379222 6.55525133,5.27779011 C7.46890145,4.44371708 8.62630562,4.01922671 9.78587017,4.00060533 L9.84690058,4 Z M9.98086096,4.87284836 C8.91761975,4.83956197 7.94133579,5.24134864 7.22327454,5.91938678 C6.50667095,6.59604851 6.04721302,7.54786911 6.01532584,8.61700282 C5.98342814,9.69233593 6.40156033,10.6846508 7.10379024,11.4062014 C7.79890391,12.1204401 8.77232563,12.5694193 9.86295516,12.5709308 C10.8870141,12.574265 11.8472521,12.1644801 12.5526272,11.4783692 C13.2368397,10.8128428 13.6814123,9.88747614 13.7119397,8.82728391 C13.7426843,7.76495356 13.3402997,6.79475544 12.6668049,6.08097658 C11.9903178,5.36402649 11.0402669,4.90580645 9.98086096,4.87284836 Z"/>
</svg>
