<?xml version="1.0" encoding="UTF-8"?>
<svg width="21px" height="21px" viewBox="0 0 21 21" version="1.1" xmlns="http://www.w3.org/2000/svg" xmlns:xlink="http://www.w3.org/1999/xlink">
    <title>icons/menu/פרטים אישיים/בחירה</title>
    <g id="Page-1" stroke="none" stroke-width="1" fill="none" fill-rule="evenodd">
        <g id="איזור-אישי---פרטים-אישיים" transform="translate(-1224.000000, -318.000000)">
            <g id="icons/menu/פרטים-אישיים/בחירה" transform="translate(1224.691120, 318.000000)">
                <rect id="Rectangle" x="0" y="0" width="20.3088803" height="20"></rect>
                <path d="M7.10810811,5 C9.91217933,5 12.1853282,7.23857625 12.1853282,10 C12.1853282,11.8536696 11.1610299,13.4717402 9.6394235,14.3352366 C12.0870667,15.0549507 13.6127463,16.943643 14.2162162,20 L0,20 C0.603469894,16.943643 2.12914952,15.0549507 4.57703887,14.3339233 C3.05518629,13.4717402 2.03088803,11.8536696 2.03088803,10 C2.03088803,7.23857625 4.30403689,5 7.10810811,5 Z" id="Combined-Shape" fill="#F5002E"></path>
                <path d="M9.99897626,4 L10.0609453,4 C11.2807836,4.01035606 12.4939114,4.45614807 13.4272307,5.33408401 C14.5891496,6.42724966 15.0836352,7.77323169 14.8817044,9.32567751 C14.6792141,10.8835014 13.8139772,12.0366851 12.4267282,12.8518108 C12.363987,12.8886765 12.301135,12.9242885 12.2384914,12.9585757 C12.3061988,12.9818395 12.3743536,13.0061857 12.4430238,13.0316363 C13.147969,13.2929035 13.7341516,13.6064163 14.2729479,14.0019262 C15.1232528,14.6258726 15.7941535,15.3960957 16.2844443,16.3111946 C16.5231543,16.7570812 16.709884,17.2226406 16.8352306,17.7098779 C16.8539364,17.7820945 16.8703925,17.8548527 16.8868585,17.9275841 C16.9115357,18.0365844 16.9362687,18.1455167 16.9679127,18.2525241 C16.9960219,18.3480304 16.9900662,18.4470182 16.9541624,18.534341 C16.9190206,18.6198105 16.8551407,18.6939453 16.7671806,18.7424837 C16.6329799,18.8161798 16.4838428,18.813826 16.3612775,18.755381 C16.2373999,18.6963101 16.1410338,18.5803555 16.1135572,18.4294431 C16.077897,18.2311104 16.0345434,18.0331529 15.9808165,17.8387206 C15.8343414,17.3121487 15.6125543,16.8151817 15.3195935,16.3482116 C14.7620392,15.4598025 14.0167465,14.7551753 13.0821221,14.2370031 C12.535305,13.933708 11.952409,13.7194997 11.3365358,13.5896881 C10.7405134,13.4636317 10.1375855,13.4291371 9.52894859,13.4723846 C9.12979629,13.5005072 8.73794416,13.566748 8.35376236,13.6711011 C7.23380026,13.9754601 6.27629368,14.5383854 5.48304746,15.3590287 C4.83223599,16.0328911 4.36930872,16.8118561 4.09229114,17.6926382 C4.01361544,17.9433841 3.94972886,18.1971273 3.91310928,18.4570285 C3.90071646,18.5441819 3.85146146,18.623953 3.78389538,18.6843771 C3.71440559,18.7465216 3.62476339,18.7888513 3.5308195,18.7959485 C3.42362787,18.8041784 3.32222187,18.7791947 3.23979645,18.7281641 C3.15942387,18.6784044 3.09730872,18.6038355 3.06651301,18.5122174 C3.03944231,18.4316229 3.04134105,18.3522611 3.06190877,18.2700604 C3.08045626,18.1959108 3.09602844,18.1211686 3.11158092,18.0463914 C3.12552045,17.9793695 3.13944603,17.912319 3.15577869,17.8454143 C3.240957,17.492158 3.35778388,17.1482281 3.50209237,16.8129112 C3.78942339,16.1457496 4.17688118,15.5381037 4.66517804,14.9903404 C5.23705784,14.3491301 5.9091027,13.8284322 6.68250926,13.4285189 C6.95418751,13.2876407 7.2340458,13.1639511 7.5232165,13.0599948 C7.58994955,13.0360044 7.65699081,13.0131325 7.72426906,12.991227 C7.66359608,12.9557725 7.6031814,12.9191512 7.54302328,12.8813812 C6.3779753,12.1499113 5.56892498,11.1507188 5.2321081,9.81697474 C5.01994453,8.97747187 5.05485466,8.14012522 5.32282556,7.31488096 C5.57985266,6.52301256 6.02707983,5.84379222 6.65649073,5.27779011 C7.58425128,4.44371708 8.75953042,4.01922671 9.9370033,4.00060533 L9.99897626,4 Z M10.1350055,4.87284836 C9.05534361,4.83956197 8.0639819,5.24134864 7.3348309,5.91938678 C6.60716008,6.59604851 6.14060627,7.54786911 6.10822663,8.61700282 C6.0758363,9.69233593 6.50042612,10.6846508 7.21350128,11.4062014 C7.9193503,12.1204401 8.90780557,12.5694193 10.0152788,12.5709308 C11.0551533,12.574265 12.0302212,12.1644801 12.7464901,11.4783692 C13.4412697,10.8128428 13.8927082,9.88747614 13.9237071,8.82728391 C13.9549266,7.76495356 13.5463275,6.79475544 12.8624312,6.08097658 C12.1754965,5.36402649 11.210773,4.90580645 10.1350055,4.87284836 Z" id="Fill-1-Copy" fill="#FFFFFF"></path>
            </g>
        </g>
    </g>
</svg>