<svg xmlns="http://www.w3.org/2000/svg" viewBox="0 0 82 54">
  <g fill="none" fill-rule="evenodd" transform="translate(1.025 .5)">
    <path stroke="#FFF" stroke-dasharray="8 8.5" stroke-linecap="round" stroke-linejoin="round" d="M10.5,0 L69.5,0 C75.2989899,-1.06525716e-15 80,4.70101013 80,10.5 L80,42.5 C80,48.2989899 75.2989899,53 69.5,53 L10.5,53 C4.70101013,53 7.10171439e-16,48.2989899 0,42.5 L0,10.5 C-7.10171439e-16,4.70101013 4.70101013,1.06525716e-15 10.5,0 Z" opacity=".455"/>
    <g fill-rule="nonzero" transform="rotate(-17 89.675 -87.907)">
      <path fill="#F5002E" d="M4.60458319,14.0629301 C4.60458319,14.0629301 8.83979075,13.3401732 12.1679883,11.1179153 C14.1782305,9.77546525 14.6972429,8.26296334 14.6972429,8.26296334 C15.3983308,6.21985838 14.1830863,3.94732699 11.9829331,3.18714975 C10.7076924,2.74654003 9.38421734,2.87070752 8.35805209,3.48442272 L8.17890531,3.58606573 L8.10048213,3.39512772 C7.66839952,2.27757178 6.70137973,1.36201301 5.42613907,0.921403286 C3.22598583,0.161226047 0.874042282,1.20125459 0.172861849,3.2446293 C0.172861849,3.2446293 -0.346150519,4.75713122 0.414476058,7.05724874 C1.67346113,10.8641272 4.56593554,14.0486717 4.56593554,14.0486717 L4.60458319,14.0629301 Z"/>
      <path stroke="#FFF" stroke-linecap="round" stroke-linejoin="round" d="M14.0660608,2.44969838 C12.8190615,2.02032212 11.5242966,2.14306494 10.5198585,2.74403258 L10.3445105,2.84357386 L10.267993,2.65701327 C9.84647757,1.56505046 8.90147285,0.671093105 7.65447364,0.241716843 C5.50304494,-0.499079468 3.20127736,0.519980641 2.51326871,2.51810283 C2.51326871,2.51810283 2.00400608,3.99710891 2.74568733,6.24468461 C3.97331448,9.96460204 6.79947929,13.0744987 6.79947929,13.0744987 L6.83727011,13.0883963 C6.83727011,13.0883963 10.9809387,12.3775206 14.2389069,10.2018224 M16.7159932,7.40849305 C16.9245159,6.80289927 16.9608193,6.17688167 16.8502299,5.57783324 C16.7318138,4.93638895 16.4449773,4.32586622 16.0208135,3.80444927"/>
    </g>
  </g>
</svg>
