<svg xmlns="http://www.w3.org/2000/svg" viewBox="0 0 22 20">
  <path fill="#2F383F" d="M12.1877461,1 C12.8469661,1.00067155 13.4443669,1.25534226 13.8800168,1.66781523 C14.2729473,2.03984156 14.5342824,2.54024306 14.5907235,3.09843309 L14.601848,3.28653992 L14.6021978,5.10439556 C14.6021978,5.25460488 14.5389457,5.39059389 14.4366809,5.48903057 C14.3344161,5.58746726 14.1931387,5.64835161 14.0370879,5.64835161 C13.8858489,5.64835161 13.7484889,5.59116096 13.6470664,5.49802936 C13.5650825,5.42274728 13.5066039,5.32397262 13.4832397,5.21293732 L13.4724819,5.12753746 L13.4719781,3.32428439 C13.4715946,2.98816061 13.3320393,2.68342284 13.1057881,2.46059076 C12.9116327,2.26936949 12.6536384,2.13845056 12.3649614,2.09978609 L12.2182195,2.08828966 L5.71467321,2.08791198 C5.36547795,2.0882811 5.04888927,2.22261236 4.81739149,2.44039431 C4.61873416,2.62728155 4.48272405,2.87561782 4.44255573,3.15348821 L4.43061206,3.29473683 L4.43021965,16.6757156 C4.43060313,17.0118394 4.57015839,17.3165771 4.79640963,17.5394092 C4.990565,17.7306305 5.24855928,17.8615494 5.53723627,17.9002139 L5.68397816,17.9117103 L12.1875245,17.912088 C12.5367198,17.9117189 12.8533084,17.7773876 13.0848062,17.5596056 C13.2834653,17.3727168 13.419476,17.1243778 13.459643,16.8465045 L13.4715859,16.7052544 L13.471978,14.8956044 C13.471978,14.7453951 13.5352301,14.6094061 13.6374948,14.5109694 C13.7397596,14.4125327 13.8810371,14.3516483 14.0370879,14.3516483 C14.1883268,14.3516483 14.3256868,14.408839 14.4271093,14.5019706 C14.5090933,14.5772527 14.5675719,14.6760273 14.5909361,14.7870626 L14.6016939,14.8724625 L14.6021978,16.6759288 C14.6015001,17.3104722 14.3369255,17.8855104 13.9084119,18.3048525 C13.5219165,18.6830757 13.0020527,18.9346286 12.4221529,18.9889558 L12.22673,18.9996635 L5.71443935,19 C5.0552552,18.9992525 4.45789661,18.7445666 4.02226106,18.332106 C3.6293408,17.9600884 3.36799504,17.4597163 3.31149865,16.9015537 L3.30035405,16.7134559 L3.3,3.32405928 C3.30077646,2.68955048 3.56536686,2.1145529 3.99386756,1.69522456 C4.38035227,1.31701282 4.90018275,1.06545015 5.48005117,1.01106835 L5.67546371,1.00034084 L12.1877461,1 Z M18.646567,7.23110294 C18.7585185,7.22733555 18.8714517,7.25544501 18.9694839,7.31552207 L19.039966,7.36657521 L21.8343851,10.0549622 C21.9404214,10.1569375 22,10.2953008 22,10.4395805 C22,10.5480383 21.9663327,10.6531523 21.9045731,10.7419797 L21.8530732,10.8053444 L19.0608515,13.493909 C18.9900213,13.564269 18.9022686,13.6135754 18.8075962,13.6391284 C18.7126359,13.6647591 18.6107138,13.6664917 18.5119244,13.6416016 C18.4131349,13.6167114 18.3251652,13.5671353 18.2554282,13.5000088 C18.1856913,13.4328824 18.1341872,13.3482056 18.108329,13.2531142 C18.0671538,13.1016952 18.0961118,12.9426333 18.1837639,12.8151539 L18.2433069,12.74277 L20.0706608,10.9835358 L10.3381868,10.9835358 C10.1821359,10.9835358 10.0408585,10.9226516 9.93859376,10.8242151 C9.83632893,10.7257786 9.77307688,10.5897897 9.77307688,10.4395805 C9.77307688,10.2940031 9.83249158,10.1617851 9.92924501,10.0641593 C10.0074567,9.98524236 10.1100759,9.92895205 10.2254329,9.90646365 L10.3141567,9.89610982 L20.070649,9.8956373 L18.2605584,8.1532642 C18.153041,8.04645767 18.1000502,7.90800095 18.1012961,7.7699979 C18.1025394,7.63227357 18.1578005,7.49500106 18.2667914,7.39009009 C18.3719968,7.28882292 18.5085279,7.23574823 18.646567,7.23110294 Z"/>
</svg>
