<svg xmlns="http://www.w3.org/2000/svg" viewBox="0 0 20 20">
  <path fill="#FFF" d="M11.0797691,1 C11.6790601,1.00063424 12.2221517,1.24115658 12.6181971,1.63071438 C12.9709966,1.97773483 13.2070996,2.44302331 13.2623087,2.96235339 L13.2744073,3.15950993 L13.2747252,4.87637359 C13.2747252,5.01823794 13.2172234,5.14667201 13.1242554,5.23963999 C13.0312874,5.33260796 12.9028533,5.39010985 12.760989,5.39010985 C12.623499,5.39010985 12.4986263,5.33609647 12.406424,5.24813884 C12.3318932,5.1770391 12.2787308,5.08375192 12.2574906,4.97888524 L12.2477108,4.89822983 L12.2472528,3.19515748 C12.2469042,2.87770724 12.1200357,2.58989935 11.9143528,2.37944682 C11.7378479,2.19884897 11.5033076,2.07520331 11.240874,2.03868687 L11.1074723,2.02782912 L5.19515747,2.02747242 C4.87770723,2.02782104 4.58989934,2.15468946 4.37944681,2.3603724 C4.19884923,2.53687702 4.07520368,2.77141683 4.03868702,3.03384998 L4.02782915,3.16725145 L4.02747241,15.8048425 C4.02782103,16.1222927 4.15468944,16.4101006 4.36037239,16.6205531 C4.53687728,16.801151 4.77141753,16.9247966 5.03385116,16.9613131 L5.16725288,16.9721708 L11.0795677,16.9725275 C11.397018,16.9721789 11.6848258,16.8453105 11.8952784,16.6396276 C12.0758775,16.4631214 12.1995237,16.228579 12.2360391,15.9661431 L12.2468962,15.8327402 L12.2472527,14.1236264 C12.2472527,13.981762 12.3047546,13.853328 12.3977226,13.76036 C12.4906906,13.667392 12.6191246,13.6098901 12.760989,13.6098901 C12.8984789,13.6098901 13.0233517,13.6639035 13.1155539,13.7518611 C13.1900848,13.8229609 13.2432472,13.916248 13.2644874,14.0211147 L13.2742672,14.1017701 L13.2747252,15.8050439 C13.274091,16.4043348 13.0335686,16.9474265 12.6440108,17.3434718 C12.2969892,17.6962726 11.8316987,17.932376 11.3123664,17.987584 L11.1152091,17.9996822 L5.19494486,18 C4.59568655,17.9992941 4.05263328,17.7587573 3.65660096,17.3692113 C3.3038106,17.0221989 3.06769825,16.5569377 3.01244058,16.0376332 L3.00032187,15.8404862 L3,3.19494488 C3.00070588,2.59568656 3.2412426,2.0526333 3.63078869,1.65660097 C3.97780077,1.30381087 4.4430616,1.06769861 4.96236559,1.01244072 L5.15951246,1.0003219 L11.0797691,1 Z M16.9514245,6.88493055 C17.0468378,6.88159484 17.1430353,6.90471941 17.2281201,6.95437487 L17.30906,7.01287658 L19.849441,9.55190873 C19.9458376,9.64821877 20,9.7788952 20,9.9151594 C20,10.0111897 19.9730996,10.1044444 19.9234749,10.1848515 L19.8664302,10.260603 L17.3280468,12.7998029 C17.2636558,12.866254 17.1838805,12.9128212 17.0978147,12.9369546 C17.0114871,12.9611614 16.9188307,12.9627977 16.8290221,12.9392904 C16.7392136,12.915783 16.6592411,12.8689611 16.5958438,12.8055639 C16.5324466,12.7421667 16.4856247,12.6621942 16.4621173,12.5723857 C16.4246853,12.4293788 16.4510108,12.2791537 16.5306944,12.1587565 L16.5848244,12.0903939 L18.2460553,10.4288949 L9.39835161,10.4288949 C9.25648716,10.4288949 9.12805315,10.3713931 9.03508524,10.2784254 C8.94211721,10.1854575 8.88461534,10.0570236 8.88461534,9.9151594 C8.88461534,9.7776696 8.93862871,9.65279701 9.02658638,9.56059485 C9.09768792,9.48606223 9.19097805,9.43289916 9.29584808,9.41166011 L9.37650608,9.40188149 L18.2460446,9.40143523 L16.6005076,7.75586064 C16.5027646,7.6549878 16.4545911,7.52422312 16.4557237,7.39388691 C16.456854,7.26381392 16.5070914,7.13416766 16.606174,7.03508508 C16.7018153,6.93944387 16.8259345,6.88931777 16.9514245,6.88493055 Z"/>
</svg>
