<?xml version="1.0" encoding="UTF-8"?>
<svg width="249px" height="134px" viewBox="0 0 249 134" version="1.1" xmlns="http://www.w3.org/2000/svg" xmlns:xlink="http://www.w3.org/1999/xlink">
    <title>icons/big/1 copy 5</title>
    <defs>
        <path d="M0,87.5934118 L0,1.19990975 L4.87306881,1.19990975 M29.2384128,1.19990975 L35.3297489,1.19990975 L35.3297489,87.5934118 M3.65480161,1.19990975 L30.4566801,1.19990975" id="path-1"></path>
    </defs>
    <g id="Page-1" stroke="none" stroke-width="1" fill="none" fill-rule="evenodd">
        <g id="איזור-אישי---כתובות-למשלוח---עדיין-לא-הוספת-כתובת" transform="translate(-393.000000, -304.000000)">
            <g id="icons/big/1-copy-5" transform="translate(393.000000, 304.000000)">
                <g id="Group-3" transform="translate(9.318710, 19.965000)">
                    <polygon id="Rectangle-Copy-18" fill="#017AFF" transform="translate(208.060225, 70.964629) rotate(-360.000000) translate(-208.060225, -70.964629) " points="203.030856 64.7146292 213.089594 64.7146292 213.089594 77.2146292 203.030856 77.2146292"></polygon>
                    <g id="Group" transform="translate(201.150441, 62.666655) rotate(-360.000000) translate(-201.150441, -62.666655) translate(176.430479, 37.373414)" stroke="#2F383F" stroke-linecap="round" stroke-linejoin="round" stroke-width="1.5">
                        <g id="Group-19">
                            <polyline id="Path-23" points="-1.3730912e-13 19.0906638 24.8055644 7.47782372e-13 49.4399242 19.0906638"></polyline>
                            <polyline id="Path" points="45.8748009 50.5864818 45.8748009 25.1447722 24.4777649 9.3005798 2.9182201 25.1447722 2.9182201 49.9868209"></polyline>
                            <path d="M9.31206335,46.4832182 C9.31206335,40.3368569 9.31206335,35.6196397 9.31206335,32.3315666 C9.31206335,29.4540266 12.00928,27.3958284 14.8115236,27.2073763 C17.4513263,27.0298485 20.2058622,29.4540266 20.2058622,32.3315666 C20.2058622,37.0792073 20.2058622,43.1641791 20.2058622,50.5864818" id="Path"></path>
                            <line x1="22.5171932" y1="18.8459117" x2="26.4332268" y2="18.8459095" id="Path-28"></line>
                            <polyline id="Path-30" points="26.9647142 27.9017394 39.5444285 28.1072439 39.6498402 40.6288486 26.9647142 40.6288486 26.9647142 35.3530949"></polyline>
                            <line x1="39.160336" y1="34.5100461" x2="32.4333201" y2="34.5100461" id="Path-31"></line>
                            <line x1="34.265294" y1="28.8807478" x2="34.265294" y2="40.6288486" id="Path-32"></line>
                            <polyline id="Path-33" points="37.5015943 9.36001518 37.5015943 1.4685126 36.2233108 1.4685126 44.5448822 1.4685126 43.2373261 1.4685126 43.2348366 13.7061176"></polyline>
                        </g>
                    </g>
                    <g id="Group-2" transform="translate(83.352550, 0.000000)" stroke="#2F383F" stroke-linecap="round" stroke-linejoin="round" stroke-width="1.5">
                        <g id="icons/big/1-copy-4">
                            <g id="Combined-Shape">
                                <use xlink:href="#path-1"></use>
                                <use xlink:href="#path-1"></use>
                            </g>
                            <polygon id="Shape-Copy-2" points="29.2384128 65.9082556 29.2384128 57.3803852 6.09133601 57.3803852 6.09133601 65.9082556"></polygon>
                            <polygon id="Shape-Copy-3" points="29.2384128 49.6646929 29.2384128 41.1368225 6.09133601 41.1368225 6.09133601 49.6646929"></polygon>
                            <polygon id="Shape-Copy-4" points="29.2384128 33.4211302 29.2384128 24.8932598 6.09133601 24.8932598 6.09133601 33.4211302"></polygon>
                            <polygon id="Shape-Copy-6" fill="#017AFF" points="29.2384128 17.1775675 29.2384128 8.64969713 6.09133601 8.64969713 6.09133601 17.1775675"></polygon>
                        </g>
                        <polyline id="Path-Copy-3" points="14.0100728 87.7152385 14.0100728 77.9691009 21.319676 77.9691009 21.319676 87.7152385"></polyline>
                    </g>
                    <rect id="Rectangle-Copy-15" fill="#F5002E" x="19.6986845" y="68.2827043" width="14.8611782" height="20.225887"></rect>
                    <polygon id="Path" stroke="#2F383F" stroke-width="1.5" stroke-linecap="round" stroke-linejoin="round" points="4.7237053 31.6264811 4.7237053 24.3168779 65.4784446 24.3168779 65.4784446 31.6264811"></polygon>
                    <line x1="7.07139657" y1="39.9127774" x2="7.07139657" y2="31.6437888" id="Path" stroke="#2F383F" stroke-width="1.5" stroke-linecap="round" stroke-linejoin="round"></line>
                    <line x1="7.06408289" y1="37.6206126" x2="7.06408289" y2="37.9114179" id="Path" stroke="#2F383F" stroke-width="1.5" stroke-linecap="round" stroke-linejoin="round"></line>
                    <line x1="7.06408289" y1="48.467649" x2="7.06408289" y2="45.3754197" id="Path" stroke="#2F383F" stroke-width="1.5" stroke-linecap="round" stroke-linejoin="round"></line>
                    <line x1="7.06408289" y1="45.3754197" x2="7.06408289" y2="43.1943802" id="Path" stroke="#2F383F" stroke-width="1.5" stroke-linecap="round" stroke-linejoin="round"></line>
                    <line x1="7.06408289" y1="43.1943802" x2="7.06408289" y2="37.9114179" id="Path" stroke="#2F383F" stroke-width="1.5" stroke-linecap="round" stroke-linejoin="round"></line>
                    <line x1="7.06408289" y1="45.3754197" x2="7.06408289" y2="43.1943802" id="Path" stroke="#2F383F" stroke-width="1.5" stroke-linecap="round" stroke-linejoin="round"></line>
                    <polyline id="Path" stroke="#2F383F" stroke-width="1.5" stroke-linecap="round" stroke-linejoin="round" points="7.06408289 60.9722754 4.43847179 60.9722754 4.43847179 48.448262 7.07139657 48.448262"></polyline>
                    <polyline id="Path" stroke="#2F383F" stroke-width="1.5" stroke-linecap="round" stroke-linejoin="round" points="28.0909127 48.448262 26.7744503 48.448262 26.7744503 60.9528884 43.5520321 60.9528884 43.5520321 48.448262 42.2355697 48.448262"></polyline>
                    <polyline id="Path" stroke="#2F383F" stroke-width="1.5" stroke-linecap="round" stroke-linejoin="round" points="42.2355697 46.5062328 42.2355697 41.2426575 28.0835991 41.2426575 28.0835991 46.5256198"></polyline>
                    <line x1="28.0835991" y1="43.1943802" x2="28.0835991" y2="48.448262" id="Path" stroke="#2F383F" stroke-width="1.5" stroke-linecap="round" stroke-linejoin="round"></line>
                    <line x1="21.2453083" y1="43.1943802" x2="21.2453083" y2="48.448262" id="Path" stroke="#2F383F" stroke-width="1.5" stroke-linecap="round" stroke-linejoin="round"></line>
                    <polyline id="Path" stroke="#2F383F" stroke-width="1.5" stroke-linecap="round" stroke-linejoin="round" points="21.2453083 48.448262 21.2453083 60.9528884 7.06408289 60.9528884"></polyline>
                    <line x1="21.1721715" y1="48.448262" x2="7.06408289" y2="48.448262" id="Path" stroke="#2F383F" stroke-width="1.5" stroke-linecap="round" stroke-linejoin="round"></line>
                    <line x1="7.06408289" y1="87.5787246" x2="7.06408289" y2="60.9722754" id="Path" stroke="#2F383F" stroke-width="1.5" stroke-linecap="round" stroke-linejoin="round"></line>
                    <polyline id="Path" stroke="#2F383F" stroke-width="1.5" stroke-linecap="round" stroke-linejoin="round" points="20.2287068 87.4176928 20.2287068 69.1632904 48.8910185 69.1632904 48.8910185 87.4176928"></polyline>
                    <line x1="7.06408289" y1="37.6206126" x2="7.06408289" y2="37.9114179" id="Path" stroke="#2F383F" stroke-width="1.5" stroke-linecap="round" stroke-linejoin="round"></line>
                    <line x1="42.2282561" y1="48.448262" x2="42.2282561" y2="43.1943802" id="Path" stroke="#2F383F" stroke-width="1.5" stroke-linecap="round" stroke-linejoin="round"></line>
                    <line x1="48.7008628" y1="43.1943802" x2="48.7008628" y2="48.448262" id="Path" stroke="#2F383F" stroke-width="1.5" stroke-linecap="round" stroke-linejoin="round"></line>
                    <polyline id="Path" stroke="#2F383F" stroke-width="1.5" stroke-linecap="round" stroke-linejoin="round" points="48.7008628 48.448262 48.7008628 60.9528884 62.9917934 60.9528884"></polyline>
                    <polyline id="Path" stroke="#2F383F" stroke-width="1.5" stroke-linecap="round" stroke-linejoin="round" points="62.8455198 46.5062328 62.8455198 41.2426575 48.7008628 41.2426575 48.7008628 46.5256198"></polyline>
                    <polyline id="Path" stroke="#2F383F" stroke-width="1.5" stroke-linecap="round" stroke-linejoin="round" points="7.10065129 41.2426575 21.2087399 41.2426575 21.2087399 46.5256198"></polyline>
                    <line x1="62.9917934" y1="48.448262" x2="62.8455198" y2="48.448262" id="Path" stroke="#2F383F" stroke-width="1.5" stroke-linecap="round" stroke-linejoin="round"></line>
                    <line x1="62.8455198" y1="48.448262" x2="62.8455198" y2="43.1943802" id="Path" stroke="#2F383F" stroke-width="1.5" stroke-linecap="round" stroke-linejoin="round"></line>
                    <polyline id="Path" stroke="#2F383F" stroke-width="1.5" stroke-linecap="round" stroke-linejoin="round" points="62.9917934 48.467649 65.4784446 48.467649 65.4784446 60.9722754 62.9917934 60.9722754"></polyline>
                    <line x1="34.8121846" y1="87.9598961" x2="34.8121846" y2="69.9290776" id="Path" stroke="#2F383F" stroke-width="1.5" stroke-linecap="round" stroke-linejoin="round"></line>
                    <line x1="48.7008628" y1="48.4579555" x2="62.8455198" y2="48.4579555" id="Path" stroke="#2F383F" stroke-width="1.5" stroke-linecap="round" stroke-linejoin="round"></line>
                    <line x1="62.9917934" y1="60.9625819" x2="62.9917934" y2="87.4176928" id="Path" stroke="#2F383F" stroke-width="1.5" stroke-linecap="round" stroke-linejoin="round"></line>
                    <line x1="62.9917934" y1="31.6361746" x2="62.9917934" y2="48.448262" id="Path" stroke="#2F383F" stroke-width="1.5" stroke-linecap="round" stroke-linejoin="round"></line>
                    <line x1="28.0835991" y1="48.448262" x2="42.2282561" y2="48.448262" id="Path" stroke="#2F383F" stroke-width="1.5" stroke-linecap="round" stroke-linejoin="round"></line>
                    <line x1="69.3521192" y1="88.6940081" x2="74.7140906" y2="88.6940081" id="Path" stroke="#979797" stroke-width="2.10539441" stroke-linecap="round" stroke-linejoin="round"></line>
                    <path d="M151.070258,35.0120672 L150.974923,35.1344484 C150.86407,35.2858431 150.762357,35.4552976 150.671084,35.6410324 C150.534727,35.9186262 150.405572,36.0425166 150.26554,36.0896995 C150.125829,36.1367745 149.953226,36.1144907 149.691677,35.9719945 C149.040489,35.6175514 148.374721,35.5866704 147.817436,35.9050727 C147.245557,36.2322635 146.868108,36.8781381 146.737211,37.708574 C146.694614,37.9777793 146.602314,38.1448454 146.478602,38.2452401 C146.350412,38.3492688 146.176501,38.3952007 145.929206,38.3508633 C145.219049,38.2241477 144.548391,38.4302106 144.09351,38.9298622 C143.644032,39.4235563 143.449068,40.1561588 143.545378,40.9344819 C143.588782,41.2865025 143.561405,41.4757868 143.479652,41.6041949 C143.395633,41.7361613 143.243936,41.8279964 142.92409,41.8953497 C142.219672,42.0440523 141.670821,42.4708503 141.385569,43.1054571 C141.100853,43.7388265 141.121597,44.4828259 141.43146,45.1998246 C141.570459,45.521429 141.595536,45.7108862 141.550246,45.8625005 C141.504734,46.0148589 141.381867,46.1526662 141.093798,46.3252263 C140.469522,46.6987978 140.067342,47.2857786 139.968764,47.9838226 C139.870366,48.682451 140.103895,49.4116941 140.598945,49.9875019 C140.806437,50.2287752 140.880987,50.4007835 140.881689,50.5622363 C140.882391,50.7237101 140.809329,50.8964324 140.603912,51.1397325 C140.096219,51.7403717 139.861171,52.4480813 139.957454,53.1368883 C140.05401,53.8281641 140.473734,54.4245959 141.125733,54.8255552 C141.383009,54.9837461 141.491569,55.1116468 141.53458,55.2688126 C141.573813,55.4121745 141.553499,55.6008403 141.450892,55.9267407 C141.314243,56.3609233 141.174637,56.8670054 141.223696,57.33191 C141.278927,57.8537991 141.448255,58.2803041 141.732321,58.5979522 C142.017843,58.9172282 142.416333,59.123952 142.914736,59.2187751 C143.221719,59.2768937 143.375042,59.3706343 143.464547,59.5119561 C143.548446,59.6444281 143.581159,59.8416809 143.552157,60.190561 C143.51833,60.599357 143.529158,60.9176694 143.591131,61.1922042 C143.715665,61.7428994 143.984895,62.1754237 144.364288,62.4545683 C144.747067,62.7362045 145.238412,62.8601479 145.794404,62.8058833 C146.154085,62.7707438 146.346153,62.8051779 146.467687,62.8880947 C146.608701,62.984302 146.688936,63.1487444 146.740619,63.4881575 C146.858516,64.263441 147.238973,64.8995187 147.797398,65.2226605 C148.164963,65.4354763 148.323066,66.6154632 148.571254,67.2848763 L148.517325,67.748928 C147.992186,67.6092203 147.579297,67.2263679 147.271486,66.6343412 C147.106821,66.3182114 146.947173,66.1749664 146.770784,66.1199251 C146.594885,66.065037 146.374662,66.0896733 146.038554,66.2484225 C145.297795,66.5975536 144.497219,66.6174381 143.842354,66.2860468 C143.181473,65.9517978 142.731213,65.2938566 142.591685,64.4919248 C142.530519,64.1408453 142.435563,63.9707507 142.268677,63.8712364 C142.124845,63.7854696 141.897538,63.7498519 141.471866,63.7861993 C140.813864,63.8423291 140.23237,63.7141254 139.779362,63.4228087 C139.330361,63.1340628 139.011734,62.6866781 138.864352,62.1170542 C138.791009,61.833083 138.778194,61.5038295 138.818228,61.0809822 C138.85255,60.7201103 138.813836,60.5160774 138.714543,60.379052 C138.608617,60.2328727 138.427163,60.13591 138.063857,60.0757937 C137.474011,59.9777113 137.002409,59.763882 136.664501,59.4336317 C136.328317,59.1050653 136.127923,58.6639003 136.062558,58.1240726 C136.004497,57.6431882 136.169718,57.1197109 136.331438,56.6706043 C136.452871,56.333502 136.476912,56.1383513 136.430481,55.9900617 C136.379578,55.8274938 136.251101,55.6951968 135.946621,55.5315686 C135.174999,55.1168273 134.678267,54.4998947 134.563995,53.7848582 C134.450047,53.0723753 134.72822,52.34034 135.329061,51.7190554 C135.572165,51.4673926 135.658633,51.2887334 135.657802,51.1217094 C135.656971,50.954707 135.568744,50.7767864 135.323182,50.52722 C134.737304,49.9316203 134.460929,49.1773114 134.577381,48.4546695 C134.694045,47.7326321 135.170014,47.1254753 135.908827,46.7390633 C136.249749,46.5605719 136.395159,46.4180279 136.449021,46.2604326 C136.50262,46.1036069 136.472942,45.9076376 136.30844,45.5749789 C135.941727,44.8333353 135.917177,44.0637629 136.25413,43.4086231 C136.591718,42.7522033 137.241268,42.3107353 138.074928,42.1569215 C138.453456,42.087253 138.632985,41.9922614 138.73242,41.855759 C138.829173,41.7229372 138.861572,41.5271468 138.810205,41.1630263 C138.696224,40.3579504 138.926959,39.6001667 139.458903,39.0895032 C139.997243,38.5726773 140.790948,38.3595316 141.631399,38.4906027 C141.924066,38.536464 142.129885,38.4889534 142.281595,38.381349 C142.428005,38.2775034 142.537239,38.1046949 142.587652,37.8262364 C142.742564,36.9672565 143.189265,36.2991816 143.866067,35.9607446 C144.5256,35.631398 145.313518,35.6633405 146.084181,36.0299666 C146.393716,36.1773607 146.597988,36.2004105 146.763332,36.1517174 C146.929056,36.1029127 147.081907,35.9747639 147.243282,35.6876285 C147.675357,34.9191528 148.305132,34.4201158 149.034082,34.3083147 C149.729631,34.2037466 150.447269,34.460351 151.070258,35.0120672 Z" id="Combined-Shape" fill="#F5002E"></path>
                    <path d="M138.792766,62.3168271 C138.721417,62.0248827 138.743624,60.6708987 138.647031,60.5300259 C138.543985,60.3797422 138.367466,60.2800571 138.01404,60.2182529 C137.440234,60.1174165 136.981457,59.8975833 136.652739,59.5580604 C136.325697,59.2202686 136.130752,58.7667168 136.067165,58.211732 C136.010683,57.7173455 136.171411,57.1791701 136.328733,56.7174537 C136.446863,56.3708864 136.470251,56.1702563 136.425082,56.017803 C136.375564,55.8506706 136.25058,55.7146591 135.954381,55.5464365 C135.203742,55.1200503 134.720519,54.4857957 134.609354,53.7506826 C134.498505,53.0181948 134.769113,52.2656057 135.353615,51.6268769 C135.590108,51.368148 135.674224,51.1844724 135.673416,51.0127588 C135.672607,50.8410674 135.58678,50.6581512 135.347895,50.4015776 C134.777951,49.7892548 134.509092,49.0137667 134.622376,48.2708347 C134.735868,47.5285242 135.198893,46.9043199 135.917615,46.5070583 C136.249265,46.3235553 136.390721,46.177009 136.443118,46.0149888 C136.495259,45.8537598 136.466389,45.6522882 136.306361,45.3102892 C135.94962,44.5478219 135.925737,43.7566418 136.253527,43.0831071 C136.581934,42.4082567 137.213821,41.9543933 138.02481,41.7962607 C138.393044,41.7246361 138.567691,41.6269774 138.664421,41.4866423 C138.758543,41.3500912 138.790062,41.1488034 138.740091,40.7744593 C138.62921,39.9467788 138.853671,39.1677182 139.371149,38.6427165 C139.894849,38.1113794 140.66697,37.892249 141.484565,38.0270003 C141.769273,38.0741493 141.969495,38.0253047 142.117079,37.9146791 C142.259507,37.8079177 142.365771,37.6302572 142.414813,37.3439802 C142.565513,36.4608821 143.000066,35.7740493 143.658463,35.4261097 C144.30006,35.0875158 145.066551,35.1203552 145.816256,35.4972753 C146.117374,35.6488079 146.316091,35.6725049 146.476939,35.6224446 C146.638155,35.5722696 146.78685,35.4405226 146.943836,35.1453252 C147.364161,34.3552725 147.97681,33.8422237 148.685937,33.7272835 C149.384631,33.6162744 150.106237,33.9011851 150.72572,34.5072386 C150.960643,34.7367461 151.145628,34.817615 151.318741,34.816619 C151.490536,34.8156306 151.675695,34.732932 151.91185,34.5029471 C152.531549,33.8998974 153.255995,33.6151183 153.954223,33.7287252 C154.664734,33.8446403 155.278437,34.3571579 155.698799,35.145944 C155.858884,35.4468938 156.01053,35.5818518 156.169196,35.6322015 C156.33308,35.6842073 156.531848,35.6592038 156.826703,35.4926794 C157.528047,35.0950569 158.328725,35.0838681 159.023472,35.4637293 C159.698968,35.8335483 160.144886,36.5161411 160.217928,37.2890772 C160.248714,37.6112746 160.353407,37.7966321 160.482034,37.897119 C160.62474,38.0080003 160.868006,38.0673826 161.261706,37.9929024 C161.978631,37.8600688 162.690873,38.0814721 163.217073,38.6002391 C163.749389,39.1244552 163.998555,39.8582309 163.9039,40.6124618 C163.843322,41.0960072 163.859665,41.32279 163.95853,41.4695296 C164.059704,41.6196986 164.258287,41.7143059 164.728008,41.8198146 C165.491307,41.9916003 166.085672,42.4466077 166.397042,43.1075318 C166.710265,43.7730033 166.689055,44.5424741 166.347779,45.2744347 C166.186621,45.6201317 166.155556,45.8345488 166.209311,46.0067042 C166.263944,46.1816695 166.411027,46.3376279 166.742937,46.5210945 C167.436353,46.9042805 167.901373,47.5428916 168.012883,48.2774373 C168.126191,49.0218009 167.866961,49.7894715 167.310681,50.38571 C167.057687,50.6569346 166.967669,50.8429782 166.96708,51.0165994 C166.966491,51.1905698 167.055291,51.3767534 167.306999,51.6482945 C167.876403,52.2629027 168.135315,53.0066848 168.022683,53.7463014 C167.912742,54.4699702 167.463438,55.0870023 166.764868,55.4976047 L166.73194,55.5167001 L166.698518,55.5355659 C166.383523,55.7112168 166.238897,55.8913149 166.19346,56.0501548 C166.150104,56.2019423 166.1724,56.4156114 166.325388,56.7052826 C166.722455,57.4572216 166.72631,58.30972 166.332482,59.0441795 C165.965342,59.7292697 165.302744,60.189722 164.595192,60.2317698 C164.374659,60.2447981 164.103562,60.3270676 163.968877,60.5138247 C163.838161,60.6948771 163.838801,60.9789015 163.887534,61.1933306 C164.057721,61.9421661 163.753616,62.8418265 163.217073,63.3861947 C162.693373,63.9175317 162.088768,64.0941847 161.271172,63.9594335 C160.986465,63.9122844 160.786242,63.9611291 160.638659,64.0717547 C160.49623,64.1785161 160.389966,64.3561766 160.340925,64.6424536 C160.190225,65.5255517 159.755672,66.2123845 159.097275,66.5603241 C158.455678,66.8989179 157.689187,66.8660786 156.939481,66.4891585 C156.638363,66.3376259 156.439647,66.3139289 156.278799,66.3639891 C156.117582,66.4141642 155.968888,66.5459111 155.811902,66.8411086 C155.391576,67.6311613 154.778927,68.1442101 154.069801,68.2591503 C153.371106,68.3701594 152.649501,68.0852486 152.030018,67.4791952 C151.795095,67.2496877 151.61011,67.1688188 151.436996,67.1698148 C151.265202,67.1708031 151.080043,67.2535018 150.843888,67.4834867 C150.224188,68.0865364 149.499743,68.3713155 148.801515,68.2577086 C148.091004,68.1417935 147.4773,67.6292759 147.056938,66.8404897 C146.896853,66.53954 146.745208,66.404582 146.586542,66.3542323 C146.422657,66.3022265 146.22389,66.32723 145.929034,66.4937544 C145.22769,66.8913769 144.427012,66.9025657 143.732266,66.5227044 C143.056769,66.1528854 142.610852,65.4702927 142.537809,64.6973566 C142.507024,64.3751592 142.402331,64.1898017 142.273703,64.0893148 C142.130998,63.9784335 141.887731,63.9190511 141.494031,63.9935313 C140.777106,64.126365 140.064865,63.9049617 139.538665,63.3861947 C139.006348,62.8619786 138.645437,62.3719532 138.740091,61.6177223" id="Path" stroke="#2F383F" stroke-width="1.5" stroke-linecap="round"></path>
                    <line x1="148.602167" y1="68.561847" x2="148.602167" y2="87.570567" id="Path-38" stroke="#2F383F" stroke-width="1.5" stroke-linecap="round"></line>
                    <line x1="153.405906" y1="68.561847" x2="153.405906" y2="87.570567" id="Path-39" stroke="#2F383F" stroke-width="1.5" stroke-linecap="round"></line>
                    <path d="M144.919863,47.2299184 C145.499916,45.6833732 146.498601,45.4103301 147.915918,46.410789" id="Path-41" stroke="#2F383F" stroke-width="1.5" stroke-linecap="round" stroke-linejoin="round"></path>
                    <path d="M156.5994,47.1107838 C157.922331,46.4183101 158.797111,46.8264375 159.223739,48.3351659" id="Path-42" stroke="#2F383F" stroke-width="1.5" stroke-linecap="round" stroke-linejoin="round"></path>
                    <path d="M152.103773,57.8913495 C153.839951,58.3840959 154.70804,57.8324068 154.70804,56.2362821" id="Path-43" stroke="#2F383F" stroke-width="1.5" stroke-linecap="round" stroke-linejoin="round"></path>
                    <path d="M81.3857972,88.6940081 L229.673421,88.6940081 M0.26704588,88.6940081 L62.9335712,88.6940081" id="Shape-Copy-5" stroke="#979797" stroke-width="2.10539441" stroke-linecap="round" stroke-linejoin="round"></path>
                </g>
            </g>
        </g>
    </g>
</svg>