<svg xmlns="http://www.w3.org/2000/svg" viewBox="0 0 20 20">
  <g fill="#FFF" fill-rule="evenodd">
    <rect width="20" height="20" opacity="0"/>
    <path fill-rule="nonzero" d="M2.03337375,7.58215882 C1.99224415,5.22584571 4.00154663,3.29347844 6.5059302,3.24976427 C7.76624336,3.22776542 8.94258655,3.65990255 9.79049594,4.43649387 L9.91912045,4.5614162 L10.0619443,4.41683107 C10.826013,3.67574054 11.8734478,3.2216696 13.0198085,3.14311742 L13.2860255,3.13162983 C13.5220912,3.12757574 13.7168007,3.3156045 13.7209213,3.55167027 C13.7250418,3.78773604 13.537013,3.98244552 13.3009473,3.98656606 C12.1981975,4.00581463 11.2005216,4.43655284 10.5266527,5.16511885 L10.2565601,5.47926807 C10.1080966,5.65360499 9.85356608,5.6768887 9.67706804,5.54609286 L9.61489862,5.48981603 L9.47326393,5.33402865 C8.78017504,4.53973305 7.70244503,4.08400926 6.52085201,4.10463405 C4.54323839,4.13915342 2.96404779,5.59563182 2.89044184,7.38137519 L2.88824353,7.56723701 C2.88902592,7.61206011 2.89800225,7.71421198 2.92345236,7.86600842 C3.06565327,8.71416183 3.47949479,9.70535787 4.28943668,10.7323049 C5.06449927,11.7149856 6.02762709,12.6478399 7.11960159,13.5183594 C7.86217611,14.1103381 8.619576,14.6382556 9.35066204,15.0946742 L9.7168138,15.3184089 L10.1110872,15.5472889 L10.3321346,15.4106017 C10.6581676,15.2047337 11.0180159,14.9637783 11.4007274,14.6900483 C12.4938392,13.9082126 13.5486432,13.0223865 14.4773828,12.0524037 C14.9533281,11.5553228 15.3839822,11.0478484 15.7626008,10.5317549 C15.9022588,10.3413877 16.1697971,10.3002798 16.3601643,10.4399377 C16.5505315,10.5795957 16.5916395,10.847134 16.4519815,11.0375012 C16.0503353,11.5849834 15.5957014,12.1207152 15.0949458,12.6437082 C14.1259781,13.6557055 13.0315542,14.5748043 11.8981248,15.3854768 C11.6006913,15.5982127 11.316272,15.7920541 11.049433,15.9661119 L10.6723069,16.2064452 L10.3513278,16.3998406 L10.137869,16.4561267 L10.097604,16.4559925 L9.90006778,16.4068738 L9.62347473,16.2538368 L9.27907016,16.0528515 C9.15792577,15.9805016 9.03064994,15.9028306 8.89787698,15.8199401 C8.14043148,15.3470653 7.35651549,14.8006657 6.5866305,14.1869152 C5.4467245,13.2781848 4.43756351,12.3007443 3.61811131,11.2617831 C2.71494539,10.1166349 2.24524214,8.99164386 2.08022169,8.00738399 C2.04755692,7.81255582 2.03487649,7.66825093 2.03337375,7.58215882 Z M15.226776,3.94425471 C15.3479258,3.74160536 15.6104169,3.6755369 15.8130662,3.79668668 C16.4524047,4.17890216 16.9816183,4.70643519 17.3481343,5.32966209 C17.7011659,5.92996006 17.8948135,6.60400371 17.9070509,7.30508275 C17.9111714,7.54114852 17.7231427,7.735858 17.4870769,7.73997854 C17.2510111,7.74409909 17.0563016,7.55607033 17.0521811,7.32000456 C17.0425427,6.76782047 16.8902345,6.23767011 16.611135,5.76308691 C16.3180765,5.26476767 15.8919266,4.83997103 15.3743441,4.53054489 C15.1716947,4.40939511 15.1056263,4.14690406 15.226776,3.94425471 Z"/>
  </g>
</svg>
