<svg xmlns="http://www.w3.org/2000/svg" viewBox="0 0 20 20">
  <path fill="#2F383F" fill-rule="evenodd" d="M1.68374397,-0.365408617 C1.67951893,-0.45577294 1.70993542,-0.547108541 1.77424899,-0.62094902 L1.77424899,-0.62094902 L1.80661224,-0.654003487 C1.88268065,-0.723284697 1.97998434,-0.75952843 2.07829468,-0.763565031 C2.17777315,-0.767649596 2.27862808,-0.738840302 2.36003807,-0.676539225 L2.36003807,-0.676539225 L2.39551749,-0.646033457 L5.93724085,2.72287452 C6.00823085,2.79040062 6.04728896,2.87665478 6.05329548,2.96480603 C6.0592768,3.0525874 6.03250135,3.1419214 5.97322203,3.21582454 L5.97322203,3.21582454 L5.94317584,3.24919734 L2.40135049,6.81300434 C2.32306007,6.89178066 2.21797053,6.93289057 2.11169691,6.93643146 C2.00522248,6.93997903 1.89711012,6.90583893 1.812903,6.83234604 C1.73651235,6.76567508 1.69327658,6.67798959 1.68487737,6.58752723 C1.67652072,6.49752324 1.70264586,6.40513846 1.76344219,6.32885482 L1.76344219,6.32885482 L1.79435763,6.29441743 L5.07213186,2.99609069 L1.80023229,-0.115993698 C1.72707009,-0.185586014 1.68797944,-0.274821093 1.68374397,-0.365408617 Z" transform="rotate(-180 5.717 6.815)"/>
</svg>
