<svg xmlns="http://www.w3.org/2000/svg" viewBox="0 0 229 188">
  <g fill="none" fill-rule="evenodd">
    <g fill-rule="nonzero" transform="translate(178.048 29.232)">
      <path fill="#404042" d="M8.93095917,0 C9.11185962,0 9.2804344,0.0633413352 9.41318477,0.170971776 C9.53856861,0.272629631 9.63199159,0.413801868 9.67367638,0.578975874 C9.96930379,2.54737468 10.8889851,4.30435369 12.2262884,5.64322435 C13.5641663,6.98267036 15.320023,7.90364315 17.2865993,8.19921513 C17.4501528,8.24106686 17.5903828,8.33431159 17.6914597,8.45928065 C17.7988192,8.59201743 17.862,8.76057043 17.862,8.94144585 C17.862,9.12232128 17.7988192,9.29087428 17.6914597,9.42361106 C17.5900781,9.54895676 17.4492973,9.6423638 17.2846008,9.68406492 C15.3185309,9.98004896 13.5636313,10.9008029 12.2263419,12.2396596 C10.888478,13.5790915 9.96858896,15.3369833 9.67335135,17.3058115 C9.63144898,17.4698153 9.53815445,17.6104349 9.41312941,17.7118068 C9.28038541,17.8194374 9.11184873,17.8829268 8.93120164,17.8829268 C8.75024515,17.8829268 8.58164096,17.8194699 8.44885448,17.7118033 C8.32337197,17.6100589 8.2298771,17.4687671 8.18818796,17.3034537 C7.89250752,15.3352163 6.97287148,13.5783803 5.63566789,12.2395928 C4.29780771,10.900148 2.54197218,9.97916787 0.575400662,9.68357439 C0.411847232,9.64172266 0.271617223,9.54847793 0.170540337,9.42350887 C0.0631808032,9.29077209 0,9.12221909 0,8.94134367 C0,8.76046824 0.0631808032,8.59191524 0.170540337,8.45917846 C0.271921942,8.33383265 0.412702947,8.24042567 0.577401309,8.19872419 C2.54345925,7.90273814 4.29834891,6.9819896 5.63563334,5.64314196 C6.97357455,4.30363677 7.89349373,2.54562364 8.18868669,0.576726175 C8.23054791,0.412816326 8.32378293,0.272278409 8.44873357,0.170971776 C8.58148395,0.0633413352 8.75005873,0 8.93095917,0 Z M8.93130742,3.28919685 C8.81817801,3.58439992 8.69103984,3.87361576 8.5504824,4.15582273 C8.35260534,4.55311429 8.12764317,4.9374975 7.87677854,5.3059442 C7.18651879,6.31973371 6.31240727,7.19486973 5.29980457,7.8859385 C4.93188328,8.13703294 4.54805198,8.36220764 4.15113119,8.56023104 C3.86918758,8.70089243 3.58029625,8.82802549 3.28541789,8.94108796 C3.58027636,9.05435199 3.86915386,9.18163788 4.1510303,9.32235916 C4.54785653,9.52046686 4.93178949,9.74569257 5.29980457,9.99685102 C6.31240727,10.6879198 7.18651879,11.5630558 7.87677854,12.5768453 C8.12757904,12.9451978 8.35249011,13.329479 8.55028163,13.7268649 C8.69077833,14.0091389 8.81776251,14.2983688 8.93069258,14.5935927 C9.04382199,14.2983896 9.17096016,14.0091738 9.3115176,13.7269668 C9.50939466,13.3296752 9.73435683,12.945292 9.98522146,12.5768453 C10.6754812,11.5630558 11.5495927,10.6879198 12.5621954,9.99685102 C12.9301167,9.74575658 13.313948,9.52058188 13.7108688,9.32255848 C13.9928124,9.18189709 14.2817038,9.05476403 14.5765821,8.94170156 C14.2817236,8.82843753 13.9928461,8.70115164 13.7109697,8.56043036 C13.3141435,8.36232266 12.9302105,8.13709695 12.5621954,7.8859385 C11.5495927,7.19486973 10.6754812,6.31973371 9.98522146,5.3059442 C9.73442096,4.93759168 9.50950989,4.55331055 9.31171837,4.15592464 C9.17122167,3.87365064 9.04423749,3.58442076 8.93130742,3.28919685 Z"/>
      <path fill="#017AFF" d="M18.32,10.3170732 C14.193931,10.9706995 10.9578615,14.2105604 10.305,18.3414634 C9.65219172,14.2105332 6.4160961,10.9706463 2.29,10.3170732 C6.41606899,9.6634468 9.65213851,6.42358595 10.305,2.29268293 C10.9579265,6.42355278 14.1939641,9.66338169 18.32,10.3170732 L18.32,10.3170732 Z" style="mix-blend-mode:multiply"/>
    </g>
    <path fill="#404042" fill-rule="nonzero" d="M166.597531,45.8536585 C166.730709,45.8536585 166.854814,45.90029 166.952545,45.9795272 C167.044098,46.0537558 167.112512,46.1565992 167.14355,46.2768175 C167.300922,47.3611988 167.805019,48.3295094 168.54054,49.0662399 C169.276603,49.8035136 170.244429,50.3088599 171.328126,50.4665393 C171.447711,50.4974685 171.550272,50.5657828 171.624324,50.657224 C171.703432,50.7549078 171.75,50.8790053 171.75,51.0121951 C171.75,51.1453867 171.703432,51.2694857 171.624324,51.3671706 C171.550112,51.4588091 171.447262,51.5272074 171.327056,51.5580591 C170.243612,51.7159448 169.276297,52.2211546 168.540538,52.9580939 C167.804731,53.6950803 167.300517,54.6638228 167.143314,55.7484121 C167.112156,55.868056 167.043793,55.970644 166.952403,56.0447468 C166.854685,56.1239796 166.730621,56.1707317 166.597653,56.1707317 C166.464431,56.1707317 166.340304,56.124014 166.242546,56.0447495 C166.15093,55.9704656 166.082467,55.8675512 166.05142,55.7472631 C165.894007,54.6629699 165.389924,53.6947411 164.654449,52.958063 C163.918386,52.2207963 162.950564,51.7154558 161.866874,51.5577787 C161.747289,51.5268495 161.644728,51.4585352 161.570676,51.367094 C161.491568,51.2694096 161.445,51.1453114 161.445,51.0121207 C161.445,50.87893 161.491568,50.7548318 161.570676,50.6571474 C161.644888,50.5655089 161.747738,50.4971106 161.867944,50.4662589 C162.951388,50.3083732 163.918703,49.8031634 164.654462,49.0662241 C165.390313,48.329193 165.894545,47.3603781 166.051718,46.275732 C166.082841,46.1561361 166.151167,46.0535908 166.242516,45.9795272 C166.340247,45.90029 166.464352,45.8536585 166.597531,45.8536585 Z M166.597405,48.1463415 C166.513556,48.3344682 166.41955,48.5178633 166.315816,48.6957034 C166.173472,48.9397345 166.013054,49.172892 165.83581,49.3931753 C165.58253,49.7079574 165.29635,49.9946398 164.982164,50.2483179 C164.761904,50.4261589 164.528768,50.5870621 164.284764,50.7297352 C164.106809,50.833788 163.923281,50.9280224 163.735,51.0120061 C163.923264,51.0961099 164.106784,51.1904384 164.284696,51.2945237 C164.528643,51.4372413 164.761844,51.5981834 164.982164,51.7760724 C165.29635,52.0297505 165.58253,52.3164329 165.83581,52.631215 C166.013047,52.8514894 166.173459,53.0846371 166.315765,53.3286586 C166.419471,53.5064916 166.51344,53.6898928 166.597242,53.8780488 C166.681091,53.6899221 166.775097,53.506527 166.878831,53.3286869 C167.021175,53.0846557 167.181593,52.8514982 167.358837,52.631215 C167.612117,52.3164329 167.898297,52.0297505 168.212483,51.7760724 C168.432763,51.5982159 168.66592,51.4373002 168.909947,51.2946178 C169.087993,51.1905147 169.271617,51.09624 169.46,51.0122267 C169.271629,50.9281842 169.087987,50.8338911 168.909954,50.7297897 C168.665965,50.5871215 168.432784,50.4261916 168.212483,50.2483179 C167.898297,49.9946398 167.612117,49.7079574 167.358837,49.3931753 C167.1816,49.1729008 167.021188,48.9397531 166.878883,48.6957317 C166.775176,48.5178986 166.681207,48.3344974 166.597405,48.1463415 Z" transform="rotate(90 166.597 51.012)"/>
    <g transform="translate(38.93 71.073)">
      <path fill="#FFF" d="M151.14,34.9634146 L151.14,42.4146341 L91.6,42.4146341 C90.0733333,45.0894309 88.5466667,47 87.02,48.1463415 C84.73,49.8658537 77.2875,53.304878 72.135,51.5853659 C68.7,50.4390244 65.265,47.7642276 61.83,43.5609756 L4.58,42.4146341 L4.58,34.9634146 L151.14,34.9634146 Z"/>
      <path fill="#EEEDED" d="M124.805,24.6463415 C131.675,18.9146341 132.438333,10.8902439 127.095,0.573170732 L138.545,1.14634146 L151.14,34.9634146 L30.3425,34.3902439 L32.06,30.3780488 C87.02,32.2886179 117.935,30.3780488 124.805,24.6463415 Z"/>
      <path stroke="#404042" stroke-linecap="round" stroke-linejoin="round" stroke-width="2.004" d="M151.14,34.3902439 L137.543869,0.360093383 C137.456983,0.14262564 137.246412,-3.59573224e-15 137.01223,-3.55271368e-15 L20.0375,0 L20.0375,0 L7.18740185,22.0545482 M2.90301479,29.4078166 L0,34.3902439"/>
      <path fill="#FFF" d="M82.595116 18.0397881C82.1450551 18.0313325 81.6990081 17.9602621 81.280945 17.743286 81.1076141 17.6533294 80.9487841 17.5398266 80.8255982 17.3751581 80.6308413 17.1146695 80.6297672 16.8212226 80.8255699 16.5609501 80.9905904 16.3416286 81.2125963 16.2132514 81.4503185 16.1167216 81.9146257 15.9281057 82.3963452 15.8811987 82.8872231 15.922983 83.243665 15.9533183 83.5884894 16.035992 83.9123116 16.2067399 84.076484 16.293302 84.2282475 16.400139 84.3477021 16.5536671 84.5673902 16.8359736 84.5610302 17.1533987 84.3292158 17.4263547 84.1586268 17.627191 83.9419633 17.7482545 83.7101771 17.8405565 83.3526611 17.9829441 82.9810683 18.033863 82.595116 18.0397881M76.8723692 22.8534042C76.4117366 22.8488864 75.9642479 22.7735265 75.5444323 22.5542977 75.3843019 22.4706673 75.2367785 22.3658361 75.1190481 22.2178011 74.8901734 21.9300633 74.8961942 21.6041825 75.1372518 21.327616 75.3186104 21.1194967 75.5460152 20.9908417 75.7927544 20.9064707 76.5730823 20.6397176 77.3477569 20.6517838 78.1108705 20.9864287 78.2885544 21.0643192 78.4500698 21.1746434 78.585382 21.3260113 78.8444455 21.6159093 78.8460284 21.9729585 78.5858343 22.2616222 78.3750785 22.4954787 78.1083265 22.6206773 77.8262541 22.7118992 77.5152366 22.8124717 77.1964175 22.8542252 76.8723692 22.8534042M71.2494119 20.6795145C71.7018472 20.6888034 72.1549326 20.7607687 72.5784795 20.9857375 72.727501 21.0648932 72.8646789 21.163614 72.9779714 21.2974843 73.2209512 21.5845433 73.2187464 21.9298658 72.9715549 22.2126352 72.7947755 22.4148293 72.5740981 22.5408921 72.3343125 22.623535 71.5445718 22.8956577 70.7608236 22.8841778 69.9882407 22.5432683 69.8347531 22.4755308 69.6955683 22.3795565 69.5722128 22.2577524 69.2567575 21.9462524 69.2554007 21.541216 69.5699232 21.2288519 69.7951798 21.0051484 70.0688288 20.8857822 70.3573178 20.8007323 70.6451567 20.7158675 70.9394403 20.6840818 71.2494119 20.6795145"/>
      <path fill="#017AFF" d="M5.954,53.2399338 L5.954,37.6003925 L5.954,37.6003925 L152.285,37.6003925 L152.285,54.2223438 L93.1974417,54.2223438 C85.9037974,49.0717049 80.409675,46.4851217 76.7150745,46.4625941 C73.3662504,46.4421748 68.7741151,49.0287581 62.9386683,54.2223438 L6.93640998,54.2223438 C6.39383993,54.2223438 5.954,53.7825038 5.954,53.2399338 Z" transform="matrix(1 0 0 -1 0 91.823)"/>
      <path fill="#EEEDED" d="M62.4025,33.8170732 C65.8375,41.4593496 70.7991667,45.0894309 77.2875,44.7073171 C83.7758333,44.3252033 88.3558333,40.695122 91.0275,33.8170732 C86.0658333,33.4349593 81.295,33.4349593 76.715,33.8170732 C72.135,34.199187 67.3641667,34.199187 62.4025,33.8170732 Z"/>
      <path stroke="#404042" stroke-linecap="round" stroke-linejoin="round" stroke-width="2.004" d="M0.03039476,34.9634146 L0.03039476,54.7955145 L149.538131,54.7955145 C150.422015,54.7955145 151.14,53.8083196 151.14,52.5930228 L151.270558,34.9634146 L91.4750267,34.9634146 C87.270818,41.6121951 82.2956955,44.9365854 76.5496594,44.9365854 C70.8036232,44.9365854 65.7989013,41.6121951 61.5354936,34.9634146 L0.03039476,34.9634146 Z"/>
    </g>
    <g transform="translate(100.76 79.67)">
      <path fill="#F5002E" d="M27.4005488,4.5216207 C27.3304143,4.4346986 27.2379326,4.3819119 27.1438215,4.33158858 C24.5689332,2.94994951 21.9956744,1.56588225 19.4180592,0.189592229 C18.9458738,-0.0627281945 18.4513745,-0.0641358398 17.9791559,0.190999874 C15.2356324,1.67360231 12.4954011,3.16289105 9.75420535,4.65006833 C9.72826658,4.6644967 9.70299291,4.68029751 9.6657475,4.70250312 C9.69404736,4.71869104 9.70864623,4.72710172 9.72331161,4.73487896 C12.739159,6.35296725 15.7553721,7.97066845 18.7702883,9.59086821 C18.8274534,9.62151968 18.8683901,9.61694484 18.9218971,9.5877362 C20.2291778,8.87684012 21.5374228,8.16777398 22.8450028,7.45832074 C24.2882292,6.67496612 25.7311895,5.8916115 27.1741166,5.1089607 C27.2585839,5.06321223 27.3396924,5.01324082 27.4015464,4.93582033 C27.5066649,4.80385358 27.5059666,4.65253171 27.4005488,4.5216207"/>
      <path fill="#017AFF" d="M17.63429,10.1025614 C14.6559874,8.50491911 11.6776847,6.90720648 8.70004717,5.30815659 C8.64883473,5.2803556 8.61125677,5.28383952 8.56303726,5.31097188 C8.37747531,5.41513764 8.18958551,5.51472854 8.00236081,5.61607901 C5.44439923,7.0039821 2.88610509,8.39195557 0.32781096,9.77985867 C0.243676238,9.82525523 0.160539161,9.87205944 0.0950271442,9.9456089 C-0.0323388578,10.0877811 -0.0313412128,10.2574023 0.0960247892,10.3992578 C0.164197192,10.4752706 0.249662108,10.5234473 0.336124668,10.5698996 C2.91237641,11.9522425 5.48729796,13.3377174 8.06621009,14.7143945 C8.53809614,14.9663278 9.03326057,14.9653073 9.50581172,14.7101716 C11.9237705,13.4045454 14.3380712,12.0915994 16.7536688,10.7810464 C17.1025453,10.5917181 17.4513884,10.401686 17.8171916,10.2028913 C17.7456604,10.1637939 17.6904907,10.132509 17.63429,10.1025614"/>
      <path fill="#FFF" d="M18.7719012 5.93024785C18.2424178 5.92060548 17.7176565 5.8395603 17.2258176 5.59213144 17.021899 5.48954929 16.8350401 5.3601163 16.6901155 5.17233642 16.4609897 4.87528806 16.4597261 4.54065558 16.6900823 4.24385356 16.884224 3.99375018 17.1454074 3.84735507 17.4250805 3.73727721 17.9713244 3.522189 18.5380532 3.46869848 19.1155566 3.51634727 19.5349 3.55094016 19.9405757 3.6452172 20.3215431 3.83992974 20.5146871 3.93864087 20.6932323 4.06047257 20.8337672 4.23554846 21.0922238 4.55747694 21.0847414 4.91945293 20.8120186 5.23071851 20.6113256 5.4597424 20.3564274 5.59779721 20.0837378 5.70305389 19.6631307 5.86542578 19.2259627 5.92349115 18.7719012 5.93024785M12.0392578 11.4194591C11.4973371 11.4143073 10.9708799 11.3283706 10.4769791 11.0783728 10.2885905 10.9830048 10.1150336 10.8634605 9.9765272 10.6946486 9.70726283 10.3665265 9.71434611 9.99490816 9.99794331 9.67952523 10.2113063 9.44219623 10.4788414 9.29548439 10.7691228 9.19927184 11.6871557 8.89507968 12.5985376 8.90883942 13.4963183 9.29045206 13.7053581 9.37927448 13.8953762 9.50508278 14.0545671 9.67769529 14.3593476 10.0082808 14.3612099 10.4154422 14.0550992 10.7446201 13.8071512 11.0112985 13.4933253 11.1540689 13.1614754 11.2580939 12.7955725 11.3727818 12.4204912 11.4203954 12.0392578 11.4194591M5.42401402 8.94046217C5.95629084 8.9510547 6.48933252 9.03312042 6.98762291 9.28966378 7.16294238 9.37992904 7.32432807 9.49250547 7.45761343 9.64516461 7.74347196 9.97251252 7.74087808 10.3663013 7.45006458 10.6887577 7.24208887 10.91933 6.98246841 11.0630857 6.70036768 11.1573276 5.77126096 11.467643 4.84920427 11.4545519 3.94028323 11.0657955 3.7597095 10.9885509 3.59596271 10.8791065 3.45083863 10.7402071 3.07971472 10.3849878 3.07811849 9.92310417 3.44814499 9.56689953 3.71315274 9.311799 4.03509275 9.1756797 4.37449156 9.07869294 4.7131255 8.98191732 5.05934154 8.94567046 5.42401402 8.94046217"/>
    </g>
    <polyline fill="#F5002E" stroke="#404042" stroke-linecap="round" stroke-linejoin="round" stroke-width="2.004" points="68.845 105.693 80.665 70.615 69.291 70.615 54.903 105.693"/>
    <polyline fill="#F5002E" stroke="#404042" stroke-linejoin="round" stroke-width="2.004" points="55.075 105.693 55.075 127.932 68.814 127.932 68.814 105.693"/>
    <path stroke="#FFF" stroke-linecap="round" stroke-linejoin="round" stroke-width="2.004" d="M65.265,89.9878049 L61.9394447,98.720245 M60.4170484,102.524282 L58.9675,106.036585 L58.9675,114.634146"/>
    <g transform="rotate(-2 1352.96 -1155.504)">
      <path fill="#F5002E" d="M25.2096473,24.5872449 C25.2096473,23.7776324 24.9416079,21.6687393 25.7821473,20.001879 C26.4109214,18.7549672 28.0845209,17.9285918 28.6446473,17.1360253 C29.0053116,16.6256935 30.1503116,15.670409 32.0796473,14.2701717 C27.1179807,2.42464323 20.438814,-1.96966571 12.0421473,1.08724486 C-0.552852653,5.67261071 1.73714735,13.1238302 2.88214735,24.0140741"/>
      <path fill="#F5002E" d="M63.2068478,24.5872449 C62.0618478,20.001879 64.8928441,15.7826602 66.6418478,14.6375888 C61.2985144,2.79206037 55.7643478,-2.17541931 47.7493478,0.881491261 C39.7343478,3.93840183 35.7268478,16.9302717 40.3068478,23.8083205" transform="matrix(-1 0 0 1 105.019 0)"/>
      <path stroke="#404042" stroke-linecap="round" stroke-linejoin="round" stroke-width="2.004" d="M29.7896473,15.9896839 C24.446314,4.14415543 17.7671473,-0.250153517 9.75214735,2.80675705 C1.73714735,5.86366762 -2.27035265,18.8555375 2.30964735,25.7335863"/>
      <path stroke="#404042" stroke-linecap="round" stroke-linejoin="round" stroke-width="2.004" d="M64.9243478,15.7839303 C59.5810144,3.93840183 52.9018478,-0.455907113 44.8868478,2.60100346 C36.8718478,5.65791402 32.8643478,18.6497839 37.4443478,25.5278327" transform="matrix(-1 0 0 1 100.439 0)"/>
      <path fill="#F5002E" d="M32.6521473,17.7091961 C36.4463436,17.7091961 39.5221473,20.7849998 39.5221473,24.5791961 L39.5221473,26.8799278 L39.5221473,26.8799278 C35.9599251,28.4083831 33.2882585,29.1726107 31.5071473,29.1726107 C29.7260362,29.1726107 27.8177029,28.4083831 25.7821473,26.8799278 L25.7821473,24.5791961 C25.7821473,20.7849998 28.8579511,17.7091961 32.6521473,17.7091961 Z"/>
      <path stroke="#404042" stroke-linecap="round" stroke-linejoin="round" stroke-width="2.004" d="M24.6371473,25.7335863 C24.2554807,19.6197652 26.9271473,16.3717977 32.6521473,15.9896839 C38.3771473,15.6075701 40.6671473,19.0465945 39.5221473,26.3067571"/>
      <path fill="#FFF" fill-rule="nonzero" stroke="#404042" stroke-linejoin="round" stroke-width="2.004" d="M19.9811448,17.2980479 C22.6977848,19.1248541 22.7464413,25.8658462 15.8359071,29.0619932 C9.08410203,32.1848388 3.1150135,33.0537881 3.1150135,33.0537881 C3.1150135,33.0537881 10.8985602,11.1904588 19.9811448,17.2980479 Z" transform="scale(-1 1) rotate(34 0 -15.926)"/>
      <path fill="#FFF" fill-rule="nonzero" stroke="#404042" stroke-linejoin="round" stroke-width="2.004" d="M60.6212024,17.2980479 C63.3378424,19.1248541 63.3864989,25.8658462 56.4759647,29.0619932 C49.7241596,32.1848388 43.7550711,33.0537881 43.7550711,33.0537881 C43.7550711,33.0537881 51.5386178,11.1904588 60.6212024,17.2980479 Z" transform="rotate(34 53.041 24.637)"/>
    </g>
    <path stroke="#404042" stroke-linecap="round" stroke-linejoin="round" stroke-width="2.004" d="M67.555,72.7926829 C69.4346579,73.5569106 70.4175,74.5121951 73.8525,74.5121951 C77.2875,74.5121951 78.2703421,73.5569106 80.15,72.7926829"/>
  </g>
</svg>
