<svg xmlns="http://www.w3.org/2000/svg" viewBox="0 0 230 189">
  <g fill="none" fill-rule="evenodd" transform="translate(1 1)">
    <g fill-rule="nonzero" stroke="#000" stroke-linecap="round" stroke-linejoin="round" stroke-width=".55" transform="translate(-.573)">
      <path fill="#C4C4C4" d="M173.731417,19.2084562 C174.212154,20.0076026 174.125248,21.0021515 173.512249,21.7166019 C171.116489,24.5868052 167.617561,26.4546951 163.77117,26.9168406 C162.804589,27.0457091 161.85261,26.6050183 161.370888,25.8056997 L159.464393,22.638824 C159.096214,22.0277883 159.054295,21.2894371 159.351194,20.6449401 C159.648093,20.0004431 160.249328,19.5246523 160.974802,19.3600884 C163.676243,18.7625033 166.138778,17.4476933 168.070025,15.5717692 C168.592755,15.0709039 169.33495,14.830119 170.074485,14.9214774 C170.81402,15.0128358 171.465091,15.4257379 171.832844,16.0366089 L173.731417,19.2084562 Z"/>
      <path fill="#F5002E" d="M83.8731789 14.848524C82.9551611 15.0557921 82.0094172 14.6542821 81.4889717 13.836323 79.3833622 10.6163338 78.570907 6.65976109 79.226641 2.81900654 79.3802491 1.84935495 80.0853305 1.07683692 81.0040052.871648707L84.6399846.0533864786C85.3415562-.104349085 86.0731967.0918847059 86.6157317.583302967 87.1582668 1.07472123 87.4486814 1.80424607 87.3999773 2.55333699 87.2033818 5.33397876 87.7744812 8.11517386 89.0453088 10.5659308 89.3792107 11.227156 89.3981995 12.0137588 89.0966276 12.6917786 88.7950556 13.3697984 88.2076627 13.8611296 87.5091583 14.019635L83.8731789 14.848524zM165.167049 173.044145C164.249882 173.250237 163.305512 172.848855 162.785464 172.03191 160.677116 168.813078 159.864441 164.855162 160.523213 161.014223 160.676816 160.044539 161.381872 159.271995 162.300515 159.0668L165.933827 158.24851C166.635374 158.090769 167.366989 158.28701 167.909505 158.778445 168.452021 159.269879 168.742425 159.999429 168.693723 160.748545 168.499573 163.529103 169.070506 166.309682 170.338997 168.761408 170.672942 169.420789 170.693536 170.205507 170.394677 170.883072 170.095819 171.560637 169.51178 172.053347 168.815595 172.215228L165.167049 173.044145z"/>
      <path fill="#017AFF" d="M45.8653608 41.7517234C45.1048845 41.1556147 44.07317 41.10657 43.2641188 41.6280681 40.02328 43.6524605 37.6736476 46.9285118 36.7224577 50.7489918 36.4712964 51.7070203 36.8056287 52.7282532 37.565548 53.3242482L40.5754832 55.68714C41.1567422 56.1428622 41.9089363 56.2865648 42.6067179 56.0751962 43.3044994 55.8638275 43.8668149 55.3219401 44.1252019 54.6118763 45.0717113 51.9685323 46.7239471 49.6649335 48.8855776 47.9748116 49.4660827 47.5177291 49.8075 46.8019567 49.8075 46.0420253 49.8075 45.2820939 49.4660827 44.5663214 48.8855776 44.1092389L45.8653608 41.7517234zM203.60039 156.996165C204.341126 156.378895 205.362741 156.30389 206.17678 156.807011 209.435737 158.757777 211.839882 161.987816 212.870292 165.799939 213.14457 166.753959 212.841225 167.788673 212.105028 168.410266L209.168964 170.858461C208.602681 171.329723 207.86047 171.492207 207.164234 171.297336 206.467997 171.102465 205.898419 170.57282 205.625789 169.866753 204.625804 167.235904 202.936095 164.963078 200.756157 163.316616 200.1715 162.870341 199.818578 162.159159 199.803035 161.395961 199.787493 160.632763 200.111135 159.90612 200.67708 159.433552L203.60039 156.996165z"/>
      <path fill="#C4C4C4" d="M59.5292435,88.71247 C59.6229266,89.7120551 59.0982435,90.6674974 58.206278,91.121576 C54.6860051,92.9714991 50.5821002,93.3568585 46.7811592,92.1944023 C45.8205273,91.9155228 45.1274103,91.0753643 45.033438,90.0759099 L44.6654966,86.1159588 C44.5946841,85.3522757 44.885025,84.5995047 45.449666,84.0828316 C46.014307,83.5661584 46.7877722,83.3454966 47.5386854,83.4868554 C50.3266632,84.0275578 53.2105405,83.7561385 55.8498303,82.7046429 C56.5617744,82.4249869 57.3632171,82.4972481 58.0141296,82.8997845 C58.6650421,83.302321 59.0898416,83.9883908 59.1613021,84.7525188 L59.5292435,88.71247 Z"/>
      <path fill="#F5002E" d="M211.814368 62.9134389C211.907552 63.9131363 211.381792 64.8682622 210.488932 65.3213038 206.972034 67.1746388 202.869677 67.5646893 199.068537 66.4071504 198.107222 66.1280505 197.414024 65.2870012 197.321124 64.2870349L196.950543 60.3264093C196.879526 59.562551 197.170155 58.8095751 197.735369 58.2930388 198.300583 57.7765025 199.074737 57.5563987 199.825929 57.6986604 202.612402 58.2414651 205.495576 57.9701156 208.1329 56.9168509 208.847074 56.6318154 209.65343 56.7019712 210.30807 57.106098 210.962709 57.5102248 211.388744 58.200858 211.457312 58.969101L211.814368 62.9134389zM.794123156 112.61424C.0871516021 111.961022-.179078434 110.906144.122826671 109.954376 1.27140399 106.154921 3.75521882 102.997868 7.03692905 101.166204 7.85706162 100.692701 8.86117883 100.810393 9.56874762 101.462955L12.3721019 104.04659C12.9129089 104.545472 13.2059408 105.290422 13.1634398 106.05834 13.1209388 106.826258 12.7478396 107.52798 12.155879 107.953351 9.9506223 109.521939 8.20582622 111.740951 7.12744093 114.348461 6.83312167 115.046008 6.25416662 115.554102 5.56299271 115.721429 4.8718188 115.888756 4.14816268 115.696012 3.60753427 115.200598L.794123156 112.61424z"/>
      <path fill="#017AFF" d="M192.143899,91.708118 C191.831727,92.6778518 190.988041,93.3477864 190.016859,93.3971092 C186.163082,93.6488902 182.370048,92.2932037 179.457906,89.6231829 C178.715907,88.9619898 178.433318,87.8902082 178.745387,86.9207969 L179.98375,83.0804185 C180.222718,82.3398676 180.777979,81.7604351 181.483341,81.5155502 C182.188703,81.2706652 182.962318,81.3887428 183.572637,81.8344414 C185.8314,83.5027857 188.496217,84.4558408 191.252593,84.5811287 C191.994462,84.6187796 192.6765,85.0210645 193.094555,85.6675685 C193.512609,86.3140724 193.618167,87.1297731 193.379633,87.8705084 L192.143899,91.708118 Z"/>
    </g>
    <g transform="translate(53.815 54.423)">
      <path fill="#FFF" stroke="#2F383F" stroke-width="1.65" d="M50.1746156,68.2 C50.7693,68.2 51.2437594,68.4222 51.3811594,68.7203 C52.400925,70.9335 56.6667656,72.6 61.83,72.6 C66.9932344,72.6 71.259075,70.9335 72.2788406,68.7203 C72.4162406,68.4222 77.7367862,68.7203 78.3314706,68.7203 L101.577244,68.2 C108.934584,65.9175 113.355,61.4911 113.355,58.3 C113.355,51.0103 90.2868281,45.1 61.83,45.1 C45.002972,45.1 30.0601237,47.166576 20.6568403,50.3629272 C18.9440778,50.9451271 17.4151005,51.5648094 16.0919982,52.216313 C12.394674,54.0368979 10.305,56.1059712 10.305,58.3 C10.305,61.4911 14.7254156,65.9175 22.0827563,68.2 L50.1746156,68.2 Z"/>
      <path fill="#FFF" stroke="#241F1F" stroke-width="1.1" d="M35.495,61.05 C35.495,61.9608 32.6758192,62.7 29.1975,62.7 C25.7191808,62.7 22.9,61.9608 22.9,61.05 C22.9,60.138375 25.7191808,59.4 29.1975,59.4 C32.6758192,59.4 35.495,60.138375 35.495,61.05 L35.495,61.05 Z"/>
      <path stroke="#241F1F" stroke-width="1.1" d="M34.9225,53.9 C31.4441808,53.9 28.625,53.1608 28.625,52.25 C28.625,51.338375 31.4441808,50.6 34.9225,50.6 C38.4008192,50.6 41.22,51.338375 41.22,52.25 C41.22,53.1608 38.4008192,53.9 34.9225,53.9 Z"/>
      <path fill="#FFF" stroke="#2F383F" stroke-width="1.1" d="M64.12,48.95 C64.12,49.861625 61.3008192,50.6 57.8225,50.6 C54.3441808,50.6 51.525,49.861625 51.525,48.95 C51.525,48.0392 54.3441808,47.3 57.8225,47.3 C61.3008192,47.3 64.12,48.0392 64.12,48.95 L64.12,48.95 Z"/>
      <path stroke="#241F1F" stroke-width="1.1" d="M84.73,52.25 C84.73,53.1608 81.9108192,53.9 78.4325,53.9 C74.9541808,53.9 72.135,53.1608 72.135,52.25 C72.135,51.338375 74.9541808,50.6 78.4325,50.6 C81.9108192,50.6 84.73,51.338375 84.73,52.25 L84.73,52.25 Z"/>
      <path fill="#FFF" stroke="#241F1F" stroke-width="1.1" d="M104.195,55.55 C104.195,56.4608 101.375819,57.2 97.8975,57.2 C94.4191808,57.2 91.6,56.4608 91.6,55.55 C91.6,54.638375 94.4191808,53.9 97.8975,53.9 C101.375819,53.9 104.195,54.638375 104.195,55.55 L104.195,55.55 Z"/>
      <path fill="#F5002E" d="M36.64 61.05C36.64 61.9608 33.8208192 62.7 30.3425 62.7 26.8641808 62.7 24.045 61.9608 24.045 61.05 24.045 60.138375 26.8641808 59.4 30.3425 59.4 33.8208192 59.4 36.64 60.138375 36.64 61.05L36.64 61.05zM64.12 51.15C64.12 52.061625 61.3008192 52.8 57.8225 52.8 54.3441808 52.8 51.525 52.061625 51.525 51.15 51.525 50.2392 54.3441808 49.5 57.8225 49.5 61.3008192 49.5 64.12 50.2392 64.12 51.15L64.12 51.15zM104.195 54.45C104.195 55.3608 101.375819 56.1 97.8975 56.1 94.4191808 56.1 91.6 55.3608 91.6 54.45 91.6 53.538375 94.4191808 52.8 97.8975 52.8 101.375819 52.8 104.195 53.538375 104.195 54.45L104.195 54.45z" style="mix-blend-mode:multiply"/>
      <path stroke="#241F1F" stroke-width="1.1" d="M90.455 62.15C90.455 63.0608 87.6358192 63.8 84.1575 63.8 80.6791808 63.8 77.86 63.0608 77.86 62.15 77.86 61.238375 80.6791808 60.5 84.1575 60.5 87.6358192 60.5 90.455 61.238375 90.455 62.15L90.455 62.15zM67.555 63.25C67.555 64.1608 64.7358192 64.9 61.2575 64.9 57.7791808 64.9 54.96 64.1608 54.96 63.25 54.96 62.338375 57.7791808 61.6 61.2575 61.6 64.7358192 61.6 67.555 62.338375 67.555 63.25L67.555 63.25z"/>
      <path stroke="#000" stroke-linecap="round" stroke-width="1.65" d="M50.38 59.4C50.2416636 59.7850627 49.6031877 60.0309008 48.9498141 59.9493729 48.2964405 59.8690992 47.6558364 60.1149373 47.5175 60.5 47.3812918 60.8850627 46.7406877 61.1309008 46.0873141 61.0493729 45.4339405 60.9690992 44.7933364 61.2149373 44.655 61.6M72.135 58.2655691C71.527895 58.3932785 70.8884111 58.1547005 70.7042559 57.732277 70.5201007 57.311257 69.8806168 57.0726789 69.2735118 57.2003883 68.6643832 57.3266944 68.0248993 57.0881163 67.8427678 56.6670963 67.6586126 56.2460762 67.0191287 56.0074982 66.41 56.1338042M56.105 56.0655691C55.497895 56.1932785 54.8563874 55.9547005 54.6742559 55.532277 54.4901007 55.111257 53.8506168 54.8726789 53.2435118 55.0003883 52.6343832 55.1266944 51.9948993 54.8881163 51.8107441 54.4670963 51.6286126 54.0460762 50.987105 53.8074982 50.38 53.9338042"/>
      <polyline stroke="#404042" stroke-linecap="round" stroke-linejoin="round" stroke-width="2.2" points="1.145 64.9 17.175 42.458 14.515 36.3"/>
      <line x1="10.305" x2="2.29" y1="30.8" y2="9.9" stroke="#404042" stroke-linecap="round" stroke-linejoin="round" stroke-width="2.2"/>
      <line x1="116.79" x2="114.5" y1="11" y2="16.5" stroke="#404042" stroke-linecap="round" stroke-linejoin="round" stroke-width="2.2"/>
      <polyline stroke="#404042" stroke-linecap="round" stroke-linejoin="round" stroke-width="2.2" points="113.286 20.9 105.34 41.821 114.762 53.938 117.96 58.05 121.728 62.896 122.515 63.8"/>
      <path fill="#FFF" stroke="#2F383F" stroke-linecap="round" stroke-linejoin="round" stroke-width="2.2" d="M3.435,10.0648442 L3.435,0 L116.79,0 L116.79,10.0648442 L73.2649744,10.1861789 C73.2649744,14.8882324 67.935086,18.7 61.3603355,18.7 C54.785585,18.7 49.4556966,14.8882324 49.4556966,10.1861789 L6.42172549,10.1861789 C6.40672455,10.1861789 6.39172518,10.185872 6.37673679,10.1852585"/>
      <path fill="#F5002E" d="M2.29,9.93704195 L2.29,0 L112.21,0 L112.160867,10.0298964 L73.0143198,10.0298964 C70.6747608,13.7968986 68.3051221,17.6641118 60.2470561,18.5783368 C52.1889902,19.4925619 48.8857828,15.0956659 48.8857828,10.7132278 L2.29,9.93704195 Z" style="mix-blend-mode:multiply"/>
      <path fill="#FFF" stroke="#2F383F" stroke-linecap="round" stroke-linejoin="round" stroke-width="2.2" d="M0.351544576,63.8 C-0.117181525,74.8 -0.117181525,80.3 0.351544576,80.3 L118.950786,80.3 C119.653875,80.3 120.225,79.4833732 120.225,78.4780562 L120.225,63.8 L74.2998044,63.8 C70.9686778,69.3 66.4647168,72.05 60.7879213,72.05 C55.8019454,72.05 51.2865832,69.3 47.2418349,63.8 L0.351544576,63.8 Z"/>
      <path fill="#017AFF" d="M2.29,78.0910813 L2.29,62.7 L2.29,62.7 L120.225,62.7 L120.225,78.8489362 L73.9877855,78.8489362 C58.7967287,63.2007188 52.5639844,73.9492739 45.7638824,78.8489362 L3.39888252,79.1910455 C2.7913891,79.1959511 2.29494154,78.7074573 2.29003586,78.0999638 C2.29001195,78.0970031 2.29,78.0940422 2.29,78.0910813 Z" style="mix-blend-mode:multiply" transform="matrix(1 0 0 -1 0 141.9)"/>
      <path stroke="#404042" stroke-linecap="round" stroke-linejoin="round" stroke-width="1.65" d="M106.485,42.4445214 L17.175,42.4445214 C17.175,42.3233401 24.034008,42.2603258 37.752024,42.2554786 L41.324424,42.2554786 C56.185608,42.2603258 77.9058,42.3233401 106.485,42.4445214 Z"/>
      <path stroke="#D1D1D1" stroke-linecap="round" stroke-linejoin="round" stroke-width="4.4" d="M97.325,37.4 L22.3962928,37.4 C21.0260519,37.4 19.7983699,36.553234 19.3115687,35.2723809 L12.595,17.6 L12.595,17.6"/>
    </g>
  </g>
</svg>
