<?xml version="1.0" encoding="UTF-8"?>
<svg width="31px" height="30px" viewBox="0 0 31 30" version="1.1" xmlns="http://www.w3.org/2000/svg" xmlns:xlink="http://www.w3.org/1999/xlink">
    <title>Cart Copy</title>
    <g id="Page-1" stroke="none" stroke-width="1" fill="none" fill-rule="evenodd" stroke-linecap="round" stroke-linejoin="round">
        <g id="main-tracker-delivery-done" transform="translate(-401.000000, -86.000000)" stroke="#FFFFFF" stroke-width="1.35">
            <g id="tools-and-textes" transform="translate(92.000000, 63.000000)">
                <g id="Cart-Copy" transform="translate(309.630682, 23.000000)">
                    <g id="Group" transform="translate(1.474432, 2.000000)">
                        <polyline id="Path-23" points="-7.3708706e-14 10 13.3158384 3.91700561e-13 26.5397727 10"></polyline>
                        <line x1="24.1308002" y1="9.45799506" x2="24.1308002" y2="24.6100606" id="Path"></line>
                        <polyline id="Path" points="24.1308002 12.7369765 13.1429037 4.82612092 2.07155503 12.7369765 2.07155503 24.6100606 2.07155503 10.7674675"></polyline>
                        <line x1="26.0547685" y1="24.8261209" x2="0" y2="24.8261209" id="Path"></line>
                        <path d="M9.82954545,24.6100606 C9.82954545,21.5534874 9.82954545,18.4969141 9.82954545,15.4403409 C9.82954545,13.5402931 11.3698385,12 13.2698864,12 C15.1990977,12 16.7859625,13.5196314 16.8694502,15.4470354 C17.0428458,19.4510037 17.1295436,22.5053454 17.1295436,24.6100606" id="Path"></path>
                        <polyline id="Path-33" points="20.4140532 4.51399747 20.4140532 0 19.6590909 0 24.5738636 0 23.8016127 0 23.8001424 7"></polyline>
                    </g>
                </g>
            </g>
        </g>
    </g>
</svg>