<?xml version="1.0" encoding="UTF-8"?>
<svg width="46px" height="31px" viewBox="0 0 46 31" version="1.1" xmlns="http://www.w3.org/2000/svg" xmlns:xlink="http://www.w3.org/1999/xlink">
    <title>illustrated icons/motorcycle</title>
    <g id="Page-1" stroke="none" stroke-width="1" fill="none" fill-rule="evenodd">
        <g id="טרקר-בדרך/2" transform="translate(-452.000000, -300.000000)">
            <g id="tracker/pin/1-copy-3" transform="translate(453.000000, 301.000000)">
                <g id="Group-2" transform="translate(0.151385, 0.000000)">
                    <g id="Group" transform="translate(21.848615, 14.517280) scale(-1, 1) translate(-21.848615, -14.517280) ">
                        <g id="Group-4" transform="translate(0.000000, 3.330560)" fill="#FFFFFF" stroke="#FFFFFF" stroke-width="0.5">
                            <path d="M38.8237373,20.2680463 C38.8237373,22.8504588 36.6503867,24.9513295 33.9788809,24.9513295 C31.3073752,24.9513295 29.1340246,22.8504588 29.1340246,20.2680463 C29.1340246,20.2606868 29.1322078,20.2539128 29.1318617,20.2467206 L30.7350766,20.2437099 C30.7448528,21.9649001 32.1960603,23.3623584 33.9788809,23.3623584 C35.7660273,23.3623584 37.2201764,21.9582934 37.2230314,20.2314163 L38.82789,20.228322 C38.8264193,20.2416192 38.8237373,20.2544982 38.8237373,20.2680463 L38.8237373,20.2680463 Z M4.87470413,19.5153758 C5.07689037,18.8580435 5.54926386,17.5796745 6.46208671,16.31201 C8.19221952,13.9094858 10.599248,12.7082236 13.6217462,12.7413411 C15.6219798,12.7633358 17.0132322,13.3151269 17.7568311,14.3814938 C18.9532511,16.0972481 18.2067106,18.7169596 17.9356582,19.5152085 L17.8501811,19.5153758 L4.87470413,19.5153758 Z M9.10685919,20.2680463 L14.0359814,20.2680463 C14.0127953,21.5629741 12.9164736,22.6096879 11.5714203,22.6096879 C10.2263671,22.6096879 9.13004528,21.5629741 9.10685919,20.2680463 L9.10685919,20.2680463 Z M11.5714203,24.9513295 C8.89991461,24.9513295 6.72656396,22.8504588 6.72656396,20.2680463 L8.32822156,20.2680463 C8.35149417,21.9780301 9.79699167,23.3623584 11.5714203,23.3623584 C13.3458489,23.3623584 14.7913464,21.9780301 14.8146191,20.2680463 L16.4162767,20.2680463 C16.4162767,22.8504588 14.242926,24.9513295 11.5714203,24.9513295 L11.5714203,24.9513295 Z M3.38248837,11.4032602 L12.8042632,11.4032602 L12.8042632,12.0104144 C9.8475166,12.1971603 7.85645367,13.5551452 6.56979825,14.9627227 L3.38248837,11.4032602 Z M2.46568582,3.35947041 C2.96911831,2.87132176 5.29724482,0.783999162 8.30970728,0.753056041 C8.33246081,0.75288878 8.35486827,0.75272152 8.37753527,0.75272152 C10.3562265,0.75272152 12.2522091,1.643298 14.0154773,3.40061639 L14.0154773,10.6505897 L2.46568582,10.6505897 L2.46568582,3.35947041 Z M21.7369671,7.63990763 C22.5836923,7.63990763 23.2726136,8.30585377 23.2726136,9.12434114 L23.2726136,9.16615617 C23.2726136,9.46162117 23.0994965,9.57861962 22.6413115,9.81437275 C22.5618039,9.85535147 22.4822098,9.8963302 22.4052112,9.93939968 C22.0929776,10.1136847 21.8100725,10.3565464 21.5700791,10.6505897 L14.7941149,10.6505897 L14.7941149,7.63990763 L21.7369671,7.63990763 Z M23.8187846,17.3297878 C24.3146903,17.4790675 24.8618995,17.5524947 25.4331599,17.5524947 C26.4202129,17.5524111 27.4782949,17.3332167 28.4636176,16.9077069 C30.8066247,15.8960341 31.5477147,13.3423903 30.6663834,9.31769384 C30.3104595,7.69226004 29.7847926,6.08982452 29.1029656,4.54559551 L31.1504365,4.54559551 C36.0488458,11.8312788 35.506741,12.3283759 34.2090116,13.5131629 C33.2748195,14.3659386 32.1848999,15.6584411 31.2231093,16.7989042 C30.5635168,17.5810125 29.9938136,18.2565761 29.6157417,18.6220395 C28.8191089,19.3920214 27.6573816,19.4899522 27.5568508,19.4969771 L18.7546985,19.5136195 C19.0992024,18.4184003 19.6990994,15.8231924 18.404225,13.9630926 C17.5093974,12.6779495 15.9033275,12.013676 13.6305708,11.9886706 C13.6144789,11.9885033 13.5988197,11.9885033 13.5829008,11.9884197 L13.5829008,11.4032602 L21.1046269,11.4032602 C21.0943315,11.4257567 21.0837767,11.4480023 21.0739139,11.4708333 C20.4799864,12.8443734 20.4875133,14.2144846 21.0945046,15.2297535 C21.6876534,16.221606 22.6805029,16.9870719 23.8187846,17.3297878 L23.8187846,17.3297878 Z M27.5795178,3.13994151 C27.5755381,3.12756426 27.5730292,3.11501975 27.5676652,3.10272613 C27.5530441,3.06935774 27.5326265,3.04025448 27.510046,3.01340923 C27.4287217,2.84313843 27.3820899,2.65438539 27.3820899,2.45484408 C27.3820899,1.71705971 28.0030967,1.11676316 28.7663346,1.11676316 L30.8859593,1.11676316 L30.8859593,3.79292499 L28.7663346,3.79292499 C28.2622965,3.79292499 27.8215876,3.53024298 27.5795178,3.13994151 L27.5795178,3.13994151 Z M36.4443937,20.232838 C36.4406736,21.5440737 35.3361328,22.6096879 33.9788809,22.6096879 C32.6249166,22.6096879 31.5225388,21.5490079 31.5136277,20.2422046 L36.4443937,20.232838 Z M38.7382602,17.3287843 C39.2145269,18.1765422 39.4282196,19.0015527 39.5194933,19.474397 L29.75581,19.4927956 C29.8968299,19.3935268 30.0349083,19.2812116 30.1663251,19.1542612 C30.5723413,18.7617017 31.1536376,18.0725064 31.82664,17.2744247 C32.6520824,16.2957022 33.5732973,15.2032427 34.3906937,14.3964636 C36.3463719,14.690925 37.8095185,15.6755017 38.7382602,17.3287843 L38.7382602,17.3287843 Z M40.392,20.2253949 L40.358086,19.8197055 C40.3535007,19.7635061 40.2342826,18.4283523 39.4369577,16.9954349 C38.7609272,15.7807083 37.4656202,14.2905879 35.06534,13.7541011 C35.7065048,13.1089789 36.1030909,12.420369 35.7617016,11.1419999 C35.4051721,9.80659515 34.225017,7.72696652 31.6880425,3.9637812 C31.6810348,3.9534947 31.6723833,3.9451317 31.6645969,3.9356815 L31.6645969,0.364092644 L28.7663346,0.364092644 C27.5737213,0.364092644 26.6034523,1.30200374 26.6034523,2.45484408 C26.6034523,2.66216299 26.6352899,2.86228972 26.6936878,3.0514609 L24.8080004,3.82261366 C24.6099669,3.90365119 24.5173956,4.12451817 24.6010559,4.31586374 C24.6639525,4.45945655 24.808087,4.54567914 24.9598348,4.54567914 C25.0104462,4.54567914 25.0619228,4.53614531 25.1113231,4.51590684 L27.0487465,3.72351205 C27.3379671,4.08855725 27.7483957,4.35918411 28.2217208,4.47835694 C28.964022,6.08890459 29.5311298,7.76811251 29.9046163,9.47349663 C30.7107658,13.1544736 30.1355256,15.3614708 28.1461065,16.2206024 C26.7793379,16.8106961 25.209864,16.9603103 24.0502995,16.6111548 C23.0966415,16.3240528 22.2650565,15.6831956 21.7686317,14.8530837 C21.2843191,14.043043 21.2928841,12.9160443 21.7924234,11.7610296 C22.0166711,11.2422723 22.3726815,10.8267982 22.7947031,10.5911287 C22.8640018,10.552408 22.9356365,10.5156108 23.0072712,10.4787299 C23.447807,10.2520088 24.0512512,9.94149043 24.0512512,9.16615617 L24.0512512,9.12434114 C24.0512512,7.8907978 23.0130677,6.88723711 21.7369671,6.88723711 L14.7941149,6.88723711 L14.7941149,3.0992973 L14.6873551,2.99041096 C12.7186131,0.983038698 10.5678429,-0.0249543823 8.30140182,0.000469155101 C4.57094894,0.0387717213 1.90004884,2.83544447 1.78818457,2.95445004 L1.68704819,3.06208192 L1.68704819,10.6505897 L0.389318814,10.6505897 C0.174328313,10.6505897 0,10.8191043 0,11.0269249 C0,11.2347456 0.174328313,11.4032602 0.389318814,11.4032602 L2.35261034,11.4032602 L6.0693938,15.5539036 C5.98322457,15.664128 5.90103504,15.7736834 5.82308476,15.8819843 C4.43114023,17.8148422 4.00539848,19.7339847 3.98792239,19.8147714 L3.89007359,20.2680463 L5.94792633,20.2680463 C5.94792633,23.2654312 8.47062573,25.704 11.5714203,25.704 C14.6722149,25.704 17.1949143,23.2654312 17.1949143,20.2680463 L17.8509598,20.2680463 L17.8517384,20.2680463 L18.4766383,20.2680463 L27.569309,20.2496477 L28.3573768,20.248226 C28.3571173,20.2549164 28.355387,20.2612722 28.355387,20.2680463 C28.355387,23.2654312 30.8780864,25.704 33.9788809,25.704 C37.0796755,25.704 39.6023749,23.2654312 39.6023749,20.2680463 C39.6023749,20.2539964 39.599693,20.2406156 39.5980492,20.2269003 L40.392,20.2253949 Z" id="Fill-6"></path>
                        </g>
                        <g id="Group-3" transform="translate(7.017187, 9.600651) rotate(-90.000000) translate(-7.017187, -9.600651) translate(3.144971, 5.860270)">
                            <path d="M7.6069259,2.16495593 L5.50313905,0.133064286 C5.4143954,0.0471269346 5.29637669,0 5.1706661,0 C5.04529992,0 4.9270516,0.0471269346 4.83830796,0.133064286 L3.0739971,1.83717424 L0.13742062,4.67343949 C-0.0458068735,4.85052588 -0.0458068735,5.13861006 0.13742062,5.31547467 L2.24132228,7.34780987 C2.33006592,7.43352544 2.44808464,7.48076327 2.57368042,7.48076327 C2.69916141,7.48076327 2.81740973,7.43352544 2.90615337,7.34780987 L5.53826913,4.80539491 L7.6069259,2.807102 C7.7902682,2.6301265 7.7902682,2.34204232 7.6069259,2.16495593" id="Fill-10" fill="#FFFFFF"></path>
                            <path d="M5.56437322,2.89600262 C5.45127164,3.00504042 5.30286668,3.05955931 5.15522444,3.05955931 C5.0075822,3.05955931 4.85939515,3.00504042 4.74629357,2.89600262 C4.63351887,2.78707008 4.57675016,2.64372117 4.5766412,2.50100375 C4.57675016,2.35807583 4.63351887,2.21472692 4.74629357,2.10600488 C4.85939515,1.99707233 5.00736428,1.94213244 5.15522444,1.94213244 C5.30286668,1.94213244 5.45127164,1.99665134 5.56437322,2.10611013 C5.67693,2.21472692 5.73391664,2.35807583 5.73391664,2.50100375 C5.73391664,2.64372117 5.67693,2.78707008 5.56437322,2.89600262 M7.32017178,2.3383943 L5.32356928,0.409814671 C5.22735666,0.316774702 5.07121546,0.316774702 4.97500284,0.409814671 L2.81615732,2.49510982 L5.16143522,4.76048571 L7.32017178,2.67508532 C7.41649336,2.58225585 7.41649336,2.43143427 7.32017178,2.3383943" id="Fill-12" fill="#F5002E"></path>
                            <path d="M3.03314529,4.59295034 C3.14605315,4.48357337 3.29427195,4.42914806 3.44216381,4.42914806 C3.59005566,4.42914806 3.73849243,4.48357337 3.85107334,4.59295034 C3.96452611,4.7020115 4.02108903,4.84475951 4.02108903,4.98813915 C4.02108903,5.13067661 3.96452611,5.27395098 3.85107334,5.38290687 C3.73849243,5.4913364 3.59005566,5.54639334 3.44216381,5.54639334 C3.29427195,5.54639334 3.14605315,5.49154694 3.03325428,5.38290687 C2.92023744,5.27374043 2.86367452,5.13057134 2.86367452,4.98813915 C2.86367452,4.84507533 2.92023744,4.7020115 3.03314529,4.59295034 L3.03314529,4.59295034 Z M2.15375004,5.36058933 C2.04051523,5.46901887 1.89218744,5.52375999 1.74451355,5.52375999 C1.59618576,5.52354945 1.44829391,5.46912414 1.33527707,5.36058933 C1.22215124,5.25163344 1.16613325,5.10835908 1.16613325,4.96561107 C1.16613325,4.82275779 1.2224782,4.67948343 1.33527707,4.57000118 C1.44829391,4.46125583 1.59618576,4.40661998 1.74451355,4.40661998 C1.89218744,4.40661998 2.0407332,4.46125583 2.15375004,4.57010645 C2.26665789,4.67948343 2.32278487,4.82275779 2.32256753,4.9655058 C2.32256753,5.10835908 2.26654891,5.25184399 2.15375004,5.36058933 L2.15375004,5.36058933 Z M0.424276333,4.80496693 C0.327934109,4.89802684 0.327934109,5.04877547 0.424276333,5.14183538 L2.42130678,7.07114418 C2.46947789,7.11746359 2.53247088,7.14072857 2.59557286,7.14072857 C2.65867484,7.14072857 2.7218858,7.11746359 2.77005691,7.07114418 L4.92827531,4.98613899 L2.58238575,2.72027755 L0.424276333,4.80496693 Z" id="Fill-14" fill="#017AFF"></path>
                        </g>
                        <line x1="43.6972291" y1="0" x2="36.3532291" y2="3.672" id="Path-2" stroke="#C32541" stroke-width="1.836" stroke-linecap="round" stroke-linejoin="round"></line>
                        <line x1="41.6152291" y1="8.262" x2="37.0252291" y2="7.344" id="Path-2-Copy" stroke="#C32541" stroke-width="1.836" stroke-linecap="round" stroke-linejoin="round"></line>
                    </g>
                </g>
            </g>
        </g>
    </g>
</svg>