<?xml version="1.0" encoding="UTF-8"?>
<svg width="31px" height="30px" viewBox="0 0 31 30" version="1.1" xmlns="http://www.w3.org/2000/svg" xmlns:xlink="http://www.w3.org/1999/xlink">
    <title>Cart Copy</title>
    <g id="Page-1" stroke="none" stroke-width="1" fill="none" fill-rule="evenodd" stroke-linecap="round" stroke-linejoin="round">
        <g id="main-tracker-delivery" transform="translate(-401.000000, -86.000000)" stroke="#FFFFFF" stroke-width="1.35">
            <g id="tools-and-textes" transform="translate(92.000000, 63.000000)">
                <g id="Cart-Copy" transform="translate(309.630682, 23.000000)">
                    <g id="Group" transform="translate(0.491477, 6.000000)">
                        <path d="M24.9089197,13.0437956 L27.1731647,8.34161132 C27.3984149,8.08150515 27.5227273,7.74644364 27.5227273,7.39942892 L27.5227273,3.25160395 C27.5227273,2.66077116 26.5397727,0 23.3277338,0 C20.1156949,0 19.2185475,2.62340358 19.2185199,3.17160391 L19.2185199,5.41970803 L14.339479,5.41970803 C13.5933719,5.41970652 12.9885326,6.03650572 12.9885326,6.79736609 C12.9885326,7.25437717 13.2107718,7.68164239 13.5818032,7.9379562 C13.5818032,7.9379562 13.5818032,7.9379562 13.5818032,7.9379562 C14.6005785,8.76909237 14.7526901,10.2687419 13.9215539,11.2875172 C13.169424,12.2094497 11.8521197,12.4345224 10.836524,11.8146643 L10.3210227,11.5 C8.82089628,10.5843159 7.98412269,8.88498671 8.17293737,7.13764422 L8.49001856,4.20328852 C8.55215105,3.62829751 8.89361584,3.12084577 9.40285803,2.84671533 C9.90394196,2.57697656 10.2164334,2.05386759 10.2164334,1.48479456 L10.2164334,1.3959854 C10.2164334,0.836645919 9.76299916,0.383211679 9.20365968,0.383211679 L6.81774311,0.383211679 L6.81774311,0.383211679 L6.81774311,2.68248175 L4.13515919,8.44910697 C3.61184692,9.37896919 3.6743396,10.5358414 4.29464133,11.4014599 C4.29464133,11.4014599 4.29464133,11.4014599 4.29464133,11.4014599 C2.91546846,11.1000958 1.52677533,11.8686762 1.0497609,13.197358 C0.654113752,14.2992874 0.304205212,15.2335057 0,16 L26.9488743,16" id="Path"></path>
                        <path d="M16.7102273,15 C16.9104932,12.9104814 17.6870779,11.6225293 19.0399814,11.1361437 C21.0693367,10.4065652 25.4809787,12.6925777 26.5397727,16" id="Path-3"></path>
                        <path d="M19.1676136,5 C19.1676136,7.09166667 20.0686553,8.1375 21.8707386,8.1375 C23.672822,8.1375 25.8844697,8.14583333 28.5056818,8.1625" id="Path-2"></path>
                        <path d="M1.96590909,16 C1.96590909,18.209139 3.72624405,20 5.89772727,20 C8.06921049,20 9.82954545,18.209139 9.82954545,16" id="Path"></path>
                        <path d="M17.6931818,16 C17.6931818,18.209139 19.4535168,20 21.625,20 C23.7964832,20 25.5568182,18.209139 25.5568182,16" id="Path-Copy"></path>
                        <path d="M4.71818182,11.5 C5.70113636,11.8611111 6.35643939,12.5277778 6.68409091,13.5" id="Path-4"></path>
                        <path d="M10.424043,1.39864405 C10.5699467,1.45112543 10.7085759,1.5103592 10.8399307,1.57634536" id="Path" transform="translate(10.631987, 1.487495) rotate(156.000000) translate(-10.631987, -1.487495) "></path>
                    </g>
                </g>
            </g>
        </g>
    </g>
</svg>