<?xml version="1.0" encoding="UTF-8"?>
<svg width="70px" height="69px" viewBox="0 0 70 69" version="1.1" xmlns="http://www.w3.org/2000/svg" xmlns:xlink="http://www.w3.org/1999/xlink">
    <title>Group 2</title>
    <g id="Page-1" stroke="none" stroke-width="1" fill="none" fill-rule="evenodd">
        <g id="אין-לך-הזמנה-עדיין" transform="translate(-161.000000, -196.000000)">
            <g id="Group-2" transform="translate(161.891249, 197.000000)">
                <g id="שעון-חול-">
                    <ellipse id="Oval" fill="#FFFFFF" cx="17.8368732" cy="19.7102501" rx="17.8368732" ry="17.9320376"></ellipse>
                    <path d="M27.3395204,40.5935819 C27.3395204,41.2282042 27.6038784,43.0994765 29.3908025,43.8239477 C31.4070261,44.6413836 36.3651614,44.2277434 38.8266999,46.246722 C40.356748,47.5016828 41.4112709,49.9267353 41.9902685,53.5218795 L41.9906424,53.5218204 C42.0604412,53.9636923 41.7588163,54.3784832 41.3169445,54.448282 C41.3158597,54.4484533 41.3147747,54.4486225 41.3136892,54.4487894 C33.3741202,55.689865 27.4853165,56.1863497 23.6472127,55.9378194 C19.8669668,55.6930355 15.5889307,55.0699292 10.8131045,54.0685006 L10.8131497,54.0682864 C10.4082194,53.9828349 10.1328265,53.6058804 10.1745198,53.1941375 C10.5645049,49.2495446 11.3631573,46.9337458 12.5702896,46.246722 C14.7813087,44.9883491 21.0132777,44.6193612 21.5959307,43.8239477 C22.0455954,43.2100842 23.1175218,41.3230426 23.2015301,40.6129887 C23.4494077,38.5178829 22.2398198,36.123287 20.3651614,34.1328503 C18.469716,32.1203428 15.1660862,29.8148489 14.2113153,28.8835059 C13.1885194,27.8858071 11.9562395,25.6588631 10.5144755,22.202674 L10.5144149,22.2026993 C10.3422657,21.7897982 10.5374336,21.3155213 10.9503346,21.1433721 C11.0195223,21.114526 11.0923793,21.0954235 11.1668198,21.0866117 C17.3865805,20.3621441 22.0937271,20 25.2882384,20 C28.5091029,20 33.0183068,20.6135729 38.8158501,21.8407188 L38.8159794,21.840102 C39.2538221,21.9318425 39.5343934,22.3611546 39.4426528,22.7989974 C39.4381164,22.8206478 39.4326951,22.8421033 39.4264024,22.8633099 C38.8010723,24.944873 37.6441411,26.817076 35.954905,28.4797102 C34.4665418,29.9446348 31.2225748,31.6195011 29.3908025,34.1328503 C27.6881726,36.469005 27.3395204,39.6667939 27.3395204,40.5935819 Z" id="Path-5" fill="#F5002E"></path>
                    <ellipse id="Oval" stroke="#2F383F" stroke-width="1.35" stroke-linecap="round" stroke-linejoin="round" cx="26.6087512" cy="2.5" rx="21.5" ry="2.5"></ellipse>
                    <path d="M48.1087512,3 L48.1087512,9.02390872 C48.1087512,9.8175994 47.587656,10.5095349 46.8735627,10.6723432 C33.6724855,13.7860528 20.181911,13.7657017 6.36323951,10.6723432 C5.62984633,10.5095349 5.10875118,9.8175994 5.10875118,9.02390872 L5.10875118,3" id="Path" stroke="#2F383F" stroke-width="1.35" stroke-linecap="round" stroke-linejoin="round"></path>
                    <path d="M43.8434909,54.0856164 C46.5261659,54.5993151 48.1087512,55.2328767 48.1087512,55.9178082 C48.1087512,57.6130137 38.4781408,60.5 26.6087512,60.5 C14.7393616,60.5 5.10875118,57.630137 5.10875118,55.9178082 C5.10875118,55.1986301 6.84573502,54.5308219 9.76000791,54" id="Path" stroke="#2F383F" stroke-width="1.35" stroke-linecap="round" stroke-linejoin="round"></path>
                    <path d="M48.1087512,56 L48.1087512,63.0593588 C48.1087512,63.8459731 47.587656,64.5317394 46.8735627,64.6930962 C33.6724855,67.7790445 20.181911,67.7588749 6.36323951,64.6930962 C5.62984633,64.5317394 5.10875118,63.8459731 5.10875118,63.0593588 L5.10875118,56" id="Path" stroke="#2F383F" stroke-width="1.35" stroke-linecap="round" stroke-linejoin="round"></path>
                    <path d="M44.1087512,14 C44.1087512,14 43.5278856,28.2953082 32.6269744,33.1956455 C31.9105735,33.5223347 31.8524869,34.5024021 32.5495257,34.8675253 C36.0928059,36.6931412 42.8308469,41.9201676 44.089389,55.7948482 C32.8012341,58.7350506 21.493717,58.7350506 10.1281134,55.7948482 C11.4060177,41.9201676 18.1246965,36.6931412 21.6679767,34.8675253 C22.3650154,34.5024021 22.3069289,33.5223347 21.5905279,33.1956455 C10.708979,28.2953082 10.1087512,14 10.1087512,14" id="Path" stroke="#2F383F" stroke-width="1.35" stroke-linecap="round" stroke-linejoin="round"></path>
                    <g id="Group" transform="translate(14.108751, 18.000000)" stroke-linecap="round" stroke-linejoin="round" stroke-width="1.2">
                        <path d="M0,1.82736 C8.39258555,0.11664 16.4925856,0.11664 24.3,1.82736" id="Path" stroke="#2F383F"></path>
                        <g id="Group-3" transform="translate(1.215000, 16.200000)" stroke="#303030">
                            <path d="M23.49,9.72 C21.7956157,8.84406977 17.5806598,8.61802326 15.3261485,8.54738372 C14.4299453,8.51912791 13.7297865,7.75622093 13.771796,6.85203488 C13.9538373,3.00924419 16.0263073,0.32494186 16.2783645,0" id="Path"></path>
                            <path d="M0,9.72 C1.72986705,8.85315789 5.9068631,8.62578947 8.15709667,8.55473684 C9.05719009,8.52631579 9.76038808,7.75894737 9.7181962,6.84947368 C9.53536473,3.15473684 7.6226662,0.497368421 7.24293928,0" id="Path"></path>
                        </g>
                    </g>
                    <path d="M31.1087512,19 C31.6610359,19 32.1087512,19.4477153 32.1087512,20 L32.1087512,22 C32.1087512,22.5522847 31.6610359,23 31.1087512,23 C30.5564664,23 30.1087512,22.5522847 30.1087512,22 L30.1087512,20 C30.1087512,19.4477153 30.5564664,19 31.1087512,19 Z" id="Rectangle" fill="#FFFFFF" transform="translate(31.108751, 21.000000) rotate(-31.000000) translate(-31.108751, -21.000000) "></path>
                    <path d="M23.1087512,45 C23.6610359,45 24.1087512,45.4477153 24.1087512,46 L24.1087512,48 C24.1087512,48.5522847 23.6610359,49 23.1087512,49 C22.5564664,49 22.1087512,48.5522847 22.1087512,48 L22.1087512,46 C22.1087512,45.4477153 22.5564664,45 23.1087512,45 Z" id="Rectangle-Copy-7" fill="#FFFFFF" transform="translate(23.108751, 47.000000) rotate(47.000000) translate(-23.108751, -47.000000) "></path>
                    <path d="M25.1087512,26 C25.6610359,26 26.1087512,26.4477153 26.1087512,27 L26.1087512,29 C26.1087512,29.5522847 25.6610359,30 25.1087512,30 C24.5564664,30 24.1087512,29.5522847 24.1087512,29 L24.1087512,27 C24.1087512,26.4477153 24.5564664,26 25.1087512,26 Z" id="Rectangle-Copy-6" fill="#2F383F" transform="translate(25.108751, 28.000000) rotate(-81.000000) translate(-25.108751, -28.000000) "></path>
                    <path d="M27.1087512,48 C27.6610359,48 28.1087512,48.4477153 28.1087512,49 L28.1087512,51 C28.1087512,51.5522847 27.6610359,52 27.1087512,52 C26.5564664,52 26.1087512,51.5522847 26.1087512,51 L26.1087512,49 C26.1087512,48.4477153 26.5564664,48 27.1087512,48 Z" id="Rectangle-Copy-5" fill="#2F383F" transform="translate(27.108751, 50.000000) rotate(-31.000000) translate(-27.108751, -50.000000) "></path>
                    <path d="M22.1087512,51 C22.6610359,51 23.1087512,51.4477153 23.1087512,52 L23.1087512,54 C23.1087512,54.5522847 22.6610359,55 22.1087512,55 C21.5564664,55 21.1087512,54.5522847 21.1087512,54 L21.1087512,52 C21.1087512,51.4477153 21.5564664,51 22.1087512,51 Z" id="Rectangle-Copy-4" fill="#FFFFFF" transform="translate(22.108751, 53.000000) rotate(74.000000) translate(-22.108751, -53.000000) "></path>
                </g>
                <path d="M58.1087512,22 L55.8687512,21.36 L54.6087512,18 L53.3487512,21.36 L51.1087512,22 L53.3487512,22.64 L54.6087512,26 L55.8687512,22.64 L58.1087512,22 Z M64.1405866,14.2484389 L63.3944655,16.2380952 L63.3944655,16.2380952 L62.5317761,16.5256584 C62.2698044,16.6129822 62.1282245,16.8961422 62.2155483,17.1581139 C62.2653158,17.3074164 62.3824736,17.4245742 62.5317761,17.4743417 L63.3944655,17.7619048 L63.3944655,17.7619048 L64.1405866,19.7515611 C64.2375467,20.0101213 64.5257527,20.141124 64.7843129,20.044164 C64.9195246,19.9934596 65.0262114,19.8867728 65.0769158,19.7515611 L65.8230369,17.7619048 L65.8230369,17.7619048 L66.6857263,17.4743417 C66.9476979,17.3870178 67.0892779,17.1038578 67.001954,16.8418861 C66.9521865,16.6925836 66.8350288,16.5754259 66.6857263,16.5256584 L65.8230369,16.2380952 L65.8230369,16.2380952 L65.0769158,14.2484389 C64.9799557,13.9898788 64.6917496,13.858876 64.4331895,13.9558361 C64.2979778,14.0065404 64.191291,14.1132272 64.1405866,14.2484389 Z M62.1405866,26.2484389 L61.3944655,28.2380952 L61.3944655,28.2380952 L60.5317761,28.5256584 C60.2698044,28.6129822 60.1282244,28.8961422 60.2155483,29.1581139 C60.2653158,29.3074164 60.3824736,29.4245741 60.5317761,29.4743416 L61.3944655,29.7619048 L61.3944655,29.7619048 L62.1405866,31.7515611 C62.2375467,32.0101213 62.5257527,32.141124 62.7843129,32.044164 C62.9195246,31.9934596 63.0262114,31.8867728 63.0769158,31.7515611 L63.8230369,29.7619048 L63.8230369,29.7619048 L64.6857263,29.4743416 C64.947698,29.3870178 65.0892779,29.1038578 65.0019541,28.8418861 C64.9521866,28.6925836 64.8350288,28.5754259 64.6857263,28.5256584 L63.8230369,28.2380952 L63.8230369,28.2380952 L63.0769158,26.2484389 C62.9799557,25.9898787 62.6917496,25.858876 62.4331895,25.955836 C62.2979778,26.0065404 62.191291,26.1132272 62.1405866,26.2484389 Z M54.1378802,16.3184386 L52.6492917,20.4864865 L52.6492917,20.4864865 L49.5317761,21.5256584 C49.2698045,21.6129822 49.1282245,21.8961422 49.2155484,22.1581139 C49.2653159,22.3074164 49.3824736,22.4245741 49.5317761,22.4743416 L52.6492917,23.5135135 L52.6492917,23.5135135 L54.1378802,27.6815614 C54.230757,27.9416162 54.5168645,28.0771408 54.7769194,27.9842641 C54.9180967,27.9338436 55.0292017,27.8227386 55.0796221,27.6815614 L56.5682107,23.5135135 L56.5682107,23.5135135 L59.6857262,22.4743416 C59.9476979,22.3870178 60.0892779,22.1038578 60.001954,21.8418861 C59.9521865,21.6925836 59.8350287,21.5754259 59.6857262,21.5256584 L56.5682107,20.4864865 L56.5682107,20.4864865 L55.0796221,16.3184386 C54.9867454,16.0583838 54.7006378,15.9228592 54.440583,16.0157359 C54.2994057,16.0661564 54.1883007,16.1772614 54.1378802,16.3184386 Z" id="stars" fill="#157EFB" fill-rule="nonzero"></path>
            </g>
        </g>
    </g>
</svg>