<?xml version="1.0" encoding="UTF-8"?>
<svg width="113px" height="104px" viewBox="0 0 113 104" version="1.1" xmlns="http://www.w3.org/2000/svg" xmlns:xlink="http://www.w3.org/1999/xlink">
    <title>Group 22</title>
    <g id="Page-1" stroke="none" stroke-width="1" fill="none" fill-rule="evenodd">
        <g id="ההזמנה-שלך-בוטלה" transform="translate(-132.000000, -259.000000)">
            <g id="Group-2" transform="translate(91.000000, 260.185419)">
                <g id="Group-22" transform="translate(97.251286, 50.931460) rotate(-14.000000) translate(-97.251286, -50.931460) translate(50.488996, 10.099952)">
                    <path d="M54.2070144,16.0411424 C55.2467254,15.7251907 55.8340431,14.9026026 55.8433804,13.7260186 C55.8433804,13.1521092 55.8050974,12.9604968 55.5543902,12.4826255 C55.0637139,11.5162121 53.9759157,11.047156 52.7728015,11.2962986 C51.713949,11.5162121 51.0113154,12.3485432 50.9244783,13.5158481 C50.8283039,14.67341 51.4249589,15.6398234 52.4553325,15.9938192 C53.071129,16.2039898 53.6005553,16.2230119 54.2070144,16.0411424 Z" id="Path" stroke="#000000" stroke-width="0.672" fill="#017AFF" fill-rule="nonzero" transform="translate(53.378879, 13.697912) scale(-1, 1) rotate(-180.000000) translate(-53.378879, -13.697912) "></path>
                    <path d="M55.1030144,16.0411424 C56.1427254,15.7251907 56.7300431,14.9026026 56.7393804,13.7260186 C56.7393804,13.1521092 56.7010974,12.9604968 56.4503902,12.4826255 C55.9597139,11.5162121 54.8719157,11.047156 53.6688015,11.2962986 C52.609949,11.5162121 51.9073154,12.3485432 51.8204783,13.5158481 C51.7243039,14.67341 52.3209589,15.6398234 53.3513325,15.9938192 C53.967129,16.2039898 54.4965553,16.2230119 55.1030144,16.0411424 Z" id="Path" transform="translate(54.274879, 13.697912) scale(-1, 1) rotate(-180.000000) translate(-54.274879, -13.697912) "></path>
                    <path d="M49.9208262,28.5722994 C49.9543909,28.5722994 49.9814381,27.4256153 49.9814381,26.0329439 C49.9814381,23.1373309 49.9745948,23.2149284 50.5526897,22.6189668 C51.5136829,21.6277919 53.0925271,21.8740934 53.7243907,23.117853 L53.9124182,23.486991 L53.9326222,26.8877733 L53.9528262,30.295153" id="Path" stroke="#000000" stroke-width="0.5" fill="#FFFFFF" fill-rule="nonzero" stroke-linecap="round" stroke-linejoin="round" transform="translate(51.936826, 26.151153) scale(-1, 1) rotate(-180.000000) translate(-51.936826, -26.151153) "></path>
                    <path d="M43.8728262,26.982106 C43.9121875,26.982106 43.9512314,26.7858872 43.9709121,26.5440215 C43.9905928,26.2695055 44.0559835,25.9883326 44.1477208,25.8120844 C44.3638909,25.4003104 44.8152768,24.9885363 45.2409509,24.8316247 C45.9805635,24.5504519 46.5957435,24.7010236 47.2045749,25.3086994 C47.7673788,25.8707281 47.8197548,26.06029 47.8197548,27.5114844 C47.8197548,28.3546861 47.8394355,28.681506 47.9048262,28.727153" id="Path" stroke="#000000" stroke-width="0.627" fill="#FFFFFF" fill-rule="nonzero" stroke-linecap="round" stroke-linejoin="round" transform="translate(45.888826, 26.711153) scale(-1, 1) rotate(-180.000000) translate(-45.888826, -26.711153) "></path>
                    <circle id="Oval" stroke="#000000" stroke-width="0.672" fill="#017AFF" fill-rule="nonzero" cx="49.8415091" cy="17.807396" r="1.008"></circle>
                    <polygon id="Path" fill="#EAEAEA" fill-rule="nonzero" transform="translate(45.897514, 40.913869) rotate(14.000000) translate(-45.897514, -40.913869) " points="12.1875145 73.1903689 8.93151448 24.7463689 7.39751448 13.4453689 17.0385145 8.51636889 74.7305145 8.51636889 84.3975145 13.4453689 77.7455145 73.3113689"></polygon>
                    <path d="M54.194381,38.3651722 L48.2414351,32.4533653 C47.9901458,32.2038932 47.6561107,32.0664015 47.3007958,32.0664015 C46.9454808,32.0664015 46.611361,32.2038932 46.3600716,32.4533653 L33.0587781,45.6629258 C32.5400912,46.178204 32.5400912,47.0162888 33.0587781,47.5313144 L39.0115544,53.4442158 C39.2628437,53.6937721 39.5968788,53.8311796 39.9522785,53.8311796 C40.3075935,53.8311796 40.6416286,53.6937721 40.8928331,53.4442158 L54.1942962,40.2333924 C54.7128136,39.718451 54.7128136,38.8803662 54.194381,38.3651722" id="Path" fill="#FFFFFE" fill-rule="nonzero" transform="translate(43.626479, 42.948791) rotate(14.000000) translate(-43.626479, -42.948791) "></path>
                    <path d="M49.2830638,41.4554839 C48.9460614,41.789657 48.5034226,41.9566172 48.0636663,41.9566172 C47.6232317,41.9564488 47.1815254,41.789657 46.8440991,41.4554839 C46.5079445,41.1214793 46.3385532,40.6822299 46.3384684,40.2448328 C46.3385532,39.8065937 46.5079445,39.367176 46.8440991,39.0338449 C47.1814406,38.6998402 47.6225534,38.5314486 48.0636663,38.5315328 C48.5034226,38.5315328 48.9460614,38.6984931 49.2830638,39.0340133 C49.6187097,39.367176 49.7886098,39.8066779 49.7885251,40.2448328 C49.7886098,40.6816405 49.6187097,41.1213109 49.2830638,41.4554839 Z M54.5182582,39.7463096 L48.5653971,33.8345869 C48.2784152,33.5495842 47.81314,33.5495842 47.5260733,33.8345869 L41.0897939,40.2264781 L48.0818941,47.1701885 L54.5182582,40.7783815 C54.8052401,40.4933787 54.8052401,40.0313965 54.5182582,39.7463096 L54.5182582,39.7463096 Z" id="Shape" fill="#F5002E" fill-rule="nonzero" transform="translate(47.911644, 40.395512) rotate(14.000000) translate(-47.911644, -40.395512) "></path>
                    <path d="M40.5108385,44.4699237 C40.847417,44.1349087 41.2892929,43.9679484 41.7298122,43.9679484 C42.1710098,43.9678642 42.6128857,44.1349087 42.9488707,44.4699237 C43.2868904,44.8039283 43.4553492,45.2414938 43.4552645,45.6808274 C43.4552645,46.1183929 43.2868904,46.5571371 42.9488707,46.8904682 C42.6128857,47.2234625 42.1710098,47.3914331 41.7298122,47.3919383 C41.2889537,47.3919383 40.847417,47.2236309 40.5109233,46.8904682 C40.1740057,46.556211 40.0055469,46.1173825 40.0055469,45.6808274 C40.0055469,45.2427568 40.1740905,44.8040125 40.5108385,44.4699237 Z M37.8891719,46.822438 C37.5517456,47.1550956 37.1098698,47.32214 36.6694352,47.32214 C36.2278137,47.3220558 35.7864466,47.1551798 35.4497833,46.822438 C35.1126113,46.4887701 34.945509,46.0496891 34.9454242,45.6122079 C34.9454242,45.174053 35.1134591,44.7353088 35.4498681,44.3998728 C35.7864466,44.0662049 36.2278137,43.8994973 36.6694352,43.8992447 C37.1098698,43.8994973 37.5524239,44.0662049 37.8891719,44.4001254 C38.2255808,44.7353088 38.3932766,45.174053 38.3928543,45.6115343 C38.3928543,46.0493524 38.2255808,46.4891069 37.8891719,46.822438 Z M32.7340951,45.1197467 C32.4470284,45.4049178 32.4470284,45.8669001 32.7340951,46.1519028 L38.6868714,52.0648042 C38.8304047,52.2073477 39.0184478,52.2785773 39.2065757,52.2785773 C39.3946188,52.2785773 39.5827467,52.2073477 39.7261952,52.0648042 L46.1593377,45.6749337 L39.1672376,38.7309708 L32.7340951,45.1197467 L32.7340951,45.1197467 Z" id="Shape" fill="#017AFF" fill-rule="nonzero" transform="translate(39.339066, 45.504774) rotate(14.000000) translate(-39.339066, -45.504774) "></path>
                    <path d="M39.4775648,52.666748 L39.5352377,52.666748 C39.5735746,52.666748 39.6007345,52.6604854 39.6163822,52.648072 C39.6321417,52.6356587 39.6399656,52.6195549 39.6399656,52.5998725 C39.6399656,52.5801901 39.632477,52.5641982 39.6173882,52.5517849 C39.6022993,52.5392597 39.5767041,52.533109 39.5403791,52.533109 L39.4775648,52.533109 L39.4775648,52.666748 Z M39.3446711,52.4400649 L39.5836338,52.4400649 C39.651366,52.4400649 39.700321,52.4537084 39.7307223,52.4809953 C39.7610117,52.5082823 39.7762124,52.5448513 39.7762124,52.5907023 C39.7762124,52.6266003 39.7645884,52.6575777 39.7414521,52.6837464 C39.7183159,52.7100269 39.6818791,52.7290383 39.6321417,52.7407806 C39.6525955,52.7486088 39.6676844,52.7569962 39.6772965,52.7657191 C39.6908206,52.7779088 39.7050153,52.7960255 39.7198806,52.8200694 C39.7207748,52.8218587 39.7496113,52.8734131 39.8062783,52.9747327 L39.6491307,52.9747327 C39.5980521,52.8729658 39.5637389,52.8121293 39.5463029,52.7922232 C39.5288669,52.7723172 39.5114309,52.7623642 39.4938831,52.7623642 C39.4899712,52.7623642 39.4844945,52.7630351 39.4775648,52.7643771 L39.4775648,52.9747327 L39.3446711,52.9747327 L39.3446711,52.4400649 Z M39.9746029,52.7073429 C39.9746029,52.5959584 39.9352601,52.5007896 39.8564627,52.4219481 C39.7775536,52.3431067 39.6825497,52.3037419 39.5712274,52.3037419 C39.4599052,52.3037419 39.3647895,52.3431067 39.2859922,52.4219481 C39.2071948,52.5007896 39.1677402,52.5959584 39.1677402,52.7073429 C39.1677402,52.8187274 39.2071948,52.9138962 39.2859922,52.9927377 C39.3647895,53.0715791 39.4599052,53.1110557 39.5712274,53.1110557 C39.6825497,53.1110557 39.7775536,53.0715791 39.8564627,52.9927377 C39.9352601,52.9138962 39.9746029,52.8187274 39.9746029,52.7073429 Z M40.0715069,52.7073429 C40.0715069,52.7969202 40.049153,52.8803467 40.0044453,52.9576225 C39.9596258,53.0350101 39.8987115,53.0959584 39.8213672,53.1404675 C39.7441346,53.1850884 39.6607547,53.2073429 39.5712274,53.2073429 C39.4821473,53.2073429 39.3989909,53.1850884 39.3216466,53.1404675 C39.244414,53.0959584 39.1833879,53.0350101 39.1386802,52.9576225 C39.0938607,52.8803467 39.0715069,52.7969202 39.0715069,52.7073429 C39.0715069,52.618213 39.0938607,52.5348983 39.1386802,52.4573988 C39.1833879,52.3798994 39.244414,52.3188392 39.3216466,52.2742183 C39.3989909,52.2297093 39.4821473,52.2073429 39.5712274,52.2073429 C39.6607547,52.2073429 39.7441346,52.2297093 39.8213672,52.2742183 C39.8987115,52.3188392 39.9596258,52.3798994 40.0044453,52.4573988 C40.049153,52.5348983 40.0715069,52.618213 40.0715069,52.7073429 L40.0715069,52.7073429 Z" id="Shape" fill="#FFFFFF" fill-rule="nonzero" transform="translate(39.571507, 52.707343) rotate(14.000000) translate(-39.571507, -52.707343) "></path>
                    <path d="M62.895792,17.2359506 C63.4628019,17.2359506 63.979001,17.4534434 64.3655795,17.8094967 C64.7594566,18.1722724 65.0185455,18.6789902 65.059972,19.2460544 L65.065792,24.2371506 C65.065792,28.8595763 63.1924506,33.0439445 60.1633606,36.0727004 C57.1343179,39.101409 52.9495512,40.9745506 48.326592,40.9745506 C43.7632692,40.9745506 39.6267514,39.1487537 36.6075974,36.1877728 C33.5823971,33.2208622 31.6791017,29.1141893 31.5922161,24.5547673 L31.589192,19.4059506 C31.589192,18.8067217 31.8320775,18.2642217 32.2247703,17.8715289 C32.617463,17.4788361 33.159963,17.2359506 33.759192,17.2359506 C34.3262019,17.2359506 34.842401,17.4534434 35.2289795,17.8094967 C35.6228566,18.1722724 35.8819455,18.6789902 35.923372,19.2460544 L35.929192,24.2371506 C35.929192,27.6609111 37.3166518,30.760267 39.5600637,33.0036789 C41.8034756,35.2470908 44.9028315,36.6345506 48.326592,36.6345506 C51.6973261,36.6345506 54.7534714,35.2904098 56.9882439,33.1088497 C59.2284709,30.9219651 60.6433788,27.8936055 60.7221897,24.5438122 L60.725792,19.4059506 C60.725792,18.8067217 60.9686775,18.2642217 61.3613703,17.8715289 C61.754063,17.4788361 62.296563,17.2359506 62.895792,17.2359506 Z" id="Path" stroke="#404D57" stroke-width="0.84" fill="#FFFFFF" fill-rule="nonzero" transform="translate(48.327492, 29.105251) rotate(14.000000) translate(-48.327492, -29.105251) "></path>
                    <line x1="63.6010038" y1="71.3460165" x2="4.47300378" y2="71.3460165" id="Path" stroke="#404D57" stroke-linecap="round" stroke-linejoin="round" transform="translate(34.037004, 71.346017) rotate(14.000000) translate(-34.037004, -71.346017) "></line>
                    <polyline id="Path" stroke="#404D57" stroke-linecap="round" stroke-linejoin="round" transform="translate(45.840347, 33.357585) rotate(14.000000) translate(-45.840347, -33.357585) " points="15.1638469 58.4260849 16.0558469 42.2510849 16.2838469 38.1150849 17.9288469 8.28908488 76.5168469 8.28908488 76.5168469 30.7070849"></polyline>
                    <polyline id="Path" stroke="#404D57" stroke-linecap="round" stroke-linejoin="round" transform="translate(12.411278, 32.570481) rotate(14.000000) translate(-12.411278, -32.570481) " points="13.2112784 64.9624809 10.5292784 16.4794809 7.69627839 4.9414809 17.1262784 0.178480903"></polyline>
                    <polyline id="Path" stroke="#404D57" stroke-linecap="round" stroke-linejoin="round" transform="translate(71.960753, 47.417832) rotate(14.000000) translate(-71.960753, -47.417832) " points="60.5982529 79.8098324 76.5982529 79.8098324 83.3232529 19.7888324 73.8912529 15.0258324"></polyline>
                    <line x1="44.4516375" y1="64.7094715" x2="9.79763746" y2="64.6314715" id="Path" stroke="#BABABA" stroke-width="0.792" stroke-linecap="round" stroke-linejoin="round" transform="translate(27.124637, 64.670472) rotate(14.000000) translate(-27.124637, -64.670472) "></line>
                    <line x1="23.153848" y1="56.9944318" x2="11.358848" y2="57.0164318" id="Path" stroke="#BABABA" stroke-width="0.792" stroke-linecap="round" stroke-linejoin="round" transform="translate(17.256348, 57.005432) rotate(14.000000) translate(-17.256348, -57.005432) "></line>
                    <ellipse id="Oval" stroke="#31383E" fill="#F5002E" fill-rule="nonzero" transform="translate(73.971471, 57.923327) rotate(14.000000) translate(-73.971471, -57.923327) " cx="73.9714706" cy="57.9233272" rx="16.145" ry="16.07"></ellipse>
                    <path d="M78.4564528,44.1686624 C82.238654,49.6781573 81.5648721,57.0782202 76.8528072,61.7813031 C72.1407422,66.4843859 64.7265739,67.156856 59.2065945,63.3818266 C62.3647993,67.9835361 67.967972,70.2631147 73.4318323,69.1691813 C78.8956926,68.0752478 83.1587383,63.8203283 84.2547788,58.3668654 C85.3508193,52.9134026 83.0669192,47.3208785 78.4564528,44.1686624 Z" id="Path" fill="#D1D1D1" fill-rule="nonzero" opacity="0.439" style="mix-blend-mode: multiply;" transform="translate(71.866305, 56.804276) rotate(161.000000) translate(-71.866305, -56.804276) "></path>
                    <path d="M73.5638612,67.7662908 C74.3922882,67.7662908 75.0638612,67.1586772 75.0638612,66.409148 L75.0638612,50.1234337 C75.0638612,49.3739043 74.3922882,48.7662908 73.5638612,48.7662908 C72.7354341,48.7662908 72.0638612,49.3739043 72.0638612,50.1234337 L72.0638612,66.409148 C72.0638612,67.1586772 72.7354341,67.7662908 73.5638612,67.7662908 Z" id="Path" fill="#FFFFFF" fill-rule="nonzero" transform="translate(73.563861, 58.266291) rotate(-31.000000) translate(-73.563861, -58.266291) "></path>
                    <path d="M73.5638612,67.7662908 C74.3922882,67.7662908 75.0638612,67.1586772 75.0638612,66.409148 L75.0638612,50.1234337 C75.0638612,49.3739043 74.3922882,48.7662908 73.5638612,48.7662908 C72.7354341,48.7662908 72.0638612,49.3739043 72.0638612,50.1234337 L72.0638612,66.409148 C72.0638612,67.1586772 72.7354341,67.7662908 73.5638612,67.7662908 Z" id="Path" fill="#FFFFFF" fill-rule="nonzero" transform="translate(73.563861, 58.266291) rotate(-301.000000) translate(-73.563861, -58.266291) "></path>
                </g>
            </g>
        </g>
    </g>
</svg>