<?xml version="1.0" encoding="UTF-8"?>
<svg width="31px" height="30px" viewBox="0 0 31 30" version="1.1" xmlns="http://www.w3.org/2000/svg" xmlns:xlink="http://www.w3.org/1999/xlink">
    <title>Cart Copy</title>
    <g id="Page-1" stroke="none" stroke-width="1" fill="none" fill-rule="evenodd">
        <g id="main-tracker-oven" transform="translate(-401.000000, -86.000000)">
            <g id="tools-and-textes" transform="translate(92.000000, 63.000000)">
                <g id="Cart-Copy" transform="translate(309.630682, 23.000000)">
                    <g id="Group" transform="translate(0.491477, 3.250000)">
                        <path d="M14.2036932,0 C21.3352329,0 27.2117979,5.63185855 27.6881946,12.8097181 L27.7071579,13.1928194 C27.7082486,13.271045 27.7090244,13.4083259 27.7095286,13.6033613 L27.7064277,17.75 C27.9001106,18.0331055 28.0142045,18.3779977 28.0142045,18.75 L28.0142045,21.75 C28.0142045,22.7164983 27.244058,23.5 26.2940341,23.5 L1.72017045,23.5 C0.770146545,23.5 0,22.7164983 0,21.75 L0,18.75 C0,18.1764933 0.271174057,17.667421 0.690194009,17.34825 L0.706155496,13.0327956 C1.07457635,5.74517355 7.00188813,0 14.2036932,0 Z M26.2940341,18.5 L1.72017045,18.5 C1.58445275,18.5 1.47443182,18.6119288 1.47443182,18.75 L1.47443182,21.75 C1.47443182,21.8880712 1.58445275,22 1.72017045,22 L26.2940341,22 C26.4297518,22 26.5397727,21.8880712 26.5397727,21.75 L26.5397727,18.75 C26.5397727,18.6119288 26.4297518,18.5 26.2940341,18.5 Z M14.2036932,1.5 C7.88798511,1.5 2.67210473,6.45995292 2.19763646,12.8065858 L2.1772198,13.1713201 L2.16634232,15.5927989 L2.163,16.999 L4.131,16.999 L4.14582765,13.8986955 C4.14846826,13.683426 4.15142741,13.5503631 4.15485526,13.5020573 C4.53374106,8.16273892 8.91314772,4 14.2036932,4 C19.4318279,4 23.7657433,8.06370666 24.2366749,13.3047724 L24.258191,13.5866537 C24.2613912,13.6375664 24.2634017,13.7995407 24.2644736,14.0740137 L24.26,16.999 L26.232,16.999 L26.2352067,15.4547348 L26.2327282,13.1942206 C25.94651,6.66633881 20.6505042,1.5 14.2036932,1.5 Z M14.2036932,5.5 C9.77282009,5.5 6.09013962,8.92101745 5.64739078,13.3532535 L5.62346233,13.6716777 L5.605,16.999 L22.785,16.999 L22.7867645,13.6823782 C22.4983727,9.09429252 18.7462108,5.5 14.2036932,5.5 Z" id="Combined-Shape" fill="#FFFFFF" fill-rule="nonzero"></path>
                        <g id="Group-23" transform="translate(9.092330, 9.250000)" stroke="#FFFFFF" stroke-linecap="round" stroke-linejoin="round" stroke-width="1.35">
                            <path d="M0,8 C0,6 0,5 0.982954545,4 C1.65910693,3.31212243 3.1884958,2.75621236 3.93181818,2 C4.3100073,1.61525269 4.63765882,0.948586019 4.91477273,0 C5.86973985,0.730323189 6.52504288,1.39698986 6.88068182,2 C7.23632076,2.60301014 7.56397227,3.60301014 7.86363636,5 L8.84659091,2 C10.157197,4 10.8125,6 10.8125,8" id="Path-11"></path>
                            <path d="M3.91852064,8 C3.91852064,8 3.48768017,7.4375 3.91852064,6.5 C4.20574761,5.875 4.78020157,5.375 5.6418825,5 C5.74494346,5.86212927 5.85983426,6.36212927 5.98655488,6.5 C6.44611804,7 6.67589962,7.5 6.67589962,8" id="Path-20"></path>
                        </g>
                    </g>
                </g>
            </g>
        </g>
    </g>
</svg>