<?xml version="1.0" encoding="UTF-8"?>
<svg width="240px" height="120px" viewBox="0 0 240 120" version="1.1" xmlns="http://www.w3.org/2000/svg" xmlns:xlink="http://www.w3.org/1999/xlink">
    <title>tracker/illustrations/outside</title>
    <g id="Page-1" stroke="none" stroke-width="1" fill="none" fill-rule="evenodd">
        <g id="טרקר-בהכנה/סקיצה-חדשה/איסוף-עצמי4" transform="translate(-882.000000, -258.000000)">
            <g id="tracker/illustrations/outside" transform="translate(882.000000, 258.000000)">
                <rect id="Rectangle" x="0" y="0" width="240" height="120"></rect>
                <path d="M47,104.5 L196.591797,104.5 L47,104.5 Z" id="Path-34" stroke="#2F383F" stroke-width="1.5444" stroke-linecap="round" stroke-linejoin="round"></path>
                <g id="Group-2" transform="translate(90.000000, 47.000000)">
                    <path d="M2.79990469,12.9299129 L2.79990469,14.8899129 C2.79990469,18.4466267 5.6831909,21.3299129 9.23990469,21.3299129 C11.0785108,21.3299129 12.7371593,20.5594223 13.9105802,19.323711 C13.399865,22.3690648 10.7509164,24.6899129 7.55990469,24.6899129 C4.0031909,24.6899129 1.11990469,21.8066267 1.11990469,18.2499129 L1.11990469,12.9299129 L2.79990469,12.9299129 Z" id="Combined-Shape" fill="#D1D1D1"></path>
                    <path d="M31.9199047,12.9299129 L31.9199047,14.8899129 C31.9199047,18.4466267 34.8031909,21.3299129 38.3599047,21.3299129 C40.1985108,21.3299129 41.8571593,20.5594223 43.0305802,19.323711 C42.519865,22.3690648 39.8709164,24.6899129 36.6799047,24.6899129 C33.1231909,24.6899129 30.2399047,21.8066267 30.2399047,18.2499129 L30.2399047,12.9299129 L31.9199047,12.9299129 Z" id="Combined-Shape-Copy" fill="#D1D1D1"></path>
                    <g id="Group">
                        <polygon id="Fill-1" fill="#017AFF" points="16.9288513 53.1130095 43.3415497 53.1130095 43.3415497 29.5461237 16.9288513 29.5461237"></polygon>
                        <path d="M17.8995872,0.0875164345 L27.5084761,0.0875164345 L27.5084761,13.263072 L27.5084761,16.7475164 C27.5084761,20.5205164 24.6104761,23.6075164 21.0684761,23.6075164 C17.5264761,23.6075164 14.6284761,20.5205164 14.6284761,16.7475164 L14.6284761,11.0852942" id="Fill-2" fill="#F5002E"></path>
                        <path d="M56.6284761,11.5765487 L49.9014761,0.0875164345 L39.2684761,0.0875164345 L42.9574761,12.4436455 L42.9574761,16.7791293 C42.9574761,20.5347422 46.0334511,23.6075164 49.7929761,23.6075164 C53.5525011,23.6075164 56.6284761,20.5347422 56.6284761,16.7791293 L56.6284761,11.5765487 Z" id="Fill-4" fill="#F5002E"></path>
                        <path d="M51.3997825,0 C52.0967534,0 52.4773415,0.208365331 52.8115321,0.776091509 C53.7457676,2.36310679 54.7053603,3.9659149 55.6442311,5.53088266 L55.8450838,5.86563416 L56.0451697,6.19905736 L56.0651306,6.23231931 C57.0533458,7.8787968 58.0619577,9.55925537 59.0415434,11.2184843 C59.2268611,11.5321167 59.3428642,11.9147325 59.3564438,12.2561097 L59.3574371,12.2890138 L59.3577807,12.3212345 L59.3587839,12.895799 C59.3625877,14.6156743 59.3666117,16.394096 59.2178627,18.1226171 C59.1017334,19.4717823 58.4635047,20.743927 57.2216474,22.1310001 C56.9146454,22.4739416 56.7181232,22.9693486 56.7174628,23.3922652 C56.7071141,29.7704101 56.7034936,36.2141223 56.7025191,42.6026593 L56.7023393,44.0759026 L56.7022503,45.3631214 L56.7022605,48.6690429 L56.7028064,54.5746325 L56.7030072,56.9567085 C56.7030072,57.532126 56.6525738,57.8770193 56.4856712,58.0398864 C56.3204256,58.2011385 55.9750706,58.2526829 55.3979415,58.2544888 L55.3668019,58.2544888 L49.0277003,58.2538732 L42.6886035,58.2537009 L36.1911012,58.2537009 L30.0952133,58.2538979 L23.4346217,58.2513371 L17.1756441,58.2515341 C12.7244005,58.2515341 8.2743614,58.2513371 3.82331365,58.2503522 C3.37692591,58.2502663 3.08111687,58.2078502 2.90570516,58.0366762 C2.73913531,57.8741305 2.69296931,57.6041388 2.68891771,57.2033952 L2.68870581,57.1758689 L2.68862948,57.147189 L2.68863031,51.3098415 L2.6886825,47.4646795 C2.6888053,43.4921734 2.68921253,39.4792832 2.69056296,35.4600342 L2.69084581,34.6561097 L2.69115499,33.8520784 L2.69171438,32.5502311 C2.69310755,29.5126556 2.6951299,26.4761347 2.69806552,23.4553796 C2.69872168,22.9038806 2.52549237,22.4714553 2.13468979,22.0543213 C0.774149392,20.6018988 0.0621136582,18.8610704 0.0174801121,16.8786445 L0.0163318858,16.8184971 L0.0155794696,16.7570165 L0.0115643361,16.3333374 C-0.000749682675,15.0117475 -0.0133809234,13.659922 0.0315527738,12.3363673 C0.0444777332,11.9529945 0.163964253,11.5343611 0.351701422,11.216708 C1.2930168,9.62353555 2.25803597,8.01232557 3.20194305,6.43897867 L3.40386938,6.10243282 L3.62344457,5.73651721 C4.61942718,4.07706888 5.64914388,2.36107707 6.65235115,0.66715846 C6.93180235,0.195357284 7.26550144,0.0100543444 7.83709886,0.00446413942 L7.86406743,0.00433331674 L8.1483801,0.00483284813 L8.43249312,0.0053151819 L8.71634762,0.00578059893 C11.9236855,0.0109476521 15.0728586,0.0129300231 17.8300426,0.0136333341 L17.9631474,0.0136663751 L18.0935666,0.0136969964 L18.3341508,0.0137490114 L18.6909736,0.013815761 L18.9260797,0.0138531732 L19.042783,0.0138698632 L19.3894013,0.0139123069 L19.5037621,0.0139240354 L20.1770321,0.0139715617 L20.8272361,0.0139856452 C22.7869565,0.0139856452 24.7468777,0.0135916822 26.7067995,0.013197718 C28.6337756,0.0128037577 30.5607459,0.0124097978 32.487917,0.0124097978 C33.9397507,0.0124097978 35.3722327,0.0130480067 36.8027829,0.0137500348 L37.2795853,0.01398562 L39.6636758,0.0150690361 L42.0477536,0.0155614924 L42.384454,0.0155486898 L42.7164957,0.0155101348 L42.8261656,0.0154915209 L43.0439993,0.0154456032 C46.3329841,0.0146610084 48.9429565,0.00985828808 51.3997825,0 Z M42.3259097,33.8932678 L17.0864062,33.8932678 L17.0864062,56.7175036 L42.3259097,56.7175036 L42.3259097,33.8932678 Z M15.2268513,20.3386228 L14.7672498,20.9735533 L14.7312861,21.0229844 L14.6958616,21.0711561 C13.5247079,22.655267 12.1408326,23.6893721 10.4661345,24.2272233 C9.69362334,24.4751764 8.89003383,24.6012839 8.07838568,24.6012839 C7.12356939,24.6012839 6.14955743,24.4358818 5.1020058,24.0975437 L5.1020058,24.0975437 L5.03596374,24.0760169 L4.28575725,23.8288037 L4.28575725,56.7123821 L15.4629776,56.7123821 L15.4629776,32.3832689 L43.9457244,32.3832689 L43.9457244,56.7052908 L55.0805825,56.7052908 L55.0805825,23.8710027 L54.3426681,24.0948222 L54.2732019,24.1157102 L54.2043504,24.1360105 C53.172484,24.4372221 52.1815647,24.590253 51.2570356,24.590253 C48.6673616,24.590253 46.5060219,23.4285033 44.6465098,21.0520121 L44.6465098,21.0520121 L44.5897285,20.9789474 L44.1241774,20.3759699 L43.6739775,20.9905038 L43.6201195,21.0634701 L43.5670243,21.1343214 C41.8106489,23.4603784 39.6347183,24.5951775 36.91227,24.5951775 C34.1881117,24.5934562 31.9943012,23.4299331 30.2042438,21.0468105 L30.2042438,21.0468105 L30.1496395,20.9735702 L29.6874294,20.3490105 L29.227513,20.9756059 L29.1733346,21.0488641 L29.1199278,21.1200005 C27.3533371,23.4554179 25.173906,24.5947835 22.456479,24.5947835 C19.7292153,24.5938273 17.5346452,23.4290258 15.7467104,21.0423672 L15.7467104,21.0423672 L15.6921714,20.9690176 L15.2268513,20.3386228 Z M14.6084826,12.7564274 L1.55670017,12.7564274 L1.55670017,13.3191318 L1.55644713,13.4807296 L1.5557407,13.6423976 C1.55453099,13.8579715 1.55231965,14.0733788 1.5499422,14.2858277 L1.5499422,14.2858277 L1.54813905,14.4447303 L1.54743808,14.5060771 L1.54570897,14.6557305 L1.54402981,14.8063431 C1.53587299,15.5606872 1.53205435,16.3335564 1.56651012,17.0938344 C1.63803278,18.6788548 2.30492697,20.1024622 3.37112708,21.1681442 C4.43451182,22.2310122 5.89561436,22.937928 7.55938018,23.0911648 C7.73783443,23.107782 7.9201799,23.1161047 8.10087184,23.1161047 C9.55651909,23.1161047 10.9404991,22.601573 12.0314635,21.7453424 C13.1247981,20.8872516 13.9233055,19.6864801 14.2078464,18.3183964 C14.4119033,17.3383198 14.4644134,16.3210082 14.4960212,15.3194586 L14.4960212,15.3194586 L14.4988256,15.228981 L14.5040366,15.0534527 L14.5065684,14.9657052 L14.5065684,14.9657052 L14.5090944,14.8773928 C14.5219881,14.4275878 14.5352558,13.9642089 14.5614181,13.506547 L14.5614181,13.506547 L14.5706396,13.3541392 L14.6084826,12.7564274 Z M28.9523018,12.7436236 L16.0130935,12.7436236 L16.0130935,13.306328 L16.0128232,13.4668558 L16.0120688,13.6269726 C16.0107768,13.8402054 16.0084148,14.0522573 16.0058746,14.2612607 L16.0058746,14.2612607 L16.0039477,14.4175906 L16.0028672,14.5048371 L16.0010734,14.6430323 L15.9993345,14.7809538 C15.9897436,15.5604806 15.9853634,16.3064502 16.0241546,17.0660419 C16.1045414,18.6365545 16.7299309,20.02478 17.7496562,21.0769573 C18.7663451,22.1260015 20.1761021,22.841474 21.8314605,23.0663091 C22.0749965,23.0994276 22.3249799,23.1161047 22.573929,23.1161047 C23.875299,23.1161047 25.1566882,22.6622611 26.2212196,21.8937131 C27.2847405,21.1258946 28.1311457,20.0444578 28.5658922,18.7918285 C28.9564717,17.6663268 28.9757398,16.5254264 28.9484039,15.409766 L28.9484039,15.409766 L28.945476,15.2963976 C28.9439443,15.2397585 28.9423206,15.1831882 28.9406476,15.1266921 L28.9406476,15.1266921 L28.9389526,15.0699366 L28.9354561,14.9547882 L28.9322215,14.8471826 L28.9287996,14.7307 C28.9164839,14.3027834 28.9073384,13.8664122 28.922015,13.438014 L28.922015,13.438014 L28.9262139,13.3306363 L28.9523018,12.7436236 Z M57.9494901,12.7507149 L44.924274,12.7507149 L44.924274,13.3134193 L44.9239841,13.4737536 L44.923175,13.6339388 C44.9217895,13.8474179 44.9192569,14.0602876 44.916535,14.2700888 L44.916535,14.2700888 L44.9144703,14.4270161 L44.9138488,14.4739638 L44.9119945,14.6092375 L44.9100993,14.752181 C44.9002945,15.5124844 44.8961208,16.2407792 44.9351467,16.9843359 C45.0220686,18.6275533 45.6850191,20.0766851 46.7467873,21.1540683 C47.8071016,22.2299762 49.2659585,22.9356962 50.9490523,23.0905751 C51.1247682,23.1068011 51.3042601,23.1149228 51.482098,23.1149228 C52.9271299,23.1149228 54.3227727,22.5810621 55.425126,21.7049128 C56.529617,20.8270643 57.3387011,19.6063851 57.612023,18.2387057 C57.8343976,17.1263528 57.8552091,15.9685653 57.8744631,14.8478446 C57.8819314,14.4083811 57.8898498,13.9559205 57.9100646,13.5093194 L57.9100646,13.5093194 L57.918244,13.34217 L57.9494901,12.7507149 Z M43.2823748,12.7589881 L30.5548138,12.7589881 L30.5548138,13.3216925 L30.5543423,13.4728623 L30.5530031,13.6242735 C30.54895,13.9778419 30.538701,14.3328357 30.5285851,14.6786851 C30.4994381,15.6762064 30.4700802,16.7078394 30.5876765,17.7138662 C30.7628616,19.2121369 31.5393328,20.5546231 32.6703374,21.5255421 C33.7871026,22.4842371 35.2490494,23.0800813 36.8144506,23.1060306 L36.8144506,23.1060306 L36.8620476,23.1066447 L36.9211272,23.1068469 L36.9683927,23.106673 L37.0155523,23.1061545 C38.5707939,23.0833939 40.0237912,22.5022406 41.138617,21.5619358 C42.2792849,20.5998343 43.0654593,19.2623202 43.2482083,17.7633505 C43.3706326,16.7584337 43.3417175,15.7679851 43.3097586,14.6977042 C43.297787,14.2978765 43.2854601,13.8865272 43.2828694,13.4755137 L43.2828694,13.4755137 L43.2823741,13.321331 L43.2823748,12.7589881 Z M14.154722,1.51518083 L13.1496912,1.51518083 C11.9395402,1.51576424 10.5827661,1.51867575 9.20902504,1.53052039 L9.20902504,1.53052039 L9.08410304,1.53162191 L8.85923283,1.53373064 L8.74668947,1.53484864 L8.63417041,1.53600941 L8.6130534,1.53651218 C8.19024849,1.55217858 7.74104969,1.90257719 7.53421774,2.24146001 C6.27182257,4.30911065 5.00526791,6.41833534 3.77622931,8.4670969 L3.77622931,8.4670969 L3.57176768,8.80794043 L2.95978253,9.82830963 L2.93998012,9.86194302 L2.92085645,9.89566303 C2.87068576,9.98574895 2.82657569,10.0777124 2.77543219,10.1847595 C2.7526885,10.2324852 2.72845923,10.2833354 2.7013035,10.338334 L2.7013035,10.338334 L2.68742832,10.3662775 L2.30381069,11.1342476 L3.17072274,11.1768875 L3.2155999,11.1790955 L3.25898453,11.1813668 C3.31613276,11.1844431 3.37054752,11.1876967 3.42292895,11.1909495 C3.56372483,11.1994108 3.69743436,11.2073494 3.8308139,11.2095699 L3.8308139,11.2095699 L3.89753694,11.2101836 L4.43309382,11.2105784 L5.7496949,11.2115267 L7.06624798,11.2122561 L7.06624798,11.2122561 L8.38275193,11.2125478 C9.60052622,11.2125478 10.8176981,11.2117598 12.041496,11.2093958 C12.2232348,11.2093961 12.4237276,11.226177 12.6417336,11.2443784 C12.8719911,11.2635217 13.1094982,11.283067 13.3383405,11.283067 C13.6571004,11.283067 14.1198001,11.2454217 14.4785101,10.9815736 C14.9269035,10.651764 15.1235645,10.089628 15.2778571,9.5046779 L15.2778571,9.5046779 L15.2857388,9.4746639 L15.3016311,9.41342751 L15.3121566,9.37244594 C15.3191761,9.34502569 15.3262393,9.31727375 15.3335804,9.28839023 C15.38322,9.09319472 15.4300922,8.908419 15.4856302,8.74188992 C15.9986523,7.20763352 16.493243,5.70103099 17.0167492,4.10596676 C17.1843758,3.59550607 17.3531253,3.08187604 17.523339,2.56430101 L17.523339,2.56430101 L17.6256467,2.25327324 L17.8679237,1.5164992 L17.0832902,1.5164992 L16.7340379,1.51645508 L16.3858515,1.51633532 C16.0381769,1.51618405 15.6920145,1.51594768 15.347153,1.51571132 L15.347153,1.51571132 L15.0612245,1.51559811 L14.7759839,1.51546839 L14.4011736,1.51530065 L14.34173,1.51518083 L14.34173,1.51518083 L14.282312,1.51518083 L14.154722,1.51518083 Z M45.8762306,1.51512034 L45.3548245,1.51512034 L43.8512364,1.51531732 L42.3197469,1.51571128 L41.5495143,1.51571128 L41.7743059,2.2427092 L41.7850719,2.27721242 L41.7954499,2.3106615 C41.8160246,2.37716005 41.835722,2.44191136 41.8583437,2.51662327 C41.9014102,2.65706958 41.937281,2.77400891 41.9753061,2.89024356 C42.1201262,3.32951989 42.2652943,3.76840936 42.4106646,4.20713473 L42.4106646,4.20713473 L42.628825,4.86504088 L42.6448425,4.9133801 L42.7531597,5.24028724 L42.8618198,5.56833627 C43.3696497,7.10191123 43.8871589,8.67170701 44.3800774,10.2234481 C44.4917885,10.5754796 44.6578516,10.8222531 44.8900286,10.9843025 C45.118335,11.1436504 45.4147166,11.2227882 45.8049066,11.2227882 C47.4392049,11.2116642 49.0642652,11.2094056 50.486789,11.2090572 L50.486789,11.2090572 L50.5905247,11.209035 L50.9711546,11.2090021 L52.7179767,11.2095931 L54.4653099,11.2097901 L55.576531,11.209593 L55.6256819,11.2091328 L55.6744837,11.2078253 C55.7880125,11.2038518 55.8996802,11.1936692 56.0207211,11.1824905 C56.054953,11.1793135 56.0888885,11.1761625 56.1225853,11.1733277 L56.1225853,11.1733277 L56.1732462,11.1693306 L56.6695962,11.1330093 L56.7037867,10.6074452 L56.7045816,10.6006275 C56.7126457,10.5299519 56.7229805,10.3848568 56.6289995,10.2150759 L56.6289995,10.2150759 L56.0927587,9.31537907 L55.8796585,8.95787056 L55.6406682,8.55695437 C54.3638945,6.4152402 53.0534666,4.21953027 51.751868,2.06177577 C51.5721927,1.76425128 51.1565185,1.52879994 50.8053947,1.52694155 C49.1221765,1.51736685 47.4515786,1.51545133 45.8762306,1.51512034 L45.8762306,1.51512034 Z M35.7865499,1.51315053 L35.5530724,1.51315053 L34.8802029,1.5134214 L34.2073125,1.51413554 L33.8713936,1.51445544 L33.3671042,1.51491257 L32.8629077,1.51512035 L30.4925753,1.51512034 L30.4925753,11.1658633 L42.854749,11.1658633 L42.7937434,10.5331118 L42.7929035,10.5211972 C42.7921127,10.5092114 42.7914437,10.4968415 42.7906664,10.4825512 C42.7871779,10.411135 42.7821496,10.3310317 42.7478305,10.215383 L42.7478305,10.215383 L42.3526086,9.01284018 L42.3259592,8.93175968 L42.1987668,8.54479496 L42.0710667,8.15639363 C41.4313784,6.21122342 40.7740164,4.22038028 40.1053678,2.26396319 C40.0353555,2.05917358 39.8699163,1.88435682 39.6673238,1.75784497 C39.4360226,1.61340566 39.1605898,1.5336655 38.9570322,1.5310893 C37.8297323,1.5165339 36.7335447,1.51356458 35.7865499,1.51315053 L35.7865499,1.51315053 Z M20.3384796,1.50369771 C20.0028692,1.50369771 19.7721156,1.60147459 19.6070113,1.73419256 C19.3612883,1.93171526 19.2619925,2.21591898 19.2003199,2.40589517 C18.7682517,3.73561414 18.3250922,5.08490393 17.8935171,6.39742816 L17.8935171,6.39742816 L17.7941303,6.69966621 L17.5564056,7.42321912 L17.4532632,7.73670789 L17.3499205,8.05044951 C17.2464603,8.36439409 17.1426197,8.679066 17.0381521,8.99553147 L17.0381521,8.99553147 L16.9334597,9.31265391 L16.8750703,9.48951619 L16.5668926,10.4228022 L16.3237227,11.1599539 L28.9115091,11.1599539 L28.9115091,1.63748819 L28.4000698,1.56399349 L28.396273,1.56340617 C28.3872446,1.56200199 28.3765312,1.56027984 28.3536364,1.55652558 L28.3536364,1.55652558 L28.304551,1.54826103 L28.274801,1.54313186 C28.2056316,1.53136753 28.1378096,1.5213156 28.0632988,1.51898514 L28.0632988,1.51898514 L28.0313723,1.51846945 L27.2222221,1.51807507 L25.8656689,1.51866601 L24.5094723,1.51925695 L24.3357248,1.51924318 L24.2432542,1.51922374 L24.1448437,1.51919288 C22.9919323,1.51876715 21.6728496,1.51597419 20.3384796,1.50369771 Z" id="Fill-7" fill="#393940"></path>
                        <g id="Group-3" transform="translate(24.132315, 34.848673)">
                            <path d="M12.9718631,3.75118114 L9.38433834,0.230558152 C9.23300646,0.0816560122 9.03175268,0 8.81738217,0 C8.60359897,0 8.40195365,0.0816560122 8.25062178,0.230558152 L5.24199527,3.18323956 L0.234339272,8.09758657 C-0.0781130906,8.40442104 -0.0781130906,8.90357944 0.234339272,9.21002965 L3.82205982,12.7314212 C3.97339169,12.879939 4.17464547,12.9617872 4.38882021,12.9617872 C4.60279918,12.9617872 4.8044445,12.879939 4.95577638,12.7314212 L9.44424462,8.3262234 L12.9718631,4.86381635 C13.2845112,4.55717401 13.2845112,4.05801561 12.9718631,3.75118114" id="Fill-10" fill="#FFFFFF"></path>
                            <path d="M9.48875915,5.01785291 C9.2958904,5.20678077 9.04281986,5.30124471 8.79104996,5.30124471 C8.53928007,5.30124471 8.28658114,5.20678077 8.0937124,5.01785291 C7.90140108,4.8291074 7.80459509,4.58072926 7.80440928,4.33344529 C7.80459509,4.0857966 7.90140108,3.83741846 8.0937124,3.64903768 C8.28658114,3.46029217 8.53890846,3.36509879 8.79104996,3.36509879 C9.04281986,3.36509879 9.2958904,3.45956272 9.48875915,3.64922004 C9.68069885,3.83741846 9.77787646,4.0857966 9.77787646,4.33344529 C9.77787646,4.58072926 9.68069885,4.8291074 9.48875915,5.01785291 M12.4828699,4.05169476 L9.07812338,0.710078686 C8.91405489,0.548869965 8.64779197,0.548869965 8.48372347,0.710078686 L4.8023088,4.32323298 L8.80164102,8.24841003 L12.4828699,4.63507338 C12.6471242,4.47422938 12.6471242,4.21290348 12.4828699,4.05169476" id="Fill-12" fill="#F5002E"></path>
                            <path d="M5.1723319,7.95812443 C5.36487029,7.76860886 5.61762338,7.67430709 5.86981893,7.67430709 C6.12201448,7.67430709 6.37513928,7.76860886 6.56712012,7.95812443 C6.76058775,8.14709279 6.85704279,8.39442976 6.85704279,8.64286114 C6.85704279,8.8898333 6.76058775,9.13808228 6.56712012,9.32686823 C6.37513928,9.51474218 6.12201448,9.61013837 5.86981893,9.61013837 C5.61762338,9.61013837 5.36487029,9.51510699 5.17251775,9.32686823 C4.97979351,9.13771747 4.88333847,8.8896509 4.88333847,8.64286114 C4.88333847,8.39497696 4.97979351,8.14709279 5.1723319,7.95812443 L5.1723319,7.95812443 Z M3.67272549,9.28819903 C3.47962956,9.47607298 3.22669061,9.57092197 2.97486676,9.57092197 C2.72192781,9.57055716 2.46973226,9.47625538 2.27700803,9.28819903 C2.08409795,9.09941307 1.98857214,8.8511641 1.98857214,8.60382713 C1.98857214,8.35630776 2.08465549,8.10805879 2.27700803,7.91836082 C2.46973226,7.72993966 2.72192781,7.63527308 2.97486676,7.63527308 C3.22669061,7.63527308 3.48000125,7.72993966 3.67272549,7.91854322 C3.86526387,8.10805879 3.96097552,8.35630776 3.96060491,8.60364473 C3.96060491,8.8511641 3.86507803,9.09977788 3.67272549,9.28819903 L3.67272549,9.28819903 Z M0.723505734,8.32548184 C0.559216222,8.48672512 0.559216222,8.74792463 0.723505734,8.9091679 L4.12898199,12.2520474 C4.21112675,12.3323042 4.31854681,12.372615 4.42615273,12.372615 C4.53375864,12.372615 4.6415504,12.3323042 4.72369516,12.2520474 L8.40404041,8.6393955 L4.40366514,4.71337716 L0.723505734,8.32548184 Z" id="Fill-14" fill="#017AFF"></path>
                        </g>
                        <g id="Group-2" transform="translate(24.732603, 35.437845)"></g>
                    </g>
                </g>
            </g>
        </g>
    </g>
</svg>