<?xml version="1.0" encoding="UTF-8"?>
<svg width="54px" height="54px" viewBox="0 0 54 54" version="1.1" xmlns="http://www.w3.org/2000/svg" xmlns:xlink="http://www.w3.org/1999/xlink">
    <title>spinning wheel/drink_54@1x</title>
    <g id="spinning-wheel/drink_54" stroke="none" stroke-width="1" fill="none" fill-rule="evenodd">
        <g id="icons/side-dishes-copy-12" style="mix-blend-mode: overlay;" transform="translate(15.318250, 6.188641)" fill="#000000" fill-rule="nonzero">
            <path d="M15.4058876,1.77635684e-15 C15.9200838,1.77635684e-15 16.3369221,0.40492867 16.3369221,0.904433498 L16.3369221,5.42660099 C16.3369221,5.92610581 15.9200838,6.33103448 15.4058876,6.33103448 L14.932,6.331 L14.9319911,7.7778073 L15.1424646,7.88890097 C18.1037666,9.48062506 20.0848193,11.4085372 21.0479616,13.686592 L21.1586503,13.9616401 C22.102284,16.4298587 22.5043007,19.7583054 22.3838684,23.9597396 C22.3691352,24.4737247 21.9405244,24.8784483 21.4265394,24.8637151 C20.9125544,24.8489819 20.5078308,24.4203712 20.5225639,23.9063861 C20.5346185,23.4858463 20.5412153,23.075141 20.5423769,22.6742851 L8.50058823,22.6750343 C8.07204216,22.6750343 7.72463693,22.327629 7.72463693,21.899083 C7.72463693,21.4705369 8.07204216,21.1231317 8.50058823,21.1231317 L20.5180575,21.1225299 C20.4233188,18.4546566 20.0543558,16.2875278 19.4193586,14.6265952 C18.6200902,12.5359863 16.6943367,10.7150126 13.5891869,9.18327925 C13.3066232,9.04389395 13.1162003,8.77263783 13.0773725,8.46513353 L13.0700343,8.34830705 L13.0699221,6.46225558 L9.53571523,6.46225558 L9.53574993,8.34830705 C9.53574993,8.69208256 9.34677058,9.00446908 9.05004834,9.16595903 L8.94726188,9.21403631 C6.31248393,10.2565491 4.35895344,12.0083879 3.05487916,14.4968316 C3.00181465,14.5980896 2.95048865,14.7095851 2.90090822,14.8312978 L2.8040769,15.0883398 C2.77257701,15.1785575 2.74185503,15.27331 2.71191306,15.3725915 L2.62442929,15.6840167 L2.54163819,16.0225793 L2.46355235,16.3882431 C2.45093084,16.4514435 2.43850592,16.5157717 2.42627784,16.5812268 L2.35527351,16.9874748 L2.28900595,17.420734 C2.27835678,17.4951927 2.2679055,17.5707754 2.25765238,17.6474814 L2.19851357,18.1211893 L2.144143,18.6218181 L2.09455328,19.1493315 L2.049757,19.7036934 L2.00976676,20.2848679 L1.97459515,20.8928187 L1.93090024,21.8548716 L1.89811811,22.8769682 L1.88234701,23.5916634 L1.86784733,24.7135621 L1.86437381,25.8951797 L1.865,26.089 L9.86449846,26.0895413 C10.2573324,26.0895413 10.5819854,26.3814582 10.6333662,26.7602006 L10.6404498,26.8654926 C10.6404498,27.2940387 10.2930445,27.6414439 9.86449846,27.6414439 L1.878,27.641 L1.89067529,28.4370838 L1.92053532,29.7971267 L1.96159156,31.216401 L2.01388652,32.6947849 L2.10116908,34.7577011 L2.17985307,36.3735335 L2.2699175,38.0480692 L2.37140488,39.7811866 C2.37140488,40.6167554 3.04876718,41.2941176 3.88433592,41.2941176 C4.67592735,41.2941176 5.32552741,40.6861803 5.39171359,39.9117281 L5.40375659,39.6571963 C5.51919586,38.5811374 7.13740701,38.5811374 7.25284627,39.6571963 L7.26488928,39.9117281 C7.32739845,40.6431552 7.91029839,41.2260551 8.64172547,41.2885643 L8.77226695,41.2941176 C9.56385839,41.2941176 10.2134584,40.6861803 10.2796446,39.9117281 L10.2916876,39.6571963 C10.4071269,38.5811374 12.025338,38.5811374 12.1407773,39.6571963 L12.1528203,39.9117281 C12.2153295,40.6431552 12.7982294,41.2260551 13.5296565,41.2885643 L13.660198,41.2941176 C14.4517894,41.2941176 15.1013895,40.6861803 15.1675757,39.9117281 L15.1796187,39.6571963 C15.2950579,38.5811374 16.9132691,38.5811374 17.0287083,39.6571963 L17.0407513,39.9117281 C17.1032605,40.6431552 17.6861605,41.2260551 18.4175875,41.2885643 L18.548129,41.2941176 C19.3397205,41.2941176 19.9893205,40.6861803 20.0560585,39.8821743 L20.5228307,27.4033758 C20.5420271,26.8895381 20.9741365,26.4885521 21.4879742,26.5077484 C21.9651092,26.5255736 22.3449385,26.899431 22.3813957,27.3641555 L22.3836016,27.472892 L21.923129,39.7811866 C21.923129,41.6451476 20.4120901,43.1561866 18.548129,43.1561866 C17.6462124,43.1561866 16.8269258,42.8024054 16.2214714,42.2260451 L16.1041635,42.1087728 L15.9868556,42.2260451 C15.4217648,42.7639814 14.6704025,43.1080265 13.8394407,43.1515084 L13.660198,43.1561866 C12.7582814,43.1561866 11.9389948,42.8024054 11.3335404,42.2260451 L11.2162325,42.1087728 L11.0989245,42.2260451 C10.5338338,42.7639814 9.78247143,43.1080265 8.95150967,43.1515084 L8.77226695,43.1561866 C7.87035032,43.1561866 7.05106373,42.8024054 6.44560937,42.2260451 L6.32830143,42.1087728 L6.2109935,42.2260451 C5.64590276,42.7639814 4.89454039,43.1080265 4.06357863,43.1515084 L3.88433592,43.1561866 C2.02037489,43.1561866 0.509335916,41.6451476 0.511060777,39.8378332 L0.406638632,38.0589373 L0.343571409,36.9070441 L0.258822845,35.2301526 L0.185934158,33.6142697 L0.124947143,32.0592501 L0.0759035963,30.5649484 L0.0388453129,29.131219 L0.0138140886,27.7579165 L0.00085171908,26.4448956 L0,25.1920107 L0.00618096622,24.3900913 L0.0256065437,23.23711 L0.0453444073,22.5016583 L0.0705267017,21.7927182 L0.101165811,21.1102467 L0.157383091,20.1360739 L0.201718417,19.5195854 L0.2515539,18.9294146 L0.306901926,18.3655185 L0.367774877,17.827854 C0.378381468,17.7404268 0.38921878,17.6540909 0.400287071,17.5688452 L0.469470631,17.0704472 C0.481463871,16.9895591 0.493688606,16.9097595 0.506145095,16.8310474 L0.583667128,16.3718191 C0.597051661,16.2974538 0.610668464,16.2241744 0.624517794,16.1519798 L0.710406163,15.7318242 L0.801887571,15.3376631 C0.974738003,14.6388365 1.1758491,14.0708486 1.40556426,13.6325045 C2.80091984,10.9698772 4.86472239,9.01058716 7.57196723,7.77608986 L7.67364626,7.73032454 L7.673,6.331 L7.0265773,6.33103448 C6.54910945,6.33103448 6.15558787,5.9818868 6.10180656,5.53207704 L6.09554281,5.42660099 L6.09554281,0.904433498 C6.09554281,0.40492867 6.51238115,1.77635684e-15 7.0265773,1.77635684e-15 Z M12.8599439,34.4379237 C13.37414,34.4379237 13.7909784,34.854762 13.7909784,35.3689581 C13.7909784,35.8831543 13.37414,36.2999926 12.8599439,36.2999926 C12.3457477,36.2999926 11.9289094,35.8831543 11.9289094,35.3689581 C11.9289094,34.854762 12.3457477,34.4379237 12.8599439,34.4379237 Z M7.2939738,30.5283957 C7.784964,30.5283957 8.18299021,30.9243922 8.18299021,31.4128785 C8.18299021,31.9013648 7.784964,32.2973613 7.2939738,32.2973613 C6.8029836,32.2973613 6.4049574,32.6933577 6.4049574,33.181844 C6.4049574,33.6703304 6.8029836,34.0663268 7.2939738,34.0663268 C7.784964,34.0663268 8.18299021,33.6703304 8.18299021,33.181844 C8.18299021,32.6933577 8.58101641,32.2973613 9.07200661,32.2973613 C9.56299681,32.2973613 9.96102301,32.6933577 9.96102301,33.181844 C9.96102301,34.647303 8.76694441,35.8352923 7.2939738,35.8352923 C5.8210032,35.8352923 4.62692459,34.647303 4.62692459,33.181844 C4.62692459,31.716385 5.8210032,30.5283957 7.2939738,30.5283957 Z M17.3025945,30.715828 C18.2024377,30.715828 18.9319048,31.4452951 18.9319048,32.3451383 C18.9319048,33.2449816 18.2024377,33.9744487 17.3025945,33.9744487 C16.4027512,33.9744487 15.6732841,33.2449816 15.6732841,32.3451383 C15.6732841,31.4452951 16.4027512,30.715828 17.3025945,30.715828 Z M17.3025945,31.8020349 C17.0026467,31.8020349 16.759491,32.0451906 16.759491,32.3451383 C16.759491,32.6450861 17.0026467,32.8882418 17.3025945,32.8882418 C17.6025422,32.8882418 17.8456979,32.6450861 17.8456979,32.3451383 C17.8456979,32.0451906 17.6025422,31.8020349 17.3025945,31.8020349 Z M15.3313446,11.7392491 C16.9079071,12.8379523 17.9123746,13.8787726 18.3358806,14.9037283 C18.7322102,15.8629126 18.9319048,16.8295017 18.9319048,17.7991886 C18.9319048,18.1848358 18.6192761,18.4974645 18.233629,18.4974645 C17.8479819,18.4974645 17.5353531,18.1848358 17.5353531,17.7991886 C17.5353531,17.0163401 17.3729788,16.2303937 17.0451705,15.4370425 C16.7445385,14.7094626 15.9100578,13.8447811 14.5328619,12.8850161 C14.2164671,12.6645212 14.1387248,12.229286 14.3592197,11.9128912 C14.5797146,11.5964964 15.0149498,11.5187541 15.3313446,11.7392491 Z M12.1389998,16.2511722 C12.6531959,16.2511722 13.0700343,16.6680105 13.0700343,17.1822066 C13.0700343,17.6964028 12.6531959,18.1132411 12.1389998,18.1132411 C11.6248037,18.1132411 11.2079653,17.6964028 11.2079653,17.1822066 C11.2079653,16.6680105 11.6248037,16.2511722 12.1389998,16.2511722 Z M9.53574993,12.2214547 C10.0499461,12.2214547 10.4667844,12.638293 10.4667844,13.1524892 C10.4667844,13.6666853 10.0499461,14.0835237 9.53574993,14.0835237 C9.02155378,14.0835237 8.60471545,13.6666853 8.60471545,13.1524892 C8.60471545,12.638293 9.02155378,12.2214547 9.53574993,12.2214547 Z M14.4742734,1.808867 L7.95703198,1.808867 L7.95703198,4.52216749 L14.4742734,4.52216749 L14.4742734,1.808867 Z" id="Combined-Shape"></path>
        </g>
        <g id="icons/side-dishes-copy-12" opacity="0.549291" style="mix-blend-mode: overlay;" transform="translate(15.318250, 6.188641)" fill="#000000" fill-rule="nonzero">
            <path d="M15.4058876,1.77635684e-15 C15.9200838,1.77635684e-15 16.3369221,0.40492867 16.3369221,0.904433498 L16.3369221,5.42660099 C16.3369221,5.92610581 15.9200838,6.33103448 15.4058876,6.33103448 L14.932,6.331 L14.9319911,7.7778073 L15.1424646,7.88890097 C18.1037666,9.48062506 20.0848193,11.4085372 21.0479616,13.686592 L21.1586503,13.9616401 C22.102284,16.4298587 22.5043007,19.7583054 22.3838684,23.9597396 C22.3691352,24.4737247 21.9405244,24.8784483 21.4265394,24.8637151 C20.9125544,24.8489819 20.5078308,24.4203712 20.5225639,23.9063861 C20.5346185,23.4858463 20.5412153,23.075141 20.5423769,22.6742851 L8.50058823,22.6750343 C8.07204216,22.6750343 7.72463693,22.327629 7.72463693,21.899083 C7.72463693,21.4705369 8.07204216,21.1231317 8.50058823,21.1231317 L20.5180575,21.1225299 C20.4233188,18.4546566 20.0543558,16.2875278 19.4193586,14.6265952 C18.6200902,12.5359863 16.6943367,10.7150126 13.5891869,9.18327925 C13.3066232,9.04389395 13.1162003,8.77263783 13.0773725,8.46513353 L13.0700343,8.34830705 L13.0699221,6.46225558 L9.53571523,6.46225558 L9.53574993,8.34830705 C9.53574993,8.69208256 9.34677058,9.00446908 9.05004834,9.16595903 L8.94726188,9.21403631 C6.31248393,10.2565491 4.35895344,12.0083879 3.05487916,14.4968316 C3.00181465,14.5980896 2.95048865,14.7095851 2.90090822,14.8312978 L2.8040769,15.0883398 C2.77257701,15.1785575 2.74185503,15.27331 2.71191306,15.3725915 L2.62442929,15.6840167 L2.54163819,16.0225793 L2.46355235,16.3882431 C2.45093084,16.4514435 2.43850592,16.5157717 2.42627784,16.5812268 L2.35527351,16.9874748 L2.28900595,17.420734 C2.27835678,17.4951927 2.2679055,17.5707754 2.25765238,17.6474814 L2.19851357,18.1211893 L2.144143,18.6218181 L2.09455328,19.1493315 L2.049757,19.7036934 L2.00976676,20.2848679 L1.97459515,20.8928187 L1.93090024,21.8548716 L1.89811811,22.8769682 L1.88234701,23.5916634 L1.86784733,24.7135621 L1.86437381,25.8951797 L1.865,26.089 L9.86449846,26.0895413 C10.2573324,26.0895413 10.5819854,26.3814582 10.6333662,26.7602006 L10.6404498,26.8654926 C10.6404498,27.2940387 10.2930445,27.6414439 9.86449846,27.6414439 L1.878,27.641 L1.89067529,28.4370838 L1.92053532,29.7971267 L1.96159156,31.216401 L2.01388652,32.6947849 L2.10116908,34.7577011 L2.17985307,36.3735335 L2.2699175,38.0480692 L2.37140488,39.7811866 C2.37140488,40.6167554 3.04876718,41.2941176 3.88433592,41.2941176 C4.67592735,41.2941176 5.32552741,40.6861803 5.39171359,39.9117281 L5.40375659,39.6571963 C5.51919586,38.5811374 7.13740701,38.5811374 7.25284627,39.6571963 L7.26488928,39.9117281 C7.32739845,40.6431552 7.91029839,41.2260551 8.64172547,41.2885643 L8.77226695,41.2941176 C9.56385839,41.2941176 10.2134584,40.6861803 10.2796446,39.9117281 L10.2916876,39.6571963 C10.4071269,38.5811374 12.025338,38.5811374 12.1407773,39.6571963 L12.1528203,39.9117281 C12.2153295,40.6431552 12.7982294,41.2260551 13.5296565,41.2885643 L13.660198,41.2941176 C14.4517894,41.2941176 15.1013895,40.6861803 15.1675757,39.9117281 L15.1796187,39.6571963 C15.2950579,38.5811374 16.9132691,38.5811374 17.0287083,39.6571963 L17.0407513,39.9117281 C17.1032605,40.6431552 17.6861605,41.2260551 18.4175875,41.2885643 L18.548129,41.2941176 C19.3397205,41.2941176 19.9893205,40.6861803 20.0560585,39.8821743 L20.5228307,27.4033758 C20.5420271,26.8895381 20.9741365,26.4885521 21.4879742,26.5077484 C21.9651092,26.5255736 22.3449385,26.899431 22.3813957,27.3641555 L22.3836016,27.472892 L21.923129,39.7811866 C21.923129,41.6451476 20.4120901,43.1561866 18.548129,43.1561866 C17.6462124,43.1561866 16.8269258,42.8024054 16.2214714,42.2260451 L16.1041635,42.1087728 L15.9868556,42.2260451 C15.4217648,42.7639814 14.6704025,43.1080265 13.8394407,43.1515084 L13.660198,43.1561866 C12.7582814,43.1561866 11.9389948,42.8024054 11.3335404,42.2260451 L11.2162325,42.1087728 L11.0989245,42.2260451 C10.5338338,42.7639814 9.78247143,43.1080265 8.95150967,43.1515084 L8.77226695,43.1561866 C7.87035032,43.1561866 7.05106373,42.8024054 6.44560937,42.2260451 L6.32830143,42.1087728 L6.2109935,42.2260451 C5.64590276,42.7639814 4.89454039,43.1080265 4.06357863,43.1515084 L3.88433592,43.1561866 C2.02037489,43.1561866 0.509335916,41.6451476 0.511060777,39.8378332 L0.406638632,38.0589373 L0.343571409,36.9070441 L0.258822845,35.2301526 L0.185934158,33.6142697 L0.124947143,32.0592501 L0.0759035963,30.5649484 L0.0388453129,29.131219 L0.0138140886,27.7579165 L0.00085171908,26.4448956 L0,25.1920107 L0.00618096622,24.3900913 L0.0256065437,23.23711 L0.0453444073,22.5016583 L0.0705267017,21.7927182 L0.101165811,21.1102467 L0.157383091,20.1360739 L0.201718417,19.5195854 L0.2515539,18.9294146 L0.306901926,18.3655185 L0.367774877,17.827854 C0.378381468,17.7404268 0.38921878,17.6540909 0.400287071,17.5688452 L0.469470631,17.0704472 C0.481463871,16.9895591 0.493688606,16.9097595 0.506145095,16.8310474 L0.583667128,16.3718191 C0.597051661,16.2974538 0.610668464,16.2241744 0.624517794,16.1519798 L0.710406163,15.7318242 L0.801887571,15.3376631 C0.974738003,14.6388365 1.1758491,14.0708486 1.40556426,13.6325045 C2.80091984,10.9698772 4.86472239,9.01058716 7.57196723,7.77608986 L7.67364626,7.73032454 L7.673,6.331 L7.0265773,6.33103448 C6.54910945,6.33103448 6.15558787,5.9818868 6.10180656,5.53207704 L6.09554281,5.42660099 L6.09554281,0.904433498 C6.09554281,0.40492867 6.51238115,1.77635684e-15 7.0265773,1.77635684e-15 Z M12.8599439,34.4379237 C13.37414,34.4379237 13.7909784,34.854762 13.7909784,35.3689581 C13.7909784,35.8831543 13.37414,36.2999926 12.8599439,36.2999926 C12.3457477,36.2999926 11.9289094,35.8831543 11.9289094,35.3689581 C11.9289094,34.854762 12.3457477,34.4379237 12.8599439,34.4379237 Z M7.2939738,30.5283957 C7.784964,30.5283957 8.18299021,30.9243922 8.18299021,31.4128785 C8.18299021,31.9013648 7.784964,32.2973613 7.2939738,32.2973613 C6.8029836,32.2973613 6.4049574,32.6933577 6.4049574,33.181844 C6.4049574,33.6703304 6.8029836,34.0663268 7.2939738,34.0663268 C7.784964,34.0663268 8.18299021,33.6703304 8.18299021,33.181844 C8.18299021,32.6933577 8.58101641,32.2973613 9.07200661,32.2973613 C9.56299681,32.2973613 9.96102301,32.6933577 9.96102301,33.181844 C9.96102301,34.647303 8.76694441,35.8352923 7.2939738,35.8352923 C5.8210032,35.8352923 4.62692459,34.647303 4.62692459,33.181844 C4.62692459,31.716385 5.8210032,30.5283957 7.2939738,30.5283957 Z M17.3025945,30.715828 C18.2024377,30.715828 18.9319048,31.4452951 18.9319048,32.3451383 C18.9319048,33.2449816 18.2024377,33.9744487 17.3025945,33.9744487 C16.4027512,33.9744487 15.6732841,33.2449816 15.6732841,32.3451383 C15.6732841,31.4452951 16.4027512,30.715828 17.3025945,30.715828 Z M17.3025945,31.8020349 C17.0026467,31.8020349 16.759491,32.0451906 16.759491,32.3451383 C16.759491,32.6450861 17.0026467,32.8882418 17.3025945,32.8882418 C17.6025422,32.8882418 17.8456979,32.6450861 17.8456979,32.3451383 C17.8456979,32.0451906 17.6025422,31.8020349 17.3025945,31.8020349 Z M15.3313446,11.7392491 C16.9079071,12.8379523 17.9123746,13.8787726 18.3358806,14.9037283 C18.7322102,15.8629126 18.9319048,16.8295017 18.9319048,17.7991886 C18.9319048,18.1848358 18.6192761,18.4974645 18.233629,18.4974645 C17.8479819,18.4974645 17.5353531,18.1848358 17.5353531,17.7991886 C17.5353531,17.0163401 17.3729788,16.2303937 17.0451705,15.4370425 C16.7445385,14.7094626 15.9100578,13.8447811 14.5328619,12.8850161 C14.2164671,12.6645212 14.1387248,12.229286 14.3592197,11.9128912 C14.5797146,11.5964964 15.0149498,11.5187541 15.3313446,11.7392491 Z M12.1389998,16.2511722 C12.6531959,16.2511722 13.0700343,16.6680105 13.0700343,17.1822066 C13.0700343,17.6964028 12.6531959,18.1132411 12.1389998,18.1132411 C11.6248037,18.1132411 11.2079653,17.6964028 11.2079653,17.1822066 C11.2079653,16.6680105 11.6248037,16.2511722 12.1389998,16.2511722 Z M9.53574993,12.2214547 C10.0499461,12.2214547 10.4667844,12.638293 10.4667844,13.1524892 C10.4667844,13.6666853 10.0499461,14.0835237 9.53574993,14.0835237 C9.02155378,14.0835237 8.60471545,13.6666853 8.60471545,13.1524892 C8.60471545,12.638293 9.02155378,12.2214547 9.53574993,12.2214547 Z M14.4742734,1.808867 L7.95703198,1.808867 L7.95703198,4.52216749 L14.4742734,4.52216749 L14.4742734,1.808867 Z" id="Combined-Shape"></path>
        </g>
    </g>
</svg>