<?xml version="1.0" encoding="UTF-8"?>
<svg width="54px" height="54px" viewBox="0 0 54 54" version="1.1" xmlns="http://www.w3.org/2000/svg" xmlns:xlink="http://www.w3.org/1999/xlink">
    <title>spinning wheel/dessert_54@1x</title>
    <g id="spinning-wheel/dessert_54" stroke="none" stroke-width="1" fill="none" fill-rule="evenodd">
        <g id="icons/side-dishes-copy-12" style="mix-blend-mode: overlay;" transform="translate(10.241379, 6.517241)" fill="#000000">
            <path d="M31.4173389,20.1438791 C31.2939472,20.6672514 31.0772924,21.1680309 30.9129394,21.6825699 C30.8213688,21.968123 30.6451675,22.0996031 30.3457438,22.1717982 C26.618942,23.0704155 22.8391614,23.5647399 19.0114797,23.7002969 C18.4723816,23.7193224 17.9322678,23.7028449 17.3926619,23.7028449 C12.7168104,23.7730016 8.09444552,23.3019495 3.53826197,22.2285351 C2.17773729,21.9081585 1.48985818,20.5673673 1.9859639,19.2405054 C2.37712745,18.1949499 3.16436311,17.6608756 4.22884927,17.6311482 C5.70210217,17.5902093 7.18144849,17.5903792 8.65233173,17.6765038 C12.0962974,17.8779707 15.5238446,18.355308 18.983213,18.3019685 C21.3066669,18.2661258 23.6047316,18.0446141 25.8130876,17.2567527 C26.2656931,17.0952054 26.7160982,16.9054596 27.1309583,16.6650922 C27.4754057,16.4658336 27.8071584,16.4000936 28.1829191,16.4850291 C28.6658224,16.5942561 29.1664982,16.6533712 29.6285824,16.8205241 C31.2199799,17.395877 31.8069791,18.4905253 31.4173389,20.1438791 M6.91130699,12.7443013 C8.01946264,12.3184349 9.18889098,12.2261949 10.3500255,12.2657749 C12.3638999,12.3344027 14.3786207,12.4494053 16.3855554,12.6303179 C18.464934,12.8176855 20.5228165,12.9128132 22.5370294,12.2204193 C24.0671542,11.6946688 25.0074024,10.933647 25.8394924,9.51114784 C26.6896934,10.3394385 27.4476468,11.1787708 27.7736446,12.31164 C28.0618971,13.3137086 27.736407,14.1369032 26.9449398,14.7795249 C26.1296067,15.4413421 25.1568604,15.758661 24.155001,15.9844194 C21.9491839,16.4812919 19.70596,16.5861023 17.4615513,16.4580196 C14.2867116,16.2767673 11.1166113,16.0100699 7.94414123,15.7855006 C7.37779194,15.745411 6.80754963,15.7508469 6.24323148,15.6951292 C6.10849926,15.6817094 5.93111311,15.5320531 5.87627235,15.4015923 C5.7791162,15.1705678 5.73561597,14.9082871 5.71395048,14.6551794 C5.62745781,13.6481845 5.96885844,13.106636 6.91130699,12.7443013 M12.2518488,6.42340392 C12.9258484,6.36055167 13.6132198,6.42102573 14.2934821,6.45092301 C15.4172098,6.50001571 16.5086086,6.36853561 17.5241781,5.86079139 C18.6646627,5.29036481 19.4302329,4.43761273 19.4556221,3.02190839 C19.6294538,3.1059945 19.7780655,3.1725839 19.9219378,3.24817647 C21.071224,3.85240737 22.1768408,4.52713471 23.0696957,5.48537663 C23.4339466,5.87624965 23.7707772,6.31757433 24.015868,6.79066487 C24.6052368,7.9271014 24.3318794,9.00170492 23.315802,9.7790343 C22.4537527,10.4384733 21.4447844,10.7063597 20.3948547,10.8624711 C18.9446214,11.0782072 17.5064056,10.8590737 16.062435,10.7644556 C14.0089534,10.6300877 11.9525943,10.5426041 9.89742001,10.434906 C9.8141433,10.4303194 9.73120512,10.4219958 9.65402184,10.4158804 C8.99965652,8.38371447 9.72561949,6.65884503 12.2518488,6.42340392 M33.2176052,18.2194113 C32.8362588,16.5278365 31.663276,15.6011906 30.1197795,15.0472415 C29.8454065,14.9487164 29.5647708,14.8673482 29.2716097,14.7734096 C30.0938825,13.252725 29.7658535,11.8450046 28.9732015,10.4831493 C28.2981863,9.32361033 27.3625082,8.3905093 26.3560788,7.52161949 C26.2342104,7.41646938 26.0989704,7.2749669 26.064441,7.12802854 C25.7152544,5.63944957 24.8080122,4.52968277 23.6837767,3.57195046 C21.7362528,1.91299095 19.4398808,0.903448 17.0671718,0.0455997966 C16.6573895,-0.102697527 16.1927664,0.124929522 15.9979463,0.522597372 C15.803634,0.919245997 15.9114537,1.39250641 16.2719808,1.67058513 C16.4402269,1.80036652 16.6374166,1.89379553 16.7985537,2.03088137 C17.1976725,2.37045336 17.6815914,2.69745491 17.5812193,3.30949987 C17.4810164,3.92171471 16.9449649,4.14747318 16.4398883,4.34877023 C15.5978119,4.68392558 14.7162976,4.61750605 13.8332598,4.60136831 C13.0426389,4.58692928 12.2359382,4.58166328 11.4613971,4.71671067 C8.72883797,5.19319863 7.32379749,7.1434868 7.66232068,9.89369718 C7.69143367,10.1301575 7.72765565,10.3655986 7.75964609,10.595434 C4.21429277,11.7558223 3.64117302,12.5455523 4.04553896,15.741504 C3.84936478,15.7741192 3.68281137,15.8011287 3.51642723,15.8298369 C2.65623981,15.9786438 1.88626883,16.3003794 1.28302051,16.9655939 C-0.403332737,18.8250011 -0.428214191,21.1829795 1.21362326,23.0795885 C1.35563373,23.2436838 1.47513242,23.4558526 1.52760351,23.6651336 C2.5333559,27.6672927 3.52218212,31.6735288 4.52658041,35.6760277 C4.71564561,36.4290655 5.05518436,37.1505074 5.58581946,37.7226327 C6.55788878,38.7707363 8.03875846,39.0416804 9.35747553,39.419983 C9.84968824,39.5611457 10.3676287,39.2723652 10.5082851,38.7783805 C10.6491107,38.284226 10.361366,37.7644209 9.86898406,37.6232582 C9.86898406,37.6232582 8.25609034,37.1606996 8.25524404,37.1605297 C7.75947683,37.0183478 7.33496876,36.8826209 6.96073137,36.4927671 C6.61628403,36.1338298 6.40132181,35.6721206 6.28266943,35.1920654 C5.39929318,31.6139041 4.49983708,28.0396498 3.60782849,24.4638667 C3.58413186,24.3692486 3.57448395,24.2712331 3.54994102,24.1251441 C4.35207171,24.2824446 5.12187343,24.4441617 5.89573743,24.5824366 C6.70582342,24.7268269 7.51777128,24.8647621 8.33344289,24.9719507 C8.60933929,25.0081332 8.72037489,25.1144724 8.77183042,25.3776025 C9.31109785,28.1293417 9.85933615,30.8793822 10.405374,33.6299323 C10.4248391,33.7276081 10.4473509,33.8247743 10.4712168,33.9214308 C10.6111961,34.4938959 11.0480603,34.7952469 11.5609229,34.6746385 C12.080556,34.5521616 12.3571295,34.0974171 12.2438935,33.529029 C11.72663,30.9323819 11.2054736,28.3365842 10.6875331,25.740107 C10.6601127,25.6028513 10.6480952,25.4621982 10.6259219,25.300481 C12.3918281,25.4044421 14.1282828,25.5065345 15.9190704,25.6120243 C15.9190704,25.7586229 15.9190704,25.9106574 15.9190704,26.0626919 C15.9197475,28.5292178 15.9231327,30.9957438 15.9182241,33.4622697 C15.9175471,33.8441395 15.9871136,34.2193844 16.3518723,34.3632651 C16.6140585,34.4667165 16.9661226,34.4796267 17.2345715,34.3948611 C17.6035618,34.2781598 17.7352473,33.9231295 17.7345703,33.5332757 C17.7325391,32.0363731 17.7340625,30.5393006 17.7342317,29.0423979 L17.7342317,25.6123641 C19.5204493,25.5063646 21.2460713,25.4039324 23.0361819,25.2975932 C22.9041578,25.9789455 22.7758575,26.6555415 22.6409561,27.3307784 C22.2340512,29.36872 21.8220685,31.4056423 21.417364,33.4440935 C21.2846629,34.1128754 21.5578511,34.5767929 22.1292783,34.6856801 C22.6638064,34.7876027 23.0707112,34.450239 23.201889,33.7957263 C23.7646838,30.9904778 24.3293404,28.1857388 24.8850263,25.3789614 C24.9280187,25.1620362 24.9747349,25.0257998 25.2311662,24.9816333 C26.8105461,24.7096699 28.3868793,24.4183413 29.9642281,24.1348267 C29.9894481,24.1304101 30.0175455,24.1424709 30.0947288,24.1548715 C29.889076,24.993864 29.6869776,25.8292893 29.4794629,26.6633555 C28.7714417,29.5080141 28.0595274,32.3516535 27.3537066,35.1968218 C27.1070924,36.1905667 26.5109531,36.8505153 25.5398994,37.1712316 C23.6942709,37.7810683 21.7882162,38.077493 19.8606651,38.2263 C18.9854134,38.2940785 18.1081306,38.3368859 17.23034,38.3494564 C17.0424596,38.3514948 16.8547485,38.3535333 16.6668681,38.3533634 C15.6441896,38.3526839 14.6252348,38.2167872 13.6050952,38.1607298 C13.0937559,38.1325312 12.652491,38.5291798 12.6245628,39.0423599 C12.6081444,39.3408231 12.7403377,39.6336806 12.9717183,39.8212181 C13.0863084,39.9139677 13.222564,39.9790282 13.3667749,40.0085858 C13.5258808,40.0415407 13.7029284,40.0362747 13.8652503,40.0547907 C14.27791,40.1018449 14.6919239,40.1614696 15.1081381,40.1614696 C15.5426326,40.1782868 15.9774657,40.1827035 16.4122987,40.1827035 C16.4165302,40.1827035 16.4207618,40.1828734 16.4251626,40.1828734 C17.3026147,40.1891586 18.1804053,40.1641875 19.056334,40.1123769 C19.4691631,40.0879155 19.8816536,40.0575086 20.2936363,40.021496 C22.3752154,39.8393943 24.4402068,39.527851 26.4109195,38.7907811 C27.797849,38.2721651 28.6712388,37.2459748 29.0642642,35.8268731 C29.375367,34.7028371 29.6152107,33.5589263 29.9229283,32.4337012 C30.9346048,28.7335726 31.5386995,24.9230278 32.9588042,21.3317865 C33.3489522,20.345346 33.4567718,19.2802552 33.2176052,18.2194113" id="Fill-1"></path>
        </g>
        <g id="icons/side-dishes-copy-12" opacity="0.549291" style="mix-blend-mode: overlay;" transform="translate(10.241379, 6.517241)" fill="#000000">
            <path d="M31.4173389,20.1438791 C31.2939472,20.6672514 31.0772924,21.1680309 30.9129394,21.6825699 C30.8213688,21.968123 30.6451675,22.0996031 30.3457438,22.1717982 C26.618942,23.0704155 22.8391614,23.5647399 19.0114797,23.7002969 C18.4723816,23.7193224 17.9322678,23.7028449 17.3926619,23.7028449 C12.7168104,23.7730016 8.09444552,23.3019495 3.53826197,22.2285351 C2.17773729,21.9081585 1.48985818,20.5673673 1.9859639,19.2405054 C2.37712745,18.1949499 3.16436311,17.6608756 4.22884927,17.6311482 C5.70210217,17.5902093 7.18144849,17.5903792 8.65233173,17.6765038 C12.0962974,17.8779707 15.5238446,18.355308 18.983213,18.3019685 C21.3066669,18.2661258 23.6047316,18.0446141 25.8130876,17.2567527 C26.2656931,17.0952054 26.7160982,16.9054596 27.1309583,16.6650922 C27.4754057,16.4658336 27.8071584,16.4000936 28.1829191,16.4850291 C28.6658224,16.5942561 29.1664982,16.6533712 29.6285824,16.8205241 C31.2199799,17.395877 31.8069791,18.4905253 31.4173389,20.1438791 M6.91130699,12.7443013 C8.01946264,12.3184349 9.18889098,12.2261949 10.3500255,12.2657749 C12.3638999,12.3344027 14.3786207,12.4494053 16.3855554,12.6303179 C18.464934,12.8176855 20.5228165,12.9128132 22.5370294,12.2204193 C24.0671542,11.6946688 25.0074024,10.933647 25.8394924,9.51114784 C26.6896934,10.3394385 27.4476468,11.1787708 27.7736446,12.31164 C28.0618971,13.3137086 27.736407,14.1369032 26.9449398,14.7795249 C26.1296067,15.4413421 25.1568604,15.758661 24.155001,15.9844194 C21.9491839,16.4812919 19.70596,16.5861023 17.4615513,16.4580196 C14.2867116,16.2767673 11.1166113,16.0100699 7.94414123,15.7855006 C7.37779194,15.745411 6.80754963,15.7508469 6.24323148,15.6951292 C6.10849926,15.6817094 5.93111311,15.5320531 5.87627235,15.4015923 C5.7791162,15.1705678 5.73561597,14.9082871 5.71395048,14.6551794 C5.62745781,13.6481845 5.96885844,13.106636 6.91130699,12.7443013 M12.2518488,6.42340392 C12.9258484,6.36055167 13.6132198,6.42102573 14.2934821,6.45092301 C15.4172098,6.50001571 16.5086086,6.36853561 17.5241781,5.86079139 C18.6646627,5.29036481 19.4302329,4.43761273 19.4556221,3.02190839 C19.6294538,3.1059945 19.7780655,3.1725839 19.9219378,3.24817647 C21.071224,3.85240737 22.1768408,4.52713471 23.0696957,5.48537663 C23.4339466,5.87624965 23.7707772,6.31757433 24.015868,6.79066487 C24.6052368,7.9271014 24.3318794,9.00170492 23.315802,9.7790343 C22.4537527,10.4384733 21.4447844,10.7063597 20.3948547,10.8624711 C18.9446214,11.0782072 17.5064056,10.8590737 16.062435,10.7644556 C14.0089534,10.6300877 11.9525943,10.5426041 9.89742001,10.434906 C9.8141433,10.4303194 9.73120512,10.4219958 9.65402184,10.4158804 C8.99965652,8.38371447 9.72561949,6.65884503 12.2518488,6.42340392 M33.2176052,18.2194113 C32.8362588,16.5278365 31.663276,15.6011906 30.1197795,15.0472415 C29.8454065,14.9487164 29.5647708,14.8673482 29.2716097,14.7734096 C30.0938825,13.252725 29.7658535,11.8450046 28.9732015,10.4831493 C28.2981863,9.32361033 27.3625082,8.3905093 26.3560788,7.52161949 C26.2342104,7.41646938 26.0989704,7.2749669 26.064441,7.12802854 C25.7152544,5.63944957 24.8080122,4.52968277 23.6837767,3.57195046 C21.7362528,1.91299095 19.4398808,0.903448 17.0671718,0.0455997966 C16.6573895,-0.102697527 16.1927664,0.124929522 15.9979463,0.522597372 C15.803634,0.919245997 15.9114537,1.39250641 16.2719808,1.67058513 C16.4402269,1.80036652 16.6374166,1.89379553 16.7985537,2.03088137 C17.1976725,2.37045336 17.6815914,2.69745491 17.5812193,3.30949987 C17.4810164,3.92171471 16.9449649,4.14747318 16.4398883,4.34877023 C15.5978119,4.68392558 14.7162976,4.61750605 13.8332598,4.60136831 C13.0426389,4.58692928 12.2359382,4.58166328 11.4613971,4.71671067 C8.72883797,5.19319863 7.32379749,7.1434868 7.66232068,9.89369718 C7.69143367,10.1301575 7.72765565,10.3655986 7.75964609,10.595434 C4.21429277,11.7558223 3.64117302,12.5455523 4.04553896,15.741504 C3.84936478,15.7741192 3.68281137,15.8011287 3.51642723,15.8298369 C2.65623981,15.9786438 1.88626883,16.3003794 1.28302051,16.9655939 C-0.403332737,18.8250011 -0.428214191,21.1829795 1.21362326,23.0795885 C1.35563373,23.2436838 1.47513242,23.4558526 1.52760351,23.6651336 C2.5333559,27.6672927 3.52218212,31.6735288 4.52658041,35.6760277 C4.71564561,36.4290655 5.05518436,37.1505074 5.58581946,37.7226327 C6.55788878,38.7707363 8.03875846,39.0416804 9.35747553,39.419983 C9.84968824,39.5611457 10.3676287,39.2723652 10.5082851,38.7783805 C10.6491107,38.284226 10.361366,37.7644209 9.86898406,37.6232582 C9.86898406,37.6232582 8.25609034,37.1606996 8.25524404,37.1605297 C7.75947683,37.0183478 7.33496876,36.8826209 6.96073137,36.4927671 C6.61628403,36.1338298 6.40132181,35.6721206 6.28266943,35.1920654 C5.39929318,31.6139041 4.49983708,28.0396498 3.60782849,24.4638667 C3.58413186,24.3692486 3.57448395,24.2712331 3.54994102,24.1251441 C4.35207171,24.2824446 5.12187343,24.4441617 5.89573743,24.5824366 C6.70582342,24.7268269 7.51777128,24.8647621 8.33344289,24.9719507 C8.60933929,25.0081332 8.72037489,25.1144724 8.77183042,25.3776025 C9.31109785,28.1293417 9.85933615,30.8793822 10.405374,33.6299323 C10.4248391,33.7276081 10.4473509,33.8247743 10.4712168,33.9214308 C10.6111961,34.4938959 11.0480603,34.7952469 11.5609229,34.6746385 C12.080556,34.5521616 12.3571295,34.0974171 12.2438935,33.529029 C11.72663,30.9323819 11.2054736,28.3365842 10.6875331,25.740107 C10.6601127,25.6028513 10.6480952,25.4621982 10.6259219,25.300481 C12.3918281,25.4044421 14.1282828,25.5065345 15.9190704,25.6120243 C15.9190704,25.7586229 15.9190704,25.9106574 15.9190704,26.0626919 C15.9197475,28.5292178 15.9231327,30.9957438 15.9182241,33.4622697 C15.9175471,33.8441395 15.9871136,34.2193844 16.3518723,34.3632651 C16.6140585,34.4667165 16.9661226,34.4796267 17.2345715,34.3948611 C17.6035618,34.2781598 17.7352473,33.9231295 17.7345703,33.5332757 C17.7325391,32.0363731 17.7340625,30.5393006 17.7342317,29.0423979 L17.7342317,25.6123641 C19.5204493,25.5063646 21.2460713,25.4039324 23.0361819,25.2975932 C22.9041578,25.9789455 22.7758575,26.6555415 22.6409561,27.3307784 C22.2340512,29.36872 21.8220685,31.4056423 21.417364,33.4440935 C21.2846629,34.1128754 21.5578511,34.5767929 22.1292783,34.6856801 C22.6638064,34.7876027 23.0707112,34.450239 23.201889,33.7957263 C23.7646838,30.9904778 24.3293404,28.1857388 24.8850263,25.3789614 C24.9280187,25.1620362 24.9747349,25.0257998 25.2311662,24.9816333 C26.8105461,24.7096699 28.3868793,24.4183413 29.9642281,24.1348267 C29.9894481,24.1304101 30.0175455,24.1424709 30.0947288,24.1548715 C29.889076,24.993864 29.6869776,25.8292893 29.4794629,26.6633555 C28.7714417,29.5080141 28.0595274,32.3516535 27.3537066,35.1968218 C27.1070924,36.1905667 26.5109531,36.8505153 25.5398994,37.1712316 C23.6942709,37.7810683 21.7882162,38.077493 19.8606651,38.2263 C18.9854134,38.2940785 18.1081306,38.3368859 17.23034,38.3494564 C17.0424596,38.3514948 16.8547485,38.3535333 16.6668681,38.3533634 C15.6441896,38.3526839 14.6252348,38.2167872 13.6050952,38.1607298 C13.0937559,38.1325312 12.652491,38.5291798 12.6245628,39.0423599 C12.6081444,39.3408231 12.7403377,39.6336806 12.9717183,39.8212181 C13.0863084,39.9139677 13.222564,39.9790282 13.3667749,40.0085858 C13.5258808,40.0415407 13.7029284,40.0362747 13.8652503,40.0547907 C14.27791,40.1018449 14.6919239,40.1614696 15.1081381,40.1614696 C15.5426326,40.1782868 15.9774657,40.1827035 16.4122987,40.1827035 C16.4165302,40.1827035 16.4207618,40.1828734 16.4251626,40.1828734 C17.3026147,40.1891586 18.1804053,40.1641875 19.056334,40.1123769 C19.4691631,40.0879155 19.8816536,40.0575086 20.2936363,40.021496 C22.3752154,39.8393943 24.4402068,39.527851 26.4109195,38.7907811 C27.797849,38.2721651 28.6712388,37.2459748 29.0642642,35.8268731 C29.375367,34.7028371 29.6152107,33.5589263 29.9229283,32.4337012 C30.9346048,28.7335726 31.5386995,24.9230278 32.9588042,21.3317865 C33.3489522,20.345346 33.4567718,19.2802552 33.2176052,18.2194113" id="Fill-1"></path>
        </g>
    </g>
</svg>