<?xml version="1.0" encoding="UTF-8"?>
<svg width="375px" height="238px" viewBox="0 0 375 238" version="1.1" xmlns="http://www.w3.org/2000/svg" xmlns:xlink="http://www.w3.org/1999/xlink">
    <title>Group 2</title>
    <defs>
        <filter x="-28.3%" y="-66.0%" width="156.7%" height="231.9%" filterUnits="objectBoundingBox" id="filter-1">
            <feGaussianBlur stdDeviation="20.341125" in="SourceGraphic"></feGaussianBlur>
        </filter>
        <linearGradient x1="50%" y1="0.837409343%" x2="50%" y2="95.169578%" id="linearGradient-2">
            <stop stop-color="#0188EE" offset="0%"></stop>
            <stop stop-color="#E90033" offset="100%"></stop>
        </linearGradient>
        <filter x="-23.1%" y="-53.1%" width="146.3%" height="206.1%" filterUnits="objectBoundingBox" id="filter-3">
            <feGaussianBlur stdDeviation="20.341125" in="SourceGraphic"></feGaussianBlur>
        </filter>
        <path d="M29.1797639,32 C20.6723834,32 15.0709074,36.7427327 15.0709074,44.6513578 C15.0709074,48.0003543 16.2039238,50.6136957 18.3225747,52.5566129 C19.9817092,54.0781287 22.0958662,55.1045409 24.9786538,55.9987125 L25.2935301,56.0949742 L25.8213353,56.2507149 L26.4429003,56.4267088 L26.7961493,56.5239866 L28.8096186,57.0640644 L29.3754922,57.2148593 L29.7296139,57.3129401 L30.2269654,57.4566694 L30.5364807,57.5503918 L30.9685351,57.6881117 L31.3629593,57.8227329 L31.6055764,57.9109467 L31.8323289,57.9980651 L32.0435609,58.0842007 C32.0774919,58.0984809 32.1107906,58.112725 32.1434642,58.1269351 L32.3320603,58.2118077 L32.5059959,58.2959792 L32.6656149,58.3795622 L32.8112613,58.4626694 C33.3663606,58.7942971 33.5943744,59.11721 33.5943744,59.4638578 C33.5943744,60.3462671 32.590851,60.9151358 30.2983308,60.9151358 C28.741009,60.9151358 26.591617,59.7433825 23.9425223,57.3040669 C22.6254536,56.0912884 20.7144948,55.9290865 19.231422,56.9041899 L16.8780112,58.4515306 C15.0125477,59.6780439 14.4403409,62.2718487 15.5999535,64.2449479 C15.795496,64.5776664 16.0340227,64.8798621 16.3086188,65.1427744 C20.7078741,69.354845 25.2461375,71.5 29.8956467,71.5 C39.8126148,71.5 45.3020408,66.3127704 45.3020408,58.8013179 C45.3020408,55.4046925 44.1066811,52.7369333 41.8908109,50.7471266 C40.2175986,49.2446157 38.0929622,48.2020411 35.2930877,47.3244872 L34.817928,47.1788854 L34.196464,46.9968202 L33.6054389,46.8332636 L32.7775877,46.6152817 L31.4960459,46.288052 L30.9341843,46.1382349 L30.5829082,46.0407426 L30.2498477,45.9449929 L29.9346403,45.8508433 L29.6369236,45.7581513 L29.356335,45.6667747 L29.0925121,45.576571 L28.8450923,45.4873979 L28.613713,45.3991128 L28.3980119,45.3115735 L28.1976264,45.2246376 L28.012194,45.1381626 C27.9825145,45.1237806 27.953443,45.1094118 27.9249719,45.0950534 L27.7612894,45.0090028 C27.7090899,44.9803447 27.6592314,44.951704 27.6116537,44.9230572 L27.4757024,44.8370741 C26.9803206,44.5072185 26.7785738,44.1733989 26.7785738,43.7995208 C26.7785738,43.1892994 27.3263976,42.8214856 29.1350213,42.8214856 C30.3507288,42.8214856 32.2235524,43.7399048 34.6429904,45.6469851 C36.1086688,46.8022734 38.1301453,46.7521141 39.5429854,45.5254011 L41.719609,43.635525 C43.4173492,42.1614404 43.6638483,39.5107608 42.2701808,37.7150624 C42.086174,37.4779752 41.878202,37.2628866 41.6499748,37.0736334 C37.5922038,33.7088019 33.426225,32 29.1797639,32 Z M29.1797639,33.577476 C33.07096,33.577476 36.9209686,35.1566732 40.7297895,38.3150675 C40.8724315,38.4333507 41.0024139,38.5677811 41.1174181,38.7159605 C41.9628415,39.8052629 41.8425738,41.3979578 40.8645798,42.3330817 L40.7733114,42.4162491 L38.5966877,44.3061252 C37.7136622,45.0728212 36.4502387,45.1041699 35.5341917,44.3821163 C32.8800632,42.2900452 30.7470064,41.2440096 29.1350213,41.2440096 C26.5846888,41.2440096 25.2871513,42.1431709 25.2871513,43.7995208 C25.2871513,45.304765 26.3806132,46.1918513 28.0413127,46.8620401 L28.3155043,46.9688815 L28.5991415,47.0723007 C28.6471738,47.0892732 28.6955789,47.1061189 28.7443464,47.1228458 L29.0412171,47.2218447 L29.3462867,47.318372 L29.8181733,47.4593605 L30.1415586,47.5513724 L30.8071914,47.7323542 L31.3113988,47.8633761 L32.1407872,48.0744431 L32.9895179,48.2963426 L33.6778512,48.4845477 L34.1972657,48.6333777 L34.5442316,48.7367684 L35.0646246,48.8987976 L35.4108804,49.0118467 L35.7560892,49.1292401 L36.099815,49.2512528 L36.4416219,49.3781596 C36.4984056,49.3997338 36.5550912,49.4215235 36.6116696,49.4435342 L36.9497806,49.5782974 L37.2848829,49.718642 L37.6165403,49.8648426 C41.0243668,51.4067854 43.8106183,53.9307029 43.8106183,58.8013179 C43.8106183,64.3855831 40.0969764,69.922524 29.8956467,69.922524 C25.6473055,69.922524 21.4519275,67.9394448 17.3095128,63.9732863 C17.1378901,63.8089661 16.9888109,63.6200937 16.8665967,63.4121444 C16.1625463,62.2141916 16.479915,60.6501491 17.5674342,59.8590278 L17.665384,59.7912578 L20.0187948,58.2439171 C20.9457148,57.6344778 22.1400634,57.7358532 22.9632331,58.4938414 C25.8583409,61.1596883 28.3033734,62.4926118 30.2983308,62.4926118 C33.0276339,62.4926118 35.0857969,61.6407748 35.0857969,59.4638578 C35.0857969,58.0980957 34.0904824,57.2497835 32.5659909,56.601189 L32.2995527,56.4918984 C32.20907,56.4560809 32.1169464,56.4208562 32.0232688,56.386165 L31.7376611,56.2836331 L31.4432514,56.1839468 L31.1405616,56.0867505 L30.8301135,55.9916885 L30.3510361,55.8523191 L29.8574381,55.7157509 L27.5109069,55.0893433 L26.825384,54.9019898 L26.4804964,54.8052011 C26.2232981,54.732236 25.9653996,54.6571999 25.7076029,54.5795146 L25.2438523,54.436695 L24.7813615,54.2874034 L24.4742475,54.1839101 L24.1684635,54.0769851 L23.8643176,53.9664065 L23.5621178,53.8519522 L23.2621721,53.7334 C23.2123862,53.7132875 23.1627069,53.692995 23.1131409,53.6725179 L22.817154,53.5474026 L22.5241914,53.4176343 L22.234561,53.282991 L21.948571,53.1432505 C21.9012265,53.1195233 21.8540465,53.0955745 21.8070374,53.0713994 L21.5270855,52.9235967 C21.4344862,52.8733995 21.3426219,52.8222602 21.2515441,52.7701418 L20.9807212,52.6108124 C18.4312915,51.0685763 16.5623299,48.7010275 16.5623299,44.6513578 C16.5623299,37.5053914 21.6629947,33.577476 29.1797639,33.577476 Z M62.8842465,32.556338 C67.4060544,32.556338 70.8023226,33.1837299 73.4835525,34.865075 C76.9110677,37.0144006 78.7387755,40.7349995 78.7387755,46.1346642 C78.7387755,51.5104563 76.7975128,55.2472658 73.2498395,57.4135142 C70.5314368,59.0734009 67.1255427,59.7129903 62.8842465,59.7129903 L60.8351234,59.7129903 L60.8351234,66.7136538 C60.8351234,69.0057442 59.1161346,70.8720389 56.970796,70.9416491 L56.8465626,70.943662 L52.9477444,70.943662 C50.7449232,70.943662 48.9591837,69.0498228 48.9591837,66.7136538 L48.9591837,34.1425911 C48.9591837,33.2665277 49.628836,32.556338 50.454894,32.556338 Z M62.8842465,34.1425911 L50.454894,34.1425911 L50.454894,66.7136538 L50.4571971,66.8283344 C50.5138159,68.2352371 51.6072118,69.3574089 52.9477444,69.3574089 L56.8465626,69.3574089 L56.9546973,69.3549663 C58.2812944,69.2949201 59.3394131,68.1353356 59.3394131,66.7136538 L59.3394131,58.1267373 L63.0798313,58.1262589 L63.4732032,58.1223006 L63.8691436,58.1140492 L64.2672109,58.1011552 C64.3337082,58.0985999 64.4002757,58.0958366 64.4669042,58.092858 L64.8673339,58.0723447 L65.0679601,58.0600412 L65.4697589,58.0311223 L65.8719184,57.9961629 C65.9389505,57.9898135 66.0059793,57.9831979 66.0729955,57.9763087 L66.4748683,57.9316331 L66.8759981,57.8800432 C72.2174787,57.1445294 77.2430652,54.4720102 77.2430652,46.1346642 C77.2430652,37.7973181 72.5908079,35.124799 67.0999956,34.3892852 L66.686672,34.3376953 L66.1661401,34.2828901 L66.0615726,34.2731655 L65.6419517,34.238206 C65.5718472,34.2328925 65.5016638,34.2278307 65.431409,34.2230134 L65.0090824,34.1969837 L64.7973879,34.1860594 L64.37316,34.1681732 L63.9481115,34.1552791 L63.3097823,34.1445338 L62.8842465,34.1425911 Z M63.152381,42.0140845 C67.2013605,42.0140845 68.2897959,43.8412157 68.2897959,46.4647887 C68.2897959,49.0883617 67.2013605,50.915493 63.152381,50.915493 L59.4081633,50.915493 L59.4081633,42.0140845 L63.152381,42.0140845 Z M63.152381,43.5757351 L60.8594104,43.5757351 L60.8594104,49.3538424 L63.308791,49.353059 L63.6091555,49.3467351 C63.8039273,49.3403793 63.987843,49.3297101 64.1614204,49.3145239 L64.4140973,49.2883313 C66.2928337,49.0611589 66.8385488,48.2231546 66.8385488,46.4647887 C66.8385488,44.7064229 66.2928337,43.8684186 64.4140973,43.6412462 L64.1614204,43.6150536 C63.987843,43.5998674 63.8039273,43.5891981 63.6091555,43.5828424 L63.308791,43.5765185 L63.152381,43.5757351 Z M90.4068027,32.556338 L86.4013605,32.556338 C84.1892159,32.556338 82.3959184,34.4501772 82.3959184,36.7863462 L82.3959184,66.7136538 C82.3959184,69.0498228 84.1892159,70.943662 86.4013605,70.943662 L90.4068027,70.943662 C92.6189474,70.943662 94.4122449,69.0498228 94.4122449,66.7136538 L94.4122449,36.7863462 C94.4122449,34.4501772 92.6189474,32.556338 90.4068027,32.556338 Z M90.4068027,34.1425911 C91.7530092,34.1425911 92.8510327,35.2647629 92.9078912,36.6716656 L92.9102041,36.7863462 L92.9102041,66.7136538 C92.9102041,68.1353356 91.847607,69.2949201 90.5153951,69.3549663 L90.4068027,69.3574089 L86.4013605,69.3574089 C85.0551541,69.3574089 83.9571305,68.2352371 83.9002721,66.8283344 L83.8979592,66.7136538 L83.8979592,36.7863462 C83.8979592,35.3646644 84.9605563,34.2050799 86.2927682,34.1450337 L86.4013605,34.1425911 L90.4068027,34.1425911 Z M107.610889,32.556338 L102.592681,32.556338 C100.383076,32.556338 98.5918367,34.4501772 98.5918367,36.7863462 L98.5918367,66.7136538 C98.5918367,69.0498228 100.383076,70.943662 102.592681,70.943662 L105.828364,70.943662 L105.95298,70.9416491 C108.104926,70.8720389 109.829209,69.0057442 109.829209,66.7136538 L109.829209,54.759122 L119.175503,69.112218 C119.922058,70.2588058 121.154377,70.943662 122.470972,70.943662 L126.982829,70.943662 C129.192434,70.943662 130.983673,69.0498228 130.983673,66.7136538 L130.983673,36.7863462 C130.983673,34.4501772 129.192434,32.556338 126.982829,32.556338 L123.747146,32.556338 L123.62253,32.5583509 C121.470584,32.6279611 119.746302,34.4942558 119.746302,36.7863462 L119.746302,48.5944139 L110.95336,34.4616203 C110.213403,33.2723488 108.957293,32.556338 107.610889,32.556338 Z M107.610889,34.1425911 C108.41232,34.1425911 109.162564,34.5484929 109.6317,35.2292361 L109.699933,35.3333925 L121.246618,53.8914416 L121.246618,36.7863462 C121.246618,35.3646644 122.307996,34.2050799 123.638678,34.1450337 L123.747146,34.1425911 L126.982829,34.1425911 C128.32749,34.1425911 129.424253,35.2647629 129.481047,36.6716656 L129.483357,36.7863462 L129.483357,66.7136538 C129.483357,68.1353356 128.421979,69.2949201 127.091297,69.3549663 L126.982829,69.3574089 L122.470972,69.3574089 C121.689244,69.3574089 120.955053,68.9711072 120.483539,68.3180672 L120.411304,68.2127564 L108.328892,49.656146 L108.328892,66.7136538 C108.328892,68.1353356 107.267514,69.2949201 105.936832,69.3549663 L105.828364,69.3574089 L102.592681,69.3574089 C101.24802,69.3574089 100.151257,68.2352371 100.094464,66.8283344 L100.092153,66.7136538 L100.092153,36.7863462 C100.092153,35.3646644 101.153531,34.2050799 102.484213,34.1450337 L102.592681,34.1425911 L107.610889,34.1425911 Z M154.264068,32 C161.031937,32 164.338816,35.3676745 165.00346,41.441161 C165.470355,45.7076341 162.841276,49.3065551 158.504471,52.0398182 L158.483275,52.0534012 L158.672264,52.2949923 L159.251883,53.0205946 L159.687404,53.559135 L159.944343,53.8722311 L160.016286,53.58267 L160.118111,53.1549274 L160.221172,52.7026532 C160.644845,50.8039767 162.246694,49.4626585 164.090485,49.4626597 L166.406684,49.4626597 C166.7342,49.4626597 167.060461,49.5054805 167.37805,49.5901487 C169.507224,50.1577782 170.798364,52.4442178 170.261888,54.6970484 C169.766465,56.7775079 169.23603,58.5478368 168.664576,60.0135605 L168.600923,60.173722 L168.839622,60.2190592 C169.03342,60.2550792 169.23801,60.2903162 169.453253,60.3246829 L169.897902,60.3922303 L170.130803,60.4250853 L170.340342,60.4533105 C172.330592,60.7156863 173.82449,62.5055056 173.82449,64.6276345 L173.82449,66.8154578 C173.82449,66.9818284 173.815162,67.1480525 173.796555,67.3132541 C173.53672,69.6201741 171.558609,71.2674308 169.378321,70.9925029 L168.703135,70.9044516 L168.049584,70.8132763 C167.835333,70.7823585 167.624676,70.7509122 167.417604,70.7189293 L166.807128,70.6213632 L166.218093,70.5205304 C164.097521,70.1447634 162.408002,69.7021614 161.135061,69.1821879 L161.117173,69.1753261 L161.065086,69.2057996 C158.510879,70.6733751 155.547413,71.4505764 152.095012,71.4977183 L151.75938,71.5 C142.704264,71.5 137.253061,67.4581093 137.253061,60.5996406 C137.253061,55.3332084 139.567427,52.120617 144.101636,49.5932716 L144.284576,49.4926318 L144.130692,49.1097082 C143.273292,46.9257448 142.797026,44.8622703 142.757156,42.9273379 L142.75443,42.663738 C142.75443,36.4686105 147.081482,32 154.264068,32 Z M154.264068,33.577476 C147.286723,33.577476 144.245316,37.9786342 144.245316,42.663738 C144.245316,45.0772764 145.050394,47.6801118 146.258011,50.235623 L146.104851,50.3097163 L145.799787,50.460056 L145.48829,50.6178126 L145.179227,50.7791595 L144.872965,50.9444045 C144.822176,50.9722873 144.771518,51.0003454 144.721,51.0285851 L144.419631,51.2002547 L144.121982,51.3765922 L143.828421,51.5579056 C143.682724,51.6498576 143.538698,51.743791 143.39655,51.839879 L143.114818,52.0349792 C140.602865,53.8176596 138.743947,56.3358458 138.743947,60.5996406 C138.743947,66.2785543 143.216604,69.922524 151.75938,69.922524 C155.605865,69.922524 158.602546,68.9760383 161.017781,67.4143371 C161.4815,67.648678 162.040806,67.8702703 162.6957,68.079114 L163.062395,68.1917644 C163.689353,68.3774078 164.395309,68.5525151 165.180263,68.7170863 L165.660715,68.8145647 L166.160127,68.9095144 L166.678498,69.0019355 L167.215829,69.0918279 L167.77212,69.1791917 L168.34737,69.2640268 L168.941579,69.3463332 L169.554748,69.426111 C170.917429,69.597941 172.153748,68.5684054 172.316144,67.1265805 C172.327774,67.0233295 172.333604,66.9194394 172.333604,66.8154578 L172.333604,64.6276345 L172.331049,64.5076521 C172.276729,63.2343863 171.362224,62.1776988 170.156011,62.0186831 L169.692547,61.9546956 L169.252838,61.8880623 C168.896311,61.8314321 168.56453,61.772046 168.257493,61.7099038 L167.900927,61.6340103 C167.843479,61.6211409 167.78702,61.6081613 167.731552,61.5950714 L167.410618,61.5152092 C167.050053,61.4204934 166.737988,61.3203757 166.474423,61.2148562 C167.258941,59.7294448 167.986282,57.6466131 168.656445,54.966361 L168.816187,54.31163 C169.151484,52.9036088 168.344522,51.4745848 167.013788,51.1198164 C166.815294,51.0668988 166.611381,51.0401358 166.406684,51.0401358 L164.090485,51.0401358 L163.979457,51.0427363 C162.874291,51.0945829 161.928418,51.9167387 161.672164,53.0651316 L161.55764,53.5669573 C161.538633,53.6483312 161.519667,53.7285734 161.500741,53.8076837 L161.387669,54.2687638 C161.350141,54.4179299 161.312773,54.5625687 161.275567,54.7026803 L161.164433,55.109433 C161.145992,55.1749615 161.127591,55.2393582 161.10923,55.302623 L160.999549,55.6686303 C160.853954,56.1385308 160.710943,56.5359948 160.570515,56.8610224 C159.631257,55.9145367 158.736726,54.8260783 157.797467,53.6429712 L157.475794,53.240147 C157.04785,52.6964856 156.625631,52.1285942 156.232037,51.5607029 C156.283597,51.533097 156.335227,51.5052137 156.386912,51.4770536 L156.697599,51.304781 L157.009005,51.1259128 L157.320497,50.9404929 C157.424272,50.8775992 157.527955,50.8136208 157.631442,50.7485652 L157.941205,50.5501736 L158.249152,50.3453621 C158.351428,50.2760265 158.453296,50.2056282 158.554649,50.1341745 L158.857064,49.9166547 C161.613125,47.8938349 163.900652,45.0784299 163.522469,41.6226038 C163.517088,41.57343 163.511517,41.5243747 163.505753,41.4754411 L163.468818,41.1833259 L163.427062,40.8942873 C163.412319,40.7984711 163.396742,40.7031934 163.3803,40.6084803 L163.328352,40.3260603 C163.291951,40.1389438 163.251969,39.9541887 163.208165,39.772002 L163.13956,39.5006743 C163.115716,39.410891 163.090885,39.3217757 163.065038,39.2333543 L162.984417,38.9701975 C161.965676,35.7944114 159.552013,33.577476 154.264068,33.577476 Z M148.561036,55.0010636 C148.884654,54.7058417 149.37869,54.7587513 149.638771,55.1164854 L151.633205,57.8601227 L151.996916,58.3343319 L152.513121,58.9962196 L152.840042,59.4070369 L153.155076,59.7955087 L153.459839,60.1633558 L153.755946,60.5122989 L154.045015,60.8440589 L154.328661,61.1603564 C154.375574,61.2118797 154.422327,61.2628305 154.468956,61.3132445 L154.747499,61.6095748 L155.02466,61.8947445 C155.116997,61.9881322 155.209372,62.0799465 155.302056,62.1704744 C155.689083,62.5484996 155.586158,63.2177259 155.105442,63.4488702 C153.965053,63.9972071 152.749966,64.2676056 151.498892,64.2676056 C148.717014,64.2676056 146.657143,62.235629 146.657143,59.1414292 C146.657143,57.4871595 147.311644,56.1408242 148.561036,55.0010636 Z M148.973063,56.7705077 L148.898252,56.8664114 C148.389362,57.5373402 148.142342,58.2722205 148.142342,59.1414292 C148.142342,61.3529371 149.517525,62.7094973 151.498892,62.7094973 C152.093393,62.7094973 152.675983,62.6365497 153.24219,62.4893778 L153.437077,62.4357896 L153.306318,62.2932762 C153.256246,62.2385804 153.206044,62.1833078 153.155674,62.1274179 L152.851123,61.7843446 C152.799925,61.7258226 152.748482,61.6666019 152.696756,61.6066419 L152.382686,61.2376849 C152.329672,61.1746051 152.276297,61.1107046 152.222523,61.045943 L151.89479,60.6467129 L151.555644,60.2248623 L151.203243,59.7784402 C151.143303,59.7018806 151.082734,59.6242158 151.021497,59.5454053 L150.64576,59.0584682 L150.462875,58.8192507 L148.973063,56.7705077 Z M151.629454,41.5532228 C152.094454,39.3655737 153.615467,38.4454379 155.340321,38.812067 C157.077318,39.1812771 157.661835,40.8143511 157.290325,42.5621702 C156.797343,44.8814684 155.318992,46.3609542 152.918008,47.2721754 C152.486011,47.4361269 152.012356,47.1856416 151.898496,46.7330213 C151.41802,44.8230234 151.313112,43.0414991 151.629454,41.5532228 Z M155.01102,40.3613036 C154.098264,40.1672912 153.425456,40.5743054 153.148739,41.8761568 C152.940864,42.854132 152.95736,44.0358636 153.189884,45.3344911 L153.207336,45.4304112 L153.385209,45.3378645 C154.651412,44.6537375 155.411532,43.7231508 155.734391,42.3999182 L155.77104,42.2392362 C155.983553,41.2394386 155.723448,40.5127348 155.01102,40.3613036 Z M183.074203,32.556338 L179.346361,32.556338 C177.162337,32.556338 175.391837,34.4501772 175.391837,36.7863462 C175.391837,37.1537215 175.436579,37.5195315 175.524933,37.8745422 L182.973199,67.8018498 C183.434258,69.6543971 185.002408,70.943662 186.794627,70.943662 L190.512981,70.943662 L190.639971,70.9415022 C192.412108,70.8811661 193.937332,69.5623783 194.356646,67.7082105 L197.379867,54.338765 L200.144979,67.6322157 C200.547395,69.5671512 202.151996,70.943662 204.005137,70.943662 L207.540394,70.943662 C209.341911,70.943662 210.915735,69.6412486 211.368174,67.7759939 L218.627398,37.8486862 C219.175902,35.5873919 217.906796,33.2786248 215.792771,32.6919106 C215.468427,32.6018939 215.134701,32.556338 214.799617,32.556338 L211.887213,32.556338 L211.758713,32.5585464 C209.923095,32.6217054 208.361814,34.0332449 208.006487,35.972961 L205.874185,47.6114658 L203.372637,35.8480841 C202.963158,33.9225962 201.362696,32.556338 199.516622,32.556338 L195.444231,32.556338 L195.317033,32.5585028 C193.499885,32.6204159 191.948671,34.0042651 191.573702,35.9191501 L189.283473,47.613052 L186.941201,35.9013089 C186.550956,33.95037 184.939367,32.556338 183.074203,32.556338 Z M183.074203,34.1425911 C184.202326,34.1425911 185.182025,34.9585567 185.46511,36.1163017 L185.491077,36.2331979 L189.299292,55.2714818 L193.02515,36.2443486 C193.25722,35.0592172 194.210174,34.1995412 195.331552,34.1453115 L195.444231,34.1425911 L199.516622,34.1425911 C200.633199,34.1425911 201.606012,34.9423 201.899561,36.0845794 L201.926632,36.1999324 L205.98244,55.2714818 L209.461759,36.2779805 C209.681902,35.0762305 210.642677,34.1988582 211.776924,34.145196 L211.887213,34.1425911 L214.799617,34.1425911 C215.009045,34.1425911 215.217623,34.1710635 215.420338,34.2273239 C216.705894,34.5841096 217.491534,35.959787 217.217299,37.3356729 L217.19198,37.4503087 L209.932757,67.3776163 C209.659408,68.5045411 208.731139,69.3027508 207.652493,69.3547127 L207.540394,69.3574089 L204.005137,69.3574089 C202.884286,69.3574089 201.908912,68.5516989 201.619203,67.4036807 L201.592538,67.287755 L197.440668,47.324354 L192.915272,67.3352517 C192.655904,68.4821502 191.719532,69.3013052 190.626582,69.3546412 L190.512981,69.3574089 L186.794627,69.3574089 C185.711828,69.3574089 184.759892,68.6044424 184.437337,67.5083702 L184.406234,67.3937763 L176.957969,37.4664687 C176.902747,37.244587 176.874783,37.0159557 176.874783,36.7863462 C176.874783,35.3646644 177.923872,34.2050799 179.239149,34.1450337 L179.346361,34.1425911 L183.074203,34.1425911 Z M230.945578,32.556338 L226.940136,32.556338 C224.727991,32.556338 222.934694,34.4501772 222.934694,36.7863462 L222.934694,66.7136538 C222.934694,69.0498228 224.727991,70.943662 226.940136,70.943662 L230.945578,70.943662 C233.157723,70.943662 234.95102,69.0498228 234.95102,66.7136538 L234.95102,36.7863462 C234.95102,34.4501772 233.157723,32.556338 230.945578,32.556338 Z M230.945578,34.1425911 C232.291785,34.1425911 233.389808,35.2647629 233.446667,36.6716656 L233.44898,36.7863462 L233.44898,66.7136538 C233.44898,68.1353356 232.386382,69.2949201 231.054171,69.3549663 L230.945578,69.3574089 L226.940136,69.3574089 C225.59393,69.3574089 224.495906,68.2352371 224.439048,66.8283344 L224.436735,66.7136538 L224.436735,36.7863462 C224.436735,35.3646644 225.499332,34.2050799 226.831544,34.1450337 L226.940136,34.1425911 L230.945578,34.1425911 Z M247.627215,32.556338 L242.609008,32.556338 C240.399402,32.556338 238.608163,34.4501772 238.608163,36.7863462 L238.608163,66.7136538 C238.608163,69.0498228 240.399402,70.943662 242.609008,70.943662 L245.844691,70.943662 L245.969307,70.9416491 C248.121252,70.8720389 249.845535,69.0057442 249.845535,66.7136538 L249.845535,54.759122 L259.191829,69.112218 C259.938385,70.2588058 261.170704,70.943662 262.487298,70.943662 L266.999156,70.943662 C269.208761,70.943662 271,69.0498228 271,66.7136538 L271,36.7863462 C271,34.4501772 269.208761,32.556338 266.999156,32.556338 L263.763473,32.556338 L263.638857,32.5583509 C261.486911,32.6279611 259.762628,34.4942558 259.762628,36.7863462 L259.762628,48.5944139 L250.969686,34.4616203 C250.22973,33.2723488 248.973619,32.556338 247.627215,32.556338 Z M247.627215,34.1425911 C248.428646,34.1425911 249.17889,34.5484929 249.648026,35.2292361 L249.71626,35.3333925 L261.262945,53.8914416 L261.262945,36.7863462 C261.262945,35.3646644 262.324322,34.2050799 263.655005,34.1450337 L263.763473,34.1425911 L266.999156,34.1425911 C268.343817,34.1425911 269.44058,35.2647629 269.497373,36.6716656 L269.499683,36.7863462 L269.499683,66.7136538 C269.499683,68.1353356 268.438306,69.2949201 267.107623,69.3549663 L266.999156,69.3574089 L262.487298,69.3574089 C261.70557,69.3574089 260.971379,68.9711072 260.499865,68.3180672 L260.42763,68.2127564 L248.345218,49.656146 L248.345218,66.7136538 C248.345218,68.1353356 247.283841,69.2949201 245.953158,69.3549663 L245.844691,69.3574089 L242.609008,69.3574089 C241.264347,69.3574089 240.167583,68.2352371 240.11079,66.8283344 L240.10848,66.7136538 L240.10848,36.7863462 C240.10848,35.3646644 241.169857,34.2050799 242.50054,34.1450337 L242.609008,34.1425911 L247.627215,34.1425911 Z" id="path-4"></path>
        <filter x="-3.7%" y="-21.5%" width="107.4%" height="148.1%" filterUnits="objectBoundingBox" id="filter-5">
            <feOffset dx="0" dy="1" in="SourceAlpha" result="shadowOffsetOuter1"></feOffset>
            <feGaussianBlur stdDeviation="1" in="shadowOffsetOuter1" result="shadowBlurOuter1"></feGaussianBlur>
            <feColorMatrix values="0 0 0 0 0   0 0 0 0 0   0 0 0 0 0  0 0 0 0.5 0" type="matrix" in="shadowBlurOuter1" result="shadowMatrixOuter1"></feColorMatrix>
            <feMorphology radius="1" operator="dilate" in="SourceAlpha" result="shadowSpreadOuter2"></feMorphology>
            <feOffset dx="0" dy="1" in="shadowSpreadOuter2" result="shadowOffsetOuter2"></feOffset>
            <feGaussianBlur stdDeviation="2" in="shadowOffsetOuter2" result="shadowBlurOuter2"></feGaussianBlur>
            <feColorMatrix values="0 0 0 0 1   0 0 0 0 0.93113186   0 0 0 0 0.635951791  0 0 0 0.5 0" type="matrix" in="shadowBlurOuter2" result="shadowMatrixOuter2"></feColorMatrix>
            <feMerge>
                <feMergeNode in="shadowMatrixOuter1"></feMergeNode>
                <feMergeNode in="shadowMatrixOuter2"></feMergeNode>
            </feMerge>
        </filter>
        <path d="M88.75,47.437397 C89.7164983,47.437397 90.5,46.6352713 90.5,45.645799 C90.5,44.6563267 89.7164983,43.854201 88.75,43.854201 C87.7835017,43.854201 87,44.6563267 87,45.645799 C87,46.6352713 87.7835017,47.437397 88.75,47.437397 Z M88.75,41.083196 C89.7164983,41.083196 90.5,40.2810703 90.5,39.291598 C90.5,38.3021258 89.7164983,37.5 88.75,37.5 C87.7835017,37.5 87,38.3021258 87,39.291598 C87,40.2810703 87.7835017,41.083196 88.75,41.083196 Z M88.75,66.5 C89.7164983,66.5 90.5,65.6978742 90.5,64.708402 C90.5,63.7189297 89.7164983,62.916804 88.75,62.916804 C87.7835017,62.916804 87,63.7189297 87,64.708402 C87,65.6978742 87.7835017,66.5 88.75,66.5 Z M88.75,60.145799 C89.7164983,60.145799 90.5,59.3436733 90.5,58.354201 C90.5,57.3647287 89.7164983,56.562603 88.75,56.562603 C87.7835017,56.562603 87,57.3647287 87,58.354201 C87,59.3436733 87.7835017,60.145799 88.75,60.145799 Z M88.75,53.791598 C89.7164983,53.791598 90.5,52.9894723 90.5,52 C90.5,51.0105277 89.7164983,50.208402 88.75,50.208402 C87.7835017,50.208402 87,51.0105277 87,52 C87,52.9894723 87.7835017,53.791598 88.75,53.791598 Z" id="path-6"></path>
        <filter x="-271.4%" y="-29.3%" width="642.9%" height="165.5%" filterUnits="objectBoundingBox" id="filter-7">
            <feOffset dx="0" dy="1" in="SourceAlpha" result="shadowOffsetOuter1"></feOffset>
            <feGaussianBlur stdDeviation="1" in="shadowOffsetOuter1" result="shadowBlurOuter1"></feGaussianBlur>
            <feColorMatrix values="0 0 0 0 0   0 0 0 0 0   0 0 0 0 0  0 0 0 0.5 0" type="matrix" in="shadowBlurOuter1" result="shadowMatrixOuter1"></feColorMatrix>
            <feMorphology radius="1.5" operator="dilate" in="SourceAlpha" result="shadowSpreadOuter2"></feMorphology>
            <feOffset dx="0" dy="1" in="shadowSpreadOuter2" result="shadowOffsetOuter2"></feOffset>
            <feGaussianBlur stdDeviation="1.5" in="shadowOffsetOuter2" result="shadowBlurOuter2"></feGaussianBlur>
            <feColorMatrix values="0 0 0 0 1   0 0 0 0 0.93113186   0 0 0 0 0.635951791  0 0 0 0.5 0" type="matrix" in="shadowBlurOuter2" result="shadowMatrixOuter2"></feColorMatrix>
            <feMerge>
                <feMergeNode in="shadowMatrixOuter1"></feMergeNode>
                <feMergeNode in="shadowMatrixOuter2"></feMergeNode>
            </feMerge>
        </filter>
        <path d="M54.761745,46.5385233 C55.7347298,46.5385233 56.5234899,45.7435233 56.5234899,44.7628411 C56.5234899,43.7821589 55.7347298,42.9871589 54.761745,42.9871589 C53.7887601,42.9871589 53,43.7821589 53,44.7628411 C53,45.7435233 53.7887601,46.5385233 54.761745,46.5385233 Z M54.761745,40.0513644 C55.7347298,40.0513644 56.5234899,39.2563644 56.5234899,38.2756822 C56.5234899,37.295 55.7347298,36.5 54.761745,36.5 C53.7887601,36.5 53,37.295 53,38.2756822 C53,39.2563644 53.7887601,40.0513644 54.761745,40.0513644 Z M54.761745,66 C55.7347298,66 56.5234899,65.205 56.5234899,64.2243178 C56.5234899,63.2436356 55.7347298,62.4486356 54.761745,62.4486356 C53.7887601,62.4486356 53,63.2436356 53,64.2243178 C53,65.205 53.7887601,66 54.761745,66 Z M54.761745,59.5128411 C55.7347298,59.5128411 56.5234899,58.7178411 56.5234899,57.7371589 C56.5234899,56.7564767 55.7347298,55.9614767 54.761745,55.9614767 C53.7887601,55.9614767 53,56.7564767 53,57.7371589 C53,58.7178411 53.7887601,59.5128411 54.761745,59.5128411 Z M54.761745,53.0256822 C55.7347298,53.0256822 56.5234899,52.2306822 56.5234899,51.25 C56.5234899,50.2693178 55.7347298,49.4743178 54.761745,49.4743178 C53.7887601,49.4743178 53,50.2693178 53,51.25 C53,52.2306822 53.7887601,53.0256822 54.761745,53.0256822 Z M60.8691275,40.0513644 C61.8421124,40.0513644 62.6308725,39.2563644 62.6308725,38.2756822 C62.6308725,37.295 61.8421124,36.5 60.8691275,36.5 C59.8961426,36.5 59.1073826,37.295 59.1073826,38.2756822 C59.1073826,39.2563644 59.8961426,40.0513644 60.8691275,40.0513644 Z M67.4463087,40.5248796 C68.4192936,40.5248796 69.2080537,39.7298796 69.2080537,38.7491974 C69.2080537,37.7685152 68.4192936,36.9735152 67.4463087,36.9735152 C66.4733238,36.9735152 65.6845638,37.7685152 65.6845638,38.7491974 C65.6845638,39.7298796 66.4733238,40.5248796 67.4463087,40.5248796 Z M72.238255,44.5915523 C73.2112399,44.5915523 74,43.7965523 74,42.8158701 C74,41.8351879 73.2112399,41.0401879 72.238255,41.0401879 C71.2652702,41.0401879 70.4765101,41.8351879 70.4765101,42.8158701 C70.4765101,43.7965523 71.2652702,44.5915523 72.238255,44.5915523 Z M72.238255,51.2207657 C73.2112399,51.2207657 74,50.4257657 74,49.4450836 C74,48.4644014 73.2112399,47.6694014 72.238255,47.6694014 C71.2652702,47.6694014 70.4765101,48.4644014 70.4765101,49.4450836 C70.4765101,50.4257657 71.2652702,51.2207657 72.238255,51.2207657 Z M67.0704698,55.482403 C68.0434547,55.482403 68.8322148,54.687403 68.8322148,53.7067208 C68.8322148,52.7260386 68.0434547,51.9310386 67.0704698,51.9310386 C66.0974849,51.9310386 65.3087248,52.7260386 65.3087248,53.7067208 C65.3087248,54.687403 66.0974849,55.482403 67.0704698,55.482403 Z M60.9630872,56.4294335 C61.9360721,56.4294335 62.7248322,55.6344335 62.7248322,54.6537513 C62.7248322,53.6730691 61.9360721,52.8780691 60.9630872,52.8780691 C59.9901024,52.8780691 59.2013423,53.6730691 59.2013423,54.6537513 C59.2013423,55.6344335 59.9901024,56.4294335 60.9630872,56.4294335 Z" id="path-8"></path>
        <filter x="-45.2%" y="-28.8%" width="190.5%" height="164.4%" filterUnits="objectBoundingBox" id="filter-9">
            <feOffset dx="0" dy="1" in="SourceAlpha" result="shadowOffsetOuter1"></feOffset>
            <feGaussianBlur stdDeviation="1" in="shadowOffsetOuter1" result="shadowBlurOuter1"></feGaussianBlur>
            <feColorMatrix values="0 0 0 0 0   0 0 0 0 0   0 0 0 0 0  0 0 0 0.5 0" type="matrix" in="shadowBlurOuter1" result="shadowMatrixOuter1"></feColorMatrix>
            <feMorphology radius="1.5" operator="dilate" in="SourceAlpha" result="shadowSpreadOuter2"></feMorphology>
            <feOffset dx="0" dy="1" in="shadowSpreadOuter2" result="shadowOffsetOuter2"></feOffset>
            <feGaussianBlur stdDeviation="1.5" in="shadowOffsetOuter2" result="shadowBlurOuter2"></feGaussianBlur>
            <feColorMatrix values="0 0 0 0 1   0 0 0 0 0.93113186   0 0 0 0 0.635951791  0 0 0 0.5 0" type="matrix" in="shadowBlurOuter2" result="shadowMatrixOuter2"></feColorMatrix>
            <feMerge>
                <feMergeNode in="shadowMatrixOuter1"></feMergeNode>
                <feMergeNode in="shadowMatrixOuter2"></feMergeNode>
            </feMerge>
        </filter>
        <path d="M30.297046,39.5526316 C29.3226924,39.5526316 28.5328228,38.7573479 28.5328228,37.7763158 C28.5328228,36.7952837 29.3226924,36 30.297046,36 C31.2713995,36 32.0612691,36.7952837 32.0612691,37.7763158 C32.0612691,38.7573479 31.2713995,39.5526316 30.297046,39.5526316 Z M36.4130197,41.9210526 C35.4386661,41.9210526 34.6487965,41.125769 34.6487965,40.1447368 C34.6487965,39.1637047 35.4386661,38.3684211 36.4130197,38.3684211 C37.3873733,38.3684211 38.1772429,39.1637047 38.1772429,40.1447368 C38.1772429,41.125769 37.3873733,41.9210526 36.4130197,41.9210526 Z M39.2357768,63.7105263 C38.2614232,63.7105263 37.4715536,62.9152426 37.4715536,61.9342105 C37.4715536,60.9531784 38.2614232,60.1578947 39.2357768,60.1578947 C40.2101304,60.1578947 41,60.9531784 41,61.9342105 C41,62.9152426 40.2101304,63.7105263 39.2357768,63.7105263 Z M34.0607221,67.5 C33.0863685,67.5 32.2964989,66.7047163 32.2964989,65.7236842 C32.2964989,64.7426521 33.0863685,63.9473684 34.0607221,63.9473684 C35.0350757,63.9473684 35.8249453,64.7426521 35.8249453,65.7236842 C35.8249453,66.7047163 35.0350757,67.5 34.0607221,67.5 Z M27.4742888,67.5 C26.4999353,67.5 25.7100656,66.7047163 25.7100656,65.7236842 C25.7100656,64.7426521 26.4999353,63.9473684 27.4742888,63.9473684 C28.4486424,63.9473684 29.238512,64.7426521 29.238512,65.7236842 C29.238512,66.7047163 28.4486424,67.5 27.4742888,67.5 Z M22.2992341,64.6578947 C21.3248806,64.6578947 20.5350109,63.8626111 20.5350109,62.8815789 C20.5350109,61.9005468 21.3248806,61.1052632 22.2992341,61.1052632 C23.2735877,61.1052632 24.0634573,61.9005468 24.0634573,62.8815789 C24.0634573,63.8626111 23.2735877,64.6578947 22.2992341,64.6578947 Z M24.1810722,40.5 C23.2067186,40.5 22.416849,39.7047163 22.416849,38.7236842 C22.416849,37.7426521 23.2067186,36.9473684 24.1810722,36.9473684 C25.1554258,36.9473684 25.9452954,37.7426521 25.9452954,38.7236842 C25.9452954,39.7047163 25.1554258,40.5 24.1810722,40.5 Z M21.2642232,46.4628606 C20.2898696,46.4628606 19.5,45.6675769 19.5,44.6865448 C19.5,43.7055127 20.2898696,42.910229 21.2642232,42.910229 C22.2385768,42.910229 23.0284464,43.7055127 23.0284464,44.6865448 C23.0284464,45.6675769 22.2385768,46.4628606 21.2642232,46.4628606 Z M25.4983589,51.6733869 C24.5240053,51.6733869 23.7341357,50.8781032 23.7341357,49.8970711 C23.7341357,48.916039 24.5240053,48.1207553 25.4983589,48.1207553 C26.4727124,48.1207553 27.2625821,48.916039 27.2625821,49.8970711 C27.2625821,50.8781032 26.4727124,51.6733869 25.4983589,51.6733869 Z M32.0847921,54.0418079 C31.1104386,54.0418079 30.3205689,53.2465243 30.3205689,52.2654921 C30.3205689,51.28446 31.1104386,50.4891764 32.0847921,50.4891764 C33.0591457,50.4891764 33.8490153,51.28446 33.8490153,52.2654921 C33.8490153,53.2465243 33.0591457,54.0418079 32.0847921,54.0418079 Z M38.6712254,57.3575974 C37.6968718,57.3575974 36.9070022,56.5623137 36.9070022,55.5812816 C36.9070022,54.6002495 37.6968718,53.8049658 38.6712254,53.8049658 C39.6455789,53.8049658 40.4354486,54.6002495 40.4354486,55.5812816 C40.4354486,56.5623137 39.6455789,57.3575974 38.6712254,57.3575974 Z" id="path-10"></path>
        <filter x="-44.2%" y="-27.0%" width="188.4%" height="160.3%" filterUnits="objectBoundingBox" id="filter-11">
            <feOffset dx="0" dy="1" in="SourceAlpha" result="shadowOffsetOuter1"></feOffset>
            <feGaussianBlur stdDeviation="1" in="shadowOffsetOuter1" result="shadowBlurOuter1"></feGaussianBlur>
            <feColorMatrix values="0 0 0 0 0   0 0 0 0 0   0 0 0 0 0  0 0 0 0.5 0" type="matrix" in="shadowBlurOuter1" result="shadowMatrixOuter1"></feColorMatrix>
            <feMorphology radius="1.5" operator="dilate" in="SourceAlpha" result="shadowSpreadOuter2"></feMorphology>
            <feOffset dx="0" dy="1" in="shadowSpreadOuter2" result="shadowOffsetOuter2"></feOffset>
            <feGaussianBlur stdDeviation="1.5" in="shadowOffsetOuter2" result="shadowBlurOuter2"></feGaussianBlur>
            <feColorMatrix values="0 0 0 0 1   0 0 0 0 0.93113186   0 0 0 0 0.635951791  0 0 0 0.5 0" type="matrix" in="shadowBlurOuter2" result="shadowMatrixOuter2"></feColorMatrix>
            <feMerge>
                <feMergeNode in="shadowMatrixOuter1"></feMergeNode>
                <feMergeNode in="shadowMatrixOuter2"></feMergeNode>
            </feMerge>
        </filter>
        <path d="M229.25,47.437397 C230.216498,47.437397 231,46.6352713 231,45.645799 C231,44.6563267 230.216498,43.854201 229.25,43.854201 C228.283502,43.854201 227.5,44.6563267 227.5,45.645799 C227.5,46.6352713 228.283502,47.437397 229.25,47.437397 Z M229.25,41.083196 C230.216498,41.083196 231,40.2810703 231,39.291598 C231,38.3021258 230.216498,37.5 229.25,37.5 C228.283502,37.5 227.5,38.3021258 227.5,39.291598 C227.5,40.2810703 228.283502,41.083196 229.25,41.083196 Z M229.25,66.5 C230.216498,66.5 231,65.6978742 231,64.708402 C231,63.7189297 230.216498,62.916804 229.25,62.916804 C228.283502,62.916804 227.5,63.7189297 227.5,64.708402 C227.5,65.6978742 228.283502,66.5 229.25,66.5 Z M229.25,60.145799 C230.216498,60.145799 231,59.3436733 231,58.354201 C231,57.3647287 230.216498,56.562603 229.25,56.562603 C228.283502,56.562603 227.5,57.3647287 227.5,58.354201 C227.5,59.3436733 228.283502,60.145799 229.25,60.145799 Z M229.25,53.791598 C230.216498,53.791598 231,52.9894723 231,52 C231,51.0105277 230.216498,50.208402 229.25,50.208402 C228.283502,50.208402 227.5,51.0105277 227.5,52 C227.5,52.9894723 228.283502,53.791598 229.25,53.791598 Z" id="path-12"></path>
        <filter x="-271.4%" y="-29.3%" width="642.9%" height="165.5%" filterUnits="objectBoundingBox" id="filter-13">
            <feOffset dx="0" dy="1" in="SourceAlpha" result="shadowOffsetOuter1"></feOffset>
            <feGaussianBlur stdDeviation="1" in="shadowOffsetOuter1" result="shadowBlurOuter1"></feGaussianBlur>
            <feColorMatrix values="0 0 0 0 0   0 0 0 0 0   0 0 0 0 0  0 0 0 0.5 0" type="matrix" in="shadowBlurOuter1" result="shadowMatrixOuter1"></feColorMatrix>
            <feMorphology radius="1.5" operator="dilate" in="SourceAlpha" result="shadowSpreadOuter2"></feMorphology>
            <feOffset dx="0" dy="1" in="shadowSpreadOuter2" result="shadowOffsetOuter2"></feOffset>
            <feGaussianBlur stdDeviation="1.5" in="shadowOffsetOuter2" result="shadowBlurOuter2"></feGaussianBlur>
            <feColorMatrix values="0 0 0 0 1   0 0 0 0 0.93113186   0 0 0 0 0.635951791  0 0 0 0.5 0" type="matrix" in="shadowBlurOuter2" result="shadowMatrixOuter2"></feColorMatrix>
            <feMerge>
                <feMergeNode in="shadowMatrixOuter1"></feMergeNode>
                <feMergeNode in="shadowMatrixOuter2"></feMergeNode>
            </feMerge>
        </filter>
        <path d="M181.785714,40.5330579 C182.771937,40.5330579 183.571429,39.7421559 183.571429,38.7665289 C183.571429,37.7909019 182.771937,37 181.785714,37 C180.799492,37 180,37.7909019 180,38.7665289 C180,39.7421559 180.799492,40.5330579 181.785714,40.5330579 Z M183.214286,46.6570248 C184.200508,46.6570248 185,45.8661229 185,44.8904959 C185,43.9148689 184.200508,43.1239669 183.214286,43.1239669 C182.228063,43.1239669 181.428571,43.9148689 181.428571,44.8904959 C181.428571,45.8661229 182.228063,46.6570248 183.214286,46.6570248 Z M186.309524,59.8471074 C187.295747,59.8471074 188.095238,59.0562055 188.095238,58.0805785 C188.095238,57.1049515 187.295747,56.3140496 186.309524,56.3140496 C185.323301,56.3140496 184.52381,57.1049515 184.52381,58.0805785 C184.52381,59.0562055 185.323301,59.8471074 186.309524,59.8471074 Z M191.785714,59.8471074 C192.771937,59.8471074 193.571429,59.0562055 193.571429,58.0805785 C193.571429,57.1049515 192.771937,56.3140496 191.785714,56.3140496 C190.799492,56.3140496 190,57.1049515 190,58.0805785 C190,59.0562055 190.799492,59.8471074 191.785714,59.8471074 Z M203.214286,59.8471074 C204.200508,59.8471074 205,59.0562055 205,58.0805785 C205,57.1049515 204.200508,56.3140496 203.214286,56.3140496 C202.228063,56.3140496 201.428571,57.1049515 201.428571,58.0805785 C201.428571,59.0562055 202.228063,59.8471074 203.214286,59.8471074 Z M208.690476,59.8471074 C209.676699,59.8471074 210.47619,59.0562055 210.47619,58.0805785 C210.47619,57.1049515 209.676699,56.3140496 208.690476,56.3140496 C207.704253,56.3140496 206.904762,57.1049515 206.904762,58.0805785 C206.904762,59.0562055 207.704253,59.8471074 208.690476,59.8471074 Z M188.928571,65.5 C189.914794,65.5 190.714286,64.7090981 190.714286,63.7334711 C190.714286,62.7578441 189.914794,61.9669421 188.928571,61.9669421 C187.942349,61.9669421 187.142857,62.7578441 187.142857,63.7334711 C187.142857,64.7090981 187.942349,65.5 188.928571,65.5 Z M184.97619,53.5291809 C185.962413,53.5291809 186.761905,52.738279 186.761905,51.762652 C186.761905,50.787025 185.962413,49.996123 184.97619,49.996123 C183.989968,49.996123 183.190476,50.787025 183.190476,51.762652 C183.190476,52.738279 183.989968,53.5291809 184.97619,53.5291809 Z M195.119048,46.6570248 C196.10527,46.6570248 196.904762,45.8661229 196.904762,44.8904959 C196.904762,43.9148689 196.10527,43.1239669 195.119048,43.1239669 C194.132825,43.1239669 193.333333,43.9148689 193.333333,44.8904959 C193.333333,45.8661229 194.132825,46.6570248 195.119048,46.6570248 Z M197.5,40.5330579 C198.486223,40.5330579 199.285714,39.7421559 199.285714,38.7665289 C199.285714,37.7909019 198.486223,37 197.5,37 C196.513777,37 195.714286,37.7909019 195.714286,38.7665289 C195.714286,39.7421559 196.513777,40.5330579 197.5,40.5330579 Z M200.357143,46.6570248 C201.343366,46.6570248 202.142857,45.8661229 202.142857,44.8904959 C202.142857,43.9148689 201.343366,43.1239669 200.357143,43.1239669 C199.37092,43.1239669 198.571429,43.9148689 198.571429,44.8904959 C198.571429,45.8661229 199.37092,46.6570248 200.357143,46.6570248 Z M193.547619,53.0581065 C194.533842,53.0581065 195.333333,52.2672046 195.333333,51.2915776 C195.333333,50.3159506 194.533842,49.5250487 193.547619,49.5250487 C192.561396,49.5250487 191.761905,50.3159506 191.761905,51.2915776 C191.761905,52.2672046 192.561396,53.0581065 193.547619,53.0581065 Z M206.071429,65.5 C207.057651,65.5 207.857143,64.7090981 207.857143,63.7334711 C207.857143,62.7578441 207.057651,61.9669421 206.071429,61.9669421 C205.085206,61.9669421 204.285714,62.7578441 204.285714,63.7334711 C204.285714,64.7090981 205.085206,65.5 206.071429,65.5 Z M201.880952,53.0581065 C202.867175,53.0581065 203.666667,52.2672046 203.666667,51.2915776 C203.666667,50.3159506 202.867175,49.5250487 201.880952,49.5250487 C200.89473,49.5250487 200.095238,50.3159506 200.095238,51.2915776 C200.095238,52.2672046 200.89473,53.0581065 201.880952,53.0581065 Z M210.452381,53.0581065 C211.438604,53.0581065 212.238095,52.2672046 212.238095,51.2915776 C212.238095,50.3159506 211.438604,49.5250487 210.452381,49.5250487 C209.466158,49.5250487 208.666667,50.3159506 208.666667,51.2915776 C208.666667,52.2672046 209.466158,53.0581065 210.452381,53.0581065 Z M211.785714,46.6570248 C212.771937,46.6570248 213.571429,45.8661229 213.571429,44.8904959 C213.571429,43.9148689 212.771937,43.1239669 211.785714,43.1239669 C210.799492,43.1239669 210,43.9148689 210,44.8904959 C210,45.8661229 210.799492,46.6570248 211.785714,46.6570248 Z M213.214286,40.5330579 C214.200508,40.5330579 215,39.7421559 215,38.7665289 C215,37.7909019 214.200508,37 213.214286,37 C212.228063,37 211.428571,37.7909019 211.428571,38.7665289 C211.428571,39.7421559 212.228063,40.5330579 213.214286,40.5330579 Z" id="path-14"></path>
        <filter x="-27.1%" y="-29.8%" width="154.3%" height="166.7%" filterUnits="objectBoundingBox" id="filter-15">
            <feOffset dx="0" dy="1" in="SourceAlpha" result="shadowOffsetOuter1"></feOffset>
            <feGaussianBlur stdDeviation="1" in="shadowOffsetOuter1" result="shadowBlurOuter1"></feGaussianBlur>
            <feColorMatrix values="0 0 0 0 0   0 0 0 0 0   0 0 0 0 0  0 0 0 0.5 0" type="matrix" in="shadowBlurOuter1" result="shadowMatrixOuter1"></feColorMatrix>
            <feMorphology radius="1.5" operator="dilate" in="SourceAlpha" result="shadowSpreadOuter2"></feMorphology>
            <feOffset dx="0" dy="1" in="shadowSpreadOuter2" result="shadowOffsetOuter2"></feOffset>
            <feGaussianBlur stdDeviation="1.5" in="shadowOffsetOuter2" result="shadowBlurOuter2"></feGaussianBlur>
            <feColorMatrix values="0 0 0 0 1   0 0 0 0 0.93113186   0 0 0 0 0.635951791  0 0 0 0.5 0" type="matrix" in="shadowBlurOuter2" result="shadowMatrixOuter2"></feColorMatrix>
            <feMerge>
                <feMergeNode in="shadowMatrixOuter1"></feMergeNode>
                <feMergeNode in="shadowMatrixOuter2"></feMergeNode>
            </feMerge>
        </filter>
        <path d="M156.4375,37.8028169 C157.355673,37.8028169 158.1,37.0634562 158.1,36.1514085 C158.1,35.2393607 157.355673,34.5 156.4375,34.5 C155.519327,34.5 154.775,35.2393607 154.775,36.1514085 C154.775,37.0634562 155.519327,37.8028169 156.4375,37.8028169 Z M149.7875,39.2183099 C150.705673,39.2183099 151.45,38.4789491 151.45,37.5669014 C151.45,36.6548537 150.705673,35.915493 149.7875,35.915493 C148.869327,35.915493 148.125,36.6548537 148.125,37.5669014 C148.125,38.4789491 148.869327,39.2183099 149.7875,39.2183099 Z M148.3625,45.3521127 C149.280673,45.3521127 150.025,44.6127519 150.025,43.7007042 C150.025,42.7886565 149.280673,42.0492958 148.3625,42.0492958 C147.444327,42.0492958 146.7,42.7886565 146.7,43.7007042 C146.7,44.6127519 147.444327,45.3521127 148.3625,45.3521127 Z M150.7375,51.4859155 C151.655673,51.4859155 152.4,50.7465547 152.4,49.834507 C152.4,48.9224593 151.655673,48.1830986 150.7375,48.1830986 C149.819327,48.1830986 149.075,48.9224593 149.075,49.834507 C149.075,50.7465547 149.819327,51.4859155 150.7375,51.4859155 Z M154.0625,56.2042254 C154.980673,56.2042254 155.725,55.4648646 155.725,54.5528169 C155.725,53.6407692 154.980673,52.9014085 154.0625,52.9014085 C153.144327,52.9014085 152.4,53.6407692 152.4,54.5528169 C152.4,55.4648646 153.144327,56.2042254 154.0625,56.2042254 Z M157.8625,60.4507042 C158.780673,60.4507042 159.525,59.7113435 159.525,58.7992958 C159.525,57.8872481 158.780673,57.1478873 157.8625,57.1478873 C156.944327,57.1478873 156.2,57.8872481 156.2,58.7992958 C156.2,59.7113435 156.944327,60.4507042 157.8625,60.4507042 Z M162.6125,63.7535211 C163.530673,63.7535211 164.275,63.0141604 164.275,62.1021127 C164.275,61.190065 163.530673,60.4507042 162.6125,60.4507042 C161.694327,60.4507042 160.95,61.190065 160.95,62.1021127 C160.95,63.0141604 161.694327,63.7535211 162.6125,63.7535211 Z M167.8375,66.584507 C168.755673,66.584507 169.5,65.8451463 169.5,64.9330986 C169.5,64.0210509 168.755673,63.2816901 167.8375,63.2816901 C166.919327,63.2816901 166.175,64.0210509 166.175,64.9330986 C166.175,65.8451463 166.919327,66.584507 167.8375,66.584507 Z M164.9875,57.1478873 C165.905673,57.1478873 166.65,56.4085266 166.65,55.4964789 C166.65,54.5844312 165.905673,53.8450704 164.9875,53.8450704 C164.069327,53.8450704 163.325,54.5844312 163.325,55.4964789 C163.325,56.4085266 164.069327,57.1478873 164.9875,57.1478873 Z M145.5125,55.7323944 C146.430673,55.7323944 147.175,54.9930336 147.175,54.0809859 C147.175,53.1689382 146.430673,52.4295775 145.5125,52.4295775 C144.594327,52.4295775 143.85,53.1689382 143.85,54.0809859 C143.85,54.9930336 144.594327,55.7323944 145.5125,55.7323944 Z M142.6625,60.9225352 C143.580673,60.9225352 144.325,60.1831745 144.325,59.2711268 C144.325,58.3590791 143.580673,57.6197183 142.6625,57.6197183 C141.744327,57.6197183 141,58.3590791 141,59.2711268 C141,60.1831745 141.744327,60.9225352 142.6625,60.9225352 Z M145.0375,66.1126761 C145.955673,66.1126761 146.7,65.3733153 146.7,64.4612676 C146.7,63.5492199 145.955673,62.8098592 145.0375,62.8098592 C144.119327,62.8098592 143.375,63.5492199 143.375,64.4612676 C143.375,65.3733153 144.119327,66.1126761 145.0375,66.1126761 Z M151.2125,68 C152.130673,68 152.875,67.2606393 152.875,66.3485915 C152.875,65.4365438 152.130673,64.6971831 151.2125,64.6971831 C150.294327,64.6971831 149.55,65.4365438 149.55,66.3485915 C149.55,67.2606393 150.294327,68 151.2125,68 Z M157.8625,67.056338 C158.780673,67.056338 159.525,66.3169773 159.525,65.4049296 C159.525,64.4928819 158.780673,63.7535211 157.8625,63.7535211 C156.944327,63.7535211 156.2,64.4928819 156.2,65.4049296 C156.2,66.3169773 156.944327,67.056338 157.8625,67.056338 Z M158.3375,48.1830986 C159.255673,48.1830986 160,47.4437378 160,46.5316901 C160,45.6196424 159.255673,44.8802817 158.3375,44.8802817 C157.419327,44.8802817 156.675,45.6196424 156.675,46.5316901 C156.675,47.4437378 157.419327,48.1830986 158.3375,48.1830986 Z M160.7125,42.5211268 C161.630673,42.5211268 162.375,41.781766 162.375,40.8697183 C162.375,39.9576706 161.630673,39.2183099 160.7125,39.2183099 C159.794327,39.2183099 159.05,39.9576706 159.05,40.8697183 C159.05,41.781766 159.794327,42.5211268 160.7125,42.5211268 Z" id="path-16"></path>
        <filter x="-33.3%" y="-25.4%" width="166.7%" height="156.7%" filterUnits="objectBoundingBox" id="filter-17">
            <feOffset dx="0" dy="1" in="SourceAlpha" result="shadowOffsetOuter1"></feOffset>
            <feGaussianBlur stdDeviation="1" in="shadowOffsetOuter1" result="shadowBlurOuter1"></feGaussianBlur>
            <feColorMatrix values="0 0 0 0 0   0 0 0 0 0   0 0 0 0 0  0 0 0 0.5 0" type="matrix" in="shadowBlurOuter1" result="shadowMatrixOuter1"></feColorMatrix>
            <feMorphology radius="1.5" operator="dilate" in="SourceAlpha" result="shadowSpreadOuter2"></feMorphology>
            <feOffset dx="0" dy="1" in="shadowSpreadOuter2" result="shadowOffsetOuter2"></feOffset>
            <feGaussianBlur stdDeviation="1.5" in="shadowOffsetOuter2" result="shadowBlurOuter2"></feGaussianBlur>
            <feColorMatrix values="0 0 0 0 1   0 0 0 0 0.93113186   0 0 0 0 0.635951791  0 0 0 0.5 0" type="matrix" in="shadowBlurOuter2" result="shadowMatrixOuter2"></feColorMatrix>
            <feMerge>
                <feMergeNode in="shadowMatrixOuter1"></feMergeNode>
                <feMergeNode in="shadowMatrixOuter2"></feMergeNode>
            </feMerge>
        </filter>
        <path d="M125.233173,47.437397 C126.208965,47.437397 127,46.6352713 127,45.645799 C127,44.6563267 126.208965,43.854201 125.233173,43.854201 C124.257382,43.854201 123.466346,44.6563267 123.466346,45.645799 C123.466346,46.6352713 124.257382,47.437397 125.233173,47.437397 Z M104.266827,47.437397 C105.242618,47.437397 106.033654,46.6352713 106.033654,45.645799 C106.033654,44.6563267 105.242618,43.854201 104.266827,43.854201 C103.291035,43.854201 102.5,44.6563267 102.5,45.645799 C102.5,46.6352713 103.291035,47.437397 104.266827,47.437397 Z M125.233173,41.083196 C126.208965,41.083196 127,40.2810703 127,39.291598 C127,38.3021258 126.208965,37.5 125.233173,37.5 C124.257382,37.5 123.466346,38.3021258 123.466346,39.291598 C123.466346,40.2810703 124.257382,41.083196 125.233173,41.083196 Z M104.737981,41.083196 C105.713772,41.083196 106.504808,40.2810703 106.504808,39.291598 C106.504808,38.3021258 105.713772,37.5 104.737981,37.5 C103.762189,37.5 102.971154,38.3021258 102.971154,39.291598 C102.971154,40.2810703 103.762189,41.083196 104.737981,41.083196 Z M124.762019,66.5 C125.737811,66.5 126.528846,65.6978742 126.528846,64.708402 C126.528846,63.7189297 125.737811,62.916804 124.762019,62.916804 C123.786228,62.916804 122.995192,63.7189297 122.995192,64.708402 C122.995192,65.6978742 123.786228,66.5 124.762019,66.5 Z M104.266827,66.5 C105.242618,66.5 106.033654,65.6978742 106.033654,64.708402 C106.033654,63.7189297 105.242618,62.916804 104.266827,62.916804 C103.291035,62.916804 102.5,63.7189297 102.5,64.708402 C102.5,65.6978742 103.291035,66.5 104.266827,66.5 Z M125.233173,60.145799 C126.208965,60.145799 127,59.3436733 127,58.354201 C127,57.3647287 126.208965,56.562603 125.233173,56.562603 C124.257382,56.562603 123.466346,57.3647287 123.466346,58.354201 C123.466346,59.3436733 124.257382,60.145799 125.233173,60.145799 Z M104.266827,60.145799 C105.242618,60.145799 106.033654,59.3436733 106.033654,58.354201 C106.033654,57.3647287 105.242618,56.562603 104.266827,56.562603 C103.291035,56.562603 102.5,57.3647287 102.5,58.354201 C102.5,59.3436733 103.291035,60.145799 104.266827,60.145799 Z M125.233173,53.791598 C126.208965,53.791598 127,52.9894723 127,52 C127,51.0105277 126.208965,50.208402 125.233173,50.208402 C124.257382,50.208402 123.466346,51.0105277 123.466346,52 C123.466346,52.9894723 124.257382,53.791598 125.233173,53.791598 Z M104.266827,53.791598 C105.242618,53.791598 106.033654,52.9894723 106.033654,52 C106.033654,51.0105277 105.242618,50.208402 104.266827,50.208402 C103.291035,50.208402 102.5,51.0105277 102.5,52 C102.5,52.9894723 103.291035,53.791598 104.266827,53.791598 Z M120.2625,61.3879736 C121.173239,61.3879736 121.911538,60.6393229 121.911538,59.7158155 C121.911538,58.792308 121.173239,58.0436573 120.2625,58.0436573 C119.351761,58.0436573 118.613462,58.792308 118.613462,59.7158155 C118.613462,60.6393229 119.351761,61.3879736 120.2625,61.3879736 Z M109.897115,45.5263591 C110.807854,45.5263591 111.546154,44.7777084 111.546154,43.854201 C111.546154,42.9306935 110.807854,42.1820428 109.897115,42.1820428 C108.986377,42.1820428 108.248077,42.9306935 108.248077,43.854201 C108.248077,44.7777084 108.986377,45.5263591 109.897115,45.5263591 Z M113.195192,50.9250412 C114.105931,50.9250412 114.844231,50.1763905 114.844231,49.252883 C114.844231,48.3293756 114.105931,47.5807249 113.195192,47.5807249 C112.284454,47.5807249 111.546154,48.3293756 111.546154,49.252883 C111.546154,50.1763905 112.284454,50.9250412 113.195192,50.9250412 Z M116.493269,56.3237232 C117.404008,56.3237232 118.142308,55.5750725 118.142308,54.6515651 C118.142308,53.7280576 117.404008,52.9794069 116.493269,52.9794069 C115.58253,52.9794069 114.844231,53.7280576 114.844231,54.6515651 C114.844231,55.5750725 115.58253,56.3237232 116.493269,56.3237232 Z" id="path-18"></path>
        <filter x="-38.8%" y="-29.3%" width="177.6%" height="165.5%" filterUnits="objectBoundingBox" id="filter-19">
            <feOffset dx="0" dy="1" in="SourceAlpha" result="shadowOffsetOuter1"></feOffset>
            <feGaussianBlur stdDeviation="1" in="shadowOffsetOuter1" result="shadowBlurOuter1"></feGaussianBlur>
            <feColorMatrix values="0 0 0 0 0   0 0 0 0 0   0 0 0 0 0  0 0 0 0.5 0" type="matrix" in="shadowBlurOuter1" result="shadowMatrixOuter1"></feColorMatrix>
            <feMorphology radius="1.5" operator="dilate" in="SourceAlpha" result="shadowSpreadOuter2"></feMorphology>
            <feOffset dx="0" dy="1" in="shadowSpreadOuter2" result="shadowOffsetOuter2"></feOffset>
            <feGaussianBlur stdDeviation="1.5" in="shadowOffsetOuter2" result="shadowBlurOuter2"></feGaussianBlur>
            <feColorMatrix values="0 0 0 0 1   0 0 0 0 0.93113186   0 0 0 0 0.635951791  0 0 0 0.5 0" type="matrix" in="shadowBlurOuter2" result="shadowMatrixOuter2"></feColorMatrix>
            <feMerge>
                <feMergeNode in="shadowMatrixOuter1"></feMergeNode>
                <feMergeNode in="shadowMatrixOuter2"></feMergeNode>
            </feMerge>
        </filter>
        <path d="M265.733173,47.437397 C266.708965,47.437397 267.5,46.6352713 267.5,45.645799 C267.5,44.6563267 266.708965,43.854201 265.733173,43.854201 C264.757382,43.854201 263.966346,44.6563267 263.966346,45.645799 C263.966346,46.6352713 264.757382,47.437397 265.733173,47.437397 Z M244.766827,47.437397 C245.742618,47.437397 246.533654,46.6352713 246.533654,45.645799 C246.533654,44.6563267 245.742618,43.854201 244.766827,43.854201 C243.791035,43.854201 243,44.6563267 243,45.645799 C243,46.6352713 243.791035,47.437397 244.766827,47.437397 Z M265.733173,41.083196 C266.708965,41.083196 267.5,40.2810703 267.5,39.291598 C267.5,38.3021258 266.708965,37.5 265.733173,37.5 C264.757382,37.5 263.966346,38.3021258 263.966346,39.291598 C263.966346,40.2810703 264.757382,41.083196 265.733173,41.083196 Z M245.237981,41.083196 C246.213772,41.083196 247.004808,40.2810703 247.004808,39.291598 C247.004808,38.3021258 246.213772,37.5 245.237981,37.5 C244.262189,37.5 243.471154,38.3021258 243.471154,39.291598 C243.471154,40.2810703 244.262189,41.083196 245.237981,41.083196 Z M265.262019,66.5 C266.237811,66.5 267.028846,65.6978742 267.028846,64.708402 C267.028846,63.7189297 266.237811,62.916804 265.262019,62.916804 C264.286228,62.916804 263.495192,63.7189297 263.495192,64.708402 C263.495192,65.6978742 264.286228,66.5 265.262019,66.5 Z M244.766827,66.5 C245.742618,66.5 246.533654,65.6978742 246.533654,64.708402 C246.533654,63.7189297 245.742618,62.916804 244.766827,62.916804 C243.791035,62.916804 243,63.7189297 243,64.708402 C243,65.6978742 243.791035,66.5 244.766827,66.5 Z M265.733173,60.145799 C266.708965,60.145799 267.5,59.3436733 267.5,58.354201 C267.5,57.3647287 266.708965,56.562603 265.733173,56.562603 C264.757382,56.562603 263.966346,57.3647287 263.966346,58.354201 C263.966346,59.3436733 264.757382,60.145799 265.733173,60.145799 Z M244.766827,60.145799 C245.742618,60.145799 246.533654,59.3436733 246.533654,58.354201 C246.533654,57.3647287 245.742618,56.562603 244.766827,56.562603 C243.791035,56.562603 243,57.3647287 243,58.354201 C243,59.3436733 243.791035,60.145799 244.766827,60.145799 Z M265.733173,53.791598 C266.708965,53.791598 267.5,52.9894723 267.5,52 C267.5,51.0105277 266.708965,50.208402 265.733173,50.208402 C264.757382,50.208402 263.966346,51.0105277 263.966346,52 C263.966346,52.9894723 264.757382,53.791598 265.733173,53.791598 Z M244.766827,53.791598 C245.742618,53.791598 246.533654,52.9894723 246.533654,52 C246.533654,51.0105277 245.742618,50.208402 244.766827,50.208402 C243.791035,50.208402 243,51.0105277 243,52 C243,52.9894723 243.791035,53.791598 244.766827,53.791598 Z M260.7625,61.3879736 C261.673239,61.3879736 262.411538,60.6393229 262.411538,59.7158155 C262.411538,58.792308 261.673239,58.0436573 260.7625,58.0436573 C259.851761,58.0436573 259.113462,58.792308 259.113462,59.7158155 C259.113462,60.6393229 259.851761,61.3879736 260.7625,61.3879736 Z M250.397115,45.5263591 C251.307854,45.5263591 252.046154,44.7777084 252.046154,43.854201 C252.046154,42.9306935 251.307854,42.1820428 250.397115,42.1820428 C249.486377,42.1820428 248.748077,42.9306935 248.748077,43.854201 C248.748077,44.7777084 249.486377,45.5263591 250.397115,45.5263591 Z M253.695192,50.9250412 C254.605931,50.9250412 255.344231,50.1763905 255.344231,49.252883 C255.344231,48.3293756 254.605931,47.5807249 253.695192,47.5807249 C252.784454,47.5807249 252.046154,48.3293756 252.046154,49.252883 C252.046154,50.1763905 252.784454,50.9250412 253.695192,50.9250412 Z M256.993269,56.3237232 C257.904008,56.3237232 258.642308,55.5750725 258.642308,54.6515651 C258.642308,53.7280576 257.904008,52.9794069 256.993269,52.9794069 C256.08253,52.9794069 255.344231,53.7280576 255.344231,54.6515651 C255.344231,55.5750725 256.08253,56.3237232 256.993269,56.3237232 Z" id="path-20"></path>
        <filter x="-38.8%" y="-29.3%" width="177.6%" height="165.5%" filterUnits="objectBoundingBox" id="filter-21">
            <feOffset dx="0" dy="1" in="SourceAlpha" result="shadowOffsetOuter1"></feOffset>
            <feGaussianBlur stdDeviation="1" in="shadowOffsetOuter1" result="shadowBlurOuter1"></feGaussianBlur>
            <feColorMatrix values="0 0 0 0 0   0 0 0 0 0   0 0 0 0 0  0 0 0 0.5 0" type="matrix" in="shadowBlurOuter1" result="shadowMatrixOuter1"></feColorMatrix>
            <feMorphology radius="1.5" operator="dilate" in="SourceAlpha" result="shadowSpreadOuter2"></feMorphology>
            <feOffset dx="0" dy="1" in="shadowSpreadOuter2" result="shadowOffsetOuter2"></feOffset>
            <feGaussianBlur stdDeviation="1.5" in="shadowOffsetOuter2" result="shadowBlurOuter2"></feGaussianBlur>
            <feColorMatrix values="0 0 0 0 1   0 0 0 0 0.93113186   0 0 0 0 0.635951791  0 0 0 0.5 0" type="matrix" in="shadowBlurOuter2" result="shadowMatrixOuter2"></feColorMatrix>
            <feMerge>
                <feMergeNode in="shadowMatrixOuter1"></feMergeNode>
                <feMergeNode in="shadowMatrixOuter2"></feMergeNode>
            </feMerge>
        </filter>
    </defs>
    <g id="Page-1" stroke="none" stroke-width="1" fill="none" fill-rule="evenodd">
        <g id="---english" transform="translate(0.000000, -44.000000)">
            <g id="Group-2" transform="translate(43.500000, 105.027405)">
                <path d="M0.75,48.4725949 L285.25,48.4725949 C285.664214,48.4725949 286,48.8083814 286,49.2225949 C286,49.6368085 285.664214,49.9725949 285.25,49.9725949 L0.75,49.9725949 C0.335786438,49.9725949 5.07265313e-17,49.6368085 0,49.2225949 C-5.07265313e-17,48.8083814 0.335786438,48.4725949 0.75,48.4725949 Z M0.75,55.4725949 L285.25,55.4725949 C285.664214,55.4725949 286,55.8083814 286,56.2225949 C286,56.6368085 285.664214,56.9725949 285.25,56.9725949 L0.75,56.9725949 C0.335786438,56.9725949 5.07265313e-17,56.6368085 0,56.2225949 C-5.07265313e-17,55.8083814 0.335786438,55.4725949 0.75,55.4725949 Z" id="Combined-Shape" fill="#FF95E3"></path>
                <path d="M0.75,48.9725949 L285.25,48.9725949 C285.664214,48.9725949 286,49.3083814 286,49.7225949 C286,50.1368085 285.664214,50.4725949 285.25,50.4725949 L0.75,50.4725949 C0.335786438,50.4725949 5.07265313e-17,50.1368085 0,49.7225949 C-5.07265313e-17,49.3083814 0.335786438,48.9725949 0.75,48.9725949 Z M0.75,56.4725949 L285.25,56.4725949 C285.664214,56.4725949 286,56.8083814 286,57.2225949 C286,57.6368085 285.664214,57.9725949 285.25,57.9725949 L0.75,57.9725949 C0.335786438,57.9725949 5.07265313e-17,57.6368085 0,57.2225949 C-5.07265313e-17,56.8083814 0.335786438,56.4725949 0.75,56.4725949 Z" id="Combined-Shape" fill="#414141" opacity="0.648530506"></path>
                <rect id="Rectangle" fill="#000000" opacity="0.532226562" filter="url(#filter-1)" x="40.7744361" y="2.97259492" width="215.368421" height="92.5"></rect>
                <rect id="Rectangle" fill="url(#linearGradient-2)" opacity="0.561314174" filter="url(#filter-3)" x="13.6404638" y="0" width="263.636366" height="115"></rect>
                <g id="Combined-Shape" fill-rule="nonzero">
                    <use fill="black" fill-opacity="1" filter="url(#filter-5)" xlink:href="#path-4"></use>
                    <use fill="#FFFFE4" xlink:href="#path-4"></use>
                </g>
                <g id="Combined-Shape">
                    <use fill="black" fill-opacity="1" filter="url(#filter-7)" xlink:href="#path-6"></use>
                    <use fill="#FFFFFF" fill-rule="evenodd" xlink:href="#path-6"></use>
                </g>
                <g id="Combined-Shape">
                    <use fill="black" fill-opacity="1" filter="url(#filter-9)" xlink:href="#path-8"></use>
                    <use fill="#FFFFFF" fill-rule="evenodd" xlink:href="#path-8"></use>
                </g>
                <g id="Combined-Shape">
                    <use fill="black" fill-opacity="1" filter="url(#filter-11)" xlink:href="#path-10"></use>
                    <use fill="#FFFFFF" fill-rule="evenodd" xlink:href="#path-10"></use>
                </g>
                <g id="Combined-Shape-Copy-5">
                    <use fill="black" fill-opacity="1" filter="url(#filter-13)" xlink:href="#path-12"></use>
                    <use fill="#FFFFFF" fill-rule="evenodd" xlink:href="#path-12"></use>
                </g>
                <g id="Combined-Shape">
                    <use fill="black" fill-opacity="1" filter="url(#filter-15)" xlink:href="#path-14"></use>
                    <use fill="#FFFFFF" fill-rule="evenodd" xlink:href="#path-14"></use>
                </g>
                <g id="Combined-Shape">
                    <use fill="black" fill-opacity="1" filter="url(#filter-17)" xlink:href="#path-16"></use>
                    <use fill="#FFFFFF" fill-rule="evenodd" xlink:href="#path-16"></use>
                </g>
                <g id="Combined-Shape">
                    <use fill="black" fill-opacity="1" filter="url(#filter-19)" xlink:href="#path-18"></use>
                    <use fill="#FFFFFF" fill-rule="evenodd" xlink:href="#path-18"></use>
                </g>
                <g id="Combined-Shape-Copy-3">
                    <use fill="black" fill-opacity="1" filter="url(#filter-21)" xlink:href="#path-20"></use>
                    <use fill="#FFFFFF" fill-rule="evenodd" xlink:href="#path-20"></use>
                </g>
            </g>
        </g>
    </g>
</svg>