<?xml version="1.0" encoding="UTF-8"?>
<svg width="54px" height="54px" viewBox="0 0 54 54" version="1.1" xmlns="http://www.w3.org/2000/svg" xmlns:xlink="http://www.w3.org/1999/xlink">
    <title>spinning wheel/side_54@1x</title>
    <g id="spinning-wheel/side_54" stroke="none" stroke-width="1" fill="none" fill-rule="evenodd">
        <g id="icons/side-dishes-copy-12" style="mix-blend-mode: overlay;" transform="translate(1.735603, 12.195967)" fill="#000000">
            <path d="M22.5613042,0.753722368 C23.2681646,0.130996606 24.0662744,-0.112408341 24.8694247,0.0479675716 C26.1394755,0.304566891 27.0945421,1.50696765 27.5662853,2.54943422 C27.8143734,3.09766365 28.0759479,3.15473166 28.1616944,3.1709268 C28.539368,3.2520382 29.1186846,2.98468521 29.7938863,2.41812749 C30.7108945,1.6477945 31.7815419,1.44620035 32.7351244,1.86442385 C33.8817528,2.3681494 34.7097031,3.70203035 34.8441603,5.26263125 C34.904892,5.97044606 35.0935676,6.47402929 35.3490575,6.60868299 C35.581956,6.730704 35.9419115,6.54014715 36.136015,6.41411666 C37.229008,5.70474492 38.7739601,5.7276062 39.8100086,6.46735401 C40.7151361,7.11411127 41.1386434,8.21340359 40.9717846,9.48434164 C40.880886,10.1751433 40.6395894,12.0109372 41.0299673,12.499604 C41.0620587,12.5409074 41.1610371,12.6642129 41.539806,12.6490357 C42.9303532,12.5939144 44.7551603,13.1332049 45.4733475,14.4449796 C45.8746234,15.178179 45.8814213,16.0541627 45.4925109,16.9100841 C45.0051844,17.9828433 44.8379418,18.8471298 45.021482,19.3448486 C45.062611,19.4554779 45.1855733,19.7908146 45.8433725,19.991924 C46.973497,20.3374377 48.3318954,21.2115243 48.7540802,22.6303432 C48.9439266,23.2681258 49.018155,24.2799575 48.2953067,25.4782517 C47.3411523,27.0581694 47.5577711,27.3240848 48.0802924,27.9676686 C48.3795559,28.3361498 48.7515936,28.7941589 48.9467133,29.4764975 C49.1833486,30.3032228 49.0234265,31.1167834 48.5088225,31.708106 C47.6064765,32.7477415 45.7810092,32.9440187 43.5011761,32.2470038 L6.77385945,21.0183363 C6.72662693,21.0038958 6.67939441,20.9894554 6.63216189,20.975015 C2.8662324,19.8236548 0.547266089,18.9930017 0.0793660285,17.375548 C-0.0904504464,16.7882644 0.0143322003,16.1482299 0.373660559,15.572419 C1.08643551,14.4297349 2.21714452,14.1140935 3.042854,13.883421 C3.17235542,13.8471463 3.33818852,13.8012231 3.47762809,13.7551036 C3.46597547,13.7293534 3.45319517,13.7011113 3.43793508,13.6706796 C2.54396345,11.8399382 2.96594716,10.5832997 3.29687544,9.99737459 C3.79002679,9.12393754 4.67531392,8.60156897 5.66391678,8.600346 C5.95697427,8.59976078 6.25632994,8.63831903 6.54606928,8.67536873 C6.90968347,8.72212111 7.58690205,8.80820937 7.73852707,8.65630879 C7.74573662,8.64920849 7.91793563,8.46709582 7.91593773,7.64339637 C7.91067118,5.63344996 8.69623649,4.62968395 9.35628884,4.14151922 C10.4303981,3.34764392 11.669469,3.51604151 12.4024275,3.90188423 C12.6129105,4.01275773 12.8182689,4.15069366 13.0205471,4.28840362 C13.2681351,4.45714367 13.6071188,4.68746547 13.7331885,4.64799436 C13.7652881,4.63776775 14.0645167,4.51811101 14.5990136,3.49913838 C16.3478525,0.164579812 18.6974009,1.47410121 19.8277443,2.10525781 C19.9939234,2.1982919 20.1537908,2.28724911 20.304764,2.3620354 C20.6676452,2.54097361 20.7151563,2.56480368 21.5951406,1.67865488 C21.8699526,1.40194582 22.1812127,1.08842617 22.5613042,0.753722368 Z M24.4229697,2.05007156 C24.1500022,1.99524618 23.8995421,2.07899619 23.6342815,2.31210302 C23.3059603,2.60108188 23.0212101,2.88763567 22.7699792,3.14077785 C21.9202095,3.99608335 20.9577913,4.96438897 19.4669708,4.23089645 C19.29223,4.145265 19.1082433,4.04249223 18.9165928,3.93594492 C17.4868019,3.13880218 16.918792,2.98804747 16.1637196,4.42771072 C15.5090996,5.67477783 14.8596559,6.36515869 14.1180867,6.60079931 C13.2208523,6.8861875 12.5071671,6.39816211 11.9854163,6.04253709 C11.8347596,5.9399341 11.6837514,5.83436071 11.5268911,5.7520487 C11.1907792,5.57413743 10.6586412,5.53884632 10.2921765,5.8104377 C9.8378884,6.1467921 9.74423411,6.91047138 9.74570214,7.49280808 C9.7486003,8.6946878 9.47543204,9.55521876 8.90966081,10.1223092 C8.09676371,10.9373552 7.05054676,10.8035842 6.20980185,10.6961301 C5.95950408,10.6639816 5.7230548,10.6339199 5.53519556,10.6344596 C5.22132883,10.6351244 4.94947532,10.7703078 4.82676958,10.9883082 C4.6401703,11.3184686 4.72751195,11.9227652 5.06020796,12.6042212 C5.19689979,12.88435 5.61263797,13.7350561 5.24941801,14.585233 C4.88857509,15.4296951 4.08006739,15.6556065 3.36665756,15.8547654 C2.76013887,16.02362 2.13273791,16.1989734 1.85209806,16.6492544 C1.84483983,16.6606341 1.83978287,16.6648139 1.83670273,16.6645879 C2.16590746,17.4666506 5.54959319,18.4982842 7.37283864,19.0550433 L44.1013073,30.2840631 C46.0453287,30.8784101 47.0892269,30.5397538 47.2391375,30.3522584 C47.2268953,30.3613987 47.2277039,30.3072505 47.2015808,30.2155235 C47.1165187,29.9189718 46.9170097,29.6733176 46.685961,29.3886759 C45.8155267,28.317362 45.1694997,27.1321454 46.8005517,24.4300668 C47.1147487,23.9091679 47.0727491,23.5871323 47.0144888,23.390388 C46.8420901,22.8109037 46.1143483,22.2205259 45.2445787,21.9546106 C44.0470615,21.5884929 43.5383699,20.8131487 43.3226978,20.226876 C42.9288994,19.1581385 43.113674,17.7688567 43.872327,16.0991076 C43.9978181,15.8225532 43.9514754,15.6960153 43.8933448,15.5894926 C43.6009637,15.0563506 42.494004,14.6391888 41.475465,14.6806447 C40.6805409,14.7117363 40.0596331,14.4517643 39.6253652,13.9088824 C38.7821059,12.8537498 38.9345731,11.0695283 39.1626052,9.33274409 C39.2300983,8.8194448 39.0938528,8.44927063 38.7458233,8.20115296 C38.2607856,7.85317358 37.4647176,7.83238297 36.9722859,8.15134989 C36.0813577,8.72925213 35.194808,8.83754318 34.4708411,8.45731241 C33.8964709,8.15431001 33.1791216,7.41251197 33.0232712,5.59844393 C32.9500973,4.74797369 32.5224765,4.01029851 31.9599942,3.76317884 C31.5882295,3.60299655 31.2187713,3.68042583 30.8287363,4.00851094 C29.6748027,4.97695422 28.6201184,5.36737119 27.6933268,5.16847862 C27.1635929,5.0573395 26.4279843,4.68428541 25.9207072,3.56439222 C25.5653144,2.77794216 24.9485201,2.15635301 24.4229697,2.05007156 Z M27.7976988,7.23453846 C33.6473925,9.16901466 36.5537669,11.4553166 39.2887223,16.1381781 L39.6526105,16.776941 C41.4490955,20.0070409 42.3539712,23.2007171 42.3539712,26.3494112 C42.3539712,26.8636073 41.9371328,27.2804457 41.4229367,27.2804457 C40.9087406,27.2804457 40.4919022,26.8636073 40.4919022,26.3494112 C40.4919022,23.532898 39.6741216,20.6466157 38.0252941,17.6820057 C35.4056655,12.9718846 32.8785718,10.8760142 27.2130572,9.00244544 C22.9562679,7.59473796 18.3979997,8.59866275 14.1897845,11.3342166 C12.5252223,12.4162667 11.0247224,13.715002 9.91057709,14.9852245 C9.6063573,15.3320616 9.34350745,15.6659664 9.12824978,15.9673792 L8.92908663,16.2572369 C8.89861359,16.3034999 8.86952018,16.3486793 8.84183519,16.3926844 L8.69285682,16.6419002 L8.57906336,16.858588 C8.51523663,16.9912381 8.47578833,17.099305 8.46256208,17.1769935 L8.45758783,17.2294733 C8.45758783,17.7436695 8.04074949,18.1605078 7.52655335,18.1605078 C7.0123572,18.1605078 6.59551887,17.7436695 6.59551887,17.2294733 C6.59551887,15.503851 9.56242434,12.1213207 13.1749228,9.77301301 C17.8179777,6.75479124 22.937444,5.62726675 27.7976988,7.23453846 Z M37.5090766,18.8865919 C37.6960351,19.3655953 37.4592859,19.905464 36.9802825,20.0924224 C35.7750524,20.5628324 34.9088739,21.0070636 34.3959697,21.4051588 C34.2301667,21.5338483 34.0757746,21.6735209 33.9322419,21.823493 C33.2866316,22.4980672 32.9045194,23.3141114 32.7235938,24.0827591 L32.6614831,24.3908996 L32.6541928,24.441704 C32.5999056,24.9530264 32.1413884,25.3235265 31.630066,25.2692393 C31.1187436,25.214952 30.7482435,24.7564348 30.8025307,24.2451124 L30.8193812,24.1189163 L30.8501831,23.9417481 C31.0698034,22.7918526 31.5980334,21.5693396 32.5869969,20.5360083 C32.7930591,20.3207016 33.015338,20.1196142 33.2542543,19.9341772 C33.9342031,19.4064289 34.9457928,18.8876216 36.3032461,18.3577978 C36.7822495,18.1708394 37.3221182,18.4075886 37.5090766,18.8865919 Z M32.5653934,14.4857153 C32.7021926,14.9813802 32.4112744,15.4940936 31.9156096,15.6308928 C31.7012428,15.6900561 31.494895,15.749463 31.2966193,15.8090374 L30.7260614,15.9881867 C29.542551,16.3771022 28.7023277,16.769876 28.2199686,17.145602 L28.0859888,17.2574289 C27.0185417,18.1961717 26.1858518,19.299972 25.56119,20.4814897 C25.2034778,21.1580851 24.9654492,21.7552771 24.8270546,22.207441 L24.7724168,22.3975754 L24.7399583,22.5032344 C24.5772265,22.9400597 24.1093006,23.1951772 23.6456289,23.0812294 C23.1819572,22.9672815 22.8855811,22.5243359 22.9439537,22.0614532 L22.9660011,21.945637 L22.9840471,21.8775155 C23.146027,21.286981 23.4445589,20.5010424 23.9150279,19.6111729 C24.5794054,18.3545351 25.4481795,17.1715729 26.5500068,16.1374414 L26.8903871,15.829288 C27.74522,15.0829804 29.2422645,14.437027 31.420216,13.8359315 C31.9158809,13.6991323 32.4285943,13.9900505 32.5653934,14.4857153 Z M25.7423774,10.2923984 C25.8774218,10.7885442 25.5846912,11.300225 25.0885454,11.4352694 C22.7520451,12.0712341 20.8602932,13.152067 19.3947664,14.6787868 C19.1776181,14.9050022 18.970383,15.1454053 18.7729292,15.3988444 C18.0923976,16.2723316 17.5538528,17.2623523 17.1459841,18.2867407 C17.0376329,18.5588719 16.944392,18.8190875 16.8654495,19.062985 L16.7601769,19.4071754 L16.7125599,19.5796419 L16.683627,19.6963521 L16.6542266,19.7993797 C16.5009136,20.2395991 16.0385746,20.5047071 15.5725398,20.4008425 C15.1065507,20.2967797 14.8007302,19.8603013 14.8490614,19.3966612 L14.8665508,19.2893152 C14.8859055,19.204204 14.9096184,19.108927 14.9379645,19.0043136 L15.0371388,18.6632845 L15.1655302,18.2711591 C15.2372664,18.0631428 15.3204906,17.8378112 15.416,17.5979332 C15.8847461,16.4206473 16.5056909,15.2791486 17.3040408,14.2544373 C17.5401047,13.9514407 17.7890925,13.6626023 18.0514389,13.3893017 C19.7584127,11.6110532 21.9472762,10.3604686 24.5995064,9.63856636 C25.0956522,9.50352197 25.607333,9.79625253 25.7423774,10.2923984 Z" id="Combined-Shape"></path>
        </g>
        <g id="icons/side-dishes-copy-12" opacity="0.549291" style="mix-blend-mode: overlay;" transform="translate(1.735603, 12.195967)" fill="#000000">
            <path d="M22.5613042,0.753722368 C23.2681646,0.130996606 24.0662744,-0.112408341 24.8694247,0.0479675716 C26.1394755,0.304566891 27.0945421,1.50696765 27.5662853,2.54943422 C27.8143734,3.09766365 28.0759479,3.15473166 28.1616944,3.1709268 C28.539368,3.2520382 29.1186846,2.98468521 29.7938863,2.41812749 C30.7108945,1.6477945 31.7815419,1.44620035 32.7351244,1.86442385 C33.8817528,2.3681494 34.7097031,3.70203035 34.8441603,5.26263125 C34.904892,5.97044606 35.0935676,6.47402929 35.3490575,6.60868299 C35.581956,6.730704 35.9419115,6.54014715 36.136015,6.41411666 C37.229008,5.70474492 38.7739601,5.7276062 39.8100086,6.46735401 C40.7151361,7.11411127 41.1386434,8.21340359 40.9717846,9.48434164 C40.880886,10.1751433 40.6395894,12.0109372 41.0299673,12.499604 C41.0620587,12.5409074 41.1610371,12.6642129 41.539806,12.6490357 C42.9303532,12.5939144 44.7551603,13.1332049 45.4733475,14.4449796 C45.8746234,15.178179 45.8814213,16.0541627 45.4925109,16.9100841 C45.0051844,17.9828433 44.8379418,18.8471298 45.021482,19.3448486 C45.062611,19.4554779 45.1855733,19.7908146 45.8433725,19.991924 C46.973497,20.3374377 48.3318954,21.2115243 48.7540802,22.6303432 C48.9439266,23.2681258 49.018155,24.2799575 48.2953067,25.4782517 C47.3411523,27.0581694 47.5577711,27.3240848 48.0802924,27.9676686 C48.3795559,28.3361498 48.7515936,28.7941589 48.9467133,29.4764975 C49.1833486,30.3032228 49.0234265,31.1167834 48.5088225,31.708106 C47.6064765,32.7477415 45.7810092,32.9440187 43.5011761,32.2470038 L6.77385945,21.0183363 C6.72662693,21.0038958 6.67939441,20.9894554 6.63216189,20.975015 C2.8662324,19.8236548 0.547266089,18.9930017 0.0793660285,17.375548 C-0.0904504464,16.7882644 0.0143322003,16.1482299 0.373660559,15.572419 C1.08643551,14.4297349 2.21714452,14.1140935 3.042854,13.883421 C3.17235542,13.8471463 3.33818852,13.8012231 3.47762809,13.7551036 C3.46597547,13.7293534 3.45319517,13.7011113 3.43793508,13.6706796 C2.54396345,11.8399382 2.96594716,10.5832997 3.29687544,9.99737459 C3.79002679,9.12393754 4.67531392,8.60156897 5.66391678,8.600346 C5.95697427,8.59976078 6.25632994,8.63831903 6.54606928,8.67536873 C6.90968347,8.72212111 7.58690205,8.80820937 7.73852707,8.65630879 C7.74573662,8.64920849 7.91793563,8.46709582 7.91593773,7.64339637 C7.91067118,5.63344996 8.69623649,4.62968395 9.35628884,4.14151922 C10.4303981,3.34764392 11.669469,3.51604151 12.4024275,3.90188423 C12.6129105,4.01275773 12.8182689,4.15069366 13.0205471,4.28840362 C13.2681351,4.45714367 13.6071188,4.68746547 13.7331885,4.64799436 C13.7652881,4.63776775 14.0645167,4.51811101 14.5990136,3.49913838 C16.3478525,0.164579812 18.6974009,1.47410121 19.8277443,2.10525781 C19.9939234,2.1982919 20.1537908,2.28724911 20.304764,2.3620354 C20.6676452,2.54097361 20.7151563,2.56480368 21.5951406,1.67865488 C21.8699526,1.40194582 22.1812127,1.08842617 22.5613042,0.753722368 Z M24.4229697,2.05007156 C24.1500022,1.99524618 23.8995421,2.07899619 23.6342815,2.31210302 C23.3059603,2.60108188 23.0212101,2.88763567 22.7699792,3.14077785 C21.9202095,3.99608335 20.9577913,4.96438897 19.4669708,4.23089645 C19.29223,4.145265 19.1082433,4.04249223 18.9165928,3.93594492 C17.4868019,3.13880218 16.918792,2.98804747 16.1637196,4.42771072 C15.5090996,5.67477783 14.8596559,6.36515869 14.1180867,6.60079931 C13.2208523,6.8861875 12.5071671,6.39816211 11.9854163,6.04253709 C11.8347596,5.9399341 11.6837514,5.83436071 11.5268911,5.7520487 C11.1907792,5.57413743 10.6586412,5.53884632 10.2921765,5.8104377 C9.8378884,6.1467921 9.74423411,6.91047138 9.74570214,7.49280808 C9.7486003,8.6946878 9.47543204,9.55521876 8.90966081,10.1223092 C8.09676371,10.9373552 7.05054676,10.8035842 6.20980185,10.6961301 C5.95950408,10.6639816 5.7230548,10.6339199 5.53519556,10.6344596 C5.22132883,10.6351244 4.94947532,10.7703078 4.82676958,10.9883082 C4.6401703,11.3184686 4.72751195,11.9227652 5.06020796,12.6042212 C5.19689979,12.88435 5.61263797,13.7350561 5.24941801,14.585233 C4.88857509,15.4296951 4.08006739,15.6556065 3.36665756,15.8547654 C2.76013887,16.02362 2.13273791,16.1989734 1.85209806,16.6492544 C1.84483983,16.6606341 1.83978287,16.6648139 1.83670273,16.6645879 C2.16590746,17.4666506 5.54959319,18.4982842 7.37283864,19.0550433 L44.1013073,30.2840631 C46.0453287,30.8784101 47.0892269,30.5397538 47.2391375,30.3522584 C47.2268953,30.3613987 47.2277039,30.3072505 47.2015808,30.2155235 C47.1165187,29.9189718 46.9170097,29.6733176 46.685961,29.3886759 C45.8155267,28.317362 45.1694997,27.1321454 46.8005517,24.4300668 C47.1147487,23.9091679 47.0727491,23.5871323 47.0144888,23.390388 C46.8420901,22.8109037 46.1143483,22.2205259 45.2445787,21.9546106 C44.0470615,21.5884929 43.5383699,20.8131487 43.3226978,20.226876 C42.9288994,19.1581385 43.113674,17.7688567 43.872327,16.0991076 C43.9978181,15.8225532 43.9514754,15.6960153 43.8933448,15.5894926 C43.6009637,15.0563506 42.494004,14.6391888 41.475465,14.6806447 C40.6805409,14.7117363 40.0596331,14.4517643 39.6253652,13.9088824 C38.7821059,12.8537498 38.9345731,11.0695283 39.1626052,9.33274409 C39.2300983,8.8194448 39.0938528,8.44927063 38.7458233,8.20115296 C38.2607856,7.85317358 37.4647176,7.83238297 36.9722859,8.15134989 C36.0813577,8.72925213 35.194808,8.83754318 34.4708411,8.45731241 C33.8964709,8.15431001 33.1791216,7.41251197 33.0232712,5.59844393 C32.9500973,4.74797369 32.5224765,4.01029851 31.9599942,3.76317884 C31.5882295,3.60299655 31.2187713,3.68042583 30.8287363,4.00851094 C29.6748027,4.97695422 28.6201184,5.36737119 27.6933268,5.16847862 C27.1635929,5.0573395 26.4279843,4.68428541 25.9207072,3.56439222 C25.5653144,2.77794216 24.9485201,2.15635301 24.4229697,2.05007156 Z M27.7976988,7.23453846 C33.6473925,9.16901466 36.5537669,11.4553166 39.2887223,16.1381781 L39.6526105,16.776941 C41.4490955,20.0070409 42.3539712,23.2007171 42.3539712,26.3494112 C42.3539712,26.8636073 41.9371328,27.2804457 41.4229367,27.2804457 C40.9087406,27.2804457 40.4919022,26.8636073 40.4919022,26.3494112 C40.4919022,23.532898 39.6741216,20.6466157 38.0252941,17.6820057 C35.4056655,12.9718846 32.8785718,10.8760142 27.2130572,9.00244544 C22.9562679,7.59473796 18.3979997,8.59866275 14.1897845,11.3342166 C12.5252223,12.4162667 11.0247224,13.715002 9.91057709,14.9852245 C9.6063573,15.3320616 9.34350745,15.6659664 9.12824978,15.9673792 L8.92908663,16.2572369 C8.89861359,16.3034999 8.86952018,16.3486793 8.84183519,16.3926844 L8.69285682,16.6419002 L8.57906336,16.858588 C8.51523663,16.9912381 8.47578833,17.099305 8.46256208,17.1769935 L8.45758783,17.2294733 C8.45758783,17.7436695 8.04074949,18.1605078 7.52655335,18.1605078 C7.0123572,18.1605078 6.59551887,17.7436695 6.59551887,17.2294733 C6.59551887,15.503851 9.56242434,12.1213207 13.1749228,9.77301301 C17.8179777,6.75479124 22.937444,5.62726675 27.7976988,7.23453846 Z M37.5090766,18.8865919 C37.6960351,19.3655953 37.4592859,19.905464 36.9802825,20.0924224 C35.7750524,20.5628324 34.9088739,21.0070636 34.3959697,21.4051588 C34.2301667,21.5338483 34.0757746,21.6735209 33.9322419,21.823493 C33.2866316,22.4980672 32.9045194,23.3141114 32.7235938,24.0827591 L32.6614831,24.3908996 L32.6541928,24.441704 C32.5999056,24.9530264 32.1413884,25.3235265 31.630066,25.2692393 C31.1187436,25.214952 30.7482435,24.7564348 30.8025307,24.2451124 L30.8193812,24.1189163 L30.8501831,23.9417481 C31.0698034,22.7918526 31.5980334,21.5693396 32.5869969,20.5360083 C32.7930591,20.3207016 33.015338,20.1196142 33.2542543,19.9341772 C33.9342031,19.4064289 34.9457928,18.8876216 36.3032461,18.3577978 C36.7822495,18.1708394 37.3221182,18.4075886 37.5090766,18.8865919 Z M32.5653934,14.4857153 C32.7021926,14.9813802 32.4112744,15.4940936 31.9156096,15.6308928 C31.7012428,15.6900561 31.494895,15.749463 31.2966193,15.8090374 L30.7260614,15.9881867 C29.542551,16.3771022 28.7023277,16.769876 28.2199686,17.145602 L28.0859888,17.2574289 C27.0185417,18.1961717 26.1858518,19.299972 25.56119,20.4814897 C25.2034778,21.1580851 24.9654492,21.7552771 24.8270546,22.207441 L24.7724168,22.3975754 L24.7399583,22.5032344 C24.5772265,22.9400597 24.1093006,23.1951772 23.6456289,23.0812294 C23.1819572,22.9672815 22.8855811,22.5243359 22.9439537,22.0614532 L22.9660011,21.945637 L22.9840471,21.8775155 C23.146027,21.286981 23.4445589,20.5010424 23.9150279,19.6111729 C24.5794054,18.3545351 25.4481795,17.1715729 26.5500068,16.1374414 L26.8903871,15.829288 C27.74522,15.0829804 29.2422645,14.437027 31.420216,13.8359315 C31.9158809,13.6991323 32.4285943,13.9900505 32.5653934,14.4857153 Z M25.7423774,10.2923984 C25.8774218,10.7885442 25.5846912,11.300225 25.0885454,11.4352694 C22.7520451,12.0712341 20.8602932,13.152067 19.3947664,14.6787868 C19.1776181,14.9050022 18.970383,15.1454053 18.7729292,15.3988444 C18.0923976,16.2723316 17.5538528,17.2623523 17.1459841,18.2867407 C17.0376329,18.5588719 16.944392,18.8190875 16.8654495,19.062985 L16.7601769,19.4071754 L16.7125599,19.5796419 L16.683627,19.6963521 L16.6542266,19.7993797 C16.5009136,20.2395991 16.0385746,20.5047071 15.5725398,20.4008425 C15.1065507,20.2967797 14.8007302,19.8603013 14.8490614,19.3966612 L14.8665508,19.2893152 C14.8859055,19.204204 14.9096184,19.108927 14.9379645,19.0043136 L15.0371388,18.6632845 L15.1655302,18.2711591 C15.2372664,18.0631428 15.3204906,17.8378112 15.416,17.5979332 C15.8847461,16.4206473 16.5056909,15.2791486 17.3040408,14.2544373 C17.5401047,13.9514407 17.7890925,13.6626023 18.0514389,13.3893017 C19.7584127,11.6110532 21.9472762,10.3604686 24.5995064,9.63856636 C25.0956522,9.50352197 25.607333,9.79625253 25.7423774,10.2923984 Z" id="Combined-Shape"></path>
        </g>
    </g>
</svg>