<svg xmlns="http://www.w3.org/2000/svg" viewBox="0 0 112 171">
  <defs>
    <filter id="products_cinnabon_copy-a" width="233.6%" height="144.1%" x="-66.8%" y="-14.7%" filterUnits="objectBoundingBox">
      <feOffset dy="8" in="SourceAlpha" result="shadowOffsetOuter1"/>
      <feGaussianBlur in="shadowOffsetOuter1" result="shadowBlurOuter1" stdDeviation="6.5"/>
      <feColorMatrix in="shadowBlurOuter1" result="shadowMatrixOuter1" values="0 0 0 0 0   0 0 0 0 0   0 0 0 0 0  0 0 0 0.55935861 0"/>
      <feMerge>
        <feMergeNode in="shadowMatrixOuter1"/>
        <feMergeNode in="SourceGraphic"/>
      </feMerge>
    </filter>
  </defs>
  <g fill="none" fill-rule="evenodd" filter="url(#products_cinnabon_copy-a)" transform="translate(31 31)">
    <path fill="#1E262C" stroke="#FFF" stroke-dasharray="1.9 2.85" stroke-linecap="round" stroke-linejoin="round" stroke-width="1.089" d="M30.2687354,108.052174 C36.8900213,108.052174 35.5791593,99.0067334 32.1605314,85.3043478 C31.2146334,81.5130435 34.9982253,75.826087 35.9441233,53.0782609 C36.8900213,30.3304348 25.5392455,19.9043478 23.6474495,15.1652174 C22.6175949,12.5853327 23.1643488,8.53079026 23.3959152,3.00159011 C23.3981426,2.94897784 23.3992401,2.89632403 23.3992426,2.84366445 C23.3993453,0.749784877 21.7054566,0 19.6158365,0 C18.5731518,0 17.4039409,0 16.108204,0 C14.1645987,0 12.5889952,0.630989056 12.5889952,2.57855623 C12.5889952,2.63165824 12.5901922,2.68475347 12.592609,2.73780024 C12.8481347,8.40200538 13.3987138,12.5444778 12.3525505,15.1652174 C10.4607545,19.9043478 -0.890021295,30.3304348 0.0558766869,53.0782609 C1.00177467,75.826087 4.72948991,80.5652174 3.83946861,85.3043478 C1.03596597,100.232266 -0.890021295,108.052174 5.73126458,108.052174 C6.00027166,108.052174 7.24284341,108.052174 9.45897982,108.052174 L11.9183146,103.313043 L12.1424754,104.15536 C12.9026738,107.011915 15.4890323,109 18.4450106,109 C21.2908337,109 23.6735035,106.843277 23.9561032,104.01152 L24.0258087,103.313043 L24.0258087,103.313043 L26.4851435,108.052174 C28.5937434,108.052174 29.8549407,108.052174 30.2687354,108.052174 Z"/>
    <g transform="translate(8.607 42.467)">
      <path fill="#FFF" d="M13.7017621,0.343146243 C13.4809293,0.12191434 13.1863505,0 12.8740781,0 C12.5615356,0 12.2672269,0.12191434 12.0465292,0.343146243 L0.342392102,12.0687078 C-0.114130701,12.5264616 -0.114130701,13.2703962 0.342392102,13.7276088 L5.58051854,18.9750671 C5.80121625,19.1961637 6.09511969,19.3180781 6.40806742,19.3180781 C6.72047489,19.3180781 7.01451339,19.1961637 7.2356163,18.9750671 L18.9404288,7.24950563 C19.3966814,6.79242834 19.3966814,6.04835847 18.9404288,5.59128118 L13.7017621,0.343146243 Z"/>
      <path fill="#F5002E" d="M18.6080535,5.99037661 L13.372015,0.745810959 C13.1198384,0.492617568 12.710524,0.492617568 12.4584825,0.745810959 L6.79746975,6.41628793 L12.9466358,12.5775976 L18.6080535,6.90617386 C18.8600951,6.65365673 18.8600951,6.24370525 18.6080535,5.99037661 M14.0032664,7.50723765 C13.7069454,7.80398247 13.3178807,7.95140811 12.930571,7.95140811 C12.5440713,7.95140811 12.1548716,7.80398247 11.8586857,7.50723765 C11.5627697,7.21049284 11.4135967,6.82123505 11.4135967,6.43265353 C11.4135967,6.04393675 11.5627697,5.6540027 11.8586857,5.35861041 C12.1548716,5.06254186 12.5427213,4.91308743 12.931246,4.91308743 C13.3178807,4.91308743 13.7069454,5.06105408 14.0032664,5.35861041 C14.2987774,5.6540027 14.4486253,6.04447776 14.4486253,6.43265353 C14.4486253,6.82055878 14.2987774,7.21049284 14.0032664,7.50723765"/>
      <path fill="#017AFF" d="M0.744272483,12.4103474 C0.491769825,12.6627804 0.491769825,13.0729502 0.744272483,13.3263301 L5.98079954,18.5726345 C6.10691584,18.6992568 6.27246036,18.7621622 6.43800488,18.7621622 C6.60314432,18.7621622 6.76868885,18.6992568 6.89480515,18.5726345 L12.5545105,12.9029029 L6.4035727,6.74048048 L0.744272483,12.4103474 Z M5.27919322,13.9214281 C4.9822663,14.2163391 4.59352023,14.3648768 4.20598941,14.3648768 C3.81764842,14.3648768 3.42944246,14.2168802 3.13319068,13.9214281 C2.83680387,13.6251643 2.68962318,13.2359629 2.68962318,12.8471674 C2.68962318,12.4585072 2.83747901,12.0693058 3.13319068,11.7715539 C3.42944246,11.4755607 3.81764842,11.3272935 4.20598941,11.3272935 C4.59352023,11.3272935 4.98294144,11.4755607 5.27919322,11.7715539 C5.57517494,12.0693058 5.72262569,12.4585072 5.72235601,12.846491 C5.72235601,13.2351512 5.57517494,13.6258407 5.27919322,13.9214281 L5.27919322,13.9214281 Z M7.5850691,11.8332417 C7.88145591,11.5363015 8.27006695,11.3883049 8.65759777,11.3883049 C9.04593876,11.3883049 9.4345498,11.5363015 9.73012644,11.8332417 C10.0274584,12.1301819 10.1755843,12.5181658 10.1755843,12.9081788 C10.1755843,13.2961626 10.0274584,13.6856345 9.73012644,13.9816278 C9.4345498,14.2773505 9.04593876,14.4258882 8.65759777,14.427241 C8.27006695,14.427241 7.88145591,14.2773505 7.58547418,13.9816278 C7.28908737,13.6856345 7.14096148,13.2961626 7.14096148,12.9081788 C7.14096148,12.5195186 7.28908737,12.1301819 7.5850691,11.8332417 L7.5850691,11.8332417 Z"/>
      <polyline fill="#FFF" points="8.804 18.762 8.804 18.198 8.601 18.198 8.601 18.067 9.156 18.067 9.156 18.198 8.954 18.198 8.954 18.762"/>
      <polyline fill="#FFF" points="9.836 18.762 9.836 18.261 9.638 18.762 9.574 18.762 9.375 18.261 9.375 18.762 9.225 18.762 9.225 18.067 9.436 18.067 9.607 18.502 9.777 18.067 9.988 18.067 9.988 18.762"/>
    </g>
  </g>
</svg>
