<?xml version="1.0" encoding="UTF-8"?>
<svg width="25px" height="20px" viewBox="0 0 25 20" version="1.1" xmlns="http://www.w3.org/2000/svg" xmlns:xlink="http://www.w3.org/1999/xlink">
    <title>icons/header/kebab</title>
    <g id="Page-1" stroke="none" stroke-width="1" fill="none" fill-rule="evenodd">
        <g id="בילדר_בקשות-מיוחדות_חיווי_מסך-קצר" transform="translate(-19.000000, -99.000000)" fill="#FFFFFF">
            <g id="icons/header/kebab" transform="translate(19.000000, 99.000000)">
                <path d="M13,5 C13.8284271,5 14.5,4.32842712 14.5,3.5 C14.5,2.67157288 13.8284271,2 13,2 C12.1715729,2 11.5,2.67157288 11.5,3.5 C11.5,4.32842712 12.1715729,5 13,5 Z M13,12 C13.8284271,12 14.5,11.3284271 14.5,10.5 C14.5,9.67157288 13.8284271,9 13,9 C12.1715729,9 11.5,9.67157288 11.5,10.5 C11.5,11.3284271 12.1715729,12 13,12 Z M13,19 C13.8284271,19 14.5,18.3284271 14.5,17.5 C14.5,16.6715729 13.8284271,16 13,16 C12.1715729,16 11.5,16.6715729 11.5,17.5 C11.5,18.3284271 12.1715729,19 13,19 Z" id="Combined-Shape"></path>
            </g>
        </g>
    </g>
</svg>