<svg xmlns="http://www.w3.org/2000/svg" viewBox="0 0 19 19">
  <path fill="#FFF" fill-rule="evenodd" d="M10.3572602,1.9 C10.7620888,1.9 11.1233488,2.06257709 11.3835299,2.32800924 C11.6384274,2.58805119 11.7965836,2.94716733 11.802461,3.35015793 L11.8026308,3.80603601 L15.9622457,3.80603601 C16.0757155,3.80603601 16.1687921,3.84705781 16.2345114,3.91410349 C16.2998673,3.98077843 16.34,4.07518741 16.34,4.19032825 C16.34,4.30546908 16.2998673,4.39987806 16.2345114,4.466553 C16.1716495,4.53068365 16.0837574,4.57100417 15.9769299,4.57438907 L14.9448715,4.57462048 L14.2047625,15.6576218 C14.2037367,16.0562636 14.0434255,16.4177095 13.7819579,16.6791193 C13.5271506,16.9338702 13.1761605,17.093766 12.7825964,17.0998217 L12.7593968,17.1 L6.62060316,17.1 C6.21577454,17.1 5.85451452,16.9374229 5.59433348,16.6719908 C5.34032378,16.4128545 5.18238314,16.0553333 5.17546931,15.6540519 L5.17523722,15.630397 L4.43514547,4.57462048 L3.41775429,4.57462048 C3.30428452,4.57462048 3.21120791,4.53359868 3.14548861,4.466553 C3.08013271,4.39987806 3.04,4.30546908 3.04,4.19032825 C3.04,4.07518741 3.08013271,3.98077843 3.14548861,3.91410349 C3.20835055,3.84997284 3.29624261,3.80965232 3.40307011,3.80626742 L7.31046517,3.80603601 L7.31046517,3.37345567 C7.31046517,2.96101613 7.4697667,2.593052 7.72956606,2.32800924 C7.98483803,2.06758525 8.33741066,1.9061716 8.73296783,1.90017323 L10.3572602,1.9 Z M13.681,8.613 L5.708,8.613 L6.15651985,15.5985214 L6.15666107,15.6188286 C6.16023794,15.8210049 6.22854107,15.9960617 6.34233365,16.1214275 C6.43489334,16.223401 6.55724349,16.2917062 6.6965349,16.3149493 L6.80397917,16.3237545 L12.6185726,16.3235238 C12.7942657,16.3189192 12.949295,16.2456209 13.0613329,16.1261699 C13.1556908,16.0255687 13.2193124,15.8927622 13.2405731,15.7418756 L13.2483943,15.6255413 L13.681,8.613 Z M13.9218182,4.72285714 L5.45818182,4.72285714 L5.643,7.6 L13.743,7.6 L13.9218182,4.72285714 Z M10.2722588,2.52040816 L8.78838033,2.52065992 C8.61815615,2.52568604 8.46789763,2.60569736 8.35932959,2.73630027 C8.26873796,2.8452783 8.20744927,2.98893678 8.18655746,3.15216656 L8.17863636,3.27802243 L8.17863636,3.74155525 L10.8990909,3.74155525 L10.8990909,3.27802243 L10.8988811,3.25728541 C10.8946914,3.05070537 10.8279843,2.86812853 10.7183977,2.73630027 C10.6062107,2.60134393 10.4495076,2.52040816 10.2722588,2.52040816 Z"/>
</svg>
