<?xml version="1.0" encoding="UTF-8"?>
<svg width="14px" height="16px" viewBox="0 0 14 16" version="1.1" xmlns="http://www.w3.org/2000/svg" xmlns:xlink="http://www.w3.org/1999/xlink">
    <title>icons/outline/trash copy</title>
    <g id="Page-1" stroke="none" stroke-width="1" fill="none" fill-rule="evenodd">
        <g id="בילדר_ללא-סינון-_שלוש-נק-פתוח" transform="translate(-181.000000, -149.000000)" fill="#FFFFFF">
            <g id="tooltip" transform="translate(15.500000, 124.205078)">
                <g id="componrnts/tooltip/row-copy" transform="translate(0.000000, 7.054545)">
                    <g id="Group" transform="translate(7.000000, 18.000000)">
                        <g id="icons/outline/trash-copy" transform="translate(159.000000, 0.708333)">
                            <path d="M2.88536189,6.71238687 C2.32711113,6.61134298 1.84289171,6.33474901 1.50401362,5.92680735 L1.39653509,5.7860227 L-0.357030078,3.2816721 C-0.518624046,3.050892 -0.493739255,2.74658537 -0.311719485,2.55962821 L-0.23615368,2.49539284 L2.87661196,0.315810878 C3.09745698,0.161173531 3.39850622,0.199044314 3.59035876,0.39171392 L3.65681494,0.471147565 L5.38298065,2.93636768 C6.0938443,3.9515862 5.83464429,5.50998044 4.82828001,6.27203443 L4.79542958,6.29604858 L5.04839097,6.11976237 L6.25142958,7.94704858 L8.14524239,5.37841819 L7.66731818,5.08850615 C7.35290121,4.8977787 7.28040597,4.49112267 7.50684752,4.18835933 L7.50684752,4.18835933 L9.98507788,0.874845093 C10.2115195,0.572081657 10.6572084,0.47975972 10.9716253,0.670487169 L10.9716253,0.670487169 L11.162795,0.786451986 C11.2683631,0.850505098 11.2923098,0.98483188 11.2162852,1.08650093 L11.2162852,1.08650093 L9.0134138,4.03184692 L9.20458348,4.14781173 L11.4074549,1.20246574 C11.4835006,1.1008095 11.6307207,1.07031365 11.7363041,1.13434644 L11.7363041,1.13434644 L12.3098131,1.48224089 C12.4153812,1.546294 12.4393279,1.68062078 12.3633033,1.78228983 L12.3633033,1.78228983 L10.1604319,4.72763581 L10.3516016,4.84360063 L12.554473,1.89825464 C12.6305187,1.7965984 12.7777388,1.76610255 12.8833222,1.83013533 L12.8833222,1.83013533 L13.0744918,1.94610015 C13.3889092,2.13682783 13.4614039,2.54348381 13.2349625,2.84624697 L13.2349625,2.84624697 L10.7567322,6.15976121 C10.5302907,6.46252437 10.0846021,6.55484682 9.77018471,6.36411913 L9.77018471,6.36411913 L9.2922605,6.07420709 L7.03442958,9.13604858 L7.42835336,9.73314487 L7.99224505,9.33895064 L10.6386719,13 C10.9027499,13.3771424 10.8599911,13.8719311 10.5557031,14.1531853 L10.4742088,14.2188585 L10.1200546,14.46684 C9.77222492,14.7103929 9.28626845,14.6286494 8.98872437,14.293528 L8.91845258,14.2045105 L6.27202576,10.5434612 L6.85494693,10.1346484 L6.59242958,9.73604858 L3.24514664,14.2792702 C3.04134949,14.5517569 2.65996184,14.6537869 2.35651203,14.5324276 L2.2585992,14.4836282 C1.94418185,14.2929005 1.87168726,13.8862443 2.09812854,13.5834813 L2.09812854,13.5834813 L5.80942958,8.54704858 L4.47498454,6.52126588 L4.76242958,6.31904858 L4.6016174,6.42248992 C4.1025831,6.71157315 3.4798843,6.81969023 2.88536189,6.71238687 Z" id="Combined-Shape"></path>
                        </g>
                    </g>
                </g>
            </g>
        </g>
    </g>
</svg>