<?xml version="1.0" encoding="UTF-8"?>
<svg width="14px" height="16px" viewBox="0 0 14 16" version="1.1" xmlns="http://www.w3.org/2000/svg" xmlns:xlink="http://www.w3.org/1999/xlink">
    <title>icons/outline/trash copy</title>
    <g id="Page-1" stroke="none" stroke-width="1" fill="none" fill-rule="evenodd" stroke-linejoin="round">
        <g id="בילדר_ללא-סינון-_שלוש-נק-פתוח" transform="translate(-181.000000, -202.000000)" fill="#FFFFFF" fill-rule="nonzero" stroke="#FFFFFF" stroke-width="0.5">
            <g id="tooltip" transform="translate(15.500000, 124.205078)">
                <g id="componrnts/tooltip/row" transform="translate(0.000000, 59.054545)">
                    <g id="Group" transform="translate(7.000000, 18.327273)">
                        <g id="icons/outline/trash-copy" transform="translate(159.000000, 0.857576)">
                            <path d="M8.65385258,13.0161696 C9.79590785,13.0161696 10.7095521,12.7487838 11.3947852,12.2140121 C12.1315951,11.6286539 12.5,10.8012031 12.5,9.73165978 L12.5,9.73165978 L12.5,3.0000406 L11.4942546,3.02172053 L11.4942546,9.13546163 C11.4942546,11.1155622 10.5253496,12.1056124 8.5875397,12.1056124 L8.5875397,12.1056124 L5.90186779,12.1056124 C5.76187392,12.1056124 5.68450889,12.0875458 5.66977269,12.0514126 C5.65503649,11.921333 5.63661625,11.7912534 5.61451195,11.6611738 L5.61451195,11.6611738 L4.95138309,6.15447084 L3.96774194,6.15447084 L4.58666221,12.4633313 C4.6161346,12.7162639 4.65481712,12.8680234 4.70270976,12.9186099 C4.7506024,12.9691964 4.8777021,12.9944897 5.08400886,12.9944897 L5.08400886,12.9944897 L8.60964399,13.0161696 L8.65385258,13.0161696 Z M1.97106262,13.0161696 L1.97106262,4.22499285 C1.97106262,4.01542102 2.06925996,3.91063511 2.26565465,3.91063511 L2.26565465,3.91063511 L5.64800759,3.91063511 C7.06641366,3.91063511 7.77925364,4.66581635 7.78652751,6.17617882 L7.78652751,6.17617882 L7.80834915,10.5338275 L8.79032258,10.5338275 L8.79032258,5.84014123 C8.79032258,3.93954157 7.81925996,2.99285504 5.87713472,3.0000406 L5.87713472,3.0000406 L1.45825427,3.0217615 C1.24731183,3.02898812 1.11820051,3.05608792 1.0709203,3.10306092 C1.0236401,3.15003391 1,3.27830632 1,3.48787815 L1,3.48787815 L1,13.0161696 L1.97106262,13.0161696 Z" id="₪"></path>
                        </g>
                    </g>
                </g>
            </g>
        </g>
    </g>
</svg>