<?xml version="1.0" encoding="UTF-8"?>
<svg width="18px" height="18px" viewBox="0 0 18 18" version="1.1" xmlns="http://www.w3.org/2000/svg" xmlns:xlink="http://www.w3.org/1999/xlink">
    <title>icons/header/trash</title>
    <g id="Page-1" stroke="none" stroke-width="1" fill="none" fill-rule="evenodd">
        <g id="סל-5-טולטיפ-בקשות-מיוחדות" transform="translate(-123.000000, -133.000000)" fill="#FFFFFF">
            <g id="tooltip-copy" transform="translate(6.200000, 54.000000)">
                <g id="Group-20" transform="translate(0.000000, 7.000000)">
                    <g id="componrnts/tooltip/row-copy-2" transform="translate(0.000000, 53.645570)">
                        <g id="icons/outline/trash-copy" transform="translate(119.000000, 20.029306)">
                            <g id="icons/header/trash" transform="translate(-2.000000, -1.000000)">
                                <path d="M9.26702227,1.7 C9.62923735,1.7 9.95247,1.84546371 10.1852636,2.08295563 C10.4133297,2.31562475 10.554838,2.63693919 10.5600967,2.99750972 L10.5602486,3.40540064 L14.2820093,3.40540064 C14.3835349,3.40540064 14.466814,3.44210436 14.5256155,3.5020926 C14.5840918,3.56174912 14.62,3.64622032 14.62,3.74924106 C14.62,3.85226181 14.5840918,3.936733 14.5256155,3.99638953 C14.4693706,4.05376958 14.3907303,4.08984584 14.2951478,4.09287443 L14.2820093,4.09308148 L13.3717272,4.09308148 L12.7095243,14.0094511 C12.7086065,14.3661306 12.5651702,14.6895296 12.3312255,14.9234225 C12.10324,15.1513576 11.7891962,15.2944223 11.4370599,15.2998404 L11.4163024,15.3 L5.92369757,15.3 C5.56148249,15.3 5.23824984,15.1545363 5.00545627,14.9170444 C4.77818444,14.6851856 4.63686913,14.3652982 4.63068307,14.0062569 L4.63047541,13.9850921 L3.96828805,4.09308148 L3.05799068,4.09308148 C2.95646509,4.09308148 2.87318602,4.05637777 2.81438454,3.99638953 C2.75590822,3.936733 2.72,3.85226181 2.72,3.74924106 C2.72,3.64622032 2.75590822,3.56174912 2.81438454,3.5020926 C2.87062944,3.44471254 2.94926971,3.40863629 3.0448522,3.40560769 L6.54094252,3.40540064 L6.54094252,3.01835507 C6.54094252,2.64933022 6.68347547,2.32009915 6.91592753,2.08295563 C7.14432876,1.84994469 7.45978848,1.70552196 7.81370806,1.700155 L9.26702227,1.7 Z M12.235,7.8 L5.113,7.8 L5.50846513,13.9565718 L5.50859149,13.9747414 C5.51179184,14.1556359 5.57290517,14.3122657 5.67471958,14.4244351 C5.75753615,14.5156745 5.86700734,14.5767897 5.99163649,14.5975862 L6.08777083,14.6054646 L11.2903018,14.6052582 C11.4475009,14.6011383 11.5862113,14.5355555 11.6864557,14.4286783 C11.7708812,14.3386668 11.8278058,14.2198398 11.8468286,14.084836 L11.8538265,13.9807475 L12.235,7.8 Z M12.4563636,4.22571429 L4.88363636,4.22571429 L5.048,6.8 L12.297,6.8 L12.4563636,4.22571429 Z M9.19096838,2.25510204 L7.86328766,2.2553273 C7.71098182,2.25982435 7.57653999,2.33141343 7.47940016,2.44826866 C7.39834449,2.54577532 7.34350725,2.67431186 7.32481457,2.82035955 L7.31772727,2.93296744 L7.31772727,3.34770733 L9.75181818,3.34770733 L9.75163042,2.91441326 C9.74788179,2.72957849 9.68819651,2.56622026 9.59014529,2.44826866 C9.48976747,2.32751825 9.3495594,2.25510204 9.19096838,2.25510204 Z" id="Combined-Shape"></path>
                            </g>
                        </g>
                    </g>
                </g>
            </g>
        </g>
    </g>
</svg>