<?xml version="1.0" encoding="UTF-8"?>
<svg width="18px" height="18px" viewBox="0 0 18 18" version="1.1" xmlns="http://www.w3.org/2000/svg" xmlns:xlink="http://www.w3.org/1999/xlink">
    <title>icons/header/trash</title>
    <g id="Page-1" stroke="none" stroke-width="1" fill="none" fill-rule="evenodd">
        <g id="סל-5-טולטיפ-בקשות-מיוחדות" transform="translate(-123.000000, -79.000000)" fill="#FFFFFF">
            <g id="tooltip-copy" transform="translate(6.200000, 54.000000)">
                <g id="Group-20" transform="translate(0.000000, 7.000000)">
                    <g id="componrnts/tooltip/row-copy" transform="translate(0.000000, 0.000000)">
                        <g id="icons/outline/trash-copy" transform="translate(119.000000, 19.537711)">
                            <g id="icons/header/trash" transform="translate(-2.000000, -1.000000)">
                                <path d="M8.47711915,1.60035567 C9.09677387,1.60035567 9.66324357,1.88326101 10.0180912,2.35609475 L10.0327536,2.37590582 L10.0753623,2.43508522 L11.8782606,2.43508522 L11.8782606,3.68717954 L14.0019751,3.68717954 C14.0951039,3.68717954 14.179696,3.72221896 14.2416254,3.779673 C14.2985138,3.83245034 14.3362168,3.90423995 14.3427391,3.98450218 L14.343564,3.99875191 L14.34375,13.6830574 C14.34375,14.0930112 14.1705138,14.4649335 13.8908771,14.7363355 C13.614727,15.0043537 13.2348901,15.1745042 12.8143802,15.1874654 L12.7891013,15.188054 L12.7621772,15.1882631 L2.9977681,15.1882631 C2.90463766,15.1882631 2.82004261,15.1532233 2.75814031,15.0957623 C2.70129814,15.0429984 2.66365572,14.9712292 2.65722998,14.8909907 L2.65642253,14.8767452 L2.65625,4.00952398 C2.65625,3.92270247 2.6926582,3.84414321 2.7512353,3.78649484 C2.80789268,3.73073575 2.88518045,3.69442 2.97125206,3.68814979 L2.98652994,3.68735733 L5.07597775,3.68717107 L5.07597775,2.43508522 L6.88055113,2.43508522 C7.22992309,1.91495392 7.82395091,1.60035567 8.47711915,1.60035567 Z M5.07572066,4.33211394 L3.33954303,4.33211394 L3.33954303,14.5438194 L12.7628031,14.5438194 L12.7843481,14.5435751 C13.0206674,14.5382095 13.2343384,14.4447916 13.3913181,14.2949313 C13.5533425,14.1402552 13.6551959,13.9254485 13.659686,13.684212 L13.659686,13.684212 L13.659686,4.33211394 L11.8782606,4.33211394 L11.8782606,5.58420826 L5.07572066,5.58420826 L5.07572066,4.33211394 Z M6.26702229,12.0525919 L6.26702229,12.8127545 L5.03175798,12.8127545 L5.03175798,12.0525919 L6.26702229,12.0525919 Z M8.16742888,12.0525919 L8.16742888,12.8127545 L6.93216457,12.8127545 L6.93216457,12.0525919 L8.16742888,12.0525919 Z M10.5429371,12.0525919 L10.5429371,12.8127545 L9.3076728,12.8127545 L9.3076728,12.0525919 L10.5429371,12.0525919 Z M11.9682422,10.1521853 L11.9682422,10.912348 L5.03175798,10.912348 L5.03175798,10.1521853 L11.9682422,10.1521853 Z M11.9682422,7.77667707 L11.9682422,8.53683972 L5.03175798,8.53683972 L5.03175798,7.77667707 L11.9682422,7.77667707 Z M8.47686206,2.24504455 C8.24821115,2.24504455 8.03088733,2.30622364 7.84299389,2.41889511 C7.65641475,2.53077845 7.49874859,2.69349734 7.38815563,2.89811775 L7.38815563,2.89811775 L7.29424948,3.0797741 L5.7597847,3.0797741 L5.7597847,4.93927387 L11.1944536,4.93927387 L11.1944536,3.0797741 L9.65987522,3.0797741 L9.56590098,2.89876124 L9.55452391,2.87730253 C9.45034353,2.68549647 9.29814682,2.52953064 9.11628174,2.42047412 C8.92815817,2.30766465 8.70824291,2.24504455 8.47686206,2.24504455 Z" id="Combined-Shape-Copy-4"></path>
                            </g>
                        </g>
                    </g>
                </g>
            </g>
        </g>
    </g>
</svg>