<?xml version="1.0" encoding="UTF-8"?>
<svg width="32px" height="24px" viewBox="0 0 32 24" version="1.1" xmlns="http://www.w3.org/2000/svg" xmlns:xlink="http://www.w3.org/1999/xlink">
    <title>credit cards/amex</title>
    <g id="credit-cards/amex" stroke="none" stroke-width="1" fill="#FFFFFF" fill-rule="evenodd">
        <rect id="Rectangle-Copy-27" fill="none" x="4.47641924e-12" y="0" width="32" height="24" rx="5"></rect>
        <path d="M5.16,8.5 L2,15.493 L5.783,15.493 L6.252,14.378 L7.324,14.378 L7.793,15.493 L11.957,15.493 L11.957,14.642 L12.328,15.493 L14.482,15.493 L14.853,14.624 L14.853,15.493 L23.513,15.493 L24.566,14.407 L25.552,15.493 L30,15.502 L26.83,12.016 L30,8.5 L25.621,8.5 L24.596,9.566 L23.641,8.5 L14.22,8.5 L13.411,10.305 L12.583,8.5 L8.808,8.5 L8.808,9.322 L8.388,8.5 L5.16,8.5 L5.16,8.5 Z M5.892,9.493 L7.736,9.493 L9.832,14.235 L9.832,9.493 L11.852,9.493 L13.471,12.893 L14.963,9.493 L16.973,9.493 L16.973,14.511 L15.75,14.511 L15.74,10.579 L13.957,14.511 L12.863,14.511 L11.07,10.579 L11.07,14.511 L8.554,14.511 L8.077,13.386 L5.5,13.386 L5.024,14.51 L3.676,14.51 L5.892,9.493 L5.892,9.493 Z M18.092,9.493 L23.065,9.493 L24.586,11.136 L26.156,9.493 L27.677,9.493 L25.366,12.015 L27.677,14.508 L26.087,14.508 L24.566,12.846 L22.988,14.508 L18.092,14.508 L18.092,9.493 L18.092,9.493 Z M6.789,10.342 L5.94,12.346 L7.637,12.346 L6.789,10.342 Z M19.32,10.532 L19.32,11.448 L22.033,11.448 L22.033,12.469 L19.32,12.469 L19.32,13.469 L22.363,13.469 L23.777,11.996 L22.423,10.531 L19.32,10.531 L19.32,10.532 Z" id="Shape" fill="#FFFFFF" fill-rule="nonzero"></path>
    </g>
</svg>