<?xml version="1.0" encoding="UTF-8"?>
<svg width="32px" height="24px" viewBox="0 0 32 24" version="1.1" xmlns="http://www.w3.org/2000/svg" xmlns:xlink="http://www.w3.org/1999/xlink">
    <title>credit cards/diners</title>
    <g id="credit-cards/diners" stroke="none" stroke-width="1" fill="none" fill-rule="evenodd">
        <rect id="Rectangle-Copy-27" fill="#000000" x="0" y="0" width="32" height="24" rx="5"></rect>
        <path d="M18.0320598,21.1061416 L13.730951,21.1061416 C8.67250419,21.1061416 4.5,17.0524304 4.5,12.0884121 C4.5,6.65501671 8.67250419,2.9 13.730951,2.9 L18.0320598,2.9 C23.0333491,2.9 27.591667,6.65501671 27.591667,12.0884121 C27.591667,17.0524304 23.0333491,21.1061416 18.0320598,21.1061416 Z" id="Path" fill="#FFFFFF"></path>
        <path d="M13.9614585,3.9 C18.3633571,3.9 21.922917,7.44315644 21.922917,11.8247698 C21.922917,16.1928596 18.3633571,19.7495395 13.9614585,19.7495395 C9.57314605,19.7495395 6,16.1928596 6,11.8247698 C6,7.44315644 9.57314605,3.9 13.9614585,3.9 Z M15.7684107,7.13211599 L15.7684107,16.5174235 C17.6568795,15.7871546 19.0019041,13.9614824 19.0019041,11.8247698 C19.0019041,9.68805709 17.6568795,7.86238488 15.7684107,7.13211599 Z M12.1545063,7.13211599 C10.2660375,7.86238488 8.92101293,9.68805709 8.92101293,11.8247698 C8.92101293,13.9614824 10.2660375,15.7871546 12.1545063,16.5039 Z" id="Combined-Shape" fill="#000000" fill-rule="nonzero"></path>
        <g id="Group" transform="translate(6.000000, 3.900000)"></g>
    </g>
</svg>