<?xml version="1.0" encoding="UTF-8"?>
<svg width="32px" height="24px" viewBox="0 0 32 24" version="1.1" xmlns="http://www.w3.org/2000/svg" xmlns:xlink="http://www.w3.org/1999/xlink">
    <title>credit cards/visa</title>
    <g id="credit-cards/visa" stroke="none" stroke-width="1" fill="none" fill-rule="evenodd">
        <rect id="Rectangle-Copy-27" fill="#FFFFFF" x="4.47641924e-12" y="0" width="32" height="24" rx="5"></rect>
        <g id="payment/logos/visa" transform="translate(3.000000, 8.000000)" fill="#FFFFFF">
            <path d="M18.1216034,0.111240157 C18.403134,0.163734578 18.6775807,0.250717654 18.9684003,0.325517724 C18.9213925,0.543109785 18.8780909,0.745786622 18.8337103,0.948239508 C18.7677024,1.24945536 18.6989734,1.55013373 18.6354988,1.85179748 C18.6117604,1.96466945 18.5949183,1.98065964 18.483826,1.93461505 C17.9714787,1.72221868 17.4325312,1.62569523 16.8780083,1.6169163 C16.5446846,1.61158624 16.2151141,1.65270388 15.9246698,1.83437399 C15.7026261,1.97326921 15.60345,2.16909311 15.6537417,2.39268709 C15.6890679,2.54999119 15.7917157,2.67222436 15.930581,2.75293677 C16.2966975,2.96573626 16.6659572,3.17419106 17.0410812,3.37207532 C17.5134578,3.62128945 17.956044,3.90217043 18.2628144,4.33825036 C18.421149,4.56336722 18.5179794,4.81334278 18.5527426,5.0837428 C18.6080073,5.5138656 18.5578563,5.93059605 18.3686523,6.32685726 C18.1355368,6.8150285 17.7800229,7.19807653 17.2874264,7.46453498 C16.5350673,7.87159069 15.7204065,8.01097861 14.8657749,7.99933309 C14.1098504,7.9889417 13.3752248,7.87642806 12.66415,7.62761705 C12.6066335,7.60746134 12.590542,7.58824623 12.6027396,7.53333313 C12.6721253,7.22105403 12.738837,6.90819266 12.8069091,6.59568961 C12.8441119,6.42503795 12.8813147,6.25443109 12.9204409,6.08418254 C12.9327324,6.0308371 12.9513103,5.97879059 12.9707796,5.9134861 C13.1520082,5.98300089 13.3214145,6.04593149 13.4891788,6.1125797 C14.0668303,6.34208602 14.6731932,6.41321327 15.2902524,6.37720174 C15.6178056,6.35807621 15.9419811,6.27960333 16.186825,6.04337843 C16.4748767,5.76545362 16.4553136,5.36341444 16.1189405,5.14255268 C15.7957503,4.93038026 15.4505574,4.74673937 15.1055991,4.56704004 C14.6504868,4.32996413 14.2155006,4.06973155 13.8814733,3.68417526 C13.5619423,3.31541539 13.4213412,2.89138409 13.4617341,2.40979705 C13.5331841,1.55815122 13.998852,0.954107058 14.7470357,0.526671686 C15.2760375,0.224470443 15.8577236,0.0823503096 16.467605,0.0239435481 C17.0247551,-0.0294466818 17.5759003,0.00938664819 18.1216034,0.111240157 Z M24.1871039,0.141960313 C24.2866553,0.141039251 24.3214654,0.17396024 24.3405594,0.262376611 C24.501099,1.00607743 24.6658139,1.74892723 24.8295436,2.49195619 C24.9555075,3.06343769 25.0829258,3.63469523 25.207717,4.20644547 L25.5298751,5.70096879 C25.6236092,6.12929997 25.7213779,6.55673535 25.8168947,6.9847082 C25.8767569,7.25300307 25.9353524,7.52161146 25.9954492,7.78995112 C26.0100394,7.85512124 25.99118,7.88849013 25.9150387,7.88835576 C25.3252833,7.88732558 24.7356218,7.88714642 24.1459134,7.88849013 C24.071461,7.88866929 24.0586535,7.84692458 24.0467373,7.79071256 C23.9795096,7.47332735 23.9061831,7.15715148 23.8425209,6.83913921 C23.8260072,6.75654559 23.792276,6.72994006 23.7051568,6.7302088 C22.8811132,6.73285144 22.0570696,6.73343372 21.2330729,6.72949216 C21.1400894,6.72904425 21.1000718,6.76675782 21.0724395,6.83967669 C20.9534657,7.1532995 20.8322401,7.46611608 20.7146268,7.7801868 C20.6901377,7.84571524 20.6614264,7.88943073 20.5769343,7.88920764 C19.9130081,7.88710163 19.2491287,7.88804223 18.5852024,7.88750474 C18.562543,7.88745995 18.5398835,7.88136845 18.4896387,7.87415719 C18.5616516,7.70578984 18.6259237,7.55184503 18.6930576,7.39910955 C19.532489,5.48906512 20.3723426,3.57911027 21.2121493,1.66920021 C21.3479183,1.36050435 21.4810132,1.05068873 21.6208637,0.743650117 C21.8026552,0.344611898 22.1187145,0.139874699 22.5820368,0.143592307 C23.1169966,0.147936982 23.6520971,0.147041173 24.1871039,0.141960313 Z M1.89107691,0.144700871 L3.66004381,0.149728601 C4.07893851,0.152416028 4.44866738,0.432849106 4.54915707,0.822615701 C4.63651086,1.16145554 4.69773357,1.50656604 4.76566497,1.84984014 C4.86104104,2.33214383 4.95102201,2.8154777 5.04494374,3.29805013 C5.15533228,3.86509737 5.26722206,4.43178628 5.37911184,4.9984752 C5.40242808,5.11658764 5.42879372,5.23416261 5.45375194,5.35191673 L5.49339424,5.34707936 L5.9330249,4.29522017 C6.33338859,3.32971698 6.73262635,2.36376589 7.13299003,1.39821792 C7.29601603,1.00509204 7.45918276,0.611921371 7.62755694,0.220811063 C7.64191261,0.187486959 7.69581675,0.148026563 7.73161209,0.147802611 C8.4110669,0.143502726 9.09056862,0.144532907 9.77007033,0.145070393 C9.79226063,0.145115183 9.81445093,0.151968124 9.85704881,0.159000226 C9.79957921,0.292968496 9.74689484,0.41860574 9.69205243,0.543391965 C8.98857768,2.14308329 8.28496219,3.74272983 7.58111213,5.34233157 C7.2212821,6.16011581 6.86027922,6.97745215 6.502185,7.79590825 C6.47164402,7.86569179 6.42777947,7.88943073 6.35121589,7.88920678 C5.67954881,7.88737037 5.00783481,7.88714642 4.33616772,7.88952213 C4.25392756,7.88978906 4.22249521,7.86031693 4.20250986,7.78565123 C3.85717624,6.49487972 3.50926236,5.20473527 3.16087933,3.91468041 C2.96341849,3.18347613 2.76436258,2.45263017 2.56511902,1.72191858 C2.54649418,1.65361313 2.51970631,1.58741283 2.4988296,1.51960007 C2.41696475,1.25376868 2.2278546,1.08786481 1.96813895,0.975799078 C1.37566262,0.720135125 0.762356487,0.526147637 0.126906973,0.397330271 C0.0144542237,0.374531926 -0.0231707678,0.324053076 0.0136566865,0.22932125 C0.0271679054,0.194519062 0.0769436112,0.172482155 0.110580917,0.145025602 L1.89107691,0.144700871 Z M10.882236,0.142718646 C11.5110706,0.145948286 12.1399522,0.144291039 12.7688338,0.144918105 C12.7985772,0.144918105 12.8282737,0.151547093 12.8646321,0.155936559 C12.7474879,0.690689876 12.6360673,1.20976653 12.5196268,1.72781301 C12.3826381,2.33754556 12.2398789,2.94611355 12.1021396,3.55566694 C11.9385975,4.27930164 11.7783864,5.00365298 11.615548,5.72742204 C11.4599344,6.41898676 11.3038986,7.1104619 11.1433122,7.80095166 C11.1354306,7.83481324 11.0819956,7.88376922 11.0494373,7.88403796 C10.4010865,7.88860659 9.75268871,7.8872326 9.10429095,7.88636707 C9.08960688,7.88632227 9.07492281,7.87960371 9.04344355,7.87189975 C9.06840177,7.74361986 9.08998219,7.61735555 9.11780217,7.49234538 C9.20004233,7.1226897 9.28425288,6.75339235 9.368698,6.38413978 C9.4631827,5.97117173 9.56029459,5.55869637 9.65351261,5.14537 C9.76160236,4.66615685 9.865939,4.18613748 9.97332504,3.70678996 C10.1225114,3.04106933 10.273246,2.37566224 10.4229484,1.71007598 C10.5317888,1.22607026 10.6416143,0.742198907 10.74703,0.257521325 C10.7638252,0.180257779 10.7905661,0.142230677 10.882236,0.142718646 Z M22.8407203,2.27866402 C22.8304461,2.28018689 22.820172,2.28175456 22.8098509,2.28327743 C22.4502555,3.23113318 22.0906131,4.1790785 21.7263262,5.13925162 L23.4677253,5.13925162 C23.2569409,4.17751083 23.0488306,3.22808742 22.8407203,2.27866402 Z" id="Combined-Shape"></path>
        </g>
    </g>
</svg>