<?xml version="1.0" encoding="UTF-8"?>
<svg width="27px" height="26px" viewBox="0 0 27 26" version="1.1" xmlns="http://www.w3.org/2000/svg" xmlns:xlink="http://www.w3.org/1999/xlink">
    <title>icons/add branch</title>
    <g id="Page-1" stroke="none" stroke-width="1" fill="none" fill-rule="evenodd">
        <g id="איסוף-עצמי+-כשרות_-מקרה-קצה_1" transform="translate(-302.000000, -505.000000)" fill="#017AFF">
            <g id="link/with-icon" transform="translate(179.026316, 505.500000)">
                <g id="icons/add-branch" transform="translate(123.702359, 0.000000)">
                    <g id="Group-2" transform="translate(0.370236, 0.000000)">
                        <g id="Group">
                            <path d="M17.29583,0.00124603526 C17.452223,0.00124603526 17.5716924,0.0275198468 17.6715833,0.0822308292 C17.771515,0.136964233 17.8536588,0.221150276 17.9284693,0.347423564 C18.2115261,0.824874813 18.5015777,1.30672741 18.7869878,1.77946452 L18.8937764,1.95628725 L19.0000116,2.13212704 L19.010849,2.15006384 C19.337176,2.6900119 19.6744231,3.24826902 20.0024218,3.79966172 C20.0722452,3.91752944 20.1176542,4.05933443 20.1286158,4.18960713 L20.1300588,4.21007549 L20.1314284,4.43908936 C20.1327784,5.012464 20.133983,5.60541564 20.0839858,6.18162858 C20.0424243,6.65975174 19.8201943,7.1130843 19.3759537,7.60575935 C19.3014941,7.68838267 19.2524953,7.80766259 19.2523188,7.90990244 C19.2511256,8.64623293 19.2501983,9.38520279 19.2494819,10.1251123 L19.2489833,10.6801941 L19.2485588,11.2354712 L19.2480988,11.9759132 L19.2477901,12.3601347 C19.0140253,12.3850694 18.7827105,12.4173865 18.5542755,12.4567991 L18.4687482,12.4719109 L18.3350256,12.4966252 L18.3350819,8.30757327 C17.9525838,8.42300581 17.5877041,8.48061275 17.2484038,8.48061275 C16.3487541,8.48061275 15.5900973,8.09489595 14.9376685,7.2892343 L14.9179304,7.26469174 L14.8981949,7.23981119 L14.8788631,7.21510423 C14.2463414,8.07084089 13.4590504,8.48216403 12.4734801,8.48216401 C11.5263339,8.48163254 10.7562605,8.0928349 10.1266756,7.28487457 L10.1076402,7.26026259 L10.0886163,7.23529338 L10.069965,7.2104453 C9.43363838,8.0693297 8.6449503,8.48201729 7.66143898,8.48201728 C6.71313602,8.48176217 5.94298846,8.09244558 5.3140252,7.28321312 L5.29500889,7.25856236 L5.27600503,7.23355436 L5.25745072,7.20877102 C4.83504917,7.78589723 4.33505662,8.15836237 3.7300358,8.35122271 C3.45355671,8.43949064 3.16607032,8.48419746 2.87527661,8.48419746 C2.56561732,8.48419746 2.25002423,8.4358539 1.9133821,8.33577212 L1.87589003,8.32443883 L1.8383719,8.31272469 L1.80152822,8.30086248 L1.7990504,18.7505085 L5.14742571,18.7505085 L5.14742571,10.7071683 L15.0007568,10.7071683 L15.0005893,13.7562308 C14.7539756,13.9019568 14.5147942,14.0573445 14.283791,14.2217302 L14.2209934,14.2667853 L14.0891289,14.3629308 L14.0893176,11.5561913 L6.05997273,11.5561913 L6.05997273,18.7520357 L10.85454,18.7519203 C10.7792373,18.9744278 10.7129218,19.2005724 10.6560187,19.4298439 L10.6374002,19.5063828 L10.613246,19.6098875 L10.2034723,19.6098875 L10.0702286,19.6090069 L7.98700567,19.6091327 L5.90369784,19.6091327 C4.42191914,19.6091327 2.94058062,19.6090069 1.45877561,19.6087344 C1.23934299,19.6086533 1.10775829,19.5675555 1.02365401,19.4885986 C0.945688933,19.4154052 0.901912821,19.3022767 0.89574995,19.118557 L0.895271078,19.1005562 L0.894981022,16.8827234 L0.894987557,16.5426236 L0.895013019,15.860399 C0.895074632,14.6637114 0.895234717,13.455946 0.895635073,12.2456238 L0.895796747,11.7916498 L0.895962886,11.3829497 L0.89629207,10.6912549 C0.896773315,9.76906541 0.897429093,8.84750959 0.898321975,7.93045815 C0.898321975,7.79373234 0.855030465,7.68665505 0.757382634,7.58321359 C0.286749049,7.08401141 0.0342531422,6.48822005 0.00761558687,5.8099928 L0.00656036558,5.77910756 L0.00581985073,5.74817693 L0.00539588843,5.71747326 L0.00405356657,5.57745953 C-0.000209406614,5.14140835 -0.00441590063,4.69044118 0.0105832242,4.24883651 C0.0158785181,4.09466791 0.0648847693,3.92657466 0.140972955,3.79883552 C0.408626779,3.34882367 0.682200392,2.89435357 0.952174391,2.44703135 L1.06762939,2.2557933 L1.18246039,2.06566117 L1.23051822,1.98609331 L1.3052064,1.86244309 C1.61315345,1.35263557 1.92957111,0.82880534 2.23819471,0.31102743 C2.30445963,0.200007637 2.37906481,0.125118205 2.46909173,0.076028754 C2.55921231,0.0268882341 2.66644588,0.00265071264 2.80438615,0.00265092765 C3.9040537,0.00452127339 4.99375477,0.00527117192 5.95274266,0.00555387504 L6.03235316,0.00557636616 L6.10927266,0.0055962672 L6.22806174,0.00562356171 L6.28688531,0.00563557223 L6.51825457,0.00567356893 L7.11902845,0.00571135444 L8.09768036,0.00563274332 L9.07633764,0.0054597978 L10.0384115,0.00528684933 L11.0004831,0.00520823674 C11.3841406,0.00520823674 11.7637107,0.00533658609 12.1421045,0.00550160859 L12.3690229,0.00560428947 L12.5957943,0.00571136922 L13.3893753,0.0060755933 L14.1829585,0.00623543518 L14.3053686,0.00623048645 L14.3356702,0.00622769866 L14.5446847,0.00619064465 L14.6660723,0.00615406202 C15.62889,0.00581786566 16.4165044,0.00442825663 17.1551065,0.00176976055 L17.203208,0.00159457917 L17.2495957,0.00124603526 L17.29583,0.00124603526 Z M9.62972625,4.56411517 L5.70279589,4.57516723 L5.70262892,4.64891055 L5.70217665,4.72248986 C5.70179655,4.77142202 5.70127558,4.82008425 5.70071172,4.8683058 L5.70071172,4.8683058 L5.69984701,4.94020762 L5.69944251,4.97347547 L5.69851453,5.04528735 L5.69757757,5.12332291 C5.69496957,5.35645059 5.69455384,5.58121501 5.7062192,5.80969952 C5.73080271,6.28559177 5.92064809,6.70687817 6.23200587,7.0259519 C6.54281716,7.34446559 6.97426008,7.5605446 7.4799729,7.62877192 C7.5523216,7.63842645 7.62651149,7.64337113 7.7004983,7.64337113 C8.09385538,7.64337113 8.48032564,7.50555413 8.80170358,7.27510829 C9.12659917,7.0421401 9.38541986,6.71416706 9.51822045,6.33400626 C9.65781504,5.93495231 9.64460488,5.52957678 9.6322481,5.12591855 C9.62786033,4.98548938 9.62351562,4.84132138 9.62562829,4.69864563 L9.62562829,4.69864563 L9.62695384,4.63732348 L9.62972625,4.56411517 Z M4.85147275,4.56832878 L0.890515231,4.5794018 L0.890245179,4.67844585 L0.889859402,4.73814529 C0.889250939,4.81788967 0.888292077,4.89830959 0.887294544,4.98054558 C0.884219514,5.2558176 0.881020702,5.54041426 0.893725755,5.81978211 C0.915470304,6.29983495 1.11836972,6.73119735 1.44352635,7.05402567 C1.76772512,7.37590297 2.21334198,7.58961886 2.72052936,7.6360365 C2.77395287,7.6408846 2.82850223,7.64337113 2.88284756,7.64337113 C3.32355194,7.64337113 3.74213784,7.48783806 4.07229989,7.23048804 C4.4038876,6.97202678 4.64668965,6.61060948 4.73307032,6.19835468 C4.80849439,5.83902343 4.81907236,5.46420003 4.83014265,5.07938379 C4.83342945,4.96766035 4.83679176,4.85359507 4.8420015,4.73970396 L4.8420015,4.73970396 L4.84628345,4.65434633 L4.85147275,4.56832878 Z M19.2805602,4.56642112 L15.3264989,4.57747318 L15.3263217,4.6553539 L15.3258328,4.73315691 C15.3252097,4.81080879 15.3242163,4.88790036 15.3231425,4.96346918 C15.3191725,5.24475217 15.3155587,5.51046399 15.3299125,5.78249177 C15.3565366,6.28176696 15.5581785,6.72277416 15.8832739,7.05036138 C16.2064238,7.37598821 16.6512881,7.5888948 17.1640886,7.63576239 C17.2166134,7.64064274 17.2703734,7.64299379 17.3232989,7.64299379 C17.7608697,7.64299379 18.1827429,7.4810142 18.5162408,7.21775226 C18.8514293,6.95315583 19.0980382,6.58570721 19.1809095,6.1732526 C19.2520592,5.81974041 19.2585547,5.4517709 19.2652938,5.08178809 C19.2670781,4.97190613 19.2689803,4.85938204 19.2727084,4.74705346 L19.2727084,4.74705346 L19.2758739,4.66288119 L19.2805602,4.56642112 Z M14.4077245,4.56910442 L10.5434015,4.58017744 L10.5429346,4.66615936 L10.5416685,4.75247714 C10.5406048,4.80998839 10.5391473,4.86737365 10.5375697,4.92428424 L10.5375697,4.92428424 L10.5351533,5.00906433 L10.5342366,5.04088515 L10.5327079,5.0945268 L10.5312256,5.14804985 C10.5235064,5.43395437 10.5194749,5.72675226 10.5531509,6.01307541 C10.6057681,6.46037835 10.8378233,6.86127477 11.1753533,7.15341401 C11.5062178,7.43978418 11.9388141,7.6219325 12.4041183,7.63907104 L12.4041183,7.63907104 L12.4288569,7.63982357 L12.4770183,7.64030888 L12.5021305,7.64014453 L12.5274397,7.63965642 C12.9908849,7.62773959 13.4233108,7.45292995 13.7564384,7.17386114 C14.1027348,6.88376047 14.3421251,6.48072734 14.3975991,6.02854806 C14.4370112,5.70790963 14.4274546,5.39185044 14.4171254,5.04491129 C14.4139858,4.94400841 14.410857,4.84069772 14.4091185,4.7368404 L14.4091185,4.7368404 L14.4080969,4.65887312 L14.4077245,4.56910442 Z M4.73139013,0.851925238 L4.62356185,0.851925238 L4.56413229,0.851959392 L4.50122344,0.851993161 C4.05819669,0.852277136 3.56009122,0.85360397 3.06246172,0.858709861 C2.97701752,0.859665888 2.89509743,0.940221728 2.85536021,1.00475463 C2.494217,1.59223044 2.13198351,2.18996832 1.77751398,2.77643757 L1.77751398,2.77643757 L1.64495277,2.99582038 L1.53708188,3.17439581 L1.32935312,3.51851519 L1.32612211,3.52403644 C1.31115994,3.54994329 1.29751922,3.57831971 1.27258282,3.62994134 C1.26756377,3.64027917 1.26172182,3.65231119 1.24936379,3.67735731 L1.24936379,3.67735731 L1.25777674,3.69673834 L1.26358288,3.69702933 C1.28308604,3.69802494 1.30456694,3.69930056 1.34255024,3.70155876 C1.37179453,3.7033121 1.40004255,3.70500929 1.427981,3.70610114 L1.427981,3.70610114 L1.45591436,3.70696795 L1.48466303,3.70729446 L1.66204509,3.70741971 L1.99035393,3.7076239 L2.48351567,3.70791585 L2.97672684,3.70804857 L3.28063354,3.7079952 C3.58457111,3.70788224 3.88870592,3.70757183 4.19397938,3.70689594 C4.25754711,3.70689558 4.32671602,3.71234464 4.41502075,3.71956181 C4.48506216,3.72535479 4.55698476,3.73135968 4.62614522,3.73135968 C4.69909972,3.73135968 4.80809078,3.72948085 4.89163497,3.66847354 C5.00730379,3.58392707 5.05000982,3.43678717 5.08840619,3.28890651 L5.08840619,3.28890651 L5.09675653,3.25638873 L5.10918212,3.20763334 L5.11668933,3.17817945 C5.1316515,3.11976882 5.14642965,3.06442458 5.16335287,3.01365119 C5.31322321,2.56857962 5.45820369,2.13087977 5.60920128,1.67436999 L5.60920128,1.67436999 L5.65054539,1.54936441 L5.6729671,1.48156953 L5.7232474,1.32934967 L5.75691756,1.227533 L5.75691756,1.227533 L5.79069927,1.12544944 L5.82459212,1.02308046 L5.88113818,0.852416826 L5.72759188,0.852406737 L5.61889971,0.85236662 L5.51020074,0.852311369 C5.43765045,0.852270549 5.36485118,0.852222812 5.29132052,0.852174505 C5.10364071,0.852049504 4.91706971,0.851925238 4.73139013,0.851925238 L4.73139013,0.851925238 Z M15.4880923,0.851799456 L15.2836886,0.851799456 L14.7834152,0.851925234 L14.2655703,0.852051014 L14.2746434,0.881121635 L14.278469,0.893539677 L14.278469,0.893539677 L14.2821681,0.905526213 C14.2872088,0.921855063 14.2919436,0.937194783 14.2963735,0.951803635 C14.3111836,1.00018275 14.3236635,1.04008006 14.3365884,1.07982366 C14.3848405,1.22519889 14.4333707,1.37072969 14.481913,1.51629706 C14.5059043,1.58824154 14.5298946,1.66018301 14.5538585,1.73212677 C14.7477445,2.31277733 14.9481072,2.91312273 15.1375482,3.50564203 C15.1602593,3.57667614 15.1893246,3.63067543 15.2382372,3.66456776 C15.2865115,3.69801779 15.3512409,3.71001961 15.4339023,3.71137375 C15.9760853,3.70783982 16.5152707,3.70694515 16.9876622,3.70679499 L16.9876622,3.70679499 L17.0463682,3.70677996 L17.1531813,3.70676981 L17.7347222,3.70702138 L18.3163776,3.70714715 L18.6855835,3.70702151 L18.7116752,3.70658133 L18.7371019,3.70538776 C18.7539513,3.70438539 18.7706307,3.70301278 18.7873415,3.70152834 L18.7873415,3.70152834 L18.8133562,3.69916203 L18.8412147,3.69666245 L18.8744783,3.69391665 L18.8764494,3.66502237 L18.8766409,3.66340945 C18.8771533,3.65854332 18.8774276,3.64910958 18.8714273,3.63396552 L18.8714273,3.63396552 L18.6960943,3.34181452 L18.5869067,3.15984718 L18.4552081,2.94041256 C18.0590749,2.28050096 17.6540267,1.60702748 17.2514534,0.944504115 C17.2362701,0.919465729 17.2102787,0.8980551 17.1817432,0.882039478 C17.1549616,0.867008238 17.1251453,0.855907357 17.0971603,0.855759531 C16.5481015,0.85270874 16.0030894,0.851958679 15.4880923,0.851799456 L15.4880923,0.851799456 Z M12.1586203,0.851184007 L12.0209317,0.851149597 L11.7971825,0.85124651 L11.5732716,0.8515477 L11.3494063,0.851720804 L11.1256075,0.85179945 L10.5226695,0.851799458 L10.5226695,3.69255674 L14.2457273,3.67267377 L14.2453154,3.66734006 C14.2449235,3.66193814 14.2445785,3.65620953 14.2441627,3.64905552 C14.2437089,3.6381764 14.2431036,3.6261328 14.2370891,3.60175563 L14.2370891,3.60175563 L14.1067361,3.20771324 L14.0460556,3.02431947 L13.971445,2.79900594 C13.7718296,2.19660107 13.567075,1.58254529 13.359369,0.978421717 C13.3483834,0.946602513 13.3188977,0.922403324 13.2879925,0.903242468 C13.2435291,0.875675654 13.1910989,0.857665101 13.1515293,0.857154229 C12.8007394,0.852628702 12.4591047,0.851439838 12.1586203,0.851184007 L12.1586203,0.851184007 Z M6.95580483,0.848090506 C6.90096845,0.848184701 6.86114554,0.860678862 6.83351383,0.882740706 C6.78614508,0.920561105 6.77047437,0.976264543 6.75553081,1.02271882 C6.63738219,1.38381383 6.51682916,1.74901498 6.39794837,2.10828139 L6.39794837,2.10828139 L6.33867173,2.28735684 L6.28713209,2.4429877 L6.2082449,2.68200791 L6.16067053,2.82538486 L6.11301677,2.96886038 L6.06521211,3.11271987 L6.02695922,3.2278316 L5.98120262,3.36557285 L5.87313899,3.69064908 L9.62396585,3.69064908 L9.61310987,0.866192568 L9.59925307,0.86405018 C9.59202953,0.862889871 9.5840962,0.861560638 9.57425125,0.859903848 C9.55914113,0.857283719 9.54463455,0.854776008 9.51360605,0.852950898 L9.51360605,0.852950898 L9.2477435,0.852826642 L8.79640529,0.853078194 L8.34488228,0.85320399 L8.24474948,0.853189896 L8.1913385,0.85316933 L8.13150497,0.853133895 C7.77003866,0.852877698 7.36493354,0.851803205 6.95580483,0.848090506 Z" id="Combined-Shape"></path>
                        </g>
                        <polygon id="+-copy" points="23.4137929 20.8463248 19.7981276 20.8463248 19.7981276 17.2413793 18.9164078 17.2413793 18.9164078 20.8463248 15.1551724 20.8463248 15.1551724 21.6351433 18.9164078 21.6351433 18.9164078 25 19.7981276 25 19.7981276 21.6351433 23.4137929 21.6351433"></polygon>
                    </g>
                </g>
            </g>
        </g>
    </g>
</svg>