<?xml version="1.0" encoding="UTF-8"?>
<svg width="27px" height="25px" viewBox="0 0 27 25" version="1.1" xmlns="http://www.w3.org/2000/svg" xmlns:xlink="http://www.w3.org/1999/xlink">
    <title>icons/add branch</title>
    <g id="Page-1" stroke="none" stroke-width="1" fill="none" fill-rule="evenodd">
        <g id="לאן-המשלוח_לפני-בחירה" transform="translate(-303.000000, -491.000000)" fill="#017AFF">
            <g id="Group" transform="translate(45.500000, 326.000000)">
                <g id="link/with-icon" transform="translate(76.500000, 165.000000)">
                    <g id="icons/add-branch" transform="translate(181.702359, 0.000000)">
                        <g id="Group-7" transform="translate(3.487296, -0.000000)">
                            <path d="M6.9009159,6.99440506e-15 C8.74672602,6.99440506e-15 10.4802887,0.722844682 11.7821444,2.03554841 C14.1848339,4.45853395 14.4817284,9.01814121 12.4173989,11.793454 L6.9006848,19.8275862 L1.356305,11.7545324 C-0.688661798,9.00763789 -0.38394301,4.45897865 2.01899408,2.03554841 C3.32129549,0.722844682 5.05508927,6.99440506e-15 6.9009159,6.99440506e-15 Z M6.9009159,0.99245823 C5.31809493,0.99245823 3.83162518,1.61192141 2.71532438,2.73723821 C0.633712096,4.83650538 0.371630829,8.77900001 2.15474745,11.174139 L6.9006848,18.0841403 L11.6191876,11.21323 C13.4214358,8.78950333 13.1671953,4.83593362 11.0860452,2.73723821 C9.96997552,1.61192141 8.48396797,0.99245823 6.9009159,0.99245823 Z M6.96060513,4.09047291 C8.49572094,4.09047291 9.74432515,5.34894476 9.74432515,6.8958345 C9.74432515,8.44316893 8.49572094,9.70191607 6.96060513,9.70191607 C5.42527473,9.70191607 4.17667051,8.44316893 4.17667051,6.8958345 C4.17667051,5.34894476 5.42527473,4.09047291 6.96060513,4.09047291 Z M6.96060513,5.08280409 C5.96855234,5.08280409 5.16136119,5.89621876 5.16136119,6.8958345 C5.16136119,7.89589493 5.96855234,8.70943667 6.96060513,8.70943667 C7.95244332,8.70943667 8.75963448,7.89589493 8.75963448,6.8958345 C8.75963448,5.89621876 7.95244332,5.08280409 6.96060513,5.08280409 Z" id="Combined-Shape"></path>
                            <polygon id="+-copy" points="19.827586 20.8463248 16.2119207 20.8463248 16.2119207 17.2413793 15.3302009 17.2413793 15.3302009 20.8463248 11.5689655 20.8463248 11.5689655 21.6351433 15.3302009 21.6351433 15.3302009 25 16.2119207 25 16.2119207 21.6351433 19.827586 21.6351433"></polygon>
                        </g>
                    </g>
                </g>
            </g>
        </g>
    </g>
</svg>