<?xml version="1.0" encoding="UTF-8"?>
<svg width="109px" height="107px" viewBox="0 0 109 107" version="1.1" xmlns="http://www.w3.org/2000/svg" xmlns:xlink="http://www.w3.org/1999/xlink">
    <title>icons/illustrated/cheesy pizza copy 2</title>
    <g id="Page-1" stroke="none" stroke-width="1" fill="none" fill-rule="evenodd">
        <g id="פופאפ--גנרי-_" transform="translate(-134.000000, -295.000000)">
            <g id="icons/illustrated/cheesy-pizza-copy-2" transform="translate(134.000000, 295.000000)">
                <g id="Group-2" transform="translate(55.862015, 57.636070)">
                    <path d="M19.7266548,5.56261147 L31.6839029,27.4035007 C32.2143333,28.372375 31.8589042,29.5878016 30.8900299,30.118232 C30.5955796,30.2794349 30.2652902,30.3639298 29.9296008,30.3639298 L5.97251427,30.3639298 C4.86794477,30.3639298 3.97251427,29.4684993 3.97251427,28.3639298 C3.97251427,28.0272252 4.05752085,27.6959701 4.2196539,27.4008719 L16.2194924,5.55998266 C16.7513746,4.59190461 17.9673326,4.23829801 18.9354106,4.77018021 C19.2692354,4.95359046 19.5437452,5.22851215 19.7266548,5.56261147 Z" id="Path" fill="#F5002E"></path>
                    <path d="M17.7451734,3.56261147 L29.7024214,25.4035007 C30.2328518,26.372375 29.8774227,27.5878016 28.9085484,28.118232 C28.6140981,28.2794349 28.2838087,28.3639298 27.9481193,28.3639298 L3.99103278,28.3639298 C2.88646328,28.3639298 1.99103278,27.4684993 1.99103278,26.3639298 C1.99103278,26.0272252 2.07603937,25.6959701 2.23817242,25.4008719 L14.2380109,3.55998266 C14.7698931,2.59190461 15.9858511,2.23829801 16.9539292,2.77018021 C17.2877539,2.95359046 17.5622638,3.22851215 17.7451734,3.56261147 Z" id="Path-Copy" stroke="#31383E" stroke-width="1.8" stroke-linecap="round" stroke-linejoin="round"></path>
                    <g id="Group" transform="translate(14.480577, 10.363930)">
                        <line x1="1.79515512" y1="8.70141755" x2="1.79515512" y2="0.30141755" id="Path" stroke="#FFFFFF" stroke-width="1.5" stroke-linecap="round" stroke-linejoin="round"></line>
                        <ellipse id="Oval" fill="#FFFFFF" fill-rule="nonzero" cx="1.79515512" cy="12.2014176" rx="1.48611111" ry="1.4"></ellipse>
                    </g>
                </g>
                <path d="M32.8485233,25.3960073 C35.8457278,21.8682056 40.2055695,19.826557 44.8028503,19.7979749 C51.5510661,19.926412 57.5393203,24.2071594 59.9143639,30.6005513 C60.3594017,30.5612702 60.8058716,30.526657 61.2601717,30.526657 C69.1193431,30.7338127 75.77884,36.4438275 77.271451,44.2551178" id="Path" stroke="#353535" stroke-width="1.8" stroke-linecap="round"></path>
                <path d="M87.367571,58.5217845 C87.3672631,53.0837492 84.3788381,48.1187782 79.6617089,45.7192607 C74.9445796,43.3197432 69.3191347,43.9029959 65.1561071,47.2232185" id="Path" stroke="#353535" stroke-width="1.8" stroke-linecap="round"></path>
                <path d="M87.367571,57.5027368 C87.3649588,51.8330198 83.2490631,46.8477854 77.271451,45.2741654" id="Path" stroke="#353535" stroke-width="1.8" stroke-linecap="round"></path>
                <path d="M23.4589187,28.3434721 C26.4604437,27.2706162 29.6276274,27.1038229 32.6053927,27.7484999 C31.9069424,27.9003725 31.2122454,28.0982551 30.5262027,28.3434721 C24.0056831,30.6741467 19.6628486,36.7818898 19.662689,43.6218691 C19.662689,44.0152364 19.6945412,44.4005726 19.7223586,44.7869126 C13.8544176,46.6414943 9.9202099,52.079089 10.0504959,58.1547046 C10.0504959,65.4365917 15.3492092,71.6192368 22.0867485,72.1932527 L47.4021635,72.2043083 L47.4029986,72.2082018 L15.0194645,72.1932527 C8.28192522,71.6192368 2.983212,65.4365917 2.983212,58.1547046 C2.85292595,52.079089 6.7871336,46.6414943 12.6550747,44.7869126 C12.6272573,44.4005726 12.5954051,44.0152364 12.5954051,43.6218691 C12.5955647,36.7818898 16.9383992,30.6741467 23.4589187,28.3434721 Z" id="Combined-Shape" fill="#017AFF"></path>
                <path d="M41.3056129,32.7708912 C36.8618486,27.5193346 29.5595308,25.5739992 23.0390113,27.9046738 C16.5184918,30.2353484 12.1756573,36.3430914 12.1754977,43.1830707 C12.1754977,43.5764381 12.2073498,43.9617742 12.2351673,44.3481143 C6.36722619,46.202696 2.43301853,51.6402907 2.56330458,57.7159063 C2.56330458,64.9977934 7.86201781,71.1804385 14.5995571,71.7544544 L46.9830912,71.7694035" id="Path" stroke="#353535" stroke-width="1.8" stroke-linecap="round"></path>
                <path d="M106.550199,21.8360702 C102.392278,22.5001461 99.1312299,25.7916716 98.4733029,29.9884511 C97.8153758,25.7916716 94.5543274,22.5001461 90.3964069,21.8360702 C94.5543274,21.1719943 97.8153758,17.8804688 98.4733029,13.6836892 C99.1312299,17.8804688 102.392278,21.1719943 106.550199,21.8360702 Z" id="Path" fill="#D1D1D1" fill-rule="nonzero"></path>
                <path d="M103.521363,21.8360702 C99.3634424,22.5001461 96.102394,25.7916716 95.4444669,29.9884511 C94.7865398,25.7916716 91.5254914,22.5001461 87.367571,21.8360702 C91.5254914,21.1719943 94.7865398,17.8804688 95.4444669,13.6836892 C96.102394,17.8804688 99.3634424,21.1719943 103.521363,21.8360702 Z" id="Path" stroke="#31383E" stroke-linejoin="round" fill-rule="nonzero"></path>
                <path d="M108.569423,10.6265464 C107.010203,10.8755748 105.787309,12.1098969 105.540587,13.6836892 C105.293864,12.1098969 104.070971,10.8755748 102.511751,10.6265464 C104.070971,10.3775179 105.293864,9.14319583 105.540587,7.5694035 C105.787309,9.14319583 107.010203,10.3775179 108.569423,10.6265464 Z" id="Path-Copy" stroke="#31383E" stroke-width="0.8" stroke-linejoin="round" fill-rule="nonzero"></path>
                <line x1="24.1819228" y1="65.0748685" x2="54.9750886" y2="65.5843923" id="Path-22-Copy-2" stroke="#D1D1D1" stroke-width="1.8" stroke-linecap="round" stroke-linejoin="round"></line>
                <path d="M88.3771829,10.6265464 C86.8179628,10.8755748 85.5950696,12.1098969 85.348347,13.6836892 C85.1016243,12.1098969 83.8787312,10.8755748 82.319511,10.6265464 C83.8787312,10.3775179 85.1016243,9.14319583 85.348347,7.5694035 C85.5950696,9.14319583 86.8179628,10.3775179 88.3771829,10.6265464 Z" id="Path-Copy-4" fill="#31383E" fill-rule="nonzero"></path>
            </g>
        </g>
    </g>
</svg>