<?xml version="1.0" encoding="UTF-8"?>
<svg width="16px" height="15px" viewBox="0 0 16 15" version="1.1" xmlns="http://www.w3.org/2000/svg" xmlns:xlink="http://www.w3.org/1999/xlink">
    <title>icons/header/arrow right</title>
    <g id="Page-1" stroke="none" stroke-width="1" fill="none" fill-rule="evenodd">
        <g id="ui-style-guide-menu-&amp;-builder" transform="translate(-231.000000, -438.000000)">
            <g id="arrow" transform="translate(231.000000, 438.000000)">
                <rect id="Rectangle" x="0" y="0" width="15" height="15"></rect>
                <path d="M11.6060995,5.54244051 C11.8016792,5.74096159 11.8116676,6.05288338 11.6376707,6.26299438 L11.6004187,6.30359534 L7.95823701,9.89181356 C7.76572595,10.0814723 7.4651727,10.0973766 7.25454357,9.93674702 L7.21367539,9.9022665 L3.36089616,6.31404828 C3.14336734,6.11145664 3.13125837,5.77088172 3.33385001,5.55335291 C3.52377967,5.34941964 3.8349837,5.32603116 4.05238051,5.49083458 L4.09454538,5.52630676 L7.57023433,8.76312281 L10.8449446,5.5367597 C11.0434657,5.34117996 11.3553875,5.33119162 11.5654985,5.50518848 L11.6060995,5.54244051 Z" id="Combined-Shape" fill="#FFFFFF" transform="translate(7.475200, 7.714286) rotate(-270.000000) translate(-7.475200, -7.714286) "></path>
            </g>
        </g>
    </g>
</svg>