<svg xmlns="http://www.w3.org/2000/svg" viewBox="0 0 22 15">
  <defs>
    <filter id="arrow_white-a" width="163%" height="163%" x="-18.5%" y="-31.5%" filterUnits="objectBoundingBox">
      <feOffset dy="7" in="SourceAlpha" result="shadowOffsetOuter1"/>
      <feGaussianBlur in="shadowOffsetOuter1" result="shadowBlurOuter1" stdDeviation="4.5"/>
      <feColorMatrix in="shadowBlurOuter1" result="shadowMatrixOuter1" values="0 0 0 0 0   0 0 0 0 0   0 0 0 0 0  0 0 0 0.5 0"/>
      <feMerge>
        <feMergeNode in="shadowMatrixOuter1"/>
        <feMergeNode in="SourceGraphic"/>
      </feMerge>
    </filter>
  </defs>
  <path fill="#FFF" fill-rule="evenodd" d="M15.2276976,1.6725413 L15.284273,1.72469414 L20.2842729,6.82374846 C20.5485527,7.09326395 20.5707145,7.51403849 20.3468854,7.80891928 L20.2988385,7.86613473 L15.2988386,13.2600257 C15.0165375,13.564566 14.5419636,13.5815186 14.2388483,13.2978903 C13.9546776,13.0319887 13.9220869,12.5963031 14.1517321,12.2919476 L14.2011608,12.2329167 L18.7114996,7.36695221 L14.2157265,2.78235777 C13.943196,2.50442826 13.9292778,2.06773776 14.1717336,1.77358235 L14.2236424,1.71674101 C14.5002714,1.44292937 14.9349186,1.4289457 15.2276976,1.6725413 Z M15.5,6.77468091 C15.9142133,6.77468091 16.2499997,7.11204592 16.2499997,7.52820674 C16.2499997,7.91988751 15.9525557,8.24176991 15.5722297,8.27828314 L15.5,8.28173256 L0.249999982,8.28173256 C-0.164213571,8.28173256 -0.5,7.94436756 -0.5,7.52820674 C-0.5,7.13652596 -0.202555966,6.81464356 0.177769978,6.77813034 L0.249999982,6.77468091 L15.5,6.77468091 Z" filter="url(#arrow_white-a)" transform="matrix(-1 0 0 1 21 0)"/>
</svg>
