<?xml version="1.0" encoding="UTF-8"?>
<svg width="19px" height="18px" viewBox="0 0 19 18" version="1.1" xmlns="http://www.w3.org/2000/svg" xmlns:xlink="http://www.w3.org/1999/xlink">
    <title>icons/arrow back</title>
    <g id="Page-1" stroke="none" stroke-width="1" fill="none" fill-rule="evenodd">
        <g id="מסניף-אחר_מקרה-קצה_-2-שורות" transform="translate(-332.000000, -129.000000)" fill="#000000">
            <g id="card/header" transform="translate(0.000000, 126.000000)">
                <g id="icons/arrow-back" transform="translate(341.250000, 12.250000) rotate(-360.000000) translate(-341.250000, -12.250000) translate(332.500000, 3.500000)">
                    <path d="M11.9776979,2.92173383 L12.0342733,2.97364264 L17.0342733,8.04883796 C17.2985532,8.31709235 17.3207149,8.73589805 17.0968858,9.02939906 L17.0488389,9.0863468 L12.0488389,14.4549991 C11.7665378,14.7581145 11.2919639,14.7749877 10.9888485,14.4926866 C10.7046779,14.2280292 10.6720872,13.7943822 10.9017324,13.4914508 L10.9511611,13.4326962 L15.4615,8.5895 L10.9657267,4.02635736 C10.6931963,3.74972831 10.679278,3.31508112 10.9217338,3.0223021 L10.9736426,2.96572672 C11.2502717,2.69319628 11.6849189,2.67927804 11.9776979,2.92173383 Z M12.25,8 C12.6642136,8 13,8.33578644 13,8.75 C13,9.13984806 12.702556,9.46022434 12.32223,9.49656671 L12.25,9.5 L1,9.5 C0.585786438,9.5 0.25,9.16421356 0.25,8.75 C0.25,8.36015194 0.547444042,8.03977566 0.927769995,8.00343329 L1,8 L12.25,8 Z" id="Combined-Shape"></path>
                </g>
            </g>
        </g>
    </g>
</svg>