<?xml version="1.0" encoding="UTF-8"?>
<svg width="19px" height="19px" viewBox="0 0 19 19" version="1.1" xmlns="http://www.w3.org/2000/svg" xmlns:xlink="http://www.w3.org/1999/xlink">
    <title>icons/header/hamburger</title>
    <g id="Page-1" stroke="none" stroke-width="1" fill="none" fill-rule="evenodd">
        <g id="אונבורדינג---שנתחבר---הקלדת-מספר-נייד" transform="translate(-333.000000, -33.000000)" fill="#FFFFFF">
            <g id="header/pizza-lover-" transform="translate(0.000000, 20.000000)">
                <g id="icons/header/hamburger" transform="translate(333.250000, 13.000000)">
                    <path d="M12.6621378,3.08869005 L12.721946,3.14356508 L18.0076603,8.50877155 C18.2870419,8.79235477 18.31047,9.23509222 18.0738507,9.54536472 L18.0230583,9.60556661 L12.737344,15.2809991 C12.4389113,15.6014353 11.937219,15.6192728 11.6167827,15.3208401 C11.3163737,15.0410595 11.2819208,14.5826326 11.5246885,14.2623908 L11.5769417,14.2002788 L16.3450143,9.08032857 L11.5923397,4.25643492 C11.3042361,3.9639985 11.2895225,3.50451433 11.5458329,3.19500507 L11.6007079,3.13519682 C11.8931444,2.84709321 12.3526285,2.83237964 12.6621378,3.08869005 Z M12.95,8.45714286 C13.3878829,8.45714286 13.7428571,8.81211709 13.7428571,9.25 C13.7428571,9.66212509 13.4284163,10.0008086 13.0263574,10.0392277 L12.95,10.0428571 L1.05714286,10.0428571 C0.619259948,10.0428571 0.264285714,9.68788291 0.264285714,9.25 C0.264285714,8.83787491 0.578726558,8.49919141 0.980785423,8.46077233 L1.05714286,8.45714286 L12.95,8.45714286 Z" id="Combined-Shape"></path>
                </g>
            </g>
        </g>
    </g>
</svg>