<?xml version="1.0" encoding="UTF-8"?>
<svg width="20px" height="20px" viewBox="0 0 20 20" version="1.1" xmlns="http://www.w3.org/2000/svg" xmlns:xlink="http://www.w3.org/1999/xlink">
    <title>trash</title>
    <g id="Page-1" stroke="none" stroke-width="1" fill="none" fill-rule="evenodd">
        <g id="ui-style-guide-menu-&amp;-builder" transform="translate(-116.000000, -433.000000)">
            <g id="trash" transform="translate(116.000000, 433.000000)">
                <rect id="Rectangle" x="0" y="0" width="20" height="20"></rect>
                <path d="M10.7525491,2 C11.2091227,2 11.6165588,2.17113378 11.9099961,2.45053604 C12.1974745,2.72426441 12.3758462,3.1022814 12.3824748,3.52648203 L12.3826663,4.0063537 L17.0739613,4.0063537 C17.2019348,4.0063537 17.3069084,4.04953454 17.3810279,4.12010894 C17.4547375,4.19029309 17.5,4.28967096 17.5,4.41087184 C17.5,4.53207272 17.4547375,4.63145059 17.3810279,4.70163474 C17.310131,4.76914068 17.2110046,4.81158334 17.0905224,4.81514639 L15.9265469,4.81538998 L15.0918374,16.4817071 C15.0906805,16.9013301 14.9098784,17.2817995 14.6149902,17.5569677 C14.3276135,17.8251266 13.9317599,17.9934379 13.4878906,17.9998123 L13.4617258,18 L6.53827424,18 C6.08170061,18 5.6742645,17.8288662 5.38082723,17.549464 C5.09435013,17.276689 4.91622159,16.9003508 4.90842403,16.4779493 L4.90816228,16.4530495 L4.07347233,4.81538998 L2.92603867,4.81538998 C2.79806524,4.81538998 2.69309163,4.77220914 2.61897211,4.70163474 C2.54526246,4.63145059 2.5,4.53207272 2.5,4.41087184 C2.5,4.28967096 2.54526246,4.19029309 2.61897211,4.12010894 C2.68986904,4.05260299 2.78899543,4.01016034 2.90947756,4.00659728 L7.3163141,4.0063537 L7.3163141,3.55100597 C7.3163141,3.11685908 7.49597748,2.72952842 7.78898428,2.45053604 C8.076885,2.17640552 8.4745233,2.00649642 8.92064042,2.00018235 L10.7525491,2 Z M14.501,9.066 L5.509,9.066 L6.01487202,16.4194963 L6.01503129,16.4408722 L6.0260381,16.5649468 C6.05193094,16.7253052 6.12176645,16.8643524 6.22443645,16.9699237 C6.30272942,17.050429 6.39992142,17.1109993 6.5098988,17.1465746 L6.62391154,17.1736308 L6.74508929,17.1828995 L13.3029015,17.1826567 L13.4187935,17.1712612 C13.5690501,17.145004 13.7011683,17.075506 13.8022551,16.9749157 C13.8820691,16.8954937 13.9423841,16.7970028 13.977669,16.6857156 L14.0044057,16.5703953 L14.0132266,16.4479382 L14.501,9.066 Z M14.7727273,4.97142857 L5.22727273,4.97142857 L5.435,8 L14.572,8 L14.7727273,4.97142857 Z M10.6566828,2.65306122 L8.98313571,2.65332623 L8.87084455,2.66576702 C8.72524853,2.69443603 8.59720003,2.77033467 8.4992439,2.88031607 C8.42261564,2.96635136 8.36457713,3.07292112 8.33040683,3.19331571 L8.30438812,3.31807006 L8.29545455,3.45054993 L8.29545455,3.93847921 L11.3636364,3.93847921 L11.3633997,3.42872148 L11.3522808,3.30150709 C11.3266467,3.13653114 11.2587222,2.99132934 11.159847,2.88031607 C11.0333203,2.73825677 10.8565875,2.65306122 10.6566828,2.65306122 Z" id="Combined-Shape" fill="black"></path>
            </g>
        </g>
    </g>
</svg>