<?xml version="1.0" encoding="UTF-8"?>
<svg width="13px" height="15px" viewBox="0 0 13 15" version="1.1" xmlns="http://www.w3.org/2000/svg" xmlns:xlink="http://www.w3.org/1999/xlink">
    <title>icons/outline/trash copy 2</title>
    <g id="Page-1" stroke="none" stroke-width="1" fill="none" fill-rule="evenodd">
        <g id="סל-4-טולטיפ-ארוחה" transform="translate(-90.000000, -353.000000)" fill="black">
            <g id="icons/outline/trash-copy-2" transform="translate(90.000000, 353.000000)">
                <path d="M12.1058394,3.35766423 L11.1423358,2.39416058 C10.6167883,1.86861314 9.78467153,1.86861314 9.30291971,2.39416058 L1.06934307,10.6277372 L0.5,14 L3.87226277,13.4306569 L12.1058394,5.19708029 C12.6313869,4.71532847 12.6313869,3.83941606 12.1058394,3.35766423 Z M3.2536438,12.8588695 L1.32758621,13.1724138 L1.64113047,11.2463562 L8.40472805,4.48275862 L10.0172414,6.09527195 L3.2536438,12.8588695 Z M11.5439952,4.49702735 L10.7306778,5.31034483 L9.18965517,3.76932224 L10.0029727,2.95600476 C10.1741974,2.78478002 10.4310345,2.78478002 10.6022592,2.95600476 L11.5439952,3.89774078 C11.6296076,3.98335315 11.6724138,4.06896552 11.6724138,4.19738407 C11.6724138,4.32580262 11.6296076,4.41141498 11.5439952,4.49702735 Z" id="Shape"></path>
            </g>
        </g>
    </g>
</svg>