<?xml version="1.0" encoding="UTF-8"?>
<svg width="13px" height="12px" viewBox="0 0 13 12" version="1.1" xmlns="http://www.w3.org/2000/svg" xmlns:xlink="http://www.w3.org/1999/xlink">
    <title>Combined Shape</title>
    <g id="Page-1" stroke="none" stroke-width="1" fill="none" fill-rule="evenodd">
        <g id="איסוף-עצמי--סניף-אחר---רשימה-copy" transform="translate(-790.000000, -347.000000)" fill="#017AFF" fill-rule="nonzero">
            <g id="Group-3" transform="translate(384.000000, 99.000000)">
                <g id="branch-details" transform="translate(83.500000, 176.000000)">
                    <g id="Group-2" transform="translate(0.000000, 19.000000)">
                        <g id="Group" transform="translate(0.000000, 39.000000)">
                            <g id="notes/blue-with-icon" transform="translate(125.268293, 1.000000)">
                                <g id="icons/clock-new/blue" transform="translate(197.897165, 13.000000)">
                                    <path d="M6,0 C9.3137085,0 12,2.6862915 12,6 C12,9.3137085 9.3137085,12 6,12 C2.6862915,12 0,9.3137085 0,6 C0,2.6862915 2.6862915,0 6,0 Z M6,1 C3.23857625,1 1,3.23857625 1,6 C1,8.76142375 3.23857625,11 6,11 C8.76142375,11 11,8.76142375 11,6 C11,3.23857625 8.76142375,1 6,1 Z M6,3 C6.24545989,3 6.44960837,3.17687516 6.49194433,3.41012437 L6.5,3.5 L6.49972971,5.588 L8.43104378,6.66305146 C8.64555046,6.78237221 8.73797426,7.03618172 8.66158653,7.26059749 L8.62493682,7.3430555 C8.50561607,7.55756218 8.25180656,7.64998598 8.02739079,7.57359825 L7.94493279,7.53694854 L5.7569445,6.31986568 C5.62477653,6.24634638 5.53445483,6.11795588 5.50801893,5.97217365 L5.5,5.88291714 L5.5,3.5 C5.5,3.22385763 5.72385763,3 6,3 Z" id="Combined-Shape"></path>
                                </g>
                            </g>
                        </g>
                    </g>
                </g>
            </g>
        </g>
    </g>
</svg>