<?xml version="1.0" encoding="UTF-8"?><svg version="1.1" width="77px" height="41px" viewBox="0 0 77.0 41.0" xmlns="http://www.w3.org/2000/svg" xmlns:xlink="http://www.w3.org/1999/xlink"><defs><clipPath id="i0"><path d="M375,0 L375,667 L0,667 L0,0 L375,0 Z"></path></clipPath><clipPath id="i1"><path d="M1.061,0 L1.06140213,1.23830249 C1.06140213,3.48538796 2.88302482,5.30701065 5.13011029,5.30701065 C6.29110446,5.30701065 7.33852369,4.82073859 8.07980782,4.04075466 C7.75730215,5.9644241 6.08413534,7.42981491 4.06870816,7.42981491 C1.82162269,7.42981491 2.75188603e-16,5.60819222 0,3.36110674 L0,0 L1.061,0 Z"></path></clipPath><clipPath id="i2"><path d="M1.061,0 L1.06140213,1.23830249 C1.06140213,3.48538796 2.88302482,5.30701065 5.1301103,5.30701065 C6.29110446,5.30701065 7.33852369,4.82073859 8.07980782,4.04075466 C7.75730215,5.9644241 6.08413534,7.42981491 4.06870816,7.42981491 C1.82162269,7.42981491 2.75188603e-16,5.60819222 0,3.36110674 L0,0 L1.061,0 Z"></path></clipPath><clipPath id="i3"><path d="M16.687199,0 L16.687199,14.8892517 L0,14.8892517 L0,0 L16.687199,0 Z"></path></clipPath><clipPath id="i4"><path d="M8.13741633,0 L8.13741633,10.5255711 C8.13741633,12.9093034 6.30649766,14.8596298 4.06870816,14.8596298 C1.83091867,14.8596298 0,12.9093034 0,10.5255711 L0,6.94825283 L8.13741633,0 Z"></path></clipPath><clipPath id="i5"><path d="M6.71779098,0 L10.967822,7.25862102 L10.967822,10.5455437 C10.967822,12.9182911 9.02446105,14.8596298 6.64924209,14.8596298 C4.27402314,14.8596298 2.33066218,12.9182911 2.33066218,10.5455437 L2.33066218,7.80644147 L0,0 L6.71779098,0 Z"></path></clipPath><clipPath id="i6"><path d="M32.4737135,0 C32.9140506,0 33.1545012,0.131642503 33.3656385,0.490324513 C33.9558763,1.49298011 34.5621345,2.50561341 35.1553008,3.49433967 L35.2821969,3.70583131 L35.4086086,3.91648374 L35.4212196,3.93749821 C36.0455612,4.97772125 36.682789,6.0394131 37.3016785,7.08769233 C37.4187599,7.28584121 37.4920491,7.52757287 37.5006285,7.74325055 L37.501256,7.76403891 L37.5014732,7.78439557 L37.5021069,8.14739796 C37.5045101,9.23399277 37.5070525,10.3575764 37.4130748,11.4496335 C37.3397058,12.3020186 36.9364812,13.105743 36.1518919,13.9820777 C35.957932,14.1987437 35.8337719,14.5117354 35.8333546,14.7789286 C35.8291999,17.3395914 35.8267617,19.6312468 35.8253781,21.9974657 C35.5246307,22.3061326 35.1826361,22.6534032 34.800146,23.0396118 L34.799195,15.0813887 L34.3329903,15.222795 L34.2891024,15.2359918 L34.245603,15.2488172 C33.5936832,15.4391188 32.9676333,15.5358017 32.3835278,15.5358017 C30.7474055,15.5358017 29.3818993,14.8018234 28.2070837,13.3003872 L28.17121,13.2542259 L27.8770809,12.8732725 L27.5926504,13.261527 L27.5586237,13.3076262 L27.5250788,13.3523891 C26.4154237,14.8219617 25.0406991,15.538913 23.3206917,15.538913 C21.5996039,15.5378255 20.213583,14.8027267 19.082648,13.2971009 L19.0481497,13.2508286 L18.7561314,12.8562399 L18.4655623,13.2521147 L18.431333,13.2983983 L18.3975913,13.3433414 C17.2814823,14.8188277 15.9045461,15.5386641 14.1877111,15.5386641 C12.4646614,15.5380599 11.0781606,14.8021535 9.94856662,13.2942936 L9.91410962,13.2479523 L9.62012642,12.8496771 L9.32975618,13.250818 L9.30703477,13.2820478 L9.28465404,13.3124821 C8.54473437,14.3133028 7.67041996,14.9666369 6.61236755,15.3064443 C6.12430503,15.4630979 5.61660765,15.5427709 5.10381891,15.5427709 C4.5005784,15.5427709 3.88521033,15.438272 3.22338085,15.2245144 L3.18165634,15.2109141 L2.70768564,15.054728 L2.70768564,35.8301447 L9.76930797,35.8301447 L9.76930797,20.4593277 L27.7643366,20.4593277 L27.7643366,35.8256645 L34.799195,35.8256645 L34.799,33.19 L35.824,34.557 L35.8242218,35.984507 C35.8242218,36.3480483 35.7923586,36.5659473 35.6869117,36.6688447 C35.5825117,36.7707217 35.3643209,36.8032867 34.9996983,36.8044277 L30.9750628,36.8040388 L26.970104,36.8039299 L22.8650666,36.8039299 L19.013764,36.8040543 L14.8056889,36.8024365 L10.8513484,36.8025609 C8.03911056,36.8025609 5.22763382,36.8024365 2.41551979,36.8018142 C2.13349783,36.8017599 1.94660953,36.774962 1.8357867,36.6668165 C1.73055003,36.5641223 1.70138296,36.393545 1.69882321,36.1403604 L1.6986746,29.9875666 C1.69875219,27.477789 1.69900947,24.9424972 1.69986265,22.403188 L1.70004136,21.895279 L1.7005901,20.5648123 C1.70147029,18.6457116 1.70274798,16.7272772 1.70460267,14.8188035 C1.70501722,14.4703736 1.5955732,14.197173 1.34866922,13.9336331 C0.489097508,13.0160115 0.0392426007,11.9161788 0.0110437073,10.6637079 L0.0103182728,10.6257075 L0.00984290606,10.5868649 L0.00730619699,10.31919 C-0.000473639755,9.48422663 -0.00845389321,8.63016087 0.0199346317,7.79395625 C0.0281004528,7.55174632 0.10359048,7.28725921 0.22220038,7.0865701 C0.816911183,6.08002448 1.42659773,5.06208299 2.02294594,4.0680629 L2.15052036,3.85543761 L2.28924511,3.62425689 C2.91849396,2.57583904 3.56905556,1.49169776 4.20286886,0.42150203 C4.37942249,0.123424189 4.59024923,0.00635220391 4.95137704,0.00282038517 L4.96841543,0.00273773311 L5.14804047,0.00305333053 L5.50687496,0.00365210715 C7.02664068,0.00610046487 8.52573581,0.00741704965 9.91518443,0.00810977677 L16.8730083,0.00833814641 C18.0904467,0.00808924743 19.3078814,0.00784034871 20.525443,0.00784034872 L21.8935236,0.00809739628 L23.5527567,0.00883593263 L25.0589941,0.00952042083 L28.2875113,0.00923224952 C29.8689946,0.00805366568 31.2037393,0.00509591297 32.4737135,0 Z M26.7409588,21.4133254 L10.794969,21.4133254 L10.794969,35.8333804 L26.7409588,35.8333804 L26.7409588,21.4133254 Z M9.22944916,8.05934474 L0.983502905,8.05934474 L0.983343036,8.51694947 L0.982896724,8.61908923 C0.98213244,8.75528599 0.980735347,8.89137751 0.979233306,9.0256 L0.978094101,9.12599258 L0.977651237,9.16475068 L0.975497937,9.35445484 C0.970344561,9.83103959 0.967931991,10.3193283 0.989700704,10.7996621 C1.03488779,11.8010573 1.45622285,12.7004739 2.1298342,13.3737579 C2.80166684,14.0452641 3.7247724,14.4918843 4.77591799,14.5886973 C4.88866306,14.5991958 5.00386656,14.604454 5.11802537,14.604454 C6.03768435,14.604454 6.91206493,14.2793796 7.60132201,13.7384243 C8.29207658,13.1962937 8.79656318,12.4376619 8.9763324,11.5733244 C9.1052529,10.9541248 9.13842808,10.3114005 9.15839749,9.67863452 L9.16016927,9.62147194 L9.16346151,9.51057543 L9.16506104,9.45513773 L9.16665699,9.39934307 C9.17480305,9.11516218 9.18318538,8.82240542 9.19971438,8.53326056 L9.20554039,8.43697133 L9.22944916,8.05934474 Z M18.2916874,8.05125549 L10.116864,8.05125549 L10.1162166,8.60934389 C10.1154003,8.74406159 10.1139081,8.8780332 10.1123032,9.01007887 L10.1110858,9.10884607 L10.1104032,9.16396723 L10.1092699,9.25127721 L10.1081713,9.33841422 C10.1021118,9.8309091 10.0993445,10.302203 10.1238523,10.7821031 C10.1746396,11.7743325 10.5697525,12.6513953 11.2140017,13.3161472 C11.8563325,13.9789197 12.7469987,14.4309459 13.7928326,14.5729938 C13.9466954,14.5939176 14.1046317,14.604454 14.2619145,14.604454 C15.0841031,14.604454 15.8936681,14.3177215 16.5662252,13.8321629 C17.2381439,13.3470652 17.7728916,12.6638275 18.0475589,11.8724326 C18.2943218,11.1613553 18.3064952,10.4405493 18.2892247,9.73568956 L18.2873749,9.66406488 C18.2864072,9.62828103 18.2853814,9.59254065 18.2843244,9.55684713 L18.2810445,9.44824048 L18.2790009,9.3802567 L18.276839,9.30666452 C18.2690581,9.03631233 18.2632801,8.76061871 18.2725526,8.48996233 L18.2752054,8.42212251 L18.2916874,8.05125549 Z M36.6117335,8.05573569 L28.3825715,8.05573569 L28.3823884,8.5125421 L28.3818772,8.61374502 C28.3810018,8.74861835 28.3794018,8.88310664 28.3776821,9.01565635 L28.3763777,9.11480099 L28.375985,9.14446189 L28.3748135,9.22992609 L28.3736161,9.32023594 C28.3674216,9.80058568 28.3647847,10.2607129 28.3894407,10.7304823 C28.4443569,11.7686457 28.8632004,12.6841883 29.5340117,13.364865 C30.2039044,14.0446096 31.1255912,14.4904743 32.188948,14.5883248 C32.299963,14.5985761 32.4133636,14.6037073 32.5257193,14.6037073 C33.4386717,14.6037073 34.3204206,14.2664211 35.0168731,13.7128813 C35.7146761,13.1582681 36.2258449,12.3870589 36.3985261,11.5229768 C36.5390195,10.8202068 36.5521679,10.0887317 36.5643324,9.38067491 C36.5690507,9.10302761 36.5740535,8.81716889 36.5868249,8.53501212 L36.5919926,8.4294093 L36.6117335,8.05573569 Z M27.345241,8.06096259 L19.3041336,8.06096259 L19.3041336,8.41647193 L19.3038357,8.51197904 L19.3029896,8.60763866 C19.3004289,8.83101855 19.2939538,9.05529902 19.2875627,9.27380215 C19.2691479,9.90402315 19.2506,10.5557954 19.3248958,11.1913901 C19.4355755,12.137978 19.9261399,12.9861433 20.6406939,13.5995573 C21.3462516,14.2052483 22.2698905,14.5816949 23.2588907,14.5980894 L23.3859441,14.5981676 C24.3685255,14.5837878 25.2865102,14.2166227 25.9908427,13.6225503 C26.7115018,13.0147072 27.2081965,12.1696831 27.323655,11.2226536 C27.4010011,10.5877602 27.3827329,9.96200775 27.3625417,9.28581818 C27.3549782,9.03321227 27.3471902,8.7733271 27.3455535,8.51365412 L27.345241,8.06096259 Z M10.0235831,0.957823958 L8.3078037,0.957271526 C7.54324608,0.957640115 6.68605384,0.959479569 5.81814214,0.96696286 L5.73921805,0.967658785 L5.59714798,0.968991055 L5.52604454,0.969697391 L5.45495646,0.970430747 L5.44161501,0.970748392 C5.17449238,0.980646218 4.89069442,1.2020235 4.76002069,1.41612525 C3.96245586,2.72244001 3.16226311,4.05502071 2.38577252,5.3494016 L1.86995207,6.20939808 L1.84535908,6.25195108 C1.81366189,6.3088662 1.78579372,6.36696752 1.75348193,6.43459845 L1.73111046,6.48138855 L1.69788223,6.54927918 L1.4555176,7.03447268 L2.00322135,7.06141202 L2.03157416,7.06280703 L2.058984,7.06424197 C2.09508951,7.06618556 2.12946804,7.06824116 2.16256195,7.07029619 C2.25151495,7.07564196 2.33599089,7.08065743 2.42025836,7.08206033 L2.80077096,7.08269749 L3.63258239,7.08329659 L5.29611355,7.08394174 C6.06548749,7.08394174 6.83448086,7.08344387 7.60766044,7.08195034 C7.72248064,7.08195054 7.84914939,7.09255246 7.98688271,7.10405189 C8.13235642,7.11614638 8.28241031,7.12849483 8.42698991,7.12849483 C8.62837827,7.12849483 8.92070589,7.10471104 9.14733419,6.93801527 C9.43062331,6.72964583 9.5548712,6.37449564 9.65235124,6.00493177 L9.66737131,5.94728096 L9.67402123,5.92138933 C9.67845603,5.90406558 9.68291848,5.88653226 9.68755649,5.86828403 C9.71891813,5.74496205 9.74853139,5.62822316 9.78361955,5.52301225 C10.1077403,4.55368903 10.4202162,3.60183717 10.7509606,2.59409635 C10.8568649,2.27159393 10.9634787,1.94708916 11.0710175,1.620092 L11.1356541,1.4235887 L11.2887216,0.958104454 L10.3523676,0.958000917 L10.0235831,0.957823958 Z M29.7409362,0.957637812 L26.2504423,0.957606653 L26.3924627,1.41691448 L26.3992644,1.43871316 L26.4058211,1.45984585 C26.41882,1.50185877 26.4312646,1.54276781 26.4455566,1.58996982 C26.4727655,1.67870197 26.4954282,1.75258272 26.519452,1.82601826 C26.6109474,2.10354732 26.7026627,2.38083198 26.7945058,2.65801295 L26.9323367,3.0736695 L26.9424564,3.10420959 L27.0108898,3.31074526 L27.0795398,3.51800237 C27.4003801,4.48689506 27.7273357,5.4786716 28.0387552,6.4590414 C28.1093328,6.68145034 28.2142493,6.8373586 28.3609357,6.9397393 C28.5051767,7.04041324 28.6924267,7.09041149 28.9389437,7.09041149 C29.9714721,7.08338346 30.998164,7.08195656 31.896896,7.08173639 L32.202912,7.08170164 L33.3065314,7.08207498 L35.1125288,7.08207493 L35.1744141,7.0809581 C35.24614,7.07844774 35.3166902,7.07201448 35.3931623,7.06495192 C35.4147896,7.06294472 35.4362296,7.06095398 35.4575188,7.05916299 L35.4895257,7.05663764 L35.8031132,7.03369035 L35.8247143,6.70164578 C35.8303113,6.65268655 35.8368407,6.56101733 35.7774647,6.45375198 L35.4386747,5.88533523 L35.3040408,5.65946601 L35.1530499,5.40617238 C34.3464009,4.05306524 33.5184896,2.66584429 32.6961565,1.30260309 C32.58264,1.11463099 32.3200225,0.965875901 32.098187,0.964701796 C31.3006105,0.960164916 30.507519,0.958349957 29.7409362,0.957637812 Z M22.6094764,0.955988805 L22.4619683,0.955988805 L22.0368581,0.956159937 L21.3995055,0.95681323 L21.0809021,0.957102042 L19.2648121,0.957233304 L19.2648121,7.05444709 L27.0750725,7.05444709 L27.03653,6.65468291 C27.0354997,6.63958296 27.0350771,6.63176783 27.034586,6.6227394 C27.032382,6.57761957 27.0292052,6.52701132 27.0075228,6.45394601 L26.7578268,5.6941951 L26.7409901,5.64296949 L26.6606315,5.39849022 L26.5799523,5.15310332 C26.1758055,3.9241701 25.7604928,2.66638132 25.3380493,1.43034247 C25.2938164,1.30095906 25.1892941,1.19051211 25.0612988,1.11058357 C24.9151657,1.01932869 24.7411508,0.968949897 24.6125458,0.96732229 C23.9003324,0.958126373 23.2077753,0.956250401 22.6094764,0.955988805 Z M12.8495867,0.950016637 C12.6375524,0.950016637 12.4917653,1.0117908 12.3874545,1.09564029 C12.2322099,1.22043255 12.1694761,1.39998876 12.1305122,1.52001325 C11.8575371,2.36011238 11.5775547,3.21257611 11.3048912,4.04181183 L11.2420999,4.2327619 L11.0919085,4.6898932 L11.0267445,4.88795133 L10.9614539,5.0861692 C10.8960891,5.2845153 10.830484,5.48332092 10.7644827,5.68325968 L10.6983394,5.88361351 L10.6614497,5.99535279 L10.4667471,6.58499074 L10.3131155,7.05071359 L18.2659151,7.05071359 L18.2659151,1.03454372 L17.9427944,0.988110727 C17.9346916,0.986852526 17.927923,0.985764495 17.9134583,0.983392599 L17.8824468,0.978171167 L17.8636512,0.974930621 C17.8199509,0.967498072 17.7771018,0.961147389 17.7300269,0.959675037 L15.2543979,0.959806283 C14.5260035,0.959537313 13.6926243,0.957772756 12.8495867,0.950016637 Z"></path></clipPath><clipPath id="i7"><path d="M5.57070727,0 C5.70614377,0 5.83329329,0.0515892056 5.9289028,0.145663639 L8.19545425,2.36994741 C8.39298127,2.56380144 8.39298127,2.87916322 8.19545425,3.07289586 L5.9667508,5.26039956 L3.130995,8.04354616 C3.03538549,8.13737782 2.9079886,8.18908841 2.77279948,8.18908841 C2.63748666,8.18908841 2.51033715,8.13737782 2.41472764,8.04354616 L0.148052501,5.81877684 C-0.0493508337,5.62516559 -0.0493508337,5.30980381 0.148052501,5.11594978 L3.31182437,2.01112931 L5.21263543,0.145663639 C5.30824494,0.0515892056 5.43564183,0 5.57070727,0 Z"></path></clipPath><clipPath id="i8"><path d="M2.32586986,0.0763871786 C2.4295262,-0.0254623929 2.59774765,-0.0254623929 2.70140399,0.0763871786 L4.8524785,2.18757671 C4.95625224,2.28942628 4.95625224,2.45452859 4.8524785,2.55614773 L2.52672603,4.83900679 L0,2.35913102 Z M2.52003474,1.75379432 C2.36073502,1.75379432 2.2013179,1.81393626 2.07946594,1.93318321 C1.95796615,2.05219974 1.89680539,2.20912181 1.896688,2.36558303 C1.89680539,2.52181382 1.95796615,2.6787359 2.07946594,2.79798285 C2.2013179,2.91734502 2.3609698,2.9770261 2.52003474,2.9770261 C2.67909968,2.9770261 2.83898636,2.91734502 2.96083832,2.79798285 C3.08210333,2.6787359 3.14349887,2.52181382 3.14349887,2.36558303 C3.14349887,2.20912181 3.08210333,2.05219974 2.96083832,1.93329843 C2.83898636,1.8134754 2.67909968,1.75379432 2.52003474,1.75379432 Z"></path></clipPath><clipPath id="i9"><path d="M2.40292378,0 L4.9303088,2.48040728 L2.60511458,4.76283372 C2.5532166,4.81353894 2.48511517,4.83900679 2.41713115,4.83900679 C2.34914714,4.83900679 2.28128054,4.81353894 2.22938255,4.76283372 L0.0778469811,2.65084597 C-0.0259489937,2.54897457 -0.0259489937,2.38395212 0.0778469811,2.28208072 L2.40292378,0 Z M3.32922067,1.87067698 C3.1698868,1.87067698 3.01020069,1.93025562 2.88855744,2.04998909 C2.76691419,2.16937684 2.70597515,2.32598683 2.70597515,2.48259682 C2.70597515,2.63851538 2.76691419,2.79524061 2.88867485,2.9147436 C3.01020069,3.0336704 3.1698868,3.09370999 3.32922067,3.09370999 C3.48855453,3.09370999 3.64847548,3.03343992 3.76976648,2.9147436 C3.89199681,2.79547109 3.95293585,2.63863062 3.95293585,2.48259682 C3.95293585,2.32564111 3.89199681,2.16937684 3.76976648,2.04998909 C3.64847548,1.93025562 3.48855453,1.87067698 3.32922067,1.87067698 Z M1.50022757,1.84601581 C1.34042404,1.84601581 1.18109017,1.90582492 1.05932951,2.02486695 C0.937803677,2.14471566 0.87709947,2.30155613 0.87709947,2.45793565 C0.87709947,2.61419992 0.937451428,2.77104039 1.05932951,2.89031291 C1.18109017,3.00912446 1.34042404,3.0687031 1.50022757,3.06893358 C1.6593266,3.06893358 1.81913013,3.00900922 1.94112563,2.89031291 C2.06265146,2.77127087 2.1230041,2.61419992 2.1230041,2.45782041 C2.12323825,2.30155613 2.06276887,2.14471566 1.94112563,2.02498219 C1.81936497,1.90582492 1.6593266,1.84601581 1.50022757,1.84601581 Z"></path></clipPath><clipPath id="i10"><path d="M9.70836098,3.5107353 C10.0488758,4.56275376 10.0110183,5.61880393 9.70559524,6.67475073 C9.33153642,7.96802582 8.6983108,9.12200008 7.90439365,10.1907398 C7.07043683,11.3134425 6.09007386,12.2903832 5.02285677,13.1800994 C5.01006844,13.1907472 4.99517409,13.1987848 4.96284801,13.220339 C4.60023272,12.8550038 4.23858162,12.4991018 3.88616655,12.1339476 C2.9357699,11.1492019 2.04888357,10.1104157 1.31616774,8.94380356 C0.778194929,8.08727146 0.334434596,7.18688156 0.119570253,6.18479431 C-0.479959116,3.38856925 1.23829591,0.732911385 3.85762115,0.129860268 C6.40321047,-0.456211137 8.89206424,0.98871836 9.70836098,3.5107353 Z M4.97472194,2.37288136 C3.50940831,2.37288136 2.32153691,3.58702441 2.32153691,5.08474576 C2.32153691,6.58246712 3.50940831,7.79661017 4.97472194,7.79661017 C6.44003557,7.79661017 7.62790698,6.58246712 7.62790698,5.08474576 C7.62790698,3.58702441 6.44003557,2.37288136 4.97472194,2.37288136 Z"></path></clipPath></defs><g transform="translate(-153.0 -78.0)"><g clip-path="url(#i0)"><g transform="translate(72.42927631578914 79.0)"><g transform="translate(80.57072368421129 0.0)"><g transform="translate(14.74502344178969 1.6021713922997805)"><g transform="translate(0.7075412034843964 8.168950641351717)"><g clip-path="url(#i1)"><polygon points="0,0 8.07980782,0 8.07980782,7.42981491 0,7.42981491 0,0" stroke="none" fill="#D0D1D0" opacity="37.453497%"></polygon></g></g><g transform="translate(19.10517812348439 8.168950641351717)"><g clip-path="url(#i2)"><polygon points="0,0 8.07980782,0 8.07980782,7.42981491 0,7.42981491 0,0" stroke="none" fill="#D0D1D0" opacity="37.453497%"></polygon></g></g><g transform="translate(10.695427874669402 18.666856311641766)"><g clip-path="url(#i3)"><polygon points="0,0 16.687199,0 16.687199,14.8892517 0,14.8892517 0,0" stroke="none" fill="#007AFF"></polygon></g></g><g transform="translate(9.242080786623326 0.05529174405516901)"><g clip-path="url(#i4)"><polygon points="0,0 8.13741633,0 8.13741633,14.8596298 0,14.8596298 0,0" stroke="none" fill="#F4002E"></polygon></g></g><g transform="translate(24.809312026623324 0.05529174405516901)"><g clip-path="url(#i5)"><polygon points="0,0 10.967822,0 10.967822,14.8596298 0,14.8596298 0,0" stroke="none" fill="#F4002E"></polygon></g></g><g clip-path="url(#i6)"><polygon points="8.67361738e-19,0 37.5028753,0 37.5028753,36.8044277 8.67361738e-19,36.8044277 8.67361738e-19,0" stroke="none" fill="#FFFFFF"></polygon></g><g transform="translate(15.24648215383785 22.016937933807355)"><g clip-path="url(#i7)"><polygon points="0,0 8.34359951,0 8.34359951,8.18908841 0,8.18908841 0,0" stroke="none" fill="#FEFFFE"></polygon></g><g transform="translate(3.03403618611223 0.37223129135173005)"><g clip-path="url(#i8)"><polygon points="0,0 4.9303088,0 4.9303088,4.83900679 0,4.83900679 0,0" stroke="none" fill="#F4002E"></polygon></g></g><g transform="translate(0.3792545232640232 2.9778503308138564)"><g clip-path="url(#i9)"><polygon points="0,0 4.9303088,0 4.9303088,4.83900679 0,4.83900679 0,0" stroke="none" fill="#007AFF"></polygon></g></g></g></g><g transform="translate(48.08897197322442 24.067796610169495)"><g clip-path="url(#i10)"><polygon points="0,0 9.94944388,0 9.94944388,13.220339 0,13.220339 0,0" stroke="none" fill="#F4002E"></polygon></g><path d="M9.70836098,3.5107353 C10.0488758,4.56275376 10.0110183,5.61880393 9.70559524,6.67475073 C9.33153642,7.96802582 8.6983108,9.12200008 7.90439365,10.1907398 C7.07043683,11.3134425 6.09007386,12.2903832 5.02285677,13.1800994 C5.01006844,13.1907472 4.99517409,13.1987848 4.96284801,13.220339 C4.60023272,12.8550038 4.23858162,12.4991018 3.88616655,12.1339476 C2.9357699,11.1492019 2.04888357,10.1104157 1.31616774,8.94380356 C0.778194929,8.08727146 0.334434596,7.18688156 0.119570253,6.18479431 C-0.479959116,3.38856925 1.23829591,0.732911385 3.85762115,0.129860268 C6.40321047,-0.456211137 8.89206424,0.98871836 9.70836098,3.5107353 Z M4.97472194,2.37288136 C3.50940831,2.37288136 2.32153691,3.58702441 2.32153691,5.08474576 C2.32153691,6.58246712 3.50940831,7.79661017 4.97472194,7.79661017 C6.44003557,7.79661017 7.62790698,6.58246712 7.62790698,5.08474576 C7.62790698,3.58702441 6.44003557,2.37288136 4.97472194,2.37288136 Z" stroke="#FFFFFF" stroke-width="0.884501775" fill="none" stroke-miterlimit="10"></path></g></g></g></g></g></svg>