<?xml version="1.0" encoding="UTF-8"?>
<svg width="21px" height="21px" viewBox="0 0 21 21" version="1.1" xmlns="http://www.w3.org/2000/svg" xmlns:xlink="http://www.w3.org/1999/xlink">
    <title>icons/header/filter/on</title>
    <defs>
        <circle id="path-1" cx="16.4285714" cy="5.57142857" r="2.57142857"></circle>
        <filter x="-97.2%" y="-58.3%" width="294.4%" height="294.4%" filterUnits="objectBoundingBox" id="filter-2">
            <feMorphology radius="1" operator="dilate" in="SourceAlpha" result="shadowSpreadOuter1"></feMorphology>
            <feOffset dx="0" dy="2" in="shadowSpreadOuter1" result="shadowOffsetOuter1"></feOffset>
            <feGaussianBlur stdDeviation="1" in="shadowOffsetOuter1" result="shadowBlurOuter1"></feGaussianBlur>
            <feComposite in="shadowBlurOuter1" in2="SourceAlpha" operator="out" result="shadowBlurOuter1"></feComposite>
            <feColorMatrix values="0 0 0 0 0.801622689   0 0 0 0 0.885166228   0 0 0 0 1  0 0 0 1 0" type="matrix" in="shadowBlurOuter1"></feColorMatrix>
        </filter>
    </defs>
    <g id="icons/header/filter/on" stroke="none" stroke-width="1" fill="none" fill-rule="evenodd">
        <g id="icons/header/filter" transform="translate(4.500000, 5.565306)" fill="#5C6A74">
            <path d="M10.4413098,3.93835122 C10.9340986,4.1430294 11.2843133,4.57843346 11.3883849,5.08913773 L12.0649699,5.08964768 C12.2346341,5.08964768 12.3721741,5.30327701 12.3721741,5.56680215 C12.3721741,5.83032729 12.2346341,6.04395662 12.0649699,6.04395662 L11.2883465,6.0442917 C11.0435121,6.60585154 10.4846153,6.99826556 9.8343153,6.99826556 C9.20279456,6.99826556 8.63248636,6.62276292 8.38064498,6.04411964 L0.397016676,6.04395662 C0.17775042,6.04395662 0,5.83032729 0,5.56680215 C0,5.30327701 0.17775042,5.08964768 0.397016676,5.08964768 L8.2803548,5.08896057 C8.34136148,4.78995665 8.48805137,4.50842547 8.71273578,4.28312647 C9.16637235,3.82824904 9.84860502,3.69217333 10.4413098,3.93835122 Z M9.8343153,4.62056086 C9.40073553,4.62056086 9.04924969,4.97300815 9.04924969,5.4077739 C9.04924969,5.84253966 9.40073553,6.19498695 9.8343153,6.19498695 C10.2678951,6.19498695 10.6193809,5.84253966 10.6193809,5.4077739 C10.6193809,4.97300815 10.2678951,4.62056086 9.8343153,4.62056086 Z M6.634487,7.437484 C7.12727589,7.64216218 7.47749055,8.07756624 7.58156217,8.58827051 L11.9787159,8.58878046 C12.1960168,8.58878046 12.372174,8.80240979 12.372174,9.06593493 C12.372174,9.32946007 12.1960168,9.5430894 11.9787159,9.5430894 L7.4810906,9.54441704 C7.23603058,10.1054467 6.67740931,10.4973983 6.02749254,10.4973983 C5.39634285,10.4973983 4.82633379,10.1223368 4.57426646,9.54427214 L0.367550843,9.5430894 C0.164558118,9.5430894 0,9.32946007 0,9.06593493 C0,8.80240979 0.164558118,8.58878046 0.367550843,8.58878046 L4.47353205,8.58809335 C4.53453872,8.28908943 4.68122861,8.00755825 4.90591302,7.78225925 C5.35954959,7.32738182 6.04178226,7.19130611 6.634487,7.437484 Z M6.02749254,8.11969364 C5.70996314,8.11969364 5.42369973,8.31149194 5.30218649,8.6056533 C5.18067325,8.89981465 5.24784014,9.23840901 5.47236733,9.46355036 C5.69689452,9.68869172 6.03456523,9.75604232 6.32792414,9.6341967 C6.62128306,9.51235108 6.81255815,9.22530464 6.81255815,8.90690668 C6.81255815,8.47214093 6.46107231,8.11969364 6.02749254,8.11969364 Z M2.53788184,-8.8817842e-16 C3.18819131,-8.8817842e-16 3.74709627,0.392419755 3.9919343,0.953987803 L11.9751573,0.95430894 C12.1944235,0.95430894 12.372174,1.16793827 12.372174,1.43146341 C12.372174,1.69498855 12.1944235,1.90861788 11.9751573,1.90861788 L4.09184908,1.90855704 C3.94400074,2.63390289 3.30466542,3.17973864 2.53788184,3.1810298 C1.76843282,3.1810298 1.12694764,2.63165291 0.982256219,1.90273795 L0.956459972,1.90861788 L0.23674752,1.90861788 C0.105995477,1.90861788 2.95576097e-09,1.69498855 2.95576097e-09,1.43146341 C2.95576097e-09,1.16793827 0.105995477,0.95430894 0.23674752,0.95430894 L0.956459972,0.95430894 C0.995091257,0.95430894 1.03156146,0.972957368 1.06377532,1.00603134 C1.29384559,0.417314308 1.86726216,-8.8817842e-16 2.53788184,-8.8817842e-16 Z M2.53788184,0.803290353 C2.10429574,0.803290353 1.75280475,1.15574279 1.75280475,1.5905149 C1.75280475,2.02528701 2.10429574,2.37773945 2.53788184,2.37773945 C2.97146794,2.37773945 3.32295892,2.02528701 3.32295892,1.5905149 C3.32295892,1.15574279 2.97146794,0.803290353 2.53788184,0.803290353 Z" id="Combined-Shape"></path>
        </g>
        <g id="Oval" stroke-linejoin="round">
            <use fill="black" fill-opacity="1" filter="url(#filter-2)" xlink:href="#path-1"></use>
            <circle stroke="#FFFFFF" stroke-width="1" fill="#017AFF" fill-rule="evenodd" cx="16.4285714" cy="5.57142857" r="3.07142857"></circle>
        </g>
    </g>
</svg>