<?xml version="1.0" encoding="UTF-8"?>
<svg width="144px" height="97px" viewBox="0 0 144 97" version="1.1" xmlns="http://www.w3.org/2000/svg" xmlns:xlink="http://www.w3.org/1999/xlink">
    <title>icons/illustrated</title>
    <g id="Page-1" stroke="none" stroke-width="1" fill="none" fill-rule="evenodd">
        <g id="סניף-נסגר-בקרוב---משלוח+איסוף-עצמי" transform="translate(-116.000000, -289.000000)">
            <g id="icons/illustrated" transform="translate(116.000000, 289.000000)">
                <g id="Group-4" transform="translate(26.800000, 9.500000)">
                    <path d="M22.2307692,51.5935819 C22.2307692,52.2282042 22.4951272,54.0994765 24.2820513,54.8239477 C26.2982749,55.6413836 31.2564103,55.2277434 33.7179487,57.246722 C35.2479968,58.5016828 36.3025197,60.9267353 36.8815174,64.5218795 L36.8818912,64.5218204 C36.95169,64.9636923 36.6500651,65.3784832 36.2081933,65.448282 C36.2071086,65.4484533 36.2060235,65.4486225 36.2049381,65.4487894 C28.265369,66.689865 22.3765653,67.1863497 18.5384615,66.9378194 C14.7582156,66.6930355 10.4801795,66.0699292 5.70435331,65.0685006 L5.7043985,65.0682864 C5.29946819,64.9828349 5.02407528,64.6058804 5.06576861,64.1941375 C5.45575369,60.2495446 6.25440615,57.9337458 7.46153846,57.246722 C9.67255754,55.9883491 15.9045265,55.6193612 16.4871795,54.8239477 C16.9368442,54.2100842 18.0087706,52.3230426 18.0927789,51.6129887 C18.3406565,49.5178829 17.1310687,47.123287 15.2564103,45.1328503 C13.3609648,43.1203428 10.057335,40.8148489 9.1025641,39.8835059 C8.07976821,38.8858071 6.8474883,36.6588631 5.40572437,33.202674 L5.40566372,33.2026993 C5.23351452,32.7897982 5.42868243,32.3155213 5.84158345,32.1433721 C5.91077114,32.114526 5.98362814,32.0954235 6.05806864,32.0866117 C12.2778294,31.3621441 16.984976,31 20.1794872,31 C23.4003517,31 27.9095556,31.6135729 33.7070989,32.8407188 L33.7072282,32.840102 C34.1450709,32.9318425 34.4256422,33.3611546 34.3339016,33.7989974 C34.3293653,33.8206478 34.3239439,33.8421033 34.3176512,33.8633099 C33.6923211,35.944873 32.53539,37.817076 30.8461538,39.4797102 C29.3577906,40.9446348 26.1138236,42.6195011 24.2820513,45.1328503 C22.5794214,47.469005 22.2307692,50.6667939 22.2307692,51.5935819 Z" id="Path-5" fill="#F5002E"></path>
                    <ellipse id="Oval" stroke="#2F383F" stroke-width="1.35" stroke-linecap="round" stroke-linejoin="round" cx="21.5" cy="13.5" rx="21.5" ry="2.5"></ellipse>
                    <path d="M43,14 L43,20.0239087 C43,20.8175994 42.4789048,21.5095349 41.7648115,21.6723432 C28.5637343,24.7860528 15.0731598,24.7657017 1.25448833,21.6723432 C0.521095153,21.5095349 0,20.8175994 0,20.0239087 L0,14" id="Path" stroke="#2F383F" stroke-width="1.35" stroke-linecap="round" stroke-linejoin="round"></path>
                    <path d="M38.7347397,65.0856164 C41.4174147,65.5993151 43,66.2328767 43,66.9178082 C43,68.6130137 33.3693896,71.5 21.5,71.5 C9.63061041,71.5 0,68.630137 0,66.9178082 C0,66.1986301 1.73698384,65.5308219 4.65125673,65" id="Path" stroke="#2F383F" stroke-width="1.35" stroke-linecap="round" stroke-linejoin="round"></path>
                    <path d="M43,67 L43,74.0593588 C43,74.8459731 42.4789048,75.5317394 41.7648115,75.6930962 C28.5637343,78.7790445 15.0731598,78.7588749 1.25448833,75.6930962 C0.521095153,75.5317394 0,74.8459731 0,74.0593588 L0,67" id="Path" stroke="#2F383F" stroke-width="1.35" stroke-linecap="round" stroke-linejoin="round"></path>
                    <path d="M39,25 C39,25 38.4191344,39.2953082 27.5182232,44.1956455 C26.8018223,44.5223347 26.7437358,45.5024021 27.4407745,45.8675253 C30.9840547,47.6931412 37.7220957,52.9201676 38.9806378,66.7948482 C27.6924829,69.7350506 16.3849658,69.7350506 5.01936219,66.7948482 C6.29726651,52.9201676 13.0159453,47.6931412 16.5592255,45.8675253 C17.2562642,45.5024021 17.1981777,44.5223347 16.4817768,44.1956455 C5.60022779,39.2953082 5,25 5,25" id="Path" stroke="#2F383F" stroke-width="1.35" stroke-linecap="round" stroke-linejoin="round"></path>
                    <g id="Group" transform="translate(9.000000, 29.000000)" stroke-linecap="round" stroke-linejoin="round" stroke-width="1.2">
                        <path d="M0,1.82736 C8.39258555,0.11664 16.4925856,0.11664 24.3,1.82736" id="Path" stroke="#2F383F"></path>
                        <g id="Group-3" transform="translate(1.215000, 16.200000)" stroke="#303030">
                            <path d="M23.49,9.72 C21.7956157,8.84406977 17.5806598,8.61802326 15.3261485,8.54738372 C14.4299453,8.51912791 13.7297865,7.75622093 13.771796,6.85203488 C13.9538373,3.00924419 16.0263073,0.32494186 16.2783645,0" id="Path"></path>
                            <path d="M0,9.72 C1.72986705,8.85315789 5.9068631,8.62578947 8.15709667,8.55473684 C9.05719009,8.52631579 9.76038808,7.75894737 9.7181962,6.84947368 C9.53536473,3.15473684 7.6226662,0.497368421 7.24293928,0" id="Path"></path>
                        </g>
                    </g>
                    <g id="Group-2" transform="translate(48.000000, 0.000000)">
                        <circle id="Oval-2" fill="#FFFFFF" cx="23" cy="23" r="23"></circle>
                        <path d="M25,39.71 C16.4913094,39.6935155 9.33169366,33.3325568 8.31360644,24.8849781 C7.29551923,16.4373994 12.7388586,8.55755493 21,6.52 C21.4254772,6.40997275 21.8729235,6.59062609 22.1027373,6.96522253 C22.332551,7.33981896 22.2908644,7.82055386 22,8.15 C18.2025761,12.5364429 17.3140133,18.7353977 19.7263361,24.0119504 C22.1386589,29.288503 27.4081637,32.6721259 33.21,32.67 C34.4072433,32.665126 35.5994073,32.5140066 36.76,32.22 C37.1825307,32.1170219 37.6231736,32.2989388 37.85,32.67 C38.0809403,33.040774 38.0445006,33.5185393 37.76,33.85 C34.5619003,37.5668759 29.9033656,39.706297 25,39.71 Z M20.9986634,7.60666595 C18.7893328,8.16222001 16.4302311,9.31412018 14.4619753,11.184817 C11.5056091,13.9946474 9.45398895,18.3720562 9.42149119,21.8739863 C9.3982146,24.3822499 9.86183207,27.4938222 11.0557552,29.9186594 C12.6385089,33.1332045 15.3364064,35.482382 18.236724,36.9634088 C21.1022207,38.4266546 25.5872423,39.0840916 29.3768898,38.0520591 C32.3163344,37.2515619 34.6615911,35.11968 36.6270728,33.5630793 L32.5069896,33.7409008 C26.5124156,33.7394555 21.8931511,30.4722953 18.8813729,25.1517184 C17.5819967,22.8562535 16.8538886,18.2701838 17.8913896,13.8182684 C18.2685164,12.2000176 19.3042743,10.1294835 20.9986634,7.60666595 Z" id="Shape-Copy-4" fill="#2F383F" fill-rule="nonzero"></path>
                        <g id="iconfinder_icon-39-stars_316045" transform="translate(26.000000, 6.000000)" fill="#157EFB" fill-rule="nonzero">
                            <path d="M10,9 L7.76,8.36 L6.5,5 L5.24,8.36 L3,9 L5.24,9.64 L6.5,13 L7.76,9.64 L10,9 Z M16.0318354,1.24843892 L15.2857143,3.23809524 L15.2857143,3.23809524 L14.4230249,3.52565836 C14.1610533,3.61298225 14.0194733,3.89614224 14.1067972,4.15811389 C14.1565647,4.30741639 14.2737224,4.42457416 14.4230249,4.47434166 L15.2857143,4.7619048 L15.2857143,4.7619048 L16.0318354,6.7515611 C16.1287955,7.01012126 16.4170016,7.14112403 16.6755617,7.04416396 C16.8107734,6.99345959 16.9174602,6.88677277 16.9681646,6.7515611 L17.7142857,4.7619048 L17.7142857,4.7619048 L18.5769751,4.47434166 C18.8389467,4.38701777 18.9805267,4.10385778 18.8932028,3.84188612 C18.8434353,3.69258363 18.7262776,3.57542586 18.5769751,3.52565836 L17.7142857,3.23809524 L17.7142857,3.23809524 L16.9681646,1.24843892 C16.8712045,0.989878758 16.5829984,0.85887599 16.3244383,0.95583605 C16.1892266,1.00654043 16.0825398,1.11322725 16.0318354,1.24843892 Z M14.0318354,13.2484389 L13.2857143,15.2380952 L13.2857143,15.2380952 L12.4230249,15.5256584 C12.1610532,15.6129822 12.0194732,15.8961422 12.1067971,16.1581139 C12.1565646,16.3074164 12.2737224,16.4245741 12.4230249,16.4743416 L13.2857143,16.7619048 L13.2857143,16.7619048 L14.0318354,18.7515611 C14.1287955,19.0101213 14.4170016,19.141124 14.6755617,19.044164 C14.8107734,18.9934596 14.9174602,18.8867728 14.9681646,18.7515611 L15.7142857,16.7619048 L15.7142857,16.7619048 L16.5769751,16.4743416 C16.8389468,16.3870178 16.9805268,16.1038578 16.8932029,15.8418861 C16.8434354,15.6925836 16.7262776,15.5754259 16.5769751,15.5256584 L15.7142857,15.2380952 L15.7142857,15.2380952 L14.9681646,13.2484389 C14.8712045,12.9898787 14.5829984,12.858876 14.3244383,12.955836 C14.1892266,13.0065404 14.0825398,13.1132272 14.0318354,13.2484389 Z M6.02912905,3.31843865 L4.5405405,7.4864865 L4.5405405,7.4864865 L1.42302495,8.52565835 C1.16105329,8.61298224 1.01947329,8.89614222 1.10679718,9.15811388 C1.15656468,9.30741638 1.27372245,9.42457415 1.42302495,9.47434165 L4.5405405,10.5135135 L4.5405405,10.5135135 L6.02912905,14.6815614 C6.12200578,14.9416162 6.40811335,15.0771408 6.6681682,14.9842641 C6.8093455,14.9338436 6.92045049,14.8227386 6.97087095,14.6815614 L8.4594595,10.5135135 L8.4594595,10.5135135 L11.5769751,9.47434165 C11.8389467,9.38701776 11.9805267,9.10385778 11.8932028,8.84188612 C11.8434353,8.69258362 11.7262776,8.57542585 11.5769751,8.52565835 L8.4594595,7.4864865 L8.4594595,7.4864865 L6.97087095,3.31843865 C6.87799422,3.0583838 6.59188665,2.92285916 6.3318318,3.0157359 C6.1906545,3.06615636 6.07954951,3.17726135 6.02912905,3.31843865 Z" id="stars"></path>
                        </g>
                        <path d="M17.9830946,7.34568548 C13.7823069,10.8734354 11.4299112,16.4372964 12.1188359,22.27401 C13.1092682,30.6651585 20.0744026,36.9836256 28.3519662,37 C30.953184,36.9979942 33.4835761,36.3651496 35.7513816,35.1913861 C32.8426504,37.6323554 29.1737517,38.997053 25.3519662,39 C17.0744026,38.9836256 10.1092682,32.6651585 9.11883591,24.27401 C8.29121444,17.2622285 11.8527605,10.6442219 17.7352654,7.47699391 Z" id="Combined-Shape" fill="#017AFF" fill-rule="nonzero" style="mix-blend-mode: multiply;"></path>
                    </g>
                    <path d="M26,30 C26.5522847,30 27,30.4477153 27,31 L27,33 C27,33.5522847 26.5522847,34 26,34 C25.4477153,34 25,33.5522847 25,33 L25,31 C25,30.4477153 25.4477153,30 26,30 Z" id="Rectangle" fill="#FFFFFF" transform="translate(26.000000, 32.000000) rotate(-31.000000) translate(-26.000000, -32.000000) "></path>
                    <path d="M18,56 C18.5522847,56 19,56.4477153 19,57 L19,59 C19,59.5522847 18.5522847,60 18,60 C17.4477153,60 17,59.5522847 17,59 L17,57 C17,56.4477153 17.4477153,56 18,56 Z" id="Rectangle-Copy-7" fill="#FFFFFF" transform="translate(18.000000, 58.000000) rotate(47.000000) translate(-18.000000, -58.000000) "></path>
                    <path d="M20,37 C20.5522847,37 21,37.4477153 21,38 L21,40 C21,40.5522847 20.5522847,41 20,41 C19.4477153,41 19,40.5522847 19,40 L19,38 C19,37.4477153 19.4477153,37 20,37 Z" id="Rectangle-Copy-6" fill="#2F383F" transform="translate(20.000000, 39.000000) rotate(-81.000000) translate(-20.000000, -39.000000) "></path>
                    <path d="M22,59 C22.5522847,59 23,59.4477153 23,60 L23,62 C23,62.5522847 22.5522847,63 22,63 C21.4477153,63 21,62.5522847 21,62 L21,60 C21,59.4477153 21.4477153,59 22,59 Z" id="Rectangle-Copy-5" fill="#2F383F" transform="translate(22.000000, 61.000000) rotate(-31.000000) translate(-22.000000, -61.000000) "></path>
                    <path d="M17,62 C17.5522847,62 18,62.4477153 18,63 L18,65 C18,65.5522847 17.5522847,66 17,66 C16.4477153,66 16,65.5522847 16,65 L16,63 C16,62.4477153 16.4477153,62 17,62 Z" id="Rectangle-Copy-4" fill="#FFFFFF" transform="translate(17.000000, 64.000000) rotate(74.000000) translate(-17.000000, -64.000000) "></path>
                    <circle id="Oval" fill="#D8D8D8" cx="53.1736267" cy="49.3665959" r="5.29411765"></circle>
                    <circle id="Oval-Copy" fill="#D8D8D8" cx="45.6736267" cy="61.2783606" r="2.20588235"></circle>
                </g>
            </g>
        </g>
    </g>
</svg>