<svg xmlns="http://www.w3.org/2000/svg" viewBox="0 0 15 15">
  <g fill="none" fill-rule="evenodd" stroke="#017AFF" stroke-linecap="round" stroke-linejoin="round" transform="translate(1.5 1.5)">
    <line x1="1.265" x2="11.998" y1="4.42" y2="4.42"/>
    <path d="M2.82663568,1.26277928 L1.1313545,1.26277928 C0.471148207,1.30043795 -0.0340789182,1.86525307 0.00179843121,2.52555856 L0.00179843121,10.1022342 C-0.0340789182,10.7625397 0.471148207,11.3273548 1.1313545,11.3650135 L10.8686455,11.3650135 C11.5288518,11.3273548 12.0340789,10.7625397 11.9982016,10.1022342 L11.9982016,2.52555856 C12.0340789,1.86525307 11.5288518,1.30043795 10.8686455,1.26277928 L10.1040327,1.26277928"/>
    <line x1="8.841" x2="8.841" y2="2.526"/>
    <line x1="3.159" x2="3.159" y2="2.526"/>
    <line x1="4.422" x2="8.816" y1="1.263" y2="1.254"/>
    <path d="M3.00089922 6.62959121C3.00089922 6.54241449 3.07156991 6.4717438 3.15874663 6.4717438 3.24592334 6.4717438 3.31659404 6.54241449 3.31659404 6.62959121M3.31659404 6.62959121C3.31659404 6.71676792 3.24592334 6.78743862 3.15874663 6.78743862 3.07156991 6.78743862 3.00089922 6.71676792 3.00089922 6.62959121M6.15784741 6.62959121C6.15784741 6.71676792 6.08717672 6.78743862 6 6.78743862 5.91282328 6.78743862 5.84215259 6.71676792 5.84215259 6.62959121M5.84215259 6.62959121C5.84215259 6.54241449 5.91282328 6.4717438 6 6.4717438 6.08717672 6.4717438 6.15784741 6.54241449 6.15784741 6.62959121M8.99910078 6.62959121C8.99910078 6.71676792 8.92843009 6.78743862 8.84125337 6.78743862 8.75407666 6.78743862 8.68340596 6.71676792 8.68340596 6.62959121M8.68340596 6.62959121C8.68340596 6.54241449 8.75407666 6.4717438 8.84125337 6.4717438 8.92843009 6.4717438 8.99910078 6.54241449 8.99910078 6.62959121M3.31659404 9.15514976C3.31659404 9.24232648 3.24592334 9.31299717 3.15874663 9.31299717 3.07156991 9.31299717 3.00089922 9.24232648 3.00089922 9.15514976M3.00089922 9.15514976C3.00089922 9.06797305 3.07156991 8.99730235 3.15874663 8.99730235 3.24592334 8.99730235 3.31659404 9.06797305 3.31659404 9.15514976M6.15784741 9.15514976C6.15784741 9.24232648 6.08717672 9.31299717 6 9.31299717 5.91282328 9.31299717 5.84215259 9.24232648 5.84215259 9.15514976M5.84215259 9.15514976C5.84215259 9.06797305 5.91282328 8.99730235 6 8.99730235 6.08717672 8.99730235 6.15784741 9.06797305 6.15784741 9.15514976M8.99910078 9.15514976C8.99910078 9.24232648 8.92843009 9.31299717 8.84125337 9.31299717 8.75407666 9.31299717 8.68340596 9.24232648 8.68340596 9.15514976M8.68340596 9.15514976C8.68340596 9.06797305 8.75407666 8.99730235 8.84125337 8.99730235 8.92843009 8.99730235 8.99910078 9.06797305 8.99910078 9.15514976"/>
  </g>
</svg>
