<?xml version="1.0" encoding="UTF-8"?>
<svg width="24px" height="26px" viewBox="0 0 24 26" version="1.1" xmlns="http://www.w3.org/2000/svg" xmlns:xlink="http://www.w3.org/1999/xlink">
    <title>icons/cart</title>
    <g id="Page-1" stroke="none" stroke-width="1" fill="none" fill-rule="evenodd">
        <g id="ui-style-guide-menu-&amp;-builder" transform="translate(-116.000000, -323.000000)">
            <g id="icons/cart" transform="translate(117.000000, 323.818182)">
                <path d="M16.4285714,17.9849624 L7.36458202,17.9849624 C6.88762081,17.9849624 6.42878845,17.5613854 6.34202899,17.048233 L4.85958111,3.94483506 C4.683904,2.91233627 3.76494436,2.07518797 2.81533835,2.07518797 L0.657142857,2.07518797 M9.8359641,5.53383459 C12.5879964,5.53383459 15.1312042,5.53383459 18.3767599,5.53383459 C18.8666494,5.53383459 19.1564933,5.93132433 19.0257968,6.41582219 L17.5178974,12.64268 C17.2542817,13.6190028 16.2416064,14.4107767 15.2613828,14.4107767 L6.57142857,14.5263158" id="Cart" stroke="#FFFFFF" stroke-linecap="round" stroke-linejoin="round"></path>
                <path d="M6.9,23.518797 C7.80726786,23.518797 8.54285714,22.7444925 8.54285714,21.7894737 C8.54285714,20.8344549 7.80726786,20.0601504 6.9,20.0601504 C5.99273214,20.0601504 5.25714286,20.8344549 5.25714286,21.7894737 C5.25714286,22.7444925 5.99273214,23.518797 6.9,23.518797 Z" id="Cart-path" fill="#FFFFFF"></path>
                <path d="M18.4,21.7894737 C18.4,20.8344549 17.6644107,20.0601504 16.7571429,20.0601504 C15.849875,20.0601504 15.1142857,20.8344549 15.1142857,21.7894737 C15.1142857,22.7444925 15.849875,23.518797 16.7571429,23.518797 C17.6644107,23.518797 18.4,22.7444925 18.4,21.7894737 Z" id="Cart-path" fill="#FFFFFF"></path>
            </g>
        </g>
    </g>
</svg>