<?xml version="1.0" encoding="UTF-8"?>
<svg width="19px" height="19px" viewBox="0 0 19 19" version="1.1" xmlns="http://www.w3.org/2000/svg" xmlns:xlink="http://www.w3.org/1999/xlink">
    <title>icons/chart</title>
    <g id="Page-1" stroke="none" stroke-width="1" fill="none" fill-rule="evenodd">
        <g id="יש-לך-עוד-קופון?" transform="translate(-27.000000, -34.000000)" fill-rule="nonzero">
            <g id="header/pizza-lover-" transform="translate(0.000000, 20.000000)">
                <g id="Group" transform="translate(9.500000, 14.500000)">
                    <g id="icons/chart" transform="translate(18.000000, 0.000000)">
                        <path d="M5.46014286,7.4 C5.99334629,7.4 6.42742857,7.83408228 6.42742857,8.36728571 C6.42742857,8.90048915 5.99334629,9.33457143 5.46014286,9.33457143 C4.92693942,9.33457143 4.49285714,8.90048915 4.49285714,8.36728571 C4.49285714,7.83408228 4.92693942,7.4 5.46014286,7.4 Z M9.40328571,7.4 C9.93648915,7.4 10.3705714,7.83408228 10.3705714,8.36728571 C10.3705714,8.90048915 9.93648915,9.33457143 9.40328571,9.33457143 C8.87008228,9.33457143 8.436,8.90048915 8.436,8.36728571 C8.436,7.83408228 8.87008228,7.4 9.40328571,7.4 Z M13.3464286,7.4 C13.879632,7.4 14.3137143,7.83408228 14.3137143,8.36728571 C14.3137143,8.90048915 13.879632,9.33457143 13.3464286,9.33457143 C12.8132251,9.33457143 12.3791429,8.90048915 12.3791429,8.36728571 C12.3791429,7.83408228 12.8132251,7.4 13.3464286,7.4 Z" id="Combined-Shape" fill="#FFFFFF"></path>
                        <path d="M13.8180401,2.51104447 C12.4877414,1.59749856 10.8405865,1.05714286 9.05712643,1.05714286 C4.63884269,1.05714286 1.05714286,4.37352418 1.05714286,8.46456235 C1.05714286,10.7956815 2.22046451,12.8749686 4.03850972,14.2328051 L4.03850972,17.0571429 L6.76244089,15.5621779 C7.48938965,15.7633497 8.25952901,15.8719492 9.05715928,15.8719492 C13.475443,15.8719492 17.0571429,12.5555679 17.0571429,8.46452971 C17.0571429,7.36234216 16.7971646,6.31638507 16.330891,5.3763615" id="Path" stroke="#FFFFFF" stroke-width="1.25" stroke-linecap="round" stroke-linejoin="round"></path>
                    </g>
                </g>
            </g>
        </g>
    </g>
</svg>