<?xml version="1.0" encoding="UTF-8"?>
<svg width="108px" height="107px" viewBox="0 0 108 107" version="1.1" xmlns="http://www.w3.org/2000/svg" xmlns:xlink="http://www.w3.org/1999/xlink">
    <title>icons/illustrated/cheesy pizza copy 2</title>
    <g id="Page-1" stroke="none" stroke-width="1" fill="none" fill-rule="evenodd">
        <g id="פופאפ_החלפת-נייד" transform="translate(-134.000000, -338.000000)">
            <g id="icons/illustrated/cheesy-pizza-copy-2" transform="translate(134.000000, 338.000000)">
                <path d="M58.9,21 C38.5542625,21 22,35.6889462 22,53.7424769 C22,62.3060358 25.699225,70.4025473 32.427325,76.5356163 L29.1509125,89.156649 C28.8368755,90.3677944 29.2891025,91.6482619 30.2943235,92.3941833 C31.2995445,93.1401048 32.6569992,93.2025067 33.7265125,92.5519603 L46.6691875,84.6459549 C50.6295985,85.8739815 54.7532969,86.495566 58.9,86.4895628 C79.2457375,86.4895628 95.8,71.8006166 95.8,53.7486223 C95.8,49.4674147 94.8689092,45.374929 93.1769705,41.6224462 C91.7306001,38.4145995 89.7282131,35.4552218 87.2761636,32.8388215 C85.9587903,31.4331501 84.5116256,30.1264763 82.9511622,28.9334558 C81.1462762,27.5535671 79.1898188,26.3257242 77.10731,25.2726047 C71.7317792,22.5542123 65.5163695,21 58.9,21 Z" id="Path-Copy-2" fill="#F5002E" fill-rule="nonzero"></path>
                <path d="M52.9,16 C32.5542625,16 16,30.6889462 16,48.7424769 C16,57.3060358 19.699225,65.4025473 26.427325,71.5356163 L23.1509125,84.156649 C22.8368755,85.3677944 23.2891025,86.6482619 24.2943235,87.3941833 C25.2995445,88.1401048 26.6569992,88.2025067 27.7265125,87.5519603 L40.6691875,79.6459549 C44.6295985,80.8739815 48.7532969,81.495566 52.9,81.4895628 C73.2457375,81.4895628 89.8,66.8006166 89.8,48.7486223 C89.8,44.4674147 88.8689092,40.374929 87.1769705,36.6224462 C85.7306001,33.4145995 83.7282131,30.4552218 81.2761636,27.8388215 C79.9587903,26.4331501 78.5116256,25.1264763 76.9511622,23.9334558 C75.1462762,22.5535671 73.1898188,21.3257242 71.10731,20.2726047 C65.7317792,17.5542123 59.5163695,16 52.9,16 Z" id="Path-Copy-4" fill="#017AFF" fill-rule="nonzero"></path>
                <path d="M55.9,17.19 C62.6494297,17.19 68.9893928,18.776806 74.472844,21.5497735 C76.6004337,22.6256903 78.5991741,23.880216 80.4431252,25.2899713 C82.0393567,26.5103375 83.5196165,27.8470414 84.8671818,29.2849285 C87.3808125,31.9670375 89.4327267,35.0011855 90.9153821,38.2895074 C92.6537751,42.1450191 93.61,46.3499314 93.61,50.7486223 C93.61,60.0078783 89.3739181,68.4106264 82.517094,74.4946067 C75.6975877,80.5454753 66.2841103,84.2995628 55.9011726,84.299562 C51.7952814,84.305506 47.7115086,83.7080469 43.7808217,82.5269282 L43.7808217,82.5269282 L31.1474515,90.2439937 C30.4719123,90.6548999 29.7054387,90.8406609 28.9491122,90.8058927 C28.1927679,90.7711238 27.4465849,90.5158166 26.8116406,90.044658 C26.176541,89.5733841 25.7161592,88.9332311 25.4641298,88.2196172 C25.2120598,87.5058887 25.1684017,86.7186668 25.3668998,85.9531198 L25.3668998,85.9531198 L28.5214708,73.8014317 C21.8452718,67.5485868 18.19,59.3743379 18.19,50.7424769 C18.19,41.4825347 22.4260042,33.0794828 29.2827006,26.9953305 C36.102225,20.9441619 45.5157862,17.19 55.9,17.19 Z" id="Path" stroke="#2F383F" stroke-width="1.62" fill="#FFFFFF" fill-rule="nonzero"></path>
                <path d="M38,49 C39.442843,34.4391736 52.5669479,23 68.4913204,23 C72.1132427,23 75.5903034,23.5917636 78.8180085,24.6774265 C81.7827046,25.6746244 84.5370268,27.0885104 87,28.8432471" id="Shape" stroke="#EBEBEB" stroke-width="3.62" stroke-linecap="round" stroke-linejoin="round" fill-rule="nonzero" transform="translate(62.500000, 36.000000) scale(-1, 1) translate(-62.500000, -36.000000) "></path>
                <circle id="Oval-Copy-4" fill="#2F383F" cx="99.1176887" cy="10.474747" r="1"></circle>
                <path d="M97.5,18 C96.1192881,18 95,19.1192881 95,20.5 C95,21.8807119 96.1192881,23 97.5,23 C98.8807119,23 100,21.8807119 100,20.5 C100,19.1192881 98.8807119,18 97.5,18 Z M97.5,19 C98.3284271,19 99,19.6715729 99,20.5 C99,21.3284271 98.3284271,22 97.5,22 C96.6715729,22 96,21.3284271 96,20.5 C96,19.6715729 96.6715729,19 97.5,19 Z" id="Oval" fill="#4D4D4D" fill-rule="nonzero"></path>
                <path d="M15.5,71 C16.3284271,71 17,71.6715729 17,72.5 C17,73.3284271 16.3284271,74 15.5,74 C14.6715729,74 14,73.3284271 14,72.5 C14,71.6715729 14.6715729,71 15.5,71 Z" id="Path" fill="#4D4D4D" fill-rule="nonzero"></path>
                <path d="M11.9047247,80.2466168 C12.0583445,80.3877751 12.0753367,80.614871 11.9520398,80.7749207 L11.9182908,80.8134478 L10.1156887,82.628747 L11.9115865,84.4243475 C12.074305,84.587066 12.074305,84.8508847 11.9115865,85.0136032 C11.7613849,85.1638048 11.5250386,85.1753588 11.3615839,85.0482651 L11.3223309,85.0136032 L9.5286887,83.219747 L7.75162531,85.0116139 C7.59269621,85.1717445 7.32894747,85.1775887 7.162526,85.0246672 C7.00890619,84.8835089 6.991914,84.656413 7.11521085,84.4963633 L7.14895986,84.4578363 L8.9506887,82.641747 L7.15566418,80.8469365 C6.99294573,80.684218 6.99294573,80.4203993 7.15566418,80.2576809 C7.30586583,80.1074792 7.54221211,80.0959252 7.70566678,80.2230189 L7.74491983,80.2576809 L9.5376887,82.050747 L11.3156254,80.2596701 C11.4745545,80.0995395 11.7383032,80.0936953 11.9047247,80.2466168 Z" id="Combined-Shape-Copy" fill="#2F383F"></path>
                <path d="M86.940858,9.12232769 L86.9958123,9.17085438 L89.5056887,11.680747 L91.9948,9.17363938 C92.2173008,8.94945651 92.586549,8.94127466 92.8195391,9.15536472 C93.0346068,9.35298631 93.0583959,9.67092062 92.8857803,9.89499013 L92.8385317,9.94892805 L90.3146887,12.490747 L92.8291456,15.0041877 C93.0569515,15.2319935 93.0569515,15.6013398 92.8291456,15.8291456 C92.6188633,16.0394279 92.2879785,16.0556035 92.059142,15.8776723 L92.0041877,15.8291456 L89.4936887,13.318747 L87.0052,15.8263606 C86.7826992,16.0505435 86.413451,16.0587253 86.1804609,15.8446353 C85.9653932,15.6470137 85.9416041,15.3290794 86.1142197,15.1050099 L86.1614683,15.0510719 L88.6836887,12.508747 L86.1708544,9.99581229 C85.9430485,9.76800645 85.9430485,9.39866021 86.1708544,9.17085438 C86.3811367,8.96057207 86.7120215,8.9443965 86.940858,9.12232769 Z" id="Combined-Shape" fill="#2F383F"></path>
                <path d="M46,51 C47.6568542,51 49,52.3431458 49,54 C49,55.6568542 47.6568542,57 46,57 C44.3431458,57 43,55.6568542 43,54 C43,52.3431458 44.3431458,51 46,51 Z M56,51 C57.6568542,51 59,52.3431458 59,54 C59,55.6568542 57.6568542,57 56,57 C54.3431458,57 53,55.6568542 53,54 C53,52.3431458 54.3431458,51 56,51 Z M66,51 C67.6568542,51 69,52.3431458 69,54 C69,55.6568542 67.6568542,57 66,57 C64.3431458,57 63,55.6568542 63,54 C63,52.3431458 64.3431458,51 66,51 Z" id="Combined-Shape" fill="#31383E" fill-rule="nonzero"></path>
            </g>
        </g>
    </g>
</svg>