<?xml version="1.0" encoding="UTF-8"?><svg version="1.1" width="22px" height="21px" viewBox="0 0 22.0 21.0" xmlns="http://www.w3.org/2000/svg" xmlns:xlink="http://www.w3.org/1999/xlink"><defs><clipPath id="i0"><path d="M375,0 L375,667 L0,667 L0,0 L375,0 Z"></path></clipPath><clipPath id="i1"><path d="M8.87334049,0.171137741 C9.01272994,0.306371636 9.08929947,0.512590352 9.05101564,0.751004246 C9.02998663,0.88196316 8.97319985,1.02424791 8.86818244,1.16603714 L8.78018125,1.27210144 L3.73834917,7.07082927 C3.46385526,7.34317947 3.26393991,7.46039314 3.07321356,7.4664073 C2.91873733,7.47127838 2.75666289,7.40799396 2.55520668,7.23801085 L2.45104961,7.1439493 L0.276387668,5.29501517 C0.101377358,5.12053421 0.0217170441,4.93520069 0.00394462603,4.76660328 C-0.0188257662,4.55059278 0.0585851886,4.35595722 0.194795404,4.22066136 C0.329655404,4.08670666 0.523552982,4.00953147 0.740727435,4.03138557 C0.86535943,4.0439272 0.999326193,4.08956439 1.13244913,4.18127092 L1.23197407,4.25889152 L3.07292392,5.76592186 L7.73959871,0.335544547 C7.93373051,0.143256728 8.1276284,0.0469073749 8.29824745,0.0139698742 C8.53590715,-0.0319096238 8.73715526,0.0390125335 8.87334049,0.171137741 Z"></path></clipPath></defs><g transform="translate(-203.0 -596.0)"><g clip-path="url(#i0)"><g transform="translate(44.29955947136477 134.0)"><g transform="translate(103.69999999999891 0.0)"><g transform="translate(10.25022026431725 459.5)"><g transform="translate(44.99955947136368 3.0)"><path d="M10.22216,0.88856 C15.3763,0.88856 19.55522,5.06714 19.55522,10.222 C19.55522,15.37658 15.3763,19.5553 10.22216,19.5553 C5.06734,19.5553 0.88866,15.37658 0.88866,10.222 C0.88866,5.06714 5.06734,0.88856 10.22216,0.88856 Z" stroke="#0179FF" stroke-width="1.33333333" fill="none" stroke-miterlimit="10"></path><g transform="translate(5.914023396799962 6.266666666666681)"><g clip-path="url(#i1)"><polygon points="1.12757026e-17,1.04083409e-17 9.0608421,1.04083409e-17 9.0608421,7.46666667 1.12757026e-17,7.46666667 1.12757026e-17,1.04083409e-17" stroke="none" fill="#0179FF"></polygon></g></g></g></g></g></g></g></g></svg>