<?xml version="1.0" encoding="UTF-8"?>
<svg width="18px" height="18px" viewBox="0 0 18 18" version="1.1" xmlns="http://www.w3.org/2000/svg" xmlns:xlink="http://www.w3.org/1999/xlink">
    <title>Group</title>
    <g id="Page-1" stroke="none" stroke-width="1" fill="none" fill-rule="evenodd">
        <g id="בילדר-_התוספות-הנבחרות-תמיד-בהתחלה" transform="translate(-197.000000, -464.000000)" stroke-width="0.5">
            <g id="Group-3-Copy" transform="translate(-52.000000, 94.000000)">
                <g id="Group-5" transform="translate(0.000000, 370.000000)">
                    <g id="Group" transform="translate(249.000000, 0.000000)">
                        <path d="M8.999982,0.771352 C11.2722772,0.771352 13.3294476,1.69237393 14.8185445,3.18146765 C16.3076425,4.67056247 17.228666,6.72772979 17.228666,9.000018 C17.228666,11.2722823 16.30764,13.3294382 14.8185391,14.8185265 C13.3294426,16.3076104 11.2722745,17.22863 8.999982,17.22863 C6.72772789,17.22863 4.67057332,16.3076052 3.18148302,14.8185149 C1.6923956,13.3294275 0.77137,11.2722764 0.77137,9.000018 C0.77137,6.72773569 1.69239316,4.67057322 3.18147764,3.18147925 C4.6705683,1.69237911 6.72772512,0.771352 8.999982,0.771352 Z" id="Ellipse-2-copy-3" stroke="#ECECEC"></path>
                        <path d="M5.72642927,5.56627167 C5.82593178,5.52388405 5.97600374,5.50388444 6.12580443,5.64949838 C7.20148345,6.69544464 8.20025388,7.66457701 9.17879303,8.61222249 L9.17879303,8.61222249 L9.38686364,8.8040385 L9.38686364,8.8040385 L11.9524203,11.364557 L12.3695941,11.7806206 C12.455857,11.8664982 12.5005461,11.9587798 12.4999948,12.0574743 C12.5005461,12.1520919 12.4574496,12.2456071 12.3757632,12.3279852 C12.2254112,12.4792333 12.0128341,12.470887 11.8459961,12.3070845 C10.8962112,11.3739357 9.94635639,10.4405944 8.99733285,9.50673689 C8.99574025,9.50517962 8.99413889,9.50375357 8.99254629,9.50214381 L8.99254629,9.50214381 C8.54849082,9.95806663 8.10928314,10.408364 7.66999672,10.8587926 C7.17937956,11.3617049 6.6887624,11.864556 6.19813649,12.3676607 C6.08000404,12.4889357 5.94884203,12.5272551 5.8086757,12.4809831 C5.69719367,12.4443521 5.61363466,12.3593144 5.57954251,12.2480655 C5.56921686,12.2146016 5.56443906,12.1804378 5.56360776,12.1467202 C5.56305647,12.068279 5.58861683,11.9912026 5.63892375,11.9258408 C5.65777244,11.9012482 5.678555,11.8799537 5.69740369,11.8613802 L5.69740369,11.8613802 L5.71257714,11.8461749 C6.63478025,10.9004104 7.55720211,9.95489959 8.48010526,9.01009745 C8.48252916,9.00757782 8.48488306,9.00511942 8.48730696,9.00266103 C8.48626565,9.00175116 8.48543434,9.00064882 8.48467305,8.99980894 L8.48467305,8.99980894 L6.89232647,7.43515893 C6.47535395,7.02530695 6.05845143,6.61539372 5.64127765,6.20567296 C5.57559601,6.14088858 5.5,6.04996298 5.5,5.9111468 C5.50028002,5.75770274 5.58675297,5.6255531 5.72642927,5.56627167 Z M12.0527453,5.5 C12.1977595,5.50123357 12.3116042,5.57138093 12.3736106,5.69752019 C12.436107,5.82519923 12.4225962,5.95909862 12.3358519,6.07390827 C12.3206785,6.09429282 12.3033524,6.11124787 12.2890102,6.12652316 L12.2890102,6.12652316 L11.7691487,6.65881369 C11.2758276,7.1643156 10.7820953,7.66988749 10.2890455,8.17629052 C10.1823413,8.28630586 10.0618549,8.3272062 9.93118293,8.29815165 C9.81969216,8.27336648 9.72712883,8.19492532 9.68375234,8.08788455 C9.66622499,8.04575939 9.65770195,8.00110585 9.65687065,7.95664478 C9.65638937,7.88739854 9.67578934,7.81847601 9.71409925,7.75900211 C9.73461055,7.72741917 9.75879707,7.70120796 9.77770701,7.68172453 L9.77770701,7.68172453 L10.5997951,6.83950131 C10.9930711,6.43664831 11.3859971,6.03384781 11.7784418,5.63092482 C11.8332465,5.57494166 11.920752,5.50051618 12.0511527,5.5 L12.0511527,5.5 Z" id="Combined-shape-196" stroke="#FFFFFF" fill="#FFFFFF"></path>
                    </g>
                </g>
            </g>
        </g>
    </g>
</svg>