<?xml version="1.0" encoding="UTF-8"?>
<svg width="265px" height="184px" viewBox="0 0 265 184" version="1.1" xmlns="http://www.w3.org/2000/svg" xmlns:xlink="http://www.w3.org/1999/xlink">
    <title>confetti_upsales</title>
    <g id="Page-1" stroke="none" stroke-width="1" fill="none" fill-rule="evenodd" stroke-linecap="round" stroke-linejoin="round">
        <g id="אפסיילים-בודד-נוסף-לסל" transform="translate(-59.000000, -449.000000)" fill-rule="nonzero" stroke="#000000" stroke-width="0.6">
            <g id="confetti_upsales" transform="translate(60.000000, 450.000000)">
                <path d="M225.668302,30.9351849 C226.18505,31.6655091 226.091634,32.574408 225.432717,33.2273302 C222.857496,35.8503529 219.096471,37.5573809 214.961957,37.9797267 C213.922971,38.0974971 212.899682,37.6947584 212.381875,36.9642768 L210.332569,34.0701309 C209.93681,33.5117173 209.891752,32.8369527 210.210891,32.2479595 C210.53003,31.6589663 211.176302,31.2241503 211.956119,31.0737586 C214.859918,30.5276372 217.506917,29.3260581 219.582829,27.6116877 C220.144714,27.1539567 220.942506,26.9339081 221.737437,27.0173988 C222.532369,27.1008895 223.232211,27.4782326 223.627511,28.0364957 L225.668302,30.9351849 Z" id="Path" fill="#C4C4C4"></path>
                <path d="M107.196503,15.9421141 C106.216572,16.1646475 105.207044,15.7335664 104.651498,14.8553648 C102.40388,11.3982242 101.53663,7.15025086 102.236589,3.02662568 C102.400557,1.98555948 103.153191,1.15614569 104.133824,0.935845421 L108.015025,0.0573183797 C108.763912,-0.11203437 109.544897,0.0986519919 110.124022,0.626263087 C110.703148,1.15387418 111.013149,1.93712836 110.96116,2.74138963 C110.751305,5.72682499 111.360921,8.71285442 112.717457,11.344109 C113.073878,12.0540333 113.094148,12.8985692 112.772237,13.6265249 C112.450326,14.3544807 111.823318,14.8819984 111.077704,15.0521776 L107.196503,15.9421141 Z" id="Path" fill="#F5002E"></path>
                <path d="M27.1080076,48.5190353 C26.3572051,47.8790233 25.3386147,47.8263665 24.5398552,48.3862728 C21.3402423,50.5597611 19.0204989,54.0770929 18.0814088,58.1789503 C17.8334424,59.2075374 18.1635218,60.3039838 18.9137744,60.9438736 L21.8854211,63.4807919 C22.459286,63.970078 23.2019117,64.1243641 23.890817,63.8974283 C24.5797222,63.6704924 25.1348847,63.0886951 25.3899847,62.3263353 C26.3244539,59.4883096 27.9556721,57.0150514 30.0898051,55.2004524 C30.6629258,54.7097059 31,53.941217 31,53.1253168 C31,52.3094167 30.6629258,51.5409277 30.0898051,51.0501812 L27.1080076,48.5190353 Z" id="Path" fill="#D1D1D1"></path>
                <path d="M146.038007,166.558895 C146.825575,165.896162 147.911781,165.815633 148.777286,166.355809 C152.242287,168.450248 154.798432,171.918178 155.893988,176.011064 C156.185607,177.035348 155.863083,178.146268 155.080341,178.813641 L151.958647,181.442145 C151.356563,181.948115 150.567426,182.122566 149.827171,181.913343 C149.086915,181.704119 148.481326,181.135466 148.19146,180.377397 C147.128252,177.552787 145.331713,175.112568 143.013951,173.344844 C142.39233,172.865701 142.017094,172.102141 142.000569,171.282734 C141.984044,170.463327 142.328148,169.683167 142.929874,169.175793 L146.038007,166.558895 Z" id="Path" fill="#FFFFFF"></path>
                <path d="M55.9884377,146.58469 C56.0891384,147.650442 55.5251525,148.669128 54.5663721,149.153264 C50.7824039,151.125641 46.3710852,151.536509 42.2854247,150.297105 C41.2528341,149.999765 40.5077975,149.103994 40.4067858,148.038381 L40.0112829,143.816306 C39.935166,143.002072 40.2472556,142.199472 40.8541925,141.648598 C41.4611294,141.097724 42.2925331,140.862456 43.0996954,141.013172 C46.096514,141.589666 49.1964157,141.30028 52.0334085,140.179182 C52.7986826,139.881014 53.6601595,139.958059 54.3598303,140.387241 C55.0595011,140.816423 55.5161213,141.547906 55.5929348,142.362615 L55.9884377,146.58469 Z" id="Path" fill="#017AFF"></path>
                <path d="M262.988572,65.5779218 C263.088735,66.643793 262.523592,67.6621425 261.56385,68.1451726 C257.78351,70.121187 253.373855,70.5370564 249.28798,69.3028956 C248.254656,69.0053209 247.509532,68.1085994 247.409674,67.0424414 L247.011333,62.8196468 C246.934996,62.0052258 247.247395,61.2024075 247.854948,60.6516797 C248.462501,60.1009519 249.294645,59.8662785 250.102107,60.0179571 C253.097309,60.5966921 256.196454,60.3073809 259.031334,59.1843966 C259.799005,58.8804935 260.665763,58.9552931 261.36944,59.3861706 C262.073117,59.8170481 262.531065,60.5533971 262.604769,61.372493 L262.988572,65.5779218 Z" id="Path" fill="#F5002E"></path>
                <path d="M261.166065,161.473146 C261.263724,162.519638 260.712709,163.519472 259.776961,163.99372 C256.091129,165.933807 251.791715,166.342115 247.807988,165.130393 C246.800496,164.838229 246.074,163.957812 245.976639,162.911038 L245.588256,158.765022 C245.513828,157.965409 245.818417,157.177187 246.410781,156.636472 C247.003146,156.095758 247.814486,155.865351 248.601761,156.014272 C251.522083,156.582485 254.543749,156.298434 257.307758,155.195867 C258.056236,154.89749 258.901326,154.970929 259.587411,155.393973 C260.273496,155.817016 260.719996,156.539977 260.791857,157.34418 L261.166065,161.473146 Z" id="Path-Copy" fill="#F5002E" transform="translate(253.377207, 160.414823) rotate(29.000000) translate(-253.377207, -160.414823) "></path>
                <path d="M0.844330677,112.600559 C0.0926616617,111.899231 -0.190400462,110.766662 0.130592245,109.744796 C1.35178704,105.665513 3.9926382,102.275943 7.48183077,100.309378 C8.35381528,99.8010019 9.42141664,99.9273609 10.1737207,100.627984 L13.1543137,103.401904 C13.7293127,103.937529 14.0408712,104.737344 13.9956831,105.561819 C13.950495,106.386293 13.5538071,107.139697 12.9244205,107.596397 C10.5797389,109.280511 8.72463012,111.662952 7.57806516,114.462505 C7.2651379,115.211426 6.64957909,115.756941 5.91470651,115.936591 C5.17983393,116.116242 4.41042548,115.909302 3.83561646,115.377401 L0.844330677,112.600559 Z" id="Path" fill="#F5002E"></path>
                <path d="M246.536942,99.4293034 C246.201386,100.315524 245.294502,100.927764 244.25057,100.972839 C240.108116,101.202937 236.030955,99.9640018 232.900671,97.523922 C232.103092,96.9196705 231.799334,95.9401902 232.134779,95.0542643 L233.465905,91.5446175 C233.722773,90.8678425 234.319629,90.3383105 235.077827,90.1145149 C235.836026,89.8907193 236.667591,89.9986282 237.323628,90.4059434 C239.751589,91.9306106 242.616021,92.8015891 245.57887,92.9160873 C246.376311,92.9504956 247.109439,93.318136 247.558809,93.9089633 C248.008179,94.4997906 248.121644,95.2452435 247.865242,95.922187 L246.536942,99.4293034 Z" id="Path" fill="#017AFF"></path>
            </g>
        </g>
    </g>
</svg>