<?xml version="1.0" encoding="UTF-8"?>
<svg width="192px" height="195px" viewBox="0 0 192 195" version="1.1" xmlns="http://www.w3.org/2000/svg" xmlns:xlink="http://www.w3.org/1999/xlink">
    <title>confetti</title>
    <g id="Page-1" stroke="none" stroke-width="1" fill="none" fill-rule="evenodd" stroke-linecap="round" stroke-linejoin="round">
        <g id="בילדר-אפסייל-הוספנו-לסל" transform="translate(-92.000000, -232.000000)" fill-rule="nonzero" stroke="#000000" stroke-width="0.5">
            <g id="confetti" transform="translate(92.500000, 233.000000)">
                <path d="M160.240861,3.21969673 C160.64457,3.81723474 160.571589,4.56087927 160.05681,5.09508836 C158.044919,7.24119783 155.106618,8.63785711 151.876529,8.98341274 C151.064821,9.07977036 150.265376,8.75025685 149.86084,8.15259008 L148.25982,5.78465258 C147.950633,5.32776872 147.915431,4.77568855 148.164758,4.29378502 C148.414086,3.81188149 148.918986,3.45612297 149.528218,3.33307521 C151.796811,2.88624864 153.864779,1.90313845 155.486585,0.500471791 C155.925558,0.125964588 156.548833,-0.0540751715 157.169873,0.0142353791 C157.790913,0.0825459297 158.337665,0.391281189 158.646493,0.848041896 L160.240861,3.21969673 Z" id="Path" fill="#C4C4C4"></path>
                <path d="M78.0154799,12.4547767 C77.25826,12.6286308 76.4781704,12.2918487 76.048885,11.6057537 C74.3120892,8.90486265 73.6419417,5.58613348 74.1828188,2.36455132 C74.3095213,1.55121835 74.8911023,0.903238822 75.6488641,0.731129235 L78.6479737,0.0447799841 C79.2266596,-0.0875268514 79.8301477,0.0770718687 80.2776536,0.489268037 C80.7251594,0.901464205 80.9647057,1.51338153 80.9245325,2.14171065 C80.7623722,4.47408202 81.2334392,6.80691752 82.2816715,8.86258513 C82.5570879,9.4172135 82.5727507,10.0770071 82.3240014,10.6457226 C82.075252,11.2144381 81.5907456,11.6265613 81.0145895,11.7595138 L78.0154799,12.4547767 Z" id="Path" fill="#F5002E"></path>
                <path d="M22.3564677,43.4054963 C21.7500503,42.9054869 20.9273427,42.8643488 20.2821908,43.3017756 C17.697888,44.9998134 15.8242491,47.7477288 15.0657533,50.9523049 C14.8654727,51.7558886 15.1320753,52.6124873 15.7380486,53.1124013 L18.1382247,55.0943686 C18.601731,55.4766234 19.201544,55.5971595 19.7579675,55.4198658 C20.314391,55.2425722 20.7627915,54.7880431 20.9688338,54.1924495 C21.7235974,51.9752419 23.0411198,50.0430089 24.7648426,48.6253535 C25.2277477,48.2419578 25.5,47.6415758 25.5,47.0041538 C25.5,46.3667318 25.2277477,45.7663498 24.7648426,45.3829541 L22.3564677,43.4054963 Z" id="Path" fill="#D1D1D1"></path>
                <path d="M134.528505,180.936636 C135.119181,180.418877 135.933836,180.355963 136.582965,180.777976 C139.181715,182.414256 141.098824,185.123577 141.920491,188.321144 C142.139205,189.121365 141.897312,189.989272 141.310256,190.510657 L138.968986,192.564175 C138.517422,192.959465 137.92557,193.095755 137.370378,192.932299 C136.815187,192.768843 136.360995,192.324583 136.143595,191.732342 C135.346189,189.525615 133.998785,187.619194 132.260463,186.23816 C131.794248,185.863829 131.512821,185.267298 131.500427,184.627136 C131.488033,183.986974 131.746111,183.377474 132.197406,182.981089 L134.528505,180.936636 Z" id="Path" fill="#F5002E"></path>
                <path d="M54.490967,181.08817 C54.5696394,181.911705 54.1290254,182.698872 53.3799782,183.072977 C50.423753,184.597086 46.9774103,184.914575 43.7854881,183.956854 C42.9787767,183.727091 42.3967168,183.034904 42.3178014,182.211477 L42.0088148,178.948964 C41.9493485,178.319783 42.1931685,177.699592 42.6673379,177.273917 C43.1415074,176.848242 43.7910415,176.666443 44.4216371,176.782906 C46.7629016,177.228378 49.1846998,177.004762 51.4011004,176.138459 C51.9989707,175.908057 52.6719996,175.967591 53.2186174,176.299231 C53.7652352,176.630872 54.1219697,177.196109 54.1819803,177.825657 L54.490967,181.08817 Z" id="Path" fill="#017AFF"></path>
                <path d="M190.991072,39.5829396 C191.069324,40.4065673 190.627806,41.1934737 189.878008,41.5667243 C186.924617,43.0936445 183.479574,43.4149981 180.287485,42.4613284 C179.4802,42.2313844 178.898072,41.5384632 178.820057,40.7146138 L178.508854,37.4515452 C178.449216,36.8222199 178.693277,36.2018603 179.167928,35.7762979 C179.642579,35.3507355 180.292691,35.1693971 180.923521,35.2866032 C183.263522,35.7338075 185.684729,35.5102489 187.89948,34.6424882 C188.499222,34.4076541 189.176377,34.4654538 189.726125,34.7984046 C190.275873,35.1313554 190.633645,35.7003523 190.691226,36.3332901 L190.991072,39.5829396 Z" id="Path" fill="#F5002E"></path>
                <path d="M0.633248007,104.844187 C0.0694962462,104.296274 -0.142800346,103.411455 0.0979441841,102.613122 C1.01384028,99.4261818 2.99447865,96.7780806 5.61137308,95.2417017 C6.26536146,94.8445328 7.06606248,94.9432507 7.63029049,95.4906127 L9.8657353,97.6577372 C10.2969845,98.0761942 10.5306534,98.7010498 10.4967623,99.3451708 C10.4628712,99.9892918 10.1653553,100.577888 9.69331534,100.934685 C7.93480419,102.250399 6.54347259,104.111681 5.68354887,106.298832 C5.44885343,106.883927 4.98718432,107.31011 4.43602988,107.450462 C3.88487545,107.590814 3.30781911,107.429142 2.87671235,107.013595 L0.633248007,104.844187 Z" id="Path" fill="#F5002E"></path>
                <path d="M178.356986,73.2148846 C178.094833,73.9399743 177.38633,74.440898 176.570758,74.4777777 C173.334466,74.6660395 170.149184,73.6523651 167.70365,71.6559361 C167.08054,71.1615486 166.84323,70.3601556 167.105296,69.6353071 L168.145239,66.763778 C168.345917,66.210053 168.81221,65.7767995 169.404553,65.593694 C169.996895,65.4105886 170.646555,65.4988776 171.159084,65.8321355 C173.055929,67.0795905 175.293767,67.7922092 177.608492,67.8858896 C178.231493,67.9140419 178.804249,68.2148385 179.15532,68.6982427 C179.50639,69.1816469 179.595035,69.7915628 179.39472,70.3454257 L178.356986,73.2148846 Z" id="Path" fill="#017AFF"></path>
            </g>
        </g>
    </g>
</svg>