<?xml version="1.0" encoding="UTF-8"?>
<svg width="29px" height="29px" viewBox="0 0 29 29" version="1.1" xmlns="http://www.w3.org/2000/svg" xmlns:xlink="http://www.w3.org/1999/xlink">
    <title>icons/header/arrow</title>
    <g id="Page-1" stroke="none" stroke-width="1" fill="none" fill-rule="evenodd">
        <g id="בילדר-1--מסך-מקדים-אחרי-בחירה" transform="translate(-65.000000, -629.000000)" fill="#FFFFFF">
            <g id="Group-6" transform="translate(47.000000, 610.000000)">
                <g id="icons/header/arrow" transform="translate(18.000000, 19.000000)">
                    <path d="M19.8487565,4.84173035 L19.94251,4.92775067 L28.2282243,13.3380743 C28.6661738,13.7826102 28.702899,14.476631 28.3319821,14.9630042 L28.2523616,15.0573747 L19.9666474,23.9539986 C19.498834,24.456304 18.7123973,24.4842654 18.2100918,24.016452 C17.7391805,23.577877 17.6851731,22.8592619 18.065728,22.3572613 L18.1476384,22.2598965 L25.6219143,14.2340286 L18.1717757,6.67224933 C17.7201538,6.21383548 17.6970893,5.49356301 18.0988732,5.00838633 L18.1848935,4.91463286 C18.6433074,4.46301098 19.3635799,4.43994646 19.8487565,4.84173035 Z M20.3,13.2571429 C20.986411,13.2571429 21.5428571,13.813589 21.5428571,14.5 C21.5428571,15.1460339 21.0499499,15.6769432 20.4196954,15.7371677 L20.3,15.7428571 L1.65714286,15.7428571 C0.970731811,15.7428571 0.414285714,15.186411 0.414285714,14.5 C0.414285714,13.8539661 0.907192983,13.3230568 1.53744742,13.2628323 L1.65714286,13.2571429 L20.3,13.2571429 Z" id="Combined-Shape" transform="translate(14.500000, 14.453476) scale(-1, 1) translate(-14.500000, -14.453476) "></path>
                </g>
            </g>
        </g>
    </g>
</svg>