<svg xmlns="http://www.w3.org/2000/svg" xmlns:xlink="http://www.w3.org/1999/xlink" viewBox="0 0 108 110">
  <defs>
    <path id="icons_illustrated_cheesy_pizza_copy-a" d="M26.6487212,58.2676216 C27.1225223,57.3327515 27.3698409,56.3027034 27.3713092,55.2581417 L27.3713092,24.226582 C27.3713869,24.0013286 27.3139793,23.7796583 27.2043476,23.5818858 L19.1600823,9.07823865 L19.1600823,1.34592122 C19.1600823,0.602589457 18.5473671,0 17.7915445,0 L9.5803177,0 C8.82449514,0 8.21177989,0.602589457 8.21177989,1.34592122 L8.21177989,9.07823865 C6.49060746,12.1814777 5.19972814,14.5089069 4.33914192,16.0605264 C3.74883471,17.1248383 2.97058146,18.5280132 2.00438215,20.2700509 C1.63695803,20.9325092 1.02466887,22.0364541 0.167514676,23.5818858 C0.057882915,23.7796583 0.000475359751,24.0013286 0.000553064078,24.226582 L0.000553064078,55.2581417 C0.00202130214,56.3027034 0.24933992,57.3327515 0.723141025,58.2676216 L2.73762867,62.2300137 L2.73762867,62.9406601 L0.723141025,66.9030522 C0.24933992,67.8379222 0.00202130214,68.8679704 0.000553064078,69.912532 L0.000553064078,75.1616248 C-0.039775319,78.0112983 2.12996891,80.423797 5.01076997,80.7323927 C6.74251201,80.8796113 8.44126322,80.2026342 9.5803177,78.9113613 C10.6127596,80.0789503 12.1076254,80.7511324 13.6809606,80.7553155 C15.2542958,80.7593849 16.7527856,80.0950531 17.7915445,78.9328961 C18.8319621,80.0900387 20.3265458,80.7534464 21.8971579,80.7553155 C22.0586454,80.7553155 22.2201329,80.7485438 22.3829889,80.7337387 C25.2525584,80.4132438 27.408731,78.0070569 27.3713092,75.1670085 L27.3713092,69.9179157 C27.3698409,68.8733541 27.1225223,67.8433059 26.6487212,66.9084359 L24.6342336,62.9406601 L24.6342336,62.2300137 L26.6487212,58.2676216 Z"/>
  </defs>
  <g fill="none" fill-rule="evenodd" transform="translate(1 1)">
    <path fill="#FFF" d="M14.1134225,99.7263246 L1.41675926,76.3401965 L1.41675926,76.3401965 L43.4579327,76.3401965 C46.2684417,71.1780284 49.7280814,68.5969444 53.8368519,68.5969444 C57.9456223,68.5969444 61.8891578,70.9582099 65.6674584,75.6807407 L106.256944,76.3401965 L93.5061111,100.474028 L15.3701527,100.474028 C14.8458478,100.474028 14.3635844,100.187101 14.1134225,99.7263246 Z" transform="matrix(1 0 0 -1 0 169.071)"/>
    <path fill="#2F383F" fill-rule="nonzero" d="M2.62716014,88.7068378 C2.98111442,88.8819075 3.12612899,89.3107663 2.95105924,89.6647205 L1.461,92.675 L41.7531547,92.6752315 C42.1151314,92.6752315 42.4142828,92.9442182 42.4616276,93.2932102 L42.4681547,93.3902315 C42.4681547,93.7522081 42.199168,94.0513595 41.850176,94.0987044 L41.7531547,94.1052315 L0.310701206,94.1052315 C-0.219467999,94.1052315 -0.5652377,93.5484573 -0.330189723,93.0732397 L1.66927738,89.0307369 C1.84434713,88.6767826 2.27320585,88.531768 2.62716014,88.7068378 Z M93.5061111,67.8819444 C93.7405215,67.8819444 93.9577231,67.996603 94.0904413,68.1848685 L94.1419519,68.2699406 L106.892785,93.0632277 C107.122205,93.5093226 106.832898,94.0348132 106.354951,94.098757 L106.256944,94.1052315 L65.6674584,94.1052315 C65.2725748,94.1052315 64.9524584,93.7851151 64.9524584,93.3902315 C64.9524584,93.0282549 65.2214451,92.7291034 65.5704372,92.6817586 L65.6674584,92.6752315 L105.085,92.675 L93.07,69.311 L48.6050958,69.3119444 C48.2431192,69.3119444 47.9439678,69.0429577 47.8966229,68.6939657 L47.8900958,68.5969444 C47.8900958,68.2349678 48.1590825,67.9358164 48.5080746,67.8884716 L48.6050958,67.8819444 L93.5061111,67.8819444 Z M40.6631973,67.8819444 C41.0580809,67.8819444 41.3781973,68.2020608 41.3781973,68.5969444 C41.3781973,68.9589211 41.1092106,69.2580725 40.7602185,69.3054173 L40.6631973,69.3119444 L13.017,69.311 L4.85736361,85.8105733 C4.68229386,86.1645276 4.25343514,86.3095421 3.89948085,86.1344724 C3.54552657,85.9594026 3.400512,85.5305439 3.57558175,85.1765896 L11.9328475,68.2799526 C12.0383385,68.066672 12.241702,67.9219074 12.4730699,67.8890488 L12.5737384,67.8819444 L40.6631973,67.8819444 Z"/>
    <ellipse cx="31" cy="82.5" fill="#D1D1D1" rx="13" ry="2.5"/>
    <g transform="translate(46.058 77.551)">
      <path fill="#F5002E" d="M17.2727563,3.02036921 C17.2300576,2.96836562 17.1737536,2.93678449 17.1164576,2.90667714 C15.548834,2.08007268 13.9822025,1.25201548 12.4129187,0.428611241 C12.1254465,0.277653446 11.8243892,0.276811282 11.5368967,0.429453405 C9.8666059,1.31646204 8.19831944,2.20747095 6.52944584,3.09721662 C6.513654,3.1058488 6.49826708,3.11530208 6.47559162,3.12858721 C6.49282092,3.13827209 6.50170889,3.14330402 6.51063735,3.14795697 C8.34672224,4.11602384 10.1830298,5.08385911 12.0185478,6.05318922 C12.0533506,6.07152733 12.0782734,6.0687903 12.1108491,6.05131541 C12.9067376,5.62600182 13.7032133,5.20178304 14.499284,4.77733267 C15.3779379,4.30866872 16.2564299,3.84000477 17.1349017,3.3717619 C17.1863264,3.34439159 17.2357062,3.31449479 17.2733637,3.2681758 C17.3373612,3.18922298 17.336936,3.09869041 17.2727563,3.02036921"/>
      <path fill="#017AFF" d="M11.3269381,6.35932405 C9.5137109,5.40348961 7.70048369,4.44761306 5.8876614,3.49093645 C5.85648264,3.47430372 5.83360471,3.47638808 5.80424809,3.49262078 C5.69127569,3.55494087 5.57688608,3.61452393 5.46290138,3.6751597 C3.90558297,4.50551179 2.3480621,5.33590599 0.790541225,6.16625808 C0.739318973,6.19341785 0.6887041,6.22141979 0.64881958,6.26542283 C0.571277595,6.35048133 0.571884973,6.45196203 0.649426958,6.53683105 C0.690931154,6.58230787 0.742963244,6.61113092 0.795602712,6.63892231 C2.3640564,7.46594786 3.93170025,8.29484722 5.50177361,9.11848305 C5.78906363,9.26920925 6.09052581,9.26859869 6.37822075,9.11595656 C7.85030372,8.33482892 9.32015963,7.54932204 10.7908051,6.76524683 C11.0032054,6.65197584 11.2155854,6.53828378 11.4382908,6.41934925 C11.3947418,6.39595816 11.3611538,6.37724108 11.3269381,6.35932405"/>
      <path fill="#FFF" d="M12.0195298 3.86312005C11.6971738 3.85735123 11.3776927 3.80886367 11.0782551 3.66083239 10.9541069 3.59945973 10.8403449 3.52202281 10.7521131 3.4096782 10.6126185 3.23196067 10.6118492 3.03175736 10.7520929 2.8541872 10.8702887 2.70455582 11.0293004 2.61697082 11.1995688 2.55111364 11.5321288 2.42243107 11.8771603 2.39042885 12.2287514 2.41893609 12.4840528 2.43963225 12.7310332 2.49603615 12.9629708 2.61252841 13.0805592 2.67158512 13.1892597 2.74447436 13.2748191 2.84921844 13.4321706 3.04182122 13.4276153 3.25838354 13.2615783 3.44460693 13.139394 3.58162692 12.9842088 3.6642221 12.818192 3.72719487 12.5621212 3.82433843 12.295968 3.85907767 12.0195298 3.86312005M7.92061385 7.14719522C7.59068586 7.14411299 7.27017224 7.09269892 6.9694794 6.94313069 6.8547861 6.88607412 6.74912249 6.81455339 6.66479811 6.71355694 6.50086666 6.51724864 6.50517905 6.2949175 6.6778365 6.10623078 6.80773451 5.96424202 6.97061317 5.87646754 7.14734006 5.81890567 7.70624974 5.63691415 8.26111022 5.6451463 8.80769011 5.87345681 8.93495615 5.92659732 9.0506415 6.00186568 9.14755886 6.10513597 9.33311299 6.30291805 9.33424676 6.54651382 9.1478828 6.74345374 8.996929 6.9030016 8.80586798 6.98841803 8.60383365 7.05065391 8.38106747 7.11926917 8.15271341 7.14775535 7.92061385 7.14719522M3.8931722 5.6640655C4.21722887 5.67040278 4.54175119 5.71950091 4.84511649 5.87298519 4.95185313 5.92698892 5.05010673 5.99434095 5.13125249 6.08567357 5.30528667 6.28151868 5.30370749 6.5171139 5.12665666 6.71003249 5.00003849 6.84797886 4.84197837 6.9339848 4.67023198 6.99036764 4.10458041 7.17602257 3.54322097 7.16819045 2.98985869 6.93560596 2.87992318 6.88939224 2.78023213 6.82391404 2.69187881 6.74081356 2.46593401 6.52829362 2.46496221 6.25195874 2.69023889 6.03884928 2.85157885 5.88622821 3.04757989 5.80479101 3.25421005 5.74676595 3.46037455 5.68886721 3.67115512 5.66718151 3.8931722 5.6640655"/>
    </g>
    <g transform="translate(16.676 1.162)">
      <g transform="translate(.2)">
        <mask id="icons_illustrated_cheesy_pizza_copy-b" fill="#fff">
          <use xlink:href="#icons_illustrated_cheesy_pizza_copy-a"/>
        </mask>
        <path stroke="#2F383F" stroke-width="1.43" d="M17.7915445,-0.715 C18.365517,-0.715 18.8846347,-0.485315363 19.2605984,-0.115564905 C19.6409104,0.258462012 19.8750823,0.775468952 19.8750823,1.34592122 L19.8750823,8.89323129 L27.8296944,23.2352356 C27.9983166,23.5394251 28.0864286,23.8804027 28.0863092,24.226582 L28.0863085,55.2591467 C28.084683,56.4155273 27.8110206,57.5558832 27.2860803,58.5916562 L25.3492336,62.4013326 L27.28649,66.5852085 C27.8110206,67.6201742 28.084683,68.7605302 28.0863092,69.9179157 L28.0862471,75.1575881 C28.1073974,76.7627415 27.5093795,78.2456769 26.4997587,79.3723661 C25.4937701,80.4950019 24.0788047,81.263783 22.4623519,81.4443205 C20.4151047,81.4676306 18.9135233,80.9081182 17.7928171,79.9357405 C16.6667818,80.9216352 15.2043286,81.474258 13.6790597,81.4703129 C12.1570588,81.4662664 10.7005794,80.9083417 9.5805995,79.9206322 C8.32625007,81.0287559 6.65267112,81.5895528 4.95020496,81.444823 C3.31172012,81.2694786 1.88967058,80.5022104 0.878617834,79.3780395 C-0.135004076,78.2510119 -0.735872982,76.7654393 -0.714446935,75.1567191 L-0.71444623,69.911527 C-0.712820819,68.7551465 -0.439158345,67.6147905 0.0857819428,66.5790176 L2.02262867,62.7693412 L0.0853721946,58.5908489 C-0.439158345,57.5558832 -0.712820819,56.4155273 -0.714446936,55.2581417 L-0.714446893,24.2268287 C-0.714566398,23.8804027 -0.626454354,23.5394251 -0.457751338,23.2350898 L1.37911614,19.923255 L3.71387591,15.7137305 L7.49677989,8.89323129 L7.49677989,1.34592122 C7.49677989,0.775468952 7.73095185,0.258462012 8.11126384,-0.115564905 C8.48722751,-0.485315363 9.00634522,-0.715 9.5803177,-0.715 Z"/>
        <path fill="#F5002E" d="M-1.35839581,23.8377828 C4.39675056,24.1484089 9.1690048,24.4282258 12.9583669,24.6772335 C16.747729,24.9262412 21.7616067,24.4165648 28,23.1482044 L29.1242866,55.8377828 C22.4555981,55.8377828 17.3539953,55.8377828 13.819478,55.8377828 C10.2849608,55.8377828 5.05323028,55.5357815 -1.87571338,54.9317789 L-1.35839581,23.8377828 Z" mask="url(#icons_illustrated_cheesy_pizza_copy-b)"/>
        <rect width="11.901" height="9" x="9.736" fill="#017AFF" mask="url(#icons_illustrated_cheesy_pizza_copy-b)" rx="1.43"/>
        <polygon fill="#D1D1D1" fill-rule="nonzero" points="17.156 8.838 24.396 23.733 27.372 23.986 19.213 9.179"/>
        <path fill="#D1D1D1" fill-rule="nonzero" d="M27.3712674,55.0072182 C27.3716151,56.746455 26.379921,59.3249071 24.3961853,62.7425744 C26.3795734,66.1683568 27.3712674,68.5245834 27.3712674,69.8112541 L27.3712674,75.1120014 C27.398056,77.0008184 26.3906765,78.6996036 24.8087139,79.7318685 C24.9354522,79.1739891 24.9986926,78.5930824 24.9910076,77.9978594 L24.9910076,71.0105157 C24.9890925,69.6200448 24.666503,68.2488935 24.0485016,67.0044387 L21.420909,61.7227236 L21.420909,60.7767448 L24.0485016,55.5021962 C24.1293147,55.3394648 24.2050763,55.174567 24.2757301,55.0077428 Z"/>
      </g>
      <line x1="7.935" x2="19.836" y1="8.778" y2="8.778" stroke="#2F383F" stroke-linecap="square" stroke-width="1.43"/>
      <path stroke="#2F383F" stroke-linecap="round" stroke-linejoin="round" stroke-width="1.43" d="M.556810156 23.1482044C5.04549469 23.9284486 9.6074595 24.3185707 14.2427046 24.3185707 18.8779497 24.3185707 23.4399145 23.9284486 27.928599 23.1482044M.556810156 54.7480957C5.04549469 55.5283399 9.6074595 55.918462 14.2427046 55.918462 18.8779497 55.918462 23.4399145 55.5283399 27.928599 54.7480957"/>
    </g>
    <path stroke="#2F383F" stroke-linecap="round" stroke-linejoin="round" stroke-width="1.43" d="M19.6485986 72.287495C22.9955017 73.2320011 26.3970449 73.7042542 29.8532282 73.7042542 33.3094115 73.7042542 36.7109547 73.2320011 40.0578578 72.287495M23.6485986 65.287495C26.6301853 65.7241794 28.8650618 65.9425217 30.3532281 65.9425217 31.8413943 65.9425217 34.0762708 65.7241794 37.0578576 65.287495"/>
    <path fill="#FFF" stroke="#2F383F" stroke-linecap="round" stroke-linejoin="round" stroke-width="1.43" d="M63.2276627,74.5118704 C61.090048,72.6977836 59.8529804,70.2595586 59.8529804,67.0591077 C59.8529804,58.035441 69.6871376,50.7118855 81.8127489,50.7118855 C93.9383603,50.7118855 103.772517,58.035441 103.772517,67.0591077 C103.772517,73.3052887 99.0605728,76.6481788 92.1383047,78.114294 C91.2372551,78.3051335 90.2987552,78.4641741 89.3283221,78.5936796 C86.9836096,78.9065846 84.4524784,79.0470706 81.8127489,79.0470706 C77.652347,79.0470706 73.7617032,78.6981032 70.4454819,77.8751522 C68.8336684,77.4751658 67.357553,76.9632082 66.0521172,76.3249253" transform="rotate(11 81.813 64.88)"/>
    <path fill="#D1D1D1" d="M79.848528,73.1202767 C87.2856491,74.1102946 99.9407502,70.5355193 99.9407502,64.3620351 C99.9407502,58.1885509 90.7519774,52.0325243 82.1589258,52.0325243 C77.3537478,52.0325243 72.8269242,52.1782571 69.3600851,55.3051862 C66.6272105,57.770113 63.1050095,58.7558029 63.1050095,63.6492853 C63.1050095,70.5006597 72.4114069,72.1302588 79.848528,73.1202767 Z" transform="rotate(11 81.523 62.658)"/>
    <path stroke="#2F383F" stroke-linejoin="round" stroke-width="1.43" d="M74.9551898,50.6498265 C72.7203508,53.1616519 70.0626948,55.8988281 68.722141,59.0514072 C68.4567443,59.7621288 68.5673896,60.5697135 69.0123979,61.1699518 C69.4574062,61.7701901 70.1691701,62.0718917 70.8795751,61.9614084 C71.5899801,61.8509251 72.1910987,61.345042 72.4564954,60.6343204 C74.5841022,56.1796086 77.6153856,52.2850855 81.3306065,49.2330672" transform="rotate(11 74.955 55.608)"/>
    <path stroke="#2F383F" stroke-linejoin="round" stroke-width="1.43" d="M86.0679639,51.0993502 C82.8099269,54.6187764 80.1320542,58.8565793 78.176526,63.5877552 C77.9304987,64.3380915 78.0330688,65.1906899 78.4455991,65.8243848 C78.8581293,66.4580797 79.5179466,66.7765977 80.1765041,66.6599562 C80.8350616,66.5433147 81.3923088,66.0092344 81.638336,65.258898 C83.0342271,61.058458 87.8547045,54.893296 90.7953819,52.1381687" transform="rotate(11 84.42 58.892)"/>
    <path stroke="#2F383F" stroke-linejoin="round" stroke-width="1.43" d="M95.8980253,56.095512 C94.359341,58.1820598 93.0899373,60.530785 92.131688,63.0642103 C91.8934748,63.7788395 91.9927871,64.5908644 92.3922151,65.1944029 C92.791643,65.7979414 93.4305039,66.1013018 94.0681451,65.990211 C94.7057863,65.8791203 95.2453348,65.3704558 95.483548,64.6558266 C96.3716969,62.2779546 97.5902481,60.0963866 99.0876986,58.2033282" transform="rotate(11 95.546 61.054)"/>
    <polyline stroke="#31383E" stroke-linecap="round" stroke-linejoin="round" stroke-width="1.4" points="95.411 82.845 98 88 84.181 88.21"/>
    <circle cx="79.403" cy="28.76" r="1.286" fill="#2F383F" transform="matrix(-1 0 0 1 158.807 0)"/>
    <path fill="#2F383F" d="M83.7679788,10.1997546 C84.0444945,10.4538395 84.0750804,10.8626122 83.8531461,11.1507016 L83.7923979,11.2200504 L80.549,14.488 L83.7803301,17.7196699 C84.0732233,18.0125631 84.0732233,18.4874369 83.7803301,18.7803301 C83.5099671,19.0506931 83.0845438,19.0714902 82.7903254,18.8427215 L82.7196699,18.7803301 L79.492,15.553 L76.2923999,18.7767494 C76.0063276,19.0649845 75.5315798,19.075504 75.2320212,18.8002454 C74.9555055,18.5461605 74.9249196,18.1373878 75.1468539,17.8492984 L75.2076021,17.7799496 L78.45,14.511 L75.2196699,11.2803301 C74.9267767,10.9874369 74.9267767,10.5125631 75.2196699,10.2196699 C75.4900329,9.94930694 75.9154562,9.92850979 76.2096746,10.1572785 L76.2803301,10.2196699 L79.507,13.446 L82.7076001,10.2232506 C82.9936724,9.93501551 83.4684202,9.924496 83.7679788,10.1997546 Z" transform="matrix(-1 0 0 1 159 0)"/>
    <path fill="#31383E" fill-rule="nonzero" d="M66.1806604,18.4357866 C64.4054594,18.4357866 62.9663747,19.8748713 62.9663747,21.6500723 C62.9663747,23.4252733 64.4054594,24.864358 66.1806604,24.864358 C67.9558614,24.864358 69.3949461,23.4252733 69.3949461,21.6500723 C69.3949461,19.8748713 67.9558614,18.4357866 66.1806604,18.4357866 Z M66.1806604,19.7215008 C67.245781,19.7215008 68.1092318,20.5849517 68.1092318,21.6500723 C68.1092318,22.7151929 67.245781,23.5786437 66.1806604,23.5786437 C65.1155398,23.5786437 64.2520889,22.7151929 64.2520889,21.6500723 C64.2520889,20.5849517 65.1155398,19.7215008 66.1806604,19.7215008 Z" transform="matrix(-1 0 0 1 132.664 0)"/>
    <path fill="#017AFF" d="M2.97222222,105.763738 L2.97222222,92.3994907 L2.97222222,92.3994907 L106.009259,92.3994907 L106.009259,106.944408 L65.612892,106.944408 C56.7648458,97.5484526 49.2596226,97.0424318 43.0972222,105.426346 L4.4675244,107.192246 C3.67858111,107.228312 3.00977944,106.617984 2.97371404,105.82904 C2.97271962,105.807287 2.97222222,105.785514 2.97222222,105.763738 Z" transform="matrix(1 0 0 -1 0 199.66)"/>
    <path stroke="#2F383F" stroke-linecap="round" stroke-linejoin="round" stroke-width="1.43" d="M0.310701206,93.3902315 C-0.103567069,102.835293 -0.103567069,107.557824 0.310701206,107.557824 L105.130772,107.557824 C105.752174,107.557824 106.256944,106.856634 106.256944,105.993427 L106.256944,93.3902315 L65.6674584,93.3902315 C61.7457738,98.1127623 57.7650948,100.474028 53.7254213,100.474028 C49.6857479,100.474028 46.1672455,98.1127623 43.169914,93.3902315 L0.310701206,93.3902315 Z"/>
  </g>
</svg>
