<?xml version="1.0" encoding="UTF-8"?>
<svg width="43px" height="22px" viewBox="0 0 43 22" version="1.1" xmlns="http://www.w3.org/2000/svg" xmlns:xlink="http://www.w3.org/1999/xlink">
    <title>Group 28</title>
    <g id="תפריט-אוכל" stroke="none" stroke-width="1" fill="none" fill-rule="evenodd">
        <g id="תפריט-ארוחות-אייקון-קופון" transform="translate(-104.000000, -42.000000)">
            <g id="Group-28" transform="translate(104.000000, 42.000000)">
                <path d="M37.2517059,13.556863 C38.7922601,12.6602254 39.67891,11.1583574 39.67891,9.32025032 L39.67891,6.88812081 L34.4476757,6.88812081 L34.4476757,7.96408594 L38.3156858,7.96408594 L38.3156858,9.49957784 C38.3156858,10.8669502 37.617449,11.8756675 36.6199679,12.5817696 L37.2517059,13.556863 Z M34.5363407,15.7312092 L35.8552324,15.7312092 L35.8552324,10.9678219 C35.8552324,10.4186314 35.8773986,10.0375604 35.9660636,9.76856913 L34.8245019,9.76856913 C34.6139226,10.0599764 34.5363407,10.4634633 34.5363407,10.7997024 L34.5363407,15.7312092 Z" id="Shape-Copy" fill="#FFFFFF" fill-rule="nonzero"></path>
                <polygon id="Path-Copy-7" fill="#FFFFFF" fill-rule="nonzero" points="31.4884818 13.4784072 32.8517059 13.4784072 32.8517059 6.88812081 30.8124112 6.88812081 30.8124112 7.96408594 31.4884818 7.96408594"></polygon>
                <path d="M24.6723609,13.4784072 L27.3655598,13.4784072 C28.7398672,13.4784072 29.7484314,12.4808979 29.7484314,11.2143973 L29.7484314,9.16333874 C29.7484314,7.90804609 28.9615296,7.06744833 27.6869704,6.93295269 L25.8028394,6.73120923 C25.0159377,7.40368743 24.3731165,8.30032504 24.3731165,9.2530025 C24.3731165,10.5082952 25.2376002,11.1583574 26.390245,11.2256052 L26.6008243,10.183264 C26.0577513,10.0823923 25.669842,9.80219304 25.6587588,9.19696265 C25.6476757,8.71501994 25.9358369,8.25549316 26.3237462,7.86321421 L27.4209755,7.99770985 C28.0305473,8.08737361 28.3741241,8.5020685 28.3741241,9.21937859 L28.3741241,11.0462777 C28.3741241,11.7187559 27.8975498,12.4024421 27.0663155,12.4024421 L24.6723609,12.4024421 L24.6723609,13.4784072 Z" id="Path-Copy-9" fill="#FFFFFF" fill-rule="nonzero"></path>
                <polygon id="Path-Copy-10" fill="#FFFFFF" fill-rule="nonzero" points="21.6466682 13.4784072 23.0098923 13.4784072 23.0098923 6.88812081 20.9705976 6.88812081 20.9705976 7.96408594 21.6466682 7.96408594"></polygon>
                <polygon id="Path-Copy-11" fill="#FFFFFF" fill-rule="nonzero" points="18.3771468 15.7312092 19.7292878 15.7312092 19.7292878 6.88812081 17.67891 6.88812081 17.67891 7.96408594 18.3771468 7.96408594"></polygon>
                <path d="M18.693,0.7 L41,0.701464171 C41.3589851,0.701464171 41.6839851,0.846971627 41.9192388,1.08222536 C42.1544925,1.31747908 42.3,1.64247908 42.3,2.00146417 L42.3,20.0014642 C42.3,20.3604493 42.1544925,20.6854493 41.9192388,20.920703 C41.6839851,21.1559567 41.3589851,21.3014642 40.9999824,21.3014642 L18.693,21.302 L18.6927207,21.2674703 C18.639604,20.4163186 18.298716,19.6431615 17.7662043,19.0441469 L17.6162951,18.8851691 C16.9467268,18.2156008 16.0217268,17.8014642 15,17.8014642 C13.9782732,17.8014642 13.0532732,18.2156008 12.3837049,18.8851691 C11.7141366,19.5547374 11.3,20.4797374 11.3,21.5014642 L11.306,21.302 L2,21.3014642 C1.6922985,21.3014642 1.40956563,21.1945607 1.18691631,21.0158688 L1.08076118,20.920703 C0.845507456,20.6854493 0.7,20.3604493 0.7,20.0014642 L0.7,2.00146417 C0.7,1.64247908 0.845507456,1.31747908 1.08076118,1.08222536 C1.31601491,0.846971627 1.64101491,0.701464171 2.0000404,0.701464169 L11.306,0.7 L11.3072793,0.735457995 C11.360396,1.58660978 11.701284,2.35976679 12.2337957,2.95878145 L12.3837049,3.11775926 C13.0532732,3.78732756 13.9782732,4.20146417 15,4.20146417 C16.0217268,4.20146417 16.9467268,3.78732756 17.6162951,3.11775926 C18.2858634,2.44819096 18.7,1.52319096 18.7,0.501464171 L18.693,0.7 Z" id="Combined-Shape" stroke="#FFFFFF" stroke-width="1.4"></path>
                <line x1="8.46826172" y1="3.9799798" x2="8.46826172" y2="19.4785156" id="Line-5" stroke="#FFFFFF" stroke-width="1.4" stroke-linecap="round" stroke-linejoin="round" stroke-dasharray="2"></line>
            </g>
        </g>
    </g>
</svg>