<svg xmlns="http://www.w3.org/2000/svg" viewBox="0 0 142 137">
  <g fill="none" fill-rule="evenodd" transform="translate(26 22)">
    <g transform="rotate(5 223.054 -162.157)">
      <g stroke-linecap="round" stroke-linejoin="round" stroke-width="1.75" transform="rotate(-4 120.474 4.739)">
        <path fill="#E2E2E2" fill-rule="nonzero" stroke="#2F383F" stroke-dasharray="2.94 2.94" d="M25.6475553,25.4286697 C25.5636367,24.6457773 25.7957832,23.8609795 26.2928861,23.2470546 C26.7899891,22.6331298 27.5112938,22.2404101 28.2980005,22.1553553 L99.4956895,14.4323629 C100.282343,14.3468147 101.070101,14.5759035 101.685532,15.0691938 C102.300963,15.5624841 102.693612,16.2795339 102.777035,17.0624801 L108.654057,72.0168847 C108.80883,73.4799766 107.744435,74.7947443 106.27468,74.9559517 L34.4616041,82.7442136 C32.9916477,82.900492 31.6757471,81.8413809 31.5222703,80.3784718 L25.6475553,25.4286697 Z" transform="rotate(-8 67.15 48.587)"/>
        <g transform="rotate(-30 88.198 23.992)">
          <path fill="#FFF" fill-rule="nonzero" stroke="#383940" stroke-dasharray="3.5 3.5" d="M7.77502173,29.5313863 L0.0981072295,53.9206966 C-0.276131897,55.1108711 0.453093624,56.3591127 1.72734582,56.7095231 L74.1097735,77.6489687 C74.7221841,77.8174794 75.381204,77.7518444 75.9417779,77.4665103 C76.3154938,77.2762876 76.70114,76.8299796 77.0987164,76.1275863 L84.4966409,53.0407248"/>
          <path fill="#017AFF" fill-rule="nonzero" stroke="#383940" stroke-dasharray="2.8 2.8" d="M7.9720998,32.6741865 C6.97717889,32.3894056 6.39935901,31.3444646 6.68150297,30.3402454 C6.6851015,30.3274373 9.59575035,21.0923086 15.4134495,2.63485913 C16.0271773,0.687796983 18.0627279,-0.414588147 20.0094004,0.145848137 L91.4675512,20.7182559 C93.4565322,21.2908726 94.6090204,23.3825268 94.0417058,25.3900964 C94.0299365,25.4317447 94.0174589,25.4731857 94.0042786,25.5144011 L84.6920634,54.6340972"/>
          <g stroke="#2F383F" transform="translate(9.667 39.8)">
            <line x1="7.557" x2="1.144" y1=".579" y2="11.706" transform="rotate(-13 4.35 6.143)"/>
            <line x1="15.588" x2="9.176" y1="3.018" y2="14.145" transform="rotate(-13 12.382 8.581)"/>
            <line x1="23.579" x2="17.166" y1="5.591" y2="16.719" transform="rotate(-13 20.372 11.155)"/>
            <line x1="47.642" x2="41.23" y1="13.006" y2="24.134" transform="rotate(-13 44.436 18.57)"/>
            <line x1="55.632" x2="49.22" y1="15.58" y2="26.707" transform="rotate(-13 52.426 21.143)"/>
            <line x1="63.664" x2="57.251" y1="18.018" y2="29.146" transform="rotate(-13 60.457 23.582)"/>
            <line x1="31.498" x2="25.086" y1="8.397" y2="19.525" transform="rotate(-13 28.292 13.961)"/>
            <line x1="39.57" x2="33.158" y1="10.702" y2="21.829" transform="rotate(-13 36.364 16.266)"/>
          </g>
        </g>
      </g>
      <g transform="rotate(-15 179.89 -165.864)">
        <path fill="#FFF" d="M15.4879209,0.390785114 C15.2383004,0.138839664 14.9053204,0 14.5523402,0 C14.1990547,0 13.8663801,0.138839664 13.6169122,0.390785114 L0.387026264,13.7442022 C-0.129008755,14.2655058 -0.129008755,15.1127205 0.387026264,15.6334078 L6.30799375,21.609369 C6.55746157,21.8611603 6.8896782,22 7.24342173,22 C7.59655457,22 7.92892387,21.8611603 8.17884971,21.609369 L21.409499,8.25595192 C21.9252287,7.73541875 21.9252287,6.88804993 21.409499,6.36751676 L15.4879209,0.390785114 Z"/>
        <path fill="#F5002E" d="M21.0337955,6.82201847 L15.1151881,0.849351629 C14.8301378,0.56100749 14.3674653,0.56100749 14.0825676,0.849351629 L7.68358646,7.3070589 L14.6343565,14.323741 L21.0337955,7.86495552 C21.3186931,7.57738153 21.3186931,7.11051664 21.0337955,6.82201847 M15.8287292,8.54946479 C15.4937799,8.88740659 15.0539969,9.05529928 14.6161975,9.05529928 C14.1793138,9.05529928 13.7393781,8.88740659 13.4045814,8.54946479 C13.0700899,8.211523 12.9014708,7.76822469 12.9014708,7.32569653 C12.9014708,6.88301435 13.0700899,6.43894589 13.4045814,6.10254439 C13.7393781,5.76537275 14.1777878,5.59516961 14.6169605,5.59516961 C15.0539969,5.59516961 15.4937799,5.76367842 15.8287292,6.10254439 C16.1627629,6.43894589 16.332145,6.88363046 16.332145,7.32569653 C16.332145,7.76745454 16.1627629,8.211523 15.8287292,8.54946479"/>
        <path fill="#017AFF" d="M0.841295687,14.1332715 C0.555876835,14.4207497 0.555876835,14.8878632 0.841295687,15.1764198 L6.7604553,21.1510668 C6.90301209,21.295268 7.09013696,21.3669065 7.27726184,21.3669065 C7.46392882,21.3669065 7.65105369,21.295268 7.79361049,21.1510668 L14.1911138,14.6942083 L7.23834108,7.67625899 L0.841295687,14.1332715 Z M5.96738773,15.854135 C5.63175348,16.1899884 5.19233055,16.3591476 4.7542813,16.3591476 C4.31531626,16.3591476 3.87650386,16.1906046 3.54163275,15.854135 C3.20660902,15.516741 3.04024188,15.0735069 3.04024188,14.6307351 C3.04024188,14.1881173 3.20737217,13.7448833 3.54163275,13.4057946 C3.87650386,13.0687087 4.31531626,12.8998576 4.7542813,12.8998576 C5.19233055,12.8998576 5.63251663,13.0687087 5.96738773,13.4057946 C6.30195357,13.7448833 6.46862597,14.1881173 6.46832113,14.6299648 C6.46832113,15.0725826 6.30195357,15.5175113 5.96738773,15.854135 L5.96738773,15.854135 Z M8.5738571,13.4760465 C8.90888083,13.1378822 9.34815113,12.9693392 9.78620038,12.9693392 C10.2251654,12.9693392 10.6644357,13.1378822 10.9985437,13.4760465 C11.3346358,13.8142108 11.5020714,14.2560583 11.5020714,14.7002167 C11.5020714,15.1420642 11.3346358,15.5856063 10.9985437,15.9226922 C10.6644357,16.25947 10.2251654,16.4286292 9.78620038,16.4301698 C9.34815113,16.4301698 8.90888083,16.25947 8.57431499,15.9226922 C8.23929126,15.5856063 8.07185571,15.1420642 8.07185571,14.7002167 C8.07185571,14.2575989 8.23929126,13.8142108 8.5738571,13.4760465 L8.5738571,13.4760465 Z"/>
        <polyline fill="#FFF" points="9.952 21.367 9.952 20.724 9.722 20.724 9.722 20.576 10.349 20.576 10.349 20.724 10.122 20.724 10.122 21.367"/>
      </g>
    </g>
    <g transform="translate(50.886)">
      <path fill="#F5002E" d="M47.4084951,49.9994104 C52.7080413,54.1978492 56.1135514,60.728891 56.1135514,68.0642036 C56.1135514,80.7312942 45.9581133,91 33.4307455,91 C26.1335538,91 19.6411726,87.5157639 15.4919804,82.1028284 C19.3440333,85.1547328 24.1968002,86.9740692 29.4698088,86.9740692 C41.9971766,86.9740692 52.1526147,76.7053634 52.1526147,64.0382728 C52.1526147,58.8447657 50.4454856,54.054427 47.5676745,50.2096872 Z"/>
      <path fill="#FFF" d="M32.8514389,37.0611601 C42.8840603,37.0611601 51.8003492,41.7137116 57.0993077,48.5044876 C52.4191877,46.7742013 46.7587186,45.9741189 40.6616352,45.9741189 C24.5528639,45.9741189 11.4964131,51.5590174 11.4964131,65.1403323 C11.4964131,74.3482559 17.4990356,82.3741629 26.3851206,86.5882876 C13.4748208,84.0551772 3.85596851,74.2932018 3.85596851,62.6371138 C3.85596851,49.0557989 16.7426675,37.0611601 32.8514389,37.0611601 Z" transform="rotate(10 30.477 61.825)"/>
      <ellipse cx="30.354" cy="65" fill="#FFF" stroke="#31383E" stroke-width="1.4" rx="21.796" ry="22"/>
      <path fill="#D1D1D1" d="M36.4750513,46.9819477 C41.593006,54.517271 40.6079343,64.6886608 34.1305151,71.1905303 C27.6530959,77.6923998 17.5201027,78.6810423 10.013319,73.5435651 C14.2868911,79.8373195 21.9203937,82.9197624 29.3931231,81.3692176 C36.8658524,79.8186728 42.7260292,73.9363756 44.2708385,66.4353433 C45.8156477,58.934311 42.7449685,51.2718215 36.4750513,46.9819477 Z" opacity=".439" transform="rotate(147 27.34 64.374)"/>
      <path fill="#31383E" fill-rule="nonzero" d="M30.8496625 68C31.670419 68 32.3357736 67.5203051 32.3357736 66.9285714L32.3357736 54.0714286C32.3357736 53.4796949 31.670419 53 30.8496625 53 30.028906 53 29.3635514 53.4796949 29.3635514 54.0714286L29.3635514 66.9285714C29.3635514 67.5203051 30.028906 68 30.8496625 68zM30.8496625 72C29.481735 72 28.3728107 73.1192881 28.3728107 74.5 28.3728107 75.8807119 29.481735 77 30.8496625 77 32.21759 77 33.3265144 75.8807119 33.3265144 74.5 33.3265144 73.1192881 32.21759 72 30.8496625 72z"/>
      <ellipse cx="54.84" cy="1.286" fill="#2F383F" rx="1.274" ry="1.286"/>
      <path fill="#4D4D4D" fill-rule="nonzero" d="M53.1413292,12 C51.4998162,12 50.169107,13.3431458 50.169107,15 C50.169107,16.6568542 51.4998162,18 53.1413292,18 C54.7828422,18 56.1135514,16.6568542 56.1135514,15 C56.1135514,13.3431458 54.7828422,12 53.1413292,12 Z M53.1413292,13 C54.2356712,13 55.1228107,13.8954305 55.1228107,15 C55.1228107,16.1045695 54.2356712,17 53.1413292,17 C52.0469872,17 51.1598477,16.1045695 51.1598477,15 C51.1598477,13.8954305 52.0469872,13 53.1413292,13 Z"/>
      <path fill="#2F383F" d="M47.0436362,3.13316976 C47.2262731,3.30255969 47.2464749,3.57507482 47.0998886,3.7671344 L47.0597648,3.8133669 L44.9174403,5.992 L47.0517941,8.14644661 C47.2452483,8.34170876 47.2452483,8.65829124 47.0517941,8.85355339 C46.873221,9.03379537 46.5922316,9.04766014 46.3979021,8.89514769 L46.3512346,8.85355339 L44.2194403,6.701 L42.1060625,8.85116625 C41.9171134,9.04332299 41.6035455,9.050336 41.4056889,8.86683024 C41.223052,8.69744031 41.2028501,8.42492518 41.3494364,8.2328656 L41.3895602,8.1866331 L43.5314403,6.007 L41.3975309,3.85355339 C41.2040767,3.65829124 41.2040767,3.34170876 41.3975309,3.14644661 C41.576104,2.96620463 41.8570934,2.95233986 42.0514229,3.10485231 L42.0980904,3.14644661 L44.2294403,5.298 L46.3432626,3.14883375 C46.5322116,2.95667701 46.8457795,2.949664 47.0436362,3.13316976 Z"/>
    </g>
    <path fill="#EBEBEB" fill-rule="nonzero" d="M53.5,99 C73.1981561,99 89.1666667,100.790861 89.1666667,103 C89.1666667,105.209139 73.1981561,107 53.5,107 C33.8018439,107 17.8333333,105.209139 17.8333333,103 C17.8333333,100.790861 33.8018439,99 53.5,99 Z"/>
  </g>
</svg>
