<svg xmlns="http://www.w3.org/2000/svg" viewBox="0 0 31 33">
  <g fill="none" fill-rule="evenodd" transform="translate(.143 .63)">
    <g fill="#017AFF" transform="translate(7.962 .551)">
      <polygon points="9.752 20.591 14.324 26.306 17.752 23.449 13.181 18.306 10.324 17.734"/>
      <path d="M6.89505761,8.01995485 C6.82763756,4.42080487 6.44668518,2.13509059 5.75220047,1.16281199 C4.7104734,-0.295605899 2.27271233,-0.257903579 1.1807719,0.591383422 C0.0888314697,1.44067042 -0.533513816,3.44852628 0.609343327,5.16281199 C1.37124809,6.30566914 3.46648618,7.25805009 6.89505761,8.01995485 Z"/>
    </g>
    <path fill="#DEDCDC" d="M3.42857143,16.5714286 C4.72817814,20.8834133 6.25198767,24.1215085 8,26.2857143 C9.74801233,28.44992 12.2242028,30.1642057 15.4285714,31.4285714 L3.42857143,31.4285714 L3.42857143,16.5714286 Z" opacity=".334"/>
    <polygon fill="#F5002E" points="19.429 9.714 29.714 9.714 29.714 16 21.143 16"/>
    <path fill="#FFF" fill-rule="nonzero" d="M21.8143647,0.924119315 C23.5427405,2.27271941 24.0396435,4.63529958 22.8557322,6.21170938 C22.1380533,7.16729813 21.1260127,7.92739714 19.8967285,8.52149346 L29.2295301,8.5201507 C30.0888357,8.5201507 30.795943,9.20439394 30.8533767,10.0749878 L30.8571429,10.1895594 L30.8571429,15.278631 C30.8571429,16.1644881 30.18584,16.885642 29.3407094,16.9442002 L29.2295301,16.9480397 L28.6,16.948 L28.6005339,29.8343728 C28.6005339,30.9899703 27.7181672,31.9306173 26.6101011,31.9963324 L26.4860872,32 L4.37112517,32 C3.24724132,32 2.32473589,31.1006243 2.26027617,29.9618544 L2.25667839,29.8343728 L2.256,16.948 L1.62761278,16.9480397 C0.76830712,16.9480397 0.0611998767,16.2637965 0.0037661232,15.3932026 L0,15.278631 L0,10.1895594 C0,9.30370234 0.671302841,8.58254839 1.51643345,8.52399017 L1.62761278,8.5201507 L10.904,8.52 L10.7184489,8.42995778 C9.57249138,7.84991327 8.62585161,7.11890689 7.94451242,6.21170448 C6.76060478,4.63529958 7.25750777,2.27271941 8.98588364,0.924119315 C10.7088476,-0.420258051 13.0590658,-0.293416924 14.2376919,1.27584281 C14.7652184,1.97822637 15.1450348,2.86090625 15.4007513,3.88739267 C15.6552134,2.86090644 16.0350291,1.97822742 16.5625519,1.27584886 L16.6634487,1.14841072 C17.8712662,-0.299328454 20.1392608,-0.382914235 21.8143647,0.924119315 Z M14.932,9.737 L1.62761278,9.73715263 C1.39758194,9.73715263 1.21052047,9.906505 1.17841038,10.1232395 L1.17353787,10.1895594 L1.17353787,15.278631 C1.17353787,15.5036223 1.33968745,15.6934284 1.56000459,15.7260792 L1.62761278,15.7310378 L15.2087389,15.7310378 C15.5328025,15.7310378 15.7955079,16.0034729 15.7955079,16.3395387 C15.7955079,16.6497533 15.5716642,16.9057501 15.282342,16.9432986 L15.2087389,16.9480397 L3.43,16.948 L3.43021627,29.8343728 C3.43021627,30.3252106 3.80140083,30.7324232 4.28016129,30.7786321 L4.37112517,30.7829981 L26.4860872,30.7829981 C26.9772649,30.7829981 27.3773422,30.4046583 27.4227106,29.9253572 L27.4269961,29.8343728 L27.426,16.948 L19.3205688,16.9480397 C18.9965053,16.9480397 18.7337999,16.6756045 18.7337999,16.3395387 C18.7337999,16.0293242 18.9576435,15.7733274 19.2469658,15.7357789 L19.3205688,15.7310378 L29.2295301,15.7310378 C29.4595609,15.7310378 29.6466224,15.5616854 29.6787325,15.3449509 L29.683605,15.278631 L29.683605,10.1895594 C29.683605,9.96456812 29.5174554,9.77476201 29.2971383,9.74211124 L29.2295301,9.73715263 L16.241,9.737 L16.248492,9.92078706 L16.2691242,10.290789 C16.2817774,10.4853188 16.2980718,10.6937093 16.3186172,10.9140139 C16.4269266,12.0753983 16.626818,13.2279309 16.9388868,14.2979462 C17.376169,15.7972905 18.0000035,17.0138228 18.8253518,17.8567771 L21.3043532,18.0092082 C21.4714234,18.0195169 21.6262977,18.1033213 21.7300162,18.2395397 L26.142366,24.0344906 C26.3460942,24.3020566 26.2981243,24.6909726 26.0360134,24.8967459 L22.8374835,27.4077898 C22.5828256,27.607712 22.2207477,27.5596842 22.0228111,27.2997277 L17.6104612,21.5048476 C17.5033872,21.3642239 17.4615197,21.1818092 17.4960215,21.0062397 L17.9531391,18.6736808 C16.9946931,17.6740031 16.2970701,16.3011159 15.8156019,14.6502673 C15.4789396,13.4959264 15.2657622,12.2667889 15.1505294,11.0311672 C15.1359788,10.8751434 15.1234291,10.7245693 15.1126918,10.5800039 L15.0857291,10.1648927 L15.0685108,9.789188 L15.067,9.756 L14.9827753,9.74541951 L14.932,9.737 Z M19.0699904,19.090473 L18.6999808,20.9725307 L22.5871524,26.07678 L24.8500096,24.300673 L20.9718121,19.207162 L19.0699904,19.090473 Z M9.69144804,1.89659777 C8.4555107,2.86096278 8.11859049,4.46288715 8.87036991,5.4639017 C9.48231291,6.27870315 10.3897341,6.94704248 11.5184464,7.47508154 C12.3265555,7.85313461 13.1980512,8.13686559 14.0703025,8.33812033 C14.2230908,8.37337321 14.370307,8.40475713 14.5109856,8.43248798 L14.6139981,8.45172837 L14.6213828,8.31118211 C14.6624101,7.3027368 14.6233235,6.21871183 14.4612535,5.1780315 L14.3946287,4.79004043 C14.1795083,3.64710986 13.8220588,2.70299209 13.3118513,2.02366806 L13.2304924,1.92267251 C12.4432655,1.01074533 10.8900106,0.961395187 9.69144804,1.89659777 Z M17.4883925,2.02367411 C16.9781895,2.70299209 16.62074,3.64710986 16.4056196,4.79004043 C16.1939942,5.91440009 16.1359038,7.10839595 16.1752552,8.21642257 L16.186,8.451 L16.3959823,8.41100152 L16.7299458,8.33812033 C17.6021971,8.13686559 18.4736928,7.85313461 19.2818019,7.47508154 C20.4105142,6.94704248 21.3179354,6.27870315 21.9298747,5.46390659 C22.6816578,4.46288715 22.3447376,2.86096278 21.1088003,1.89659777 C19.8674319,0.927995094 18.2455836,1.01552615 17.4883925,2.02367411 Z"/>
  </g>
</svg>
