<?xml version="1.0" encoding="UTF-8"?>
<svg width="49px" height="23px" viewBox="0 0 49 23" version="1.1" xmlns="http://www.w3.org/2000/svg" xmlns:xlink="http://www.w3.org/1999/xlink">
    <title>eng</title>
    <g id="ui-kit" stroke="none" stroke-width="1" fill="none" fill-rule="evenodd">
        <g id="ui-style-guide-menu-&amp;-builder" transform="translate(-731.000000, -589.000000)">
            <g id="eng" transform="translate(732.000000, 590.000000)">
                <path d="M11.6135991,0 C11.6,1.33263797 12.0775098,2.27415453 12.8695723,2.95306524 C13.6195342,3.59588969 14.6538567,4.00026528 15.8,4.00026528 C16.9461433,4.00026528 17.9804658,3.59588969 18.7304277,2.95306524 C19.5224902,2.27415453 20,1.33263797 20,0.300265279 L45.3,0.000265278 C45.6589851,0.000265278 45.9839851,0.145772734 46.2192388,0.381026459 C46.4544925,0.616280189 46.6,0.941280189 46.6,1.30026528 L46.6,19.3002653 C46.6,19.6592503 46.4544925,19.9842503 46.2192388,20.2195041 C45.9839851,20.4547578 45.6589851,20.6002653 45.3,20.6002653 L19.9253022,20.6002653 C19.7621468,19.8461903 19.3391935,19.1692646 18.7304277,18.6474653 C17.9804658,18.0046409 16.9461433,17.6002653 15.8,17.6002653 C14.6538567,17.6002653 13.6195342,18.0046409 12.8695723,18.6474653 C12.2608065,19.1692646 11.8378532,19.8461903 11.6746978,20.6002653 L1.3,20.6002653 C0.94101491,20.6002653 0.61601491,20.4547578 0.38076118,20.2195041 C0.145507456,19.9842503 0,19.6592503 0,19.3002653 L0,1.30026528 C0,0.941280189 0.145507456,0.616280189 0.38076118,0.381026459 C0.61601491,0.145772734 0.94101491,0.000265278 1.300018,0.000265278 L11.6135991,0 Z" id="Combined-Shape" stroke="#FFFFFF" stroke-width="1.4"></path>
                <line x1="9.7682617" y1="3.28024507" x2="9.7682617" y2="18.7787809" id="Line-5" stroke="#FFFFFF" stroke-width="1.4" stroke-linecap="round" stroke-linejoin="round" stroke-dasharray="2"></line>
                <path d="M17.4635,13.3982652 C18.8005,13.3982652 19.3325,12.5092652 19.5425,11.6692652 L18.7305,11.4872652 C18.5555,12.1452652 18.2475,12.7052652 17.4705,12.7052652 C16.5745,12.7052652 16.0355,11.8652652 16.0355,10.6892652 C16.0355,9.52026522 16.5675,8.73626522 17.4425,8.73626522 C18.1775,8.73626522 18.4715,9.26826522 18.6465,9.87726522 L19.4585,9.63226522 C19.2275,8.75726522 18.7095,8.02226522 17.4495,8.02226522 C16.1895,8.02226522 15.1815,8.95326522 15.1815,10.6892652 C15.1815,12.4462652 16.1475,13.3982652 17.4635,13.3982652 Z" id="Path" fill="#FFFFFF" fill-rule="nonzero"></path>
                <path d="M22.2105,13.3982652 C23.4355,13.3982652 24.5555,12.4742652 24.5555,10.7102652 C24.5555,8.94626522 23.4355,8.02226522 22.2105,8.02226522 C20.9785,8.02226522 19.8725,8.94626522 19.8725,10.7102652 C19.8725,12.4742652 20.9785,13.3982652 22.2105,13.3982652 Z M22.2105,12.7052652 C21.3075,12.7052652 20.7265,11.8932652 20.7265,10.7102652 C20.7265,9.52726522 21.3075,8.73626522 22.2105,8.73626522 C23.1135,8.73626522 23.7015,9.52726522 23.7015,10.7102652 C23.7015,11.8932652 23.1135,12.7052652 22.2105,12.7052652 Z" id="Shape" fill="#FFFFFF" fill-rule="nonzero"></path>
                <path d="M27.1185,13.3912652 C28.4485,13.3912652 29.1275,12.6072652 29.1275,11.4312652 L29.1275,8.12026522 L28.2805,8.12026522 L28.2805,11.4312652 C28.2805,12.1942652 27.8815,12.6912652 27.1255,12.6912652 C26.3625,12.6912652 25.9705,12.1872652 25.9705,11.4032652 L25.9705,8.12026522 L25.1165,8.12026522 L25.1165,11.4102652 C25.1165,12.6002652 25.7745,13.3912652 27.1185,13.3912652 Z" id="Path" fill="#FFFFFF" fill-rule="nonzero"></path>
                <path d="M29.9405,13.3002652 L30.7875,13.3002652 L30.7875,11.2632652 L31.6975,11.2632652 C32.7755,11.2632652 33.7135,10.8922652 33.7135,9.69526522 C33.7135,8.49826522 32.8245,8.12026522 31.6975,8.12026522 L29.9405,8.12026522 L29.9405,13.3002652 Z M30.7875,10.5982652 L30.7875,8.82026522 L31.7255,8.82026522 C32.5445,8.82026522 32.8735,9.19126522 32.8735,9.71626522 C32.8735,10.2342652 32.5445,10.5982652 31.7255,10.5982652 L30.7875,10.5982652 Z" id="Shape" fill="#FFFFFF" fill-rule="nonzero"></path>
                <path d="M36.3255,13.3982652 C37.5505,13.3982652 38.6705,12.4742652 38.6705,10.7102652 C38.6705,8.94626522 37.5505,8.02226522 36.3255,8.02226522 C35.0935,8.02226522 33.9875,8.94626522 33.9875,10.7102652 C33.9875,12.4742652 35.0935,13.3982652 36.3255,13.3982652 Z M36.3255,12.7052652 C35.4225,12.7052652 34.8415,11.8932652 34.8415,10.7102652 C34.8415,9.52726522 35.4225,8.73626522 36.3255,8.73626522 C37.2285,8.73626522 37.8165,9.52726522 37.8165,10.7102652 C37.8165,11.8932652 37.2285,12.7052652 36.3255,12.7052652 Z" id="Shape" fill="#FFFFFF" fill-rule="nonzero"></path>
                <polygon id="Path" fill="#FFFFFF" fill-rule="nonzero" points="39.3085 13.3002652 40.0925 13.3002652 40.0925 9.51326522 42.6755 13.3002652 43.4665 13.3002652 43.4665 8.12026522 42.6825 8.12026522 42.6825 11.8932652 40.1555 8.12026522 39.3085 8.12026522"></polygon>
            </g>
        </g>
    </g>
</svg>