<?xml version="1.0" encoding="UTF-8"?>
<svg width="28px" height="17px" viewBox="0 0 28 17" version="1.1" xmlns="http://www.w3.org/2000/svg" xmlns:xlink="http://www.w3.org/1999/xlink">
    <title>coupon (1) 3</title>
    <g id="Page-1" stroke="none" stroke-width="1" fill="none" fill-rule="evenodd" stroke-linecap="round" stroke-linejoin="round">
        <g id="תפריט-עליון/קופון" transform="translate(-228.000000, -46.000000)" stroke="#FFFFFF">
            <g id="coupon-(1)" transform="translate(229.000000, 47.000000)">
                <path d="M7.94444444,1.42870836 C8.88771339,1.42870836 9.69019684,0.832571356 9.98771834,0.000463758522 L24.940951,0.000169146451 C25.5258449,0.000169146451 26,0.515767372 26,1.1517834 L26,13.8482166 C26,14.4842326 25.5258449,14.9998309 24.940951,14.9998309 L9.98767214,14.999407 C9.69011377,14.1673669 8.88766457,13.5712916 7.94444444,13.5712916 C7.00122432,13.5712916 6.19877512,14.1673669 5.90121675,14.999407 L1.05904898,14.9998309 C0.474155102,14.9998309 0,14.4842326 0,13.8482166 L0,1.1517834 C0,0.515767372 0.474155102,0.000169146451 1.05904898,0.000169146451 L5.90117055,0.000463758522 C6.19869205,0.832571356 7.0011755,1.42870836 7.94444444,1.42870836 Z" id="Combined-Shape" stroke-width="1.512"></path>
                <line x1="19.7366968" y1="3.4251768" x2="14.9740762" y2="10.7162254" id="Path" stroke-width="1.19914892"></line>
                <ellipse id="Oval" stroke-width="1.19916375" transform="translate(14.974160, 4.496136) rotate(-76.602990) translate(-14.974160, -4.496136) " cx="14.9741603" cy="4.49613586" rx="1.07364587" ry="1.14263467"></ellipse>
                <ellipse id="Oval" stroke-width="1.19914892" cx="19.7366968" cy="9.64483835" rx="1.14663447" ry="1.0693388"></ellipse>
                <g id="Group" transform="translate(7.059014, 3.233435)" stroke-width="1.19914892">
                    <line x1="0.549516908" y1="0" x2="0.549516908" y2="1.67537694" id="Path-Copy-4"></line>
                    <line x1="0.549516908" y1="3.42220112" x2="0.549516908" y2="5.0976232" id="Path-Copy-5"></line>
                    <line x1="0.549516908" y1="6.89567456" x2="0.549516908" y2="8.57109663" id="Path-Copy-6"></line>
                </g>
            </g>
        </g>
    </g>
</svg>