<?xml version="1.0" encoding="UTF-8"?>
<svg width="27px" height="23px" viewBox="0 0 27 23" version="1.1" xmlns="http://www.w3.org/2000/svg" xmlns:xlink="http://www.w3.org/1999/xlink">
    <title>small icons/coupon</title>
    <g id="Page-1" stroke="none" stroke-width="1" fill="none" fill-rule="evenodd">
        <g id="סל-2-קופון" transform="translate(-305.000000, -199.000000)" fill="#D1D1D1" fill-rule="nonzero">
            <g id="components/cards/your-cart/do-you-have-coupon?" transform="translate(23.000000, 133.000000)">
                <g id="Group-14" transform="translate(16.000000, 19.000000)">
                    <g id="small-icons/coupon" transform="translate(266.833889, 47.314035)">
                        <path d="M3.74673172,0.992211524 C3.94345201,0.203209531 4.7727253,-0.269403068 5.59896545,-0.063398261 L24.7286765,4.70617439 C25.5549167,4.9121792 26.0652433,5.71879158 25.868523,6.50779358 L22.2532683,21.0077885 C22.056548,21.7967905 21.2272747,22.2694031 20.4010345,22.0633983 L1.27132349,17.2938256 C0.445083339,17.0878208 -0.0652433393,16.2812084 0.131476952,15.4922064 Z M2.307,11.013 L1.12883704,15.7408762 C1.06326361,16.0038769 1.2333725,16.2727477 1.50878589,16.341416 L20.6384969,21.1109886 C20.9139103,21.1796569 21.1903348,21.0221193 21.2559082,20.7591187 L22.494,15.79 L2.307,11.013 Z M19.3218978,16.0217369 C19.5927725,16.0909656 19.7590359,16.3568115 19.6932554,16.6155581 L18.9383266,19.5850588 C18.8725461,19.8438055 18.5996315,19.9974709 18.3287451,19.928316 C18.057878,19.8590894 17.8916147,19.5932435 17.9573952,19.3344968 L18.7123239,16.3649962 C18.7781044,16.1062495 19.0510191,15.9525841 19.3218978,16.0217369 Z M17.2689755,15.4716581 C17.5398503,15.5408868 17.7061136,15.8067326 17.6403331,16.0654793 L16.8854044,19.0349799 C16.8196238,19.2937266 16.5467092,19.4473921 16.2758229,19.3782371 C16.0049557,19.3090105 15.8386924,19.0431647 15.9044729,18.784418 L16.6594016,15.8149173 C16.7251822,15.5561706 16.9980968,15.4025052 17.2689755,15.4716581 Z M15.2160532,14.9215792 C15.486928,14.9908079 15.6531913,15.2566537 15.5874108,15.5154004 L14.8324821,18.4849011 C14.7667016,18.7436478 14.4937869,18.8973132 14.2229006,18.8281583 C13.9520334,18.7589316 13.7857701,18.4930858 13.8515506,18.2343391 L14.6064794,15.2648385 C14.6722599,15.0060918 14.9451745,14.8524263 15.2160532,14.9215792 Z M13.1631309,14.3715003 C13.4340057,14.440729 13.600269,14.7065749 13.5344885,14.9653215 L12.7795598,17.9348222 C12.7137793,18.1935689 12.4408646,18.3472343 12.1699783,18.2780794 C11.8991112,18.2088528 11.7328478,17.9430069 11.7986284,17.6842602 L12.5535571,14.7147596 C12.6193376,14.4560129 12.8922522,14.3023475 13.1631309,14.3715003 Z M11.1102087,13.8214215 C11.3810834,13.8906502 11.5473468,14.156496 11.4815662,14.4152427 L10.7266375,17.3847433 C10.660857,17.64349 10.3879424,17.7971555 10.117056,17.7280005 C9.84618889,17.6587739 9.67992556,17.3929281 9.74570608,17.1341814 L10.5006348,14.1646807 C10.5664153,13.905934 10.83933,13.7522686 11.1102087,13.8214215 Z M9.05728639,13.2713426 C9.32816115,13.3405713 9.49442448,13.6064171 9.42864396,13.8651638 L8.67371524,16.8346645 C8.60793472,17.0934112 8.33502009,17.2470766 8.06413374,17.1779217 C7.79326661,17.108695 7.62700328,16.8428492 7.6927838,16.5841025 L8.44771252,13.6146019 C8.51349304,13.3558552 8.78640768,13.2021897 9.05728639,13.2713426 Z M7.00436412,12.7212637 C7.27523887,12.7904924 7.44150221,13.0563383 7.37572168,13.315085 L6.62079296,16.2845856 C6.55501244,16.5433323 6.28209781,16.6969977 6.01121146,16.6278428 C5.74034433,16.5586162 5.574081,16.2927703 5.63986153,16.0340236 L6.39479024,13.064523 C6.46057077,12.8057763 6.7334854,12.6521109 7.00436412,12.7212637 Z M4.96883264,12.1758447 C5.23970739,12.2450734 5.40597073,12.5109192 5.3401902,12.7696659 L4.58526148,15.7391666 C4.51948096,15.9979133 4.24656633,16.1515787 3.97567998,16.0824238 C3.70481286,16.0131971 3.53854952,15.7473513 3.60433005,15.4886046 L4.35925877,12.519104 C4.42503929,12.2603573 4.69795392,12.1066919 4.96883264,12.1758447 Z M5.36150306,0.889011395 C5.08608967,0.820343126 4.80966524,0.977880659 4.74409181,1.24088132 L2.542,10.071 L22.729,14.849 L24.871163,6.25912378 C24.9294505,6.02534541 24.8015198,5.78692891 24.5789396,5.6886057 L24.4912141,5.65858405 Z M12.7490767,6.79294605 L14.3071793,9.32957646 L11.9458437,10.7170292 C11.8404333,10.7789689 11.7032243,10.7447589 11.6392314,10.6405822 L10.3124665,8.48108413 C10.2806616,8.42904358 10.2730265,8.3694567 10.2865903,8.31505549 C10.300154,8.26065427 10.3349166,8.21143872 10.3874302,8.1804211 L12.7490767,6.79294605 Z M11.8118748,9.09993269 C11.6888442,9.17294783 11.6071367,9.28840093 11.5753942,9.41571293 C11.5437029,9.54363645 11.5614506,9.68348734 11.6359443,9.80555123 C11.7107979,9.92780463 11.8291629,10.0086125 11.9590898,10.0410069 C12.0891126,10.0734252 12.2316299,10.0573632 12.355525,9.98496283 C12.4787962,9.91220727 12.5603141,9.79710611 12.5921971,9.66923037 C12.6239396,9.54191837 12.6061408,9.40145596 12.5313596,9.2793204 C12.456076,9.15715936 12.3377351,9.07625475 12.2077606,9.04405101 C12.0777378,9.0116327 11.9350991,9.02736504 11.8118748,9.09993269 Z M15.7610126,5.4298525 L17.0872058,7.58881617 C17.1512084,7.69287656 17.117646,7.82748837 17.0122816,7.88932083 L14.6502364,9.27727074 L13.0924442,6.74127783 L15.4545618,5.35344574 C15.559758,5.29147158 15.6970334,5.32569817 15.7610126,5.4298525 Z M12.1564007,7.63157871 C12.0335107,7.70403011 11.9514923,7.8195055 11.919703,7.94700541 C11.8879137,8.07450533 11.9059745,8.21473364 11.9806108,8.3366335 C12.0556794,8.45884073 12.1738315,8.5400945 12.303471,8.57241725 C12.4336854,8.60488335 12.5760579,8.58858566 12.6995932,8.51599573 C12.8234158,8.44347747 12.9048124,8.32804665 12.9366017,8.20054674 C12.968391,8.07304682 12.9507604,7.93272615 12.8754065,7.81084698 C12.8005274,7.68828781 12.6827586,7.6071296 12.5522568,7.57459184 C12.4225215,7.54224519 12.2799573,7.5584951 12.1564007,7.63157871 Z M14.8760782,6.81701383 C14.7525226,6.88977608 14.6710008,7.00534615 14.6392651,7.13263086 C14.6075295,7.25991558 14.625299,7.4000422 14.7002323,7.52229329 C14.77514,7.64423868 14.8934115,7.72571068 15.0232872,7.7581921 C15.1534013,7.79053342 15.2960776,7.774123 15.4192755,7.70157091 C15.5427353,7.62878477 15.6245466,7.51368599 15.6563291,7.3862134 C15.6880648,7.25892868 15.6703421,7.11861419 15.5950257,6.99626756 C15.5203584,6.8745817 15.4021338,6.79292182 15.2720431,6.76048657 C15.142144,6.72809909 14.9994209,6.74469738 14.8760782,6.81701383 Z" id="coupon_small"></path>
                    </g>
                </g>
            </g>
        </g>
    </g>
</svg>