<?xml version="1.0" encoding="UTF-8"?>
<svg width="44px" height="57px" viewBox="0 0 44 57" version="1.1" xmlns="http://www.w3.org/2000/svg" xmlns:xlink="http://www.w3.org/1999/xlink">
    <title>Group 2</title>
    <defs>
        <polygon id="path-1" points="0 0.043621875 37.3626149 0.043621875 37.3626149 48.3428194 0 48.3428194"></polygon>
    </defs>
    <g id="Page-1" stroke="none" stroke-width="1" fill="none" fill-rule="evenodd">
        <g id="משלוח--כתובת-אחרת" transform="translate(-618.000000, -363.000000)">
            <g id="Group-3" transform="translate(384.000000, 99.000000)">
                <g id="components" transform="translate(224.000000, 264.500000)">
                    <g id="Group" transform="translate(10.212766, 0.000000)">
                        <path d="M7.25660666e-15,49.3500875 C7.25660666e-15,52.131157 9.62600736,54.3857143 21.5,54.3857143 C33.3739926,54.3857143 43,52.131157 43,49.3500875 C43,46.5690179 33.3739926,44.3142857 21.5,44.3142857 C9.62600736,44.3142857 7.25660666e-15,46.5690179 7.25660666e-15,49.3500875 Z" id="Path" fill="#505050" opacity="0.224004836"></path>
                        <g id="icons/pin-map" transform="translate(2.723404, 0.000000)">
                            <g id="Group-3">
                                <mask id="mask-2" fill="white">
                                    <use xlink:href="#path-1"></use>
                                </mask>
                                <g id="Clip-2"></g>
                                <path d="M18.6367049,48.3428194 C17.2749941,47.0081033 15.9169041,45.7078504 14.5934977,44.3737953 C11.0245215,40.7761236 7.69404234,36.9810205 4.94251183,32.7189178 C2.92228986,29.589662 1.25585924,26.3001761 0.448990093,22.6391488 C-1.80239207,12.4234156 4.6500837,2.72123076 14.4863026,0.518042812 C24.0456248,-1.62311143 33.3918909,3.65579638 36.4572885,12.8697372 C37.7360065,16.7131832 37.593842,20.5713587 36.4469025,24.4291564 C35.0422184,29.1540098 32.6642984,33.3699412 29.6829417,37.2744767 C26.551226,41.3761604 22.8697188,44.9453174 18.8620527,48.195808 C18.8140293,48.2347089 18.7580973,48.2640734 18.6367049,48.3428194" id="Fill-1" fill="#F5002E" mask="url(#mask-2)"></path>
                            </g>
                            <ellipse id="Oval" fill="#FFFFFF" cx="18.7234043" cy="18.4642857" rx="8.5106383" ry="8.39285714"></ellipse>
                        </g>
                    </g>
                </g>
            </g>
        </g>
    </g>
</svg>