<?xml version="1.0" encoding="UTF-8"?>
<svg width="21px" height="21px" viewBox="0 0 21 21" version="1.1" xmlns="http://www.w3.org/2000/svg" xmlns:xlink="http://www.w3.org/1999/xlink">
    <title>delete</title>
    <g id="Page-1" stroke="none" stroke-width="1" fill="none" fill-rule="evenodd">
        <g id="כתובות-למשלוח" transform="translate(-44.000000, -285.000000)">
            <g id="Group-4" transform="translate(39.000000, 132.000000)">
                <g id="Group-8" transform="translate(5.500000, 0.000000)">
                    <g id="delete" transform="translate(0.000000, 153.000000)">
                        <rect id="Rectangle" x="0" y="0" width="20" height="20"></rect>
                        <path d="M10.4272942,1.925 C10.8597437,1.925 11.245733,2.10632144 11.5236934,2.40259989 C11.7810158,2.67688027 11.9460297,3.05033897 11.9671053,3.47078533 L16.305805,3.96757984 L15.1566062,4.87465942 L14.4076534,16.5905046 C14.4065623,17.0335377 14.2357281,17.4350518 13.9576677,17.7255092 C13.6855234,18.0097867 13.3106017,18.1880445 12.8891038,18.1948109 L6.63444682,18.195 C6.20199725,18.195 5.81600795,18.0136786 5.53804758,17.7174001 C5.26825569,17.4298285 5.09993771,17.0332355 5.09273454,16.5913207 L4.3457684,4.9115054 L2.64864881,4.9115054 L7.25993919,3.960241 C7.267444,3.07541892 7.43910739,2.68642986 7.70538892,2.40259989 C7.9781119,2.11190399 8.35483507,1.93188804 8.77856802,1.92518372 L10.4272942,1.925 Z M13.7214414,9.194 L5.7877389,9.194 L6.2383876,16.5445893 C6.24185558,16.7451084 6.32173742,16.9094836 6.83732402,17.2193968 L13.2907541,16.4888728 L13.7214414,9.194 Z M13.9658619,5.06871429 L5.53429445,5.06871429 L5.7125338,7.97 L13.7933276,7.97 L13.9658619,5.06871429 Z M10.361364,2.73338746 L8.48310141,3.87801781 L10.9020597,3.439468 C10.8981757,3.24007077 10.8372939,3.06196759 10.361364,2.73338746 Z" id="Combined-Shape" stroke="#017AFF" stroke-width="0.15" fill="#017AFF"></path>
                    </g>
                </g>
            </g>
        </g>
    </g>
</svg>