<?xml version="1.0" encoding="UTF-8"?>
<svg width="32px" height="43px" viewBox="0 0 32 43" version="1.1" xmlns="http://www.w3.org/2000/svg" xmlns:xlink="http://www.w3.org/1999/xlink">
    <title>icons/pin map/dominos copy 2</title>
    <defs>
        <polygon id="path-1" points="0 0.0378984375 31.4291769 0.0378984375 31.4291769 41.9999672 0 41.9999672"></polygon>
    </defs>
    <g id="Page-1" stroke="none" stroke-width="1" fill="none" fill-rule="evenodd">
        <g id="מסניף-אחר_מפה-copy-2" transform="translate(-49.000000, -400.000000)">
            <g id="icons/pin-map/dominos-copy-2" transform="translate(49.000000, 400.500000)">
                <mask id="mask-2" fill="white">
                    <use xlink:href="#path-1"></use>
                </mask>
                <g id="Clip-2"></g>
                <path d="M12.2759508,38.5517016 C9.27375229,35.4260648 6.47217595,32.1289008 4.15760725,28.4260102 C2.45821031,25.7073305 1.05642023,22.8494437 0.377687405,19.6687641 C-1.51615992,10.793393 3.9116187,2.36418984 12.185779,0.450072656 C20.2270156,-1.41015 28.0890309,3.17613516 30.6676225,11.1811547 C31.7432714,14.5203187 31.6236836,17.8722797 30.6588859,21.2239125 C29.4772752,25.3288383 27.4769851,28.9916156 24.9690882,32.3838539 C22.3347103,35.9473734 19.2378515,39.0482367 15.8666302,41.8722445 C15.8262332,41.9060414 15.7791836,41.9315531 15.6770691,41.9999672 C14.5316073,40.8403734 13.3891912,39.7107211 12.2759508,38.5517016 Z" id="Fill-1" fill="#017AFF"></path>
                <ellipse id="Oval" fill="#FFFFFF" cx="15.75" cy="16.0416667" rx="12.3136364" ry="12.5416667"></ellipse>
                <g id="Logos/dominos-_color_updated" transform="translate(5.751136, 5.873843)">
                    <g id="Group" transform="translate(0.021047, 0.136782)">
                        <path d="M19.0519553,5.67843718 L13.7828603,0.348853742 C13.5604381,0.123950862 13.2647757,-3.88756715e-15 12.9502779,-3.88756715e-15 C12.6357801,-3.88756715e-15 12.3400426,0.123950862 12.1176204,0.348853742 L0.344326686,12.2574726 C-0.114775562,12.7220037 -0.114775562,13.4775499 0.344326686,13.9418533 L5.61327164,19.2724235 C5.83569385,19.4974022 6.13135629,19.6212772 6.44592913,19.6212772 C6.76042693,19.6212772 7.05608938,19.4974022 7.27843654,19.2724235 L19.0518803,7.36266601 C19.5108325,6.89843853 19.5108325,6.14289237 19.0519553,5.67843718" id="Fill-13" fill="#FFFFFE"></path>
                        <path d="M14.0454296,7.59819542 C13.7471407,7.89945749 13.3553504,8.04997468 12.9661116,8.04997468 C12.5762724,8.04982287 12.1853076,7.89945749 11.8866435,7.59819542 C11.589105,7.29708515 11.4391726,6.90109516 11.4390976,6.50677506 C11.4391726,6.11169592 11.589105,5.71555413 11.8866435,5.41505109 C12.1852325,5.11394082 12.575672,4.96213328 12.9661116,4.96220915 C13.3553504,4.96220915 13.7471407,5.11272636 14.0454296,5.4152029 C14.3425178,5.71555413 14.4929004,6.11177183 14.4928254,6.50677506 C14.4929004,6.90056384 14.3425178,7.29693334 14.0454296,7.59819542 Z M18.6792256,6.05734882 L13.4102056,0.727841282 C13.156191,0.47090701 12.7443647,0.47090701 12.4902751,0.727841282 L6.79337003,6.49022804 L12.9822454,12.7500881 L18.6792256,6.98777727 C18.9332401,6.730843 18.9332401,6.314359 18.6792256,6.05734882 L18.6792256,6.05734882 Z" id="Fill-14" fill="#F5002E"></path>
                        <path d="M7.60036342,12.0485855 C7.89827711,11.7465643 8.289392,11.5960471 8.67930623,11.5960471 C9.06982079,11.5959713 9.46093569,11.7465643 9.75832408,12.0485855 C10.0575135,12.3496957 10.2066204,12.7441676 10.2065454,13.1402335 C10.2065454,13.5347054 10.0575135,13.93024 9.75832408,14.230743 C9.46093569,14.5309425 9.06982079,14.6823705 8.67930623,14.6828259 C8.28909183,14.6828259 7.89827711,14.5310943 7.60043846,14.230743 C7.30222461,13.9294051 7.15311769,13.5337946 7.15311769,13.1402335 C7.15311769,12.7453062 7.30229965,12.3497716 7.60036342,12.0485855 Z M5.27986345,14.1694128 C4.98119935,14.4693086 4.59008446,14.6199017 4.20024527,14.6199017 C3.8093555,14.6198258 3.41869085,14.4693845 3.12070213,14.1694128 C2.82226316,13.8686061 2.67435689,13.472768 2.67428185,13.0783719 C2.67428185,12.6833687 2.82301357,12.2878341 3.12077717,11.9854335 C3.41869085,11.6846269 3.8093555,11.5343374 4.20024527,11.5341097 C4.59008446,11.5343374 4.98179968,11.6846269 5.27986345,11.9856612 C5.57762705,12.2878341 5.72605861,12.6833687 5.72568411,13.0777647 C5.72568411,13.4724643 5.57762705,13.8689097 5.27986345,14.1694128 Z M0.716981436,12.6344108 C0.46289183,12.8914969 0.46289183,13.3079809 0.716981436,13.5649151 L5.98592639,18.8954853 C6.11297119,19.0239904 6.27941264,19.088205 6.44592913,19.088205 C6.61237058,19.088205 6.77888707,19.0239904 6.90585683,18.8954853 L12.5999854,13.1349203 L6.41111,6.87483246 L0.716981436,12.6344108 L0.716981436,12.6344108 Z" id="Fill-15" fill="#017AFF"></path>
                        <path d="M8.26861538,19.2398203 L8.32628834,19.2398203 C8.36462521,19.2398203 8.39178515,19.2335577 8.40743286,19.2211443 C8.42319233,19.208731 8.43101618,19.1926272 8.43101618,19.1729448 C8.43101618,19.1532624 8.42352764,19.1372705 8.40843878,19.1248572 C8.39334992,19.112332 8.36775475,19.1061813 8.33142973,19.1061813 L8.26861538,19.1061813 L8.26861538,19.2398203 Z M8.13572167,19.0131372 L8.37468445,19.0131372 C8.44241665,19.0131372 8.49137161,19.0267807 8.52177286,19.0540676 C8.55206234,19.0813546 8.56726297,19.1179236 8.56726297,19.1637746 C8.56726297,19.1996726 8.55563896,19.2306501 8.53250271,19.2568187 C8.50936647,19.2830992 8.47292967,19.3021106 8.42319233,19.3138529 C8.44364611,19.3216811 8.45873497,19.3300685 8.46834713,19.3387914 C8.48187122,19.3509811 8.49606592,19.3690978 8.51093124,19.3931417 C8.51182539,19.394931 8.54066187,19.4464854 8.59732891,19.5478051 L8.44018126,19.5478051 C8.38910269,19.4460381 8.35478951,19.3852016 8.3373535,19.3652955 C8.31991749,19.3453895 8.30248148,19.3354365 8.28493369,19.3354365 C8.28102177,19.3354365 8.27554507,19.3361074 8.26861538,19.3374494 L8.26861538,19.5478051 L8.13572167,19.5478051 L8.13572167,19.0131372 Z M8.76565349,19.2804152 C8.76565349,19.1690307 8.72631069,19.0738619 8.64751333,18.9950204 C8.5686042,18.916179 8.47360029,18.8768142 8.36227806,18.8768142 C8.25095583,18.8768142 8.15584014,18.916179 8.07704278,18.9950204 C7.99824542,19.0738619 7.95879085,19.1690307 7.95879085,19.2804152 C7.95879085,19.3917997 7.99824542,19.4869685 8.07704278,19.56581 C8.15584014,19.6446514 8.25095583,19.684128 8.36227806,19.684128 C8.47360029,19.684128 8.5686042,19.6446514 8.64751333,19.56581 C8.72631069,19.4869685 8.76565349,19.3917997 8.76565349,19.2804152 Z M8.86255748,19.2804152 C8.86255748,19.3699925 8.84020362,19.453419 8.79549589,19.5306948 C8.7506764,19.6080824 8.68976213,19.6690307 8.61241777,19.7135398 C8.53518518,19.7581607 8.45180527,19.7804152 8.36227806,19.7804152 C8.27319792,19.7804152 8.19004155,19.7581607 8.11269719,19.7135398 C8.0354646,19.6690307 7.97443856,19.6080824 7.92973083,19.5306948 C7.88491134,19.453419 7.86255748,19.3699925 7.86255748,19.2804152 C7.86255748,19.1912853 7.88491134,19.1079706 7.92973083,19.0304711 C7.97443856,18.9529717 8.0354646,18.8919115 8.11269719,18.8472906 C8.19004155,18.8027816 8.27319792,18.7804152 8.36227806,18.7804152 C8.45180527,18.7804152 8.53518518,18.8027816 8.61241777,18.8472906 C8.68976213,18.8919115 8.7506764,18.9529717 8.79549589,19.0304711 C8.84020362,19.1079706 8.86255748,19.1912853 8.86255748,19.2804152 L8.86255748,19.2804152 Z" id="Fill-19" fill="#FFFFFF"></path>
                    </g>
                </g>
            </g>
        </g>
    </g>
</svg>