<?xml version="1.0" encoding="UTF-8"?>
<svg width="107px" height="107px" viewBox="0 0 107 107" version="1.1" xmlns="http://www.w3.org/2000/svg" xmlns:xlink="http://www.w3.org/1999/xlink">
    <title>icons/illustrated/cheesy pizza copy 2</title>
    <defs>
        <path d="M13.7922909,18.6383138 L65.8850356,33.9067044 C66.1611015,33.9878524 66.319337,34.2764073 66.2388922,34.5519897 L54.30213,75.7605699 C54.1759684,76.1882551 53.8845652,76.5484178 53.4920605,76.7617835 C53.0995559,76.9751491 52.6381209,77.0242293 52.209321,76.8982212 L1.22364193,61.2876373 C0.331431366,61.0256092 -0.179160426,60.0922056 0.082875694,59.2022232 L11.7095921,19.7776456 C11.9717009,18.8914545 12.9020372,18.3825178 13.7922909,18.6383138 Z" id="path-1"></path>
        <mask id="mask-2" maskContentUnits="userSpaceOnUse" maskUnits="objectBoundingBox" x="-1.25" y="-1.25" width="68.7456633" height="60.8945435">
            <rect x="-1.23581738" y="17.3222041" width="68.7456633" height="60.8945435" fill="white"></rect>
            <use xlink:href="#path-1" fill="black"></use>
        </mask>
        <mask id="mask-4" maskContentUnits="userSpaceOnUse" maskUnits="objectBoundingBox" x="-1.25" y="-1.25" width="68.7456633" height="60.8945435">
            <rect x="-1.23581738" y="17.3222041" width="68.7456633" height="60.8945435" fill="white"></rect>
            <use xlink:href="#path-1" fill="black"></use>
        </mask>
    </defs>
    <g id="Page-1" stroke="none" stroke-width="1" fill="none" fill-rule="evenodd">
        <g id="פופאפ_-קופון_2" transform="translate(-137.000000, -300.000000)">
            <g id="icons/illustrated/cheesy-pizza-copy-2" transform="translate(137.000000, 300.000000)">
                <g id="Group-3" transform="translate(6.935185, 21.000000)">
                    <g id="Group-2" transform="translate(27.759110, 0.134545)">
                        <g id="Group" transform="translate(0.942668, 0.000000)" fill-rule="nonzero">
                            <path d="M0.0129766822,8.22282435 C-0.0509534301,7.63313206 0.123063314,7.04231136 0.496716005,6.58043523 C0.870368695,6.1185591 1.41302369,5.82349412 2.00521199,5.76020075 L55.5987797,0.0129228634 C56.1909278,-0.0507421086 56.7842091,0.122552928 57.2480087,0.494655951 C57.7118084,0.866758975 58.0081022,1.40716339 58.0716592,1.99689568 L62.5489642,43.389783 C62.6668899,44.4918149 61.8668262,45.4809586 60.7604802,45.6009415 L6.70368301,51.3967782 C5.5971804,51.5130487 4.60549051,50.7141362 4.48854026,49.6122432 L0.0129766822,8.22282435 Z" id="Path" stroke="#2F383F" stroke-width="1.25" fill="#FFFFFF" stroke-linecap="round" stroke-linejoin="round" stroke-dasharray="2,2"></path>
                            <path d="M12.6865289,9.86832155 L52.3336704,9.88465706 C52.8856324,9.88571055 53.3330297,10.3331071 53.3340841,10.885069 L53.3387957,22.273973 C53.3398496,22.8262573 52.8923196,23.2741578 52.3400349,23.2743862 C52.3397596,23.2743864 52.3394844,23.2743864 52.3392095,23.2735609 L12.6920679,23.2572254 C12.140106,23.2561719 11.6927087,22.8087753 11.6916543,22.2568134 L11.6869427,10.8679094 C11.6858888,10.3156251 12.1334188,9.86772465 12.6857035,9.86749617 C12.6859788,9.86749606 12.686254,9.86749606 12.6865289,9.86832155 Z" id="Rectangle" fill="#F5002E" transform="translate(32.512869, 16.570941) rotate(-5.730000) translate(-32.512869, -16.570941) "></path>
                        </g>
                        <line x1="15.6205168" y1="33.3728014" x2="51.8987037" y2="29.5626718" id="Path" stroke="#2F383F" stroke-linecap="round" stroke-linejoin="round"></line>
                        <line x1="20.2249488" y1="40.9947949" x2="48.0709649" y2="38.2425528" id="Path" stroke="#2F383F" stroke-linecap="round" stroke-linejoin="round"></line>
                        <path d="M4.66155689,7.24763678 C5.46655214,7.05947464 6.27166528,7.55951668 6.45982741,8.36451193 C6.47425722,8.42624553 6.48475049,8.48883351 6.49124381,8.55189771 L10.8453262,50.8394268 C10.9170573,51.5360907 10.4104493,52.1589979 9.71378542,52.230729 C9.67063443,52.235172 9.62728387,52.2373978 9.58390475,52.2373978 C8.78284837,52.2373978 8.10892886,51.6371155 8.01664966,50.841392 L3.20186078,9.32346778 C3.09026005,8.36113475 3.71820216,7.4681395 4.66155689,7.24763678 Z" id="Rectangle" fill="#D8D8D8" style="mix-blend-mode: multiply;"></path>
                        <path d="M11.2074746,9.86811554 L51.8546161,9.88486307 C52.1305971,9.88538981 52.3542957,10.1090881 52.3548229,10.385069 L52.3599482,22.7739729 C52.3604752,23.0501151 52.1367102,23.2740653 51.8605678,23.2741796 C51.8604302,23.2741796 51.8602926,23.2741796 51.8601551,23.2737669 L11.2130137,23.2570193 C10.9370327,23.2564926 10.7133341,23.0327943 10.7128069,22.7568134 L10.7076815,10.3679095 C10.7071546,10.0917673 10.9309196,9.86781709 11.2070619,9.86770285 C11.2071996,9.86770279 11.2073372,9.86770279 11.2074746,9.86811554 Z" id="Rectangle" stroke="#2F383F" stroke-linecap="round" stroke-linejoin="round" fill-rule="nonzero" transform="translate(31.533815, 16.570941) rotate(-5.730000) translate(-31.533815, -16.570941) "></path>
                    </g>
                    <mask id="mask-3" fill="white">
                        <use xlink:href="#path-1"></use>
                    </mask>
                    <g id="Path" stroke="#2F383F" mask="url(#mask-2)" stroke-width="2.5" fill="#017AFF" fill-rule="nonzero" stroke-linecap="square" stroke-linejoin="round" stroke-dasharray="1,4">
                        <use mask="url(#mask-4)" xlink:href="#path-1"></use>
                    </g>
                    <path d="M59.6127299,58.4191261 L4.42634083,42.0228497 L-1.05394966,60.3350241 C-1.32110636,61.2286403 -0.80053684,62.1658549 0.109108853,62.4289529 L52.0825347,77.4306614 C52.5197139,77.5571839 52.990166,77.5079033 53.3903408,77.2936665 C53.7905156,77.0794298 54.0876132,76.7177965 54.2162402,76.2883651 L59.6127299,58.4191261 Z" id="Path" fill="#FFFFFF" fill-rule="nonzero" mask="url(#mask-3)"></path>
                    <g id="Group-5" mask="url(#mask-3)" stroke="#2F383F" stroke-linecap="round" stroke-linejoin="round" stroke-width="1.25">
                        <g transform="translate(7.175876, 48.637134)" id="Path">
                            <line x1="2.74144586" y1="4.17443857e-14" x2="2.29940731e-13" y2="9.39296917"></line>
                            <line x1="7.68929702" y1="1.46375052" x2="4.94615262" y2="10.8567197"></line>
                            <line x1="12.6354496" y1="2.92750104" x2="9.89400379" y2="12.3204702"></line>
                            <line x1="34.2697717" y1="9.32798959" x2="31.5266273" y2="18.7209588"></line>
                            <line x1="39.2159244" y1="10.7917401" x2="36.4744785" y2="20.1847093"></line>
                            <line x1="44.1637755" y1="12.2554906" x2="41.4206311" y2="21.6467498"></line>
                            <line x1="19.9306851" y1="5.08550707" x2="17.1892392" y2="14.4784762"></line>
                            <line x1="26.449687" y1="7.01437458" x2="23.7082412" y2="16.4073437"></line>
                        </g>
                    </g>
                </g>
                <line x1="11.361526" y1="63.0228497" x2="66.5479151" y2="79.5417541" id="Path-15" stroke="#31383E"></line>
                <g id="Group-Copy" transform="translate(43.199034, 59.636264) rotate(1.000000) translate(-43.199034, -59.636264) translate(33.291627, 49.636264)">
                    <path d="M13.552781,0.341958429 C13.3343494,0.121492328 13.0429736,0 12.7340966,0 C12.4249524,0 12.1338438,0.121492328 11.9155458,0.341958429 L0.338669229,12.0269314 C-0.112889743,12.4831008 -0.112889743,13.2244602 0.338669229,13.6800901 L5.51984084,18.9093842 C5.73813887,19.1297154 6.02884666,19.2512078 6.33839167,19.2512078 C6.64740229,19.2512078 6.93824368,19.1297154 7.1569425,18.9093842 L18.734487,7.22441118 C19.1857788,6.76891608 19.1857788,6.02742183 18.734487,5.57192673 L13.552781,0.341958429 Z" id="Fill-20" fill="#FFFFFF"></path>
                    <path d="M18.4057258,5.96964068 L13.2266194,0.743229304 C12.9771847,0.490912353 12.5723209,0.490912353 12.3230198,0.743229304 L6.72355998,6.39407769 L12.8058654,12.5340597 L18.4057258,6.88226786 C18.6550268,6.63062483 18.6550268,6.22209242 18.4057258,5.96964068 M13.8510071,7.48125105 C13.557908,7.77696867 13.1730737,7.92388399 12.7899753,7.92388399 C12.407678,7.92388399 12.0227101,7.77696867 11.7297446,7.48125105 C11.4370462,7.18553343 11.2894952,6.79762307 11.2894952,6.41038664 C11.2894952,6.02301542 11.4370462,5.63443114 11.7297446,5.34006137 C12.0227101,5.04501767 12.4063427,4.89608058 12.7906429,4.89608058 C13.1730737,4.89608058 13.557908,5.04353504 13.8510071,5.34006137 C14.1433049,5.63443114 14.2915235,6.02355456 14.2915235,6.41038664 C14.2915235,6.79694915 14.1433049,7.18553343 13.8510071,7.48125105" id="Fill-22" fill="#F5002E"></path>
                    <path d="M0.736179912,12.3673885 C0.486422748,12.6189477 0.486422748,13.0276976 0.736179912,13.2802005 L5.91576953,18.5083446 C6.04051455,18.6345286 6.20425909,18.6972162 6.36800362,18.6972162 C6.53134748,18.6972162 6.69509201,18.6345286 6.81983704,18.5083446 L12.4180036,12.858239 L6.33394583,6.71714804 L0.736179912,12.3673885 Z M5.22179187,13.8732385 C4.92809347,14.1671286 4.54357428,14.3151522 4.16025714,14.3151522 C3.77613863,14.3151522 3.39215369,14.1676679 3.09912309,13.8732385 C2.80595893,13.5780002 2.66037856,13.1901461 2.66037856,12.8026964 C2.66037856,12.4153815 2.80662673,12.0275274 3.09912309,11.7308062 C3.39215369,11.4358376 3.77613863,11.2880836 4.16025714,11.2880836 C4.54357428,11.2880836 4.92876127,11.4358376 5.22179187,11.7308062 C5.51455534,12.0275274 5.66040284,12.4153815 5.66013609,12.8020224 C5.66013609,13.1893372 5.51455534,13.5786743 5.22179187,13.8732385 L5.22179187,13.8732385 Z M7.50259566,11.7922805 C7.79575982,11.4963682 8.18014544,11.3488838 8.56346259,11.3488838 C8.94758109,11.3488838 9.33196672,11.4963682 9.62432951,11.7922805 C9.91842859,12.0881928 10.0649439,12.4748336 10.0649439,12.8634966 C10.0649439,13.2501374 9.91842859,13.6382612 9.62432951,13.9332298 C9.33196672,14.2279288 8.94758109,14.3759524 8.56346259,14.3773005 C8.18014544,14.3773005 7.79575982,14.2279288 7.50299634,13.9332298 C7.20983218,13.6382612 7.06331688,13.2501374 7.06331688,12.8634966 C7.06331688,12.4761818 7.20983218,12.0881928 7.50259566,11.7922805 L7.50259566,11.7922805 Z" id="Fill-24" fill="#017AFF"></path>
                    <polyline id="Fill-26" fill="#FFFFFF" points="8.70856134 18.6972162 8.70856134 18.1348663 8.5073616 18.1348663 8.5073616 18.0047267 9.05622364 18.0047267 9.05622364 18.1348663 8.85692074 18.1348663 8.85692074 18.6972162"></polyline>
                </g>
                <path d="M15.3399247,20.4357866 C17.0986886,20.4357866 18.5244485,21.8748713 18.5244485,23.6500723 C18.5244485,25.4252733 17.0986886,26.864358 15.3399247,26.864358 C13.5811607,26.864358 12.1554009,25.4252733 12.1554009,23.6500723 C12.1554009,21.8748713 13.5811607,20.4357866 15.3399247,20.4357866 Z M15.3399247,21.7215008 C14.2846663,21.7215008 13.4292104,22.5849517 13.4292104,23.6500723 C13.4292104,24.7151929 14.2846663,25.5786437 15.3399247,25.5786437 C16.395183,25.5786437 17.250639,24.7151929 17.250639,23.6500723 C17.250639,22.5849517 16.395183,21.7215008 15.3399247,21.7215008 Z M19.3204589,9.06411263 C19.6172438,8.78885399 20.0875958,8.7993735 20.3710193,9.08760862 L20.3710193,9.08760862 L23.5413397,12.311747 L26.7387775,9.0840279 L26.8087788,9.02163645 C27.100273,8.79286778 27.5217572,8.81366493 27.7896168,9.0840279 C28.079798,9.37692112 28.079798,9.85179486 27.7896168,10.1446881 L27.7896168,10.1446881 L24.5883397,13.375747 L27.8015728,16.6443076 L27.8617586,16.7136564 C28.0816379,17.0017458 28.0513352,17.4105185 27.7773799,17.6646034 C27.4805949,17.939862 27.010243,17.9293425 26.7268194,17.6411074 L26.7268194,17.6411074 L23.5573397,14.416747 L20.3590612,17.6446881 L20.2890599,17.7070795 C19.9975658,17.9358482 19.5760816,17.915051 19.308222,17.6446881 C19.0180407,17.3517949 19.0180407,16.8769211 19.308222,16.5840279 L19.308222,16.5840279 L22.5103397,13.352747 L19.2962659,10.0844083 L19.2360802,10.0150596 C19.0162008,9.72697022 19.0465036,9.31819753 19.3204589,9.06411263 Z M11.2978159,9.47474704 C12.0013215,9.47474704 12.5716254,10.0503809 12.5716254,10.7604613 C12.5716254,11.4705417 12.0013215,12.0461756 11.2978159,12.0461756 C10.5943103,12.0461756 10.0240064,11.4705417 10.0240064,10.7604613 C10.0240064,10.0503809 10.5943103,9.47474704 11.2978159,9.47474704 Z" id="Combined-Shape" fill="#2F383F"></path>
            </g>
        </g>
    </g>
</svg>