<?xml version="1.0" encoding="UTF-8"?>
<svg width="40px" height="40px" viewBox="0 0 40 40" version="1.1" xmlns="http://www.w3.org/2000/svg" xmlns:xlink="http://www.w3.org/1999/xlink">
    <title>buttons icons/pencil</title>
    <g id="Page-1" stroke="none" stroke-width="1" fill="none" fill-rule="evenodd">
        <g id="פירוט-פיצה-קבועה" transform="translate(-73.000000, -252.000000)">
            <g id="buttons-icons/pencil" transform="translate(73.000000, 252.000000)">
                <circle id="Oval" fill="#F5002E" cx="20" cy="20" r="20"></circle>
                <path d="M27.9251825,12.979927 L26.520073,11.5748175 C25.7536496,10.8083942 24.540146,10.8083942 23.8375912,11.5748175 L11.830292,23.5821168 L11,28.5 L15.9178832,27.669708 L27.9251825,15.6624088 C28.6916058,14.959854 28.6916058,13.6824818 27.9251825,12.979927 Z M15.0157305,26.8358514 L12.2068966,27.2931034 L12.6641486,24.4842695 L22.5277284,14.6206897 L24.8793103,16.9722716 L15.0157305,26.8358514 Z M27.1058264,14.6414982 L25.9197384,15.8275862 L23.6724138,13.5802616 L24.8585018,12.3941736 C25.1082045,12.1444709 25.4827586,12.1444709 25.7324614,12.3941736 L27.1058264,13.7675386 C27.2306778,13.89239 27.2931034,14.0172414 27.2931034,14.2045184 C27.2931034,14.3917955 27.2306778,14.5166468 27.1058264,14.6414982 Z" id="Shape" fill="#FFFFFF" fill-rule="nonzero"></path>
            </g>
        </g>
    </g>
</svg>