<?xml version="1.0" encoding="UTF-8"?>
<svg width="15px" height="15px" viewBox="0 0 15 15" version="1.1" xmlns="http://www.w3.org/2000/svg" xmlns:xlink="http://www.w3.org/1999/xlink">
    <title>edit</title>
    <g id="Page-1" stroke="none" stroke-width="1" fill="none" fill-rule="evenodd">
        <g id="ui-style-guide-menu-&amp;-builder" transform="translate(-268.000000, -440.000000)">
            <g id="edit" transform="translate(268.000000, 440.000000)">
                <rect id="Rectangle" x="0" y="0" width="15" height="15"></rect>
                <path d="M13.9680375,2.85039088 L12.1497997,1.03202449 C11.7730081,0.655991838 11.1629129,0.655991838 10.7861213,1.03202449 L1.03234637,10.7858637 C0.850997686,10.9663348 0.749338655,11.2118257 0.750003238,11.4676708 L0.750003238,13.6071409 C0.750219286,13.9620892 1.03790857,14.2497784 1.39285682,14.25 L3.53239124,14.25 C3.78825136,14.2507676 4.03378708,14.1491459 4.21426257,13.9677799 L13.9680375,4.21394068 C14.34402,3.83717858 14.34402,3.22715299 13.9680375,2.85039088 Z M3.75970311,13.5132848 C3.69910712,13.5730703 3.61751491,13.6067594 3.53239124,13.6071409 L1.39285682,13.6071409 L1.39285682,11.4676708 C1.3932482,11.3825178 1.42704175,11.3009193 1.48697011,11.2404232 L10.1039929,2.62346472 L12.3767901,4.89606915 L3.75970311,13.5132848 Z M13.5134138,3.75944551 L12.8313496,4.4415097 L10.5585523,2.16858384 L11.2406165,1.48651966 C11.3663158,1.36142252 11.5694767,1.36142252 11.695176,1.48651966 L13.5134138,3.30488606 C13.6389352,3.43040989 13.6389352,3.63392168 13.5134138,3.75944551 L13.5134138,3.75944551 Z M12.9641625,13.9285661 C12.9641625,14.1060843 12.8202555,14.2499912 12.6427373,14.2499912 L6.21423418,14.2499912 C6.03671596,14.2499912 5.89280902,14.1060843 5.89280902,13.9285661 C5.89280902,13.7510478 6.03671596,13.6071409 6.21423418,13.6071409 L12.6427373,13.6071409 C12.8202555,13.6071409 12.9641625,13.7510478 12.9641625,13.9285661 Z" id="Shape" fill="#FFFFFF"></path>
            </g>
        </g>
    </g>
</svg>