<?xml version="1.0" encoding="UTF-8"?>
<svg width="145px" height="98px" viewBox="0 0 145 98" version="1.1" xmlns="http://www.w3.org/2000/svg" xmlns:xlink="http://www.w3.org/1999/xlink">
    <title>Group 3</title>
    <g id="Page-1" stroke="none" stroke-width="1" fill="none" fill-rule="evenodd">
        <g id="הסל-ריק" transform="translate(-114.000000, -200.000000)">
            <g id="Group-3" transform="translate(114.000000, 201.000000)">
                <ellipse id="Oval" fill="#D8D8D8" opacity="0.240118118" cx="73.6591527" cy="70.5" rx="53" ry="24.5"></ellipse>
                <g id="Group-2" transform="translate(30.659153, 15.000000)">
                    <g id="Group">
                        <polygon id="Path-5" fill="#FFFFFF" points="2.57142857 8.27715989 11.7839346 33.9014778 72.9238095 33.9014778 78.8571429 8.27715989"></polygon>
                        <path d="M1.71428571,7.75446879 L78.7142857,7.33004926 L77.8681319,10.1533101 L50.773016,10.1533101 C50.773016,13.1483749 47.3514476,15.5763547 43.1307292,15.5763547 C38.9100108,15.5763547 35.4884425,13.1483749 35.4884425,10.1533101 L2.56043956,10.1533101 L1.71428571,7.75446879 Z" id="Path" fill="#D1D1D1"></path>
                        <path d="M1.71428571,8.38361405 L1.71428571,0 L79.7142857,0 L79.7142857,8.38361405 L49.7645526,8.484681 C49.7645526,12.4013042 46.0970364,15.5763547 41.572926,15.5763547 C37.0488156,15.5763547 33.3812994,12.4013042 33.3812994,8.484681 L1.71428571,8.484681 L1.71428571,8.38361405 Z" id="Path" fill="#017AFF"></path>
                        <path d="M1.71428571,8.38361405 L1.71428571,0 L79.7142857,0 L79.7142857,8.38361405 L49.7645526,8.484681 C49.7645526,12.4013042 46.0970364,15.5763547 41.572926,15.5763547 C37.0488156,15.5763547 33.3812994,12.4013042 33.3812994,8.484681 L1.71428571,8.38361405 Z" id="Path" stroke="#31383E" stroke-linecap="round" stroke-linejoin="round"></path>
                        <path d="M0,50.3940887 C19.2992836,50.3940887 30.1283046,50.3940887 32.4870629,50.3940887 C34.8458212,54.364532 37.7655145,56.3497537 41.2461429,56.3497537 C46.2187991,56.3497537 49.6651195,54.364532 51.5851039,50.3940887 L84,50.3940887 L72.969697,33.9014778 L11.030303,33.9014778 L0,50.3940887 Z" id="Path-3" fill="#FFFFFF"></path>
                        <polygon id="Path-15" fill="#FFFFFF" points="12.1358324 41.1120463 70.0571987 41.1120463 77.1930804 52.226601 77.1930804 58.1992669 5.05469388 58.1992669 6.22767857 50.3940887"></polygon>
                        <polyline id="Path-6" stroke="#31383E" points="1.71428571 8.484681 11.1155595 33.7819971 73.0735212 33.7819971"></polyline>
                        <path d="M11.030303,33.9014778 L12.2084263,41.1120463 C8.22126116,47.3000746 6.22767857,50.3940887 6.22767857,50.3940887" id="Path-8" stroke="#31383E"></path>
                        <polyline id="Path-13" stroke="#31383E" points="12.2084263 41.2315271 70.0571987 41.1120463 72.8571429 33.9014778"></polyline>
                        <path d="M12.3524907,41.2315271 L70.0730182,41.2315271 L77.1930804,52.226601 C59.8994345,52.226601 51.2526116,52.226601 51.2526116,52.226601 C51.2526116,52.226601 50.4638614,55.5251593 47.287984,57.2660099 C46.4639589,57.7176975 44.7209947,57.7176975 42.0590915,57.2660099 C39.8627428,57.0486892 38.3188637,56.5905611 37.4274542,55.8916256 C36.5360447,55.1926901 35.937534,53.9710152 35.6319221,52.226601 L5.19308036,52.226601 L12.3524907,41.2315271 Z" id="Path-16" fill="#D1D1D1" fill-rule="nonzero"></path>
                        <path d="M0,61.3891626 L0,49.4778325 L84,49.4778325 L84,61.13573 L50.5505022,61.2113385 C48.6185826,58.7003444 45.2776401,57.1752337 42.0476847,56.9716268 C38.8177294,56.7680198 37.8593221,58.4588044 35.1013427,60.4729064 L0,61.3891626 Z" id="Path-Copy" fill="#F5002E" transform="translate(42.000000, 55.433498) scale(1, -1) translate(-42.000000, -55.433498) "></path>
                        <path d="M0.245620665,49.4778325 C-0.0818735548,57.4187192 -0.0818735548,61.3891626 0.245620665,61.3891626 L83.1097196,61.3891626 C83.6009609,61.3891626 84,60.7996407 84,60.0739035 L84,49.4778325 L50.1982414,49.4778325 C48.8240856,52.5320197 46.2689334,54.0591133 42.5327846,54.0591133 C39.0344637,54.0591133 36.4510541,52.6847291 34.7825558,49.9359606 L0.245620665,49.4778325 Z" id="Path" stroke="#31383E" stroke-linecap="round" stroke-linejoin="round"></path>
                        <line x1="9.42857143" y1="26.5714286" x2="18.8571429" y2="15.5763547" id="Path" stroke="#5C6A74" stroke-linecap="round" stroke-linejoin="round" transform="translate(14.142857, 21.073892) scale(1, -1) translate(-14.142857, -21.073892) "></line>
                        <line x1="14.5714286" y1="26.5714286" x2="23.1428571" y2="15.5763547" id="Path" stroke="#5C6A74" stroke-linecap="round" stroke-linejoin="round" transform="translate(18.857143, 21.073892) scale(1, -1) translate(-18.857143, -21.073892) "></line>
                        <line x1="60.8571429" y1="57.7241379" x2="65.1428571" y2="57.7241379" id="Path" stroke="#FFFFFF" stroke-linecap="round" stroke-linejoin="round"></line>
                    </g>
                    <line x1="70.0571987" y1="41.1120463" x2="76.0898437" y2="50.3940887" id="Path-14" stroke="#31383E"></line>
                    <path d="M63.1510711,54.5100831 L74.7026926,54.5100831 M63.1510711,54.7463054 L63.1510711,58.182266" id="Shape-Copy" stroke="#FFFFFF" stroke-linecap="round" stroke-linejoin="round" transform="translate(71.358806, 56.117111) scale(-1, -1) translate(-71.358806, -56.117111) "></path>
                </g>
                <g transform="translate(0.000000, -0.000000)" fill-rule="nonzero">
                    <path d="M10.4394315,87.7118998 C10.4044939,88.8884957 10.9073409,89.8225914 11.6258153,90.5410662 C12.2404687,91.1557198 13.0129315,91.6125558 13.8787098,91.8474691 C13.0127329,92.0824074 12.2404066,92.5392049 11.6258423,93.1537694 C11.0107389,93.7688731 10.5536846,94.5420176 10.3189228,95.408393 C10.0841332,94.5416932 9.62713609,93.768727 9.01215498,93.153738 C8.39750996,92.5390851 7.62505687,92.0822464 6.75927887,91.8473184 C7.62525071,91.6123803 8.39757285,91.1555856 9.01213483,90.5410252 C9.7601261,89.7930359 10.2744011,88.8113426 10.4394315,87.7118998 Z" id="Path" stroke="#FFFFFF"></path>
                    <path d="M138.799019,5.90379577 C138.710605,6.13322791 138.611244,6.35800675 138.501395,6.57733831 C138.34675,6.88611372 138.170936,7.18485674 137.97488,7.4712139 C137.435426,8.25913216 136.752287,8.93928879 135.960915,9.47638815 C135.673376,9.67153901 135.373403,9.84654502 135.0632,10.000449 C134.842855,10.1097712 134.617079,10.2085791 134.386625,10.2964514 C134.617064,10.3844803 134.842828,10.4834071 135.063121,10.5927758 C135.37325,10.7467453 135.673303,10.9217909 135.960915,11.1169916 C136.752287,11.6540909 137.435426,12.3342475 137.97488,13.1221658 C138.170886,13.4084498 138.346659,13.7071134 138.501238,14.0159622 C138.61104,14.2353458 138.710281,14.4601356 138.798538,14.6895839 C138.886951,14.4601518 138.986313,14.2353729 139.096162,14.0160414 C139.250807,13.707266 139.42662,13.408523 139.622677,13.1221658 C140.162131,12.3342475 140.845269,11.6540909 141.636642,11.1169916 C141.924181,10.9218407 142.224154,10.7468347 142.534356,10.5929307 C142.754702,10.4836085 142.980477,10.3848006 143.210931,10.2969283 C142.980493,10.2088994 142.754728,10.1099726 142.534435,10.0006039 C142.224306,9.84663441 141.924254,9.67158876 141.636642,9.47638815 C140.845269,8.93928879 140.162131,8.25913216 139.622677,7.4712139 C139.42667,7.18492995 139.250897,6.88626625 139.096319,6.57741751 C138.986517,6.35803386 138.887276,6.1332441 138.799019,5.90379577 Z" id="Path" stroke="#FFFFFF"></path>
                    <path d="M132.621969,24.996312 C132.426008,24.9938964 132.23242,24.9530466 132.05216,24.8760737 C131.868638,24.8033573 131.700613,24.6963511 131.55705,24.5607636 C131.492756,24.4892377 131.432599,24.4140913 131.376873,24.3356923 C131.319832,24.2520913 131.274492,24.1610677 131.242116,24.0651562 C131.198833,23.9798897 131.168235,23.8887473 131.151293,23.7946201 C131.112231,23.5963829 131.112231,23.3924167 131.151293,23.1941795 C131.168235,23.1000523 131.198833,23.0089099 131.242116,22.9236434 C131.274655,22.8280301 131.319987,22.7372711 131.376873,22.6538431 C131.432215,22.5751752 131.492369,22.5000126 131.55699,22.4287867 C131.700334,22.2927501 131.868405,22.1854853 132.0521,22.1128009 C132.610899,21.8790032 133.255274,22.003549 133.686948,22.4287867 C133.746947,22.5035603 133.807066,22.5783488 133.867125,22.6538581 C133.923443,22.7376193 133.968736,22.8283005 134.001882,22.9236584 C134.045364,23.0087107 134.075502,23.0999589 134.091235,23.1941945 C134.13225,23.3922359 134.13225,23.5965937 134.091235,23.7946351 C134.075502,23.8888707 134.045364,23.9801189 134.001882,24.0651712 C133.968898,24.1608283 133.923597,24.2517732 133.867125,24.3357073 C133.807126,24.4104808 133.747007,24.4852694 133.686948,24.5607786 C133.399174,24.834653 133.018999,24.9901291 132.621969,24.996312 L132.621969,24.996312 Z" id="Path" stroke="#FFFFFF"></path>
                    <path d="M1.50024572,82.1493216 C1.39956908,82.1465905 1.29922282,82.1365779 1.19999491,82.1193623 C1.10624208,82.1027013 1.01544453,82.0723891 0.930504064,82.0293943 C0.834577496,81.996499 0.743462026,81.9509956 0.659558455,81.8940829 C0.584870692,81.8347484 0.510167931,81.7748297 0.435420178,81.714911 C0.303024701,81.5692018 0.196511264,81.4019824 0.120471779,81.2204618 C0.036081178,81.0428718 -0.00503268328,80.8478547 0.000491436131,80.6513539 C0.00568646525,80.2546746 0.16108247,79.8746755 0.435420178,79.5877967 L0.659498465,79.4078608 C0.743402036,79.3509482 0.834517505,79.3054447 0.930444074,79.2725494 C1.01529818,79.22946 1.10616861,79.1993878 1.19999491,79.1833454 C1.39214045,79.1379804 1.59222863,79.1379804 1.78437417,79.1833454 C1.88385209,79.1971416 1.98035656,79.227294 2.06997237,79.2725794 C2.16543313,79.305499 2.25606457,79.3510051 2.33946322,79.4078908 C2.41415098,79.4678095 2.4903235,79.5278481 2.56501127,79.5878267 C2.83878473,79.8750633 2.99410509,80.2548143 3,80.6513539 C2.99758718,80.8470536 2.95678421,81.0403823 2.87989968,81.2204019 C2.80386019,81.4019225 2.69734675,81.5691419 2.56495128,81.7148511 C2.49026351,81.7747698 2.41409099,81.8348083 2.33940323,81.894053 C2.25600458,81.9509387 2.16537314,81.9964448 2.06991238,82.0293644 C1.98020244,82.0745628 1.88375351,82.1049458 1.78431418,82.1193323 C1.69052818,82.1365445 1.59556199,82.1465702 1.50024572,82.1493216 Z" id="Path" fill="#D1D1D1"></path>
                    <path d="M130.773438,3.05714286 C129.199646,3.30617132 127.965324,4.54049339 127.716296,6.11428571 C127.467267,4.54049339 126.232945,3.30617132 124.659153,3.05714286 C126.232945,2.80811439 127.467267,1.57379233 127.716296,7.99360578e-14 C127.965324,1.57379233 129.199646,2.80811439 130.773438,3.05714286 Z" id="Path-Copy" fill="#F5002E"></path>
                </g>
            </g>
        </g>
    </g>
</svg>