<?xml version="1.0" encoding="UTF-8"?>
<svg width="21px" height="21px" viewBox="0 0 21 21" version="1.1" xmlns="http://www.w3.org/2000/svg" xmlns:xlink="http://www.w3.org/1999/xlink">
    <title>icons\vi copy 2</title>
    <g id="Page-1" stroke="none" stroke-width="1" fill="none" fill-rule="evenodd">
        <g id="ui-style-guide-menu-&amp;-builder" transform="translate(-709.000000, -359.000000)">
            <g id="icons\vi-copy-2" transform="translate(709.000000, 359.000000)">
                <rect id="Rectangle" x="0" y="0" width="21" height="21"></rect>
                <path d="M10.66662,3.16642 C6.52434501,3.16642 3.166495,6.52423024 3.166495,10.6665 C3.166495,14.8086123 6.52439751,18.166475 10.66662,18.166475 C14.8084473,18.166475 18.166415,14.8084974 18.166415,10.6665 C18.166415,6.5243451 14.8084998,3.16642 10.66662,3.16642 Z M10.66662,4.16642 C14.2562144,4.16642 17.166415,7.07662918 17.166415,10.6665 C17.166415,14.2562133 14.2561619,17.166475 10.66662,17.166475 C7.07667961,17.166475 4.166495,14.2563249 4.166495,10.6665 C4.166495,7.07651765 7.0766271,4.16642 10.66662,4.16642 Z" id="Ellipse-1350-copy-3" fill="#D5D5D5" fill-rule="nonzero"></path>
            </g>
        </g>
    </g>
</svg>