<svg xmlns="http://www.w3.org/2000/svg" viewBox="0 0 141 68">
  <g fill="none" fill-rule="evenodd">
    <g transform="translate(26.518)">
      <polygon fill="#FFF" points="1.974 7.402 1.974 0 83.112 0 83.112 7.402 75.047 32.362 10.999 32.362"/>
      <g transform="rotate(10 -60.39 209.532)">
        <path fill="#FFFFFE" d="M14.9233932,2.63155582 L10.796112,0.161669147 C10.6218887,0.0574424972 10.3902964,0 10.1439503,0 C9.89760423,0 9.66595311,0.0574424972 9.49172983,0.161669147 L0.26971103,5.68047553 C-0.0899036768,5.89575298 -0.0899036768,6.24589543 0.26971103,6.46106736 L4.39687465,8.93141132 C4.57109793,9.03567314 4.80269027,9.09308046 5.04909512,9.09308046 C5.29544118,9.09308046 5.52703353,9.03567314 5.70119802,8.93141132 L14.9233344,3.4120773 C15.2828315,3.19694055 15.2828315,2.8467981 14.9233932,2.63155582"/>
        <path fill="#F5002E" d="M11.0017824,3.52122859 C10.7681328,3.66084235 10.4612436,3.73059647 10.1563528,3.73059647 C9.85099186,3.73052612 9.5447492,3.66084235 9.31080566,3.52122859 C9.07774383,3.38168518 8.96030182,3.19817171 8.96024304,3.0154321 C8.96030182,2.83234074 9.07774383,2.64875691 9.31080566,2.50949491 C9.54469042,2.3699515 9.85052162,2.29959939 10.1563528,2.29963456 C10.4612436,2.29963456 10.7681328,2.36938869 11.0017824,2.50956526 C11.2344916,2.64875691 11.3522863,2.83237592 11.3522275,3.0154321 C11.3522863,3.19792548 11.2344916,3.38161483 11.0017824,3.52122859 Z M14.631434,2.80715468 L10.5042116,0.337303187 C10.305242,0.218232243 9.98265857,0.218232243 9.78363023,0.337303187 L5.32124551,3.00776372 L10.1689905,5.90876812 L14.631434,3.23834276 C14.8304035,3.11927182 14.8304035,2.92626081 14.631434,2.80715468 L14.631434,2.80715468 Z"/>
        <path fill="#017AFF" d="M5.95336329,5.58367103 C6.18671902,5.4437055 6.49307925,5.37395138 6.79849899,5.37395138 C7.10438898,5.37391621 7.41074921,5.4437055 7.64369348,5.58367103 C7.87804847,5.72321443 7.9948439,5.90602439 7.99478514,6.08957304 C7.99478514,6.272383 7.87804847,6.45568542 7.64369348,6.59494742 C7.41074921,6.73406872 7.10438898,6.80424494 6.79849899,6.804456 C6.49284413,6.804456 6.18671902,6.73413907 5.95342207,6.59494742 C5.71983121,6.45529848 5.60303578,6.27196089 5.60303578,6.08957304 C5.60303578,5.90655203 5.71988999,5.72324961 5.95336329,5.58367103 Z M4.13571608,6.56652517 C3.90177255,6.70550576 3.59541233,6.77529505 3.29005136,6.77529505 C2.98386747,6.77525988 2.67785993,6.70554093 2.44444541,6.56652517 C2.21067822,6.42712246 2.09482327,6.24367934 2.09476449,6.06090456 C2.09476449,5.87784837 2.21126601,5.69454595 2.44450419,5.55440455 C2.67785993,5.41500184 2.98386747,5.34535326 3.29005136,5.34524773 C3.59541233,5.34535326 3.90224279,5.41500184 4.13571608,5.55451008 C4.36895426,5.69454595 4.48522067,5.87784837 4.48492732,6.06062315 C4.48492732,6.24353863 4.36895426,6.42726317 4.13571608,6.56652517 Z M0.561611429,5.85515982 C0.362583086,5.97430111 0.362583086,6.16731212 0.561611429,6.28638307 L4.68877505,8.75672703 C4.78828922,8.81628009 4.91866278,8.84603903 5.04909512,8.84603903 C5.17946867,8.84603903 5.30990101,8.81628009 5.4093564,8.75672703 L9.86956627,6.08711072 L5.0218213,3.18600079 L0.561611429,5.85515982 L0.561611429,5.85515982 Z"/>
        <path fill="#FFF" d="M6.56479774,9.16280519 L6.6224707,9.16280519 C6.66080758,9.16280519 6.68796752,9.15654261 6.70361522,9.14412928 C6.71937469,9.13171594 6.72719855,9.11561216 6.72719855,9.09592977 C6.72719855,9.07624737 6.71971,9.06025542 6.70462115,9.04784209 C6.68953229,9.03531693 6.66393712,9.02916618 6.62761209,9.02916618 L6.56479774,9.02916618 L6.56479774,9.16280519 Z M6.43190403,8.93612212 L6.67086682,8.93612212 C6.73859902,8.93612212 6.78755397,8.9497656 6.81795522,8.97705256 C6.84824471,9.00433952 6.86344533,9.04090852 6.86344533,9.08675956 C6.86344533,9.12265757 6.85182133,9.15363498 6.82868508,9.17980362 C6.80554883,9.20608409 6.76911204,9.2250955 6.71937469,9.23683784 C6.73982848,9.24466607 6.75491733,9.25305345 6.7645295,9.26177633 C6.77805358,9.273966 6.79224828,9.29208275 6.8071136,9.31612659 C6.80800776,9.3179159 6.83684424,9.36947036 6.89351128,9.47078998 L6.73636363,9.47078998 C6.68528506,9.36902303 6.65097188,9.30818653 6.63353587,9.28828047 C6.61609985,9.26837441 6.59866384,9.25842138 6.58111606,9.25842138 C6.57720413,9.25842138 6.57172744,9.25909237 6.56479774,9.26043435 L6.56479774,9.47078998 L6.43190403,9.47078998 L6.43190403,8.93612212 Z M7.06183586,9.20340013 C7.06183586,9.09201565 7.02249306,8.99684679 6.9436957,8.91800537 C6.86478656,8.83916394 6.76978265,8.79979915 6.65846042,8.79979915 C6.54713819,8.79979915 6.45202251,8.83916394 6.37322515,8.91800537 C6.29442779,8.99684679 6.25497322,9.09201565 6.25497322,9.20340013 C6.25497322,9.31478461 6.29442779,9.40995348 6.37322515,9.4887949 C6.45202251,9.56763632 6.54713819,9.60711295 6.65846042,9.60711295 C6.76978265,9.60711295 6.86478656,9.56763632 6.9436957,9.4887949 C7.02249306,9.40995348 7.06183586,9.31478461 7.06183586,9.20340013 Z M7.15873985,9.20340013 C7.15873985,9.29297741 7.13638598,9.37640393 7.09167826,9.45367971 C7.04685877,9.53106732 6.98594449,9.59201565 6.90860013,9.63652471 C6.83136754,9.6811456 6.74798764,9.70340013 6.65846042,9.70340013 C6.56938028,9.70340013 6.48622392,9.6811456 6.40887956,9.63652471 C6.33164696,9.59201565 6.27062092,9.53106732 6.2259132,9.45367971 C6.18109371,9.37640393 6.15873985,9.29297741 6.15873985,9.20340013 C6.15873985,9.11427018 6.18109371,9.03095549 6.2259132,8.95345605 C6.27062092,8.87595661 6.33164696,8.81489644 6.40887956,8.77027555 C6.48622392,8.72576649 6.56938028,8.70340013 6.65846042,8.70340013 C6.74798764,8.70340013 6.83136754,8.72576649 6.90860013,8.77027555 C6.98594449,8.81489644 7.04685877,8.87595661 7.09167826,8.95345605 C7.13638598,9.03095549 7.15873985,9.11427018 7.15873985,9.20340013 L7.15873985,9.20340013 Z"/>
      </g>
      <path fill="#C5C4C4" d="M10.9989232,32.441106 L75.0469253,32.3618289 L86.5332604,48.480623 C66.4346123,54.0745411 51.3735261,56.8715001 41.3500017,56.8715001 C31.3264774,56.8715001 17.5431435,54.0745411 0,48.480623 L10.9989232,32.441106 Z"/>
      <g transform="translate(.74 .787)">
        <line x1="11.008" x2="22.315" y1="31.132" y2="31.132" stroke="#404D57" stroke-linecap="round" stroke-linejoin="round" stroke-width=".84"/>
        <line x1="61.956" x2="73.263" y1="31.132" y2="31.132" stroke="#404D57" stroke-linecap="round" stroke-linejoin="round" stroke-width=".84"/>
        <path stroke="#D1D1D1" stroke-linecap="round" stroke-linejoin="round" stroke-width=".952" d="M67.8053751,28.5939176 L14.4224322,28.5939176 C13.7516448,28.5939176 13.1518971,28.1759677 12.9196541,27.5466674 L7.9940732,14.200003 L7.9940732,14.200003"/>
        <g transform="rotate(-1 1842.714 -381.754)">
          <g transform="rotate(2 7.076 22.818)">
            <path fill="#D1D1D1" stroke="#2F383F" stroke-width=".455" d="M0.273659177,8.51569851 C0.0545763696,9.39257215 0.0736514952,10.2755467 0.0736514952,10.948423 C0.0736514952,13.0876899 3.09030299,16.0550839 8.10620771,17.5852386 C13.1221124,19.1153934 22.7151064,20.5350236 35.2040951,20.5350236 C47.6930838,20.5350236 51.4819968,19.778469 59.9999302,17.5852386 C68.1141899,15.4959477 70.3315282,11.9920958 70.3315282,10.948423 C70.3315282,10.1020618 70.442163,9.13623495 70.0856556,8.22859324"/>
            <path fill="#FFF" stroke="#2F383F" stroke-width=".455" d="M35.1274331,18.4356881 C47.6164218,18.4356881 51.4053348,17.6791336 59.9232683,15.4859032 C68.0375279,13.3966123 70.2548663,9.8927603 70.2548663,8.84908753 C70.2548663,3.96217894 54.5280217,0 35.1274331,0 C23.6555204,0 13.4681569,1.38540242 7.05742027,3.52818964 C5.88973559,3.91848797 4.84734753,4.33391395 3.94531573,4.77067247 C1.42464595,5.99116601 0,7.37824258 0,8.84908753 C0,10.9883544 3.01364103,13.9557485 8.02954576,15.4859032 C13.0454505,17.0160579 22.6384444,18.4356881 35.1274331,18.4356881 Z"/>
            <path fill="#D1D1D1" d="M19.0447944,17.5397914 C39.2959656,17.2304448 52.7176236,15.5460927 59.3097684,12.4867351 C65.9019133,9.42737755 66.719388,6.46435535 61.7621926,3.59766855 C71.2684046,6.47437512 72.7814529,9.55566418 66.3013375,12.8415357 C62.4915604,14.773359 54.0106437,17.8616648 43.9116566,18.1718501 C39.1926207,18.316793 30.9036666,18.1061067 19.0447944,17.5397914 Z" opacity=".515"/>
            <path fill="#017AFF" d="M50.4041148,4.58893128 C49.5134956,5.69352275 47.6535949,5.91711516 45.4748159,5.8846612 C43.0915784,5.84916174 41.8194181,4.91167563 41.833072,4.29710023 C41.8467383,3.68196815 43.7619303,2.85038566 46.1451679,2.88588513 C48.5284054,2.9213846 50.4581098,3.28362837 50.4627794,4.42564387 C50.4616081,4.47836845 50.4485942,4.5337657 50.4041148,4.58893128 Z" transform="rotate(-1 46.148 4.386)"/>
            <path fill="#D1D1D1" d="M54.5251498,12.3943384 C54.5251498,13.2423759 52.5723247,13.9306383 50.1629195,13.9306383 C47.7535143,13.9306383 45.8006892,13.2423759 45.8006892,12.3943384 C45.8006892,11.5455327 47.7535143,10.8580385 50.1629195,10.8580385 C52.5723247,10.8580385 54.5251498,11.5455327 54.5251498,12.3943384 L54.5251498,12.3943384 Z"/>
            <path fill="#017AFF" d="M38.8869676,13.4902256 C38.8869676,14.3382632 36.9341425,15.0265255 34.5247373,15.0265255 C32.1153321,15.0265255 30.162507,14.3382632 30.162507,13.4902256 C30.162507,12.6414199 32.1153321,11.9539257 34.5247373,11.9539257 C36.9341425,11.9539257 38.8869676,12.6414199 38.8869676,13.4902256 L38.8869676,13.4902256 Z"/>
            <path fill="#D1D1D1" d="M17.2078261,2.97463026 C16.0440441,3.46175811 15.2796,4.53101789 17.9815176,5.29119291 C21.8216705,6.37160645 23.8217358,5.29311935 24.0839842,4.43598597 C24.3462326,3.5788526 23.0868175,3.22411324 22.1992724,2.97463026 C21.3117273,2.72514729 18.3716081,2.48750242 17.2078261,2.97463026 Z"/>
            <path stroke="#383940" stroke-width=".426" d="M50.8096745,3.83143924 C49.9190553,4.93603071 48.0591545,5.15962312 45.8803755,5.12716916 C43.497138,5.09166969 42.2249778,4.15418359 42.2386316,3.53960819 C42.2522979,2.92447611 44.16749,2.09289362 46.5507275,2.12839309 C48.933965,2.16389255 50.8636694,2.52613633 50.8683391,3.66815183 C50.8671677,3.7208764 50.8541538,3.77627366 50.8096745,3.83143924 Z" transform="rotate(-1 46.553 3.629)"/>
            <path fill="#FFF" stroke="#383940" stroke-width=".512" d="M49.90082,3.60517941 C49.8949683,3.86856886 49.3536591,4.0743419 48.6916487,4.06448094 C48.0296383,4.05461997 47.4978274,3.8328623 47.503679,3.56947284 C47.509536,3.30584481 48.0508399,3.10031035 48.7128504,3.11017131 C49.3748608,3.12003228 49.906677,3.34155137 49.90082,3.60517941 L49.90082,3.60517941 Z" transform="rotate(-1 48.702 3.587)"/>
            <path fill="#FFF" stroke="#383940" stroke-width=".426" d="M38.0099638,12.8362357 C38.0099638,13.1578888 37.365987,13.4189407 36.5714451,13.4189407 C35.7769033,13.4189407 35.1329264,13.1578888 35.1329264,12.8362357 C35.1329264,12.5142911 35.7769033,12.2535306 36.5714451,12.2535306 C37.365987,12.2535306 38.0099638,12.5142911 38.0099638,12.8362357 L38.0099638,12.8362357 Z"/>
            <path fill="#FFF" stroke="#383940" stroke-width=".426" d="M23.6011679,3.55950837 C23.5954863,3.88500446 23.0478163,4.13969606 22.3777875,4.12800066 C21.7077588,4.11630527 21.169311,3.84265541 21.1749925,3.51715933 C21.1806792,3.19136841 21.7283441,2.93697164 22.3983729,2.94866704 C23.0684016,2.96036243 23.6068546,3.23371746 23.6011679,3.55950837 L23.6011679,3.55950837 Z" transform="rotate(-1 22.388 3.538)"/>
            <path stroke="#404042" stroke-width=".426" d="M55.1018559,11.5795328 C55.1018559,12.4275704 53.1490308,13.1158327 50.7396256,13.1158327 C48.3302205,13.1158327 46.3773954,12.4275704 46.3773954,11.5795328 C46.3773954,10.7307271 48.3302205,10.0432329 50.7396256,10.0432329 C53.1490308,10.0432329 55.1018559,10.7307271 55.1018559,11.5795328 L55.1018559,11.5795328 Z"/>
            <path stroke="#383940" stroke-width=".426" d="M39.4896634,12.8963613 C39.4896634,13.7443989 37.5368383,14.4326612 35.1274331,14.4326612 C32.718028,14.4326612 30.7652029,13.7443989 30.7652029,12.8963613 C30.7652029,12.0475556 32.718028,11.3600614 35.1274331,11.3600614 C37.5368383,11.3600614 39.4896634,12.0475556 39.4896634,12.8963613 L39.4896634,12.8963613 Z"/>
            <path stroke="#383940" stroke-linecap="round" stroke-width=".724" d="M22.2938997 10.4556889C22.1940404 10.6861714 21.7331513 10.8333199 21.2615081 10.7845206 20.7898649 10.7364721 20.3274394 10.8836206 20.2275801 11.1141031 20.1292571 11.3445857 19.6668317 11.4917341 19.1951885 11.4429349 18.7235453 11.3948864 18.2611198 11.5420348 18.1612605 11.7725174M41.7855741 9.58368115C41.3473302 9.6601227 40.8857134 9.51731981 40.7527795 9.26447469 40.6198455 9.01246959 40.1582287 8.8696667 39.7199849 8.94610825 39.2802802 9.02170978 38.8186634 8.87890689 38.6871903 8.62690179 38.5542563 8.37489669 38.0926395 8.2320938 37.6529349 8.30769533M32.1427493 7.38896698C31.7045055 7.46540853 31.2414278 7.32260564 31.1099547 7.06976052 30.9770207 6.81775542 30.5154039 6.67495253 30.0771601 6.75139408 29.6374555 6.82699561 29.1758386 6.68419272 29.0429047 6.43218762 28.9114315 6.18018252 28.4483539 6.03737963 28.0101101 6.11298116"/>
          </g>
          <path fill="#FFF" stroke="#383940" stroke-width=".426" d="M54.7674547,13.097853 C54.7674547,13.4195061 54.2308073,13.680558 53.5686891,13.680558 C52.9065709,13.680558 52.3699235,13.4195061 52.3699235,13.097853 C52.3699235,12.7759084 52.9065709,12.5151479 53.5686891,12.5151479 C54.2308073,12.5151479 54.7674547,12.7759084 54.7674547,13.097853 L54.7674547,13.097853 Z"/>
          <path stroke="#404042" stroke-width=".426" d="M18.3886878,3.04690908 C17.2249057,3.53403692 16.4604617,4.6032967 19.1623793,5.36347172 C23.0025322,6.44388526 25.0025975,5.36539816 25.2648458,4.50826479 C25.5270942,3.65113141 24.2676791,3.29639205 23.3801341,3.04690908 C22.492589,2.7974261 19.5524698,2.55978123 18.3886878,3.04690908 Z"/>
          <g transform="translate(7.27 5.915)">
            <path fill="#F5002E" d="M4.37420391,5.9963838 C3.343942,6.22244657 2.52687174,6.11075137 1.92299313,5.66129822 C1.01717521,4.98711849 0.591616114,3.76482495 1.40821204,2.64009962 C1.95260933,1.89028273 2.78557528,1.43381249 3.90710989,1.27068889 L3.7364612,2.88591365 C5.46741533,2.03651769 6.53203141,1.64923871 6.93030945,1.72407671 C7.52772651,1.83633372 7.95841406,2.68216388 6.90955459,3.48215032 C6.21031495,4.01547461 5.07476159,4.24626788 3.50289452,4.17453014 L4.37420391,5.9963838 Z" transform="rotate(24 4.26 3.69)"/>
            <path stroke="#404042" stroke-linejoin="round" stroke-width=".426" d="M4.87035656,5.21497833 C3.84115614,5.42837823 3.02288258,5.33103769 2.41553589,4.9229567 C1.50451585,4.31083521 1.07014807,3.19362388 1.87925694,2.15821476 C2.41866285,1.46794201 3.24884691,1.04465802 4.36980912,0.888362765 L4.21042561,2.36920072 C5.93629587,1.58045228 6.99873496,1.21914358 7.39774287,1.28527464 C7.99625474,1.38447123 8.43310763,2.15675252 7.38933392,2.8960689 C6.69348478,3.38894649 5.55897226,3.60732324 3.98579635,3.55119917 L4.87035656,5.21497833 Z" transform="rotate(24 4.736 3.107)"/>
          </g>
          <path fill="#F5002E" d="M55.7933967,9.30632021 C54.7437119,7.66058153 54.9924223,6.60037765 56.5395281,6.12570856 C58.0866338,5.65103947 59.9466189,6.20563796 62.1194834,7.78950404 L60.1078518,8.06939844 C62.2569104,9.3730047 63.4139024,10.1868578 63.5788278,10.5109578 C63.8262158,10.9971078 63.1444531,11.660329 61.5889491,11.2144918 C60.5884462,10.9277285 59.3406076,9.53674773 58.4358472,8.48690916 C58.4028402,8.44860947 57.9990644,8.43720636 57.1389113,8.74487585 C56.565476,8.94998885 56.1169711,9.13713697 55.7933967,9.30632021 Z" transform="scale(-1 1) rotate(-27 0 256.05)"/>
          <path stroke="#404042" stroke-linejoin="round" stroke-width=".426" d="M55.3223321,8.91112962 C54.2726472,7.26539094 54.5213577,6.20518706 56.0684634,5.73051797 C57.6155692,5.25584888 59.4755543,5.81044737 61.6484187,7.39431344 L59.6367871,7.67420785 C61.7858457,8.9778141 62.9428377,9.79166723 63.1077631,10.1157672 C63.3551511,10.6019172 62.6733885,11.2651384 61.1178844,10.8193012 C60.1173815,10.532538 58.8695429,9.14155714 57.9647825,8.09171856 C57.9317755,8.05341887 57.5279997,8.04201576 56.6678467,8.34968526 C56.0944113,8.55479825 55.6459064,8.74194637 55.3223321,8.91112962 Z" transform="scale(-1 1) rotate(-27 0 253.693)"/>
          <path fill="#F5002E" d="M31.741461,5.56136223 C31.6310351,4.87705711 31.706573,4.35065522 31.9680748,3.98215655 C32.3603274,3.42940855 33.3510452,2.67405042 34.7555139,2.33108007 C35.6918264,2.10243317 36.5690568,2.07383677 37.3872052,2.24529088 L34.6193618,3.39629648 C36.0601355,3.42662093 36.8196997,3.57094042 36.8980546,3.82925497 C36.9528886,4.01002776 35.8771955,4.79080842 35.2798618,4.69260063 C34.5333659,4.56986904 33.9836699,4.35815797 33.6307738,4.05746743 L31.741461,5.56136223 Z" transform="rotate(27 34.54 3.848)"/>
          <path stroke="#404042" stroke-linejoin="round" stroke-width=".426" d="M31.7498295,5.17295138 C31.6394036,4.48864626 31.7149416,3.96224437 31.9764433,3.5937457 C32.368696,3.04099769 33.3594137,2.28563956 34.7638824,1.94266921 C35.7001949,1.71402231 36.5774254,1.68542592 37.3955737,1.85688003 L34.6277304,3.00788562 C36.068504,3.03821007 36.8280683,3.18252957 36.9064231,3.44084412 C36.9612571,3.62161691 35.885564,4.40239757 35.2882303,4.30418977 C34.5417345,4.18145818 33.9920385,3.96974712 33.6391424,3.66905658 L31.7498295,5.17295138 Z" transform="rotate(27 34.548 3.46)"/>
        </g>
        <path stroke="#404D57" stroke-linecap="round" stroke-linejoin="round" stroke-width=".84" d="M.248246578 47.2185719L11.007769 31.1321283 9.31099207 26.7184072M7.99531787 23.2960251L2.17910353 7.20960287M81.5509803 7.20960287L80.1247771 12.0948016M78.8600273 15.8201948L73.6617129 31.1321283 79.8260959 40.0005826 81.9179603 43.0100653 84.3833744 46.5569592 84.8980383 47.2185719"/>
        <path fill="#F5002E" d="M2.17910353,7.09342623 L2.17910353,0 L79.2090062,0 L79.174575,7.15970912 L51.7413986,7.15970912 C50.1018789,9.84873393 48.44128,12.6092931 42.7943364,13.2619005 C37.1473928,13.914508 34.8325662,10.7758418 34.8325662,7.64749628 L2.17910353,7.09342623 Z"/>
        <path stroke="#404D57" stroke-linecap="round" stroke-linejoin="round" stroke-width=".84" d="M2.07421972,7.18465616 L2.07421972,0 L81.5509803,0 L81.5509803,7.18465616 L51.034214,7.27126932 C51.034214,10.6277682 47.2972614,13.3487482 42.6874968,13.3487482 C38.0777321,13.3487482 34.3407795,10.6277682 34.3407795,7.27126932 L4.16365024,7.27126932 C4.15623684,7.27126932 4.14882424,7.27111493 4.14141727,7.27080625"/>
        <path fill="#017AFF" d="M2.17910353,57.6504009 L2.17910353,46.9800942 L2.17910353,46.9800942 L84.8980383,46.9800942 L84.8980383,57.9500655 L52.4675204,57.9500655 C41.8126,47.3202325 37.4409888,54.6217253 32.6714361,57.9500655 L2.7172293,58.1843345 C2.42234592,58.1866407 2.18142611,57.9494601 2.17911986,57.6545767 C2.17910897,57.6531848 2.17910353,57.6517928 2.17910353,57.6504009 Z" transform="matrix(1 0 0 -1 0 105.169)"/>
        <path fill="#017AFF" stroke="#404D57" stroke-linecap="round" stroke-linejoin="round" stroke-width=".84" d="M0.248246578,47.2185719 C-0.0827488595,54.531886 -0.0827488595,58.1885431 0.248246578,58.1885431 L83.9982399,58.1885431 C84.4947331,58.1885431 84.8980383,57.6456115 84.8980383,56.9772297 L84.8980383,47.2185719 L52.4675204,47.2185719 C50.1152134,50.8752289 46.934698,52.7035575 42.9259744,52.7035575 C39.4050796,52.7035575 36.2165133,50.8752289 33.3602754,47.2185719 L0.248246578,47.2185719 Z"/>
      </g>
    </g>
    <g fill="#FFF" fill-rule="nonzero" transform="translate(0 3.916)">
      <path d="M111.925836 22.8461632C111.817539 22.8461632 111.709242 22.8461632 111.637044 22.8101849 111.059458 22.6302932 110.734566 22.05464 110.915062 21.4789868L110.915062 21.4070301C111.095557 20.8313769 111.673143 20.507572 112.250728 20.6874636 112.828314 20.8673552 113.153206 21.4430085 112.97271 22.0186617L112.97271 22.0906183C112.828314 22.5223582 112.395125 22.8461632 111.925836 22.8461632zM130.767758 7.36785918C130.65946 7.36785918 130.551163 7.36785918 130.478965 7.33188086 129.901379 7.15198923 129.576488 6.57633601 129.756983 6.0006828L129.756983 5.92872614C129.937478 5.35307293 130.515064 5.02926799 131.092649 5.20915962 131.670235 5.38905125 131.995127 5.96470447 131.814631 6.54035769L131.814631 6.61231434C131.670235 7.04405425 131.237046 7.36785918 130.767758 7.36785918zM139.903234 2.20842452C139.794937 2.20842452 139.68664 2.20842452 139.614442 2.17244619 139.036856 1.99255456 138.711964 1.41690135 138.89246.841248132L138.89246.76929148C139.072955.193638264 139.650541-.13016667 140.228126.0497249601 140.805712.22961659 141.130604.805269806 140.950108 1.38092302L140.950108 1.45287967C140.805712 1.88461959 140.372523 2.20842452 139.903234 2.20842452zM135.335496 14.2471054C135.227199 14.2471054 135.118901 14.2471054 135.046703 14.2111271 134.469118 14.0312354 134.144226 13.4555822 134.324721 12.879929L134.324721 12.8079724C134.505217 12.2323191 135.082802 11.9085142 135.660388 12.0884058 136.237973 12.2682975 136.562865 12.8439507 136.38237 13.4196039L136.38237 13.4915606C136.237973 13.9233005 135.804784 14.2471054 135.335496 14.2471054z"/>
      <path d="M1.12282726,45.385512 C1.00818318,45.385512 0.893539094,45.385512 0.817109704,45.3481545 C0.205674583,45.1613669 -0.138257672,44.5636466 0.0528158031,43.9659264 L0.0528158031,43.8912114 C0.243889278,43.2934911 0.855324399,42.9572735 1.46675952,43.144061 C2.07819464,43.3308486 2.42212689,43.9285689 2.23105342,44.5262891 L2.23105342,44.6010042 C2.07819464,45.0492944 1.6196183,45.385512 1.12282726,45.385512 Z M11.9712061,39.0795363 C11.856562,39.0795363 11.7419179,39.0795363 11.6654885,39.0421788 C11.0540534,38.8553912 10.7101211,38.2576709 10.9011946,37.6599507 L10.9011946,37.5852357 C11.0922681,36.9875154 11.7037032,36.6512978 12.3151383,36.8380853 C12.9265734,37.0248729 13.2705057,37.6225932 13.0794322,38.2203134 L13.0794322,38.2950285 C12.9265734,38.7433187 12.4679971,39.0795363 11.9712061,39.0795363 Z M6.83250032,52.8380287 C6.71785623,52.8380287 6.60321215,52.8380287 6.52678276,52.8006712 C5.91534764,52.6138836 5.57141538,52.0161634 5.76248886,51.4184431 L5.76248886,51.3437281 C5.95356233,50.7460078 6.56499745,50.4097902 7.17643257,50.5965778 C7.7878677,50.7833654 8.13179995,51.3810856 7.94072648,51.9788059 L7.94072648,52.0535209 C7.7878677,52.5018111 7.32929135,52.8380287 6.83250032,52.8380287 Z" transform="matrix(-1 0 0 1 13.132 0)"/>
    </g>
  </g>
</svg>
