<?xml version="1.0" encoding="UTF-8"?>
<svg width="107px" height="110px" viewBox="0 0 107 110" version="1.1" xmlns="http://www.w3.org/2000/svg" xmlns:xlink="http://www.w3.org/1999/xlink">
    <title>icons/illustrated/empty state copy</title>
    <g id="Page-1" stroke="none" stroke-width="1" fill="none" fill-rule="evenodd">
        <g id="לאן-המשלוח_תצוגת-כתובת-אחת_empty-state" transform="translate(-134.000000, -256.000000)">
            <g id="icons/illustrated/empty-state-copy" transform="translate(134.000000, 257.000000)">
                <g id="Group-2" transform="translate(16.000000, -1.000000)">
                    <g id="Group" transform="translate(0.194444, 0.612613)">
                        <path d="M38.5038035,66.0480006 C42.980659,66.0480006 46.6098674,69.9753588 46.6098674,74.8200006 L46.6098674,83.5920006 L40.5303195,83.5920006 L40.5303195,74.8200006 C40.5303195,71.1387376 38.4348456,67.9871063 35.4642752,66.6857416 C36.4031482,66.2743464 37.4290496,66.0480006 38.5038035,66.0480006 Z" id="Combined-Shape" fill="#D1D1D1" fill-rule="nonzero"></path>
                        <path d="M6.90761171,3.09600058 L66.3750272,3.09600058 C66.6511695,3.09600058 66.8750272,3.3198582 66.8750272,3.59600058 L66.8750272,25.0876485 C66.8750272,25.3637908 66.6511695,25.5876485 66.3750272,25.5876485 C66.3170825,25.5876485 66.2595789,25.5775763 66.2050839,25.5578817 L6.73766845,4.0662338 C6.47796581,3.97237673 6.34352141,3.68575995 6.43737849,3.42605731 C6.50896374,3.22798084 6.69699657,3.09600058 6.90761171,3.09600058 Z" id="Rectangle" fill="#F5002E"></path>
                        <path d="M10.6285202,8.84986338 C11.1057244,8.84986338 11.6312336,8.84986338 12.2050479,8.84986338 C14.0198856,8.84986338 19.7673436,8.84986338 29.4474217,8.84986338 C32.1841436,6.38995485 33.5525046,5.16000058 33.5525046,5.16000058 C33.5525046,5.16000058 37.3894069,6.6117545 40.7045778,6.5086518 C42.9146918,6.43991667 45.1147289,5.99036626 47.3046893,5.16000058 L50.9486186,8.84986338 L70.0957598,8.84986338 C70.3719021,8.84986338 70.5957598,9.07372101 70.5957598,9.34986338 L70.5957598,30.8415113 C70.5957598,31.1176536 70.3719021,31.3415113 70.0957598,31.3415113 C70.0378151,31.3415113 69.9803115,31.3314391 69.9258165,31.3117445 L10.4585769,9.82016018 C10.1988197,9.72635095 10.0643582,9.43969774 10.1582272,9.17996208 C10.2298215,8.98186042 10.4178783,8.84986338 10.6285202,8.84986338 Z" id="Rectangle-Copy" fill="#017AFF" transform="translate(38.844283, 18.356932) scale(-1, -1) translate(-38.844283, -18.356932) "></path>
                        <path d="M46.2127191,38.960072 C46.2127191,43.234756 42.5835107,46.700072 38.1066552,46.700072 C33.6297998,46.700072 30.0005913,43.234756 30.0005913,38.960072 C30.0005913,34.6853881 33.6297998,31.220072 38.1066552,31.220072 C42.5814274,31.2248707 46.2076935,34.6873773 46.2127191,38.960072 Z" id="Path" fill="#D1D1D1" fill-rule="nonzero"></path>
                        <path d="M66.1125823,1.42108547e-14 C67.2250463,0.00119966643 68.2362244,0.420119047 68.9724679,1.10852664 C69.6109018,1.70547971 70.041556,2.50703429 70.1320515,3.40477625 L70.1475121,3.6311529 L70.1498944,29.1015742 C71.418507,29.2918859 72.4820324,29.947854 73.1637719,30.8647636 C73.6731337,31.5498328 73.9678331,32.3806053 73.9678331,33.2605658 C73.9678331,34.1311423 73.6793907,34.9536075 73.179978,35.6344241 C72.5942413,36.4329207 71.7201765,37.0368252 70.673388,37.3119286 L70.428808,37.3695163 L70.426,37.564 L68.763,37.564 L68.7634878,37.4684389 L50.5854179,37.4684389 L48.8343424,39.6513963 L49.3072117,39.9522017 C50.4005028,40.6674087 51.4226989,41.4754348 52.3611546,42.3662878 C56.2781485,46.0676382 58.5348984,51.0539158 58.6886352,56.707787 L58.6888809,65.3685578 L58.768,65.368 L58.768,66.521 L58.6888516,66.5213088 L58.6888526,81.3775624 C58.6877754,82.2695131 58.3042528,83.0735252 57.6958473,83.6615041 C57.1221607,84.2159296 56.349994,84.5806569 55.4908765,84.6618766 L55.2544997,84.6769278 L45.3177251,84.6793059 L45.3177251,98.629123 C45.3177251,100.784714 44.3913767,102.731707 42.9069766,104.142774 C41.3911333,105.58373 39.2953331,106.468583 36.9839165,106.468583 C34.6973261,106.468583 32.6218073,105.602647 31.1099266,104.189035 C29.7180811,102.887656 28.8052372,101.119962 28.6681004,99.1485646 L28.6529368,98.8356367 L28.6498856,84.6790634 L18.8386916,84.6790642 C17.8566077,84.6779924 16.9635838,84.3088135 16.3135026,83.7009697 C15.7580207,83.1815789 15.3809036,82.4860088 15.2967807,81.7062373 L15.2811886,81.4915538 L15.278818,66.5211309 L15.198,66.521 L15.198,65.368 L15.2787839,65.3685578 L15.2804491,56.6684512 L15.2894696,56.2707636 C15.5030357,49.7843287 18.9599573,43.753796 25.3702617,39.4352819 L23.3012009,37.4684389 L5.2043453,37.4684389 L5.204,37.564 L3.818,37.564 L3.81796423,37.4195612 C2.54934035,37.2292545 1.48580522,36.5732838 0.804061164,35.656368 C0.294699347,34.9712988 0,34.1405264 0,33.2605658 C0,32.3899893 0.288442406,31.5675242 0.787855066,30.8867075 C1.37342665,30.0884361 2.24716375,29.484647 3.29355968,29.2094358 L3.53804804,29.1518193 L3.81801241,3.76026559 C3.8178456,2.74245038 4.2539763,1.82427805 4.94823098,1.15333219 C5.60373852,0.519832564 6.4878379,0.104343238 7.47134286,0.0171298782 L7.71921529,0.00222943205 L66.1125823,1.42108547e-14 Z M43.9313956,84.6790635 L30.0364286,84.6790635 L30.0364286,89.1536652 L34.1051254,90.4429623 L33.7162846,91.5518552 L30.0364286,90.3858381 L30.0364286,96.4168383 L34.1051254,97.7061353 L33.7106447,98.8311121 L30.089421,97.7535947 L30.0598681,98.0392309 C29.8715792,100.314533 30.8315634,102.348607 32.4395904,103.687112 C33.6597418,104.702754 35.2539764,105.315657 36.9839165,105.315657 C38.6951845,105.315657 40.2737015,104.71591 41.4886199,103.719845 C42.8751632,102.583071 43.8305849,100.948839 44.1360611,97.5841596 L40.2515485,98.8150283 L39.8627076,97.7061353 L43.9313956,96.4168383 L43.9313956,90.3858381 L40.2515485,91.5518552 L39.8627076,90.4429623 L43.9313956,89.1536652 L43.9313956,84.6790635 Z M36.9839165,66.5211309 C34.574677,66.5211309 32.3941011,67.4449133 30.8032989,68.9323172 C29.2679827,70.3678415 28.2634604,72.3231721 28.1262766,74.9953231 L28.1262766,83.5264904 L45.841601,83.5264904 L45.8412314,74.9550207 L45.8322351,74.6379339 C45.7275755,72.428665 44.7524442,70.4413686 43.2170463,68.9818239 C41.6218493,67.4654344 39.4197874,66.5211309 36.9839165,66.5211309 Z M26.7399471,77.4158905 L16.6651147,77.4158905 L16.6658776,81.4285002 L16.6787361,81.6192703 C16.7351776,82.1222912 16.9669322,82.5770905 17.3282623,82.9205698 C17.6383194,83.2153092 18.0399502,83.4542156 18.7832291,83.5264904 L26.7399471,83.5264904 L26.7399471,77.4158905 Z M57.3025221,77.4158905 L47.227886,77.4158905 L47.227886,83.5265747 L55.18113,83.525913 L55.3672279,83.5138315 C55.8572968,83.4611873 56.2956196,83.2475288 56.6291778,82.9304494 C56.9624889,82.6136048 57.22301,82.2029086 57.3025221,81.4409423 L57.3025221,77.4158905 Z M26.2181441,40.4158222 C25.7970024,40.6666838 25.3825746,40.9355691 24.9754466,41.2214413 C19.9252893,44.7674995 16.8741172,50.3123469 16.6653109,56.8481148 L16.6653109,76.2748203 L26.8089788,76.1602994 L26.7756071,75.8401307 C26.5157679,72.860966 27.6944026,70.1423814 29.7101687,68.2262002 C31.5716831,66.4566502 34.1450236,65.3685578 36.9839165,65.3685578 C39.7922659,65.3685578 42.3406841,66.4333504 44.1973073,68.1692975 C46.1469291,69.9921986 47.3070804,72.5625218 47.2435333,76.2633174 L57.3026648,76.2633174 L57.3026648,56.7197172 L57.2950454,56.2825216 C57.1501913,51.3342079 55.0203345,46.6189042 51.3181938,43.1202784 C50.5393377,42.3810934 49.6963943,41.7056084 48.4509146,41.2385198 C48.022857,41.0779866 47.6153198,40.9675973 47.2215844,40.893805 C47.2053514,41.2724211 47.1658948,41.6526936 47.1020391,42.0329921 C46.7091695,44.3727632 45.445537,46.3990138 43.663962,47.8436949 C41.8548443,49.3107105 39.5121141,50.1799649 36.9839165,50.1799649 C34.455719,50.1799649 32.1129888,49.3107105 30.3038711,47.8436949 C28.4880844,46.3712715 27.216481,44.2977479 26.5261435,41.7922569 C26.3990647,41.331041 26.2962845,40.8718882 26.2181441,40.4158222 Z M36.9851922,32.0210598 C34.5480266,32.0210598 32.345977,32.965369 30.7507868,34.481752 C29.1241466,36.0280313 28.1262766,38.1665726 28.1262766,40.5237388 C28.1262766,42.8809051 29.1241466,45.0194464 30.7507868,46.5657256 C32.3459838,48.0821151 34.5480457,49.0264185 36.9839165,49.0264185 C39.4197874,49.0264185 41.6218493,48.0821151 43.2170463,46.5657256 C44.8436864,45.0194464 45.8415565,42.8809051 45.8415565,40.5237388 C45.8387725,38.1665633 44.8404654,36.0297467 43.2145335,34.4841407 C41.6199624,32.9683463 39.4195778,32.0236588 36.9851922,32.0210598 Z M57.3025221,30.2052659 L48.7414783,30.2052659 L44.7353699,34.2092421 L44.8307399,34.3215248 C45.7044125,35.353155 46.1316827,35.960358 47.2976789,38.925709 L49.8535328,36.4973402 L49.9365236,36.4377169 C50.0550466,36.3681783 50.2062994,36.3362934 50.405347,36.3158658 L57.3025221,36.3158658 L57.3025221,30.2052659 Z M25.2115719,30.2052659 L16.6653109,30.2052659 L16.6653109,36.3157788 L23.6422167,36.3163779 L23.7490799,36.3298878 C23.8902891,36.3603003 24.028766,36.4400871 24.1929283,36.5665757 L26.8444459,38.8502224 L26.897744,38.6654882 C27.3485436,37.1006063 27.53356,36.4418734 29.2678327,34.0608195 L25.2115719,30.2052659 Z M15.2789814,30.2052122 L4.45305947,30.2057858 L4.22878294,30.2175896 C3.48865024,30.2824332 2.82604657,30.5990263 2.33011409,31.0704582 C1.74048733,31.6309556 1.38402342,32.407652 1.38402342,33.2605658 C1.38402342,34.1087176 1.73581843,34.8815186 2.32587505,35.4424246 C2.80550508,35.8983595 3.44089055,36.234566 4.46828407,36.3158658 L15.2789814,36.3158658 L15.2789814,30.2052122 Z M69.4566525,30.2052659 L58.6888516,30.2052659 L58.6888516,36.3159195 L69.5147736,36.3153458 L69.7390502,36.3035421 C70.4791829,36.2386984 71.1417865,35.9221054 71.637719,35.4506734 C72.2273457,34.890176 72.5838097,34.1134797 72.5838097,33.2605658 C72.5838097,32.407652 72.2273457,31.6309556 71.637719,31.0704582 C71.0795354,30.5398505 70.3100943,30.2052659 69.4566525,30.2052659 Z M66.1150052,1.15257425 L7.79960709,1.15314564 L7.59328889,1.16518571 C6.98119382,1.22429927 6.43339799,1.48762238 6.01912412,1.88142987 C5.6005249,2.27934903 5.28949171,2.80254238 5.2043453,3.69839094 L5.2043453,29.052664 L25.5518385,29.0532414 L25.6564973,29.0664373 C25.7948017,29.0959377 25.9303756,29.1728524 26.0900003,29.2946747 L30.3389723,33.1877883 L30.6428547,32.9519333 C32.4870799,31.5748559 34.7012527,30.8826156 36.917934,30.8691339 C39.0654203,30.856073 41.211093,31.492562 43.7589567,33.2110809 L47.9433459,29.2339789 L48.026336,29.174408 C48.1448553,29.1049328 48.2960928,29.0730867 48.4951045,29.0526928 L68.7634878,29.0526928 L68.7634878,3.70004537 L68.7503135,3.4901667 C68.6857462,2.86698219 68.3983256,2.3048746 67.9568465,1.88520594 C67.4853869,1.43703781 66.8359665,1.15325871 66.1150052,1.15257425 Z" id="Combined-Shape" fill="#31383E" fill-rule="nonzero"></path>
                        <path d="M49.5059334,46.8297634 C49.9956875,46.3210721 50.7975983,46.3130642 51.2970513,46.8118772 L51.4221977,46.9297742 L52.0527052,47.4704226 C52.4955442,47.855658 52.852793,48.2116544 53.2052229,48.6444239 C54.2841707,49.9693275 55.0406115,51.7280173 55.4583757,54.1958122 C56.3224093,59.2997865 56.1998087,67.5067579 55.4610017,72.227392 C55.3508896,72.9309571 54.701632,73.4103948 54.0108443,73.298246 C53.3200566,73.1860972 52.8493259,72.5248305 52.959438,71.8212654 C53.6569118,67.3647311 53.7753227,59.4382212 52.962064,54.6341817 C52.617008,52.5958848 52.0404778,51.2554789 51.2554621,50.2915119 L51.1927721,50.217864 L51.0321838,50.0453303 L50.8354928,49.8480123 L50.5012238,49.5288394 L49.9479066,49.0236938 L49.5234947,48.6540112 C49.0240418,48.1551982 49.0161793,47.3384546 49.5059334,46.8297634 Z" id="Path" fill="#D1D1D1" fill-rule="nonzero"></path>
                    </g>
                    <path d="M68.6189727,106.612613 C68.936797,106.612613 69.1944444,106.83647 69.1944444,107.112613 C69.1944444,107.358073 68.9908711,107.562221 68.7224145,107.604557 L68.6189727,107.612613 L8.76991614,107.612613 C8.4520919,107.612613 8.19444444,107.388755 8.19444444,107.112613 C8.19444444,106.867153 8.39801774,106.663004 8.66647438,106.620668 L8.76991614,106.612613 L68.6189727,106.612613 Z" id="Line" fill="#979797" fill-rule="nonzero"></path>
                </g>
                <g id="Group-5" transform="translate(45.000000, 7.000000)">
                    <g id="Group-4">
                        <path d="M16.861826,5.12350885 L12.1984852,0.314905277 C12.0017724,0.111528952 11.7401672,-1.62739355e-13 11.4615119,-1.62739355e-13 C11.1836201,-1.62739355e-13 10.921506,0.111528952 10.7247932,0.314905277 L6.81394888,4.34779219 L0.30461222,11.0599982 C-0.101537407,11.4790846 -0.101537407,12.1608545 0.30461222,12.5794161 L4.9682075,17.3890694 C5.16492032,17.5919209 5.42652547,17.7037122 5.70492628,17.7037122 C5.98307261,17.7037122 6.24518671,17.5919209 6.44189953,17.3890694 L12.276356,11.3722792 L16.861826,6.64318923 C17.2682301,6.22436522 17.2682301,5.54259529 16.861826,5.12350885" id="Fill-10" stroke="#FFFFFF" stroke-width="0.5" fill="#FFFFFF" stroke-linecap="round" stroke-linejoin="round"></path>
                        <path d="M12.3342194,6.85357834 C12.0835138,7.11162336 11.7545532,7.24064587 11.4272833,7.24064587 C11.1000134,7.24064587 10.7715359,7.11162336 10.5208303,6.85357834 C10.2708492,6.5957824 10.1450133,6.25653789 10.1447718,5.91878785 C10.1450133,5.58053965 10.2708492,5.24129514 10.5208303,4.98399735 C10.7715359,4.72620141 11.0995304,4.59618259 11.4272833,4.59618259 C11.7545532,4.59618259 12.0835138,4.7252051 12.3342194,4.98424643 C12.5837174,5.24129514 12.7100363,5.58053965 12.7100363,5.91878785 C12.7100363,6.25653789 12.5837174,6.5957824 12.3342194,6.85357834 M16.226195,5.53396202 L11.8004434,0.969853041 C11.5871746,0.74966791 11.2410655,0.74966791 11.0277967,0.969853041 L6.24241057,5.90483947 L11.4410504,11.2659987 L16.226195,6.33076319 C16.4397053,6.11107622 16.4397053,5.75414715 16.226195,5.53396202" id="Fill-12" fill="#F5002E"></path>
                    </g>
                    <path d="M6.72339507,10.8695154 C6.97367128,10.6106676 7.30221921,10.4818666 7.63004239,10.4818666 C7.95786558,10.4818666 8.28689666,10.6106676 8.53644814,10.8695154 C8.78793225,11.1276157 8.91331194,11.4654381 8.91331194,11.8047553 C8.91331194,12.1420795 8.78793225,12.4811476 8.53644814,12.7389988 C8.28689666,12.9956043 7.95786558,13.1259001 7.63004239,13.1259001 C7.30221921,13.1259001 6.97367128,12.9961026 6.72363665,12.7389988 C6.47311886,12.4806493 6.34773917,12.1418304 6.34773917,11.8047553 C6.34773917,11.4661855 6.47311886,11.1276157 6.72339507,10.8695154 L6.72339507,10.8695154 Z M4.77409124,12.6861829 C4.52309029,12.9427884 4.19430079,13.0723369 3.86696076,13.0723369 C3.53817125,13.0718386 3.21034807,12.9430376 2.95983028,12.6861829 C2.7090709,12.4283317 2.58489911,12.0892636 2.58489911,11.7514412 C2.58489911,11.4133696 2.70979564,11.0743015 2.95983028,10.8152047 C3.21034807,10.5578517 3.53817125,10.4285524 3.86696076,10.4285524 C4.19430079,10.4285524 4.52357345,10.5578517 4.77409124,10.8154538 C5.02436746,11.0743015 5.14878082,11.4133696 5.14829907,11.751192 C5.14829907,12.0892636 5.02412588,12.42883 4.77409124,12.6861829 L4.77409124,12.6861829 Z M0.940468435,11.3712664 C0.726912284,11.5914987 0.726912284,11.9482551 0.940468435,12.1684875 L5.36716856,16.7343221 C5.47394664,16.84394 5.61357951,16.898998 5.75345395,16.898998 C5.8933284,16.898998 6.03344443,16.84394 6.1402225,16.7343221 L10.9242185,11.8000218 L5.72422285,6.43771354 L0.940468435,11.3712664 Z" id="Fill-14" fill="#017AFF"></path>
                </g>
            </g>
        </g>
    </g>
</svg>