<?xml version="1.0" encoding="UTF-8"?>
<svg width="108px" height="110px" viewBox="0 0 108 110" version="1.1" xmlns="http://www.w3.org/2000/svg" xmlns:xlink="http://www.w3.org/1999/xlink">
    <title>icons/illustrated/empty state copy 2</title>
    <g id="Page-1" stroke="none" stroke-width="1" fill="none" fill-rule="evenodd">
        <g id="איסוף-עצמי_empty-state" transform="translate(-125.000000, -257.000000)">
            <g id="icons/illustrated/empty-state-copy-2" transform="translate(125.000000, 257.000000)">
                <g id="Group-6" transform="translate(11.055556, 27.963964)">
                    <rect id="Rectangle" fill="#017AFF" x="29.9444444" y="35.036036" width="23" height="27"></rect>
                    <g id="Group-7" transform="translate(0.944444, 0.036036)">
                        <path d="M9.32239426,61.003313 C9.49368964,61.003313 9.63255198,61.2458679 9.63255198,61.5450744 C9.63255198,61.8110358 9.52283358,62.0322353 9.3781455,62.0781073 L9.32239426,62.0868358 L0.310157716,62.0868358 C0.13886234,62.0868358 0,61.844281 0,61.5450744 C0,61.279113 0.109718392,61.0579135 0.254406475,61.0120415 L0.310157716,61.003313 L9.32239426,61.003313 Z" id="Path-55" fill="#979797" fill-rule="nonzero"></path>
                        <g id="Group-2" transform="translate(8.397100, 0.000000)">
                            <path d="M2.6615208,12.2326303 L2.66246041,14.3004894 C2.66246041,18.4666457 6.03979743,21.8439827 10.2059538,21.8439827 C12.4327091,21.8439827 14.4341176,20.8791584 15.8149383,19.3447506 C15.1010995,22.767462 12.0663666,25.33902 8.43101415,25.33902 C4.26485781,25.33902 0.887520797,21.961683 0.887520797,17.7955266 L0.887520797,12.2326303 L2.6615208,12.2326303 Z" id="Combined-Shape" fill="#D1D1D1"></path>
                            <path d="M33.722964,12.2326303 L33.7239036,14.3004894 C33.7239036,18.4666457 37.1012407,21.8439827 41.267397,21.8439827 C43.4941523,21.8439827 45.4955608,20.8791584 46.8763816,19.3447506 C46.1625427,22.767462 43.1278098,25.33902 39.4924574,25.33902 C35.326301,25.33902 31.948964,21.961683 31.948964,17.7955266 L31.948964,12.2326303 L33.722964,12.2326303 Z" id="Combined-Shape-Copy" fill="#D1D1D1"></path>
                            <path d="M20.0692987,0.638660836 L30.6625891,0.638660836 L30.6625891,14.2299525 L30.6625891,17.8243437 C30.6625891,21.7163954 27.4676978,24.9008013 23.5628307,24.9008013 C19.6579635,24.9008013 16.4630722,21.7163954 16.4630722,17.8243437 L16.4630722,11.983458" id="Fill-2" fill="#F5002E"></path>
                            <path d="M61.3188002,12.4902133 L54.4409092,0.638660836 L43.5694041,0.638660836 L47.3411508,13.3846701 L47.3411508,17.8569541 C47.3411508,21.73107 50.4861219,24.9008013 54.3299755,24.9008013 C58.1738291,24.9008013 61.3188002,21.73107 61.3188002,17.8569541 L61.3188002,12.4902133 Z" id="Fill-4" fill="#F5002E"></path>
                            <path d="M55.591036,0 C56.1944397,0 56.5283774,0.172297558 56.8190848,0.659530794 C57.6330382,2.02367542 58.4646638,3.39868106 59.2882823,4.75505985 L60.3404734,6.48587595 C61.438218,8.29031794 62.5352513,10.0935878 63.6007881,11.8741961 C63.7564476,12.1341017 63.8604173,12.4455352 63.8881004,12.7342163 L63.8916777,12.7773385 L63.8964926,13.4972426 C63.9006276,15.3416459 63.9051104,17.2370846 63.7444115,19.0794243 C63.6237706,20.4622069 62.9490797,21.7602534 61.6612169,23.1794198 C61.2692506,23.6114 61.0222391,24.2362831 61.0213973,24.7681336 C61.0120875,30.4290562 61.0077799,36.1380732 61.0059663,41.8219978 L61.0054946,43.5263493 L61.0051305,45.3988584 L61.0049348,46.981005 L61.0048379,48.3633849 L61.0048491,51.9136721 L61.0054432,58.2557295 L61.0056618,60.8138305 C61.0056618,60.8648327 61.0058278,60.9140596 61.0059276,60.9614638 L61.0059428,61.0650277 C61.0050012,61.3886953 60.9914337,61.6147034 60.8767867,61.725078 C60.7432399,61.8536496 60.4513828,61.8527153 60.023718,61.8550893 L59.9844659,61.8550893 L53.009019,61.8544283 L46.1088618,61.8542432 L39.0362775,61.8542432 L32.401014,61.8544548 L25.1507682,61.8517047 L18.3378424,61.8519163 C13.4926617,61.8519163 8.64879213,61.8517047 3.80381432,61.8506471 C3.78066266,61.8506427 3.75790673,61.8506778 3.73555424,61.8507064 L3.66971485,61.8507263 C3.38972271,61.8503285 3.17922025,61.8410371 3.05519525,61.7216316 C2.93467569,61.6056009 2.93139592,61.4042115 2.92778149,61.1428595 L2.92735626,61.1124389 L2.92660333,54.7496193 L2.92666014,50.6202749 C2.92677153,47.0652152 2.92709792,43.4800386 2.92805427,39.8858964 L2.9283605,38.8074059 L2.928707,37.7285082 L2.92935143,36.0017332 L2.92996032,34.603679 C2.93147677,31.3416625 2.93367806,28.0807784 2.93687337,24.8369018 C2.93770148,24.1502036 2.72071259,23.6109299 2.22716997,23.0911984 C0.839984777,21.6301922 0.0990371614,19.8856116 0.0231470264,17.9035033 L0.0207937517,17.8350607 L0.0189621027,17.7663304 L0.0177477147,17.7035704 L0.0169543863,17.6397243 L0.0125844211,17.1847879 C-0.000813717119,15.7661386 -0.0145107771,14.3217986 0.0341550114,12.9075371 C0.0462620049,12.5532426 0.15727602,12.166006 0.333230957,11.8722813 C0.870939493,10.974417 1.90469677,9.26481815 3.4345028,6.74348463 L3.65429088,6.38208179 L3.89328389,5.98914836 C4.97777048,4.20647291 6.09898709,2.3630542 7.19133136,0.54336373 C7.41254202,0.174899613 7.67623308,0.0234113958 8.11055609,0.00634696106 L8.14187108,0.0053555705 L8.51099879,0.00518952458 L8.82027845,0.00570754099 L9.12926615,0.00620737255 C12.4781403,0.011530087 52.9178065,0.0105856215 55.591036,0 Z M46.0720355,35.6933777 L17.8827382,35.6933777 L17.8827382,60.9093843 L46.0720355,60.9093843 L46.0720355,35.6933777 Z M16.2137447,20.8913479 L15.4261122,21.964854 L15.3874739,22.0172473 L15.3499922,22.0675252 L15.3030214,22.1297842 L15.2549426,22.1926581 C14.050152,23.7573882 12.6333765,24.7885188 10.9248335,25.3298806 C10.11947,25.5849115 9.28164657,25.7146413 8.43541839,25.7146413 C7.48830555,25.7146413 6.52343548,25.5608412 5.49250666,25.2487944 L5.39820241,25.2198648 L5.3056849,25.1907451 L5.2348673,25.1679712 L3.94914994,24.7499722 L3.94914994,60.9038843 L16.8315621,60.9038843 L16.8315621,34.7766536 L47.1192779,34.7766536 L47.1192779,60.8962689 L59.9555784,60.8962689 L59.9555784,24.8073463 L58.6902866,25.1859796 L58.6164208,25.2078916 L58.5429453,25.2292647 L58.4431515,25.2576118 L58.3447108,25.2847979 C57.3287289,25.5613635 56.3513933,25.7027951 55.435655,25.7027951 C52.7780291,25.7027951 50.5580183,24.5392459 48.6400551,22.1852048 L48.5815701,22.1129367 L48.5222047,22.038586 L48.4611191,21.9610369 L47.6639776,20.942429 L46.8924695,21.9814325 L46.8353765,22.0577405 L46.7787447,22.1322975 L46.7227935,22.2048561 L46.6678896,22.2749973 C44.8517925,24.5778137 42.6128833,25.7080836 39.8212859,25.7080836 C37.0272653,25.7063418 34.7704391,24.5459131 32.9193821,22.1852808 L32.8630432,22.1128999 L32.8059941,22.038518 L32.7473172,21.9608708 L31.9558148,20.9056943 L31.1675936,21.9651738 L31.1101516,22.0417993 L31.0531745,22.1166734 L30.9968941,22.1895327 L30.9416748,22.2599625 C29.1152413,24.572254 26.8728983,25.7076605 24.0860649,25.7076605 C21.288888,25.7066929 19.031324,24.5450967 17.1824042,22.1810815 L17.1261314,22.1085967 L17.0691512,22.0341076 L17.0105457,21.956346 L16.2137447,20.8913479 Z M15.9247705,12.9943544 L0.978553864,12.9943544 L0.978553864,13.9510851 L0.978278863,14.1240754 L0.97751288,14.2967054 L0.975872754,14.5269837 L0.973708566,14.7567092 L0.971218326,14.9854506 L0.969257979,15.1558836 L0.968495288,15.2217368 L0.966613658,15.3824058 L0.96478425,15.5442924 L0.962675374,15.7482083 L0.960890784,15.9535707 C0.955640327,16.6391667 0.958084141,17.3346629 0.989597595,18.0206919 C1.07159117,19.8133903 1.83580958,21.4237912 3.05821553,22.6292169 C4.27172907,23.8258738 5.93842113,24.6237253 7.83757943,24.7962966 C8.0424257,24.8151156 8.25211052,24.8245712 8.45989472,24.8245712 C10.1261594,24.8245712 11.710717,24.2441601 12.9596595,23.2770883 C14.2160081,22.3042818 15.1310384,20.9418217 15.4578737,19.3914596 C15.6675599,18.3978525 15.7342433,17.3693264 15.770693,16.351743 L15.7748972,16.230692 L15.7788372,16.1106324 L15.7819053,16.0129841 L15.7875917,15.8240232 L15.7903562,15.7294973 L15.793157,15.6328972 L15.7992096,15.4259661 L15.8055301,15.2182207 C15.8120725,15.0098797 15.8193988,14.7999344 15.8285768,14.5900296 L15.8383862,14.380743 L15.8496358,14.1723244 L15.8595956,14.0099215 L15.9247705,12.9943544 Z M31.5310055,12.9806043 L16.7144305,12.9806043 L16.7144305,13.937335 L16.7141368,14.1091347 L16.713319,14.2800198 L16.7115679,14.5073643 L16.7092569,14.7336689 L16.7065969,14.9587447 L16.7045023,15.1263941 L16.7033264,15.2200681 L16.7013765,15.3682676 L16.699482,15.5165136 L16.6973365,15.6963391 L16.6953108,15.8908159 C16.6886087,16.6019047 16.6906578,17.2920328 16.7269346,17.9928601 C16.8190665,19.7686997 17.5368476,21.3377773 18.7053462,22.5272926 C19.8642041,23.7069939 21.4697663,24.5149237 23.3574526,24.7678756 C23.638338,24.805561 23.9267192,24.8245712 24.21391,24.8245712 C25.7048001,24.8245712 27.173841,24.3139143 28.3938307,23.4449442 C29.6104443,22.5783789 30.5772376,21.3570142 31.0744547,19.9436028 C31.4959211,18.7453847 31.4718581,14.62735 31.474746,14.3892308 L31.4773154,14.2408336 L31.4816138,14.090587 L31.4860715,13.9781191 L31.5310055,12.9806043 Z M63.0977731,12.9882197 L48.1844354,12.9882197 L48.1844354,13.9449505 L48.1841204,14.1164985 L48.1832437,14.2873815 L48.1813666,14.5150954 L48.1788896,14.7420554 L48.176039,14.9679475 L48.1737949,15.1362241 L48.1731187,15.1866123 L48.1711026,15.3317194 L48.1690375,15.4853855 L48.16669,15.6743124 L48.1646698,15.8629526 C48.1580205,16.5527883 48.1604608,17.223274 48.1967604,17.9056117 C48.2962352,19.7609162 49.056249,21.3961289 50.2709987,22.6122125 C51.4813236,23.8238663 53.1456599,24.6211852 55.0675441,24.7956659 C55.2695698,24.8140712 55.4760542,24.8233019 55.6806368,24.8233019 C57.3348485,24.8233019 58.9333949,24.2221215 60.1956613,23.2323282 C61.4644488,22.2374215 62.3903473,20.8523894 62.7041544,19.3031847 C62.9503899,18.087995 62.9753603,16.8232911 62.9966828,15.5988236 C63.0024586,15.263505 63.0084678,14.921159 63.0194106,14.5790742 L63.0265843,14.3745316 L63.0351267,14.1712075 L63.043965,13.9930163 L63.0977731,12.9882197 Z M47.1131551,12.9971044 L32.543186,12.9971044 C32.4819675,16.0751366 32.4946949,17.9799221 32.5813682,18.7114609 C32.7824978,20.4085524 33.6713973,21.9309562 34.9704694,23.0311976 C36.2144076,24.0847436 37.8330094,24.7494752 39.5704627,24.8101558 L39.6391365,24.8122396 L39.7086673,24.8137038 L39.7636907,24.8144042 L39.830973,24.8146314 L39.8850079,24.8144353 L39.9383964,24.8138561 L40.0067256,24.8125548 L40.0749776,24.8106306 C41.8024796,24.7540829 43.4111108,24.1055062 44.6527664,23.0722716 C45.9632508,21.9817616 46.8634821,20.464598 47.073343,18.7663328 C47.2087502,17.6697536 47.1781527,16.5890247 47.142717,15.4182296 C47.1338489,15.1260272 47.1248037,14.8281053 47.1190907,14.5284924 L47.1154902,14.3037399 L47.1136868,14.1167864 L47.1131512,13.9523168 L47.1131551,12.9971044 Z M15.2538334,0.922289118 L13.8028143,0.922289118 L13.6486275,0.922407666 C12.5130288,0.923370177 11.271034,0.926448349 10.0080321,0.936004669 L9.83569726,0.93734825 L9.66312112,0.938774816 L9.52698535,0.93995908 L9.28150199,0.942230186 L8.97651442,0.946767788 L8.94531605,0.949037748 C8.39348223,0.99652073 7.80870711,1.43273298 7.53736365,1.87135194 C6.76376574,3.12141879 5.08828277,5.86400466 2.51091475,10.0991095 L2.48492869,10.1459442 L2.46423549,10.1845028 C2.42317721,10.2621126 2.38375159,10.3430291 2.33991104,10.4335603 C2.32163024,10.4714061 2.30256183,10.5108745 2.24639667,10.6238641 L1.58499329,11.9301802 L3.07577383,12.0025223 L3.12461717,12.0048932 L3.170713,12.0072758 L3.23068249,12.0105676 L3.28885473,12.0139407 L3.34569225,12.0173705 C3.44089387,12.0230157 3.53266804,12.0283979 3.6231709,12.0323335 L3.71395894,12.0357708 L3.80583528,12.0380073 L3.8827559,12.0387053 L4.46723045,12.0391304 L5.90036523,12.0401488 L7.3335013,12.0409321 L8.76664351,12.0412455 L9.56211399,12.0411371 L10.3578215,12.040785 C11.1537578,12.0402975 11.9505716,12.0393833 12.7499823,12.0378599 C12.9347493,12.0378608 13.1389636,12.0549359 13.3728042,12.0742013 C13.6333933,12.0955758 13.9020651,12.1169766 14.1609129,12.1169766 C14.5695969,12.1169766 15.1571056,12.0563025 15.6143835,11.724464 C16.1397439,11.3432247 16.4051635,10.7176323 16.6137854,9.96002406 L16.6268331,9.91224891 L16.6445021,9.84507936 L16.6620035,9.77775153 L16.6649929,9.76619294 C16.6700469,9.74664032 16.6755684,9.72522491 16.6831942,9.69562917 C16.7336613,9.49982797 16.7812916,9.31431266 16.8379026,9.14684259 C17.3964501,7.49883982 17.935018,5.88028354 18.5050707,4.16669148 C18.5962799,3.89266382 18.6878077,3.61774635 18.7796888,3.34186992 L18.9177828,2.92731841 L19.056438,2.51126123 L19.1677861,2.1772894 L19.5856093,0.923712803 L17.8571797,0.923657543 L17.4782714,0.923528954 L17.1004292,0.923339451 L16.7236113,0.923109331 L16.3477604,0.922858891 L16.0364251,0.922737266 L15.72596,0.922597963 L15.317974,0.92241783 L15.2538334,0.922289118 Z M45.7072668,0.922858756 L44.3837993,0.922858756 L44.7946203,2.23296732 L44.8078695,2.27534984 L44.8184086,2.30924404 C44.8324989,2.35465704 44.8468289,2.4012192 44.8624518,2.45212473 C44.9050796,2.58928285 44.9411146,2.70513275 44.9780931,2.81814618 L44.9920304,2.86046368 C46.4506345,7.22088359 47.3228939,9.84509735 47.6088085,10.733105 C47.7588246,11.1995056 47.9898476,11.518958 48.2999639,11.7325027 C48.4935774,11.8658242 52.5225711,11.964782 60.3869449,12.0293762 C60.4524144,12.0251339 60.5184222,12.0196258 60.5866002,12.0135515 L60.6538075,12.0074795 L60.7095156,12.0024172 L60.7616191,11.9979082 L60.8141784,11.9938169 L62.0661394,11.7325027 L60.775063,9.08731446 C58.5584223,5.42384743 57.0603917,2.95472728 56.2809711,1.67995401 C56.027453,1.26578322 55.6806368,0.909957297 54.9459395,0.934924008 C53.7868529,0.974312442 50.7072953,0.970290692 45.7072668,0.922858756 Z M32.475439,0.922224144 L32.475439,11.9911106 L46.682613,11.9911106 L46.5762868,10.8643208 L46.5755161,10.8509928 C46.5708823,10.7746776 46.5611302,10.683739 46.5164977,10.5171925 C44.9883755,5.94836067 44.0281421,3.09765684 43.6357975,1.96508096 C43.5685199,1.77092979 43.5186113,1.43224872 43.4860715,0.949037748 L32.475439,0.922224144 Z M21.7806091,0.909957297 C21.3098237,0.909957297 20.9902484,1.05273256 20.7598454,1.23545655 C20.4294731,1.49746238 20.2846604,1.86892307 20.2011714,2.1226532 C19.8429799,3.21022743 19.4777562,4.31007661 19.1164384,5.39537739 L17.7342308,9.53821603 L17.6706743,9.7281473 L17.3352276,10.7303906 L16.9158129,11.9847645 L31.4703746,11.9847645 L31.4703746,1.10118283 C25.9110662,0.981863696 22.6811444,0.918121851 21.7806091,0.909957297 Z" id="Fill-7" fill="#393940"></path>
                            <g id="Group-3" transform="translate(46.665872, 40.104491)"></g>
                        </g>
                    </g>
                    <g id="Group-5" transform="translate(34.944444, 42.036036)">
                        <g id="Group-4">
                            <path d="M14.0515217,4.26959071 L10.1654043,0.262421064 C10.001477,0.0929407935 9.78347269,-1.35616129e-13 9.55125995,-1.35616129e-13 C9.3196834,-1.35616129e-13 9.10125498,0.0929407935 8.93732763,0.262421064 L5.67829073,3.62316016 L0.253843517,9.21666513 C-0.0846145056,9.56590383 -0.0846145056,10.1340454 0.253843517,10.4828468 L4.14017291,14.4908912 C4.30410027,14.6599341 4.52210456,14.7530935 4.75410523,14.7530935 C4.98589384,14.7530935 5.20432226,14.6599341 5.36824961,14.4908912 L10.2302967,9.47689936 L14.0515217,5.53599103 C14.3901917,5.18697101 14.3901917,4.61882941 14.0515217,4.26959071" id="Fill-10" fill="#FFFFFF"></path>
                            <path d="M10.2785162,5.71131528 C10.0695948,5.9263528 9.79546099,6.03387156 9.52273609,6.03387156 C9.25001119,6.03387156 8.97627992,5.9263528 8.76735856,5.71131528 C8.55904101,5.49648533 8.45417778,5.21378157 8.45397651,4.9323232 C8.45417778,4.65044971 8.55904101,4.36774595 8.76735856,4.15333113 C8.97627992,3.93850118 9.24960864,3.83015216 9.52273609,3.83015216 C9.79546099,3.83015216 10.0695948,3.93767092 10.2785162,4.15353869 C10.4864312,4.36774595 10.5916969,4.65044971 10.5916969,4.9323232 C10.5916969,5.21378157 10.4864312,5.49648533 10.2785162,5.71131528 M13.5218291,4.61163502 L9.83370286,0.808210867 C9.65597881,0.624723258 9.36755461,0.624723258 9.18983056,0.808210867 L5.20200881,4.92069956 L9.53420865,9.38833225 L13.5218291,5.27563599 C13.6997545,5.09256352 13.6997545,4.79512263 13.5218291,4.61163502" id="Fill-12" fill="#F5002E"></path>
                        </g>
                        <path d="M5.60282922,9.05792946 C5.81139274,8.84222303 6.08518267,8.73488884 6.35836866,8.73488884 C6.63155465,8.73488884 6.90574722,8.84222303 7.11370678,9.05792946 C7.32327688,9.27301307 7.42775995,9.55453176 7.42775995,9.83729611 C7.42775995,10.1183996 7.32327688,10.4009563 7.11370678,10.6158323 C6.90574722,10.8296703 6.63155465,10.9382501 6.35836866,10.9382501 C6.08518267,10.9382501 5.81139274,10.8300855 5.60303054,10.6158323 C5.39426571,10.4005411 5.28978264,10.118192 5.28978264,9.83729611 C5.28978264,9.55515459 5.39426571,9.27301307 5.60282922,9.05792946 L5.60282922,9.05792946 Z M3.97840937,10.5718191 C3.76924191,10.785657 3.49525066,10.893614 3.2224673,10.893614 C2.94847605,10.8931988 2.67529006,10.7858646 2.46652523,10.5718191 C2.25755909,10.3569431 2.1540826,10.0743863 2.1540826,9.79286765 C2.1540826,9.51114134 2.25816303,9.2285846 2.46652523,9.01267056 C2.67529006,8.79820978 2.94847605,8.69046037 3.2224673,8.69046037 C3.49525066,8.69046037 3.76964454,8.79820978 3.97840937,9.01287817 C4.18697288,9.2285846 4.29065069,9.51114134 4.29024922,9.79266004 C4.29024922,10.0743863 4.18677156,10.3573583 3.97840937,10.5718191 L3.97840937,10.5718191 Z M0.783723696,9.47605531 C0.605760236,9.65958225 0.605760236,9.95687928 0.783723696,10.1404062 L4.47264047,13.9452684 C4.5616222,14.0366166 4.67798292,14.0824984 4.79454496,14.0824984 C4.911107,14.0824984 5.02787036,14.0366166 5.11685209,13.9452684 L9.10351542,9.83335153 L4.77018571,5.36476128 L0.783723696,9.47605531 Z" id="Fill-14" fill="#017AFF"></path>
                    </g>
                    <g id="Group" transform="translate(42.944444, 30.036036)" fill-rule="nonzero">
                        <path d="M36.2635273,27.2988709 L31.5241902,27.204761 C31.2793429,27.1999926 31.0847926,27.3945427 31.08965,27.6393897 L31.2541773,35.9327452 C31.2590347,36.1775922 31.4614603,36.3800177 31.7063076,36.384875 L36.4456447,36.478985 C36.690492,36.4837534 36.8850422,36.2892033 36.8801848,36.0443562 L36.7156576,27.7510008 C36.7108002,27.5061537 36.5083746,27.3037283 36.2635273,27.2988709 Z" id="Path" fill="#FFFFFF" transform="translate(33.984917, 31.841873) rotate(-44.999000) translate(-33.984917, -31.841873) "></path>
                        <path d="M35.8488933,27.5144814 L31.015533,27.5144814 C30.7658282,27.5144814 30.5634024,27.7090318 30.5634024,27.9490218 L30.6851258,34.6238278 C30.6851258,34.8638178 30.8875515,35.0583682 31.1372563,35.0583682 L35.9706167,35.0583682 C36.2203215,35.0583682 36.4227472,34.8638178 36.4227472,34.6238278 L36.3010239,27.9490218 C36.3010239,27.7090318 36.0985981,27.5144814 35.8488933,27.5144814 Z M35.3967185,28.3831584 L35.5184419,34.1885558 L31.5885235,34.1885558 L31.4668002,28.3831584 L35.3967185,28.3831584 Z" id="Rectangle" fill="#393940" transform="translate(33.493075, 31.286425) rotate(-44.999000) translate(-33.493075, -31.286425) "></path>
                        <path d="M46.6468902,48.282261 C48.7819509,46.4500981 49.1798764,44.8842724 47.8406665,43.5847838 C46.5014566,42.2852952 42.9414823,38.8572221 37.1607436,33.3005646 L38.6902767,31.841873 C39.0679382,31.5066863 39.6776624,31.5066863 40.0553239,31.841873 L51.0202837,43.5847838 C51.5647734,44.0698725 51.5647734,47.3649511 49.5786739,48.0719973 C48.2546076,48.5433614 47.2773464,48.6134493 46.6468902,48.282261 Z" id="Path" fill="#D1D1D1"></path>
                        <path d="M37.5395837,31.9169724 L34.0657668,35.2547024 C33.4356743,35.8652213 33.4356743,36.8477444 34.0644246,37.4569681 L44.8605511,47.833076 C46.411832,49.3095086 48.9084656,49.3095086 50.4581802,47.8345741 L50.6221413,47.6760617 C51.3661931,46.9656835 51.7862028,45.9970184 51.787237,44.9863022 C51.7882636,43.9755844 51.3702298,43.0061302 50.6256142,42.2924096 L39.8301774,31.9169724 C39.196449,31.311838 38.1733121,31.311838 37.5395837,31.9169724 Z M39.1928459,32.5334955 L49.9866361,42.9073562 C50.5613565,43.4582312 50.8837678,44.205929 50.882976,44.9854507 C50.8821784,45.7649707 50.5582432,46.5120599 49.9828326,47.0614386 L49.8193788,47.2194672 C48.6245966,48.3565773 46.6957011,48.3565773 45.4983938,47.2170451 L34.7051311,36.8436873 C34.4273543,36.574532 34.4273543,36.1384336 34.7064286,35.8680262 L38.1779093,32.5325434 C38.4579883,32.2651046 38.9117729,32.2651046 39.1928459,32.5334955 Z" id="Path" fill="#2F383F"></path>
                        <path d="M9.09969504,2.6917476 C0.135087641,7.964097 -2.68506433,19.2226982 2.80070931,27.8385372 C8.28648295,36.4543762 20.0008313,39.16481 28.9654387,33.8924606 C37.9300461,28.6201112 40.7501981,17.36151 35.2644245,8.74567104 C29.7786508,0.129832051 18.0643024,-2.5806018 9.09969504,2.6917476 Z M34.4931185,9.19929877 C39.718219,17.40573 37.0320751,28.1293446 28.4934482,33.1511623 C19.9548213,38.17298 8.79711573,35.5913407 3.57201527,27.3849094 C-1.65308519,19.1784782 1.03305871,8.45486359 9.57168559,3.43304588 C18.1103125,-1.58877184 29.268018,0.992867519 34.4931185,9.19929877 Z" id="Path" fill="#31383E"></path>
                        <g id="Path-2" fill="#31383E">
                            <path d="M9.09969504,2.6917476 C0.135087641,7.964097 -2.68506433,19.2226982 2.80070931,27.8385372 C8.28648295,36.4543762 20.0008313,39.16481 28.9654387,33.8924606 C37.9300461,28.6201112 40.7501981,17.36151 35.2644245,8.74567104 C29.7786508,0.129832051 18.0643024,-2.5806018 9.09969504,2.6917476 Z" id="Path"></path>
                        </g>
                        <path d="M34.4931185,9.19929877 C39.718219,17.40573 37.0320751,28.1293446 28.4934482,33.1511623 C19.9548213,38.17298 8.79711573,35.5913407 3.57201527,27.3849094 C-1.65308519,19.1784782 1.03305871,8.45486359 9.57168559,3.43304588 C18.1103125,-1.58877184 29.268018,0.992867519 34.4931185,9.19929877 Z" id="Path" fill="#FFFFFF"></path>
                        <path d="M19.0324567,4.35621741 C22.8782858,4.35621741 26.5665511,5.8247904 29.2855564,8.43873279 C34.9482032,13.8811133 34.9481812,22.7048537 29.2855501,28.1471669 C23.622919,33.5894801 14.4419943,33.5894801 8.7793632,28.1471669 C3.11673851,22.7048599 3.11670364,13.8811195 8.77927118,8.43881525 C11.4983568,5.82479569 15.1866198,4.35621741 19.0324567,4.35621741 Z" id="Path" fill="#D1D1D1"></path>
                        <path d="M19.0324567,4.35621741 C15.1866115,4.35621741 11.4983509,5.82480132 8.77927118,8.43881525 C3.11671008,13.8811133 3.11673207,22.7048537 8.7793632,28.1471669 C14.4419943,33.5894801 23.622919,33.5894801 29.2855501,28.1471669 C34.9481881,22.7048471 34.9481964,13.8811067 29.2855564,8.43873279 C26.5665566,5.82479569 22.8782935,4.35621741 19.0324567,4.35621741 Z M19.0324567,5.2252981 C22.6384254,5.2252981 26.0966484,6.60227992 28.6461021,9.05322221 C33.9556514,14.15624 33.9556436,22.4297101 28.6461418,27.5326333 C23.3366464,32.6355504 14.7282669,32.6355504 9.41877153,27.5326333 C4.10927611,22.4297163 4.10925549,14.1562462 9.41872546,9.05330467 C11.9682594,6.6022852 15.4264801,5.2252981 19.0324567,5.2252981 Z" id="Path" fill="#31383E"></path>
                    </g>
                    <path d="M65.7839499,45.2865025 C65.9814816,45.5298099 65.9966764,45.9126605 65.8295341,46.1774361 L65.7839499,46.2410211 L60.4278379,52.8383488 C60.2138452,53.1019318 59.8668944,53.1019318 59.6529017,52.8383488 C59.4553699,52.5950414 59.4401752,52.2121907 59.6073174,51.9474151 L59.6529017,51.8838302 L65.0090136,45.2865025 C65.2230064,45.0229195 65.5699572,45.0229195 65.7839499,45.2865025 Z M65.2359872,41.2337233 C65.433519,41.4770307 65.4487137,41.8598814 65.2815715,42.124657 L65.2359872,42.1882419 L59.8798752,48.7855696 C59.6658825,49.0491526 59.3189317,49.0491526 59.104939,48.7855696 C58.9074072,48.5422622 58.8922125,48.1594115 59.0593547,47.8946359 L59.104939,47.831051 L64.461051,41.2337233 C64.6750437,40.9701403 65.0219945,40.9701403 65.2359872,41.2337233 Z" id="Combined-Shape" fill="#FFFFFF" fill-rule="nonzero"></path>
                </g>
                <path d="M20.332734,22.0259921 C20.3944527,21.7612999 20.4266721,21.4896747 20.4287151,21.2168235 C20.4346911,19.8876442 19.7352362,18.6707911 18.6259511,18.0805257 C17.516666,17.4902602 16.1911349,17.6295912 15.2095484,18.4396352 C13.4426051,16.1984167 10.5598301,15.3808201 7.99243087,16.3927564 C5.42503162,17.4046927 3.71978432,20.0306509 3.72329072,22.9669251 L3.72329072,23.0108466 C3.58794654,22.9867705 3.45129588,22.9720995 3.31419113,22.9669251 C1.5144964,22.9669251 0.0555555556,24.5332632 0.0555555556,26.4654391 C0.0555555556,28.397615 1.5144964,29.963964 3.31419113,29.963964 L17.9788379,29.963964 C19.7544268,29.968185 21.3273777,28.7353581 21.8646143,26.91841 C22.401851,25.1014619 21.7792026,23.1203417 20.3264402,22.0243028 L20.332734,22.0259921 Z" id="Path" fill="#D1D1D1" fill-rule="nonzero"></path>
                <path d="M41.1158347,5.42798004 C41.1494995,5.27672736 41.1670737,5.12151296 41.168188,4.96559797 C41.1714477,4.20606696 40.7899268,3.51072232 40.1848622,3.17342779 C39.5797976,2.83613326 38.8567807,2.91575098 38.3213698,3.37863322 C37.3575826,2.09793698 35.7851599,1.63073893 34.3847603,2.20898823 C32.9843607,2.78723753 32.0542258,4.28778505 32.0561384,5.96565605 L32.0561384,5.99075403 C31.9823143,5.97699625 31.9077776,5.96861282 31.8329931,5.96565605 C30.8513415,5.96565605 30.0555556,6.86070638 30.0555556,7.9648069 C30.0555556,9.06890743 30.8513415,9.96396396 31.8329931,9.96396396 L39.8318914,9.96396396 C40.8003944,9.96637598 41.6583676,9.26190345 41.9514058,8.22364741 C42.244444,7.18539137 41.9048176,6.05332266 41.1124017,5.42701473 L41.1158347,5.42798004 Z" id="Path-Copy" fill="#D1D1D1" fill-rule="nonzero"></path>
            </g>
        </g>
    </g>
</svg>