<svg xmlns="http://www.w3.org/2000/svg" viewBox="0 0 202 57">
  <g fill="none" fill-rule="evenodd">
    <path fill="#FFF" d="M.335455626 32.9000936C29.3299253 42.8617078 45.2321591 40.8044341 71.8653479 25.3845645 82.7331248 19.0905881 92.965342 11.4663109 99.899122.850719104 99.9833958.733496035 100.016901.586581506 99.9919213.443811628 99.9669414.30104175 99.8856299.174724516 99.7667137.0939522427 99.5230439-.0735848905 99.1915731-.0111097048 99.0237562.233983906 92.5637036 9.80529707 80.9794508 18.2235836 71.0708982 23.9380672 52.3704363 34.721995 38.7044311 39.6111856 18.6107399 36.2593639 12.5353648 35.1985893 6.53030703 33.7597941.629696235 31.9511557.372980526 31.8748726.102794276 32.018586.0191469702 32.2759099-.0530931319 32.5357395.0848738955 32.807995.335455626 32.9000936zM95.240966 23.9468607C100.677436 27.3664653 106.449837 30.1893823 112.462694 32.3689205 132.681688 39.741441 157.56047 41.3679996 178.285898 35.2070683 189.823157 31.7767562 191.794265 29.043108 196.705056 26.3776116 196.968605 26.236881 197.074725 25.9062948 196.944247 25.6324842 196.796341 25.3676569 196.474013 25.2651636 196.206004 25.3977388 190.985151 28.1238146 189.033237 30.4243197 177.866576 33.6229153 158.304619 39.2265156 134.862457 38.4965331 112.975034 30.8226297 107.023095 28.7648688 101.2601 26.1715711 95.7533065 23.0730019 95.5180519 22.9278817 95.2126491 23.0058585 95.0711702 23.2471679 94.9296913 23.4884773 95.0057115 23.8017404 95.240966 23.9468607zM3.4859761 52.5981684C3.54052294 52.795427 3.70873519 52.9466015 3.92030554 52.9885058 4.13187589 53.0304101 4.35037591 52.955829 4.48447961 52.7959351 4.33250039 52.8073998 14.6853252 40.2778773 14.8069085 40.133135 14.9912094 39.922119 15.048176 39.6368468 14.9578876 39.3770753 14.8675993 39.1173039 14.6426149 38.9191668 14.3616094 38.8519508 10.2945728 37.6687262 6.15516196 36.7192309 1.96618386 36.0086965 1.69246277 35.9701996 1.41615737 36.0610001 1.22709955 36.2515771 1.03804174 36.4421542.960376151 36.7081692 1.01935329 36.9631357 2.37348818 43.766023 2.06193077 45.6304755 3.4859761 52.5981684zM2.90845505 37.7814312C3.86440437 42.8961362 4.29298579 49.614471 4.41912854 51.0260666 6.97214447 47.2501806 9.72650268 43.5987541 12.6716004 40.085843 9.62745657 39.290477 5.99819269 38.2916119 2.90845505 37.7814312z"/>
    <path fill="#F5002E" d="M34.145155,40.0127776 C29.9929553,39.9475162 25.8405942,40.1322892 21.7103511,40.5661052 C21.4430348,40.6028381 21.2106885,40.7692265 21.0887295,41.0112623 C20.9667706,41.2532981 20.9707449,41.5401293 21.0993626,41.7786533 C23.0924903,45.6564211 27.8246858,57.2390149 27.9284946,56.7095505 C28.0286393,56.8968131 28.2268535,57.0095524 28.4380325,56.9993631 C28.6492115,56.9891737 28.8357839,56.8578684 28.9176435,56.6618241 C28.7693453,56.6767386 34.8688502,41.3207785 34.9326184,41.1716335 C35.0445848,40.9101947 35.0156547,40.6093043 34.8559547,40.3742848 C34.6962548,40.1392653 34.4280248,40.0028457 34.145155,40.0127776 Z"/>
    <path fill="#FFF" d="M54.4571083,52.8186852 C54.5942939,52.9768615 54.8072163,53.0382417 55.0032458,52.9761232 C55.1992754,52.9140047 55.3429712,52.7396181 55.37182,52.5288283 L55.3444937,52.5288283 C55.3444937,52.5288283 56.6849203,38.633624 56.9927007,35.9442297 C57.029641,35.6616723 56.9247542,35.3791395 56.7147512,35.1955193 C56.5047481,35.011899 56.2188709,34.9527596 55.957178,35.0388002 C52.0595183,36.0901488 48.2272035,37.3874503 44.481573,38.923481 C44.2411352,39.0310752 44.0669158,39.2545057 44.0155182,39.5211807 C43.9641206,39.7878557 44.0421035,40.0637452 44.2241305,40.2592135 C47.4400038,43.9167899 47.6988845,44.4905273 50.2876912,47.8089412 C51.3275286,49.1416855 54.4714906,52.981543 54.4571083,52.8186852 Z M55.2553237,36.9990699 C52.3860629,37.8671466 48.937197,38.8592343 46.1801179,40.003721 C49.6505571,44.0378126 53.5423966,49.7811637 54.3895117,50.9674854 C54.449714,46.2990987 54.7386922,41.6369243 55.2553237,36.9990699 L55.2553237,36.9990699 Z"/>
    <path fill="#F5002E" d="M75,44.448754 C74.8558899,44.4249125 74.4064849,27.9772106 74.4050445,27.8282008 C74.4044509,27.5426657 74.2620213,27.2774939 74.0279631,27.1261603 C73.7939049,26.9748267 73.5010849,26.9585817 73.2527241,27.0831517 C69.527916,28.6835225 65.8988453,30.512647 62.3849025,32.5607521 C62.1606066,32.7011409 62.0172724,32.9465431 62.0014568,33.2172484 C61.9856411,33.4879538 62.0993617,33.7494283 62.3056804,33.9167413 C65.2887498,36.4335168 66.6528091,37.9400059 69.3233116,40.510425 C70.7737949,41.9185676 74.1644976,45.0388329 74.1241664,44.8600211 C74.2790814,45.0048411 74.5022926,45.0407683 74.6924164,44.9514843 C74.8825402,44.8622002 75.003333,44.6647255 75,44.448754 L75,44.448754 Z"/>
    <path fill="#FFF" d="M92.2111058,32.9261381 C92.3891991,33.0326988 92.6132627,33.0233019 92.7818772,32.9022008 C92.9504917,32.7810997 93.0316505,32.5712819 92.9886182,32.3677187 C92.8440991,32.3401603 89.1559734,16.7870922 89.122734,16.6420482 C89.0661415,16.3712707 88.875424,16.1483895 88.617271,16.0513407 C88.359118,15.954292 88.0694365,15.9965745 87.8495213,16.163403 C84.5036139,18.4483787 81.2990297,20.9351405 78.2534574,23.609962 C78.0621594,23.7897087 77.9706136,24.0520337 78.0083587,24.3122934 C78.0461038,24.572553 78.2083618,24.7978013 78.4427773,24.915358 C84.6108497,28.1991541 85.8956239,29.6089818 92.2241125,32.9536964 L92.2111058,32.9261381 Z M87.8220627,18.1969199 C85.3898073,19.9650062 82.4488449,22.0405859 80.2131355,24.0218869 C84.810286,26.5398508 90.3583717,30.4647414 91.5463182,31.261033 C90.0848459,26.971096 88.8418203,22.6093017 87.8220627,18.1925686 L87.8220627,18.1969199 Z"/>
    <path fill="#017AFF" d="M114.54417,36.662184 C110.912076,34.5685929 107.159539,32.6964774 103.306629,31.0558506 C103.052781,30.9570072 102.767119,30.9907444 102.542603,31.1460835 C102.318087,31.3014226 102.183421,31.5585039 102.182428,31.833669 C102.033131,37.9021624 101.219466,41.0859314 101,48.4472646 C101.002915,48.664548 101.129752,48.8605343 101.325445,48.9501382 C101.521139,49.039742 101.750399,49.0068045 101.913694,48.8656252 C101.756933,48.8535425 114.435184,38.2721924 114.68003,38.07585 C114.904394,37.8987162 115.023629,37.617811 114.996089,37.3312505 C114.96855,37.04469 114.79806,36.7922801 114.54417,36.662184 Z"/>
    <path fill="#FFF" d="M125.59465,54.6348332 C125.665575,54.8273807 125.841387,54.9659798 126.050987,54.9945824 C126.260588,55.023185 126.469303,54.9370593 126.592731,54.7710338 C126.442644,54.7811764 135.739061,41.4625029 135.844122,41.3161598 C136.010699,41.0911751 136.046351,40.7995177 135.938599,40.5432798 C135.830848,40.2870418 135.594698,40.1019079 135.312813,40.0526825 C131.220916,39.126247 127.074309,38.4415588 122.896077,38.0024298 C122.623908,37.9819596 122.358668,38.0917711 122.186419,38.2962348 C122.014169,38.5006985 121.956856,38.7737637 122.033074,39.0268317 C123.865642,45.796288 123.694542,47.6944018 125.59465,54.6348332 Z M123.958696,39.7281195 C125.271962,44.8225991 126.181492,51.5717702 126.408124,52.9873864 C128.648828,49.0096479 131.097926,45.1446607 133.7459,41.4074431 C130.688618,40.7988876 127.039992,40.0323973 123.958696,39.7208748 L123.958696,39.7281195 Z"/>
    <path fill="#017AFF" d="M159.138687,40.0060847 C154.986406,39.9611044 150.835162,40.1655383 146.707176,40.6182921 C146.439688,40.6556346 146.20765,40.8228654 146.086757,41.0654319 C145.965864,41.3079983 145.971616,41.5948005 146.102136,41.83228 C148.16046,45.7796025 152.89698,57.2402437 153.000786,56.7114514 C153.101228,56.8983426 153.299877,57.0103851 153.511027,56.9992391 C153.722177,56.9880932 153.908039,56.8557536 153.988426,56.659317 C153.840132,56.6757021 159.869778,41.3094459 159.930578,41.1679382 C160.044981,40.9056335 160.016628,40.6026118 159.855572,40.3663116 C159.694515,40.1300115 159.423526,39.9938426 159.138687,40.0060847 L159.138687,40.0060847 Z"/>
    <path fill="#FFF" d="M178.978249,53.8049223 C179.109469,53.9685398 179.319303,54.0370536 179.515709,53.9804099 C179.712114,53.9237662 179.859219,53.7523103 179.892497,53.5412512 L179.869677,53.5412512 C179.869677,53.5412512 181.605465,39.6565739 181.989135,36.9719233 C182.033921,36.6902357 181.938448,36.4040555 181.736065,36.2133426 C181.533681,36.0226298 181.252501,35.9538763 180.990736,36.0310971 C177.096212,36.9616799 173.259098,38.1398823 169.500591,39.5591954 C169.259006,39.6591465 169.079589,39.8773859 169.020643,40.1429948 C168.961697,40.4086036 169.030745,40.6876801 169.205351,40.8895356 C172.286124,44.6603312 172.527166,45.2431041 174.994638,48.6513519 C175.983053,50.0206436 178.986807,53.9697167 178.978249,53.8049223 Z M180.233379,37.975671 C177.363696,38.7546991 173.916367,39.6385963 171.149376,40.6977749 C174.471191,44.8580844 178.159562,50.735252 178.963986,51.9487381 C179.1619,47.2714996 179.585575,42.6078176 180.233379,37.975671 L180.233379,37.975671 Z"/>
    <path fill="#017AFF" d="M201.996118,44.3854577 C201.844093,44.3537466 199.349356,27.8865885 199.329593,27.7340729 C199.292779,27.449048 199.112018,27.2024161 198.850252,27.0800587 C198.588487,26.9577012 198.281947,26.9765534 198.037377,27.1300506 C194.330634,29.2092021 190.752639,31.5070943 187.322627,34.0113747 C187.10487,34.1809286 186.984845,34.4459051 187.001538,34.7202362 C187.01823,34.9945673 187.16951,35.2432563 187.406241,35.3855254 C192.458045,38.5566425 195.06224,41.0723954 201.143256,44.935118 L201.131094,44.9018968 C201.309982,45.0252217 201.545055,45.0328747 201.73169,44.9214497 C201.918325,44.8100247 202.021822,44.6002377 201.996118,44.3854577 L201.996118,44.3854577 Z"/>
    <path fill="#F5002E" d="M109.944523,18.2517429 C109.795529,18.238434 102.561856,3.6311538 102.494809,3.48031936 C102.376365,3.22399687 102.134035,3.04562853 101.852512,3.00755421 C101.570989,2.96947989 101.289408,3.07699227 101.106182,3.2925157 C98.2618414,6.32145925 95.6029884,9.51689421 93.143927,12.8616299 C92.9909318,13.0838413 92.9576639,13.3664618 93.0549294,13.6176917 C93.1521949,13.8689216 93.3675854,14.0567108 93.6311383,14.1200623 C99.3018611,15.5988313 102.46799,17.1811141 109.309808,19 L109.309808,18.961552 C109.508049,19.033324 109.730347,18.9775571 109.870418,18.8209148 C110.010488,18.6642725 110.039873,18.4385787 109.944523,18.2517429 L109.944523,18.2517429 Z"/>
  </g>
</svg>
