<svg xmlns="http://www.w3.org/2000/svg" viewBox="0 0 47 37">
  <g fill="none" fill-rule="evenodd" stroke="#FFF" transform="translate(1.697 .984)">
    <g stroke-linejoin="round" stroke-width="1.53">
      <g transform="translate(0 14.037)">
        <path stroke-linecap="round" d="M19.2 0C21.532931 0 21.5519733 0 23.5237936 0 24.6638828 1.64639465 25.5901688 2.97240621 26.3026515 3.97803468M23.3026515 8.97803468C17.4576178 8.97803468 9.69006734 8.96955684 0 8.95260116L6.56847704 0C8.46856623 0 9.83462944 0 10.6666667 0M23.3026515 14.9780347C18.1242845 14.9780347 10.356734 14.9590238 0 14.9210019L0 8.95260116"/>
        <path stroke-linecap="square" d="M12.2666667,10.3090559 C12.2666667,10.9483299 13.2695488,12.0453179 14.5066667,12.0453179 C15.7437845,12.0453179 16.7466667,10.9483299 16.7466667,10.3090559"/>
      </g>
      <path stroke-linecap="round" d="M13.8697394,7.11814706 C11.735811,8.0446505 11.7841823,10.7184779 13.8404727,12.9619356 C15.211333,14.4575741 15.2190717,15.9020928 13.8636887,17.2954917" transform="rotate(-2 13.58 12.207)"/>
      <path stroke-linecap="round" d="M17.5747971,0 C15.9999995,1.0089198 14.9333328,3.32069659 17.0666662,5.35620778 C18.4888884,6.71321524 18.4888884,8.16010027 17.0666662,9.69686288"/>
    </g>
    <g stroke-linecap="round" stroke-width="1.7" transform="translate(26.303 17.016)">
      <path fill="#F5002E" d="M9,0 C13.9705627,-9.13077564e-16 18,4.02943725 18,9 C18,13.9705627 13.9705627,18 9,18 C4.02943725,18 6.08718376e-16,13.9705627 0,9 C-6.08718376e-16,4.02943725 4.02943725,9.13077564e-16 9,0 Z"/>
      <path stroke-linejoin="round" d="M8.5,6 C8.5,6 8.5,7.33333333 8.5,10 C8.5,10 9.83333333,9.66666667 12.5,9"/>
    </g>
  </g>
</svg>
