<svg xmlns="http://www.w3.org/2000/svg" viewBox="0 0 73 73">
  <g fill="none" fill-rule="evenodd" transform="translate(4.5 2.5)">
    <g fill="#017AFF" transform="translate(16.772 1.155)">
      <polygon points="20.543 43.113 30.172 55.077 37.395 49.095 27.765 38.327 21.747 37.131"/>
      <path d="M14.5243112,16.7917805 C14.3822921,9.2560602 13.579823,4.47034592 12.1169038,2.43463761 C9.92252499,-0.618924852 4.78742643,-0.539985618 2.48727414,1.23820904 C0.187121846,3.0164037 -1.12383697,7.2203519 1.28357043,10.8096376 C2.88850871,13.2024948 7.30208895,15.1965424 14.5243112,16.7917805 Z"/>
    </g>
    <path fill="#DEDCDC" d="M7.22222222,34.6964286 C9.9598197,43.7246466 13.1696962,50.5044085 16.8518519,55.0357143 C20.5340075,59.5670201 25.7500568,63.1563058 32.5,65.8035714 L7.22222222,65.8035714 L7.22222222,34.6964286 Z" opacity=".334"/>
    <polygon fill="#F5002E" points="40.926 20.339 62.593 20.339 62.593 33.5 44.537 33.5"/>
    <path fill="#FFF" fill-rule="nonzero" d="M45.9515552,1.93487482 C49.592347,4.75850627 50.6390639,9.70515849 48.1451766,13.0057665 C46.6340393,15.0056834 44.5033595,16.5966401 41.9153789,17.8402968 L61.5714638,17.8390655 C63.3815753,17.8390655 64.8710836,19.2716998 64.9920667,21.0945057 L65,21.33439 L65,31.9896337 C65,33.8443969 63.585913,35.354313 61.805661,35.4769192 L61.5714638,35.4849582 L60.246,35.484 L60.2464951,62.4657181 C60.2464951,64.8852502 58.3878059,66.85473 56.0536851,66.992321 L55.7924521,67 L9.20769422,67 C6.8402537,67 4.8970131,65.1169321 4.7612299,62.7326327 L4.75365125,62.4657181 L4.753,35.484 L3.42853619,35.4849582 C1.61842472,35.4849582 0.128916407,34.0523239 0.00793326877,32.229518 L0,31.9896337 L0,21.33439 C0,19.4796268 1.414087,17.9697107 3.19433898,17.8471044 L3.42853619,17.8390655 L22.965,17.839 L22.7988159,17.759761 C20.2856423,16.5281774 18.2136884,14.9627706 16.7349683,13.0057563 C14.2410888,9.70515849 15.2878057,4.75850627 18.9285975,1.93487482 C22.5579892,-0.879915293 27.5086803,-0.614341685 29.9914343,2.67129589 C31.1016072,4.14051937 31.9012204,5.98652395 32.439867,8.13312587 C32.978932,5.98652434 33.7785438,4.14052159 34.8887088,2.67130856 L35.1012461,2.40448494 C37.6454913,-0.626718951 42.4229799,-0.801726679 45.9515552,1.93487482 Z M31.454,20.387 L3.42853619,20.3871633 C2.94398048,20.3871633 2.54993896,20.7417448 2.48229964,21.1955328 L2.47203579,21.33439 L2.47203579,31.9896337 C2.47203579,32.4607092 2.8220268,32.8581157 3.28612079,32.9264783 L3.42853619,32.9368603 L32.0369269,32.9368603 C32.7195607,32.9368603 33.2729448,33.5072715 33.2729448,34.2109092 C33.2729448,34.860421 32.8014223,35.3964143 32.1919704,35.4750315 L32.0369269,35.4849582 L7.225,35.484 L7.22568704,62.4657181 C7.22568704,63.4934097 8.00758045,64.346011 9.01608049,64.442761 L9.20769422,64.4519022 L55.7924521,64.4519022 C56.8271089,64.4519022 57.6698645,63.6597534 57.765432,62.6562167 L57.7744593,62.4657181 L57.774,35.484 L40.6984204,35.4849582 C40.0157866,35.4849582 39.4624025,34.914547 39.4624025,34.2109092 C39.4624025,33.5613974 39.9339251,33.0254042 40.543377,32.946787 L40.6984204,32.9368603 L61.5714638,32.9368603 C62.0560195,32.9368603 62.450061,32.5822788 62.5177004,32.1284909 L62.5279642,31.9896337 L62.5279642,21.33439 C62.5279642,20.8633145 62.1779732,20.465908 61.7138792,20.3975454 L61.5714638,20.3871633 L34.213,20.387 L34.2271474,20.7716479 L34.2706089,21.5463396 C34.2972626,21.9536363 34.3315865,22.3899539 34.3748649,22.8512167 C34.6030168,25.2828651 35.0240842,27.6959803 35.6814514,29.9363248 C36.6025827,33.0755923 37.916687,35.6227166 39.6552805,37.3876529 L44.8772255,37.7067796 C45.2291559,37.7283635 45.5553956,37.9038289 45.7738766,38.1890363 L55.0684099,50.3222147 C55.4975595,50.882431 55.3965119,51.6967239 54.84438,52.1275618 L48.106736,57.3850599 C47.570304,57.803647 46.8075936,57.7030888 46.3906437,57.1588048 L37.0961105,45.0257747 C36.8705611,44.7313438 36.7823678,44.349413 36.8550452,43.9818143 L37.8201551,39.1002997 C35.8000738,37.007032 34.3298448,34.1317168 33.3152725,30.6739971 C32.6060996,28.2570958 32.1570453,25.6835894 31.9143096,23.0965062 C31.883659,22.7698316 31.8572233,22.454567 31.8346054,22.1518831 L31.7778089,21.282744 L31.7415389,20.4961124 L31.739,20.427 L31.5609387,20.4044721 L31.454,20.387 Z M40.1705817,39.9706778 L39.3911633,43.9112361 L47.5794183,54.5982581 L52.346085,50.8795342 L44.1767338,40.2149954 L40.1705817,39.9706778 Z M36.8389749,4.23706767 C35.7642417,5.65938968 35.011281,7.63613626 34.5581339,10.0291472 C34.0878552,12.5126229 33.9775122,15.1583616 34.0883786,17.5838567 L34.102,17.839 L34.0951902,17.6958063 L34.5378332,17.6105344 L35.241321,17.4579394 C37.0787022,17.0365623 38.9144918,16.4425006 40.6167586,15.650952 C42.9943702,14.5453702 44.9058361,13.1460347 46.194875,11.4400544 C47.7784922,9.34416998 47.068776,5.99014082 44.4652969,3.97100158 C41.8503774,1.94298973 38.4339839,2.12625787 36.8389749,4.23706767 Z M20.4148558,3.97100158 C17.8113767,5.99014082 17.1016605,9.34416998 18.6852699,11.4400442 C19.9743166,13.1460347 21.8857824,14.5453702 24.2633941,15.650952 C25.9656609,16.4425006 27.8014505,17.0365623 29.6388317,17.4579394 C29.9606774,17.5317502 30.2707856,17.5974602 30.5671225,17.6555217 L30.7841163,17.6958063 L30.7996721,17.4015375 C30.8860953,15.2901052 30.8037602,13.0204279 30.4623627,10.8415035 L30.3220188,10.0291472 C29.8688717,7.63613626 29.115911,5.65938968 28.0411682,4.23705501 L27.8697872,4.02559556 C26.2115084,2.11624803 22.9396056,2.01292117 20.4148558,3.97100158 Z"/>
  </g>
</svg>
