<svg xmlns="http://www.w3.org/2000/svg" viewBox="0 0 30 31">
  <g fill="none" fill-rule="evenodd" transform="translate(0 2.37)">
    <rect width="30" height="20" y="7.631" fill="#000" rx="4.484"/>
    <path stroke="#017AFF" stroke-linecap="round" stroke-width="2.544" d="M11.6490621,9.96590763 C14.007839,7.56340417 15.1872274,5.7302653 15.1872274,4.46649102 C15.1872274,2.57082959 13.6504902,1.03409237 11.7548287,1.03409237 C9.85916731,1.03409237 8.3224301,2.57082959 8.3224301,4.46649102 C8.3224301,5.7302653 9.43130743,7.56340417 11.6490621,9.96590763 Z" transform="rotate(-50 11.755 5.5)"/>
    <path stroke="#F5002E" stroke-linecap="round" stroke-linejoin="round" stroke-width="2.544" d="M18.7589637,9.96590763 C20.9767183,7.56340417 22.0855957,5.7302653 22.0855957,4.46649102 C22.0855957,2.57082959 20.5488584,1.03409237 18.653197,1.03409237 C16.7575356,1.03409237 15.2207984,2.57082959 15.2207984,4.46649102 C15.2207984,5.7302653 16.4001868,7.56340417 18.7589637,9.96590763 Z" transform="rotate(50 18.653 5.5)"/>
  </g>
</svg>
