<?xml version="1.0" encoding="UTF-8"?>
<svg width="18px" height="18px" viewBox="0 0 18 18" version="1.1" xmlns="http://www.w3.org/2000/svg" xmlns:xlink="http://www.w3.org/1999/xlink">
    <title>icons/header/trash</title>
    <g id="Page-1" stroke="none" stroke-width="1" fill="none" fill-rule="evenodd">
        <g id="משלוח-דיסאייבלד" transform="translate(-483.000000, -439.000000)" fill="#000000">
            <g id="Group-3" transform="translate(384.000000, 99.000000)">
                <g id="Group" transform="translate(95.000000, 226.000000)">
                    <g id="icons/outline/שח-copy" transform="translate(6.500000, 115.500000)">
                        <g id="icons/header/trash" transform="translate(-2.000000, -1.000000)">
                            <path d="M9.13966672,1.7 C9.5277543,1.7 9.874075,1.84546371 10.1234967,2.08295563 C10.3678533,2.31562475 10.5194692,2.63693919 10.5251036,2.99750972 L10.5252663,3.40540064 L14.5128671,3.40540064 C14.6216445,3.40540064 14.7108721,3.44210436 14.7738737,3.5020926 C14.8365269,3.56174912 14.875,3.64622032 14.875,3.74924106 C14.875,3.85226181 14.8365269,3.936733 14.7738737,3.99638953 C14.7136113,4.05376958 14.6293539,4.08984584 14.5269441,4.09287443 L14.5128671,4.09308148 L13.5375648,4.09308148 L12.8280618,14.0094511 C12.8270784,14.3661306 12.6733966,14.6895296 12.4227416,14.9234225 C12.1784715,15.1513576 11.841996,15.2944223 11.464707,15.2998404 L11.4424669,15.3 L5.55753311,15.3 C5.16944552,15.3 4.82312483,15.1545363 4.57370315,14.9170444 C4.33019761,14.6851856 4.17878835,14.3652982 4.17216043,14.0062569 L4.17193794,13.9850921 L3.46245148,4.09308148 L2.48713287,4.09308148 C2.37835546,4.09308148 2.28912788,4.05637777 2.2261263,3.99638953 C2.16347309,3.936733 2.125,3.85226181 2.125,3.74924106 C2.125,3.64622032 2.16347309,3.56174912 2.2261263,3.5020926 C2.28638868,3.44471254 2.37064611,3.40863629 2.47305593,3.40560769 L6.21886698,3.40540064 L6.21886698,3.01835507 C6.21886698,2.64933022 6.37158086,2.32009915 6.62063664,2.08295563 C6.86535225,1.84994469 7.2033448,1.70552196 7.58254435,1.700155 L9.13966672,1.7 Z M12.32,7.8 L4.689,7.8 L5.11264121,13.9565718 L5.11277659,13.9747414 L5.12213239,14.0802048 C5.1441413,14.2165094 5.20350148,14.3346996 5.29077098,14.4244351 C5.35732001,14.4928647 5.4399332,14.5443494 5.53341398,14.5745884 L5.63032481,14.5975862 L5.73332589,14.6054646 L11.3074663,14.6052582 L11.4059744,14.595572 C11.5336926,14.5732534 11.6459931,14.5141801 11.7319169,14.4286783 C11.7997588,14.3611696 11.8510265,14.2774523 11.8810187,14.1828582 L11.9037449,14.084836 L11.9112427,13.9807475 L12.32,7.8 Z M12.5568182,4.22571429 L4.44318182,4.22571429 L4.62,6.8 L12.386,6.8 L12.5568182,4.22571429 Z M9.05818041,2.25510204 L7.63566535,2.2553273 L7.54021787,2.26590197 C7.41646125,2.29027063 7.30762002,2.35478447 7.22435732,2.44826866 C7.1592233,2.52139865 7.10989056,2.61198295 7.08084581,2.71431835 L7.0587299,2.82035955 L7.05113636,2.93296744 L7.05113636,3.34770733 L9.65909091,3.34770733 L9.65888974,2.91441326 L9.64943866,2.80628103 C9.62764969,2.66605147 9.56991385,2.54262994 9.48586996,2.44826866 C9.37832229,2.32751825 9.22809936,2.25510204 9.05818041,2.25510204 Z" id="Combined-Shape"></path>
                        </g>
                    </g>
                </g>
            </g>
        </g>
    </g>
</svg>