<?xml version="1.0" encoding="UTF-8"?>
<svg width="108px" height="109px" viewBox="0 0 108 109" version="1.1" xmlns="http://www.w3.org/2000/svg" xmlns:xlink="http://www.w3.org/1999/xlink">
    <title>icons/illustrated/notification</title>
    <g id="Page-1" stroke="none" stroke-width="1" fill="none" fill-rule="evenodd">
        <g id="תשלום-איפסנו-את-התהליך" transform="translate(-586.000000, -186.000000)">
            <g id="icons/illustrated/notification" transform="translate(586.500000, 186.963415)">
                <g id="Group" transform="translate(12.531103, 3.000000)">
                    <path d="M63.7186359,22.5370475 C71.4099486,28.6551384 76.3524953,38.1728866 76.3524953,48.8627787 C76.3524953,67.3217562 61.6151449,82.285714 43.4357019,82.285714 C32.846958,82.285714 23.4259653,77.2090992 17.4046906,69.322156 C22.9953251,73.7684982 30.0366628,76.418971 37.687677,76.418971 C55.86712,76.418971 70.6044704,61.4550131 70.6044704,42.9960357 C70.6044704,35.4278549 68.1271218,28.447187 63.950905,22.8444825 Z" id="Combined-Shape" fill="#F5002E"></path>
                    <path d="M29.3630773,9.14285714 C34.7799493,9.14285714 39.8341961,10.9351796 44.1050919,14.0341331 C41.5867417,13.1671398 38.9188788,12.70111 36.1567281,12.70111 C20.83594,12.70111 8.41598736,27.0388666 8.41598736,44.7253857 C8.41598736,56.1595737 13.6069256,66.1941413 21.4167157,71.859838 C9.96862888,67.9141503 1.62233656,55.6658371 1.62233656,41.1671328 C1.62233656,23.4806137 14.0422892,9.14285714 29.3630773,9.14285714 Z" id="Combined-Shape" fill="#017AFF"></path>
                    <ellipse id="Oval-Copy" stroke="#31383E" stroke-width="2" cx="38.9874159" cy="44.5714286" rx="31.7037037" ry="32"></ellipse>
                    <path d="M47.6778229,18.3283975 C55.0661486,29.2064581 53.6440901,43.8899682 44.2932293,53.2761256 C34.9423686,62.6622831 20.3142882,64.0894963 9.4774276,56.6729878 C15.6467949,65.7587084 26.6665881,70.2085508 37.4542875,67.9701704 C48.241987,65.73179 56.7017911,57.2400526 58.9318917,46.4114947 C61.1619922,35.5829369 56.729132,24.5212979 47.6778229,18.3283975 Z" id="Path" fill="#D1D1D1" opacity="0.439081101" transform="translate(34.489552, 43.435211) rotate(147.000000) translate(-34.489552, -43.435211) "></path>
                    <ellipse id="Oval-Copy-4" fill="#2F383F" cx="84.8445588" cy="1.71428571" rx="1.6984127" ry="1.71428571"></ellipse>
                    <path d="M82.9862389,13.0632041 C81.110224,13.0632041 79.5894135,14.5982278 79.5894135,16.4917755 C79.5894135,18.3853232 81.110224,19.9203469 82.9862389,19.9203469 C84.8622538,19.9203469 86.3830643,18.3853232 86.3830643,16.4917755 C86.3830643,14.5982278 84.8622538,13.0632041 82.9862389,13.0632041 Z M82.9862389,14.4346326 C84.1118478,14.4346326 85.0243341,15.3556469 85.0243341,16.4917755 C85.0243341,17.6279041 84.1118478,18.5489184 82.9862389,18.5489184 C81.86063,18.5489184 80.9481437,17.6279041 80.9481437,16.4917755 C80.9481437,15.3556469 81.86063,14.4346326 82.9862389,14.4346326 Z" id="Oval" fill="#4D4D4D" fill-rule="nonzero"></path>
                    <path d="M70.4719675,2.40554549 L70.5253018,2.45308184 L72.9608445,4.91171429 L75.3769271,2.45581001 C75.5928688,2.23620229 75.9512322,2.22818743 76.1773541,2.4379083 C76.386082,2.63149679 76.4091698,2.94294265 76.2416426,3.16243932 L76.1957868,3.21527646 L73.7468445,5.70471429 L76.1866774,8.16736755 C76.4077679,8.39052429 76.4077679,8.75233285 76.1866774,8.97548959 C75.9825939,9.18148042 75.6614631,9.19732587 75.4393723,9.02302594 L75.386038,8.97548959 L72.9488445,6.51571429 L70.5344127,8.97276142 C70.318471,9.19236913 69.9601076,9.200384 69.7339857,8.99066313 C69.5252578,8.79707464 69.50217,8.48562878 69.6696972,8.26613211 L69.715553,8.21329497 L72.1638445,5.72271429 L69.7246624,3.26120387 C69.5035719,3.03804714 69.5035719,2.67623858 69.7246624,2.45308184 C69.9287459,2.247091 70.2498767,2.23124556 70.4719675,2.40554549 Z" id="Combined-Shape" fill="#2F383F"></path>
                    <path d="M40.1196911,49.5196914 C41.3703676,49.5196914 42.3842413,48.8132249 42.3842413,47.9417543 L42.3842413,29.0065086 C42.3842413,28.135038 41.3703676,27.4285714 40.1196911,27.4285714 C38.8690145,27.4285714 37.8551408,28.135038 37.8551408,29.0065086 L37.8551408,47.9417543 C37.8551408,48.8132249 38.8690145,49.5196914 40.1196911,49.5196914 Z" id="Path" fill="#31383E" fill-rule="nonzero"></path>
                    <path d="M40.1196911,54.8571429 C38.2436762,54.8571429 36.7228657,56.3921666 36.7228657,58.2857143 C36.7228657,60.179262 38.2436762,61.7142857 40.1196911,61.7142857 C41.9957059,61.7142857 43.5165165,60.179262 43.5165165,58.2857143 C43.5165165,56.3921666 41.9957059,54.8571429 40.1196911,54.8571429 Z" id="Path" fill="#31383E" fill-rule="nonzero"></path>
                </g>
                <path d="M54.5489701,99.2303036 C66.5867321,99.2303036 76.3452664,101.021165 76.3452664,103.230304 C76.3452664,105.439443 66.5867321,107.230304 54.5489701,107.230304 C42.5112081,107.230304 32.7526738,105.439443 32.7526738,103.230304 C32.7526738,101.021165 42.5112081,99.2303036 54.5489701,99.2303036 Z" id="Path" fill="#EBEBEB" fill-rule="nonzero"></path>
            </g>
        </g>
    </g>
</svg>