<?xml version="1.0" encoding="UTF-8"?>
<svg width="23px" height="23px" viewBox="0 0 23 23" version="1.1" xmlns="http://www.w3.org/2000/svg" xmlns:xlink="http://www.w3.org/1999/xlink">
    <title>icons/info</title>
    <g id="Page-1" stroke="none" stroke-width="1" fill="none" fill-rule="evenodd">
        <g id="הוספת-כרטיס-אשראי" transform="translate(-52.000000, -205.000000)">
            <g id="Group-2" transform="translate(43.500000, 116.000000)">
                <g id="icons/info" transform="translate(9.500000, 90.000000)">
                    <path d="M17.9243595,3.07564043 C20.9281505,6.07943137 21.8260497,10.5972153 20.1991665,14.5213421 C18.5722834,18.4454686 14.7411962,21.0026873 10.4931945,21 C4.69832049,20.998771 0.00122882744,16.3016794 0,10.5071458 C-0.00268744495,6.25880373 2.55453129,2.42771653 6.47865776,0.80083349 C10.336274,-0.798475409 14.7675939,0.0421375381 17.7703299,2.92472224 L17.9243595,3.07564043 Z" id="Path" stroke="#017AFF" stroke-width="0.75" stroke-linecap="round" stroke-linejoin="round"></path>
                    <path d="M10.4927307,7.19997517 C10.1277661,7.19702154 9.80072234,6.9739411 9.66478387,6.63522278 C9.52884541,6.29650445 9.61093221,5.90922479 9.87259554,5.65478219 C10.1342589,5.40033958 10.5236814,5.32912143 10.8584611,5.47448568 C11.1932407,5.61984993 11.4070809,5.95301003 11.3998208,6.31791673 C11.3896532,6.8105702 10.9854727,7.20359714 10.4927307,7.19997517 L10.4927307,7.19997517 Z M10.6758977,9.07394071 C11.1177255,9.07394071 11.4758977,9.43211291 11.4758977,9.87394071 L11.4758977,14.6421046 C11.4758977,15.0839324 11.1177255,15.4421046 10.6758977,15.4421046 C10.2340699,15.4421046 9.87589773,15.0839324 9.87589773,14.6421046 L9.87589773,9.87394071 C9.87589773,9.43211291 10.2340699,9.07394071 10.6758977,9.07394071 Z" id="Combined-Shape" fill="#017AFF"></path>
                </g>
            </g>
        </g>
    </g>
</svg>