<?xml version="1.0" encoding="UTF-8"?>
<svg width="50px" height="34px" viewBox="0 0 50 34" version="1.1" xmlns="http://www.w3.org/2000/svg" xmlns:xlink="http://www.w3.org/1999/xlink">
    <title>badaz</title>
    <defs>
        <polygon id="path-1" points="0.000155166044 0.9383 50 0.9383 50 33 0.000155166044 33"></polygon>
    </defs>
    <g id="Page-1" stroke="none" stroke-width="1" fill="none" fill-rule="evenodd">
        <g id="לאן-המשלוח_לפני-בחירה" transform="translate(-28.000000, -622.000000)">
            <g id="Group-166" transform="translate(28.000000, 622.000000)">
                <path d="M15.8882,30.4411 C15.4842,30.4411 15.1542,30.0931 15.1542,29.6661 C15.1542,29.2391 15.4842,28.8911 15.8882,28.8911 C16.2932,28.8911 16.6232,29.2391 16.6232,29.6661 C16.6232,30.0931 16.2932,30.4411 15.8882,30.4411 M15.8882,28.5201 C15.2792,28.5201 14.7832,29.0341 14.7832,29.6661 C14.7832,30.2971 15.2792,30.8121 15.8882,30.8121 C16.4982,30.8121 16.9942,30.2971 16.9942,29.6661 C16.9942,29.0341 16.4982,28.5201 15.8882,28.5201" id="Fill-1" fill="#1D1D1B"></path>
                <path d="M19.0181,29.2937 C18.6131,29.2937 18.2841,28.9457 18.2841,28.5197 C18.2841,28.0917 18.6131,27.7437 19.0181,27.7437 C19.4231,27.7437 19.7531,28.0917 19.7531,28.5197 C19.7531,28.9457 19.4231,29.2937 19.0181,29.2937 M19.0181,27.3727 C18.4091,27.3727 17.9131,27.8877 17.9131,28.5197 C17.9131,29.1507 18.4091,29.6657 19.0181,29.6657 C19.6281,29.6657 20.1241,29.1507 20.1241,28.5197 C20.1241,27.8877 19.6281,27.3727 19.0181,27.3727" id="Fill-3" fill="#1D1D1B"></path>
                <path d="M21.9927,28.3063 C21.5877,28.3063 21.2577,27.9583 21.2577,27.5323 C21.2577,27.1053 21.5877,26.7573 21.9927,26.7573 C22.3977,26.7573 22.7277,27.1053 22.7277,27.5323 C22.7277,27.9583 22.3977,28.3063 21.9927,28.3063 M21.9927,26.3863 C21.3827,26.3863 20.8867,26.9003 20.8867,27.5323 C20.8867,28.1633 21.3827,28.6773 21.9927,28.6773 C22.6017,28.6773 23.0987,28.1633 23.0987,27.5323 C23.0987,26.9003 22.6017,26.3863 21.9927,26.3863" id="Fill-5" fill="#1D1D1B"></path>
                <path d="M25.3511,27.2927 C24.9471,27.2927 24.6171,26.9827 24.6171,26.6027 C24.6171,26.2207 24.9471,25.9097 25.3511,25.9097 C25.7561,25.9097 26.0861,26.2207 26.0861,26.6027 C26.0861,26.9827 25.7561,27.2927 25.3511,27.2927 M25.3511,25.5387 C24.7421,25.5387 24.2461,26.0167 24.2461,26.6027 C24.2461,27.1877 24.7421,27.6637 25.3511,27.6637 C25.9611,27.6637 26.4571,27.1877 26.4571,26.6027 C26.4571,26.0167 25.9611,25.5387 25.3511,25.5387" id="Fill-7" fill="#1D1D1B"></path>
                <path d="M28.8618,28.28 C28.4568,28.28 28.1278,27.932 28.1278,27.506 C28.1278,27.078 28.4568,26.73 28.8618,26.73 C29.2668,26.73 29.5968,27.078 29.5968,27.506 C29.5968,27.932 29.2668,28.28 28.8618,28.28 M28.8618,26.359 C28.2528,26.359 27.7568,26.874 27.7568,27.506 C27.7568,28.137 28.2528,28.652 28.8618,28.652 C29.4718,28.652 29.9678,28.137 29.9678,27.506 C29.9678,26.874 29.4718,26.359 28.8618,26.359" id="Fill-9" fill="#1D1D1B"></path>
                <path d="M31.9165,29.3601 C31.5115,29.3601 31.1825,29.0131 31.1825,28.5861 C31.1825,28.1581 31.5115,27.8101 31.9165,27.8101 C32.3215,27.8101 32.6515,28.1581 32.6515,28.5861 C32.6515,29.0131 32.3215,29.3601 31.9165,29.3601 M31.9165,27.4391 C31.3075,27.4391 30.8115,27.9541 30.8115,28.5861 C30.8115,29.2171 31.3075,29.7321 31.9165,29.7321 C32.5265,29.7321 33.0225,29.2171 33.0225,28.5861 C33.0225,27.9541 32.5265,27.4391 31.9165,27.4391" id="Fill-11" fill="#1D1D1B"></path>
                <path d="M34.8511,30.4274 C34.4461,30.4274 34.1171,30.0794 34.1171,29.6534 C34.1171,29.2254 34.4461,28.8774 34.8511,28.8774 C35.2561,28.8774 35.5861,29.2254 35.5861,29.6534 C35.5861,30.0794 35.2561,30.4274 34.8511,30.4274 M34.8511,28.5064 C34.2421,28.5064 33.7461,29.0214 33.7461,29.6534 C33.7461,30.2844 34.2421,30.7984 34.8511,30.7984 C35.4611,30.7984 35.9571,30.2844 35.9571,29.6534 C35.9571,29.0214 35.4611,28.5064 34.8511,28.5064" id="Fill-13" fill="#1D1D1B"></path>
                <g id="Group-17" transform="translate(0.000000, 0.458800)">
                    <mask id="mask-2" fill="white">
                        <use xlink:href="#path-1"></use>
                    </mask>
                    <g id="Clip-16"></g>
                    <path d="M47.7847,21.3583 C46.4647,23.3003 44.9137,24.2933 43.8457,24.7843 C42.6987,25.3093 41.8587,25.3853 41.8237,25.3883 L41.8117,25.3893 L39.2147,27.9083 L25.2937,23.0063 L25.2877,23.0043 L11.8877,27.7793 L9.5337,25.5643 L9.5237,25.5543 L9.5087,25.5553 C9.4987,25.5553 8.3547,25.5723 6.9087,25.1283 C5.5807,24.7193 3.7267,23.8293 2.4407,21.9023 C1.7077,20.4773 1.3627,18.7953 1.4727,17.1633 C1.5877,15.4703 2.1617,13.9343 3.1347,12.7193 C5.1797,10.1663 8.6767,9.3793 12.9807,10.5043 L12.9957,10.5073 L13.0087,10.4993 C13.0227,10.4893 14.4677,9.4833 16.6397,8.9793 C17.9217,8.6833 19.2047,8.6143 20.4547,8.7753 C22.0167,8.9753 23.5317,9.5383 24.9577,10.4453 L24.9747,10.4573 L24.9927,10.4453 C26.4187,9.5383 27.9367,8.9723 29.5057,8.7663 C30.7617,8.6013 32.0527,8.6643 33.3417,8.9523 C35.5467,9.4463 36.9897,10.4343 37.0047,10.4443 L37.0167,10.4533 L37.0317,10.4493 C42.1587,9.0253 44.8947,10.5563 46.2887,12.0913 C47.6387,13.5793 48.1117,15.4303 48.2717,16.7213 C48.4717,18.3423 48.2947,20.0343 47.7847,21.3583 L47.7847,21.3583 Z M35.7157,31.2693 L25.4077,27.8863 L15.4967,31.1763 L15.3347,31.2303 L12.6137,28.5363 L25.3277,23.8183 L38.5747,28.5283 L38.5967,28.5363 L35.7157,31.2693 Z M16.8407,31.8303 L25.2477,28.9193 L33.9507,31.8303 L16.8407,31.8303 Z M22.4997,4.4573 C24.7017,5.0683 25.0827,8.5223 24.8157,8.8603 C23.5207,8.0643 22.2697,7.5933 21.0977,7.3503 C21.9777,7.4773 22.9457,7.7193 23.8097,8.1923 C22.4247,7.3833 20.7297,7.1923 19.6737,7.1603 C19.3327,7.1383 19.0007,7.1343 18.6787,7.1463 C18.8147,6.8223 20.1557,3.8053 22.4997,4.4573 L22.4997,4.4573 Z M28.1197,4.4303 C30.5077,3.6993 31.8227,7.1063 31.6367,7.1443 C31.9567,7.1723 32.2897,7.2163 32.6327,7.2763 C30.7747,6.9703 28.4697,7.1053 25.9657,8.4193 C26.9957,7.7683 28.8727,6.9333 31.5227,7.1353 C28.1657,6.7623 25.5777,8.6133 25.5777,8.6133 C25.5777,8.6133 25.3787,5.2703 28.1197,4.4303 L28.1197,4.4303 Z M42.6797,10.0343 C42.7037,10.0403 42.7287,10.0453 42.7537,10.0493 C42.8347,10.0673 42.9137,10.0873 42.9937,10.1073 C43.0177,10.1133 43.0437,10.1193 43.0677,10.1263 C43.1467,10.1463 43.2247,10.1693 43.3037,10.1923 L43.3707,10.2123 C43.4497,10.2373 43.5277,10.2633 43.6057,10.2913 C43.6247,10.2963 43.6437,10.3033 43.6637,10.3103 C43.7437,10.3393 43.8227,10.3693 43.9017,10.4013 L43.9457,10.4193 C43.9887,10.4363 44.0307,10.4553 44.0727,10.4733 C43.6357,10.2853 43.1467,10.1293 42.6017,10.0193 C42.6287,10.0243 42.6537,10.0293 42.6797,10.0343 L42.6797,10.0343 Z M44.1877,10.5233 C44.1977,10.5273 44.2087,10.5323 44.2187,10.5373 C44.2757,10.5633 44.3327,10.5913 44.3887,10.6193 C44.2927,10.5723 44.1947,10.5263 44.0937,10.4823 C44.1247,10.4963 44.1567,10.5083 44.1877,10.5233 L44.1877,10.5233 Z M44.4657,10.6563 C44.4717,10.6603 44.4767,10.6633 44.4837,10.6663 C44.5547,10.7023 44.6237,10.7413 44.6927,10.7793 C44.6017,10.7283 44.5097,10.6783 44.4127,10.6303 C44.4307,10.6393 44.4477,10.6473 44.4657,10.6563 L44.4657,10.6563 Z M44.7327,10.8013 C44.7357,10.8023 44.7387,10.8043 44.7417,10.8053 C44.8257,10.8543 44.9087,10.9043 44.9907,10.9563 L44.9907,10.9573 C44.9007,10.8993 44.8067,10.8433 44.7117,10.7893 C44.7187,10.7943 44.7257,10.7963 44.7327,10.8013 L44.7327,10.8013 Z M37.1327,9.1303 C37.1327,9.1303 36.0107,8.2383 34.1707,7.6483 C34.2117,7.6613 34.2507,7.6713 34.2917,7.6843 C34.3757,7.7113 34.3967,7.2953 34.3107,6.6973 L36.7877,4.2093 L36.4367,3.8593 L34.2007,6.1063 C34.1487,5.8773 34.0837,5.6353 34.0027,5.3923 L36.3977,2.9873 L36.0477,2.6373 L33.8097,4.8843 C33.6697,4.5553 33.4987,4.2353 33.2927,3.9503 L33.4957,4.1503 L36.3217,1.2863 L35.9697,0.9383 L33.1637,3.7823 C32.7007,3.2133 32.0807,2.8183 31.2627,2.8293 C28.3827,2.8673 27.0807,4.2053 26.9307,4.2433 C26.4917,4.3523 25.7427,2.0153 23.4137,2.7923 C20.7017,3.6963 19.1017,4.2483 18.2807,7.1223 C18.2757,7.1403 18.2947,7.1543 18.3327,7.1643 C15.0557,7.3923 12.8677,9.1303 12.8677,9.1303 C1.1257,5.9533 -1.6233,16.8813 0.8167,21.7623 C3.7207,27.1073 8.9567,26.7983 8.9567,26.7983 L15.3117,33.0003 L35.9087,33.0003 L42.2637,26.7983 C42.2637,26.7983 46.3927,26.5373 49.1827,21.7623 C51.6247,16.8813 48.8747,5.9533 37.1327,9.1303 L37.1327,9.1303 Z" id="Fill-15" fill="#1D1D1B" mask="url(#mask-2)"></path>
                </g>
                <path d="M23.3618,1.8376 L23.3118,1.9746 C23.2918,2.0326 23.2908,2.1206 23.3098,2.2396 L23.3688,2.5716 C23.3828,2.6526 23.3848,2.7146 23.3768,2.7566 L23.4238,2.7776 C23.4928,2.6636 23.5168,2.5566 23.4978,2.4526 L23.4118,2.0026 C23.3948,1.9126 23.3968,1.8546 23.4178,1.8266 L24.1978,1.6796 L24.3828,2.5586 L24.4468,2.5736 L24.4738,2.4256 C24.4818,2.3626 24.4828,2.3136 24.4748,2.2746 C24.4688,2.2406 24.4568,2.1996 24.4378,2.1506 L24.2518,1.6596 C24.3318,1.6166 24.3618,1.5406 24.3408,1.4336 C24.3338,1.3926 24.3128,1.3546 24.2798,1.3206 C24.2478,1.2876 24.2098,1.2756 24.1668,1.2826 L23.4158,1.4256 C23.3188,1.4436 23.2658,1.4306 23.2578,1.3846 L23.2598,1.3516 L23.2238,1.3486 C23.1758,1.4766 23.1588,1.5736 23.1718,1.6406 C23.1928,1.7566 23.2568,1.8216 23.3618,1.8376" id="Fill-18" fill="#1D1D1B"></path>
                <path d="M21.853,2.2185 C21.9,2.2395 21.951,2.2445 22.005,2.2385 C21.944,2.2935 21.934,2.3865 21.976,2.5165 L22.065,2.7855 C21.998,2.8085 21.954,2.8295 21.933,2.8515 C21.904,2.8805 21.892,2.9255 21.899,2.9885 L21.921,3.2405 L22.195,3.1525 C22.3,3.1165 22.333,3.0415 22.296,2.9265 C22.289,2.9035 22.274,2.8725 22.251,2.8355 L22.071,2.5255 C22.052,2.4935 22.039,2.4635 22.029,2.4335 C22.001,2.3515 22.006,2.2835 22.041,2.2325 L22.621,2.0415 C22.696,2.0175 22.756,2.0315 22.802,2.0855 C22.832,2.1185 22.862,2.1795 22.891,2.2685 L23.081,2.8445 L23.151,2.8645 L23.167,2.7885 C23.177,2.7405 23.169,2.6765 23.143,2.5955 C23.13,2.5565 23.121,2.5305 23.114,2.5165 L22.818,1.8625 C22.739,1.6885 22.627,1.6245 22.487,1.6705 L21.918,1.8575 C21.852,1.8785 21.811,1.8645 21.794,1.8145 C21.793,1.8015 21.791,1.7895 21.79,1.7805 L21.747,1.7935 C21.721,1.9225 21.723,2.0285 21.75,2.1145 C21.766,2.1605 21.8,2.1965 21.853,2.2185" id="Fill-20" fill="#1D1D1B"></path>
                <path d="M25.189,2.0944 L24.823,2.1254 L24.732,2.5304 L25.141,2.4944 L25.239,2.1174 L25.335,2.4774 L25.391,2.4724 L25.402,2.0914 C25.369,2.0614 25.335,1.9944 25.304,1.8924 C25.275,1.8034 25.257,1.7264 25.252,1.6624 C25.25,1.6274 25.251,1.5934 25.259,1.5594 L25.284,1.4494 C25.288,1.4354 25.288,1.4174 25.287,1.3944 C25.28,1.3174 25.232,1.2634 25.144,1.2334 L25.028,1.1924 C24.976,1.1744 24.949,1.1494 24.946,1.1164 L24.945,1.0994 L24.916,1.1014 C24.846,1.2524 24.814,1.3574 24.819,1.4144 C24.826,1.4954 24.882,1.5524 24.988,1.5824 L25.121,1.6214 C25.173,1.6364 25.202,1.6624 25.205,1.6984 L25.221,1.9704 L25.226,2.0494 C25.224,2.0774 25.211,2.0924 25.189,2.0944" id="Fill-22" fill="#1D1D1B"></path>
                <path d="M25.7232,1.4851 L25.8012,1.5251 C25.7362,1.6311 25.7012,1.7291 25.6972,1.8191 L25.6992,1.8651 L25.7322,2.4371 L26.4302,2.4691 C26.5032,2.4721 26.5512,2.4361 26.5752,2.3591 L26.6262,2.1861 C26.6572,2.0831 26.7022,1.9801 26.7642,1.8801 C26.8242,1.7831 26.8782,1.7141 26.9292,1.6741 C26.9922,1.6261 27.0292,1.5951 27.0372,1.5841 C27.0692,1.5501 27.0842,1.5071 27.0872,1.4561 C27.0902,1.3981 27.0752,1.3521 27.0412,1.3171 L26.9302,1.2021 C26.9082,1.1791 26.8982,1.1521 26.9002,1.1191 L26.9062,1.0781 L26.8822,1.0631 C26.7422,1.2011 26.6692,1.3131 26.6652,1.4001 C26.6632,1.4451 26.6772,1.4861 26.7062,1.5201 L26.7742,1.6011 C26.7992,1.6311 26.8112,1.6571 26.8102,1.6781 C26.8092,1.7001 26.7942,1.7281 26.7652,1.7631 C26.7382,1.7931 26.7112,1.8221 26.6862,1.8531 L26.5742,1.9991 C26.5262,2.0511 26.4762,2.0761 26.4242,2.0741 L25.9142,2.0501 L26.2852,1.5581 L26.3612,1.6311 C26.3832,1.6531 26.3952,1.6741 26.3942,1.6961 C26.3932,1.7101 26.3912,1.7181 26.3882,1.7231 L26.4222,1.7241 L26.5472,1.5251 C26.5742,1.4821 26.5882,1.4471 26.5892,1.4201 C26.5922,1.3631 26.5672,1.3091 26.5152,1.2561 C26.4752,1.2141 26.4372,1.1751 26.4002,1.1391 C26.3702,1.1071 26.3562,1.0791 26.3572,1.0521 C26.3582,1.0391 26.3632,1.0261 26.3722,1.0141 L26.3452,1.0051 C26.2622,1.1081 26.2182,1.1631 26.2152,1.1671 C26.1792,1.2251 26.1592,1.2891 26.1562,1.3581 C26.1532,1.4211 26.1852,1.4771 26.2522,1.5291 L25.8552,2.0471 C25.8332,2.0471 25.8162,1.9951 25.8002,1.8921 C25.7862,1.8051 25.7802,1.7421 25.7822,1.7021 C25.7852,1.6411 25.8052,1.5891 25.8432,1.5451 L25.9092,1.5711 C25.9522,1.5881 25.9732,1.6181 25.9712,1.6601 L25.9982,1.6531 C26.0362,1.5151 26.0572,1.4231 26.0592,1.3721 C26.0642,1.2661 26.0272,1.1961 25.9462,1.1621 L25.8232,1.1101 C25.7632,1.0861 25.7342,1.0561 25.7352,1.0221 C25.7362,1.0171 25.7372,1.0111 25.7412,1.0041 L25.7082,1.0001 L25.6462,1.2181 C25.6352,1.2561 25.6292,1.2861 25.6282,1.3091 C25.6242,1.3911 25.6562,1.4501 25.7232,1.4851" id="Fill-24" fill="#1D1D1B"></path>
                <path d="M27.4116,2.3366 L27.5126,1.8616 L27.4676,1.8526 L27.3626,1.9406 L27.2526,2.3676 C27.2336,2.4406 27.2176,2.4846 27.2036,2.5046 L27.2386,2.5396 C27.3366,2.4846 27.3926,2.4166 27.4116,2.3366" id="Fill-26" fill="#1D1D1B"></path>
                <path d="M27.5894,1.6599 L28.3454,1.8249 L28.1484,2.7239 L28.1984,2.7499 L28.3104,2.6039 C28.3244,2.5839 28.3374,2.5549 28.3454,2.5149 C28.3544,2.4769 28.3604,2.4369 28.3614,2.3949 L28.4014,1.8369 L28.4654,1.8509 C28.5244,1.8039 28.5614,1.7419 28.5774,1.6679 C28.5954,1.5879 28.5774,1.5179 28.5254,1.4599 L27.6804,1.2749 C27.6484,1.2679 27.6284,1.2589 27.6204,1.2449 C27.6134,1.2309 27.6134,1.2079 27.6214,1.1739 L27.5924,1.1629 C27.5124,1.2479 27.4624,1.3309 27.4444,1.4129 C27.4284,1.4889 27.4304,1.5439 27.4484,1.5769 C27.4684,1.6159 27.5154,1.6429 27.5894,1.6599" id="Fill-28" fill="#1D1D1B"></path>
                <path d="M29.5249,2.7956 L28.7789,2.4876 L28.5019,2.8006 L29.4819,3.2046 L29.7489,2.8886 L29.5979,2.8256 L29.8259,2.2746 C29.8629,2.1866 29.8699,2.1066 29.8479,2.0356 C29.8259,1.9746 29.7739,1.9236 29.6929,1.8836 L29.3429,1.7116 C29.2769,1.6796 29.2519,1.6456 29.2669,1.6086 L29.2849,1.5716 L29.2629,1.5606 C29.1719,1.6236 29.1099,1.6946 29.0779,1.7756 C29.0459,1.8536 29.0349,1.9096 29.0469,1.9456 C29.0599,1.9826 29.1019,2.0186 29.1739,2.0546 L29.5129,2.2216 C29.6509,2.2896 29.6769,2.4266 29.5909,2.6336 L29.5249,2.7956 Z" id="Fill-30" fill="#1D1D1B"></path>
                <polygon id="Fill-32" fill="#1D1D1B" points="18.8921 4.2634 16.0671 1.3994 15.7141 1.7464 18.5401 4.6114"></polygon>
                <polygon id="Fill-34" fill="#1D1D1B" points="18.5503 5.6706 15.9873 3.0986 15.6373 3.4466 18.1993 6.0206"></polygon>
                <polygon id="Fill-36" fill="#1D1D1B" points="18.1607 6.8933 15.5987 4.3213 15.2477 4.6693 17.8087 7.2433"></polygon>
                <path d="M41.7476,14.1608 L41.0506,15.1828 L43.4886,15.1828 L43.6046,15.1828 L43.6556,15.1458 L43.6856,15.0898 L44.2156,14.2788 L44.2386,14.2418 L44.2386,14.1798 C44.2386,14.1298 44.2036,14.1038 44.1366,14.1038 L43.9836,14.1328 C43.9206,14.1518 43.8566,14.1608 43.7946,14.1608 L43.6846,14.1378 C43.6656,14.1258 43.6556,14.0838 43.6556,14.0138 L43.6556,13.1548 C43.6556,13.0598 43.6536,12.9958 43.6486,12.9608 C43.6436,12.9258 43.6346,12.8488 43.6196,12.7288 C43.5866,12.5598 43.5456,12.4548 43.4976,12.4138 C43.3526,12.2818 43.2376,12.2018 43.1506,12.1738 C43.0736,12.1398 42.9596,12.1238 42.8056,12.1238 L42.2346,12.1238 L42.0326,12.1238 L41.8516,12.1238 L41.7446,12.0928 C41.6966,12.0628 41.6656,12.0228 41.6506,11.9728 C41.6216,11.9178 41.5906,11.8898 41.5576,11.8898 C41.4946,11.8898 41.4356,11.9348 41.3806,12.0238 C41.3256,12.1138 41.2976,12.2378 41.2976,12.3958 C41.2976,12.6538 41.3446,12.8448 41.4386,12.9678 C41.5336,13.0908 41.6806,13.1598 41.8786,13.1768 L42.0536,13.1768 L42.4236,13.1768 L42.8146,13.1418 L43.0696,13.1768 L43.2286,13.2128 C43.3116,13.2448 43.3676,13.2878 43.3956,13.3408 C43.4306,13.3848 43.4466,13.4518 43.4466,13.5408 L43.4466,14.1608 L41.7476,14.1608 Z" id="Fill-38" fill="#1D1D1B"></path>
                <path d="M38.6489,13.154 L40.0939,13.154 L40.0939,15.08 C40.0939,15.212 40.1299,15.278 40.2029,15.278 C40.2469,15.273 40.2929,15.228 40.3399,15.142 C40.4369,15.002 40.4859,14.886 40.4859,14.797 L40.3839,13.968 L40.2979,13.197 C40.2979,13.168 40.3329,13.154 40.3999,13.154 L40.5229,13.154 C40.7069,13.154 40.8299,13.103 40.8919,13.001 C40.9259,12.948 40.9429,12.834 40.9429,12.658 C40.9429,12.499 40.9059,12.371 40.8309,12.275 C40.7549,12.179 40.6119,12.132 40.3979,12.132 L38.9239,12.132 L38.7139,12.132 L38.5319,12.132 L38.4229,12.099 C38.3749,12.055 38.3439,12.011 38.3289,11.967 C38.2999,11.916 38.2709,11.889 38.2419,11.889 C38.1939,11.889 38.1379,11.928 38.0749,12.007 C38.0069,12.113 37.9729,12.241 37.9729,12.388 C37.9729,12.644 38.0369,12.835 38.1629,12.963 C38.2879,13.09 38.4509,13.154 38.6489,13.154" id="Fill-40" fill="#1D1D1B"></path>
                <polygon id="Fill-42" fill="#1D1D1B" points="35.8862 13.5563 35.9882 13.5003 36.6412 12.2733 36.6632 12.1373 36.6122 12.0443 36.4602 11.9523 36.2792 11.9093 36.1252 11.9523 36.0322 12.0573 35.9012 12.3833 35.7482 13.1183 35.7192 13.4633 35.7702 13.5373"></polygon>
                <polygon id="Fill-44" fill="#1D1D1B" points="36.895 13.5876 36.983 13.5376 37.127 13.2356 37.643 12.3126 37.658 12.1826 37.6 12.0776 37.411 11.9726 37.237 11.9536 37.135 11.9726 37.034 12.0896 36.917 12.3796 36.75 13.1376 36.721 13.5016 36.765 13.5686"></polygon>
                <path d="M32.8618,13.069 L33.1958,13.112 L33.3558,13.112 L33.4428,13.112 C33.4908,13.145 33.5228,13.176 33.5378,13.205 C33.5508,13.234 33.5588,13.266 33.5588,13.303 L33.5368,13.538 C33.5658,13.686 33.6438,13.805 33.7728,13.895 C33.9008,13.986 34.0488,14.062 34.2188,14.124 L34.1898,14.161 L34.0158,14.161 L33.3408,14.161 C33.2818,14.161 33.2308,14.173 33.1868,14.198 L33.1148,14.266 L33.0928,14.284 L32.6338,15.183 L34.6238,15.183 C35.1278,15.183 35.3798,14.986 35.3798,14.591 C35.3798,14.456 35.2768,14.296 35.0748,14.111 C34.9048,13.955 34.6868,13.78 34.4218,13.588 C34.4218,13.538 34.4548,13.457 34.5228,13.343 C34.5508,13.285 34.5818,13.235 34.6138,13.193 C34.6448,13.152 34.6708,13.125 34.6888,13.112 L34.7328,13.112 C34.7818,13.125 34.8498,13.157 34.9398,13.211 C35.0288,13.264 35.0958,13.291 35.1398,13.291 C35.2358,13.27 35.3088,13.219 35.3568,13.137 C35.3768,13.108 35.3898,13.082 35.3968,13.057 C35.4048,13.032 35.4158,12.983 35.4298,12.909 L35.4518,12.76 C35.4518,12.613 35.3768,12.488 35.2268,12.384 C35.1748,12.343 35.0288,12.272 34.7928,12.17 C34.7188,12.136 34.6688,12.09 34.6398,12.027 C34.6108,11.965 34.5818,11.935 34.5528,11.935 C34.4568,11.935 34.3658,12 34.2808,12.129 C34.1968,12.258 34.1538,12.393 34.1538,12.533 C34.1538,12.615 34.1678,12.683 34.1938,12.736 C34.2198,12.79 34.2698,12.835 34.3408,12.872 C34.3708,12.892 34.3968,12.917 34.4218,12.946 C34.4258,12.95 34.4328,12.959 34.4428,12.97 C34.4428,13.045 34.4068,13.155 34.3348,13.303 L34.2328,13.473 L34.1888,13.532 C34.0688,13.494 33.9768,13.452 33.9148,13.402 C33.8138,13.332 33.7628,13.27 33.7628,13.217 L33.7928,12.965 L33.8208,12.694 C33.8208,12.677 33.8198,12.652 33.8168,12.62 C33.8148,12.587 33.8028,12.538 33.7808,12.471 C33.7588,12.406 33.7238,12.355 33.6748,12.318 C33.6278,12.268 33.5278,12.238 33.3788,12.225 C33.2858,12.205 33.1958,12.191 33.1088,12.182 L32.8178,12.145 C32.7698,12.129 32.7388,12.086 32.7238,12.016 L32.6878,11.942 L32.6658,11.905 C32.5928,11.91 32.5228,11.984 32.4558,12.13 C32.3968,12.278 32.3678,12.464 32.3678,12.683 C32.3678,12.89 32.5328,13.019 32.8618,13.069" id="Fill-46" fill="#1D1D1B"></path>
                <polygon id="Fill-48" fill="#1D1D1B" points="29.6392 13.5876 29.7272 13.5376 29.8712 13.2356 30.3872 12.3126 30.4022 12.1826 30.3442 12.0776 30.1552 11.9726 29.9812 11.9536 29.8792 11.9726 29.7782 12.0896 29.6602 12.3796 29.4942 13.1376 29.4652 13.5016 29.5092 13.5686"></polygon>
                <polygon id="Fill-50" fill="#1D1D1B" points="28.6304 13.5563 28.7324 13.5003 29.3854 12.2733 29.4064 12.1373 29.3564 12.0443 29.2034 11.9523 29.0224 11.9093 28.8694 11.9523 28.7764 12.0573 28.6454 12.3833 28.4924 13.1183 28.4634 13.4633 28.5144 13.5373"></polygon>
                <path d="M25.7632,14.1608 L25.0662,15.1828 L27.5042,15.1828 L27.6202,15.1828 L27.6712,15.1458 L27.7002,15.0898 L28.2312,14.2788 L28.2532,14.2418 L28.2532,14.1798 C28.2532,14.1298 28.2192,14.1038 28.1522,14.1038 L27.9982,14.1328 C27.9352,14.1518 27.8722,14.1608 27.8102,14.1608 L27.7002,14.1378 C27.6812,14.1258 27.6712,14.0838 27.6712,14.0138 L27.6712,13.1548 C27.6712,13.0598 27.6682,12.9958 27.6642,12.9608 C27.6592,12.9258 27.6502,12.8488 27.6352,12.7288 C27.6012,12.5598 27.5612,12.4548 27.5132,12.4138 C27.3682,12.2818 27.2532,12.2018 27.1662,12.1738 C27.0892,12.1398 26.9742,12.1238 26.8202,12.1238 L26.2502,12.1238 L26.0482,12.1238 L25.8672,12.1238 L25.7592,12.0928 C25.7122,12.0628 25.6802,12.0228 25.6662,11.9728 C25.6372,11.9178 25.6062,11.8898 25.5732,11.8898 C25.5102,11.8898 25.4512,11.9348 25.3962,12.0238 C25.3402,12.1138 25.3132,12.2378 25.3132,12.3958 C25.3132,12.6538 25.3602,12.8448 25.4542,12.9678 C25.5492,13.0908 25.6962,13.1598 25.8942,13.1768 L26.0682,13.1768 L26.4392,13.1768 L26.8302,13.1418 L27.0842,13.1768 L27.2442,13.2128 C27.3272,13.2448 27.3832,13.2878 27.4112,13.3408 C27.4462,13.3848 27.4622,13.4518 27.4622,13.5408 L27.4622,14.1608 L25.7632,14.1608 Z" id="Fill-52" fill="#1D1D1B"></path>
                <path d="M23.6206,13.0769 C23.7706,13.1579 23.9366,13.1989 24.1216,13.1989 L24.2226,13.1989 L24.3896,13.1729 C24.4476,13.1729 24.4846,13.1849 24.5026,13.2099 C24.5186,13.2339 24.5266,13.2839 24.5266,13.3569 L24.5066,13.5299 L24.4916,13.6959 L24.4566,13.9309 L24.4486,14.0229 C24.4486,14.0719 24.4706,14.0979 24.5146,14.0979 C24.6056,14.0979 24.7146,13.9879 24.8416,13.7699 C24.9666,13.5529 25.0296,13.3529 25.0296,13.1729 L25.0006,12.8649 C24.9806,12.7739 24.9516,12.6829 24.9136,12.5939 C24.8266,12.4089 24.7586,12.3039 24.7106,12.2789 C24.5996,12.2139 24.4406,12.1809 24.2376,12.1809 C24.0066,12.1599 23.8766,12.1399 23.8496,12.1219 C23.8226,12.1039 23.7956,12.0439 23.7666,11.9409 L23.7236,11.8869 C23.6596,11.8869 23.5896,11.9389 23.5126,12.0459 C23.4056,12.1769 23.3516,12.3359 23.3516,12.5239 C23.3516,12.7739 23.4416,12.9579 23.6206,13.0769" id="Fill-54" fill="#1D1D1B"></path>
                <path d="M21.1236,14.1608 L20.9856,14.1608 C20.9366,14.1568 20.8696,14.1008 20.7826,13.9948 C20.6996,13.8758 20.6586,13.7608 20.6586,13.6498 C20.6586,13.5478 20.6896,13.4388 20.7536,13.3268 C20.8156,13.2138 20.8666,13.1578 20.9056,13.1578 L22.2046,13.1578 C22.3356,13.1578 22.4536,13.1668 22.5576,13.1848 C22.6616,13.2038 22.7346,13.2348 22.7786,13.2808 C22.8516,13.3538 22.8876,13.4508 22.8876,13.5698 L22.8156,15.0248 L22.8466,15.2038 C22.8846,15.2528 22.9176,15.2778 22.9466,15.2778 C23.0386,15.2778 23.1146,15.2058 23.1756,15.0618 C23.2346,14.9188 23.2656,14.8098 23.2656,14.7348 L23.2146,14.1608 L23.0986,13.2698 C23.0206,12.8138 22.9676,12.5598 22.9386,12.5078 C22.8806,12.4098 22.7866,12.3218 22.6556,12.2448 C22.5536,12.1958 22.4266,12.1658 22.2736,12.1538 C22.1216,12.1408 21.8996,12.1358 21.6096,12.1358 L21.1086,12.1358 L20.9056,12.1358 L20.7386,12.1358 L20.6296,12.1018 C20.5816,12.0708 20.5496,12.0288 20.5346,11.9758 C20.5066,11.9188 20.4756,11.8898 20.4406,11.8898 C20.3926,11.8898 20.3396,11.9438 20.2806,12.0508 C20.2236,12.1568 20.1936,12.2918 20.1936,12.4518 C20.1936,12.6738 20.2346,12.8428 20.3166,12.9578 C20.3756,13.0318 20.4476,13.0878 20.5356,13.1238 L20.5496,13.1488 L20.3466,13.4508 C20.3036,13.5248 20.2776,13.5908 20.2696,13.6458 C20.2636,13.7008 20.2596,13.7558 20.2596,13.8088 L20.2676,13.9758 L20.3106,14.0868 L20.3606,14.1608 L19.9036,14.1608 L19.5116,15.1828 L20.8336,15.1828 L21.1236,14.1608 Z" id="Fill-56" fill="#1D1D1B"></path>
                <path d="M16.312,13.0769 C16.461,13.1579 16.628,13.1989 16.812,13.1989 L16.914,13.1989 L17.081,13.1729 C17.138,13.1729 17.176,13.1849 17.193,13.2099 C17.209,13.2339 17.218,13.2839 17.218,13.3569 L17.197,13.5299 L17.182,13.6959 L17.147,13.9309 L17.14,14.0229 C17.14,14.0719 17.162,14.0979 17.205,14.0979 C17.297,14.0979 17.406,13.9879 17.532,13.7699 C17.658,13.5529 17.72,13.3529 17.72,13.1729 L17.692,12.8649 C17.672,12.7739 17.643,12.6829 17.604,12.5939 C17.517,12.4089 17.45,12.3039 17.401,12.2789 C17.29,12.2139 17.132,12.1809 16.929,12.1809 C16.697,12.1599 16.568,12.1399 16.541,12.1219 C16.514,12.1039 16.486,12.0439 16.458,11.9409 L16.414,11.8869 C16.351,11.8869 16.281,11.9389 16.203,12.0459 C16.097,12.1769 16.043,12.3359 16.043,12.5239 C16.043,12.7739 16.133,12.9579 16.312,13.0769" id="Fill-58" fill="#1D1D1B"></path>
                <path d="M14.5513,12.9401 C14.6563,13.0471 14.7843,13.1131 14.9343,13.1381 L15.2073,13.1741 L15.3303,13.2061 L15.4163,13.2671 C15.4503,13.3041 15.4673,13.3621 15.4673,13.4401 L15.4413,15.0801 C15.4413,15.2111 15.4823,15.2781 15.5633,15.2781 C15.6263,15.2651 15.6933,15.2151 15.7623,15.1291 C15.8323,15.0441 15.8673,14.9751 15.8673,14.9261 L15.7803,14.2731 C15.7273,13.8331 15.7003,13.5121 15.7003,13.3101 L15.7073,13.1741 L15.8293,12.8051 C15.8553,12.7441 15.8673,12.6681 15.8673,12.5771 C15.8673,12.4911 15.8453,12.4171 15.8023,12.3551 C15.7383,12.2561 15.5813,12.1991 15.3293,12.1821 C15.0773,12.1531 14.9353,12.1271 14.9013,12.1021 C14.8623,12.0731 14.8353,12.0391 14.8213,11.9971 C14.8063,11.9561 14.7923,11.9291 14.7783,11.9171 L14.7483,11.8861 C14.6913,11.8861 14.6253,11.9421 14.5523,12.0521 C14.4603,12.1841 14.4143,12.3631 14.4143,12.5891 C14.4143,12.6551 14.4263,12.7151 14.4503,12.7711 C14.4753,12.8271 14.5083,12.8831 14.5513,12.9401" id="Fill-60" fill="#1D1D1B"></path>
                <path d="M11.9761,13.7478 C11.9761,13.6698 11.9971,13.5488 12.0351,13.3848 L12.1011,13.2248 L12.1231,13.1688 L12.6501,13.1498 L13.1111,13.1238 L13.3731,13.1498 L13.6151,13.2048 C13.7321,13.2668 13.8301,13.3598 13.9071,13.4868 C14.0051,13.6128 14.0611,13.7438 14.0761,13.8788 L14.0761,14.0318 C14.0761,14.0438 14.0661,14.0728 14.0461,14.1178 C14.0461,14.1268 14.0431,14.1358 14.0361,14.1448 C14.0281,14.1558 14.0051,14.1608 13.9661,14.1608 L13.8871,14.1608 L12.1591,14.1608 C12.0611,14.1608 12.0071,14.1368 11.9951,14.0868 C11.9831,14.0378 11.9761,13.9798 11.9761,13.9148 L11.9761,13.7478 Z M11.9121,13.1368 C11.8301,13.2098 11.7541,13.3298 11.6861,13.4938 C11.6661,13.5268 11.6501,13.5648 11.6351,13.6078 C11.6211,13.6518 11.6121,13.6858 11.6071,13.7108 L11.5911,13.9138 L11.5841,14.1368 L11.5911,14.3708 L11.6071,14.4938 L11.6071,14.6098 L11.6071,14.7398 L11.5911,14.9618 L11.5631,15.1838 L13.6581,15.1838 L14.2141,14.4808 C14.2441,14.4358 14.2581,14.3248 14.2581,14.1478 L14.2581,14.0678 L14.2581,13.2248 C14.2581,13.0068 14.2261,12.8278 14.1641,12.6878 C14.1441,12.6508 14.1181,12.6098 14.0831,12.5648 C14.0491,12.5198 14.0131,12.4768 13.9741,12.4358 C13.8581,12.3118 13.7151,12.2318 13.5451,12.1948 C13.3911,12.1498 13.1491,12.1278 12.8201,12.1278 L12.4631,12.1278 L12.3111,12.1278 L12.1291,12.1278 C12.0621,12.1148 12.0231,12.1038 12.0131,12.0958 C11.9551,12.0558 11.9181,12.0118 11.9051,11.9618 C11.8901,11.9108 11.8631,11.8868 11.8241,11.8868 C11.7611,11.8868 11.7011,11.9258 11.6431,12.0038 C11.5651,12.1058 11.5271,12.2348 11.5271,12.3918 C11.5271,12.6008 11.5681,12.7788 11.6501,12.9268 C11.6991,13.0048 11.7861,13.0748 11.9121,13.1368 L11.9121,13.1368 Z" id="Fill-62" fill="#1D1D1B"></path>
                <path d="M10.1392,14.4899 C10.1592,14.4729 10.1682,14.4389 10.1682,14.3859 L10.1602,14.1579 C10.1602,14.0139 10.1402,13.9179 10.0992,13.8689 C10.0582,13.8199 9.9822,13.7959 9.8702,13.7959 L9.5582,13.7959 C9.4562,13.7959 9.3582,13.7699 9.2602,13.7209 C9.2372,13.7129 9.2132,13.6869 9.1922,13.6439 C9.1702,13.6009 9.1592,13.5629 9.1592,13.5299 L9.1882,13.4189 C9.2372,13.3239 9.2832,13.2609 9.3262,13.2269 C9.3692,13.1949 9.4262,13.1749 9.4962,13.1669 C9.5672,13.1579 9.6482,13.1539 9.7402,13.1539 L10.6622,13.1539 C10.7452,13.1539 10.8202,13.1619 10.8852,13.1779 C10.9512,13.1949 11.0082,13.2229 11.0602,13.2639 C11.1102,13.3059 11.1432,13.3549 11.1582,13.4129 C11.1872,13.4949 11.2012,13.6019 11.2012,13.7329 L11.1942,13.9059 L11.0412,16.0779 L11.0712,16.2629 C11.1042,16.3329 11.1622,16.3679 11.2442,16.3679 C11.3362,16.3679 11.4042,16.3329 11.4482,16.2629 C11.4912,16.1929 11.5122,16.1229 11.5122,16.0529 L11.3002,12.7219 C11.3002,12.6399 11.2852,12.5539 11.2532,12.4669 C11.2222,12.3779 11.1772,12.3129 11.1192,12.2719 C10.9932,12.1739 10.8482,12.1239 10.6842,12.1239 L9.5652,12.1239 C9.4062,12.1239 9.3142,12.1139 9.2892,12.0939 L9.2462,12.0259 L9.2242,11.9409 C9.2192,11.9249 9.2022,11.9069 9.1732,11.8859 C9.0722,11.8859 8.9852,11.9479 8.9112,12.0709 C8.8292,12.1859 8.7882,12.3429 8.7882,12.5399 C8.7882,12.6909 8.8242,12.8169 8.8942,12.9179 C8.9642,13.0179 9.0282,13.0769 9.0862,13.0939 L8.8252,13.4689 C8.7572,13.5959 8.7232,13.7229 8.7232,13.8509 C8.7232,13.9949 8.7522,14.1199 8.8102,14.2259 C8.8832,14.3419 8.9552,14.4199 9.0282,14.4609 C8.8592,14.6369 8.7742,14.7379 8.7742,14.7619 C8.7792,14.7789 8.7912,14.7999 8.8102,14.8239 L8.8982,14.8549 C8.9412,14.8429 8.9942,14.7959 9.0572,14.7129 L9.2022,14.5759 C9.2372,14.5439 9.2852,14.5269 9.3482,14.5269 L9.9792,14.5269 C10.0672,14.5179 10.1192,14.5069 10.1392,14.4899" id="Fill-64" fill="#1D1D1B"></path>
                <polygon id="Fill-66" fill="#1D1D1B" points="7.7652 13.5876 7.8522 13.5376 7.9972 13.2356 8.5132 12.3126 8.5282 12.1826 8.4692 12.0776 8.2812 11.9726 8.1072 11.9536 8.0042 11.9726 7.9032 12.0896 7.7862 12.3796 7.6192 13.1376 7.5912 13.5016 7.6342 13.5686"></polygon>
                <polygon id="Fill-68" fill="#1D1D1B" points="7.5112 12.2731 7.5322 12.1371 7.4822 12.0441 7.3292 11.9521 7.1482 11.9091 6.9952 11.9521 6.9012 12.0571 6.7702 12.3831 6.6172 13.1181 6.5892 13.4631 6.6392 13.5381 6.7552 13.5561 6.8572 13.5011"></polygon>
                <path d="M37.9439,17.6745 L37.3399,17.6745 C37.3079,17.6745 37.2819,17.6805 37.2599,17.6925 L37.2299,17.7315 L37.2179,17.7615 L37.1209,18.1705 L37.9179,18.1705 C37.9349,18.1705 37.9649,18.1075 38.0059,17.9795 C38.0569,17.8135 38.0839,17.6565 38.0839,17.5095 C38.0839,17.2815 38.0339,17.0945 37.9349,16.9465 C37.8619,16.8345 37.7639,16.7485 37.6419,16.6895 C37.5499,16.6495 37.4779,16.6295 37.4229,16.6295 C37.4029,16.6295 37.3869,16.6355 37.3779,16.6465 C37.3659,16.6575 37.3599,16.6795 37.3599,16.7105 L37.3729,16.7795 L37.3729,16.8725 C37.3729,16.9065 37.3629,16.9555 37.3429,17.0195 C37.3169,17.0695 37.2959,17.0945 37.2779,17.0945 L37.2689,17.0815 C37.2629,17.0585 37.2599,17.0255 37.2599,16.9835 C37.2529,16.9055 37.2319,16.8545 37.1979,16.8305 L37.1029,16.7775 L36.9819,16.7205 C36.9679,16.7055 36.9589,16.6915 36.9529,16.6755 L36.9409,16.6395 C36.8989,16.6395 36.8569,16.6725 36.8139,16.7375 C36.7739,16.8055 36.7549,16.8795 36.7549,16.9595 C36.7549,17.0405 36.7869,17.1105 36.8519,17.1655 C36.9149,17.2115 36.9819,17.2405 37.0519,17.2525 C37.0149,17.3065 36.9839,17.3675 36.9599,17.4365 C36.9339,17.5045 36.9169,17.5945 36.9049,17.7035 L36.8929,17.8615 L36.8829,18.0215 L36.8949,18.1475 C36.9079,18.1785 36.9209,18.1945 36.9339,18.1945 C36.9719,18.1945 36.9999,18.1665 37.0179,18.1095 C37.0369,18.0525 37.0469,17.9795 37.0469,17.8895 C37.0369,17.8485 37.0319,17.8065 37.0319,17.7645 L37.0259,17.6455 C37.0259,17.5995 37.0319,17.5505 37.0439,17.4975 C37.0609,17.4405 37.0819,17.3915 37.1039,17.3515 C37.1269,17.3115 37.1549,17.2785 37.1879,17.2515 C37.2699,17.1825 37.3769,17.1475 37.5079,17.1475 C37.6509,17.1475 37.7669,17.1825 37.8579,17.2505 C37.9489,17.3205 37.9949,17.4135 37.9949,17.5335 C37.9949,17.5925 37.9859,17.6335 37.9669,17.6565 C37.9639,17.6605 37.9559,17.6665 37.9439,17.6745" id="Fill-70" fill="#1D1D1B"></path>
                <path d="M36.6568,16.9138 C36.6218,16.8238 36.5938,16.7728 36.5738,16.7618 C36.5288,16.7288 36.4648,16.7138 36.3818,16.7138 C36.2868,16.7038 36.2338,16.6938 36.2228,16.6848 C36.2128,16.6768 36.2008,16.6468 36.1888,16.5978 L36.1718,16.5708 C36.1448,16.5708 36.1168,16.5968 36.0858,16.6478 C36.0418,16.7118 36.0198,16.7888 36.0198,16.8808 C36.0198,17.0018 36.0558,17.0908 36.1298,17.1478 C36.1908,17.1878 36.2588,17.2078 36.3338,17.2078 L36.3758,17.2078 L36.4428,17.1948 C36.4678,17.1948 36.4818,17.2008 36.4888,17.2128 C36.4958,17.2258 36.4998,17.2488 36.4998,17.2848 L36.4908,17.3688 L36.4848,17.4488 L36.4698,17.5628 L36.4678,17.6078 C36.4678,17.6318 36.4758,17.6428 36.4938,17.6428 C36.5318,17.6428 36.5758,17.5908 36.6278,17.4848 C36.6778,17.3798 36.7048,17.2828 36.7048,17.1948 L36.6918,17.0458 C36.6838,17.0018 36.6728,16.9578 36.6568,16.9138" id="Fill-72" fill="#1D1D1B"></path>
                <path d="M35.5777,17.1843 L35.6767,17.2103 C35.7237,17.2413 35.7637,17.2863 35.7957,17.3473 C35.8347,17.4093 35.8577,17.4723 35.8637,17.5383 L35.8637,17.6123 C35.8637,17.6183 35.8597,17.6313 35.8517,17.6543 C35.8517,17.6583 35.8507,17.6633 35.8477,17.6663 C35.8447,17.6723 35.8357,17.6743 35.8197,17.6743 L35.7867,17.6743 L35.0817,17.6743 C35.0427,17.6743 35.0197,17.6633 35.0157,17.6383 C35.0107,17.6153 35.0077,17.5863 35.0077,17.5553 L35.0077,17.4743 C35.0077,17.4363 35.0157,17.3773 35.0317,17.2983 L35.0577,17.2203 L35.0677,17.1933 L35.2817,17.1843 L35.4707,17.1713 L35.5777,17.1843 Z M35.2067,16.6883 L35.1437,16.6883 L35.0697,16.6883 C35.0427,16.6813 35.0267,16.6763 35.0227,16.6723 C34.9987,16.6533 34.9837,16.6313 34.9777,16.6073 C34.9727,16.5823 34.9617,16.5713 34.9457,16.5713 C34.9197,16.5713 34.8947,16.5893 34.8717,16.6273 C34.8407,16.6773 34.8247,16.7403 34.8247,16.8163 C34.8247,16.9173 34.8417,17.0043 34.8747,17.0763 C34.8937,17.1133 34.9307,17.1473 34.9807,17.1773 C34.9477,17.2133 34.9167,17.2713 34.8897,17.3513 C34.8817,17.3673 34.8747,17.3853 34.8687,17.4073 C34.8627,17.4273 34.8587,17.4443 34.8567,17.4553 L34.8507,17.5543 L34.8487,17.6633 L34.8507,17.7763 L34.8567,17.8363 L34.8567,17.8933 L34.8567,17.9553 L34.8507,18.0633 L34.8397,18.1703 L35.6937,18.1703 L35.9207,17.8303 C35.9317,17.8083 35.9387,17.7543 35.9387,17.6683 L35.9387,17.6293 L35.9387,17.2203 C35.9387,17.1153 35.9257,17.0283 35.8987,16.9593 C35.8917,16.9423 35.8817,16.9223 35.8667,16.9003 C35.8527,16.8783 35.8387,16.8573 35.8227,16.8373 C35.7747,16.7783 35.7177,16.7393 35.6477,16.7203 C35.5847,16.6993 35.4857,16.6883 35.3517,16.6883 L35.2067,16.6883 Z" id="Fill-74" fill="#1D1D1B"></path>
                <path d="M34.7417,17.0163 C34.7527,16.9873 34.7577,16.9503 34.7577,16.9063 C34.7577,16.8643 34.7487,16.8283 34.7307,16.7983 C34.7057,16.7503 34.6407,16.7223 34.5387,16.7143 C34.4347,16.7013 34.3777,16.6873 34.3637,16.6753 C34.3477,16.6623 34.3367,16.6443 34.3307,16.6243 C34.3247,16.6053 34.3187,16.5913 34.3127,16.5853 L34.3017,16.5713 C34.2777,16.5713 34.2507,16.5973 34.2207,16.6523 C34.1837,16.7153 34.1647,16.8023 34.1647,16.9123 C34.1647,16.9443 34.1707,16.9733 34.1797,17.0003 C34.1897,17.0273 34.2027,17.0543 34.2207,17.0823 C34.2637,17.1343 34.3157,17.1663 34.3767,17.1783 L34.4887,17.1963 L34.5387,17.2113 L34.5737,17.2413 C34.5877,17.2593 34.5947,17.2873 34.5947,17.3253 L34.5837,18.1203 C34.5837,18.1853 34.5997,18.2163 34.6337,18.2163 C34.6597,18.2103 34.6857,18.1863 34.7147,18.1443 C34.7437,18.1033 34.7577,18.0703 34.7577,18.0463 L34.7217,17.7293 C34.7007,17.5153 34.6887,17.3603 34.6887,17.2623 L34.6917,17.1963 L34.7417,17.0163 Z" id="Fill-76" fill="#1D1D1B"></path>
                <path d="M33.8638,17.1862 L33.9148,17.1862 C33.9888,17.1862 34.0398,17.1612 34.0648,17.1122 C34.0788,17.0852 34.0858,17.0312 34.0858,16.9452 C34.0858,16.8682 34.0698,16.8062 34.0398,16.7592 C34.0098,16.7132 33.9508,16.6902 33.8628,16.6902 L33.2618,16.6902 L33.1768,16.6902 L33.1018,16.6902 L33.0578,16.6732 C33.0388,16.6532 33.0248,16.6312 33.0188,16.6102 C33.0078,16.5842 32.9958,16.5722 32.9838,16.5722 C32.9648,16.5722 32.9408,16.5912 32.9158,16.6292 C32.8878,16.6812 32.8748,16.7432 32.8748,16.8152 C32.8748,16.9382 32.8998,17.0312 32.9518,17.0932 C33.0028,17.1552 33.0688,17.1862 33.1498,17.1862 L33.7398,17.1862 L33.7398,18.1212 C33.7398,18.1852 33.7538,18.2162 33.7838,18.2162 C33.8018,18.2142 33.8198,18.1932 33.8408,18.1512 C33.8798,18.0822 33.8988,18.0272 33.8988,17.9832 L33.8578,17.5812 L33.8228,17.2072 C33.8228,17.1932 33.8368,17.1862 33.8638,17.1862" id="Fill-78" fill="#1D1D1B"></path>
                <path d="M32.4048,17.1784 L32.5168,17.1964 L32.5668,17.2114 L32.6018,17.2404 C32.6158,17.2594 32.6228,17.2864 32.6228,17.3244 L32.6118,18.1204 C32.6118,18.1854 32.6298,18.2164 32.6628,18.2164 C32.6878,18.2104 32.7148,18.1864 32.7428,18.1444 C32.7718,18.1034 32.7858,18.0704 32.7858,18.0464 L32.7508,17.7294 C32.7288,17.5154 32.7178,17.3604 32.7178,17.2624 L32.7198,17.1964 L32.7698,17.0164 C32.7808,16.9874 32.7858,16.9494 32.7858,16.9064 C32.7858,16.8644 32.7768,16.8274 32.7588,16.7984 C32.7338,16.7504 32.6698,16.7224 32.5668,16.7144 C32.4648,16.7004 32.4058,16.6874 32.3918,16.6754 C32.3758,16.6614 32.3648,16.6444 32.3588,16.6244 C32.3528,16.6054 32.3468,16.5914 32.3418,16.5854 L32.3298,16.5714 C32.3058,16.5714 32.2798,16.5974 32.2498,16.6524 C32.2128,16.7154 32.1928,16.8024 32.1928,16.9114 C32.1928,16.9444 32.1978,16.9734 32.2088,17.0004 C32.2178,17.0274 32.2318,17.0544 32.2498,17.0824 C32.2928,17.1344 32.3438,17.1664 32.4048,17.1784" id="Fill-80" fill="#1D1D1B"></path>
                <path d="M31.3921,16.78 L31.3061,16.696 L31.2831,16.639 C31.2711,16.603 31.2591,16.586 31.2461,16.586 C31.2131,16.586 31.1661,16.616 31.1051,16.677 C31.0381,16.754 31.0041,16.828 31.0041,16.901 C31.0041,16.939 31.0081,16.971 31.0171,16.999 C31.0251,17.027 31.0371,17.057 31.0521,17.092 L31.1441,17.241 C31.1441,17.266 31.1301,17.301 31.1021,17.346 L31.0041,17.506 L30.9591,17.581 C30.9181,17.629 30.8741,17.659 30.8301,17.672 L30.7201,17.672 L30.4621,17.672 C30.4431,17.672 30.4331,17.659 30.4331,17.635 C30.4351,17.605 30.4551,17.549 30.4951,17.465 C30.5721,17.321 30.6221,17.241 30.6491,17.222 C30.6681,17.229 30.6911,17.246 30.7161,17.272 L30.7821,17.316 C30.7931,17.312 30.8061,17.304 30.8201,17.292 C30.8331,17.28 30.8491,17.26 30.8681,17.232 C30.9031,17.175 30.9201,17.121 30.9201,17.07 C30.9201,16.961 30.9011,16.892 30.8621,16.864 L30.6931,16.729 C30.6811,16.712 30.6701,16.686 30.6611,16.655 C30.6511,16.623 30.6411,16.6 30.6301,16.586 C30.6291,16.582 30.6251,16.577 30.6191,16.571 C30.5871,16.571 30.5491,16.603 30.5031,16.667 C30.4511,16.743 30.4241,16.823 30.4241,16.907 C30.4241,16.978 30.4461,17.045 30.4901,17.104 L30.5391,17.179 C30.5341,17.206 30.4921,17.296 30.4141,17.449 L30.2931,17.672 C30.2821,17.69 30.2511,17.701 30.2021,17.701 C30.1741,17.701 30.1511,17.696 30.1331,17.688 C30.1161,17.68 30.0991,17.668 30.0831,17.652 L30.0471,17.603 C30.0281,17.568 30.0181,17.512 30.0181,17.435 C30.0181,17.33 30.0401,17.259 30.0851,17.222 C30.0981,17.222 30.1181,17.236 30.1451,17.262 L30.1961,17.3 C30.2231,17.296 30.2521,17.269 30.2851,17.22 C30.3161,17.172 30.3311,17.122 30.3311,17.07 C30.3311,16.967 30.3131,16.9 30.2761,16.866 L30.1071,16.723 C30.0931,16.71 30.0801,16.68 30.0691,16.636 C30.0631,16.619 30.0531,16.601 30.0411,16.586 C30.0391,16.582 30.0361,16.577 30.0301,16.571 C30.0061,16.571 29.9691,16.606 29.9171,16.676 C29.9001,16.7 29.8871,16.72 29.8781,16.738 C29.8771,16.745 29.8701,16.765 29.8561,16.802 C29.8411,16.84 29.8341,16.874 29.8341,16.906 C29.8341,16.948 29.8411,16.983 29.8521,17.013 L29.8731,17.061 C29.8951,17.101 29.9291,17.143 29.9771,17.187 L29.9431,17.325 C29.9341,17.356 29.9291,17.401 29.9291,17.459 L29.9291,17.508 L29.9381,17.561 C29.9641,17.653 29.9771,17.714 29.9771,17.741 C29.9851,17.774 29.9891,17.796 29.9891,17.807 L29.9891,17.85 C29.9961,17.888 30.0001,17.926 30.0001,17.961 L30.0031,18.06 L30.0001,18.138 L29.9971,18.175 L30.8621,18.175 L30.8881,18.043 L30.9201,17.929 L30.9801,17.77 C31.0871,17.549 31.1551,17.421 31.1831,17.384 L31.3651,17.202 C31.3871,17.178 31.4051,17.154 31.4201,17.132 C31.4351,17.108 31.4481,17.089 31.4571,17.073 C31.4751,17.032 31.4841,16.994 31.4841,16.963 C31.4841,16.925 31.4741,16.89 31.4541,16.859 C31.4351,16.829 31.4131,16.802 31.3921,16.78" id="Fill-82" fill="#1D1D1B"></path>
                <path d="M28.9634,16.3181 C28.9034,16.3181 28.8534,16.3341 28.8094,16.3651 C28.7664,16.3951 28.7434,16.4561 28.7434,16.5471 L28.7434,17.0441 C28.7434,17.0721 28.7454,17.0921 28.7484,17.1051 C28.7514,17.1191 28.7594,17.1311 28.7714,17.1461 L28.7974,17.1671 C28.8174,17.1801 28.8384,17.1881 28.8594,17.1881 L28.9404,17.1881 L29.4674,17.1881 C29.5064,17.1881 29.5324,17.1931 29.5444,17.2041 C29.5564,17.2151 29.5624,17.2331 29.5624,17.2591 C29.5484,17.3511 29.5144,17.4241 29.4614,17.4811 L29.3404,17.5881 L29.1804,17.7341 C29.1304,17.7861 29.0944,17.8351 29.0714,17.8801 C29.0494,17.9261 29.0374,17.9741 29.0374,18.0241 C29.0374,18.0681 29.0454,18.1031 29.0624,18.1311 C29.0854,18.1621 29.1134,18.1761 29.1474,18.1761 C29.1914,18.1761 29.2204,18.1581 29.2364,18.1231 C29.2464,18.1061 29.2514,18.0671 29.2514,18.0031 L29.2514,17.8781 L29.2664,17.8021 C29.2774,17.7771 29.3454,17.7071 29.4664,17.5931 C29.5874,17.4801 29.6564,17.3721 29.6744,17.2681 L29.6924,17.1661 C29.6994,17.1321 29.7044,17.1021 29.7044,17.0771 L29.7134,16.9121 C29.7134,16.8161 29.7034,16.7581 29.6834,16.7391 C29.6694,16.7181 29.6534,16.7061 29.6344,16.6991 C29.6154,16.6911 29.5964,16.6881 29.5764,16.6881 L29.1034,16.6881 C29.0524,16.6881 29.0154,16.6831 28.9924,16.6731 C28.9694,16.6631 28.9584,16.6351 28.9584,16.5911 C28.9604,16.5651 28.9734,16.5461 28.9974,16.5351 C29.0234,16.5231 29.0554,16.5171 29.0944,16.5171 L29.2984,16.5401 C29.3894,16.5541 29.4634,16.5611 29.5204,16.5611 C29.5854,16.5611 29.6414,16.5481 29.6884,16.5211 C29.7344,16.4951 29.7604,16.4511 29.7664,16.3911 C29.7664,16.3441 29.7564,16.3071 29.7364,16.2811 L29.7094,16.2631 L29.6334,16.2941 L29.5734,16.3181 C29.5464,16.3341 29.5264,16.3601 29.5144,16.3981 C29.4944,16.4411 29.4734,16.4631 29.4494,16.4631 C29.4094,16.4631 29.3574,16.4471 29.2894,16.4151 C29.1624,16.3501 29.0544,16.3181 28.9634,16.3181" id="Fill-84" fill="#1D1D1B"></path>
                <path d="M26.978,17.2526 C26.94,17.3066 26.909,17.3676 26.884,17.4366 C26.86,17.5046 26.841,17.5946 26.83,17.7036 L26.818,17.8616 L26.809,18.0216 L26.821,18.1476 C26.832,18.1786 26.845,18.1936 26.859,18.1936 C26.897,18.1936 26.924,18.1666 26.944,18.1086 C26.962,18.0526 26.971,17.9796 26.971,17.8896 C26.961,17.8486 26.957,17.8066 26.957,17.7646 L26.951,17.6456 C26.951,17.5996 26.957,17.5506 26.969,17.4976 C26.987,17.4396 27.007,17.3916 27.03,17.3516 C27.052,17.3116 27.081,17.2776 27.114,17.2516 C27.195,17.1826 27.301,17.1476 27.434,17.1476 C27.576,17.1476 27.692,17.1826 27.784,17.2506 C27.874,17.3196 27.919,17.4136 27.919,17.5336 C27.919,17.5926 27.911,17.6336 27.893,17.6566 C27.889,17.6606 27.881,17.6666 27.87,17.6746 L27.265,17.6746 C27.233,17.6746 27.207,17.6806 27.185,17.6916 L27.155,17.7316 L27.144,17.7616 L27.045,18.1706 L27.842,18.1706 C27.86,18.1706 27.89,18.1066 27.931,17.9796 C27.983,17.8136 28.008,17.6566 28.008,17.5096 C28.008,17.2816 27.958,17.0946 27.86,16.9466 C27.788,16.8346 27.69,16.7486 27.567,16.6896 C27.476,16.6486 27.403,16.6296 27.348,16.6296 C27.329,16.6296 27.313,16.6356 27.302,16.6466 C27.291,16.6576 27.286,16.6796 27.286,16.7106 L27.298,16.7796 L27.298,16.8726 C27.298,16.9066 27.288,16.9556 27.268,17.0196 C27.243,17.0686 27.221,17.0946 27.203,17.0946 L27.194,17.0816 C27.188,17.0586 27.186,17.0246 27.186,16.9826 C27.177,16.9056 27.157,16.8546 27.124,16.8306 L27.029,16.7766 L26.908,16.7206 C26.894,16.7056 26.883,16.6906 26.878,16.6756 L26.867,16.6396 C26.825,16.6396 26.783,16.6726 26.739,16.7376 C26.7,16.8056 26.68,16.8796 26.68,16.9596 C26.68,17.0406 26.712,17.1096 26.777,17.1656 C26.84,17.2116 26.907,17.2406 26.978,17.2526" id="Fill-86" fill="#1D1D1B"></path>
                <path d="M26.437,18.1774 C26.452,18.2034 26.464,18.2164 26.476,18.2164 C26.503,18.2164 26.531,18.1924 26.556,18.1414 C26.585,18.0934 26.6,18.0404 26.6,17.9834 C26.579,17.8364 26.568,17.7394 26.568,17.6864 L26.544,17.4584 L26.544,17.2224 C26.544,17.0734 26.538,16.9694 26.523,16.9134 C26.494,16.8274 26.443,16.7674 26.37,16.7314 C26.324,16.7074 26.288,16.6954 26.259,16.6954 C26.226,16.6894 26.183,16.6864 26.129,16.6864 L25.854,16.6864 L25.771,16.6864 L25.704,16.6864 L25.659,16.6704 C25.637,16.6484 25.625,16.6274 25.623,16.6094 C25.611,16.5844 25.599,16.5734 25.584,16.5734 C25.561,16.5734 25.538,16.5994 25.515,16.6524 C25.492,16.7044 25.481,16.7694 25.481,16.8454 C25.481,16.9064 25.487,16.9584 25.499,17.0004 C25.51,17.0424 25.528,17.0774 25.552,17.1084 C25.595,17.1594 25.659,17.1864 25.742,17.1864 L26.266,17.1864 L26.325,17.1864 L26.364,17.1984 C26.383,17.2064 26.398,17.2184 26.408,17.2344 C26.417,17.2494 26.422,17.2874 26.422,17.3484 L26.422,18.0934 C26.426,18.1314 26.431,18.1594 26.437,18.1774" id="Fill-88" fill="#1D1D1B"></path>
                <path d="M25.2134,17.2185 L25.2074,17.2395 L25.0474,17.5725 L25.0214,17.6555 L25.0214,17.7225 L25.0214,18.5155 C25.0214,18.5555 25.0234,18.5915 25.0264,18.6225 C25.0284,18.6555 25.0324,18.6845 25.0384,18.7095 C25.0604,18.7395 25.0844,18.7545 25.1114,18.7545 C25.1594,18.7545 25.1924,18.7385 25.2104,18.7035 C25.2374,18.6445 25.2514,18.5465 25.2514,18.4105 L25.2094,17.9405 L25.1984,17.7555 L25.1984,17.5635 C25.1984,17.5035 25.2014,17.4625 25.2074,17.4415 C25.2194,17.4105 25.2434,17.3635 25.2814,17.2975 C25.3094,17.2465 25.3354,17.2015 25.3604,17.1615 C25.4004,17.1045 25.4204,17.0645 25.4204,17.0395 L25.4234,16.9805 C25.4234,16.8605 25.3814,16.7775 25.2964,16.7315 C25.2634,16.7135 25.2154,16.7045 25.1534,16.7045 L25.0764,16.7045 L25.0384,16.6925 C25.0174,16.6755 25.0034,16.6505 24.9974,16.6175 C24.9904,16.5845 24.9824,16.5685 24.9704,16.5685 C24.9424,16.5685 24.9074,16.6025 24.8664,16.6705 C24.8414,16.7065 24.8254,16.7405 24.8184,16.7755 L24.8104,16.8715 C24.8104,16.9315 24.8184,16.9855 24.8374,17.0325 C24.8594,17.0765 24.8934,17.1125 24.9414,17.1375 C24.9604,17.1505 25.0334,17.1655 25.1594,17.1865 C25.1954,17.1865 25.2134,17.1975 25.2134,17.2185" id="Fill-90" fill="#1D1D1B"></path>
                <path d="M23.1206,16.7771 L22.9996,16.7201 C22.9846,16.7061 22.9746,16.6911 22.9696,16.6751 L22.9576,16.6391 C22.9166,16.6391 22.8736,16.6731 22.8306,16.7381 C22.7916,16.8051 22.7716,16.8801 22.7716,16.9601 C22.7716,17.0411 22.8046,17.1101 22.8686,17.1661 C22.9326,17.2121 22.9986,17.2411 23.0696,17.2531 C23.0316,17.3061 23.0006,17.3681 22.9756,17.4361 C22.9516,17.5051 22.9336,17.5941 22.9216,17.7041 L22.9096,17.8621 L22.9006,18.0211 L22.9126,18.1471 C22.9246,18.1781 22.9366,18.1941 22.9506,18.1941 C22.9886,18.1941 23.0166,18.1671 23.0356,18.1091 C23.0546,18.0521 23.0636,17.9791 23.0636,17.8891 C23.0536,17.8481 23.0486,17.8061 23.0486,17.7641 L23.0426,17.6451 C23.0426,17.5991 23.0486,17.5501 23.0606,17.4981 C23.0786,17.4401 23.0986,17.3911 23.1216,17.3511 C23.1436,17.3111 23.1726,17.2781 23.2056,17.2521 C23.2866,17.1821 23.3926,17.1471 23.5256,17.1471 C23.6686,17.1471 23.7846,17.1821 23.8746,17.2511 C23.9656,17.3201 24.0116,17.4141 24.0116,17.5341 C24.0116,17.5921 24.0026,17.6331 23.9846,17.6571 C23.9796,17.6611 23.9726,17.6671 23.9616,17.6741 L23.3566,17.6741 C23.3246,17.6741 23.2986,17.6801 23.2766,17.6921 L23.2466,17.7311 L23.2346,17.7611 L23.1376,18.1711 L23.9336,18.1711 C23.9526,18.1711 23.9816,18.1071 24.0226,17.9791 C24.0736,17.8131 24.0996,17.6571 24.0996,17.5091 C24.0996,17.2821 24.0516,17.0941 23.9526,16.9471 C23.8786,16.8351 23.7806,16.7491 23.6586,16.6891 C23.5676,16.6491 23.4946,16.6301 23.4396,16.6301 C23.4196,16.6301 23.4046,16.6351 23.3936,16.6461 C23.3836,16.6581 23.3776,16.6791 23.3776,16.7111 L23.3896,16.7801 L23.3896,16.8731 C23.3896,16.9071 23.3796,16.9561 23.3596,17.0191 C23.3346,17.0691 23.3126,17.0941 23.2956,17.0941 L23.2856,17.0821 C23.2806,17.0581 23.2766,17.0251 23.2766,16.9831 C23.2686,16.9061 23.2486,16.8541 23.2156,16.8311 L23.1206,16.7771 Z" id="Fill-92" fill="#1D1D1B"></path>
                <path d="M21.6128,17.6169 C21.5798,17.5779 21.5638,17.5259 21.5638,17.4619 C21.5638,17.4079 21.5768,17.3819 21.6018,17.3819 L21.6398,17.3959 L21.6958,17.4299 L22.1628,17.7669 C22.2538,17.8349 22.3138,17.8929 22.3428,17.9429 C22.3668,17.9899 22.3798,18.0259 22.3798,18.0539 L22.3798,18.1439 C22.3798,18.1779 22.3928,18.1939 22.4208,18.1939 C22.4748,18.1939 22.5308,18.1389 22.5888,18.0289 C22.6448,17.9179 22.6748,17.8129 22.6748,17.7159 C22.6748,17.6099 22.6068,17.4989 22.4718,17.3819 C22.4368,17.3459 22.4068,17.3169 22.3828,17.2989 C22.3578,17.2799 22.3218,17.2569 22.2738,17.2279 C22.2848,17.2049 22.2968,17.1849 22.3098,17.1719 C22.3238,17.1579 22.3438,17.1509 22.3698,17.1509 C22.3908,17.1549 22.4088,17.1609 22.4218,17.1689 C22.4338,17.1769 22.4458,17.1839 22.4558,17.1919 C22.4828,17.2189 22.5088,17.2309 22.5328,17.2309 C22.5568,17.2249 22.5858,17.1979 22.6148,17.1479 C22.6438,17.0879 22.6588,17.0309 22.6588,16.9769 C22.6588,16.9259 22.6478,16.8829 22.6268,16.8499 C22.6048,16.8169 22.5518,16.7749 22.4688,16.7249 L22.3598,16.6689 C22.3418,16.6559 22.3278,16.6379 22.3138,16.6119 C22.3008,16.5859 22.2888,16.5729 22.2738,16.5729 C22.2428,16.5729 22.2018,16.6059 22.1528,16.6749 C22.1078,16.7489 22.0848,16.8109 22.0848,16.8629 C22.0848,16.9149 22.1028,16.9559 22.1378,16.9859 L22.2358,17.0699 L22.2448,17.0969 C22.2408,17.1189 22.2348,17.1379 22.2248,17.1539 C22.2168,17.1699 22.2058,17.1779 22.1918,17.1779 L22.1178,17.1359 L21.6938,16.8479 C21.6508,16.8199 21.6168,16.7909 21.5928,16.7589 C21.5698,16.7259 21.5568,16.7029 21.5568,16.6859 L21.5488,16.6179 C21.5368,16.5879 21.5238,16.5729 21.5098,16.5729 C21.4688,16.5729 21.4258,16.6119 21.3788,16.6889 C21.3328,16.7669 21.3088,16.8439 21.3088,16.9169 C21.3088,17.0049 21.3358,17.0879 21.3888,17.1659 L21.5098,17.3059 L21.3838,17.5129 C21.3568,17.5549 21.3418,17.5909 21.3338,17.6219 C21.3268,17.6519 21.3238,17.6889 21.3238,17.7309 L21.3388,17.8049 L21.3618,17.8559 C21.4118,17.9539 21.4358,18.0119 21.4358,18.0269 C21.4248,18.0609 21.4058,18.0849 21.3808,18.0959 C21.3688,18.0999 21.3578,18.1049 21.3518,18.1109 C21.3448,18.1169 21.3388,18.1229 21.3328,18.1289 C21.3328,18.1449 21.3398,18.1559 21.3528,18.1619 C21.3678,18.1679 21.3888,18.1709 21.4188,18.1709 L21.5398,18.1709 L21.6398,18.1709 L21.7448,18.1649 L21.8188,18.1499 C21.8868,18.1219 21.9228,18.0849 21.9228,18.0389 L21.9228,17.9979 C21.9228,17.9309 21.8848,17.8639 21.8108,17.7939 L21.6128,17.6169 Z" id="Fill-94" fill="#1D1D1B"></path>
                <path d="M21.1821,17.0163 C21.1931,16.9873 21.1981,16.9503 21.1981,16.9063 C21.1981,16.8643 21.1891,16.8283 21.1711,16.7983 C21.1451,16.7503 21.0811,16.7223 20.9791,16.7143 C20.8751,16.7013 20.8181,16.6873 20.8041,16.6753 C20.7871,16.6623 20.7771,16.6443 20.7711,16.6243 C20.7651,16.6053 20.7591,16.5913 20.7531,16.5853 L20.7421,16.5713 C20.7171,16.5713 20.6911,16.5973 20.6611,16.6523 C20.6231,16.7153 20.6051,16.8023 20.6051,16.9123 C20.6051,16.9443 20.6101,16.9733 20.6201,17.0003 C20.6291,17.0273 20.6431,17.0543 20.6611,17.0823 C20.7041,17.1343 20.7561,17.1663 20.8171,17.1783 L20.9291,17.1963 L20.9791,17.2113 L21.0141,17.2413 C21.0281,17.2593 21.0351,17.2873 21.0351,17.3253 L21.0241,18.1203 C21.0241,18.1853 21.0401,18.2163 21.0741,18.2163 C21.0991,18.2103 21.1261,18.1863 21.1551,18.1443 C21.1831,18.1033 21.1981,18.0703 21.1981,18.0463 L21.1621,17.7293 C21.1401,17.5153 21.1291,17.3603 21.1291,17.2623 L21.1331,17.1963 L21.1821,17.0163 Z" id="Fill-96" fill="#1D1D1B"></path>
                <path d="M19.4771,17.1081 C19.5211,17.1601 19.5831,17.1861 19.6671,17.1861 L20.1911,17.1861 L20.2501,17.1861 L20.2891,17.1981 C20.3091,17.2071 20.3241,17.2181 20.3331,17.2341 C20.3431,17.2501 20.3481,17.2881 20.3481,17.3481 L20.3481,18.0931 C20.3521,18.1311 20.3571,18.1601 20.3631,18.1771 C20.3761,18.2041 20.3891,18.2161 20.4021,18.2161 C20.4291,18.2161 20.4561,18.1921 20.4811,18.1411 C20.5111,18.0931 20.5261,18.0411 20.5261,17.9831 C20.5041,17.8371 20.4931,17.7391 20.4931,17.6861 L20.4701,17.4591 L20.4701,17.2221 C20.4701,17.0731 20.4621,16.9691 20.4491,16.9141 C20.4191,16.8281 20.3681,16.7671 20.2941,16.7311 C20.2491,16.7081 20.2121,16.6951 20.1851,16.6951 C20.1521,16.6891 20.1081,16.6861 20.0551,16.6861 L19.7801,16.6861 L19.6971,16.6861 L19.6281,16.6861 L19.5831,16.6711 C19.5621,16.6481 19.5501,16.6281 19.5481,16.6091 C19.5371,16.5851 19.5241,16.5731 19.5101,16.5731 C19.4871,16.5731 19.4631,16.5991 19.4401,16.6521 C19.4171,16.7051 19.4071,16.7691 19.4071,16.8451 C19.4071,16.9071 19.4131,16.9591 19.4241,17.0011 C19.4361,17.0431 19.4541,17.0781 19.4771,17.1081" id="Fill-98" fill="#1D1D1B"></path>
                <path d="M18.3237,17.2077 L18.3647,17.2077 L18.4327,17.1947 C18.4567,17.1947 18.4717,17.2007 18.4787,17.2127 C18.4857,17.2257 18.4887,17.2487 18.4887,17.2847 L18.4797,17.3687 L18.4737,17.4487 L18.4597,17.5627 L18.4577,17.6077 C18.4577,17.6317 18.4667,17.6437 18.4837,17.6437 C18.5207,17.6437 18.5657,17.5907 18.6167,17.4847 C18.6687,17.3797 18.6937,17.2827 18.6937,17.1947 L18.6817,17.0457 C18.6747,17.0017 18.6627,16.9577 18.6467,16.9137 C18.6107,16.8237 18.5837,16.7727 18.5637,16.7617 C18.5177,16.7287 18.4547,16.7137 18.3717,16.7137 C18.2767,16.7037 18.2227,16.6937 18.2127,16.6857 C18.2017,16.6767 18.1907,16.6467 18.1787,16.5977 L18.1607,16.5707 C18.1357,16.5707 18.1067,16.5967 18.0747,16.6477 C18.0317,16.7117 18.0107,16.7887 18.0107,16.8807 C18.0107,17.0017 18.0467,17.0907 18.1197,17.1477 C18.1797,17.1877 18.2487,17.2077 18.3237,17.2077" id="Fill-100" fill="#1D1D1B"></path>
                <path d="M17.562,16.6774 C17.495,16.7534 17.46,16.8274 17.46,16.9014 C17.461,16.9394 17.465,16.9714 17.473,16.9984 C17.481,17.0274 17.493,17.0574 17.508,17.0914 L17.6,17.2404 C17.6,17.2664 17.586,17.3014 17.559,17.3464 L17.46,17.5054 L17.416,17.5804 C17.375,17.6284 17.332,17.6584 17.286,17.6714 L17.176,17.6714 L16.919,17.6714 C16.899,17.6714 16.889,17.6584 16.889,17.6354 C16.891,17.6054 16.913,17.5484 16.952,17.4644 C17.028,17.3214 17.08,17.2404 17.105,17.2224 C17.125,17.2294 17.148,17.2454 17.173,17.2724 L17.238,17.3164 C17.25,17.3124 17.263,17.3044 17.277,17.2914 C17.291,17.2804 17.306,17.2604 17.324,17.2324 C17.359,17.1744 17.377,17.1204 17.377,17.0704 C17.377,16.9604 17.357,16.8924 17.318,16.8644 L17.149,16.7294 C17.138,16.7114 17.126,16.6864 17.117,16.6554 C17.107,16.6224 17.097,16.6004 17.087,16.5854 C17.085,16.5814 17.082,16.5764 17.076,16.5714 C17.044,16.5714 17.005,16.6034 16.96,16.6664 C16.907,16.7424 16.88,16.8234 16.88,16.9064 C16.88,16.9784 16.902,17.0444 16.946,17.1044 L16.996,17.1794 C16.99,17.2054 16.949,17.2954 16.872,17.4484 L16.75,17.6714 C16.739,17.6904 16.708,17.7004 16.658,17.7004 C16.63,17.7004 16.608,17.6964 16.59,17.6884 C16.573,17.6804 16.555,17.6674 16.54,17.6524 L16.504,17.6034 C16.484,17.5684 16.475,17.5124 16.475,17.4354 C16.475,17.3294 16.498,17.2594 16.542,17.2224 C16.554,17.2224 16.574,17.2364 16.602,17.2624 L16.652,17.2994 C16.679,17.2954 16.709,17.2694 16.741,17.2204 C16.772,17.1714 16.788,17.1214 16.788,17.0704 C16.788,16.9674 16.769,16.9004 16.732,16.8654 L16.563,16.7234 C16.549,16.7094 16.537,16.6804 16.525,16.6364 C16.519,16.6184 16.51,16.6014 16.499,16.5854 C16.497,16.5814 16.493,16.5764 16.487,16.5714 C16.462,16.5714 16.425,16.6064 16.374,16.6754 C16.356,16.6994 16.343,16.7204 16.335,16.7384 C16.333,16.7444 16.326,16.7654 16.312,16.8024 C16.298,16.8394 16.291,16.8734 16.291,16.9064 C16.291,16.9484 16.297,16.9834 16.309,17.0134 L16.33,17.0614 C16.351,17.1014 16.386,17.1434 16.433,17.1874 L16.4,17.3244 C16.39,17.3564 16.385,17.4014 16.385,17.4584 L16.385,17.5074 L16.394,17.5614 C16.42,17.6534 16.433,17.7134 16.433,17.7404 C16.441,17.7744 16.445,17.7954 16.445,17.8074 L16.445,17.8504 C16.454,17.8884 16.458,17.9254 16.458,17.9604 L16.459,18.0604 L16.458,18.1384 L16.454,18.1744 L17.318,18.1744 L17.345,18.0424 L17.377,17.9294 L17.437,17.7704 C17.544,17.5484 17.612,17.4204 17.639,17.3844 L17.822,17.2014 C17.843,17.1784 17.862,17.1544 17.876,17.1314 C17.891,17.1084 17.904,17.0884 17.914,17.0734 C17.932,17.0314 17.941,16.9934 17.941,16.9624 C17.941,16.9244 17.931,16.8904 17.911,16.8594 C17.891,16.8284 17.871,16.8024 17.849,16.7804 L17.763,16.6964 L17.74,16.6394 C17.727,16.6034 17.715,16.5854 17.704,16.5854 C17.669,16.5854 17.623,16.6154 17.562,16.6774" id="Fill-102" fill="#1D1D1B"></path>
                <path d="M15.9976,17.2341 C16.0076,17.2501 16.0126,17.2881 16.0126,17.3481 L16.0126,18.0931 C16.0166,18.1311 16.0216,18.1601 16.0266,18.1771 C16.0416,18.2041 16.0546,18.2161 16.0656,18.2161 C16.0936,18.2161 16.1196,18.1921 16.1456,18.1411 C16.1756,18.0931 16.1896,18.0411 16.1896,17.9831 C16.1686,17.8371 16.1576,17.7391 16.1576,17.6861 L16.1346,17.4591 L16.1346,17.2221 C16.1346,17.0731 16.1276,16.9691 16.1126,16.9141 C16.0836,16.8281 16.0326,16.7671 15.9596,16.7311 C15.9136,16.7081 15.8776,16.6951 15.8496,16.6951 C15.8156,16.6891 15.7726,16.6861 15.7196,16.6861 L15.4436,16.6861 L15.3606,16.6861 L15.2936,16.6861 L15.2486,16.6711 C15.2266,16.6481 15.2156,16.6281 15.2126,16.6091 C15.2006,16.5851 15.1876,16.5731 15.1746,16.5731 C15.1506,16.5731 15.1276,16.5991 15.1046,16.6521 C15.0826,16.7051 15.0706,16.7691 15.0706,16.8451 C15.0706,16.9071 15.0766,16.9591 15.0886,17.0011 C15.1006,17.0431 15.1176,17.0781 15.1426,17.1081 C15.1856,17.1601 15.2486,17.1861 15.3316,17.1861 L15.8556,17.1861 L15.9146,17.1861 L15.9536,17.1981 C15.9736,17.2071 15.9876,17.2181 15.9976,17.2341" id="Fill-104" fill="#1D1D1B"></path>
                <path d="M14.2066,18.0388 L14.2066,17.9978 C14.2066,17.9318 14.1696,17.8638 14.0966,17.7938 L13.8976,17.6168 C13.8646,17.5778 13.8486,17.5258 13.8486,17.4618 C13.8486,17.4078 13.8606,17.3818 13.8876,17.3818 L13.9256,17.3958 L13.9806,17.4298 L14.4476,17.7678 C14.5386,17.8348 14.5986,17.8928 14.6276,17.9428 C14.6516,17.9898 14.6636,18.0258 14.6636,18.0548 L14.6636,18.1438 C14.6636,18.1778 14.6776,18.1938 14.7046,18.1938 C14.7606,18.1938 14.8156,18.1398 14.8736,18.0288 C14.9306,17.9178 14.9586,17.8128 14.9586,17.7158 C14.9586,17.6098 14.8926,17.4988 14.7576,17.3818 C14.7226,17.3458 14.6916,17.3168 14.6676,17.2988 C14.6436,17.2798 14.6056,17.2568 14.5596,17.2278 C14.5686,17.2048 14.5816,17.1848 14.5956,17.1718 C14.6086,17.1578 14.6286,17.1508 14.6546,17.1508 C14.6766,17.1548 14.6926,17.1608 14.7066,17.1688 C14.7196,17.1768 14.7296,17.1848 14.7406,17.1918 C14.7686,17.2188 14.7936,17.2308 14.8166,17.2308 C14.8426,17.2258 14.8706,17.1978 14.8996,17.1478 C14.9296,17.0878 14.9436,17.0308 14.9436,16.9768 C14.9436,16.9258 14.9336,16.8828 14.9116,16.8508 C14.8906,16.8168 14.8376,16.7748 14.7546,16.7258 L14.6446,16.6688 C14.6276,16.6558 14.6116,16.6378 14.5996,16.6118 C14.5866,16.5858 14.5726,16.5728 14.5596,16.5728 C14.5276,16.5728 14.4866,16.6058 14.4376,16.6748 C14.3926,16.7488 14.3696,16.8108 14.3696,16.8628 C14.3696,16.9148 14.3876,16.9558 14.4236,16.9858 L14.5196,17.0698 L14.5296,17.0978 C14.5256,17.1188 14.5186,17.1388 14.5106,17.1538 C14.5016,17.1698 14.4906,17.1778 14.4766,17.1778 L14.4026,17.1358 L13.9786,16.8488 C13.9356,16.8198 13.9016,16.7908 13.8786,16.7588 C13.8536,16.7268 13.8426,16.7028 13.8426,16.6858 L13.8336,16.6178 C13.8216,16.5878 13.8096,16.5728 13.7956,16.5728 C13.7536,16.5728 13.7096,16.6118 13.6636,16.6888 C13.6166,16.7678 13.5936,16.8438 13.5936,16.9168 C13.5936,17.0048 13.6206,17.0878 13.6736,17.1658 L13.7956,17.3068 L13.6676,17.5128 C13.6426,17.5548 13.6256,17.5908 13.6186,17.6218 C13.6116,17.6518 13.6086,17.6888 13.6086,17.7308 L13.6236,17.8058 L13.6466,17.8558 C13.6966,17.9538 13.7216,18.0118 13.7216,18.0268 C13.7096,18.0608 13.6906,18.0848 13.6646,18.0968 C13.6526,18.1008 13.6446,18.1048 13.6376,18.1108 C13.6296,18.1168 13.6236,18.1228 13.6176,18.1288 C13.6176,18.1448 13.6246,18.1558 13.6386,18.1618 C13.6516,18.1678 13.6736,18.1708 13.7036,18.1708 L13.8246,18.1708 L13.9256,18.1708 L14.0286,18.1648 L14.1026,18.1498 C14.1726,18.1218 14.2066,18.0848 14.2066,18.0388" id="Fill-106" fill="#1D1D1B"></path>
                <path d="M12.7417,16.5349 C12.7657,16.5229 12.7987,16.5169 12.8377,16.5169 L13.0427,16.5399 C13.1337,16.5549 13.2067,16.5609 13.2637,16.5609 C13.3297,16.5609 13.3847,16.5489 13.4307,16.5209 C13.4777,16.4949 13.5047,16.4509 13.5107,16.3909 C13.5107,16.3449 13.4997,16.3069 13.4797,16.2809 L13.4537,16.2639 L13.3767,16.2939 L13.3167,16.3179 C13.2897,16.3339 13.2697,16.3599 13.2587,16.3979 C13.2377,16.4409 13.2167,16.4629 13.1927,16.4629 C13.1537,16.4629 13.0997,16.4469 13.0327,16.4149 C12.9067,16.3499 12.7987,16.3179 12.7067,16.3179 C12.6477,16.3179 12.5957,16.3339 12.5537,16.3649 C12.5097,16.3949 12.4877,16.4559 12.4877,16.5469 L12.4877,17.0439 C12.4877,17.0719 12.4897,17.0929 12.4917,17.1049 C12.4957,17.1189 12.5027,17.1319 12.5137,17.1459 L12.5417,17.1669 C12.5607,17.1809 12.5817,17.1879 12.6027,17.1879 L12.6827,17.1879 L13.2107,17.1879 C13.2507,17.1879 13.2757,17.1929 13.2877,17.2039 C13.2997,17.2159 13.3047,17.2329 13.3047,17.2599 C13.2917,17.3509 13.2587,17.4249 13.2047,17.4809 L13.0837,17.5879 L12.9237,17.7339 C12.8747,17.7859 12.8387,17.8349 12.8147,17.8809 C12.7927,17.9269 12.7817,17.9739 12.7817,18.0239 C12.7817,18.0679 12.7897,18.1029 12.8047,18.1319 C12.8287,18.1619 12.8577,18.1769 12.8907,18.1769 C12.9347,18.1769 12.9647,18.1579 12.9797,18.1229 C12.9907,18.1059 12.9957,18.0669 12.9957,18.0029 L12.9957,17.8779 L13.0107,17.8029 C13.0217,17.7769 13.0887,17.7069 13.2097,17.5939 C13.3307,17.4799 13.3997,17.3719 13.4177,17.2679 L13.4357,17.1659 C13.4437,17.1329 13.4477,17.1019 13.4477,17.0769 L13.4567,16.9119 C13.4567,16.8159 13.4467,16.7589 13.4277,16.7389 C13.4137,16.7189 13.3967,16.7059 13.3787,16.6989 C13.3597,16.6909 13.3407,16.6879 13.3197,16.6879 L12.8457,16.6879 C12.7957,16.6879 12.7587,16.6829 12.7357,16.6739 C12.7137,16.6629 12.7017,16.6359 12.7017,16.5919 C12.7037,16.5649 12.7177,16.5459 12.7417,16.5349" id="Fill-108" fill="#1D1D1B"></path>
                <path d="M42.9194,21.7751 L42.9274,21.6341 L42.9484,21.4951 L42.9404,21.4331 L42.9154,21.4091 C42.8794,21.4211 42.8404,21.4841 42.7984,21.5981 C42.7564,21.7121 42.7294,21.8171 42.7144,21.9151 L42.6984,22.1521 L42.7104,22.3351 L42.7274,22.4201 L42.7274,22.5601 L42.6774,22.7971 L42.6644,22.9371 C42.6734,22.9701 42.6864,22.9861 42.7024,22.9861 C42.7464,22.9861 42.8014,22.9211 42.8644,22.7921 C42.9294,22.6411 42.9734,22.5011 42.9984,22.3711 L43.0154,22.3041 L43.0154,22.2071 C43.0104,22.1341 42.9874,22.0391 42.9484,21.9211 C42.9294,21.8681 42.9194,21.8191 42.9194,21.7751" id="Fill-110" fill="#1D1D1B"></path>
                <path d="M44.188,19.8815 L43.174,19.8815 L43.057,19.8815 L42.957,19.8815 L42.89,19.8495 C42.857,19.8025 42.835,19.7555 42.826,19.7105 C42.816,19.6655 42.802,19.6435 42.787,19.6435 C42.755,19.6435 42.722,19.6825 42.686,19.7585 C42.647,19.8635 42.627,19.9895 42.627,20.1365 C42.627,20.3875 42.664,20.5755 42.736,20.7015 C42.808,20.8275 42.902,20.8905 43.019,20.8905 L44.12,20.8905 L44.12,22.7915 C44.12,22.9215 44.142,22.9855 44.187,22.9855 C44.31,22.9855 44.379,22.8445 44.396,22.5615 C44.396,22.4475 44.373,22.1575 44.326,21.6925 C44.308,21.5425 44.294,21.4225 44.286,21.3335 C44.276,21.2435 44.271,21.1715 44.271,21.1145 L44.254,20.8775 L44.434,20.7865 C44.487,20.7055 44.513,20.5785 44.513,20.4035 C44.513,20.2465 44.491,20.1245 44.447,20.0395 C44.399,19.9345 44.313,19.8815 44.188,19.8815" id="Fill-112" fill="#1D1D1B"></path>
                <path d="M42.4663,21.5651 C42.4303,21.3781 42.4113,21.2001 42.4113,21.0301 L42.4113,20.9451 L42.4113,20.8411 L42.5063,20.5861 C42.5323,20.4811 42.5463,20.4001 42.5463,20.3431 C42.5463,20.2741 42.5333,20.2041 42.5083,20.1301 C42.4703,20.0211 42.4203,19.9551 42.3623,19.9301 C42.3263,19.9101 42.2933,19.8971 42.2623,19.8901 C42.2323,19.8841 42.1823,19.8811 42.1123,19.8811 L42.0293,19.8811 C41.9823,19.8741 41.9443,19.8601 41.9163,19.8431 C41.8883,19.7971 41.8733,19.7561 41.8703,19.7181 C41.8543,19.6691 41.8353,19.6431 41.8163,19.6431 C41.7793,19.6431 41.7463,19.6801 41.7163,19.7531 C41.6713,19.8461 41.6493,19.9701 41.6493,20.1251 C41.6493,20.3731 41.6773,20.5531 41.7333,20.6681 C41.7993,20.7681 41.8843,20.8201 41.9873,20.8201 L42.1573,20.8201 L42.2373,20.8431 L42.2823,20.9021 C42.2943,20.9291 42.2993,20.9661 42.2993,21.0141 L42.2863,21.2031 L42.2753,21.4531 L42.2583,21.8841 L41.6493,21.8841 L41.3903,22.8931 L41.9773,22.8931 L41.9863,22.8381 L42.0473,22.5361 L42.1103,22.3101 C42.1563,22.1771 42.2033,22.0981 42.2493,22.0741 L42.2993,22.5311 C42.3403,22.8351 42.3803,22.9861 42.4203,22.9861 C42.4693,22.9781 42.5043,22.9141 42.5243,22.7921 C42.5503,22.6631 42.5633,22.5101 42.5633,22.3361 L42.5503,22.0141 L42.4663,21.5651 Z" id="Fill-114" fill="#1D1D1B"></path>
                <path d="M40.8921,21.1198 C40.8571,21.0818 40.8061,21.0338 40.7401,20.9768 C40.7531,20.9288 40.7701,20.8908 40.7891,20.8608 C40.8101,20.8338 40.8371,20.8188 40.8731,20.8188 C40.9051,20.8268 40.9291,20.8398 40.9471,20.8558 C40.9651,20.8718 40.9811,20.8888 40.9951,20.9038 C41.0341,20.9568 41.0701,20.9828 41.1031,20.9828 C41.1391,20.9718 41.1781,20.9148 41.2191,20.8128 C41.2611,20.6908 41.2821,20.5758 41.2821,20.4658 C41.2821,20.3598 41.2661,20.2738 41.2361,20.2068 C41.2051,20.1408 41.1321,20.0558 41.0151,19.9538 L40.8611,19.8388 C40.8351,19.8138 40.8141,19.7748 40.7951,19.7228 C40.7781,19.6698 40.7591,19.6428 40.7401,19.6428 C40.6951,19.6428 40.6381,19.7128 40.5691,19.8498 C40.5041,20.0008 40.4731,20.1288 40.4731,20.2338 C40.4731,20.3398 40.4971,20.4228 40.5471,20.4838 L40.6851,20.6538 L40.6981,20.7088 C40.6921,20.7538 40.6831,20.7928 40.6711,20.8248 C40.6591,20.8568 40.6431,20.8738 40.6231,20.8738 L40.5191,20.7888 L39.9221,20.2038 C39.8611,20.1468 39.8131,20.0858 39.7801,20.0208 C39.7461,19.9558 39.7301,19.9068 39.7301,19.8748 L39.7171,19.7348 C39.7011,19.6738 39.6821,19.6428 39.6631,19.6428 C39.6051,19.6428 39.5421,19.7228 39.4771,19.8808 C39.4131,20.0388 39.3791,20.1928 39.3791,20.3438 C39.3791,20.5208 39.4161,20.6898 39.4921,20.8488 L39.6631,21.1348 L39.4841,21.5548 C39.4481,21.6398 39.4241,21.7138 39.4141,21.7758 C39.4051,21.8398 39.4001,21.9128 39.4001,21.9988 L39.4211,22.1508 L39.4551,22.2548 C39.5241,22.4528 39.5581,22.5688 39.5581,22.6008 C39.5421,22.6698 39.5161,22.7168 39.4791,22.7408 C39.4621,22.7498 39.4501,22.7598 39.4401,22.7718 C39.4301,22.7838 39.4211,22.7958 39.4131,22.8078 C39.4131,22.8408 39.4221,22.8628 39.4421,22.8748 C39.4611,22.8878 39.4921,22.8928 39.5341,22.8928 L39.7051,22.8928 L39.8471,22.8928 L39.9931,22.8818 L40.0971,22.8498 C40.1951,22.7938 40.2441,22.7188 40.2441,22.6258 L40.2441,22.5408 C40.2441,22.4068 40.1911,22.2688 40.0871,22.1268 L39.8081,21.7668 C39.7611,21.6868 39.7381,21.5818 39.7381,21.4518 C39.7381,21.3428 39.7561,21.2878 39.7921,21.2878 L39.8461,21.3178 L39.9251,21.3848 L40.5831,22.0718 C40.7101,22.2098 40.7951,22.3298 40.8361,22.4308 C40.8711,22.5238 40.8861,22.5988 40.8861,22.6558 L40.8861,22.8378 C40.8861,22.9068 40.9061,22.9418 40.9451,22.9418 C41.0231,22.9418 41.1021,22.8288 41.1821,22.6038 C41.2631,22.3788 41.3031,22.1678 41.3031,21.9688 C41.3031,21.7538 41.2081,21.5268 41.0191,21.2878 C40.9691,21.2148 40.9271,21.1588 40.8921,21.1198" id="Fill-116" fill="#1D1D1B"></path>
                <path d="M39.231,20.5466 C39.247,20.4856 39.253,20.4096 39.253,20.3206 C39.253,20.2356 39.241,20.1626 39.215,20.1026 C39.18,20.0046 39.089,19.9476 38.944,19.9316 C38.799,19.9026 38.717,19.8766 38.698,19.8526 C38.675,19.8236 38.661,19.7896 38.652,19.7486 C38.644,19.7086 38.635,19.6826 38.627,19.6696 L38.61,19.6396 C38.577,19.6396 38.54,19.6946 38.498,19.8036 C38.445,19.9336 38.419,20.1096 38.419,20.3336 C38.419,20.3986 38.425,20.4576 38.439,20.5126 C38.453,20.5676 38.472,20.6236 38.498,20.6806 C38.558,20.7856 38.631,20.8506 38.717,20.8746 L38.875,20.9116 L38.945,20.9426 L38.995,21.0026 C39.014,21.0386 39.024,21.0966 39.024,21.1736 L39.008,22.7916 C39.008,22.9216 39.032,22.9856 39.079,22.9856 C39.115,22.9746 39.153,22.9256 39.193,22.8406 C39.233,22.7546 39.253,22.6886 39.253,22.6396 L39.204,21.9946 C39.172,21.5606 39.158,21.2436 39.158,21.0456 L39.162,20.9116 L39.231,20.5466 Z" id="Fill-118" fill="#1D1D1B"></path>
                <path d="M38.2085,19.9655 C38.1615,19.9295 38.0945,19.9115 38.0085,19.9115 L37.8995,19.9115 L37.8455,19.8855 C37.8145,19.8515 37.7955,19.8005 37.7875,19.7355 C37.7785,19.6685 37.7665,19.6345 37.7495,19.6345 C37.7105,19.6345 37.6615,19.7035 37.6045,19.8425 C37.5675,19.9145 37.5455,19.9865 37.5365,20.0555 L37.5235,20.2505 C37.5235,20.3725 37.5365,20.4825 37.5625,20.5795 C37.5925,20.6685 37.6415,20.7395 37.7075,20.7935 C37.7345,20.8175 37.8385,20.8505 38.0175,20.8905 C38.0665,20.8905 38.0925,20.9125 38.0925,20.9575 L38.0835,20.9995 L37.8575,21.6755 L37.8205,21.8465 L37.8205,21.9805 L37.8205,23.5935 C37.8205,23.6755 37.8225,23.7475 37.8265,23.8135 C37.8315,23.8775 37.8375,23.9375 37.8455,23.9895 C37.8755,24.0505 37.9095,24.0805 37.9475,24.0805 C38.0175,24.0805 38.0625,24.0465 38.0885,23.9775 C38.1265,23.8555 38.1455,23.6565 38.1455,23.3805 L38.0865,22.4255 L38.0705,22.0475 L38.0705,21.6575 C38.0705,21.5365 38.0755,21.4535 38.0845,21.4085 C38.1005,21.3485 38.1355,21.2505 38.1875,21.1165 C38.2275,21.0155 38.2645,20.9235 38.3005,20.8425 C38.3555,20.7245 38.3845,20.6425 38.3845,20.5935 L38.3885,20.4715 C38.3885,20.2275 38.3285,20.0595 38.2085,19.9655" id="Fill-120" fill="#1D1D1B"></path>
                <path d="M36.5376,21.446 L36.5376,20.965 C36.5376,20.66 36.5276,20.451 36.5086,20.338 C36.4676,20.163 36.3936,20.039 36.2916,19.966 C36.2276,19.918 36.1766,19.893 36.1376,19.893 C36.0906,19.881 36.0276,19.874 35.9536,19.874 L35.5646,19.874 L35.4486,19.874 L35.3526,19.874 L35.2896,19.842 C35.2596,19.798 35.2426,19.756 35.2396,19.718 C35.2236,19.669 35.2056,19.643 35.1856,19.643 C35.1516,19.643 35.1196,19.697 35.0876,19.804 C35.0556,19.912 35.0396,20.043 35.0396,20.197 C35.0396,20.323 35.0486,20.428 35.0646,20.513 C35.0816,20.598 35.1056,20.672 35.1406,20.732 C35.2016,20.838 35.2896,20.89 35.4066,20.89 L36.1446,20.89 L36.2286,20.89 L36.2826,20.915 C36.3106,20.931 36.3316,20.956 36.3466,20.988 C36.3596,21.021 36.3666,21.098 36.3666,21.22 L36.3666,22.736 C36.3726,22.813 36.3796,22.871 36.3876,22.907 C36.4066,22.96 36.4256,22.986 36.4416,22.986 C36.4806,22.986 36.5176,22.935 36.5546,22.834 C36.5966,22.737 36.6166,22.629 36.6166,22.511 C36.5866,22.216 36.5706,22.014 36.5706,21.908 L36.5376,21.446 Z" id="Fill-122" fill="#1D1D1B"></path>
                <path d="M34.9868,21.8288 L34.8988,21.8558 C34.8628,21.8758 34.8268,21.8848 34.7908,21.8848 L34.7268,21.8608 C34.7158,21.8498 34.7108,21.8078 34.7108,21.7388 L34.7108,20.8918 C34.7108,20.7988 34.7098,20.7338 34.7068,20.6998 C34.7038,20.6648 34.6988,20.5898 34.6898,20.4718 C34.6708,20.3048 34.6468,20.2008 34.6198,20.1608 C34.5368,20.0308 34.4698,19.9508 34.4218,19.9228 C34.3768,19.8908 34.3098,19.8738 34.2218,19.8738 L33.8938,19.8738 L33.7788,19.8738 L33.6748,19.8738 L33.6128,19.8428 C33.5848,19.8138 33.5668,19.7738 33.5588,19.7248 C33.5418,19.6708 33.5238,19.6428 33.5048,19.6428 C33.4678,19.6428 33.4348,19.6868 33.4028,19.7758 C33.3718,19.8638 33.3558,19.9858 33.3558,20.1418 C33.3558,20.3968 33.3828,20.5848 33.4368,20.7058 C33.4908,20.8278 33.5748,20.8958 33.6888,20.9128 L33.7898,20.9128 L34.0028,20.9128 L34.2278,20.8798 L34.3738,20.9128 L34.4658,20.9488 C34.5128,20.9798 34.5448,21.0228 34.5618,21.0748 C34.5818,21.1188 34.5908,21.1838 34.5908,21.2728 L34.5908,21.8848 L33.6148,21.8848 L33.2138,22.8928 L34.6148,22.8928 L34.6808,22.8928 L34.7108,22.8558 L34.7278,22.8008 L35.0328,22.0008 L35.0458,21.9638 L35.0458,21.9028 C35.0458,21.8528 35.0258,21.8288 34.9868,21.8288" id="Fill-124" fill="#1D1D1B"></path>
                <path d="M33.1421,20.3376 C33.0921,20.1546 33.0531,20.0516 33.0251,20.0266 C32.9611,19.9626 32.8711,19.9306 32.7541,19.9306 C32.6211,19.9096 32.5461,19.8906 32.5311,19.8726 C32.5161,19.8546 32.4991,19.7946 32.4831,19.6936 L32.4571,19.6396 C32.4211,19.6396 32.3811,19.6916 32.3361,19.7976 C32.2761,19.9266 32.2451,20.0836 32.2451,20.2696 C32.2451,20.5156 32.2961,20.6966 32.3991,20.8146 C32.4861,20.8946 32.5811,20.9356 32.6871,20.9356 L32.7451,20.9356 L32.8411,20.9086 C32.8741,20.9086 32.8961,20.9206 32.9051,20.9446 C32.9151,20.9696 32.9201,21.0186 32.9201,21.0916 L32.9081,21.2616 L32.9001,21.4256 L32.8791,21.6566 L32.8751,21.7476 C32.8751,21.7966 32.8871,21.8206 32.9131,21.8206 C32.9651,21.8206 33.0281,21.7136 33.1001,21.4986 C33.1721,21.2836 33.2081,21.0876 33.2081,20.9086 L33.1921,20.6056 C33.1811,20.5156 33.1631,20.4266 33.1421,20.3376" id="Fill-126" fill="#1D1D1B"></path>
                <path d="M31.1353,19.9069 L30.9893,19.8149 C30.9673,19.7949 30.9513,19.7609 30.9433,19.7119 C30.9413,19.6629 30.9293,19.6379 30.9093,19.6379 C30.8573,19.6379 30.7943,19.7099 30.7223,19.8519 C30.7033,19.8879 30.6853,19.9279 30.6683,19.9699 C30.6523,20.0119 30.6373,20.0599 30.6253,20.1129 C30.6123,20.1659 30.6063,20.2239 30.6063,20.2899 C30.6063,20.5159 30.6613,20.6849 30.7733,20.7969 C30.8853,20.9089 30.9413,20.9989 30.9413,21.0669 L30.9153,21.3649 L30.8573,21.7299 L30.8153,21.9129 C30.7983,21.9609 30.7763,21.9919 30.7473,22.0039 L30.1883,22.3679 L30.2043,22.3379 L30.2043,22.2899 L30.1923,22.2469 L30.2043,22.2289 L30.1943,22.2169 L30.1883,22.1749 L30.2043,21.9309 C30.2043,21.7329 30.1873,21.5849 30.1503,21.4879 L30.0823,21.3419 C30.0513,21.2769 30.0313,21.2189 30.0243,21.1659 C30.0153,21.1129 30.0113,21.0439 30.0113,20.9599 C30.0553,20.9639 30.0973,20.9769 30.1363,21.0019 L30.2433,21.0869 L30.2563,21.0739 L30.2693,21.0439 L30.3433,20.7819 C30.3683,20.6839 30.3813,20.5929 30.3813,20.5079 C30.3813,20.4669 30.3793,20.4359 30.3763,20.4159 C30.3743,20.3959 30.3683,20.3649 30.3603,20.3249 C30.2933,20.1339 30.2153,19.9959 30.1263,19.9099 C30.0313,19.8289 29.9323,19.7759 29.8293,19.7519 L29.7583,19.6359 C29.7443,19.6149 29.7223,19.6049 29.6923,19.6049 C29.6633,19.6089 29.6373,19.6339 29.6123,19.6779 C29.5953,19.7029 29.5793,19.7389 29.5663,19.7879 C29.5243,19.9179 29.5033,20.0499 29.5033,20.1829 C29.5293,20.4029 29.5763,20.5699 29.6493,20.6849 C29.7203,20.8019 29.7963,20.8779 29.8783,20.9139 C29.8783,21.0079 29.8693,21.0899 29.8513,21.1609 C29.8333,21.2309 29.8243,21.2919 29.8243,21.3409 C29.8243,21.4259 29.8463,21.5389 29.8893,21.6809 L29.9703,21.9129 C30.0123,22.0259 30.0383,22.1369 30.0463,22.2479 L30.0463,22.4419 C30.0433,22.4629 30.0343,22.4719 30.0183,22.4719 L29.9673,22.5039 L29.7803,22.6429 L29.6753,22.7399 L29.6043,22.8139 C29.5543,22.8829 29.5143,22.9559 29.4853,23.0329 C29.4553,23.1099 29.4313,23.2169 29.4093,23.3519 C29.3883,23.4889 29.3783,23.6499 29.3783,23.8369 L29.3823,23.9959 L29.4493,23.9159 L30.6423,23.1799 L30.8013,23.0339 C30.8623,22.9809 30.8973,22.9429 30.9063,22.9189 C30.9273,22.8619 30.9473,22.7949 30.9643,22.7179 C30.9913,22.5999 31.0053,22.4759 31.0053,22.3459 L31.0103,21.8299 L31.0183,21.5499 L31.0423,21.3179 C31.0713,21.1479 31.1103,21.0529 31.1593,21.0329 C31.2243,20.9879 31.2723,20.9149 31.3063,20.8129 C31.3443,20.7119 31.3643,20.5939 31.3643,20.4609 C31.3643,20.3229 31.3403,20.2069 31.2933,20.1129 C31.2463,20.0199 31.1943,19.9509 31.1353,19.9069" id="Fill-128" fill="#1D1D1B"></path>
                <path d="M29.3286,20.5466 C29.3426,20.4856 29.3496,20.4096 29.3496,20.3206 C29.3496,20.2356 29.3376,20.1626 29.3116,20.1026 C29.2756,20.0046 29.1846,19.9476 29.0416,19.9316 C28.8956,19.9026 28.8136,19.8766 28.7946,19.8526 C28.7716,19.8236 28.7566,19.7896 28.7486,19.7486 C28.7406,19.7086 28.7316,19.6826 28.7246,19.6696 L28.7066,19.6396 C28.6736,19.6396 28.6366,19.6946 28.5946,19.8036 C28.5416,19.9336 28.5156,20.1096 28.5156,20.3336 C28.5156,20.3986 28.5216,20.4576 28.5356,20.5126 C28.5496,20.5676 28.5686,20.6236 28.5946,20.6806 C28.6546,20.7856 28.7276,20.8506 28.8126,20.8746 L28.9716,20.9116 L29.0416,20.9426 L29.0916,21.0026 C29.1106,21.0386 29.1206,21.0966 29.1206,21.1736 L29.1046,22.7916 C29.1046,22.9216 29.1286,22.9856 29.1756,22.9856 C29.2116,22.9746 29.2496,22.9256 29.2896,22.8406 C29.3296,22.7546 29.3496,22.6886 29.3496,22.6396 L29.3006,21.9946 C29.2686,21.5606 29.2536,21.2436 29.2536,21.0456 L29.2586,20.9116 L29.3286,20.5466 Z" id="Fill-130" fill="#1D1D1B"></path>
                <path d="M28.4819,21.8288 L28.3939,21.8558 C28.3579,21.8758 28.3219,21.8848 28.2859,21.8848 L28.2229,21.8608 C28.2109,21.8498 28.2069,21.8078 28.2069,21.7388 L28.2069,20.8918 C28.2069,20.7988 28.2049,20.7338 28.2019,20.6998 C28.1999,20.6648 28.1939,20.5898 28.1849,20.4718 C28.1659,20.3048 28.1429,20.2008 28.1149,20.1608 C28.0319,20.0308 27.9659,19.9508 27.9159,19.9228 C27.8719,19.8908 27.8049,19.8738 27.7169,19.8738 L27.3889,19.8738 L27.2739,19.8738 L27.1699,19.8738 L27.1079,19.8428 C27.0809,19.8138 27.0619,19.7738 27.0539,19.7248 C27.0379,19.6708 27.0189,19.6428 27.0009,19.6428 C26.9639,19.6428 26.9299,19.6868 26.8979,19.7758 C26.8669,19.8638 26.8499,19.9858 26.8499,20.1418 C26.8499,20.3968 26.8779,20.5848 26.9319,20.7058 C26.9869,20.8278 27.0709,20.8958 27.1849,20.9128 L27.2849,20.9128 L27.4979,20.9128 L27.7229,20.8798 L27.8699,20.9128 L27.9609,20.9488 C28.0079,20.9798 28.0409,21.0228 28.0569,21.0748 C28.0769,21.1188 28.0859,21.1838 28.0859,21.2728 L28.0859,21.8848 L27.1099,21.8848 L26.7089,22.8928 L28.1099,22.8928 L28.1769,22.8928 L28.2069,22.8558 L28.2229,22.8008 L28.5279,22.0008 L28.5409,21.9638 L28.5409,21.9028 C28.5409,21.8528 28.5209,21.8288 28.4819,21.8288" id="Fill-132" fill="#1D1D1B"></path>
                <path d="M26.3501,19.8815 L25.5031,19.8815 L25.3821,19.8815 L25.2781,19.8815 L25.2151,19.8495 C25.1881,19.8065 25.1691,19.7635 25.1611,19.7205 C25.1441,19.6685 25.1271,19.6425 25.1111,19.6425 C25.0821,19.6425 25.0511,19.6815 25.0151,19.7585 C24.9761,19.8635 24.9561,19.9895 24.9561,20.1355 C24.9561,20.3875 24.9931,20.5755 25.0651,20.7015 C25.1371,20.8275 25.2311,20.8905 25.3451,20.8905 L26.1751,20.8905 L26.1751,22.7915 C26.1751,22.9215 26.1971,22.9855 26.2381,22.9855 C26.2631,22.9825 26.2891,22.9375 26.3171,22.8525 C26.3721,22.7145 26.4001,22.6005 26.4001,22.5115 L26.3421,21.6945 L26.2921,20.9335 C26.2921,20.9045 26.3121,20.8905 26.3511,20.8905 L26.4221,20.8905 C26.5281,20.8905 26.5981,20.8405 26.6341,20.7385 C26.6531,20.6875 26.6631,20.5735 26.6631,20.4015 C26.6631,20.2435 26.6421,20.1175 26.5981,20.0235 C26.5551,19.9285 26.4721,19.8815 26.3501,19.8815" id="Fill-134" fill="#1D1D1B"></path>
                <path d="M24.8286,20.3376 C24.7786,20.1546 24.7396,20.0516 24.7126,20.0266 C24.6476,19.9626 24.5576,19.9306 24.4406,19.9306 C24.3076,19.9096 24.2326,19.8906 24.2176,19.8726 C24.2026,19.8546 24.1856,19.7946 24.1696,19.6936 L24.1446,19.6396 C24.1086,19.6396 24.0676,19.6916 24.0236,19.7976 C23.9626,19.9266 23.9326,20.0836 23.9326,20.2696 C23.9326,20.5156 23.9826,20.6966 24.0866,20.8146 C24.1726,20.8946 24.2676,20.9356 24.3736,20.9356 L24.4326,20.9356 L24.5276,20.9086 C24.5606,20.9086 24.5826,20.9206 24.5926,20.9446 C24.6016,20.9696 24.6066,21.0186 24.6066,21.0916 L24.5956,21.2616 L24.5866,21.4256 L24.5656,21.6566 L24.5616,21.7476 C24.5616,21.7966 24.5746,21.8206 24.5996,21.8206 C24.6526,21.8206 24.7156,21.7136 24.7876,21.4986 C24.8596,21.2836 24.8956,21.0876 24.8956,20.9086 L24.8796,20.6056 C24.8676,20.5156 24.8506,20.4266 24.8286,20.3376" id="Fill-136" fill="#1D1D1B"></path>
                <path d="M23.5474,19.8815 L22.5324,19.8815 L22.4164,19.8815 L22.3164,19.8815 L22.2494,19.8495 C22.2164,19.8025 22.1944,19.7555 22.1854,19.7105 C22.1744,19.6655 22.1614,19.6435 22.1454,19.6435 C22.1144,19.6435 22.0804,19.6825 22.0444,19.7585 C22.0064,19.8635 21.9864,19.9895 21.9864,20.1365 C21.9864,20.3875 22.0234,20.5755 22.0954,20.7015 C22.1674,20.8275 22.2614,20.8905 22.3784,20.8905 L23.4794,20.8905 L23.4794,22.7915 C23.4794,22.9215 23.5014,22.9855 23.5464,22.9855 C23.6684,22.9855 23.7374,22.8445 23.7544,22.5615 C23.7544,22.4475 23.7324,22.1575 23.6844,21.6925 C23.6674,21.5425 23.6534,21.4225 23.6444,21.3335 C23.6344,21.2435 23.6294,21.1715 23.6294,21.1145 L23.6134,20.8775 L23.7934,20.7865 C23.8464,20.7055 23.8724,20.5785 23.8724,20.4035 C23.8724,20.2465 23.8504,20.1245 23.8064,20.0395 C23.7584,19.9345 23.6724,19.8815 23.5474,19.8815" id="Fill-138" fill="#1D1D1B"></path>
                <path d="M22.2788,21.7751 L22.2868,21.6341 L22.3068,21.4951 L22.2998,21.4331 L22.2738,21.4091 C22.2388,21.4211 22.1988,21.4841 22.1578,21.5981 C22.1158,21.7121 22.0878,21.8171 22.0748,21.9151 L22.0568,22.1521 L22.0698,22.3351 L22.0868,22.4201 L22.0868,22.5601 L22.0368,22.7971 L22.0238,22.9371 C22.0328,22.9701 22.0448,22.9861 22.0618,22.9861 C22.1058,22.9861 22.1608,22.9211 22.2238,22.7921 C22.2888,22.6411 22.3328,22.5011 22.3578,22.3711 L22.3748,22.3041 L22.3748,22.2071 C22.3688,22.1341 22.3468,22.0391 22.3068,21.9211 C22.2888,21.8681 22.2788,21.8191 22.2788,21.7751" id="Fill-140" fill="#1D1D1B"></path>
                <path d="M21.0259,20.3376 C20.9759,20.1546 20.9369,20.0516 20.9099,20.0266 C20.8449,19.9626 20.7549,19.9306 20.6379,19.9306 C20.5049,19.9096 20.4299,19.8906 20.4149,19.8726 C20.3999,19.8546 20.3839,19.7946 20.3669,19.6936 L20.3419,19.6396 C20.3059,19.6396 20.2649,19.6916 20.2209,19.7976 C20.1599,19.9266 20.1299,20.0836 20.1299,20.2696 C20.1299,20.5156 20.1809,20.6966 20.2839,20.8146 C20.3699,20.8946 20.4649,20.9356 20.5709,20.9356 L20.6299,20.9356 L20.7249,20.9086 C20.7579,20.9086 20.7799,20.9206 20.7899,20.9446 C20.7989,20.9696 20.8039,21.0186 20.8039,21.0916 L20.7929,21.2616 L20.7839,21.4256 L20.7629,21.6566 L20.7589,21.7476 C20.7589,21.7966 20.7719,21.8206 20.7969,21.8206 C20.8499,21.8206 20.9129,21.7136 20.9849,21.4986 C21.0569,21.2836 21.0929,21.0876 21.0929,20.9086 L21.0759,20.6056 C21.0649,20.5156 21.0479,20.4266 21.0259,20.3376" id="Fill-142" fill="#1D1D1B"></path>
                <path d="M20.022,20.5466 C20.037,20.4856 20.044,20.4096 20.044,20.3206 C20.044,20.2356 20.032,20.1626 20.006,20.1026 C19.97,20.0046 19.88,19.9476 19.735,19.9316 C19.59,19.9026 19.508,19.8766 19.489,19.8526 C19.466,19.8236 19.452,19.7896 19.443,19.7486 C19.435,19.7086 19.426,19.6826 19.418,19.6696 L19.401,19.6396 C19.368,19.6396 19.33,19.6946 19.289,19.8036 C19.236,19.9336 19.21,20.1096 19.21,20.3336 C19.21,20.3986 19.216,20.4576 19.23,20.5126 C19.244,20.5676 19.263,20.6236 19.288,20.6806 C19.349,20.7856 19.422,20.8506 19.507,20.8746 L19.666,20.9116 L19.736,20.9426 L19.786,21.0026 C19.804,21.0386 19.814,21.0966 19.814,21.1736 L19.798,22.7916 C19.798,22.9216 19.823,22.9856 19.87,22.9856 C19.906,22.9746 19.944,22.9256 19.984,22.8406 C20.024,22.7546 20.044,22.6886 20.044,22.6396 L19.994,21.9946 C19.963,21.5606 19.949,21.2436 19.949,21.0456 L19.953,20.9116 L20.022,20.5466 Z" id="Fill-144" fill="#1D1D1B"></path>
                <path d="M19.0308,21.7565 C19.0308,21.7695 19.0248,21.7975 19.0138,21.8415 C19.0138,21.8505 19.0118,21.8595 19.0088,21.8685 C19.0038,21.8795 18.9898,21.8845 18.9688,21.8845 L18.9228,21.8845 L17.9288,21.8845 C17.8738,21.8845 17.8428,21.8605 17.8348,21.8115 C17.8278,21.7625 17.8238,21.7055 17.8238,21.6415 L17.8238,21.4775 C17.8238,21.4005 17.8358,21.2795 17.8578,21.1175 L17.8958,20.9595 L17.9088,20.9045 L18.2118,20.8865 L18.4758,20.8605 L18.6278,20.8865 L18.7658,20.9415 C18.8338,21.0015 18.8888,21.0945 18.9338,21.2195 C18.9898,21.3435 19.0218,21.4735 19.0308,21.6065 L19.0308,21.7565 Z M19.0358,20.3095 C19.0158,20.2655 18.9948,20.2225 18.9718,20.1815 C18.9058,20.0605 18.8238,19.9815 18.7258,19.9445 C18.6368,19.9005 18.4988,19.8775 18.3088,19.8775 L18.1038,19.8775 L18.0158,19.8775 L17.9128,19.8775 C17.8738,19.8645 17.8508,19.8545 17.8448,19.8455 C17.8118,19.8075 17.7918,19.7635 17.7828,19.7135 C17.7738,19.6645 17.7598,19.6395 17.7368,19.6395 C17.7008,19.6395 17.6658,19.6775 17.6328,19.7545 C17.5878,19.8565 17.5658,19.9845 17.5658,20.1375 C17.5658,20.3445 17.5898,20.5205 17.6368,20.6665 C17.6648,20.7425 17.7148,20.8125 17.7868,20.8725 C17.7398,20.9455 17.6968,21.0645 17.6578,21.2265 C17.6468,21.2585 17.6368,21.2965 17.6288,21.3395 C17.6198,21.3815 17.6148,21.4155 17.6118,21.4405 L17.6028,21.6405 L17.5988,21.8605 L17.6028,22.0905 L17.6118,22.2125 L17.6118,22.3275 L17.6118,22.4555 L17.6028,22.6745 L17.5868,22.8935 L18.7908,22.8935 L19.1108,22.1995 C19.1278,22.1555 19.1348,22.0465 19.1348,21.8715 L19.1348,21.7925 L19.1348,20.9595 C19.1348,20.7445 19.1178,20.5695 19.0818,20.4315 C19.0698,20.3955 19.0538,20.3545 19.0358,20.3095 L19.0358,20.3095 Z" id="Fill-146" fill="#1D1D1B"></path>
                <path d="M17.4253,20.2116 C17.4063,20.1246 17.3813,20.0616 17.3483,20.0206 C17.2763,19.9226 17.1923,19.8736 17.0973,19.8736 L16.4543,19.8736 C16.3633,19.8736 16.3103,19.8636 16.2963,19.8446 L16.2713,19.7776 L16.2593,19.6936 C16.2563,19.6776 16.2463,19.6596 16.2303,19.6396 C16.1713,19.6396 16.1213,19.6996 16.0793,19.8216 C16.0313,19.9356 16.0083,20.0896 16.0083,20.2836 C16.0083,20.4336 16.0293,20.5586 16.0693,20.6576 C16.1093,20.7576 16.1463,20.8156 16.1803,20.8306 L16.0293,21.2016 C15.9893,21.3276 15.9713,21.4526 15.9713,21.5786 C15.9713,21.7206 15.9883,21.8446 16.0213,21.9486 C16.0633,22.0636 16.1053,22.1396 16.1463,22.1806 C16.0493,22.3546 16.0003,22.4536 16.0003,22.4786 C16.0023,22.4946 16.0103,22.5146 16.0213,22.5386 L16.0713,22.5686 C16.0963,22.5576 16.1263,22.5106 16.1623,22.4286 L16.2463,22.2946 C16.2663,22.2616 16.2933,22.2456 16.3293,22.2456 L16.6933,22.2456 C16.7423,22.2366 16.7733,22.2256 16.7843,22.2086 C16.7953,22.1926 16.8013,22.1576 16.8013,22.1066 L16.7973,21.8816 C16.7973,21.7396 16.7853,21.6446 16.7613,21.5966 C16.7383,21.5476 16.6943,21.5236 16.6303,21.5236 L16.4503,21.5236 C16.3923,21.5236 16.3353,21.4986 16.2793,21.4496 C16.2663,21.4416 16.2523,21.4166 16.2393,21.3746 C16.2273,21.3316 16.2213,21.2936 16.2213,21.2616 L16.2383,21.1516 C16.2663,21.0596 16.2923,20.9956 16.3173,20.9636 C16.3423,20.9316 16.3753,20.9106 16.4153,20.9026 C16.4553,20.8946 16.5023,20.8906 16.5553,20.8906 L17.0853,20.8906 C17.1333,20.8906 17.1753,20.8986 17.2133,20.9146 C17.2503,20.9316 17.2843,20.9596 17.3133,21.0006 C17.3433,21.0406 17.3623,21.0896 17.3693,21.1466 C17.3863,21.2276 17.3953,21.3326 17.3953,21.4626 L17.3913,21.6336 L17.3033,23.7756 L17.3203,23.9586 C17.3393,24.0276 17.3723,24.0626 17.4193,24.0626 C17.4723,24.0626 17.5113,24.0276 17.5363,23.9586 C17.5623,23.8896 17.5733,23.8206 17.5733,23.7516 L17.4523,20.4646 C17.4523,20.3836 17.4433,20.2996 17.4253,20.2116" id="Fill-148" fill="#1D1D1B"></path>
                <path d="M14.9732,20.2116 C14.9232,20.1136 14.8562,20.0536 14.7732,20.0286 L14.4352,19.8706 C14.4012,19.8506 14.3802,19.8196 14.3722,19.7786 L14.3552,19.6766 L14.3422,19.6396 C14.2922,19.6396 14.2432,19.7066 14.1912,19.8406 C14.1392,19.9746 14.1142,20.1216 14.1142,20.2836 C14.1142,20.4626 14.1582,20.6026 14.2462,20.7026 C14.3142,20.7966 14.3942,20.8436 14.4892,20.8436 L14.5012,20.8676 L14.4222,21.2816 C14.3972,21.4236 14.3842,21.5416 14.3842,21.6346 L14.3972,21.7996 L14.4352,22.0366 L14.4432,22.1896 L14.4632,22.3896 L14.4632,22.5546 L14.4512,22.7616 L14.4432,22.9066 C14.4462,22.9476 14.4632,22.9746 14.4972,22.9856 C14.5562,22.9856 14.6132,22.8786 14.6682,22.6636 C14.6962,22.5546 14.7162,22.4536 14.7292,22.3616 C14.7422,22.2716 14.7472,22.1766 14.7472,22.0786 L14.7312,21.7686 L14.6812,21.4406 L14.6442,21.2146 C14.6232,21.1126 14.6142,21.0296 14.6142,20.9646 C14.6172,20.9036 14.6262,20.8676 14.6442,20.8566 L14.7052,20.8986 C14.7432,20.9266 14.7752,20.9406 14.8062,20.9406 C14.8842,20.9406 14.9402,20.8966 14.9732,20.8066 C14.9932,20.7546 15.0052,20.7066 15.0122,20.6636 C15.0192,20.6216 15.0232,20.5646 15.0232,20.4906 L15.0102,20.3196 C15.0022,20.2726 14.9902,20.2346 14.9732,20.2116" id="Fill-150" fill="#1D1D1B"></path>
                <path d="M13.6763,19.9187 C13.6353,19.8867 13.6063,19.8397 13.5893,19.7787 C13.5723,19.7187 13.5563,19.6877 13.5383,19.6877 C13.4843,19.6877 13.4313,19.7517 13.3823,19.8787 C13.3343,20.0077 13.3103,20.1407 13.3103,20.2777 C13.3103,20.3587 13.3183,20.4257 13.3323,20.4787 C13.3483,20.5307 13.3763,20.5757 13.4173,20.6117 C13.4343,20.6327 13.4493,20.6567 13.4633,20.6857 C13.4663,20.6897 13.4703,20.6977 13.4763,20.7097 C13.4763,20.7817 13.4543,20.8927 13.4133,21.0377 L13.3553,21.2057 L13.3303,21.2637 C13.2613,21.2267 13.2083,21.1847 13.1723,21.1357 C13.1143,21.0657 13.0853,21.0057 13.0853,20.9527 L13.1023,20.7037 L13.1183,20.4367 C13.1183,20.4207 13.1173,20.3967 13.1163,20.3627 C13.1143,20.3307 13.1083,20.2817 13.0953,20.2177 C13.0833,20.1527 13.0633,20.1027 13.0343,20.0647 C13.0073,20.0177 12.9503,19.9867 12.8643,19.9747 C12.8113,19.9537 12.7593,19.9397 12.7093,19.9317 L12.5423,19.8957 C12.5143,19.8787 12.4963,19.8367 12.4883,19.7677 L12.4673,19.6947 L12.4543,19.6577 C12.4123,19.6617 12.3723,19.7357 12.3333,19.8787 C12.3003,20.0257 12.2833,20.2087 12.2833,20.4257 C12.2833,20.6307 12.3783,20.7577 12.5673,20.8067 L12.7593,20.8497 L12.8513,20.8497 L12.9013,20.8497 C12.9293,20.8817 12.9473,20.9127 12.9553,20.9407 C12.9633,20.9697 12.9673,21.0017 12.9673,21.0377 L12.9553,21.2697 C12.9723,21.4157 13.0173,21.5327 13.0903,21.6227 C13.1643,21.7127 13.2493,21.7867 13.3473,21.8487 L13.3303,21.8847 L13.2303,21.8847 L12.8423,21.8847 C12.8093,21.8847 12.7803,21.8977 12.7543,21.9207 L12.7123,21.9877 L12.6993,22.0067 L12.4373,22.8937 L13.5793,22.8937 C13.8693,22.8937 14.0143,22.6987 14.0143,22.3097 C14.0143,22.1757 13.9553,22.0177 13.8383,21.8347 C13.7413,21.6817 13.6163,21.5087 13.4633,21.3177 C13.4633,21.2697 13.4833,21.1897 13.5223,21.0777 C13.5383,21.0207 13.5563,20.9707 13.5733,20.9297 C13.5923,20.8887 13.6073,20.8617 13.6173,20.8497 L13.6423,20.8497 C13.6703,20.8607 13.7093,20.8937 13.7613,20.9467 C13.8133,20.9997 13.8513,21.0257 13.8763,21.0257 C13.9323,21.0057 13.9743,20.9547 14.0013,20.8737 C14.0123,20.8457 14.0203,20.8187 14.0243,20.7947 C14.0293,20.7707 14.0343,20.7217 14.0433,20.6487 L14.0563,20.5027 C14.0563,20.3557 14.0123,20.2327 13.9263,20.1317 C13.8963,20.0917 13.8133,20.0207 13.6763,19.9187" id="Fill-152" fill="#1D1D1B"></path>
                <path d="M12.1665,20.5466 C12.1815,20.4856 12.1885,20.4096 12.1885,20.3206 C12.1885,20.2356 12.1765,20.1626 12.1505,20.1026 C12.1145,20.0046 12.0235,19.9476 11.8795,19.9316 C11.7345,19.9026 11.6525,19.8766 11.6335,19.8526 C11.6105,19.8236 11.5965,19.7896 11.5875,19.7486 C11.5785,19.7086 11.5705,19.6826 11.5625,19.6696 L11.5455,19.6396 C11.5125,19.6396 11.4755,19.6946 11.4335,19.8036 C11.3805,19.9336 11.3545,20.1096 11.3545,20.3336 C11.3545,20.3986 11.3605,20.4576 11.3745,20.5126 C11.3885,20.5676 11.4075,20.6236 11.4325,20.6806 C11.4925,20.7856 11.5655,20.8506 11.6515,20.8746 L11.8095,20.9116 L11.8805,20.9426 L11.9305,21.0026 C11.9495,21.0386 11.9585,21.0966 11.9585,21.1736 L11.9435,22.7916 C11.9435,22.9216 11.9675,22.9856 12.0145,22.9856 C12.0505,22.9746 12.0885,22.9256 12.1285,22.8406 C12.1685,22.7546 12.1885,22.6886 12.1885,22.6396 L12.1385,21.9946 C12.1075,21.5606 12.0925,21.2436 12.0925,21.0456 L12.0975,20.9116 L12.1665,20.5466 Z" id="Fill-154" fill="#1D1D1B"></path>
                <path d="M9.9126,22.1022 C9.9006,22.0382 9.8956,21.9582 9.8956,21.8652 L9.9126,21.6032 L9.9296,21.4032 C9.9266,21.3822 9.9166,21.3582 9.8996,21.3302 C9.8576,21.3302 9.8226,21.3642 9.7936,21.4332 C9.7646,21.5022 9.7456,21.5852 9.7366,21.6832 C9.7256,21.7642 9.7206,21.8662 9.7206,21.9882 L9.7286,22.2932 L9.7536,22.5912 C9.7656,22.6402 9.7696,22.6872 9.7696,22.7322 L9.7826,22.8302 L9.7826,22.9032 L9.7826,22.9942 L9.7826,23.1282 L9.7626,23.5372 L9.7286,23.9752 C9.7316,23.9882 9.7346,24.0012 9.7386,24.0182 C9.7436,24.0342 9.7466,24.0462 9.7496,24.0542 L9.7876,24.0542 C9.8686,24.0542 9.9376,23.9382 9.9966,23.7052 C10.0556,23.4712 10.0846,23.2402 10.0846,23.0082 C10.0846,22.8912 10.0686,22.7482 10.0386,22.5822 C10.0046,22.4332 9.9626,22.2722 9.9126,22.1022" id="Fill-156" fill="#1D1D1B"></path>
                <path d="M11.2515,20.571 C11.2215,20.364 11.1815,20.22 11.1315,20.139 C11.0555,20.03 10.9665,19.959 10.8615,19.926 C10.7575,19.894 10.6275,19.878 10.4715,19.878 L10.2795,19.878 L10.1585,19.878 L10.0505,19.878 L9.9915,19.846 C9.9635,19.816 9.9455,19.776 9.9375,19.725 C9.9175,19.67 9.8995,19.642 9.8835,19.642 C9.8505,19.642 9.8145,19.687 9.7785,19.776 C9.7475,19.865 9.7325,19.985 9.7325,20.134 C9.7325,20.394 9.7625,20.583 9.8205,20.7 C9.8715,20.813 9.9525,20.878 10.0645,20.894 L10.1785,20.894 L10.4505,20.894 L10.7445,20.883 L10.9085,20.894 C10.9715,20.906 11.0115,20.921 11.0305,20.937 C11.0845,20.977 11.1235,21.029 11.1495,21.092 C11.1775,21.155 11.1905,21.212 11.1905,21.265 L11.1905,21.447 C11.1905,21.743 11.0365,21.952 10.7295,22.074 C10.4205,22.195 10.2585,22.38 10.2415,22.627 L10.2375,22.76 L10.2545,22.925 C10.2635,22.949 10.2735,22.969 10.2875,22.985 C10.2905,22.989 10.2945,22.994 10.3005,22.998 C10.3315,22.998 10.3585,22.964 10.3845,22.894 C10.4035,22.857 10.4215,22.827 10.4385,22.802 C10.4545,22.778 10.4755,22.754 10.4985,22.73 C10.5225,22.706 10.6575,22.636 10.9045,22.523 C11.0025,22.47 11.0795,22.408 11.1345,22.335 C11.1885,22.254 11.2275,22.118 11.2515,21.927 C11.2825,21.753 11.2975,21.528 11.2975,21.253 C11.2975,21.123 11.2935,21 11.2845,20.884 C11.2765,20.768 11.2655,20.665 11.2515,20.571" id="Fill-158" fill="#1D1D1B"></path>
                <polygon id="Fill-160" fill="#1D1D1B" points="9.3579 19.7253 9.2569 19.7063 9.1989 19.7253 9.1399 19.8403 9.0739 20.1263 8.9779 20.8743 8.9619 21.2333 8.9869 21.3003 9.0609 21.3183 9.1119 21.2703 9.1949 20.9723 9.4909 20.0593 9.4999 19.9313 9.4659 19.8283"></polygon>
                <polygon id="Fill-162" fill="#1D1D1B" points="8.8111 19.7048 8.7071 19.6618 8.6201 19.7048 8.5651 19.8088 8.4901 20.1308 8.4021 20.8548 8.3851 21.1958 8.4151 21.2688 8.4811 21.2878 8.5401 21.2318 8.9151 20.0208 8.9281 19.8878 8.8991 19.7958"></polygon>
                <path d="M7.273,19.5319 L7.56,19.5759 C7.688,19.6059 7.793,19.6209 7.874,19.6209 C7.965,19.6209 8.044,19.5939 8.109,19.5399 C8.174,19.4839 8.211,19.3959 8.219,19.2749 C8.219,19.1779 8.206,19.1029 8.178,19.0509 L8.14,19.0139 L8.032,19.0759 L7.949,19.1259 C7.909,19.1579 7.881,19.2119 7.865,19.2879 C7.837,19.3769 7.806,19.4199 7.773,19.4199 C7.717,19.4199 7.642,19.3869 7.547,19.3219 C7.37,19.1909 7.216,19.1259 7.088,19.1259 C7.005,19.1259 6.932,19.1569 6.872,19.2199 C6.81,19.2839 6.78,19.4059 6.78,19.5899 L6.78,20.6009 C6.78,20.6579 6.782,20.6999 6.786,20.7259 C6.79,20.7529 6.8,20.7799 6.817,20.8089 L6.854,20.8509 C6.882,20.8809 6.912,20.8939 6.942,20.8939 L7.055,20.8939 L7.798,20.8939 C7.854,20.8939 7.89,20.9049 7.907,20.9279 C7.923,20.9499 7.932,20.9869 7.932,21.0399 C7.913,21.2259 7.865,21.3759 7.79,21.4889 L7.619,21.7079 L7.393,22.0059 C7.324,22.1109 7.273,22.2099 7.241,22.3029 C7.21,22.3959 7.193,22.4939 7.193,22.5949 C7.193,22.6829 7.205,22.7569 7.226,22.8129 C7.26,22.8739 7.3,22.9049 7.348,22.9049 C7.41,22.9049 7.452,22.8679 7.473,22.7949 C7.488,22.7619 7.495,22.6809 7.495,22.5529 L7.495,22.2969 L7.515,22.1439 C7.532,22.0929 7.626,21.9509 7.796,21.7199 C7.967,21.4879 8.065,21.2669 8.09,21.0569 L8.115,20.8499 C8.127,20.7809 8.132,20.7199 8.132,20.6689 L8.144,20.3339 C8.144,20.1389 8.13,20.0219 8.103,19.9809 C8.084,19.9399 8.06,19.9139 8.034,19.8989 C8.007,19.8849 7.98,19.8779 7.953,19.8779 L7.285,19.8779 C7.213,19.8779 7.161,19.8679 7.128,19.8469 C7.096,19.8269 7.081,19.7719 7.081,19.6819 C7.084,19.6279 7.102,19.5899 7.137,19.5659 C7.171,19.5429 7.217,19.5319 7.273,19.5319" id="Fill-164" fill="#1D1D1B"></path>
            </g>
        </g>
    </g>
</svg>