<?xml version="1.0" encoding="UTF-8"?><svg version="1.1" width="145px" height="126px" viewBox="0 0 145.0 126.0" xmlns="http://www.w3.org/2000/svg" xmlns:xlink="http://www.w3.org/1999/xlink"><defs><clipPath id="i0"><path d="M375,0 L375,667 L0,667 L0,0 L375,0 Z"></path></clipPath><clipPath id="i1"><path d="M45.0482652,0.000878674755 C69.1849937,0.0587969394 88.6308571,2.97264033 88.6308571,6.55867269 C88.6308571,10.1809276 68.790164,13.1173454 44.3154286,13.1173454 C19.8406932,13.1173454 0,10.1809276 0,6.55867269 C0,2.93641778 19.8406932,0 44.3154286,0 Z"></path></clipPath><clipPath id="i2"><path d="M11.0662375,0 L11.0662375,1.5591411 L18.9706929,1.5591411 L18.9706929,12.4731288 L11.0662375,12.4731288 L11.0662375,10.9139877 L0,10.9139877 L0,0 L11.0662375,0 Z"></path></clipPath><clipPath id="i3"><path d="M7.336,0 L7.336,18.864 L0,18.864 L0,0 L7.336,0 Z"></path></clipPath><clipPath id="i4"><path d="M3.75834483,0 C4.06449174,1.92631964 5.58192424,3.43712815 7.51668966,3.74193865 C5.58192424,4.04674915 4.06449174,5.55755766 3.75834483,7.4838773 C3.45219792,5.55755766 1.93476541,4.04674915 0,3.74193865 C1.93476541,3.43712815 3.45219792,1.92631964 3.75834483,0 Z"></path></clipPath><clipPath id="i5"><path d="M33.4865604,0 C52.0079612,0.0336103174 67.044658,15.0753647 67.072,33.596755 C67.0992675,52.1181454 52.1068404,67.1054979 33.5854396,67.072 C15.0640388,67.0383897 0.0273419538,51.9966353 0,33.475245 C-0.0272674798,14.9538546 14.9651596,-0.0334978544 33.4865604,0 Z"></path></clipPath><clipPath id="i6"><path d="M5.31796167,94.0452395 C5.45541637,94.0452395 5.58350567,94.093102 5.68437424,94.1744309 C5.77886689,94.2506191 5.84947721,94.3561774 5.88151217,94.4795693 C6.04393672,95.592577 6.56421848,96.58645 7.32335465,97.3426293 C8.08305057,98.0993661 9.08194972,98.6180529 10.2004407,98.7798949 C10.3238659,98.8116406 10.4297195,98.8817583 10.5061493,98.9756134 C10.587797,99.0758761 10.6358602,99.2032495 10.6358602,99.3399554 C10.6358602,99.4766631 10.5877972,99.6040382 10.5061488,99.7043019 C10.4295543,99.7983595 10.3234024,99.8685634 10.199337,99.9002296 C9.08110696,100.062283 8.08273432,100.58083 7.32335229,101.337224 C6.56392164,102.093666 6.04351868,103.087982 5.8812681,104.201203 C5.84910983,104.324005 5.77855251,104.429302 5.68422751,104.505361 C5.58337252,104.586685 5.45532506,104.634671 5.31808768,104.634671 C5.18058908,104.634671 5.05247655,104.58672 4.95157971,104.505363 C4.85702268,104.429118 4.78636127,104.323487 4.75431673,104.200024 C4.59185037,103.087106 4.07158285,102.093318 3.31249371,101.337192 C2.55279823,100.580462 1.55390301,100.061781 0.435419506,99.8999417 C0.311994348,99.8681961 0.206140838,99.7980784 0.129711111,99.7042233 C0.0480630978,99.6039601 6.57252031e-14,99.4765858 6.57252031e-14,99.339879 C6.57252031e-14,99.2031722 0.0480630978,99.075798 0.129711111,98.9755348 C0.206305698,98.8814772 0.312457685,98.8112733 0.436523214,98.7796071 C1.55475323,98.6175534 2.55312587,98.0990067 3.3125079,97.3426131 C4.07198451,96.5861252 4.59240526,95.5917347 4.75462482,94.4784552 C4.78674671,94.3557022 4.85726644,94.2504498 4.9515491,94.1744309 C5.05241767,94.093102 5.18050697,94.0452395 5.31796167,94.0452395 Z M5.31801307,96.4391859 C5.23255882,96.6296022 5.13675199,96.8152293 5.03103122,96.9952338 C4.88596179,97.2422349 4.72247137,97.4782301 4.54183309,97.7011943 C4.28370318,98.0198074 3.9920419,98.3099789 3.67183911,98.5667444 C3.44736099,98.7467498 3.20976082,98.9096112 2.96108344,99.0540207 C2.77972076,99.1593399 2.59267881,99.2547212 2.40079165,99.339727 C2.59266113,99.4248544 2.77969521,99.520331 2.96101478,99.625683 C3.20963305,99.7701375 3.4473005,99.9330384 3.67183911,100.113092 C3.9920419,100.369858 4.28370318,100.660029 4.54183309,100.978642 C4.72246415,101.201598 4.88594881,101.437583 5.03097909,101.684574 C5.13667132,101.864572 5.23243974,102.050205 5.31784712,102.240651 C5.40330137,102.050234 5.4991082,101.864607 5.60482897,101.684603 C5.7498984,101.437602 5.91338882,101.201607 6.09402711,100.978642 C6.35215702,100.660029 6.64381829,100.369858 6.96402108,100.113092 C7.18851874,99.9330712 7.42614074,99.7701971 7.67484171,99.6257782 C7.85629748,99.5204082 8.04343811,99.4249861 8.23542825,99.3399503 C8.04345017,99.254885 7.85629142,99.1594443 7.67484884,99.0540759 C7.42618676,98.9096713 7.18854054,98.7467829 6.96402108,98.5667444 C6.64381829,98.3099789 6.35215702,98.0198074 6.09402711,97.7011943 C5.91339604,97.478239 5.74991139,97.2422538 5.60488111,96.9952625 C5.49918887,96.8152651 5.40342045,96.6296318 5.31801307,96.4391859 Z M46.5318883,0 C46.7208164,0 46.8936925,0.069687306 47.0181335,0.188078503 C47.118771,0.283823464 47.187286,0.41252981 47.195738,0.557591777 C47.2125509,0.846151011 46.9893616,1.18039855 46.4853867,1.46324092 L46.4076795,1.50526959 L57.5912912,1.65460803 C57.7497551,1.65359886 57.9018846,1.71610014 58.0138348,1.82789427 C58.1201249,1.93403636 58.1820119,2.07611205 58.1881041,2.22544808 C58.1932932,2.352647 58.1574044,2.48417477 58.077246,2.60458897 L58.0401727,2.65546961 L57.6181161,3.18682962 L65.5484968,3.24301352 C65.7055256,3.24297273 65.8560012,3.30547572 65.9669891,3.41630905 C66.0539942,3.50319292 66.1111785,3.61416192 66.1324538,3.73345951 L66.1393556,3.78505102 L66.1417556,14.9575725 C66.1417556,15.1158887 66.0791591,15.2679188 65.9669891,15.3799326 C65.8808512,15.4659505 65.7709309,15.5227901 65.6526349,15.5439633 L65.6014688,15.5508349 L57.5950823,15.553228 C57.4379846,15.553228 57.2873867,15.4908348 57.1763298,15.3799326 C57.0700399,15.2737907 57.0081529,15.1317155 57.0020604,14.9823799 C56.996871,14.8551813 57.0327593,14.7236539 57.1129169,14.6032398 L57.1499898,14.5523592 L57.5729023,14.0199173 L47.1964517,13.9629842 L47.1973286,18.8657073 C55.3981794,18.9733804 62.9562719,21.7332471 69.0456957,26.3232732 C69.1298243,26.3866868 69.2136914,26.4504636 69.2973416,26.5143434 L69.4433066,26.6261232 C69.4954504,26.6038662 69.5486315,26.5839254 69.6026738,26.566378 C69.6787678,26.5416704 69.7562922,26.5217977 69.8347228,26.5068746 C70.2151426,26.4344917 70.6189266,26.4780816 70.9855099,26.648079 C72.7586231,27.3409051 74.141163,28.6342651 74.8881509,30.2801 C75.1022217,30.6858716 75.158411,31.0848167 75.0831785,31.4622055 C75.0667984,31.5443732 75.0443231,31.6251782 75.0160614,31.7049178 C74.9953844,31.7632576 74.9719365,31.820106 74.9455623,31.8754912 C74.988883,31.9262194 75.0320686,31.9770663 75.0751185,32.0280313 C75.147908,32.1142039 75.2202967,32.2006989 75.2922824,32.2875132 C80.5808727,38.6655243 83.7573992,46.8434372 83.7573992,55.7588414 C83.7485145,63.4925708 81.3532573,70.6696168 77.2647776,76.5988925 C77.0505768,77.0577284 77.0840211,77.1650676 77.095819,77.2706014 C77.2081714,78.2756057 76.6992877,79.5108966 75.7401059,80.7051875 C75.0071472,81.7773325 73.9494909,82.4735321 72.7634863,82.6916049 L72.6403463,82.7124545 L71.9983936,82.6994702 L71.6871097,82.9829481 C65.0985837,88.9829446 56.3275794,92.646561 46.6980737,92.6575285 C39.8379768,92.6575285 33.4131061,90.8019955 27.9025799,87.5668998 L27.7438331,87.4732406 L27.585497,87.3791684 L27.4013773,87.269301 C27.3489546,87.3097504 27.29444,87.347717 27.238024,87.3830293 C27.1576903,87.4333123 27.0741563,87.4778034 26.9881089,87.5162237 C26.7184032,87.6366476 26.4204113,87.699047 26.1145691,87.6933773 C25.5987894,87.6909782 25.1076916,87.5427102 24.6907971,87.2659457 C24.2924421,87.0240626 24.0126217,86.7161215 23.8331514,86.3633332 C23.6492431,86.0018212 23.5697993,85.5944117 23.6074289,85.1894418 C23.6166755,85.0899306 23.6328926,84.9915633 23.6544097,84.8938995 C23.6689598,84.8278584 23.6858461,84.7625351 23.7055917,84.6980204 L23.537619,84.5647748 C23.4400081,84.4868851 23.3427829,84.4084993 23.2459477,84.3296202 C14.9397586,77.5636374 9.6387483,67.2782086 9.6387483,55.759977 C9.6387483,46.6141832 12.980751,38.2454984 18.515458,31.7987281 C18.5888951,31.7131893 18.662727,31.6279767 18.7362246,31.5431484 C18.7963154,31.1257608 18.7517287,30.9989482 18.7129153,30.8695652 C18.5125151,30.2015381 18.6119775,29.4644081 19.0156624,28.8608751 C19.6789094,27.6280533 20.5289775,26.6167486 21.5610726,25.8104765 C22.62692,24.9489283 23.7079611,24.3558136 24.71584,24.0519212 C25.6015842,23.7848545 26.4251357,23.7344526 27.0801049,23.9923714 C27.1639425,24.0253857 27.2463917,24.0641305 27.3282058,24.1078323 C27.3833545,24.1372905 27.4367778,24.1682336 27.4884119,24.2009729 C27.5443158,24.1671538 27.6003175,24.1334777 27.6564165,24.099945 L27.9521015,23.9250589 C32.9706602,20.988112 38.7458757,19.1950213 44.9148058,18.9043587 L45.2288178,18.8908758 L45.8672359,18.8687968 L45.8671471,0.588301765 C45.8671471,0.430816042 45.9379832,0.290504569 46.0456432,0.188078503 C46.1700842,0.069687306 46.3429603,0 46.5318883,0 Z M47.1975011,20.0383618 L47.1941226,25.9361868 L47.1868663,25.985328 C47.1645335,26.0987877 47.104884,26.2032088 47.01826,26.2856215 C46.8892699,26.4083407 46.7133575,26.4735796 46.5318883,26.4735796 C46.3504192,26.4735796 46.1745068,26.4083407 46.0455166,26.2856215 C45.9615453,26.2057325 45.9067991,26.1043383 45.8810375,25.9753863 L45.8671471,25.8734107 L45.867191,20.0408327 L45.2324152,20.0637103 L44.9428041,20.0764632 C35.3954864,20.5348696 26.8278014,24.7068689 20.6649656,31.1733722 C14.5608978,37.5782119 10.8158943,46.2336473 10.8158943,55.759977 C10.8158943,68.4364742 17.4467896,79.5714245 27.5896083,85.9884711 C27.6376623,86.0088881 27.6789021,86.0429317 27.8369515,86.1569481 C33.3169546,89.5352707 39.778731,91.4855211 46.6980737,91.4855211 C58.4682444,91.4855211 68.9149549,85.8432611 75.4579564,77.1267547 C75.5150757,77.050661 75.5786256,76.9778487 75.64994,76.6450091 C75.6659265,76.5055446 75.7279763,76.3712045 75.8352117,76.2688447 C75.852905,76.2519558 75.8717661,76.2369249 75.9008026,76.2175124 L75.9531148,76.1843273 L76.0064296,76.15231 C76.0668871,76.1164698 76.1501984,76.0681739 76.2691889,75.9985378 C76.3098654,75.9402636 76.3503604,75.8813704 76.3906729,75.8223631 C80.2972654,70.1040987 82.580253,63.1975208 82.580253,55.759977 C82.5693814,46.1757958 78.7734865,37.4757875 72.6009571,31.0609041 C66.1777803,24.3855321 57.1809137,20.1849433 47.1975011,20.0383618 Z M70.2854066,68.3006991 C70.8386517,68.7519026 71.1511267,69.4253143 71.1260555,70.1250423 C71.0949804,70.8987186 70.8045537,71.6163732 70.3304911,72.189617 C69.8531355,72.7668425 69.1899579,73.1977546 68.4160279,73.3954767 C68.2142897,73.4407368 68.0079185,73.4637285 67.7982393,73.4640491 C67.2709557,73.4690122 66.7618345,73.300287 66.3558035,72.9862312 C66.2757927,72.9237355 66.2152887,72.8432386 66.1793452,72.7531534 C66.144858,72.6667183 66.133173,72.571596 66.1482658,72.4767483 C66.1636469,72.3800888 66.2055113,72.2914175 66.2663387,72.2178674 C66.3307331,72.1400043 66.4162325,72.0790276 66.5152143,72.0417813 C66.7185548,71.9652655 66.949049,71.9983942 67.1191694,72.1321279 C67.5218519,72.3405509 67.6396154,72.3480428 67.7585626,72.3454889 C68.408291,72.3315387 69.0094033,72.0196702 69.3891666,71.5122125 C69.837482,71.0273731 70.0190179,70.3601821 69.8770839,69.7193407 C69.8511857,69.6024087 69.8151333,69.4892036 69.7697803,69.3807762 C69.4405338,69.0906388 69.3802171,69.0100542 69.3444694,68.9199331 C69.3101643,68.8334491 69.2986764,68.7383238 69.313955,68.6435247 C69.3295291,68.5468923 69.371571,68.4582986 69.4325437,68.38486 C69.4970938,68.3071126 69.5827149,68.2462895 69.681773,68.209222 C69.8851928,68.1331024 70.1155512,68.1666047 70.2854066,68.3006991 Z M54.1316558,56.4831372 C55.7524424,56.9948292 57.0698425,58.1801172 57.7413988,59.731925 C58.4043154,61.2157551 58.5409145,62.8634539 58.1411019,64.4171034 L58.0993322,64.5721453 L58.0018534,64.8905925 C57.5880906,66.3021087 56.7401589,67.5009542 55.6258904,68.3583588 C54.5169996,69.2116254 53.1443433,69.7267781 51.6728191,69.7770692 C51.0910978,69.7754059 50.5130492,69.6853974 49.9626811,69.5116274 C48.3429396,68.992233 47.025752,67.8068997 46.3471506,66.2573529 C45.612302,64.5762086 45.5588714,62.7547453 46.0835614,61.1157895 C46.6084625,59.4761745 47.7118904,58.0193403 49.2930194,57.0660608 C50.7443548,56.1838161 52.5100018,55.9711714 54.1316558,56.4831372 Z M52.3834916,57.3826897 C51.4944531,57.3907595 50.6263041,57.6337053 49.8526428,58.0949583 C48.5532705,58.8965375 47.6444172,60.1081457 47.2090392,61.4690286 C46.7734665,62.8305202 46.8117226,64.3415156 47.4072187,65.7414307 C47.9456956,66.9978292 48.9982772,67.9638342 50.3918442,68.4185432 C51.8378839,68.7540721 53.2854517,68.4814116 54.4608252,67.7670118 C55.6257911,67.0589377 56.523333,65.9170235 56.887785,64.503201 C57.3455694,63.1071907 57.2721294,61.5927123 56.6805726,60.2467098 C56.1439136,58.994571 55.0895089,58.0290309 53.773501,57.5954068 C53.3259275,57.4540282 52.8590241,57.3822187 52.3834916,57.3826897 Z M65.6334145,35.3219617 C66.5838342,35.6998838 67.4602701,36.4828408 68.0735733,37.5608518 C68.6873719,38.6426497 68.9116833,39.7996354 68.7507025,40.8131106 C68.6075688,41.7142271 68.152786,42.5009612 67.3738582,42.9456328 C67.2893557,42.9941897 67.19362,43.019654 67.0944516,43.0195695 C66.9650654,43.0197593 66.8438583,42.9760009 66.7466208,42.9011626 C66.6474903,42.8248673 66.5732464,42.7163981 66.53944,42.5887887 C66.5053058,42.4599421 66.5165558,42.3276459 66.565307,42.2110718 C66.6133944,42.096085 66.69811,41.996284 66.8124382,41.9310545 C67.0868441,41.7743796 67.3658157,41.4806622 67.5214401,41.0059448 C67.6088686,40.7392524 67.6604105,40.4023196 67.6436948,40.0170068 C67.6200351,39.4716296 67.4596476,38.8125047 67.0778779,38.13976 C66.694577,37.4668398 66.209026,36.9910367 65.7518812,36.6920397 C65.4276479,36.4799738 65.1100852,36.3522728 64.8346091,36.2918251 C64.3464363,36.1847053 63.9502926,36.2752801 63.6735351,36.4336899 C63.5851943,36.4841614 63.4867896,36.5091954 63.3884939,36.5086187 C63.2901787,36.5080418 63.1920555,36.481845 63.1042937,36.4303306 C62.9247185,36.3249235 62.8165741,36.1308907 62.8179882,35.9230544 C62.819489,35.7149673 62.9305521,35.5225154 63.1127447,35.4189873 C63.8862606,34.9776975 64.7901619,34.9866532 65.6334145,35.3219617 Z M64.9547177,4.43432457 L58.1638855,4.43432457 L58.1886025,13.3698975 L58.1883419,14.3619169 L64.9547177,14.3619169 L64.9547177,4.43432457 Z M86.0839615,0 C86.2253394,0 86.3570845,0.0492289514 86.460832,0.132879441 C86.5588224,0.211888032 86.6318346,0.321607241 86.6644122,0.44998065 C86.8954519,1.97982224 87.6142041,3.34534815 88.6593376,4.38591982 C89.7049202,5.42693864 91.0771628,6.14271965 92.6140877,6.3724385 C92.7419085,6.40496571 92.8515015,6.47743561 92.9304955,6.57456169 C93.0143994,6.67772485 93.0637767,6.80872442 93.0637767,6.94930099 C93.0637767,7.08987755 93.0143994,7.22087712 92.9304955,7.32404029 C92.8512635,7.42145909 92.74124,7.49405515 92.6125258,7.52646529 C91.0759967,7.7565044 89.704502,8.4721153 88.6593794,9.51267615 C87.6138078,10.553684 86.8948932,11.9199193 86.6641582,13.4500946 C86.6314105,13.5775586 86.5584987,13.6868482 86.4607887,13.7656346 C86.3570462,13.8492852 86.2253309,13.8986293 86.084151,13.8986293 C85.9427293,13.8986293 85.8109613,13.8493105 85.7071855,13.7656319 C85.6091181,13.686556 85.5360497,13.5767439 85.5034686,13.4482621 C85.2723875,11.918546 84.5536707,10.5531312 83.5086151,9.51262425 C82.4630464,8.47160636 81.0908203,7.75581961 79.5538991,7.52608406 C79.4260783,7.49355685 79.3164853,7.42108695 79.2374914,7.32396086 C79.1535874,7.2207977 79.1042102,7.08979813 79.1042102,6.94922157 C79.1042102,6.808645 79.1535874,6.67764543 79.2374914,6.57448227 C79.3167235,6.47706338 79.4267471,6.40446737 79.5554627,6.37205694 C81.0919825,6.14201628 82.4634694,5.42640956 83.5085881,4.38585578 C84.5542201,3.34479096 85.2731583,1.97846133 85.5038584,0.448232181 C85.5365739,0.320841277 85.6094392,0.211615062 85.7070911,0.132879441 C85.8108385,0.0492289514 85.9425836,0 86.0839615,0 Z M56.8364997,2.8459098 L47.1966296,2.8459098 L47.1966296,12.7735021 L56.8352533,12.7735021 L56.8364997,2.8459098 Z M86.0842337,2.5563672 C85.9958204,2.78579933 85.896459,3.01057818 85.7866101,3.22990974 C85.6319646,3.53868514 85.4561515,3.83742817 85.260095,4.12378533 C84.720641,4.91170359 84.0375026,5.59186021 83.2461301,6.12895958 C82.9585911,6.32411044 82.6586181,6.49911645 82.3484153,6.65302044 C82.1280698,6.76234262 81.9022946,6.86115056 81.6718403,6.94902283 C81.902279,7.03705176 82.1280435,7.13597848 82.3483365,7.2453472 C82.6584653,7.39931671 82.9585178,7.57436237 83.2461301,7.76956298 C84.0375026,8.30666234 84.720641,8.98681897 85.260095,9.77473722 C85.4561014,10.0610212 85.6318746,10.3596849 85.7864532,10.6685336 C85.8962546,10.8879173 85.9954957,11.112707 86.0837532,11.3421554 C86.1721664,11.1127232 86.2715279,10.8879444 86.3813767,10.6686128 C86.5360222,10.3598374 86.7118354,10.0610944 86.9078919,9.77473722 C87.4473459,8.98681897 88.1304843,8.30666234 88.9218567,7.76956298 C89.2093957,7.57441212 89.5093688,7.39940611 89.8195716,7.24550212 C90.039917,7.13617993 90.2656923,7.03737199 90.4961465,6.94949972 C90.2657078,6.8614708 90.0399434,6.76254407 89.8196504,6.65317535 C89.5095215,6.49920584 89.209469,6.32416019 88.9218567,6.12895958 C88.1304843,5.59186021 87.4473459,4.91170359 86.9078919,4.12378533 C86.7118855,3.83750138 86.5361123,3.53883768 86.3815336,3.22998894 C86.2717322,3.01060529 86.1724912,2.78581553 86.0842337,2.5563672 Z"></path></clipPath><clipPath id="i7"><path d="M2.22834157,0.122264409 C2.83267805,0.371353309 3.22516437,0.95867094 3.22143842,1.60829739 C3.2149579,2.03157515 3.04819444,2.43691892 2.7543164,2.74364319 C2.67410486,2.80760634 2.59229874,2.87169741 2.49635092,2.93494097 C2.41422408,2.99844243 2.32162219,3.04731551 2.22266526,3.07938574 C2.12632052,3.12763501 2.02273838,3.16006875 1.91594468,3.1754264 C1.81517834,3.1937854 1.71314529,3.20446641 1.61073814,3.20737599 C1.50266587,3.20369578 1.39495105,3.19301252 1.28828128,3.17539441 C1.18759465,3.15760887 1.09008185,3.1252506 0.998859339,3.07935375 C0.895838201,3.04423806 0.797983983,2.99566317 0.707875044,2.93490898 C0.627663498,2.87156948 0.547435845,2.80760634 0.467159872,2.74364319 C-0.155719957,2.1131053 -0.155719957,1.10361741 0.467159872,0.473079518 C0.927941767,0.0118264683 1.62400509,-0.126824491 2.22834157,0.122264409 Z"></path></clipPath><clipPath id="i8"><path d="M7.16818482,1.20862265 C7.33586155,1.41758978 7.50387363,1.62659887 7.67171804,1.83762211 C7.82910846,2.07170672 7.95568622,2.32513052 8.04831997,2.59162418 C8.16983825,2.82931698 8.25406292,3.08432517 8.29803253,3.34768237 C8.41265582,3.90114203 8.41265582,4.47225393 8.29803253,5.0257136 C8.25406292,5.28907079 8.16983825,5.54407899 8.04831997,5.78177178 C7.95613962,6.04910153 7.829539,6.3032623 7.67171804,6.53782996 C7.50404131,6.74679709 7.33602923,6.95580618 7.16818482,7.16682941 C6.36395126,7.93221694 5.30148909,8.36672094 4.19192291,8.384 C3.64427618,8.37724923 3.10326427,8.26308756 2.59949703,8.04797414 C2.0866132,7.84475589 1.61704037,7.54570928 1.21582868,7.16678745 C1.03614843,6.96689621 0.868029808,6.75688718 0.712295468,6.537788 C0.552884464,6.30415131 0.426174249,6.04977052 0.335693538,5.78172982 C0.214731667,5.54343856 0.129220633,5.28872596 0.0818728923,5.02567163 C-0.0272909641,4.47166481 -0.0272909641,3.90164723 0.0818728923,3.34764041 C0.129220633,3.08458608 0.214731667,2.82987347 0.335693538,2.59158222 C0.426629652,2.32437488 0.553316049,2.07073357 0.712295468,1.83758014 C0.866955765,1.61772967 1.03506587,1.40767533 1.215661,1.20862265 C1.61626067,0.828445709 2.08596179,0.528676407 2.59932936,0.325547704 C4.16098446,-0.327839034 5.96179869,0.0202249267 7.16818482,1.20862265 Z"></path></clipPath><clipPath id="i9"><path d="M1.91608383,0.0363756768 C2.02290451,0.0511255661 2.12653224,0.0833622695 2.22276285,0.131777944 C2.32526983,0.166973145 2.42259104,0.215624838 2.51214557,0.276442821 L2.75434195,0.46881684 C3.04832341,0.775908732 3.21510839,1.18191018 3.22143842,1.60586068 C3.21884751,1.81508819 3.17503275,2.02178089 3.09247316,2.21424431 C3.01082099,2.40831264 2.89644549,2.58709114 2.75427753,2.74287249 L2.51208115,2.93446176 C2.42252662,2.99527975 2.32520542,3.04393144 2.22269843,3.07912664 C2.12636675,3.12744944 2.02279864,3.1599326 1.91601942,3.17531365 C1.81531081,3.19371563 1.7133349,3.20443431 1.61098307,3.20737599 C1.50287521,3.20445607 1.39512211,3.19375128 1.2885699,3.17534568 C1.18789692,3.15753303 1.09039734,3.12512545 0.999187182,3.07915867 C0.896180004,3.04398947 0.798339046,2.99534056 0.708242317,2.93449379 C0.62804164,2.87105777 0.547824859,2.80699716 0.467559764,2.74293655 C0.325391805,2.5871552 0.211016312,2.4083767 0.129364139,2.21430837 C0.038744431,2.02444245 -0.00540415976,1.81594467 0.000527710411,1.60586068 C0.00610619922,1.18176079 0.172972419,0.775494131 0.467559764,0.46878481 L0.708177899,0.276410791 C0.798274628,0.215564027 0.896115586,0.166915118 0.999122763,0.131745913 C1.09024019,0.0856779707 1.18781802,0.0535269499 1.2885699,0.0363756768 C1.49489824,-0.0121252256 1.7097555,-0.0121252256 1.91608383,0.0363756768 Z"></path></clipPath><clipPath id="i10"><path d="M1.93316572,0.0327014235 C2.03384975,0.0501253466 2.13138254,0.0823120965 2.22258327,0.128211973 C2.3251026,0.163447121 2.42243552,0.212154036 2.51200083,0.273041048 L2.75422637,0.465633414 C3.04823733,0.773076329 3.21503652,1.17953831 3.22136296,1.60396781 C3.22552749,2.03045555 3.05717222,2.4406827 2.75420943,2.74226932 C2.45124664,3.04385594 2.03914759,3.21144648 1.61071374,3.20730086 C1.40029294,3.20472141 1.19242142,3.16110043 0.998860317,3.07890595 C0.801783696,3.00130219 0.621339306,2.88708062 0.467152797,2.74233428 C-0.155717599,2.1101188 -0.155717599,1.0979451 0.467152797,0.465729614 C0.623670916,0.323807932 0.803495188,0.209677671 0.998795891,0.128308173 C1.2927196,0.000614996901 1.61929302,-0.0328007041 1.93316572,0.0327014235 Z"></path></clipPath><clipPath id="i11"><path d="M1.91589606,0.0363756768 C2.02273209,0.0511255661 2.12637472,0.0833622695 2.22261917,0.131777944 C2.32514089,0.166973145 2.42247608,0.215624838 2.51204349,0.276442821 L2.7542747,0.46881684 C3.37715967,1.10031556 3.37715967,2.11134173 2.7542747,2.74284046 L2.51204349,2.93442973 C2.42247608,2.99524772 2.32514089,3.04389941 2.22261917,3.07909461 C2.12627363,3.12741741 2.02269064,3.15990057 1.91589606,3.17528162 C1.8151526,3.1936976 1.71314035,3.20442699 1.61075143,3.20737599 C1.50262802,3.20445607 1.39485943,3.19375128 1.28829191,3.17534568 C1.18760445,3.15753303 1.09009085,3.12512545 0.998867579,3.07915867 C0.895845591,3.04398947 0.797990566,2.99534056 0.707880884,2.93449379 L0.467163726,2.74293655 C-0.155721242,2.11143782 -0.155721242,1.10041166 0.467163726,0.468912931 L0.707816456,0.276538912 C0.797926139,0.215692148 0.895781164,0.167043239 0.998803152,0.131874035 C1.08992641,0.0857617314 1.18751857,0.0535674215 1.28829191,0.0363756768 C1.49464991,-0.0121252256 1.70953806,-0.0121252256 1.91589606,0.0363756768 Z"></path></clipPath><clipPath id="i12"><path d="M1.43121114,0 C1.79710292,0 2.16434285,0.138883205 2.44287358,0.417992779 C2.72356137,0.696296455 2.86350082,1.06056266 2.86350082,1.42644065 C2.86350082,1.79016959 2.72356137,2.15577895 2.44287358,2.433814 C2.16434285,2.71050587 1.79710292,2.85100088 1.43121114,2.85100088 C1.06531937,2.85100088 0.698618703,2.71104314 0.419548708,2.433814 C0.139939447,2.15524169 0,1.78990096 0,1.42644065 C0,1.06136855 0.139939447,0.696296455 0.419279075,0.417992779 C0.698618703,0.138883205 1.06531937,0 1.43121114,0 Z"></path></clipPath><clipPath id="i13"><path d="M1.43215442,0 C1.79781661,0 2.16563769,0.139433609 2.44548396,0.417226193 C2.72506036,0.696362069 2.86403898,1.06200589 2.86350082,1.42630641 C2.86350082,1.7908756 2.7247905,2.15705673 2.44548396,2.43458066 C2.16509797,2.71129861 1.79781661,2.85100088 1.43215442,2.85100088 C1.06487306,2.85046356 0.69867115,2.71156727 0.418824884,2.43458066 C0.138708757,2.15651942 0,1.7908756 0,1.42657507 C0,1.06200589 0.139518341,0.696362069 0.418824884,0.416957535 C0.69867115,0.139433609 1.06487306,0 1.43215442,0 Z"></path></clipPath><clipPath id="i14"><path d="M1.43215442,0 C1.79781661,0 2.16563769,0.139433609 2.44548396,0.417226193 C2.72506036,0.696362069 2.86403898,1.06200589 2.86350082,1.42630641 C2.86350082,1.7908756 2.7247905,2.15705673 2.44548396,2.43458066 C2.16509797,2.71129861 1.79781661,2.85100088 1.43215442,2.85100088 C1.06487306,2.85046356 0.69867115,2.71156727 0.418824884,2.43458066 C0.138708757,2.15651942 0,1.7908756 0,1.42657507 C0,1.06200589 0.139518341,0.696362069 0.418824884,0.416957535 C0.69867115,0.139433609 1.06487306,0 1.43215442,0 Z"></path></clipPath><clipPath id="i15"><path d="M2.67917634,0 L15.5702857,12.8911094 C11.9980506,16.4633445 6.25141147,16.4633445 2.67917634,12.8911094 C-0.893058782,9.31887424 -0.893058782,3.57223513 2.67917634,0 Z"></path></clipPath><clipPath id="i16"><path d="M0.123283787,0 C0.433776288,1.80310442 1.28763067,3.52781299 2.68484692,4.93893818 C5.71214881,7.9963761 10.2919132,8.46675117 13.7849538,6.27166753 L15.5702857,8.07477195 C11.999622,11.6809808 6.25551068,11.6809808 2.68484692,8.07477195 C0.511399413,5.87968831 -0.342454964,2.82225039 0.123283787,0 Z"></path></clipPath><clipPath id="i17"><path d="M2.03870877,0 C3.16819942,0.00355888732 4.08670919,0.922068656 4.09026807,2.0515593 C4.09380634,3.18104995 3.18104995,4.09380634 2.0515593,4.09026807 C0.922068656,4.08670919 0.00355888732,3.16819942 0,2.03870877 C-0.00353826329,0.909218128 0.909218128,-0.00353826329 2.03870877,0 Z"></path></clipPath><clipPath id="i18"><path d="M4.16278746,0.438188153 L5.55038328,1.82578397 C6.13463415,2.41003484 6.13463415,3.35944251 5.55038328,3.87066202 L3.87066202,5.55038328 C3.28641115,6.13463415 2.33700348,6.13463415 1.82578397,5.55038328 L0.438188153,4.16278746 C-0.146062718,3.57853659 -0.146062718,2.62912892 0.438188153,2.11790941 L2.11790941,0.438188153 C2.70216028,-0.146062718 3.65156794,-0.146062718 4.16278746,0.438188153 Z"></path></clipPath><clipPath id="i19"><path d="M6.14826667,0.585549206 L7.66537143,1.93408677 C8.14445714,2.35994074 8.384,2.85677037 8.384,3.42457566 C8.384,3.99238095 8.14445714,4.56018624 7.66537143,4.91506455 L5.74902857,6.54750476 C5.26994286,6.97335873 4.71100952,7.18628571 3.99238095,7.18628571 C3.3536,7.18628571 2.71481905,6.97335873 2.23573333,6.54750476 L0.718628571,5.1989672 C0.239542857,4.84408889 0,4.2762836 0,3.70847831 C0,3.14067302 0.239542857,2.57286772 0.718628571,2.21798942 L2.63497143,0.585549206 C3.59314286,-0.195183069 5.19009524,-0.195183069 6.14826667,0.585549206 Z M4.39161905,1.43725714 C4.15207619,1.43725714 3.99238095,1.5082328 3.83268571,1.65018413 L1.91634286,3.28262434 C1.75664762,3.42457566 1.6768,3.56652698 1.6768,3.77945397 C1.6768,3.99238095 1.75664762,4.13433228 1.91634286,4.2762836 L3.43344762,5.62482116 C3.7528381,5.90872381 4.31177143,5.90872381 4.6311619,5.62482116 L6.54750476,3.99238095 C6.7072,3.85042963 6.78704762,3.70847831 6.78704762,3.49555132 C6.78704762,3.28262434 6.7072,3.14067302 6.54750476,2.99872169 L4.95055238,1.57920847 C4.79085714,1.5082328 4.55131429,1.43725714 4.39161905,1.43725714 Z"></path></clipPath><clipPath id="i20"><path d="M29.5832614,1.77117819 L30.5712701,2.60915497 C32.9272909,4.9707259 32.9272909,8.85589096 30.5712701,11.2174619 L11.2670995,30.5671075 C8.91107873,32.9286784 5.03504449,32.9286784 2.67902367,30.5671075 L1.76701561,29.652951 C-0.589005204,27.2913801 -0.589005204,23.406215 1.76701561,21.0446441 L20.9951855,1.77117819 C23.3512063,-0.590392731 27.2272406,-0.590392731 29.5832614,1.77117819 Z"></path></clipPath><clipPath id="i21"><path d="M6.01547772,1.78734641 C8.39860627,-0.595782138 12.3192371,-0.595782138 14.7023657,1.78734641 L28.1555107,15.2404915 C30.5386393,17.62362 30.5386393,21.5442509 28.1555107,23.9273794 L23.9273794,28.1555107 C21.5442509,30.5386393 17.62362,30.5386393 15.2404915,28.1555107 L1.78734641,14.7023657 C-0.595782138,12.3192371 -0.595782138,8.39860627 1.78734641,6.01547772 Z"></path></clipPath><clipPath id="i22"><path d="M1.29839172,0.22912795 L26.1205863,25.0513226 C26.4260903,25.3568265 26.4260903,25.8150824 26.1205863,26.1205863 C25.9678344,26.2733383 25.8150824,26.3497143 25.5859545,26.3497143 C25.3568265,26.3497143 25.2040745,26.2733383 25.0513226,26.1205863 L0.22912795,1.29839172 C-0.0763759834,0.992887785 -0.0763759834,0.534631884 0.22912795,0.22912795 C0.534631884,-0.0763759834 0.992887785,-0.0763759834 1.29839172,0.22912795 Z"></path></clipPath><clipPath id="i23"><path d="M12.9502857,0.224571429 C13.2497143,0.524 13.2497143,0.973142857 12.9502857,1.27257143 L1.27257143,12.9502857 C1.19771429,13.1 0.973142857,13.1748571 0.748571429,13.1748571 C0.524,13.1748571 0.374285714,13.1 0.224571429,12.9502857 C-0.0748571429,12.6508571 -0.0748571429,12.2017143 0.224571429,11.9022857 L11.9022857,0.224571429 C12.2017143,-0.0748571429 12.6508571,-0.0748571429 12.9502857,0.224571429 Z"></path></clipPath><clipPath id="i24"><path d="M12.9502857,0.223302663 C13.2497143,0.521039548 13.2497143,0.967644875 12.9502857,1.26538176 L1.27257143,12.9515545 C1.12285714,13.1004229 0.898285714,13.1748571 0.748571429,13.1748571 C0.524,13.1748571 0.374285714,13.1004229 0.224571429,12.9515545 C-0.0748571429,12.6538176 -0.0748571429,12.2072123 0.224571429,11.9094754 L11.9022857,0.223302663 C12.2017143,-0.0744342211 12.6508571,-0.0744342211 12.9502857,0.223302663 Z"></path></clipPath><clipPath id="i25"><path d="M14.7023657,1.72026917 L28.1555107,14.5945416 C30.5386393,16.8882339 30.5386393,20.6617275 28.1555107,22.9554197 L23.9273794,27.0248737 C21.5442509,29.3185659 17.62362,29.3185659 15.2404915,27.0248737 L1.78734641,14.1506012 C-0.595782138,11.856909 -0.595782138,8.08341533 1.78734641,5.78972311 L6.01547772,1.72026917 C8.39860627,-0.573423056 12.3192371,-0.573423056 14.7023657,1.72026917 Z"></path></clipPath><clipPath id="i26"><path d="M1.29839172,0.22912795 L26.1205863,25.0513226 C26.4260903,25.3568265 26.4260903,25.8150824 26.1205863,26.1205863 C25.9678344,26.2733383 25.8150824,26.3497143 25.5859545,26.3497143 C25.3568265,26.3497143 25.2040745,26.2733383 25.0513226,26.1205863 L0.22912795,1.29839172 C-0.0763759834,0.992887785 -0.0763759834,0.534631884 0.22912795,0.22912795 C0.534631884,-0.0763759834 0.992887785,-0.0763759834 1.29839172,0.22912795 Z"></path></clipPath><clipPath id="i27"><path d="M12.9515545,0.223302663 C13.2492914,0.521039548 13.2492914,0.967644875 12.9515545,1.26538176 L1.26538176,12.9515545 C1.11651332,13.1004229 0.967644875,13.1748571 0.744342211,13.1748571 C0.521039548,13.1748571 0.372171106,13.1004229 0.223302663,12.9515545 C-0.0744342211,12.6538176 -0.0744342211,12.2072123 0.223302663,11.9094754 L11.9094754,0.223302663 C12.2072123,-0.0744342211 12.6538176,-0.0744342211 12.9515545,0.223302663 Z"></path></clipPath><clipPath id="i28"><path d="M12.9502857,0.224571429 C13.2497143,0.524 13.2497143,0.973142857 12.9502857,1.27257143 L1.27257143,12.9502857 C1.12285714,13.1 0.973142857,13.1748571 0.748571429,13.1748571 C0.524,13.1748571 0.374285714,13.1 0.224571429,12.9502857 C-0.0748571429,12.6508571 -0.0748571429,12.2017143 0.224571429,11.9022857 L11.9022857,0.224571429 C12.2017143,-0.0748571429 12.6508571,-0.0748571429 12.9502857,0.224571429 Z"></path></clipPath><clipPath id="i29"><path d="M3.9163356,0.228654545 L16.5398639,12.8808727 C16.8440454,13.1857455 16.8440454,13.6430545 16.5398639,13.9479273 C14.7147755,15.7771636 12.2813243,16.768 9.69578231,16.768 C7.11024036,16.768 4.67678912,15.7771636 2.85170068,13.9479273 C-0.950566893,10.1370182 -0.950566893,3.96334545 2.85170068,0.228654545 C3.15588209,-0.0762181818 3.6121542,-0.0762181818 3.9163356,0.228654545 Z M3.46006349,1.82923636 C0.79847619,5.0304 0.950566893,9.83214545 3.99238095,12.8808727 C5.51328798,14.4052364 7.56651247,15.3198545 9.77182766,15.3198545 C11.6729615,15.3198545 13.4980499,14.6338909 14.9429116,13.4144 L3.46006349,1.82923636 Z"></path></clipPath><clipPath id="i30"><path d="M3.33022997,0.262912892 C3.68078049,0.613463415 3.68078049,1.1392892 3.33022997,1.48983972 L1.48983972,3.33022997 C1.31456446,3.50550523 1.1392892,3.59314286 0.876376307,3.59314286 C0.613463415,3.59314286 0.438188153,3.50550523 0.262912892,3.33022997 C-0.0876376307,2.97967944 -0.0876376307,2.45385366 0.262912892,2.10330314 L2.10330314,0.262912892 C2.45385366,-0.0876376307 2.97967944,-0.0876376307 3.33022997,0.262912892 Z"></path></clipPath><clipPath id="i31"><path d="M32.0321788,0 C32.7169142,2.15304396 32.2604239,4.61366564 30.5866264,6.30534304 L11.2618727,25.7596331 C8.90333983,28.1433604 5.02317276,28.1433604 2.66463984,25.7596331 L1.75165935,24.8369 C0.0778617973,23.1452226 -0.378628446,20.6846009 0.306106919,18.531557 C0.53435204,19.4542901 1.06692399,20.3001288 1.75165935,20.9921786 L2.66463984,21.9149118 C5.02317276,24.298639 8.90333983,24.298639 11.2618727,21.9149118 L30.5866264,2.46062167 C31.2713617,1.6916774 31.727852,0.922733127 32.0321788,0 Z"></path></clipPath><clipPath id="i32"><path d="M4.71481179,0.228136054 L14.1444354,9.65775964 C14.4486168,9.96194104 14.4486168,10.4182132 14.1444354,10.7223946 L10.7223946,14.1444354 C10.5703039,14.2965261 10.3421678,14.3725714 10.1140317,14.3725714 C9.88589569,14.3725714 9.73380499,14.2965261 9.58171429,14.1444354 L0.228136054,4.71481179 C-0.0760453515,4.41063039 -0.0760453515,3.95435828 0.228136054,3.65017687 L3.65017687,0.228136054 C3.95435828,-0.0760453515 4.41063039,-0.0760453515 4.71481179,0.228136054 Z M4.18249433,1.82508844 L1.82508844,4.18249433 L10.1140317,12.4714376 L12.4714376,10.1140317 L4.18249433,1.82508844 Z"></path></clipPath><clipPath id="i33"><path d="M3.37755429,0.215588571 C3.66500571,0.50304 3.66500571,0.934217143 3.37755429,1.22166857 L1.22166857,3.37755429 C1.07794286,3.52128 0.934217143,3.59314286 0.718628571,3.59314286 C0.50304,3.59314286 0.359314286,3.52128 0.215588571,3.37755429 C-0.0718628571,3.09010286 -0.0718628571,2.65892571 0.215588571,2.37147429 L2.37147429,0.215588571 C2.65892571,-0.0718628571 3.09010286,-0.0718628571 3.37755429,0.215588571 Z"></path></clipPath><clipPath id="i34"><path d="M5.10137566,0.839519359 C6.28430335,2.03350245 6.28430335,3.89910102 5.10137566,5.09308411 C4.50991182,5.69007566 3.77058201,5.98857143 2.95731922,5.98857143 C2.14405644,5.98857143 1.40472663,5.69007566 0.887195767,5.09308411 C-0.295731922,3.89910102 -0.295731922,2.03350245 0.887195767,0.839519359 C1.99619048,-0.279839786 3.91844797,-0.279839786 5.10137566,0.839519359 Z M2.95731922,1.58575879 C2.58765432,1.58575879 2.21798942,1.73500668 1.99619048,1.9588785 C1.47865961,2.48124611 1.47865961,3.37673342 1.99619048,3.89910102 C2.51372134,4.42146862 3.40091711,4.42146862 3.91844797,3.89910102 C4.43597884,3.37673342 4.43597884,2.48124611 3.91844797,1.9588785 C3.69664903,1.73500668 3.32698413,1.58575879 2.95731922,1.58575879 Z"></path></clipPath><clipPath id="i35"><path d="M20.1349079,0.226234921 C20.4365545,0.527881481 20.4365545,0.980351323 20.1349079,1.28199788 L1.28199788,20.1349079 C1.1311746,20.2857312 0.980351323,20.3611429 0.754116402,20.3611429 C0.527881481,20.3611429 0.377058201,20.2857312 0.226234921,20.1349079 C-0.0754116402,19.8332614 -0.0754116402,19.3807915 0.226234921,19.079145 L19.079145,0.226234921 C19.3807915,-0.0754116402 19.8332614,-0.0754116402 20.1349079,0.226234921 Z"></path></clipPath><clipPath id="i36"><path d="M25.8389046,0 C27.6455578,0 29.3769338,0.679783784 30.6566465,1.96381982 L31.5599731,2.8701982 C34.1946756,5.5138018 34.1946756,9.8190991 31.5599731,12.4627027 L12.43956,31.5721802 C11.1598474,32.8562162 9.5037486,33.536 7.6970954,33.536 C5.8904422,33.536 4.15906622,32.8562162 2.87935354,31.5721802 L1.97602694,30.6658018 C-0.658675645,28.0221982 -0.658675645,23.7169009 1.97602694,21.0732973 L21.0211627,1.96381982 C22.3008754,0.679783784 24.0322514,0 25.8389046,0 Z M25.9141818,1.51063063 C24.4839147,1.51063063 23.204202,2.03935135 22.150321,3.02126126 L3.10518519,22.1307387 C1.07270034,24.1700901 1.07270034,27.569009 3.10518519,29.6083604 L4.00851178,30.5147387 C4.9871156,31.4966486 6.3421055,32.0253694 7.6970954,32.0253694 C9.12736251,32.0253694 10.4070752,31.4966486 11.4609562,30.5147387 L30.506092,11.3297297 C32.5385769,9.29037838 32.5385769,5.89145946 30.506092,3.85210811 L29.6027654,3.02126126 C28.6241616,2.03935135 27.2691717,1.51063063 25.9141818,1.51063063 Z"></path></clipPath><clipPath id="i37"><path d="M11.0131289,0 C12.8359916,0 14.5829017,0.685244848 15.8740962,1.97959623 L29.1658035,15.3038016 C30.4569979,16.598153 31.1405714,18.3493343 31.1405714,20.1766539 C31.1405714,22.0039735 30.4569979,23.7551547 29.1658035,25.0495061 L24.9884098,29.2371135 C23.6212627,30.4553266 21.9503052,31.1405714 20.1274425,31.1405714 C18.3045798,31.1405714 16.5576697,30.4553266 15.2664753,29.1609752 L1.97476794,15.8367698 C0.683573519,14.5424184 0,12.8673755 0,11.0400559 C0,9.21273629 0.683573519,7.46155501 1.97476794,6.16720363 L6.15216167,1.97959623 C7.4433561,0.685244848 9.1902662,0 11.0131289,0 Z M11.0131289,1.44662801 C9.57002927,1.44662801 8.27883484,1.97959623 7.21549826,2.96939434 L3.03810453,7.23314006 C2.05072056,8.22293818 1.51905226,9.59342787 1.51905226,11.0400559 C1.51905226,12.4866839 2.05072056,13.7810353 3.03810453,14.8469717 L16.3298118,28.0950388 C17.3171958,29.0848369 18.6843429,29.6178051 20.1274425,29.6178051 C21.5705422,29.6178051 22.8617366,29.0848369 23.9250732,28.0950388 L28.1024669,23.9074314 C29.0898509,22.9176333 29.6215192,21.5471436 29.6215192,20.1005155 C29.6215192,18.6538875 29.0898509,17.3595362 28.1024669,16.2935997 L14.8107596,3.04553266 C13.8233756,2.05573454 12.4562286,1.44662801 11.0131289,1.44662801 Z"></path></clipPath><clipPath id="i38"><path d="M5.71299115,0.827328878 L8.16141593,3.39196481 C8.45819469,3.70282978 8.45819469,4.16912722 8.16141593,4.47999218 C8.01302655,4.7131409 7.86463717,4.79085714 7.6420531,4.79085714 C7.41946903,4.79085714 7.27107965,4.7131409 7.12269027,4.55770842 L4.67426549,1.91535624 C3.70973451,0.905045118 1.85486726,2.38165369 1.26130973,2.92566737 C0.964530973,3.23653233 0.519362832,3.23653233 0.222584071,2.92566737 C-0.0741946903,2.61480241 -0.0741946903,2.14850497 0.222584071,1.83764 C1.33550442,0.671896397 3.93231858,-1.03786089 5.71299115,0.827328878 Z"></path></clipPath><clipPath id="i39"><path d="M1.35740952,0.239542857 L4.55131429,3.43344762 C4.87070476,3.7528381 4.87070476,4.23192381 4.55131429,4.55131429 C4.47146667,4.71100952 4.23192381,4.79085714 3.99238095,4.79085714 C3.7528381,4.79085714 3.59314286,4.71100952 3.43344762,4.55131429 L0.239542857,1.35740952 C-0.079847619,1.03801905 -0.079847619,0.558933333 0.239542857,0.239542857 C0.558933333,-0.079847619 1.03801905,-0.079847619 1.35740952,0.239542857 Z"></path></clipPath><clipPath id="i40"><path d="M1.40421675,0.247802956 L4.54305419,3.38664039 C4.87345813,3.71704433 4.87345813,4.21265025 4.54305419,4.54305419 C4.37785222,4.70825616 4.13004926,4.79085714 3.96484729,4.79085714 C3.71704433,4.79085714 3.55184236,4.70825616 3.38664039,4.54305419 L0.247802956,1.40421675 C-0.0826009852,1.07381281 -0.0826009852,0.578206897 0.247802956,0.247802956 C0.578206897,-0.0826009852 1.07381281,-0.0826009852 1.40421675,0.247802956 Z"></path></clipPath><clipPath id="i41"><path d="M1.35740952,0.239542857 L3.3536,2.23573333 C3.67299048,2.55512381 3.67299048,3.03420952 3.3536,3.3536 C3.19390476,3.51329524 3.03420952,3.59314286 2.79466667,3.59314286 C2.55512381,3.59314286 2.39542857,3.51329524 2.23573333,3.3536 L0.239542857,1.35740952 C-0.079847619,1.03801905 -0.079847619,0.558933333 0.239542857,0.239542857 C0.558933333,-0.079847619 1.03801905,-0.079847619 1.35740952,0.239542857 Z"></path></clipPath><clipPath id="i42"><path d="M11.0186797,0 C12.8393221,0 14.5841044,0.685244848 15.8737261,1.97959623 L29.1492438,15.3038016 C31.8043473,17.9686427 31.8043473,22.3085267 29.1492438,24.9733678 L24.9769382,29.1609752 C23.6114564,30.4553266 21.9425342,31.1405714 20.1218918,31.1405714 C18.3012493,31.1405714 16.556467,30.4553266 15.2668453,29.1609752 L1.99132765,15.8367698 C-0.663775883,13.1719287 -0.663775883,8.83204471 1.99132765,6.16720363 L6.1636332,1.97959623 C7.45325492,0.685244848 9.19803724,0 11.0186797,0 Z M11.0186797,1.44662801 C9.57733774,1.44662801 8.28771603,1.97959623 7.22567461,2.96939434 L3.05336906,7.23314006 C1.00514634,9.28887461 1.00514634,12.7150988 3.05336906,14.7708334 L16.3288867,28.0950388 C17.315068,29.0848369 18.6805499,29.6178051 20.1218918,29.6178051 C21.5632337,29.6178051 22.8528554,29.0848369 23.9148968,28.0950388 L28.0872024,23.9074314 C30.1354251,21.8516968 30.1354251,18.4254726 28.0872024,16.369738 L14.8116847,2.96939434 C13.8255034,1.97959623 12.4600216,1.44662801 11.0186797,1.44662801 Z"></path></clipPath><clipPath id="i43"><path d="M1.18911453,0.206502463 L1.22607476,0.243553082 C1.62903269,0.652167829 4.81728238,4.00435211 3.07770819,5.78206897 C2.93781236,5.91973727 2.79791653,5.98857143 2.58807279,5.98857143 C2.37822905,5.98857143 2.23833323,5.91973727 2.0984374,5.78206897 C1.81864575,5.50673235 1.81864575,5.09372742 2.0984374,4.8183908 C2.58807279,4.33655172 1.46890618,2.4091954 0.20984374,1.17018062 C-0.0699479133,0.894844007 -0.0699479133,0.48183908 0.20984374,0.206502463 C0.489635393,-0.0688341544 0.909322873,-0.0688341544 1.18911453,0.206502463 Z"></path></clipPath><clipPath id="i44"><path d="M1.31362212,0.231815668 L4.55904147,3.47723502 C4.86812903,3.78632258 4.86812903,4.24995392 4.55904147,4.55904147 C4.4044977,4.71358525 4.24995392,4.79085714 4.01813825,4.79085714 C3.78632258,4.79085714 3.6317788,4.71358525 3.47723502,4.55904147 L0.231815668,1.31362212 C-0.0772718894,1.00453456 -0.0772718894,0.540903226 0.231815668,0.231815668 C0.540903226,-0.0772718894 1.00453456,-0.0772718894 1.31362212,0.231815668 Z"></path></clipPath><clipPath id="i45"><path d="M1.45436735,0.256653061 L3.3364898,2.13877551 C3.67869388,2.48097959 3.67869388,2.99428571 3.3364898,3.3364898 C3.16538776,3.50759184 2.99428571,3.59314286 2.73763265,3.59314286 C2.48097959,3.59314286 2.30987755,3.50759184 2.13877551,3.3364898 L0.256653061,1.45436735 C-0.0855510204,1.11216327 -0.0855510204,0.598857143 0.256653061,0.256653061 C0.598857143,-0.0855510204 1.11216327,-0.0855510204 1.45436735,0.256653061 Z"></path></clipPath><clipPath id="i46"><path d=""></path></clipPath><clipPath id="i47"><path d="M4.55524122,0.239542857 C4.86939578,0.558933333 4.86939578,1.03801905 4.55524122,1.35740952 L1.33515691,4.55131429 C1.17807963,4.71100952 0.9424637,4.79085714 0.785386417,4.79085714 C0.549770492,4.79085714 0.392693208,4.71100952 0.235615925,4.55131429 C-0.0785386417,4.23192381 -0.0785386417,3.7528381 0.235615925,3.43344762 L3.45570023,0.239542857 C3.7698548,-0.079847619 4.24108665,-0.079847619 4.55524122,0.239542857 Z"></path></clipPath><clipPath id="i48"><path d="M9.35175314,0.231815668 C9.658368,0.540903226 9.658368,1.00453456 9.35175314,1.31362212 L1.30311314,9.34989862 C1.14980571,9.5044424 0.996498286,9.58171429 0.766537143,9.58171429 C0.536576,9.58171429 0.383268571,9.5044424 0.229961143,9.34989862 C-0.0766537143,9.04081106 -0.0766537143,8.57717972 0.229961143,8.26809217 L8.27860114,0.231815668 C8.585216,-0.0772718894 9.04513829,-0.0772718894 9.35175314,0.231815668 Z"></path></clipPath><clipPath id="i49"><path d="M0.894844007,0 L1.2110034,0.576158497 L1.78968801,0.890937774 L1.2110034,1.20571705 L0.894844007,1.78187555 L0.57868461,1.20571705 L0,0.890937774 L0.57868461,0.576158497 L0.894844007,0 Z"></path></clipPath><clipPath id="i50"><path d="M0.356663803,0 L0.484043733,0.228282988 L0.715875205,0.355106871 L0.484043733,0.481930753 L0.356663803,0.712750219 L0.229283874,0.481930753 L0,0.355106871 L0.229283874,0.228282988 L0.356663803,0 Z"></path></clipPath></defs><g transform="translate(-115.0 -152.0)"><g clip-path="url(#i0)"><g transform="translate(115.0 152.0)"><g transform="translate(7.0 0.0)"><g transform="translate(8.384000000000015 0.0)"><g transform="translate(16.671632183908514 0.0)"><g transform="translate(2.615697865352722 112.857299265152)"><g clip-path="url(#i1)"><polygon points="0,0 88.6308571,0 88.6308571,13.1173454 0,13.1173454 0,0" stroke="none" fill="#767676" opacity="75.3557478%" style="mix-blend-mode:multiply"></polygon></g></g><g transform="translate(46.53188834154358 3.8420543382994756)"><g clip-path="url(#i2)"><polygon points="0,0 18.9706929,0 18.9706929,12.4731288 0,12.4731288 0,0" stroke="none" fill="#F4002E"></polygon><g transform="translate(11.20447947454831 -2.7940543382996843)"><g clip-path="url(#i3)"><polygon points="0,2.79405434 7.336,2.79405434 7.336,15.2671832 0,15.2671832 0,2.79405434" stroke="none" fill="#0179FF"></polygon></g></g></g></g><g transform="translate(2.147625615763504 97.07272217353224)"><g clip-path="url(#i4)"><polygon points="0,0 7.51668966,0 7.51668966,7.4838773 0,7.4838773 0,0" stroke="none" fill="#007AFF"></polygon></g></g><g transform="translate(2.1301902709607816 79.33220765612269) rotate(-72.36471)"><g clip-path="url(#i5)"><polygon points="-3.71356246e-05,-5.60433682e-05 67.0720371,-5.60433682e-05 67.0720371,67.072056 -3.71356246e-05,67.072056 -3.71356246e-05,-5.60433682e-05" stroke="none" fill="rgba(255, 255, 255, 0.330529)"></polygon></g></g><g transform="translate(0.0 0.9581714285716316)"><g transform="translate(1.2789769243681803e-13 0.3892571428569269)"><g clip-path="url(#i6)"><polygon points="6.57252031e-14,0 93.0637767,0 93.0637767,104.634671 6.57252031e-14,104.634671 6.57252031e-14,0" stroke="none" fill="#FFFFFF"></polygon></g></g></g><g transform="translate(19.68656814449914 8.474930762488988)"><g clip-path="url(#i7)"><polygon points="-5.55111512e-17,5.55111512e-16 3.22146472,5.55111512e-16 3.22146472,3.20737599 -5.55111512e-17,3.20737599 -5.55111512e-17,5.55111512e-16" stroke="none" fill="#D0D0D0"></polygon></g></g><g transform="translate(97.40721182266043 68.61231200701133)"><g clip-path="url(#i8)"><polygon points="7.45237205e-15,-1.72084569e-15 8.384,-1.72084569e-15 8.384,8.384 7.45237205e-15,8.384 7.45237205e-15,-1.72084569e-15" stroke="none" fill="#0179FF"></polygon></g><path d="M4.19192291,8.384 C3.64427618,8.37724923 3.10326427,8.26308756 2.59949703,8.04797414 C2.0866132,7.84475589 1.61704037,7.54570928 1.21582868,7.16678745 C1.03614843,6.96689621 0.868029808,6.75688718 0.712295468,6.537788 C0.552884464,6.30415131 0.426174249,6.04977052 0.335693538,5.78172982 C0.214731667,5.54343856 0.129220633,5.28872596 0.0818728923,5.02567163 C-0.0272909641,4.47166481 -0.0272909641,3.90164723 0.0818728923,3.34764041 C0.129220633,3.08458608 0.214731667,2.82987347 0.335693538,2.59158222 C0.426629652,2.32437488 0.553316049,2.07073357 0.712295468,1.83758014 C0.866955765,1.61772967 1.03506587,1.40767533 1.215661,1.20862265 C1.61626067,0.828445709 2.08596179,0.528676407 2.59932936,0.325547704 C4.16098446,-0.327839034 5.96179869,0.0202249267 7.16818482,1.20862265 C7.33586155,1.41758978 7.50387363,1.62659887 7.67171804,1.83762211 C7.82910846,2.07170672 7.95568622,2.32513052 8.04831997,2.59162418 C8.16983825,2.82931698 8.25406292,3.08432517 8.29803253,3.34768237 C8.41265582,3.90114203 8.41265582,4.47225393 8.29803253,5.0257136 C8.25406292,5.28907079 8.16983825,5.54407899 8.04831997,5.78177178 C7.95613962,6.04910153 7.829539,6.3032623 7.67171804,6.53782996 C7.50404131,6.74679709 7.33602923,6.95580618 7.16818482,7.16682941 C6.36395126,7.93221694 5.30148909,8.36672094 4.19192291,8.384 L4.19192291,8.384 Z" stroke="#2F383E" stroke-width="1" fill="none" stroke-miterlimit="10"></path></g><g transform="translate(96.28521510673211 60.14932164767766)"><g clip-path="url(#i9)"><polygon points="-4.46864767e-15,0 3.22143842,0 3.22143842,3.20737599 -4.46864767e-15,3.20737599 -4.46864767e-15,0" stroke="none" fill="#D0D0D0"></polygon></g><path d="M1.61098307,3.20737599 C1.50287521,3.20445607 1.39512211,3.19375128 1.2885699,3.17534568 C1.18789692,3.15753303 1.09039734,3.12512545 0.999187182,3.07915867 C0.896180004,3.04398947 0.798339046,2.99534056 0.708242317,2.93449379 C0.62804164,2.87105777 0.547824859,2.80699716 0.467559764,2.74293655 C0.325391805,2.5871552 0.211016312,2.4083767 0.129364139,2.21430837 C0.038744431,2.02444245 -0.00540415976,1.81594467 0.000527710411,1.60586068 C0.00610619922,1.18176079 0.172972419,0.775494131 0.467559764,0.46878481 L0.708177899,0.276410791 C0.798274628,0.215564027 0.896115586,0.166915118 0.999122763,0.131745913 C1.09024019,0.0856779707 1.18781802,0.0535269499 1.2885699,0.0363756768 C1.49489824,-0.0121252256 1.7097555,-0.0121252256 1.91608383,0.0363756768 C2.02290451,0.0511255661 2.12653224,0.0833622695 2.22276285,0.131777944 C2.32526983,0.166973145 2.42259104,0.215624838 2.51214557,0.276442821 C2.59234625,0.340503434 2.67414128,0.404692167 2.75434195,0.46881684 C3.04832341,0.775908732 3.21510839,1.18191018 3.22143842,1.60586068 C3.21884751,1.81508819 3.17503275,2.02178089 3.09247316,2.21424431 C3.01082099,2.40831264 2.89644549,2.58709114 2.75427753,2.74287249 C2.67407686,2.8069331 2.59228183,2.87112183 2.51208115,2.93446176 C2.42252662,2.99527975 2.32520542,3.04393144 2.22269843,3.07912664 C2.12636675,3.12744944 2.02279864,3.1599326 1.91601942,3.17531365 C1.81531081,3.19371563 1.7133349,3.20443431 1.61098307,3.20737599 Z" stroke="#2F383E" stroke-width="1" fill="none" stroke-miterlimit="10"></path></g><g transform="translate(5.369064039409012 22.37356003505699)"><g clip-path="url(#i10)"><polygon points="-2.22044605e-16,1.41553436e-15 3.22143842,1.41553436e-15 3.22143842,3.20737599 -2.22044605e-16,3.20737599 -2.22044605e-16,1.41553436e-15" stroke="none" fill="#007AFF"></polygon></g><path d="M1.61071374,3.20730086 C1.40029294,3.20472141 1.19242142,3.16110043 0.998860317,3.07890595 C0.801783696,3.00130219 0.621339306,2.88708062 0.467152797,2.74233428 C-0.155717599,2.1101188 -0.155717599,1.0979451 0.467152797,0.465729614 C0.623670916,0.323807932 0.803495188,0.209677671 0.998795891,0.128308173 C1.2927196,0.000614996901 1.61929302,-0.0328007041 1.93316572,0.0327014235 C2.03384975,0.0501253466 2.13138254,0.0823120965 2.22258327,0.128211973 C2.3251026,0.163447121 2.42243552,0.212154036 2.51200083,0.273041048 C2.59221116,0.33717437 2.67401604,0.401435959 2.75422637,0.465633414 C3.04823733,0.773076329 3.21503652,1.17953831 3.22136296,1.60396781 C3.22552749,2.03045555 3.05717222,2.4406827 2.75420943,2.74226932 C2.45124664,3.04385594 2.03914759,3.21144648 1.61071374,3.20730086 L1.61071374,3.20730086 Z" stroke="#2F383E" stroke-width="1" fill="none" stroke-miterlimit="10"></path></g><g transform="translate(85.90502463054187 87.94658019281312)"><g clip-path="url(#i11)"><polygon points="-5.71764858e-15,-2.85188539e-15 3.22143842,-2.85188539e-15 3.22143842,3.20737599 -5.71764858e-15,3.20737599 -5.71764858e-15,-2.85188539e-15" stroke="none" fill="#F4002E"></polygon></g></g><g transform="translate(49.03745155993422 5.267554776511873)"><g clip-path="url(#i12)"><polygon points="0,0 2.86350082,0 2.86350082,2.85100088 0,2.85100088 0,0" stroke="none" fill="#FEFFFE"></polygon></g></g><g transform="translate(52.61682758620697 8.474930762488988)"><g clip-path="url(#i13)"><polygon points="0,0 2.86350238,0 2.86350238,2.85100088 0,2.85100088 0,0" stroke="none" fill="#FEFFFE"></polygon></g></g><g transform="translate(59.95282758620695 9.522930762488988)"><g clip-path="url(#i14)"><polygon points="0,0 2.86350238,0 2.86350238,2.85100088 0,2.85100088 0,0" stroke="none" fill="#FEFFFE"></polygon></g></g></g><g transform="translate(0.0 34.883428571428595)"><g transform="translate(46.71085714285715 8.383999999999999)"><g clip-path="url(#i15)"><polygon points="-5.32907052e-15,0 15.5702857,0 15.5702857,15.5702857 -5.32907052e-15,15.5702857 -5.32907052e-15,0" stroke="none" fill="#FFFFFF"></polygon></g></g><g transform="translate(46.71085714285715 13.174857142857139)"><g clip-path="url(#i16)"><polygon points="-2.63677968e-16,0 15.5702857,0 15.5702857,10.7794286 -2.63677968e-16,10.7794286 -2.63677968e-16,0" stroke="none" fill="#EAEAEA"></polygon></g></g><g transform="translate(56.52203082517217 10.622770406956281) rotate(-44.99999999999999)"><g clip-path="url(#i17)"><polygon points="-1.02522678e-05,-1.02522687e-05 4.09027833,-1.02522687e-05 4.09027833,4.09027833 -1.02522678e-05,4.09027833 -1.02522678e-05,-1.02522687e-05" stroke="none" fill="#FFFFFF"></polygon></g></g><g transform="translate(15.570285714285722 47.90857142857141)"><g clip-path="url(#i18)"><polygon points="6.66133815e-16,-2.55351296e-15 5.98857143,-2.55351296e-15 5.98857143,5.98857143 6.66133815e-16,5.98857143 6.66133815e-16,-2.55351296e-15" stroke="none" fill="#EAEAEA"></polygon></g></g><g transform="translate(14.37257142857144 47.908571428571435)"><g clip-path="url(#i19)"><polygon points="0,4.88498131e-15 8.384,4.88498131e-15 8.384,7.18628571 0,7.18628571 0,4.88498131e-15" stroke="none" fill="#2F383F"></polygon></g></g><g transform="translate(16.768000000000015 21.55885714285713)"><g clip-path="url(#i20)"><polygon points="1.33226763e-15,1.33226763e-15 32.3382857,1.33226763e-15 32.3382857,32.3382857 1.33226763e-15,32.3382857 1.33226763e-15,1.33226763e-15" stroke="none" fill="#FFFFFF"></polygon></g></g><g transform="translate(0.0 3.5931428571428565)"><g clip-path="url(#i21)"><polygon points="-4.4408921e-16,-4.4408921e-16 29.9428571,-4.4408921e-16 29.9428571,29.9428571 -4.4408921e-16,29.9428571 -4.4408921e-16,-4.4408921e-16" stroke="none" fill="#0179FF"></polygon></g></g><g transform="translate(3.5931428571428583 4.79085714285714)"><g clip-path="url(#i22)"><polygon points="3.60822483e-16,1.36002321e-15 26.3497143,1.36002321e-15 26.3497143,26.3497143 3.60822483e-16,26.3497143 3.60822483e-16,1.36002321e-15" stroke="none" fill="#2F383F"></polygon></g></g><g transform="translate(11.977142857142859 11.977142857142852)"><g clip-path="url(#i23)"><polygon points="1.36002321e-15,-1.33226763e-15 13.1748571,-1.33226763e-15 13.1748571,13.1748571 1.36002321e-15,13.1748571 1.36002321e-15,-1.33226763e-15" stroke="none" fill="#2F383F"></polygon></g></g><g transform="translate(5.988571428571431 5.988571428571427)"><g clip-path="url(#i24)"><polygon points="1.36002321e-15,1.33226763e-15 13.1748571,1.33226763e-15 13.1748571,13.1748571 1.36002321e-15,13.1748571 1.36002321e-15,1.33226763e-15" stroke="none" fill="#2F383F"></polygon></g></g><g transform="translate(39.52457142857143 43.11771428571426)"><g clip-path="url(#i25)"><polygon points="1.33226763e-15,1.33226763e-15 29.9428571,1.33226763e-15 29.9428571,28.7451429 1.33226763e-15,28.7451429 1.33226763e-15,1.33226763e-15" stroke="none" fill="#F4002E"></polygon></g></g><g transform="translate(39.52457142857143 39.52457142857143)"><g clip-path="url(#i26)"><polygon points="-1.36002321e-15,-1.38777878e-15 26.3497143,-1.38777878e-15 26.3497143,26.3497143 -1.36002321e-15,26.3497143 -1.36002321e-15,-1.38777878e-15" stroke="none" fill="#2F383F"></polygon></g></g><g transform="translate(44.31542857142858 44.31542857142858)"><g clip-path="url(#i27)"><polygon points="-5.30131494e-15,-5.27355937e-15 13.1748571,-5.27355937e-15 13.1748571,13.1748571 -5.30131494e-15,13.1748571 -5.30131494e-15,-5.27355937e-15" stroke="none" fill="#064370"></polygon></g></g><g transform="translate(51.50171428571431 51.50171428571427)"><g clip-path="url(#i28)"><polygon points="-5.32907052e-15,-5.32907052e-15 13.1748571,-5.32907052e-15 13.1748571,13.1748571 -5.32907052e-15,13.1748571 -5.32907052e-15,-5.32907052e-15" stroke="none" fill="#064370"></polygon></g></g><g transform="translate(45.51314285714287 7.186285714285715)"><g clip-path="url(#i29)"><polygon points="4.4408921e-16,-1.77635684e-15 16.768,-1.77635684e-15 16.768,16.768 4.4408921e-16,16.768 4.4408921e-16,-1.77635684e-15" stroke="none" fill="#2F383F"></polygon></g></g><g transform="translate(45.51314285714287 20.36114285714286)"><g clip-path="url(#i30)"><polygon points="-6.21724894e-15,-1.55431223e-15 3.59314286,-1.55431223e-15 3.59314286,3.59314286 -6.21724894e-15,3.59314286 -6.21724894e-15,-1.55431223e-15" stroke="none" fill="#2F383F"></polygon></g></g><g transform="translate(16.768000000000015 26.34971428571428)"><g clip-path="url(#i31)"><polygon points="-1.11022302e-16,0 32.3382857,0 32.3382857,27.5474286 -1.11022302e-16,27.5474286 -1.11022302e-16,0" stroke="none" fill="#EAEAEA"></polygon></g></g><g transform="translate(17.9657142857143 37.12914285714285)"><g clip-path="url(#i32)"><polygon points="-1.77635684e-15,-1.77635684e-15 14.3725714,-1.77635684e-15 14.3725714,14.3725714 -1.77635684e-15,14.3725714 -1.77635684e-15,-1.77635684e-15" stroke="none" fill="#E8E8E8"></polygon></g></g><g transform="translate(55.09485714285717 11.97714285714285)"><g clip-path="url(#i33)"><polygon points="5.13478149e-15,1.30451205e-15 3.59314286,1.30451205e-15 3.59314286,3.59314286 5.13478149e-15,3.59314286 5.13478149e-15,1.30451205e-15" stroke="none" fill="#2F383F"></polygon></g></g><g transform="translate(56.29257142857146 7.186285714285715)"><g clip-path="url(#i34)"><polygon points="5.32907052e-15,0 5.98857143,0 5.98857143,5.98857143 5.32907052e-15,5.98857143 5.32907052e-15,0" stroke="none" fill="#2F383F"></polygon></g></g><g transform="translate(26.349714285714295 22.75657142857142)"><g clip-path="url(#i35)"><polygon points="-1.33226763e-15,-1.36002321e-15 20.3611429,-1.36002321e-15 20.3611429,20.3611429 -1.33226763e-15,20.3611429 -1.33226763e-15,-1.36002321e-15" stroke="none" fill="#2F383F"></polygon></g></g><g transform="translate(15.570285714285717 20.36114285714286)"><g clip-path="url(#i36)"><polygon points="0,0 33.536,0 33.536,33.536 0,33.536 0,0" stroke="none" fill="#2F383F"></polygon></g></g><g clip-path="url(#i37)"><polygon points="0,0 31.1405714,0 31.1405714,31.1405714 0,31.1405714 0,0" stroke="none" fill="#2F383F"></polygon></g><g transform="translate(7.1862857142857175 4.79085714285714)"><g clip-path="url(#i38)"><polygon points="-1.33226763e-15,4.4408921e-16 8.384,4.4408921e-16 8.384,4.79085714 -1.33226763e-15,4.79085714 -1.33226763e-15,4.4408921e-16" stroke="none" fill="#FFFFFF"></polygon></g></g><g transform="translate(17.9657142857143 10.779428571428571)"><g clip-path="url(#i39)"><polygon points="-1.44328993e-15,1.44328993e-15 4.79085714,1.44328993e-15 4.79085714,4.79085714 -1.44328993e-15,4.79085714 -1.44328993e-15,1.44328993e-15" stroke="none" fill="#FFFFFF"></polygon></g></g><g transform="translate(8.384000000000004 17.96571428571428)"><g clip-path="url(#i40)"><polygon points="-1.47104551e-15,-1.47104551e-15 4.79085714,-1.47104551e-15 4.79085714,4.79085714 -1.47104551e-15,4.79085714 -1.47104551e-15,-1.47104551e-15" stroke="none" fill="#FFFFFF"></polygon></g></g><g transform="translate(2.395428571428573 11.97714285714285)"><g clip-path="url(#i41)"><polygon points="3.33066907e-16,-1.41553436e-15 3.59314286,-1.41553436e-15 3.59314286,3.59314286 3.33066907e-16,3.59314286 3.33066907e-16,-1.41553436e-15" stroke="none" fill="#FFFFFF"></polygon></g></g><g transform="translate(38.32685714285716 38.32685714285713)"><g clip-path="url(#i42)"><polygon points="-2.22044605e-16,0 31.1405714,0 31.1405714,31.1405714 -2.22044605e-16,31.1405714 -2.22044605e-16,0" stroke="none" fill="#2F383F"></polygon></g></g><g transform="translate(63.47885714285717 57.49028571428572)"><g clip-path="url(#i43)"><polygon points="-4.96824804e-15,-4.88498131e-15 3.59314286,-4.88498131e-15 3.59314286,5.98857143 -4.96824804e-15,5.98857143 -4.96824804e-15,-4.88498131e-15" stroke="none" fill="#FFFFFF"></polygon></g></g><g transform="translate(56.29257142857146 50.30399999999999)"><g clip-path="url(#i44)"><polygon points="5.49560397e-15,5.4678484e-15 4.79085714,5.4678484e-15 4.79085714,4.79085714 5.49560397e-15,4.79085714 5.49560397e-15,5.4678484e-15" stroke="none" fill="#FFFFFF"></polygon></g></g><g transform="translate(50.30400000000002 44.31542857142858)"><g clip-path="url(#i45)"><polygon points="-6.10622664e-15,6.05071548e-15 3.59314286,6.05071548e-15 3.59314286,3.59314286 -6.10622664e-15,3.59314286 -6.10622664e-15,6.05071548e-15" stroke="none" fill="#FFFFFF"></polygon></g></g><g transform="translate(35.93142857142858 23.9542857142857)"><g clip-path="url(#i46)"><polygon points="0,0 3.59314286,0 3.59314286,3.59314286 0,3.59314286 0,0" stroke="none" fill="#FFFFFF"></polygon></g></g><g transform="translate(35.9314285714286 23.9542857142857)"><g clip-path="url(#i47)"><polygon points="-1.36002321e-15,-1.41553436e-15 4.79085714,-1.41553436e-15 4.79085714,4.79085714 -1.36002321e-15,4.79085714 -1.36002321e-15,-1.41553436e-15" stroke="none" fill="#E8E8E8" opacity="50%"></polygon></g></g><g transform="translate(26.3497142857143 29.94285714285715)"><g clip-path="url(#i46)"><polygon points="0,0 8.384,0 8.384,8.384 0,8.384 0,0" stroke="none" fill="#FFFFFF"></polygon></g></g><g transform="translate(26.3497142857143 28.74514285714286)"><g clip-path="url(#i48)"><polygon points="-1.38777878e-15,-1.36002321e-15 9.58171429,-1.36002321e-15 9.58171429,9.58171429 -1.38777878e-15,9.58171429 -1.38777878e-15,-1.36002321e-15" stroke="none" fill="#E8E8E8" opacity="50%"></polygon></g></g></g></g><g transform="translate(0.0 5.267554776511876)"><g transform="translate(1.7896880131362902 1.4255004382120946)"><path d="M5.36906404,10.6912533 C8.33431623,10.6912533 10.7381281,8.29793472 10.7381281,5.34562664 C10.7381281,2.39331857 8.33431623,0 5.36906404,0 C2.40381185,0 0,2.39331857 0,5.34562664 C0,8.29793472 2.40381185,10.6912533 5.36906404,10.6912533 Z" stroke="#FFFFFF" stroke-width="1" fill="none" stroke-linejoin="round"></path></g><g transform="translate(0.0 1.781875547765119)"><path d="M11.899361,0.0376808367 C13.0431434,-0.0828029336 13.8762349,0.0828622505 14.1869258,0.574837646 C14.9347835,1.75708464 12.3942669,4.37509657 8.51200557,6.42332066 C4.62974427,8.47154476 0.8739589,9.1567962 0.131600152,7.9745492 C-0.220332884,7.41982184 0.15084649,6.55384475 1.03892751,5.57742419" stroke="#FFFFFF" stroke-width="1" fill="none" stroke-linecap="round" stroke-linejoin="round"></path></g><g transform="translate(0.3579376026272578 1.425500438212095)"><g clip-path="url(#i49)"><polygon points="0,0 1.78968801,0 1.78968801,1.78187555 0,1.78187555 0,0" stroke="none" fill="#FFFFFF"></polygon></g></g><g transform="translate(2.863500821018063 0.0)"><g clip-path="url(#i50)"><polygon points="0,0 0.715875205,0 0.715875205,0.712750219 0,0.712750219 0,0" stroke="none" fill="#FFFFFF"></polygon></g></g></g></g></g></g></g></svg>