<?xml version="1.0" encoding="UTF-8"?>
<svg width="149px" height="135px" viewBox="0 0 149 135" version="1.1" xmlns="http://www.w3.org/2000/svg" xmlns:xlink="http://www.w3.org/1999/xlink">
    <title>icons/illustrated/cheesy pizza copy 2</title>
    <g id="Page-1" stroke="none" stroke-width="1" fill="none" fill-rule="evenodd">
        <g id="פופאפ_יציאה-מהחשבון" transform="translate(-118.000000, -267.000000)">
            <g id="icons/illustrated/cheesy-pizza-copy-2" transform="translate(118.000000, 267.000000)">
                <g id="Group-3" transform="translate(5.385542, 20.700000)">
                    <g id="Group-2" transform="translate(0.000000, 13.500000)">
                        <g id="Group" transform="translate(0.000000, 52.200000)">
                            <path d="M95.3573916,43.9949814 L93.6724228,33.3565069 C97.3623182,32.8678619 100.029077,32.4454889 101.672698,32.0893878 C103.31632,31.7332867 105.170187,31.1762375 107.234298,30.4182403 L108.269942,39.2234975 L95.3573916,43.9949814 Z" id="Path-79-Copy" fill="#017AFF" transform="translate(100.971182, 37.206611) rotate(99.000000) translate(-100.971182, -37.206611) "></path>
                            <path d="M107.183847,14.31 L107.183847,23.3466272 L117.687821,23.3466272 C118.349175,23.3466272 118.952897,23.6064333 119.401279,24.0302858 C119.806222,24.4130762 120.084517,24.9296922 120.163926,25.5060697 L120.18293,25.7003073 L120.187349,27.4950295 C120.187349,28.1572496 119.927195,28.7618788 119.504483,29.2112954 C119.105014,29.6360009 118.560323,29.9221965 117.952488,29.9871969 L117.768325,29.9999785 L114.581163,42.8755368 C114.551215,43.0263046 114.498946,43.1695431 114.438299,43.3055414 L114.375375,43.439137 L119.560472,43.5698294 C119.909213,43.5786196 120.187349,43.8638551 120.187349,44.212707 C120.187349,44.559032 119.906598,44.8397839 119.560272,44.8397839 L88.9512048,44.8397839 L88.9512048,44.8397839 L88.9512048,43.5852023 L98.8268867,43.5854546 C98.7576504,43.4623683 98.6959638,43.3398013 98.6452583,43.2165911 L98.5778648,43.0311479 L95.6940232,30.0004917 C94.9179958,30.0173248 94.2467104,29.761035 93.7597954,29.3326113 C93.3183644,28.9442077 93.028909,28.414582 92.9508696,27.8252187 L92.9338597,27.6466991 L92.9294398,25.8526912 C92.9294398,25.1875883 93.1891906,24.583201 93.6121928,24.1346824 C93.9957161,23.7280242 94.5134293,23.4494451 95.0897591,23.3700301 L95.2839364,23.3510324 L105.932942,23.3465898 L105.932942,14.31 L107.183847,14.31 Z M116.41747,29.9898958 L97.2789216,29.9898958 L99.7032289,42.0629463 L99.7414254,42.2188052 C99.8452138,42.5758767 100.050607,42.8854243 100.335797,43.1195432 C100.650599,43.3779717 101.063158,43.544702 101.544603,43.5796607 L111.626625,43.5798958 L111.786548,43.5731139 C112.156143,43.5415734 112.499329,43.4007791 112.784519,43.1666603 C113.099321,42.9082318 113.343765,42.5356123 113.472972,42.0692726 L116.41747,29.9898958 Z M95.4359448,24.6007136 L95.2959774,24.6083946 C95.0202387,24.6389507 94.7712753,24.7596622 94.5778925,24.9523745 C94.3622505,25.1672687 94.215248,25.4725191 94.1807313,25.8441668 L94.1803446,27.4948501 L94.1880972,27.6338473 C94.2189333,27.9078458 94.3407084,28.1562283 94.5345917,28.3494691 C94.7505089,28.5646708 95.0566483,28.711865 95.4276374,28.7464414 L117.687821,28.7468277 L117.82624,28.7390733 C118.099107,28.708236 118.346526,28.5865089 118.53913,28.3933575 C118.75424,28.1776369 118.901334,27.8720853 118.935873,27.5032638 L118.936266,25.8525118 L118.929815,25.7241984 C118.899962,25.4290526 118.768227,25.165324 118.571103,24.9676707 C118.344604,24.740563 118.031738,24.6007136 117.687821,24.6007136 L95.4359448,24.6007136 Z" id="Combined-Shape" fill="#383940" fill-rule="nonzero"></path>
                            <path d="M101.427711,15.3 C102.373721,15.3 103.869705,15.3 105.915663,15.3 C105.915663,13.0083042 105.915663,11.5083042 105.915663,10.8 C105.915663,8.31471863 103.906338,6.3 101.427711,6.3 C100.560058,6.3 99.0640737,6.3 96.939759,6.3 C96.939759,8.51312822 96.939759,10.0131282 96.939759,10.8 C96.939759,13.2852814 98.9490835,15.3 101.427711,15.3 Z" id="Oval" stroke="#383940" stroke-width="1.35" fill-rule="nonzero"></path>
                            <path d="M113.096386,17.1 C114.231598,17.1 116.026779,17.1 118.481928,17.1 C118.481928,14.349965 118.481928,12.549965 118.481928,11.7 C118.481928,8.71766235 116.070738,6.3 113.096386,6.3 C112.055202,6.3 110.260021,6.3 107.710843,6.3 C107.710843,8.95575387 107.710843,10.7557539 107.710843,11.7 C107.710843,14.6823376 110.122033,17.1 113.096386,17.1 Z" id="Oval" fill="#F5002E" fill-rule="nonzero" transform="translate(113.096386, 11.700000) scale(-1, 1) translate(-113.096386, -11.700000) "></path>
                            <path d="M112.198795,16.2 C113.334008,16.2 115.129188,16.2 117.584337,16.2 C117.584337,13.449965 117.584337,11.649965 117.584337,10.8 C117.584337,7.81766235 115.173148,5.4 112.198795,5.4 C111.157611,5.4 109.362431,5.4 106.813253,5.4 C106.813253,8.05575387 106.813253,9.85575387 106.813253,10.8 C106.813253,13.7823376 109.224442,16.2 112.198795,16.2 Z" id="Oval" stroke="#383940" stroke-width="1.35" fill-rule="nonzero" transform="translate(112.198795, 10.800000) scale(-1, 1) translate(-112.198795, -10.800000) "></path>
                        </g>
                        <path d="M100.53012,96.3 L86.6922691,96.375 L86.6922691,9 C86.6922691,8.50294373 86.2893254,8.1 85.7922691,8.1 L38.2247992,8.1 C37.7277429,8.1 37.3247992,8.50294373 37.3247992,9 L37.3247992,97.2 L37.3247992,97.2 L22.5145582,97.2 L100.53012,96.3 Z" id="Path-80" stroke="#383940" stroke-width="1.62" stroke-linecap="round" stroke-linejoin="round"></path>
                        <polyline id="Path-3" stroke="#383940" stroke-width="1.62" fill-opacity="0.8" fill="#FFFFFF" stroke-linecap="round" stroke-linejoin="round" points="37.6987952 8.1 78.0903614 0 77.1927711 97.2 37.6987952 97.2"></polyline>
                        <path d="M75.6540448,50.6571429 C73.1515053,66.0518849 69.7013774,76.560934 65.3036611,82.1842903 C60.9059449,87.8076465 52.687398,92.2193222 40.6480207,95.4193173 L60.5026466,95.4193173 L75.6540448,95.4193173 L75.6540448,76.0452369 L75.6540448,50.6571429 Z" id="Path-Copy" fill="#D1D1D1" opacity="0.439081101" transform="translate(58.151033, 73.038230) rotate(-360.000000) translate(-58.151033, -73.038230) "></path>
                    </g>
                    <path d="M107.262048,17.1 C108.501362,17.1 109.506024,18.1073593 109.506024,19.35 C109.506024,20.5926407 108.501362,21.6 107.262048,21.6 C106.022735,21.6 105.018072,20.5926407 105.018072,19.35 C105.018072,18.1073593 106.022735,17.1 107.262048,17.1 Z M107.262048,18 C106.51846,18 105.915663,18.6044156 105.915663,19.35 C105.915663,20.0955844 106.51846,20.7 107.262048,20.7 C108.005636,20.7 108.608434,20.0955844 108.608434,19.35 C108.608434,18.6044156 108.005636,18 107.262048,18 Z M103.060912,9.13982825 C103.253954,9.31768768 103.275307,9.60382856 103.120369,9.80549112 L103.077959,9.85403525 L100.812759,12.141 L103.069534,14.4037689 C103.274011,14.6087942 103.274011,14.9412058 103.069534,15.1462311 C102.880787,15.3354851 102.583788,15.3500431 102.378386,15.1899051 L102.32906,15.1462311 L100.075759,12.887 L97.8420168,15.1437246 C97.6423023,15.3454891 97.3108686,15.3528528 97.101739,15.1601718 C96.9086963,14.9823123 96.8873435,14.6961714 97.0422815,14.4945089 L97.0846915,14.4459648 L99.348759,12.158 L97.0931163,9.89623106 C96.88864,9.69120581 96.88864,9.35879419 97.0931163,9.15376894 C97.2818637,8.96451486 97.5788626,8.94995685 97.7842641,9.11009492 L97.8335905,9.15376894 L100.085759,11.412 L102.320634,9.15627544 C102.520348,8.95451086 102.851782,8.9471472 103.060912,9.13982825 Z M108.71407,9.42727233 C109.209795,9.42727233 109.61166,9.83021606 109.61166,10.3272723 C109.61166,10.8243286 109.209795,11.2272723 108.71407,11.2272723 C108.218345,11.2272723 107.81648,10.8243286 107.81648,10.3272723 C107.81648,9.83021606 108.218345,9.42727233 108.71407,9.42727233 Z" id="Combined-Shape" fill="#2F383F"></path>
                    <path d="M52.060241,-7.10542736e-15 L52.060241,11.7 L76.2951807,10.92 L76.2951807,-7.10542736e-15 L52.060241,-7.10542736e-15 Z M55.6506024,9 L55.6506024,2.7 L59.103272,2.7 L59.103272,3.96089531 L57.721324,3.96089531 L57.721324,5.15538844 L59.0149355,5.15538844 L59.0149355,6.35386073 L57.721324,6.35386073 L57.721324,7.73910469 L59.2409639,7.73910469 L59.2409639,9 L55.6506024,9 Z M62.7673818,6.70411716 C62.7112611,7.10375794 62.6323521,7.52677535 62.531675,7.97267201 L62.3207974,9 L60.1388943,9 L60.9534942,5.48629456 L60.1385542,2.7 L62.3041313,2.7 C62.3435858,2.87358386 62.4218146,3.16255872 62.5381374,3.56742194 C62.6316718,3.87604311 62.7085401,4.16004421 62.7673818,4.41992263 L63.2466182,2.7 L65.1247894,2.7 L64.3373996,5.48604587 L65.5240964,8.99975131 L63.4486525,8.99975131 C63.2003611,8.37181542 62.9734976,7.60635535 62.7673818,6.70411716 Z M68.2168675,9 L66.4216867,9 L66.4216867,2.7 L68.2168675,2.7 L68.2168675,9 Z M73.6024096,3.96089531 L72.3827592,3.96089531 L72.3827592,9 L70.3291199,9 L70.3291199,3.96089531 L69.1144578,3.96089531 L69.1144578,2.7 L73.6024096,2.7 L73.6024096,3.96089531 Z" id="Shape" fill="#31383E" fill-rule="nonzero"></path>
                </g>
                <polyline id="Path-15" stroke="#31383E" stroke-width="1.35" stroke-linecap="round" stroke-linejoin="round" transform="translate(75.173192, 80.343789) rotate(-8.000000) translate(-75.173192, -80.343789) " points="72.7047805 80.1009259 74.4684894 80.2744546 77.6416042 80.5866528"></polyline>
                <g id="Group-Copy" transform="translate(60.587349, 62.066937) rotate(-9.000000) translate(-60.587349, -62.066937) translate(50.265060, 51.716937)">
                    <path d="M14.6695379,0.367693267 C14.4331074,0.130635502 14.1177221,0 13.7833934,0 C13.4487755,0 13.1336795,0.130635502 12.8973935,0.367693267 L0.366575767,12.9320448 C-0.122191922,13.4225441 -0.122191922,14.2196962 0.366575767,14.7096155 L5.97467887,20.3324517 C6.21096479,20.5693645 6.52562707,20.7 6.86067876,20.7 C7.19515204,20.7 7.50995892,20.5693645 7.74667865,20.3324517 L20.2782195,7.76810022 C20.7666979,7.27832583 20.7666979,6.48102879 20.2782195,5.9912544 L14.6695379,0.367693267 Z" id="Fill-20" fill="#FFFFFF"></path>
                    <path d="M12.4545304,0.658371651 C12.2699623,0.387066029 11.9722774,0.387066029 11.7898512,0.658371651 L7.65060563,6.73448713 L12.1932408,13.3365471 L16.3327868,7.25941713 C16.5152153,6.98883615 16.5105245,6.54955873 16.3225954,6.27810818 M12.1625569,8.37942239 C11.8778729,8.37942239 11.5907449,8.22145063 11.3718307,7.90347813 C11.1533341,7.58550562 11.0427529,7.16840221 11.041902,6.75202345 C11.0410701,6.33549975 11.1496753,5.9176717 11.3659877,5.60114848 C11.5822781,5.28390061 11.8660267,5.12375493 12.1507315,5.12375493 C12.4340514,5.12375493 12.719895,5.2823064 12.9386932,5.60114848 C13.1571043,5.9176717 13.2693707,6.33607946 13.2716789,6.75202345 C13.2739854,7.16767757 13.1660689,7.58550562 12.9502771,7.90347813" id="Fill-22" fill="#F5002E"></path>
                    <path d="M3.13687945,13.1573326 C2.94660241,13.4278235 2.94190902,13.8673348 3.12668642,14.1388404 L6.99466749,19.76044 C7.08866677,19.8961203 7.21255186,19.9635255 7.33671667,19.9635255 C7.46057766,19.9635255 7.58497032,19.8961203 7.67999131,19.76044 L11.9033197,13.6851232 L7.3599046,7.08187085 L3.13687945,13.1573326 Z M5.69258621,15.2516796 C5.40344296,15.2516796 5.11555204,15.0930961 4.89743779,14.7765087 C4.67944814,14.4590516 4.57338661,14.0420087 4.57677079,13.6254006 C4.58015379,13.2089375 4.69320621,12.7918946 4.91496277,12.472843 C5.13688644,12.1556758 5.42561388,11.9968023 5.71328745,11.9968023 C6.00036087,11.9968023 6.28796772,12.1556758 6.50585714,12.472843 C6.72375577,12.7918946 6.83120302,13.2089375 6.82909173,13.6246758 C6.82717726,14.0411389 6.71580316,14.4597764 6.49408026,14.7765087 C6.27143973,15.0925162 5.98112624,15.2516796 5.69258621,15.2516796 Z M9.01085339,12.0621782 C9.29855648,12.0621782 9.58641513,12.2207618 9.80546812,12.5389436 C10.0260419,12.8571255 10.1361596,13.2728638 10.1364032,13.6907765 C10.1366439,14.1065148 10.026723,14.5238477 9.80561302,14.8410148 C9.58559059,15.1578921 9.29617205,15.3170555 9.00699757,15.3185051 C8.71842743,15.3185051 8.42938803,15.1578921 8.20981432,14.8410148 C7.99015825,14.5238477 7.88122505,14.1065148 7.88243017,13.6907765 C7.88367799,13.2743134 7.99478389,12.8571255 8.21510959,12.5389436 C8.43551647,12.2207618 8.72375052,12.0621782 9.01085339,12.0621782 Z" id="Fill-24" fill="#017AFF"></path>
                    <polyline id="Fill-26" fill="#FFFFFF" points="9.42615177 20.1043165 9.42615177 19.4996457 9.20837306 19.4996457 9.20837306 19.3597122 9.80246165 19.3597122 9.80246165 19.4996457 9.58673607 19.4996457 9.58673607 20.1043165"></polyline>
                </g>
                <path d="M56.9278735,115.33395 C57.1418534,115.161009 57.4969609,115.154698 57.7210283,115.319853 C57.9278598,115.472304 57.9507379,115.717567 57.7847328,115.890421 L57.7392936,115.93203 L52.1293554,120.46605 C51.9153755,120.638991 51.560268,120.645302 51.3362006,120.480147 C51.1293691,120.327696 51.1064911,120.082433 51.2724961,119.909579 L51.3179353,119.86797 L56.9278735,115.33395 Z" id="Path-Copy-2" fill="#4D4D4D" transform="translate(54.528614, 117.900000) scale(-1, 1) translate(-54.528614, -117.900000) "></path>
                <path d="M58.2742591,112.63395 C58.4882389,112.461009 58.8433464,112.454698 59.0674139,112.619853 C59.2742454,112.772304 59.2971234,113.017567 59.1311183,113.190421 L59.0856791,113.23203 L53.4757409,117.76605 C53.2617611,117.938991 52.9066536,117.945302 52.6825861,117.780147 C52.4757546,117.627696 52.4528766,117.382433 52.6188817,117.209579 L52.6643209,117.16797 L58.2742591,112.63395 Z" id="Path-Copy-3" fill="#4D4D4D" transform="translate(55.875000, 115.200000) scale(-1, 1) translate(-55.875000, -115.200000) "></path>
            </g>
        </g>
    </g>
</svg>