<svg xmlns="http://www.w3.org/2000/svg" viewBox="0 0 12 15">
  <g fill="#017AFF">
    <path d="M10.1725573,14.4000001 L1.82744263,14.4000001 C0.818673774,14.3988158 0.00120570112,13.5958669 0,12.605015 L0,1.79498513 C0.00120570112,0.804133209 0.818673774,0.00118434166 1.82744263,0 L7.30138273,0 C7.44648909,0 7.58567626,0.0565027764 7.68831481,0.157253787 L11.8399027,4.23653737 C11.9424755,4.33735294 12,4.47406798 12,4.61659707 L12,12.6046568 C11.9989952,13.5956486 11.1814684,14.3988154 10.1725573,14.4000001 Z M1.82744263,1.07462692 C1.42257249,1.07502184 1.0944607,1.39730597 1.09405865,1.79498513 L1.09405865,12.605015 C1.0944607,13.0026941 1.42257249,13.3249783 1.82744263,13.3253732 L10.1725573,13.3253732 C10.5774274,13.3249783 10.9055392,13.0026941 10.9059413,12.605015 L10.9059413,4.83904483 L7.07345385,1.07462692 L1.82744263,1.07462692 Z"/>
    <path d="M11.4529706 5.1539105L8.58033729 5.1539105C7.57156844 5.15272622 6.75410037 4.34977735 6.75289467 3.35892543L6.75289467.537313488C6.75289467.240563473 6.99780804 5.52286281e-8 7.29992399 5.52286281e-8 7.60203994 5.52286281e-8 7.84695331.240563473 7.84695331.537313488L7.84695331 3.35892543C7.84735537 3.75660459 8.17546716 4.07888872 8.58033729 4.07928364L11.4529706 4.07928364C11.7550866 4.07928364 11.9999999 4.31984706 11.9999999 4.61659707 11.9999999 4.91334708 11.7550866 5.1539105 11.4529706 5.1539105L11.4529706 5.1539105zM5.99945294 11.2134324C5.85429423 11.213402 5.71509969 11.1567028 5.61252087 11.0558205L3.62680442 9.1057309C3.48856689 8.97001264 3.43454424 8.77216481 3.48508626 8.5867148 3.53562829 8.40126478 3.68305646 8.25638683 3.871836 8.20665509 4.06061555 8.15692334 4.26206637 8.20989322 4.40030388 8.3456115L5.99945294 9.91599956 7.59823731 8.3456115C7.73647483 8.20989323 7.93792565 8.15692335 8.12670519 8.2066551 8.31548473 8.25638684 8.4629129 8.40126478 8.51345493 8.5867148 8.56399695 8.77216482 8.5099743 8.97001264 8.37173678 9.1057309L6.38602033 11.0540294C6.28383018 11.1554812 6.14474754 11.2128327 5.99945294 11.2134324z"/>
    <path d="M5.99945294,10.8552244 C5.69733699,10.8552244 5.45242362,10.614661 5.45242362,10.317911 L5.45242362,5.05522443 C5.45242362,4.75847442 5.69733699,4.517911 5.99945294,4.517911 C6.3015689,4.517911 6.54648227,4.75847442 6.54648227,5.05522443 L6.54648227,10.317911 C6.54648227,10.614661 6.3015689,10.8552244 5.99945294,10.8552244 Z"/>
  </g>
</svg>
