<svg xmlns="http://www.w3.org/2000/svg" viewBox="0 0 107 107">
  <g fill="none" fill-rule="evenodd">
    <g transform="translate(6 2.36)">
      <g transform="translate(2.427)">
        <g transform="rotate(-14 56.178 -99.18)">
          <path fill="#FFF" fill-rule="nonzero" stroke="#404D57" stroke-linejoin="round" d="M18.823015,43.2696167 C18.6978948,43.1642995 16.3584284,37.9313775 13.1627294,30.6129882 C10.1682497,23.7441691 6.02901411,14.2730396 3.96873365,9.57598286 C1.90892005,4.86918314 0.224,0.889397245 0.224,0.746035874 C0.224,0.401783002 0.6091646,0 0.936437794,0 C1.07136212,0 3.12183839,0.842074074 5.49958786,1.86555364 C7.87733732,2.8890332 9.86992219,3.73110727 9.91847627,3.73110727 C9.95707054,3.73110727 14.9117657,5.88663132 24.7825618,10.1976794 L34.1684395,14.2442745 C41.2732091,17.3151771 43.6024044,18.3581427 43.747133,18.5492912 C44.0263189,18.8935441 43.949286,19.2187749 43.2755981,20.6157364 C41.3875913,24.480462 37.2581599,29.6178098 32.1268337,34.4489488 C27.9871313,38.3521825 24.300289,41.1168764 21.1041231,42.7049863 C19.5737358,43.4705082 19.1792339,43.5660825 18.823015,43.2696167 Z" transform="matrix(1 0 0 -1 0 43.425)"/>
          <path fill="#017AFF" fill-rule="nonzero" d="M20.9024369,24.9616773 C24.3871261,23.1346317 29.1332877,19.2982072 33.5134263,14.7542548 C37.4407046,10.6691517 40.0691612,7.28276123 41.6093527,4.29768983 L42.1098333,3.33127644 L41.695723,3.15915001 C39.1064831,2.03035319 38.5863942,1.81043963 38.4902198,1.81043963 C38.3263497,1.81043963 37.5275417,2.67153577 37.1615186,3.2454452 C36.9785071,3.5326319 36.217982,4.97691652 35.4770654,6.45043016 C33.9849611,9.40627255 33.580655,10.0664772 32.7332929,10.9660814 C31.6744404,12.0948782 30.499805,12.7072957 28.5842531,13.1568658 C26.4665481,13.6542231 26.3124823,13.7497973 25.5809029,15.1370158 C24.3198974,17.5477138 22.9239675,19.2889281 21.5280376,20.1978114 C20.7866541,20.6858896 19.6507687,21.1159737 18.7268405,21.250056 C18.3225344,21.3075861 17.9663155,21.3743953 17.9565113,21.3841383 C17.9084241,21.4129034 19.6988559,25.5360507 19.7567473,25.5360507 C19.7758888,25.5360507 20.2959778,25.277629 20.9024369,24.9616773 Z" transform="matrix(1 0 0 -1 0 27.346)"/>
          <path fill="#FFF" fill-rule="nonzero" stroke="#31383E" stroke-width=".672" d="M24.7825654,26.74419 C25.7275649,26.4573843 26.2613813,25.7106786 26.2698681,24.6426327 C26.2698681,24.1216654 26.2350724,23.9477289 26.0072032,23.5139405 C25.5612246,22.6366772 24.5725184,22.2108908 23.4790009,22.4370503 C22.5166036,22.6366772 21.8779758,23.3922271 21.7990491,24.45185 C21.7116356,25.5026287 22.2539388,26.379892 23.1904515,26.7012323 C23.7501525,26.892015 24.2313511,26.9092823 24.7825654,26.74419 Z" transform="matrix(1 0 0 -1 0 49.234)"/>
          <path fill="#017AFF" fill-rule="nonzero" stroke="#000" stroke-width=".672" d="M14.3305053,31.2127138 C15.3702163,30.8967621 15.957534,30.074174 15.9668713,28.89759 C15.9668713,28.3236806 15.9285883,28.1320682 15.6778811,27.6541969 C15.1872048,26.6877835 14.0994066,26.2187274 12.8962924,26.46787 C11.8374399,26.6877835 11.1348063,27.5201146 11.0479692,28.6874195 C10.9517948,29.8449814 11.5484498,30.8113948 12.5788234,31.1653906 C13.1946199,31.3755612 13.7240462,31.3945833 14.3305053,31.2127138 Z" transform="matrix(1 0 0 -1 0 57.739)"/>
          <path d="M15.2265053,31.2127138 C16.2662163,30.8967621 16.853534,30.074174 16.8628713,28.89759 C16.8628713,28.3236806 16.8245883,28.1320682 16.5738811,27.6541969 C16.0832048,26.6877835 14.9954066,26.2187274 13.7922924,26.46787 C12.7334399,26.6877835 12.0308063,27.5201146 11.9439692,28.6874195 C11.8477948,29.8449814 12.4444498,30.8113948 13.4748234,31.1653906 C14.0906199,31.3755612 14.6200462,31.3945833 15.2265053,31.2127138 Z" transform="matrix(1 0 0 -1 0 57.739)"/>
          <path fill="#F5002E" fill-rule="nonzero" d="M20.9790885,20.6114932 C22.6328374,20.1095832 23.5670163,18.8028483 23.5818681,16.9337678 C23.5818681,16.0220752 23.5209757,15.7176863 23.1222046,14.9585566 C22.341742,13.4233458 20.6115062,12.6782195 18.6978505,13.0739988 C17.0136553,13.4233458 15.8960566,14.7455581 15.7579348,16.5998982 C15.6049612,18.4387609 16.5539918,19.9739717 18.192889,20.5363172 C19.1723658,20.8701869 20.0144634,20.9004047 20.9790885,20.6114932 Z" transform="matrix(1 0 0 -1 0 33.778)"/>
          <path stroke="#404D57" stroke-width=".84" d="M20.0446365,19.3249798 C21.6983855,18.8230698 22.6325643,17.5163349 22.6474161,15.6472545 C22.6474161,14.7355618 22.5865237,14.431173 22.1877526,13.6720433 C21.40729,12.1368325 19.6770542,11.3917062 17.7633986,11.7874854 C16.0792034,12.1368325 14.9616047,13.4590448 14.8234829,15.3133848 C14.6705092,17.1522475 15.6195399,18.6874583 17.258437,19.2498039 C18.2379139,19.5836735 19.0800115,19.6138913 20.0446365,19.3249798 Z" transform="matrix(1 0 0 -1 0 31.205)"/>
          <path fill="#FFF" fill-rule="nonzero" stroke="#000" stroke-linecap="round" stroke-linejoin="round" stroke-width=".5" d="M10.0443171,43.7443894 C10.0778818,43.7443894 10.104929,42.5977053 10.104929,41.2050339 C10.104929,38.3094209 10.0980857,38.3870184 10.6761806,37.7910568 C11.6371738,36.7998819 13.216018,37.0461834 13.8478816,38.289943 L14.0359091,38.659081 L14.0561131,42.0598633 L14.0763171,45.467243" transform="matrix(1 0 0 -1 0 82.646)"/>
          <path fill="#FFF" fill-rule="nonzero" stroke="#000" stroke-linecap="round" stroke-linejoin="round" stroke-width=".5" d="M37.2683855,30.2113335 C37.2906742,30.2113335 37.308635,29.4499786 37.308635,28.5252975 C37.308635,26.60272 37.3040907,26.6542418 37.6879762,26.2585459 C38.3261264,25.6004433 39.3745623,25.7639781 39.7941531,26.5897874 L39.9190132,26.8348811 L39.9324297,29.0928719 L39.9458463,31.3552431" transform="matrix(1 0 0 -1 0 57.208)"/>
          <path fill="#FFF" fill-rule="nonzero" stroke="#000" stroke-linecap="round" stroke-linejoin="round" stroke-width=".5" d="M41.3003855,27.4478423 C41.3226742,27.4478423 41.340635,26.9344192 41.340635,26.3108562 C41.340635,25.0143572 41.3360907,25.0491012 41.7199762,24.7822618 C42.3581264,24.3384673 43.4065623,24.4487478 43.8261531,25.0056361 L43.9510132,25.1709161 L43.9644297,26.6936026 L43.9778463,28.2192431" transform="matrix(1 0 0 -1 0 52.728)"/>
          <path fill="#FFF" fill-rule="nonzero" stroke="#000" stroke-linecap="round" stroke-linejoin="round" stroke-width=".627" d="M3.99631706,42.154196 C4.03567842,42.154196 4.07472235,41.9579772 4.09440303,41.7161115 C4.11408371,41.4415955 4.17947436,41.1604226 4.27121172,40.9841744 C4.48738177,40.5724004 4.9387677,40.1606263 5.36444176,40.0037147 C6.10405442,39.7225419 6.71923439,39.8731136 7.32806576,40.4807894 C7.89086973,41.0428181 7.94324573,41.23238 7.94324573,42.6835744 C7.94324573,43.5267761 7.96292641,43.853596 8.02831706,43.899243" transform="matrix(1 0 0 -1 0 83.766)"/>
          <circle cx="16.461" cy="24.019" r="1.456" fill="#D1D1D1" fill-rule="nonzero"/>
          <circle cx="9.965" cy="32.979" r="1.008" fill="#017AFF" fill-rule="nonzero" stroke="#000" stroke-width=".672"/>
          <circle cx="20.045" cy="10.579" r="1.008" fill="#000" fill-rule="nonzero" opacity=".437"/>
          <circle cx="30.685" cy="21.443" r="3.136" fill="#D1D1D1" fill-rule="nonzero"/>
          <path stroke="#D1D1D1" stroke-linecap="round" stroke-linejoin="round" stroke-width="1.12" d="M6.90831706,32.5115859 L3.32431706,40.091243 L22.6903544,31.3971107 M26.4092109,29.7275781 L32.0291988,27.3234568"/>
        </g>
        <path fill="#017AFF" stroke="#404D57" stroke-linecap="round" stroke-linejoin="round" d="M59.2881335,31.2208834 L61.0323335,27.3922834 L69.4095335,19.4632834 L70.7325335,16.5580834 L70.2105335,16.3222834 C69.9603335,16.2088834 69.8523335,15.9136834 69.9639335,15.6634834 L71.3733335,12.5656834 C71.4867335,12.3208834 71.7819335,12.2110834 72.0303335,12.3244834 L82.6161335,17.1466834 C82.8627335,17.2600834 82.9761335,17.5534834 82.8627335,17.8000834 L81.4533335,20.8978834 C81.3399335,21.1498834 81.0447335,21.2560834 80.7945335,21.1426834 L80.2725335,20.9050834 L78.9549335,23.8102834 L78.5463335,33.5860834"/>
        <polygon fill="#EAEAEA" points="11.363 95.884 8.107 47.44 6.573 36.139 16.214 31.21 73.906 31.21 83.573 36.139 76.921 96.005"/>
        <g transform="translate(32.405 55.249)">
          <path fill="#FFFFFE" d="M21.5246181,6.29877066 L15.5716722,0.386963815 C15.3203829,0.137491712 14.9863478,-3.70214574e-16 14.6310329,-3.70214574e-16 C14.2757179,-3.70214574e-16 13.9415981,0.137491712 13.6903087,0.386963815 L0.38901521,13.5965243 C-0.129671737,14.1118025 -0.129671737,14.9498873 0.38901521,15.4649129 L6.34179149,21.3778143 C6.59308082,21.6273706 6.92711589,21.7647781 7.28251564,21.7647781 C7.63783061,21.7647781 7.97186568,21.6273706 8.22307023,21.3778143 L21.5245333,8.16699087 C22.0430507,7.65204946 22.0430507,6.81396465 21.5246181,6.29877066"/>
          <path fill="#F5002E" d="M15.8683191,8.42825038 C15.5313167,8.76242344 15.0886779,8.92938368 14.6489216,8.92938368 C14.208487,8.92921528 13.7667807,8.76242344 13.4293544,8.42825038 C13.0931998,8.09424571 12.9238085,7.65499632 12.9237237,7.21759923 C12.9238085,6.77936018 13.0931998,6.3399424 13.4293544,6.00661129 C13.7666959,5.67260663 14.2078087,5.50421506 14.6489216,5.50429923 C15.0886779,5.50429923 15.5313167,5.67125949 15.8683191,6.00677969 C16.203965,6.3399424 16.3738651,6.77944438 16.3737804,7.21759923 C16.3738651,7.65440695 16.203965,8.09407732 15.8683191,8.42825038 Z M21.1035135,6.719076 L15.1506524,0.807353355 C14.8636705,0.522350632 14.3983953,0.522350632 14.1113286,0.807353355 L7.67504924,7.19924455 L14.6671494,14.1429549 L21.1035135,7.7511479 C21.3904954,7.46614518 21.3904954,7.00416292 21.1035135,6.719076 L21.1035135,6.719076 Z"/>
          <path fill="#017AFF" d="M8.58677847,13.3648175 C8.92335695,13.0298025 9.36523279,12.8628422 9.80575214,12.8628422 C10.2469497,12.862758 10.6888256,13.0298025 11.0248106,13.3648175 C11.3628303,13.6988221 11.5312891,14.1363876 11.5312044,14.5757212 C11.5312044,15.0132867 11.3628303,15.4520309 11.0248106,15.785362 C10.6888256,16.1183563 10.2469497,16.2863269 9.80575214,16.2868321 C9.36489367,16.2868321 8.92335695,16.1185247 8.58686325,15.785362 C8.24994564,15.4511048 8.08148684,15.0122763 8.08148684,14.5757212 C8.08148684,14.1376506 8.25003042,13.6989063 8.58677847,13.3648175 Z M5.96511184,15.7173318 C5.62768555,16.0499894 5.18580971,16.2170338 4.74537514,16.2170338 C4.30375365,16.2169496 3.86238649,16.0500736 3.52572323,15.7173318 C3.18855128,15.3836639 3.02144896,14.9445829 3.02136418,14.5071017 C3.02136418,14.0689468 3.18939908,13.6302026 3.52580801,13.2947666 C3.86238649,12.9610987 4.30375365,12.7943911 4.74537514,12.7941385 C5.18580971,12.7943911 5.62836379,12.9610987 5.96511184,13.2950192 C6.30152076,13.6302026 6.46921654,14.0689468 6.46879344,14.5064281 C6.46879344,14.9442462 6.30152076,15.3840007 5.96511184,15.7173318 Z M0.810035049,14.0146405 C0.522968361,14.2998116 0.522968361,14.7617939 0.810035049,15.0467966 L6.76281133,20.959698 C6.90634467,21.1022415 7.09438776,21.1734711 7.28251564,21.1734711 C7.47055873,21.1734711 7.65868661,21.1022415 7.80213517,20.959698 L14.2352776,14.5698275 L7.2431775,7.62586458 L0.810035049,14.0146405 L0.810035049,14.0146405 Z"/>
          <path fill="#FFF" d="M9.28905934,21.2914623 L9.34673231,21.2914623 C9.38506918,21.2914623 9.41222912,21.2851997 9.42787682,21.2727863 C9.4436363,21.260373 9.45146015,21.2442692 9.45146015,21.2245868 C9.45146015,21.2049044 9.4439716,21.1889125 9.42888275,21.1764992 C9.41379389,21.163974 9.38819872,21.1578233 9.35187369,21.1578233 L9.28905934,21.1578233 L9.28905934,21.2914623 Z M9.15616564,21.0647792 L9.39512842,21.0647792 C9.46286062,21.0647792 9.51181557,21.0784227 9.54221683,21.1057096 C9.57250631,21.1329966 9.58770694,21.1695656 9.58770694,21.2154166 C9.58770694,21.2513146 9.57608293,21.282292 9.55294668,21.3084607 C9.52981043,21.3347412 9.49337364,21.3537526 9.4436363,21.3654949 C9.46409008,21.3733231 9.47917894,21.3817105 9.4887911,21.3904334 C9.50231518,21.4026231 9.51650989,21.4207398 9.5313752,21.4447837 C9.53226936,21.446573 9.56110584,21.4981274 9.61777288,21.599447 L9.46062523,21.599447 C9.40954666,21.4976801 9.37523348,21.4368436 9.35779747,21.4169375 C9.34036146,21.3970315 9.32292544,21.3870785 9.30537766,21.3870785 C9.30146574,21.3870785 9.29598904,21.3877494 9.28905934,21.3890914 L9.28905934,21.599447 L9.15616564,21.599447 L9.15616564,21.0647792 Z M9.78609746,21.3320572 C9.78609746,21.2206727 9.74675466,21.1255039 9.6679573,21.0466624 C9.58904817,20.967821 9.49404425,20.9284562 9.38272202,20.9284562 C9.27139979,20.9284562 9.17628411,20.967821 9.09748675,21.0466624 C9.01868939,21.1255039 8.97923482,21.2206727 8.97923482,21.3320572 C8.97923482,21.4434417 9.01868939,21.5386105 9.09748675,21.617452 C9.17628411,21.6962934 9.27139979,21.73577 9.38272202,21.73577 C9.49404425,21.73577 9.58904817,21.6962934 9.6679573,21.617452 C9.74675466,21.5386105 9.78609746,21.4434417 9.78609746,21.3320572 Z M9.88300145,21.3320572 C9.88300145,21.4216345 9.86064759,21.505061 9.81593986,21.5823368 C9.77112037,21.6597244 9.7102061,21.7206727 9.63286174,21.7651818 C9.55562914,21.8098027 9.47224924,21.8320572 9.38272202,21.8320572 C9.29364189,21.8320572 9.21048552,21.8098027 9.13314116,21.7651818 C9.05590857,21.7206727 8.99488252,21.6597244 8.9501748,21.5823368 C8.90535531,21.505061 8.88300145,21.4216345 8.88300145,21.3320572 C8.88300145,21.2429273 8.90535531,21.1596126 8.9501748,21.0821131 C8.99488252,21.0046137 9.05590857,20.9435535 9.13314116,20.8989326 C9.21048552,20.8544236 9.29364189,20.8320572 9.38272202,20.8320572 C9.47224924,20.8320572 9.55562914,20.8544236 9.63286174,20.8989326 C9.7102061,20.9435535 9.77112037,21.0046137 9.81593986,21.0821131 C9.86064759,21.1596126 9.88300145,21.2429273 9.88300145,21.3320572 L9.88300145,21.3320572 Z"/>
        </g>
        <path fill="#FFF" fill-rule="nonzero" stroke="#404D57" stroke-width=".84" d="M59.1423335,39.6924834 C59.7093434,39.6924834 60.2255425,39.9099762 60.612121,40.2660295 C61.0059981,40.6288052 61.265087,41.135523 61.3065135,41.7025872 L61.3123335,46.6936834 C61.3123335,51.3161091 59.4389921,55.5004773 56.4099021,58.5292332 C53.3808594,61.5579418 49.1960927,63.4310834 44.5731335,63.4310834 C40.0098107,63.4310834 35.8732929,61.6052865 32.8541389,58.6443056 C29.8289386,55.677395 27.9256432,51.5707221 27.8387576,47.0113001 L27.8357335,41.8624834 C27.8357335,41.2632545 28.078619,40.7207545 28.4713118,40.3280617 C28.8640045,39.9353689 29.4065045,39.6924834 30.0057335,39.6924834 C30.5727434,39.6924834 31.0889425,39.9099762 31.475521,40.2660295 C31.8693981,40.6288052 32.128487,41.135523 32.1699135,41.7025872 L32.1757335,46.6936834 C32.1757335,50.1174439 33.5631933,53.2167998 35.8066052,55.4602117 C38.0500171,57.7036236 41.149373,59.0910834 44.5731335,59.0910834 C47.9438676,59.0910834 51.0000129,57.7469426 53.2347854,55.5653825 C55.4750124,53.3784979 56.8899203,50.3501383 56.9687312,47.000345 L56.9723335,41.8624834 C56.9723335,41.2632545 57.215219,40.7207545 57.6079118,40.3280617 C58.0006045,39.9353689 58.5431045,39.6924834 59.1423335,39.6924834 Z"/>
        <line x1="70.491" x2="11.363" y1="96.005" y2="96.005" stroke="#404D57" stroke-linecap="round" stroke-linejoin="round"/>
        <polyline stroke="#404D57" stroke-linecap="round" stroke-linejoin="round" points="12.513 81.358 13.405 65.183 13.633 61.047 15.278 31.221 73.866 31.221 73.866 53.639"/>
        <polyline stroke="#404D57" stroke-linecap="round" stroke-linejoin="round" points="11.363 96.005 8.681 47.522 5.848 35.984 15.278 31.221"/>
        <polyline stroke="#404D57" stroke-linecap="round" stroke-linejoin="round" points="60.573 96.005 76.573 96.005 83.298 35.984 73.866 31.221"/>
        <path stroke="#404D57" stroke-linecap="round" stroke-linejoin="round" d="M14.8749335,26.1394834 C16.7577335,23.5510834 16.6911335,18.9790834 14.4429335,14.7364834 C11.6511335,9.45348341 6.55173348,6.67068341 3.05073348,8.52648341 C-0.448466518,10.3750834 -1.02266652,16.1602834 1.77093348,21.4324834 L8.70093348,34.5328834"/>
        <path stroke="#404D57" stroke-linecap="round" stroke-linejoin="round" d="M26.4435335,31.2100834 C26.1339335,30.4090834 25.7685335,29.6044834 25.3509335,28.8106834 C24.0315335,26.3158834 22.3377335,24.2296834 20.4855335,22.6726834 L16.1727335,22.3792834"/>
        <line x1="78.955" x2="74.887" y1="23.81" y2="21.96" stroke="#404D57" stroke-linecap="round" stroke-linejoin="round"/>
      </g>
      <path stroke="#979797" stroke-linecap="round" stroke-linejoin="round" stroke-width=".9" d="M9,96.0890834 L11,96.0890834 M0,96.0890834 L7,96.0890834 M82,96.0890834 L95,96.0890834"/>
      <line x1="52.359" x2="17.705" y1="91.239" y2="91.161" stroke="#BABABA" stroke-linecap="round" stroke-linejoin="round" stroke-width=".792"/>
      <line x1="29.5" x2="17.705" y1="86.139" y2="86.161" stroke="#BABABA" stroke-linecap="round" stroke-linejoin="round" stroke-width=".792"/>
      <path fill="#D1D1D1" d="M4.84960938,14.8384773 C4.84960938,16.0603927 9.57863411,27.6794787 11.7450913,29.9682153 C13.1893961,31.4940397 15.4878901,31.3072454 18.6405732,29.4078323 C16.0261849,28.5228774 14.4093271,27.7293533 13.79,27.0272602 C6.57359745,18.8464675 4.84960938,14.1167742 4.84960938,14.8384773 Z"/>
      <polygon fill="#FFF" points="75.84 29.408 77.588 24.028 79.623 24.933 79.396 30.988"/>
    </g>
    <g transform="translate(65.041 57.612)">
      <ellipse cx="19.814" cy="18.068" fill="#F5002E" stroke="#31383E" rx="16.145" ry="16.07"/>
      <path fill="#D1D1D1" d="M24.0893229,4.85647583 C27.8715241,10.3659707 27.1977422,17.7660336 22.4856773,22.4691165 C17.7736123,27.1721993 10.359444,27.8446694 4.83946466,24.06964 C7.99766939,28.6713495 13.6008421,30.9509281 19.0647024,29.8569947 C24.5285627,28.7630612 28.7916084,24.5081417 29.8876489,19.0546788 C30.9836894,13.601216 28.6997893,8.00869196 24.0893229,4.85647583 Z" opacity=".439" style="mix-blend-mode:multiply" transform="rotate(147 17.5 17.492)"/>
      <path fill="#FFF" fill-rule="nonzero" d="M19.8902887 20.5526691C20.5272054 20.5526691 21.0435285 20.1978914 21.0435285 19.760251L21.0435285 10.251233C21.0435285 9.8135925 20.5272054 9.45881481 19.8902887 9.45881481 19.253372 9.45881481 18.737049 9.8135925 18.737049 10.251233L18.737049 19.760251C18.737049 20.1978914 19.253372 20.5526691 19.8902887 20.5526691zM19.8902886 23.2330633C18.9349135 23.2330633 18.160429 24.0039309 18.160429 24.9548443 18.160429 25.9057578 18.9349135 26.6766254 19.8902886 26.6766254 20.8456637 26.6766254 21.6201482 25.9057578 21.6201482 24.9548443 21.6201482 24.0039309 20.8456637 23.2330633 19.8902886 23.2330633z"/>
      <path fill="#EBEBEB" fill-rule="nonzero" d="M19.3569493,44.0100913 C25.4872728,44.0100913 30.456882,44.9094368 30.456882,46.0188358 C30.456882,47.1282348 25.4872728,48.0275804 19.3569493,48.0275804 C13.2266258,48.0275804 8.25701667,47.1282348 8.25701667,46.0188358 C8.25701667,44.9094368 13.2266258,44.0100913 19.3569493,44.0100913 Z"/>
    </g>
  </g>
</svg>
