<?xml version="1.0" encoding="UTF-8"?>
<svg width="26px" height="24px" viewBox="0 0 26 24" version="1.1" xmlns="http://www.w3.org/2000/svg" xmlns:xlink="http://www.w3.org/1999/xlink">
    <title>Cart Copy 2</title>
    <g id="Page-1" stroke="none" stroke-width="1" fill="none" fill-rule="evenodd" opacity="0.877673921" stroke-linecap="round" stroke-linejoin="round">
        <g id="סל-2-קופון-לארוחה" transform="translate(-268.000000, -79.000000)" stroke="#FFFFFF" stroke-width="1.08">
            <g id="Group-18" transform="translate(98.000000, 79.000000)">
                <g id="Cart-Copy-2" transform="translate(171.000000, 0.000000)">
                    <g id="Group" transform="translate(0.400000, 4.800000)">
                        <path d="M20.272693,10.4350365 L22.1155006,6.67328906 C22.2988255,6.46520412 22.4,6.19715492 22.4,5.91954314 L22.4,2.60128316 C22.4,2.12861692 21.6,0 18.9858088,0 C16.3716176,0 15.6414537,2.09872286 15.6414313,2.53728312 L15.6414313,4.33576642 L11.6705124,4.33576642 C11.0632761,4.33576521 10.5710138,4.82920457 10.5710138,5.43789287 C10.5710138,5.80350174 10.7518883,6.14531391 11.0538606,6.35036496 C11.0538606,6.35036496 11.0538606,6.35036496 11.0538606,6.35036496 C11.8781946,7.01140903 12.0105673,8.21554586 11.3495232,9.03987985 C10.7509569,9.78630297 9.69301778,9.9757954 8.87257844,9.48354707 L8.4,9.2 C7.1810852,8.46865112 6.49953679,7.09456066 6.65486795,5.68158625 L6.90872369,3.37238012 C6.95992451,2.90663039 7.23857951,2.49651407 7.6527307,2.27737226 C8.06007937,2.06182991 8.31487759,1.63873786 8.31487759,1.1778784 L8.31487759,1.11678832 C8.31487759,0.669316736 7.9521302,0.306569343 7.50465861,0.306569343 L5.54877589,0.306569343 L5.54877589,0.306569343 L5.54877589,2.1459854 L3.36549372,6.75928558 C2.93958408,7.50317535 2.99044518,8.4286731 3.4952919,9.12116788 C3.4952919,9.12116788 3.4952919,9.12116788 3.4952919,9.12116788 C2.37045607,8.87956881 1.23958584,9.50384291 0.844627292,10.5844138 C0.526643831,11.4544419 0.245095595,12.1929685 0,12.8 L21.9329567,12.8" id="Path"></path>
                        <path d="M13.6,12 C13.762991,10.3283851 14.3950322,9.29802344 15.4961236,8.90891493 C17.1477608,8.32525217 20.7382763,10.1540622 21.6,12.8" id="Path-3"></path>
                        <path d="M15.6,4 C15.6,5.67333333 16.3333333,6.51 17.8,6.51 C19.2666667,6.51 21.0666667,6.51666667 23.2,6.53" id="Path-2"></path>
                        <path d="M1.6,12.8 C1.6,14.5673112 3.0326888,16 4.8,16 C6.5673112,16 8,14.5673112 8,12.8" id="Path"></path>
                        <path d="M14.4,12.8 C14.4,14.5673112 15.8326888,16 17.6,16 C19.3673112,16 20.8,14.5673112 20.8,12.8" id="Path-Copy"></path>
                        <path d="M3.84,9.2 C4.64,9.48888889 5.17333333,10.0222222 5.44,10.8" id="Path-4"></path>
                        <path d="M8.48386466,1.11763942 C8.60254738,1.16049707 8.7153611,1.20873463 8.82230583,1.2623521" id="Path" transform="translate(8.653085, 1.189996) rotate(156.000000) translate(-8.653085, -1.189996) "></path>
                    </g>
                </g>
            </g>
        </g>
    </g>
</svg>