<svg xmlns="http://www.w3.org/2000/svg" viewBox="0 0 34 29">
  <g fill="none" fill-rule="evenodd" transform="translate(4.274 .001)">
    <path fill="#017AFF" d="M17.2957617,0 C17.4521547,0 17.5716242,0.0262738116 17.671515,0.0809847939 C17.7714467,0.135718197 17.8535905,0.219904241 17.928401,0.346177529 C18.2114578,0.823628778 18.5015094,1.30548137 18.7869196,1.77821849 L18.8937081,1.95504122 L18.9999433,2.130881 L19.0107807,2.14881781 C19.3371077,2.68876587 19.6743548,3.24702299 20.0023535,3.79841568 C20.0721769,3.91628341 20.117586,4.0580884 20.1285475,4.18836109 L20.1299905,4.20882946 L20.1313601,4.43784332 C20.1327101,5.01121796 20.1339147,5.60416961 20.0839175,6.18038255 C20.0423561,6.6585057 19.820126,7.11183826 19.3758854,7.60451332 C19.3014258,7.68713664 19.252427,7.80641655 19.2522505,7.9086564 C19.2510573,8.6449869 19.25013,9.38395675 19.2494136,10.1238663 L19.248915,10.6789481 L19.2484905,11.2342252 L19.2480305,11.9746672 L19.2477218,12.3588886 C19.013957,12.3838233 18.7826422,12.4161405 18.5542072,12.4555531 L18.4686799,12.4706648 L18.3349573,12.4953792 L18.3350136,8.30632723 C17.9525155,8.42175977 17.5876358,8.47936672 17.2483355,8.47936672 C16.3486858,8.47936672 15.590029,8.09364991 14.9376002,7.28798827 L14.9178621,7.2634457 L14.8981266,7.23856516 L14.8787948,7.21385819 C14.2462732,8.06959486 13.4589821,8.48091799 12.4734118,8.48091797 C11.5262656,8.4803865 10.7561922,8.09158886 10.1266073,7.28362853 L10.1075719,7.25901655 L10.088548,7.23404735 L10.0698967,7.20919926 C9.43357009,8.06808366 8.64488201,8.48077125 7.66137069,8.48077125 C6.71306773,8.48051613 5.94292017,8.09119955 5.31395691,7.28196708 L5.2949406,7.25731632 L5.27593674,7.23230832 L5.25738243,7.20752498 C4.83498088,7.78465119 4.33498833,8.15711633 3.72996751,8.34997667 C3.45348842,8.4382446 3.16600203,8.48295143 2.87520832,8.48295143 C2.56554903,8.48295143 2.24995594,8.43460787 1.91331381,8.33452608 L1.87582174,8.3231928 L1.83830361,8.31147865 L1.80145993,8.29961645 L1.79898211,18.7492625 L5.14735742,18.7492625 L5.14735742,10.7059223 L15.0006885,10.7059223 L15.000521,13.7549848 C14.7539074,13.9007108 14.5147259,14.0560985 14.2837227,14.2204842 L14.2209251,14.2655393 L14.0890606,14.3616848 L14.0892493,11.5549452 L6.05990444,11.5549452 L6.05990444,18.7507897 L10.8544718,18.7506743 C10.779169,18.9731818 10.7128535,19.1993264 10.6559504,19.4285978 L10.6373319,19.5051367 L10.6131777,19.6086415 L10.203404,19.6086415 L10.0701603,19.6077609 L7.98693738,19.6078866 L5.90362954,19.6078866 C4.42185085,19.6078866 2.94051233,19.6077608 1.45870732,19.6074883 C1.23927469,19.6074072 1.10769,19.5663095 1.02358572,19.4873525 C0.945620642,19.4141591 0.901844531,19.3010307 0.89568166,19.1173109 L0.895202787,19.0993102 L0.894912732,16.8814773 L0.894919267,16.5413775 L0.894944728,15.8591529 C0.895006341,14.6624654 0.895166427,13.4547 0.895566783,12.2443778 L0.895728456,11.7904037 L0.895894595,11.3817037 L0.896223779,10.6900089 C0.896705025,9.76781938 0.897360802,8.84626355 0.898253685,7.92921211 C0.898253685,7.7924863 0.854962175,7.68540901 0.757314344,7.58196755 C0.286680758,7.08276538 0.0341848516,6.48697401 0.0075472963,5.80874676 L0.00649207502,5.77786153 L0.00575156017,5.74693089 L0.00532759786,5.71622722 L0.00398527601,5.5762135 C-0.000277697179,5.14016231 -0.0044841912,4.68919514 0.0105149337,4.24759047 C0.0158102276,4.09342188 0.0648164787,3.92532862 0.140904664,3.79758948 C0.408558488,3.34757763 0.682132102,2.89310753 0.9521061,2.44578532 L1.0675611,2.25454726 L1.1823921,2.06441514 L1.23044993,1.98484727 L1.30513811,1.86119706 C1.61308516,1.35138954 1.92950282,0.827559305 2.23812642,0.309781395 C2.30439134,0.198761601 2.37899652,0.123872169 2.46902344,0.0747827188 C2.55914402,0.0256421989 2.66637759,0.00140467737 2.80431786,0.00140489239 C3.90398541,0.00327523813 4.99368648,0.00402513666 5.95267437,0.00430783978 L6.03228487,0.0043303309 L6.10920437,0.00435023194 L6.22799345,0.00437752645 L6.28681702,0.00438953697 L6.51818628,0.00442753366 L7.11896016,0.00446531918 L8.09761207,0.00438670806 L9.07626935,0.00421376254 L10.0383432,0.00404081406 L11.0004148,0.00396220147 C11.3840723,0.00396220147 11.7636424,0.00409055082 12.1420362,0.00425557333 L12.3689546,0.00435825421 L12.595726,0.00446533396 L13.389307,0.00482955804 L14.1828902,0.00498939992 L14.3053003,0.00498445119 L14.3356019,0.0049816634 L14.5446164,0.00494460939 L14.666004,0.00490802676 C15.6288217,0.0045718304 16.4164361,0.00318222137 17.1550382,0.000523725292 L17.2031397,0.00034854391 L17.2495274,0 L17.2957617,0 Z M9.62965796,4.56286913 L5.70272759,4.57392119 L5.70256063,4.64766452 L5.70210836,4.72124383 C5.70172826,4.77017598 5.70120729,4.81883822 5.70064343,4.86705976 L5.70064343,4.86705976 L5.69977872,4.93896158 L5.69937422,4.97222943 L5.69844624,5.04404132 L5.69750928,5.12207687 C5.69490128,5.35520456 5.69448555,5.57996897 5.7061509,5.80845348 C5.73073442,6.28434573 5.92057979,6.70563214 6.23193758,7.02470586 C6.54274887,7.34321955 6.97419179,7.55929857 7.47990461,7.62752588 C7.55225331,7.63718041 7.6264432,7.64212509 7.70043001,7.64212509 C8.09378709,7.64212509 8.48025735,7.5043081 8.80163529,7.27386226 C9.12653088,7.04089407 9.38535157,6.71292102 9.51815216,6.33276023 C9.65774675,5.93370627 9.64453659,5.52833074 9.63217981,5.12467251 C9.62779204,4.98424334 9.62344733,4.84007535 9.62556,4.6973996 L9.62556,4.6973996 L9.62688555,4.63607744 L9.62965796,4.56286913 Z M4.85140446,4.56708274 L0.890446941,4.57815576 L0.890176888,4.67719981 L0.889791112,4.73689925 C0.889182648,4.81664363 0.888223786,4.89706355 0.887226254,4.97929955 C0.884151223,5.25457156 0.880952411,5.53916823 0.893657465,5.81853608 C0.915402013,6.29858892 1.11830143,6.72995132 1.44345806,7.05277963 C1.76765683,7.37465694 2.21327369,7.58837283 2.72046107,7.63479047 C2.77388458,7.63963857 2.82843394,7.64212509 2.88277926,7.64212509 C3.32348365,7.64212509 3.74206955,7.48659202 4.0722316,7.22924201 C4.40381931,6.97078074 4.64662136,6.60936345 4.73300203,6.19710864 C4.8084261,5.83777739 4.81900406,5.462954 4.83007436,5.07813776 C4.83336116,4.96641432 4.83672347,4.85234903 4.84193321,4.73845793 L4.84193321,4.73845793 L4.84621516,4.6531003 L4.85140446,4.56708274 Z M19.2804919,4.56517509 L15.3264306,4.57622715 L15.3262534,4.65410786 L15.3257645,4.73191088 C15.3251414,4.80956276 15.324148,4.88665433 15.3230742,4.96222315 C15.3191042,5.24350614 15.3154904,5.50921795 15.3298442,5.78124573 C15.3564683,6.28052093 15.5581102,6.72152812 15.8832056,7.04911535 C16.2063555,7.37474218 16.6512199,7.58764877 17.1640203,7.63451636 C17.2165451,7.6393967 17.2703051,7.64174776 17.3232306,7.64174776 C17.7608014,7.64174776 18.1826746,7.47976816 18.5161725,7.21650623 C18.851361,6.95190979 19.0979699,6.58446118 19.1808412,6.17200657 C19.2519909,5.81849437 19.2584864,5.45052487 19.2652255,5.08054206 C19.2670099,4.9706601 19.268912,4.858136 19.2726402,4.74580743 L19.2726402,4.74580743 L19.2758056,4.66163516 L19.2804919,4.56517509 Z M14.4076562,4.56785838 L10.5433333,4.5789314 L10.5428663,4.66491333 L10.5416002,4.7512311 C10.5405365,4.80874235 10.539079,4.86612762 10.5375014,4.9230382 L10.5375014,4.9230382 L10.535085,5.00781829 L10.5341683,5.03963911 L10.5326396,5.09328076 L10.5311573,5.14680381 C10.5234381,5.43270833 10.5194067,5.72550622 10.5530826,6.01182938 C10.6056998,6.45913231 10.837755,6.86002873 11.175285,7.15216797 C11.5061495,7.43853814 11.9387458,7.62068646 12.40405,7.63782501 L12.40405,7.63782501 L12.4287886,7.63857754 L12.47695,7.63906284 L12.5020622,7.63889849 L12.5273714,7.63841038 C12.9908166,7.62649356 13.4232425,7.45168391 13.7563701,7.1726151 C14.1026665,6.88251444 14.3420568,6.4794813 14.3975309,6.02730202 C14.4369429,5.70666359 14.4273864,5.39060441 14.4170571,5.04366526 C14.4139175,4.94276237 14.4107887,4.83945168 14.4090502,4.73559436 L14.4090502,4.73559436 L14.4080287,4.65762708 L14.4076562,4.56785838 Z M4.73132184,0.850679203 L4.62349356,0.850679203 L4.564064,0.850713356 L4.50115515,0.850747126 C4.0581284,0.851031101 3.56002293,0.852357935 3.06239343,0.857463826 C2.97694922,0.858419852 2.89502914,0.938975693 2.85529192,1.0035086 C2.49414871,1.5909844 2.13191522,2.18872228 1.77744569,2.77519153 L1.77744569,2.77519153 L1.64488448,2.99457435 L1.53701359,3.17314978 L1.32928483,3.51726916 L1.32605382,3.5227904 C1.31109165,3.54869726 1.29745093,3.57707367 1.27251453,3.6286953 C1.26749548,3.63903313 1.26165353,3.65106515 1.2492955,3.67611128 L1.2492955,3.67611128 L1.25770845,3.69549231 L1.26351459,3.69578329 C1.28301775,3.6967789 1.30449865,3.69805453 1.34248195,3.70031272 C1.37172624,3.70206606 1.39997426,3.70376325 1.42791271,3.7048551 L1.42791271,3.7048551 L1.45584607,3.70572191 L1.48459474,3.70604842 L1.6619768,3.70617367 L1.99028564,3.70637786 L2.48344737,3.70666981 L2.97665855,3.70680253 L3.28056524,3.70674916 C3.58450282,3.7066362 3.88863763,3.70632579 4.19391109,3.7056499 C4.25747882,3.70564955 4.32664773,3.7110986 4.41495246,3.71831578 C4.48499387,3.72410875 4.55691647,3.73011364 4.62607693,3.73011364 C4.69903143,3.73011364 4.80802249,3.72823482 4.89156668,3.6672275 C5.0072355,3.58268103 5.04994153,3.43554114 5.0883379,3.28766047 L5.0883379,3.28766047 L5.09668824,3.25514269 L5.10911383,3.20638731 L5.11662104,3.17693342 C5.13158321,3.11852278 5.14636136,3.06317855 5.16328458,3.01240516 C5.31315492,2.56733359 5.4581354,2.12963373 5.60913299,1.67312395 L5.60913299,1.67312395 L5.6504771,1.54811837 L5.67289881,1.48032349 L5.72317911,1.32810364 L5.75684927,1.22628697 L5.75684927,1.22628697 L5.79063098,1.1242034 L5.82452383,1.02183443 L5.88106989,0.85117079 L5.72752359,0.851160702 L5.61883142,0.851120585 L5.51013245,0.851065334 C5.43758216,0.851024513 5.36478289,0.850976777 5.29125223,0.85092847 C5.10357242,0.850803469 4.91700142,0.850679203 4.73132184,0.850679203 L4.73132184,0.850679203 Z M15.488024,0.850553421 L15.2836203,0.850553421 L14.783347,0.850679199 L14.265502,0.850804978 L14.2745751,0.8798756 L14.2784007,0.892293642 L14.2784007,0.892293642 L14.2820998,0.904280178 C14.2871405,0.920609028 14.2918753,0.935948748 14.2963052,0.950557599 C14.3111153,0.998936714 14.3235952,1.03883403 14.3365201,1.07857763 C14.3847722,1.22395285 14.4333024,1.36948366 14.4818447,1.51505103 C14.505836,1.58699551 14.5298263,1.65893697 14.5537902,1.73088073 C14.7476762,2.3115313 14.9480389,2.91187669 15.1374799,3.504396 C15.160191,3.5754301 15.1892563,3.6294294 15.2381689,3.66332173 C15.2864432,3.69677176 15.3511726,3.70877357 15.433834,3.71012771 C15.976017,3.70659379 16.5152024,3.70569912 16.9875939,3.70554896 L16.9875939,3.70554896 L17.0462999,3.70553392 L17.153113,3.70552377 L17.7346539,3.70577535 L18.3163093,3.70590112 L18.6855152,3.70577547 L18.7116069,3.7053353 L18.7370336,3.70414172 C18.753883,3.70313935 18.7705625,3.70176674 18.7872732,3.70028231 L18.7872732,3.70028231 L18.8132879,3.697916 L18.8411464,3.69541641 L18.87441,3.69267061 L18.8763811,3.66377633 L18.8765726,3.66216341 C18.877085,3.65729729 18.8773594,3.64786354 18.871359,3.63271948 L18.871359,3.63271948 L18.696026,3.34056849 L18.5868384,3.15860114 L18.4551398,2.93916652 C18.0590066,2.27925493 17.6539584,1.60578145 17.2513851,0.94325808 C17.2362018,0.918219694 17.2102104,0.896809064 17.1816749,0.880793443 C17.1548933,0.865762203 17.125077,0.854661321 17.097092,0.854513496 C16.5480333,0.851462705 16.0030211,0.850712643 15.488024,0.850553421 L15.488024,0.850553421 Z M12.158552,0.849937972 L12.0208634,0.849903561 L11.7971142,0.850000475 L11.5732033,0.850301665 L11.349338,0.850474769 L11.1255392,0.850553415 L10.5226012,0.850553422 L10.5226012,3.6913107 L14.245659,3.67142774 L14.2452471,3.66609402 C14.2448552,3.6606921 14.2445102,3.6549635 14.2440944,3.64780948 C14.2436406,3.63693037 14.2430354,3.62488676 14.2370208,3.60050959 L14.2370208,3.60050959 L14.1066678,3.20646721 L14.0459873,3.02307344 L13.9713767,2.7977599 C13.7717613,2.19535504 13.5670068,1.58129926 13.3593008,0.977175682 C13.3483152,0.945356477 13.3188294,0.921157288 13.2879242,0.901996432 C13.2434608,0.874429619 13.1910306,0.856419066 13.151461,0.855908194 C12.8006711,0.851382667 12.4590364,0.850193803 12.158552,0.849937972 L12.158552,0.849937972 Z M6.95573654,0.846844471 C6.90090016,0.846938666 6.86107725,0.859432827 6.83344554,0.881494671 C6.78607679,0.91931507 6.77040608,0.975018508 6.75546252,1.02147278 C6.6373139,1.38256779 6.51676087,1.74776894 6.39788008,2.10703536 L6.39788008,2.10703536 L6.33860344,2.2861108 L6.2870638,2.44174166 L6.20817661,2.68076188 L6.16060224,2.82413883 L6.11294848,2.96761434 L6.06514382,3.11147383 L6.02689093,3.22658556 L5.98113433,3.36432681 L5.8730707,3.68940305 L9.62389756,3.68940305 L9.61304158,0.864946533 L9.59918478,0.862804145 C9.59196123,0.861643836 9.58402791,0.860314602 9.57418296,0.858657812 C9.55907284,0.856037684 9.54456626,0.853529973 9.51353776,0.851704863 L9.51353776,0.851704863 L9.24767521,0.851580606 L8.796337,0.851832159 L8.34481399,0.851957955 L8.24468119,0.851943861 L8.19127021,0.851923294 L8.13143668,0.85188786 C7.76997037,0.851631663 7.36486525,0.85055717 6.95573654,0.846844471 Z"/>
    <g stroke="#017AFF" stroke-linecap="round" stroke-linejoin="round" transform="translate(13 14.999)">
      <path fill="#FFF" d="M5.5,13 C9.16666667,10.0250441 11,7.52504408 11,5.5 C11,2.46243388 8.53756612,0 5.5,0 C2.46243388,0 0,2.46243388 0,5.5 C0,7.52504408 1.83333333,10.0250441 5.5,13 Z"/>
      <circle cx="5.5" cy="5.5" r="2.5"/>
    </g>
  </g>
</svg>
