<?xml version="1.0" encoding="UTF-8"?>
<svg width="19px" height="19px" viewBox="0 0 19 19" version="1.1" xmlns="http://www.w3.org/2000/svg" xmlns:xlink="http://www.w3.org/1999/xlink">
    <title>icons/navigation</title>
    <g id="Page-1" stroke="none" stroke-width="1" fill="none" fill-rule="evenodd" fill-opacity="0">
        <g id="איסוף-עצמי--סניף-אחר---רשימה-copy" transform="translate(-532.000000, -454.000000)" fill="#000000" stroke="#000000">
            <g id="Group-3" transform="translate(384.000000, 99.000000)">
                <g id="branch-details-copy-4" transform="translate(83.500000, 288.000000)">
                    <g id="Group-2" transform="translate(0.000000, 19.000000)">
                        <g id="Group" transform="translate(0.000000, 39.000000)">
                            <g id="icons/navigation" transform="translate(65.298780, 9.507143)">
                                <path d="M14.1743875,3.650175 C14.1139375,3.5865875 14.01965,3.5678125 13.941375,3.606 L3.756075,8.3900875 C3.675225,8.428925 3.6276875,8.5171125 3.639825,8.6087125 C3.6509375,8.7004625 3.7191375,8.772475 3.8085125,8.78785 L8.3765125,9.5714125 L8.899875,13.99025 C8.9104625,14.0825 8.97815,14.156125 9.0677875,14.1716625 C9.07915,14.1737625 9.0913,14.1747375 9.1026625,14.1747375 C9.1796375,14.1747375 9.251975,14.1308875 9.28685,14.0577375 L14.211075,3.88985 C14.2490375,3.8097375 14.234575,3.7145875 14.1743875,3.650175 L14.1743875,3.650175 Z" id="AST:nev-icon-reg-copy"></path>
                            </g>
                        </g>
                    </g>
                </g>
            </g>
        </g>
    </g>
</svg>