<svg xmlns="http://www.w3.org/2000/svg" viewBox="0 0 20 20">
  <path fill="#31383E" d="M10,2 C12.2055,2 14.2054726,2.89729633 15.6540881,4.34591188 C17.1027037,5.79452743 18,7.7945 18,10 C18,12.2055 17.1027037,14.2054726 15.6540881,15.6540881 C14.2054726,17.1027037 12.2055,18 10,18 C7.7945,18 5.79452743,17.1027037 4.34591188,15.6540881 C2.89729633,14.2054726 2,12.2055 2,10 C2,7.7945 2.89729633,5.79452743 4.34591188,4.34591188 C5.79452743,2.89729633 7.7945,2 10,2 Z M12.9441922,13.3192603 C12.5566602,14.5953048 11.941224,15.8171331 11.199792,17.0947688 C13.0971513,16.7737405 14.7414609,15.7129898 15.7803086,14.0518369 C14.9005105,13.7037961 13.9951751,13.4262611 12.9441922,13.3192603 Z M6.9305542,13.2445868 C6.00377354,13.4262685 5.09942423,13.7028013 4.17193758,14.2158257 C5.2574923,15.7129652 6.90181346,16.7737369 8.90310404,16.9225025 C8.05776248,15.8171331 7.44232627,14.5953048 6.9305542,13.2445868 Z M12.0459498,13.0863645 C10.6877622,12.9108511 9.31120701,12.9108525 7.86490535,13.2264194 C8.28473402,14.5432478 8.9697257,15.7914996 10.0821086,16.8973515 C11.0292757,15.79147 11.7152719,14.5432294 12.0459498,13.0863645 Z M3.61736752,6.67424279 C3.09668895,7.67032354 2.7972973,8.80018381 2.7972973,10 C2.7972973,11.2007973 3.09666653,12.3306161 3.754264,13.3787118 C4.71470263,12.9840661 5.70633395,12.6749323 6.80581392,12.3444006 C6.48251919,10.8002164 6.48252064,9.20683533 6.72030942,7.53556964 C5.70443919,7.33118742 4.71678467,7.02000933 3.61736752,6.67424279 Z M16.2456306,6.62335861 C15.2831534,7.02002808 14.2945176,7.33017989 13.194189,7.66270785 C13.5174777,9.2058591 13.5164639,10.7992098 13.2777645,12.4705317 C14.2936389,12.673908 15.2853298,12.9830592 16.3826325,13.3267707 C16.9033086,12.3306946 17.2027027,11.2008402 17.2027027,10 C17.2027027,8.80020527 16.9033235,7.67036282 16.2456306,6.62335861 Z M12.2819763,7.69052361 C11.5307167,7.79324276 10.7724133,7.86486486 10,7.86486486 C9.22758457,7.86486486 8.46827191,7.79324305 7.59664895,7.77501856 C7.28230419,9.24434994 7.28332556,10.7638538 7.71908146,12.3165649 C9.23163544,12.1091174 10.767351,12.1091174 12.4002922,12.2321616 C12.7156609,10.7638538 12.7166823,9.24434994 12.2819763,7.69052361 Z M9.91792893,3.10260463 C8.96972643,4.20849956 8.28371981,5.45675438 7.95303671,6.91363551 C9.31121853,7.08914811 10.687768,7.08914811 12.1350946,6.77358064 C11.715266,5.4567522 11.0302743,4.20850041 9.91792893,3.10260463 Z M11.0958824,3.0774975 C11.941224,4.18286693 12.5566602,5.40469521 13.0684103,6.75541748 C13.9962167,6.57373482 14.900571,6.29720057 15.8280338,5.78413485 C14.7414609,4.28701024 13.0971513,3.22625947 11.0958824,3.0774975 Z M8.79817143,2.90523282 C6.90181857,3.22626488 5.2574935,4.28703316 4.21959066,5.94812315 C5.09942423,6.29719865 6.00377354,6.57373149 7.05479426,6.68073972 C7.44232571,5.40469706 8.05674955,4.18286616 8.79817143,2.90523282 Z"/>
</svg>
