<svg xmlns="http://www.w3.org/2000/svg" viewBox="0 0 74 68">
  <g fill="none" fill-rule="evenodd" transform="translate(.403)">
    <g transform="translate(14.597)">
      <g fill="#017AFF" transform="translate(13.934 .965)">
        <polygon points="17.066 36.035 25.066 46.035 31.066 41.035 23.066 32.035 18.066 31.035"/>
        <path d="M12.0663508,14.034921 C11.9483657,7.73640853 11.2816991,3.73640853 10.0663508,2.03492099 C8.24332846,-0.517310324 3.97724657,-0.451331263 2.06635082,1.03492099 C0.155455072,2.52117324 -0.933649177,6.03492099 1.06635082,9.03492099 C2.39968416,11.034921 6.06635082,12.7015877 12.0663508,14.034921 Z"/>
      </g>
      <path fill="#DEDCDC" d="M6,29 C8.27431175,36.5459733 10.9409784,42.2126399 14,46 C17.0590216,49.7873601 21.3923549,52.7873601 27,55 L6,55 L6,29 Z" opacity=".334"/>
      <polygon fill="#F5002E" points="34 17 52 17 52 28 37 28"/>
      <path fill="#FFF" fill-rule="nonzero" d="M38.1751382,1.6172088 C41.1997959,3.97725898 42.0693762,8.11177426 39.9975314,10.8704914 C38.7421149,12.5420771 36.9719935,13.8718399 34.8219556,14.9113178 L51.1516776,14.9102637 C52.6554625,14.9102637 53.8929002,16.1076894 53.9934093,17.6312286 L54,17.8317289 L54,26.7376043 C54,28.2878541 52.82522,29.5498735 51.3462415,29.6523504 L51.1516776,29.6590695 L50.05,29.659 L50.0509344,52.2101525 C50.0509344,54.2324479 48.5067926,55.8785803 46.5676769,55.9935817 L46.3506525,56 L7.64946904,56 C5.6826723,56 4.06828781,54.4260925 3.9554833,52.4332453 L3.94918719,52.2101525 L3.949,29.659 L2.84832237,29.6590695 C1.34453746,29.6590695 0.107099784,28.4616438 0.0065907156,26.9381046 L0,26.7376043 L0,17.8317289 C0,16.2814791 1.17477997,15.0194597 2.65375854,14.9169828 L2.84832237,14.9102637 L19.079,14.91 L18.8945584,14.8212271 C16.8274006,13.7953372 15.122339,12.494169 13.9028967,10.8704828 C11.8310584,8.11177426 12.7006386,3.97725898 15.7252964,1.6172088 C18.7404833,-0.735451588 22.8533652,-0.513479618 24.9159608,2.23272492 C25.8389095,3.46159966 26.5034903,5.00584079 26.9509909,6.80163735 C27.396944,5.00584112 28.0615237,3.46160151 28.9844658,2.23273551 L29.1610352,2.00971876 C31.2747158,-0.523824795 35.2437064,-0.670099911 38.1751382,1.6172088 Z M26.132,17.04 L2.84832237,17.0400171 C2.4457684,17.0400171 2.11841083,17.3363837 2.06221816,17.7156692 L2.05369128,17.8317289 L2.05369128,26.7376043 C2.05369128,27.131339 2.34445303,27.4634997 2.73000804,27.5206386 L2.84832237,27.5293161 L26.6152931,27.5293161 C27.1824043,27.5293161 27.6421388,28.0060776 27.6421388,28.5941928 C27.6421388,29.1370683 27.2504124,29.5850627 26.7440985,29.6507726 L26.6152931,29.6590695 L6.002,29.659 L6.00287847,52.2101525 C6.00287847,53.0691186 6.65245145,53.7817405 7.49028225,53.8626062 L7.64946904,53.8702466 L46.3506525,53.8702466 C47.2102135,53.8702466 47.9103489,53.2081521 47.9897435,52.3693751 L47.9972431,52.2101525 L47.997,29.659 L33.8109954,29.6590695 C33.2438843,29.6590695 32.7841498,29.182308 32.7841498,28.5941928 C32.7841498,28.0513173 33.1758762,27.6033229 33.6821901,27.537613 L33.8109954,27.5293161 L51.1516776,27.5293161 C51.5542316,27.5293161 51.8815892,27.2329495 51.9377818,26.853664 L51.9463087,26.7376043 L51.9463087,17.8317289 C51.9463087,17.4379942 51.655547,17.1058335 51.269992,17.0486947 L51.1516776,17.0400171 L28.422,17.04 L28.434861,17.3613774 L28.4709674,18.0088808 C28.4931105,18.349308 28.5216257,18.7139913 28.5575801,19.0995244 C28.7471216,21.131947 29.0969315,23.1488791 29.6430519,25.0214058 C30.408337,27.6453997 31.5001239,29.7744194 32.9445991,31.2495983 L37.2826181,31.5161143 C37.574991,31.5341545 37.846021,31.6808122 38.0275283,31.9191945 L45.7491405,42.0603586 C46.1056648,42.528599 46.0217176,43.209202 45.5630234,43.5693054 L39.9655961,47.9636322 C39.5199448,48.313496 38.8863085,48.2294474 38.5399194,47.7745235 L30.8183072,37.6334833 C30.6309277,37.3873918 30.5576594,37.0681661 30.6180376,36.7609194 L31.4191502,32.6801479 C29.7412742,30.93061 28.5200665,28.5276169 27.6773033,25.6379677 C27.0881443,23.6178711 26.7150838,21.4668807 26.5134264,19.3045425 C26.4879629,19.031501 26.4660009,18.7679963 26.4472107,18.5150068 L26.4000259,17.7885622 L26.3698938,17.131079 L26.368,17.073 L26.2198568,17.0544841 L26.132,17.04 Z M33.3724832,33.4083277 L32.7249664,36.7019287 L39.5275168,45.634365 L43.4875168,42.5261778 L36.7006711,33.6125335 L33.3724832,33.4083277 Z M16.9600341,3.31904609 C14.7971437,5.00668486 14.2075334,7.81005252 15.5231473,9.56182797 C16.5940476,10.9877305 18.1820346,12.1573243 20.1572812,13.0813927 C21.5714721,13.7429856 23.0965896,14.2395148 24.6230294,14.5917106 C24.8904089,14.6534031 25.1480373,14.708325 25.3942248,14.756854 L25.5744966,14.7905246 L25.5874199,14.5445687 C25.6592176,12.7797894 25.5908162,10.8827457 25.3071937,9.06155513 L25.1906002,8.38257076 C24.8141395,6.38244225 24.188603,4.73023615 23.2957397,3.54141911 L23.1533616,3.36467689 C21.7757147,1.76880433 19.0575185,1.68244158 16.9600341,3.31904609 Z M30.6046869,3.5414297 C29.7118315,4.73023615 29.086295,6.38244225 28.7098343,8.38257076 C28.3250609,10.4268611 28.2303182,12.6026955 28.3155165,14.6046801 L28.3252349,14.7905246 L28.6929691,14.7192527 L29.2774051,14.5917106 C30.8038449,14.2395148 32.3289624,13.7429856 33.7431533,13.0813927 C35.7183999,12.1573243 37.3063869,10.9877305 38.3772808,9.56183654 C39.6929012,7.81005252 39.1032908,5.00668486 36.9404005,3.31904609 C34.7680058,1.62399142 31.9297713,1.77717076 30.6046869,3.5414297 Z"/>
    </g>
    <path stroke="#FFF" d="M5.48989851,60.5170555 C5.33065322,61.570932 5.75385758,62.3431056 6.35115544,62.9410035 C6.81700801,63.407324 7.3887557,63.7676287 8.02810041,63.9838681 C7.38865491,64.2000633 6.81698089,64.5603445 6.35117811,65.0266152 C5.88550122,65.4927599 5.52564887,66.0648372 5.30968313,66.7045853 C5.09372669,66.0647345 4.73389178,65.492704 4.26825051,65.0265892 C3.80236521,64.5602301 3.23056795,64.1999023 2.59131927,63.9837103 C3.23076107,63.7675157 3.80243209,63.4072367 4.26823315,62.9409691 C4.90844873,62.3001124 5.34864602,61.4590331 5.48989851,60.5170555 Z"/>
    <path fill="#D1D1D1" fill-rule="nonzero" d="M1.26062314,47.4153173 C1.1760268,47.4130201 1.09170807,47.4045982 1.00832906,47.3901178 C0.929550638,47.3761039 0.853255469,47.3506077 0.781881887,47.3144438 C0.701276923,47.2867749 0.624714619,47.2485009 0.554212313,47.2006305 C0.491453845,47.150723 0.428682776,47.100324 0.365873899,47.0499251 C0.254624922,46.927366 0.165124048,46.7867142 0.101229758,46.6340333 C0.030318212,46.4846585 -0.00422885192,46.3206254 0.00041294286,46.1553444 C0.00477821038,45.8216889 0.13535402,45.5020635 0.365873899,45.2607636 L0.554161905,45.1094157 C0.624664211,45.0615452 0.701226515,45.0232712 0.781831479,44.9956023 C0.8531325,44.9593589 0.929488904,44.9340645 1.00832906,44.9205709 C1.16978468,44.8824134 1.33791434,44.8824134 1.49936996,44.9205709 C1.58295905,44.9321752 1.66404961,44.9575371 1.73935179,44.9956275 C1.81956534,45.0233169 1.89572093,45.061593 1.96579896,45.1094409 C2.02855742,45.1598398 2.0925635,45.2103395 2.15532197,45.2607888 C2.38536773,45.5023897 2.51587997,45.8218064 2.52083333,46.1553444 C2.51880589,46.3199516 2.48452006,46.4825646 2.4199157,46.6339829 C2.35602141,46.7866638 2.26652054,46.9273156 2.15527156,47.0498747 C2.09251309,47.1002736 2.02850702,47.1507734 1.96574855,47.2006053 C1.89567052,47.2484531 1.81951493,47.2867292 1.73930138,47.3144186 C1.66392011,47.352436 1.58287621,47.3779918 1.49931955,47.3900926 C1.42051326,47.4045702 1.34071528,47.4130029 1.26062314,47.4153173 Z"/>
  </g>
</svg>
