<svg xmlns="http://www.w3.org/2000/svg" viewBox="0 0 249 134">
  <g fill="none" fill-rule="evenodd" transform="translate(59 21)">
    <path fill="#F43735" fill-rule="nonzero" d="M7.30605678,34.4133573 C6.25387879,37.33373 6.49552553,40.672813 8.253914,43.5328695 L30.2887501,76.3783268 C30.4121288,76.5622369 30.5415348,76.7420311 30.6767575,76.9174166 C34.0759424,81.3261996 40.4055511,82.1446406 44.8143342,78.7454557 L88.611548,44.9794125 C87.9564857,46.5484202 86.8974705,47.9688255 85.4661906,49.0723466 L38.1357751,85.5642383 C33.726992,88.9634232 27.3973833,88.1449822 23.9981984,83.7361991 C23.8629757,83.5608137 23.7335697,83.3810195 23.610191,83.1971094 L1.5753549,50.351652 C-1.5298543,45.3009628 0.0949644681,38.7564078 5.22217034,35.6619715 Z"/>
    <path fill="#C2C2C2" fill-rule="nonzero" d="M15.8410107,48.4215861 L12.9517663,43.4561366 L12.9517663,43.4561366 C12.3967304,42.5533589 12.6871562,41.3835624 13.6036108,40.830452 L22.7358874,35.3629248 C23.652342,34.816172 24.8398607,35.1022636 25.4013505,35.9986837 L27.7763878,39.8513832 C28.5639054,41.1599998 28.1414713,42.8592524 26.8328546,43.6467701 C26.8241262,43.6520228 26.8153689,43.6572272 26.806583,43.6623831 L17.8144653,48.9393136 C17.1285596,49.3418302 16.246219,49.1120979 15.8437023,48.4261922 C15.8428023,48.4246585 15.8419051,48.4231231 15.8410107,48.4215861 Z"/>
    <g transform="translate(32.844 30.947)">
      <path fill="#FFF" fill-rule="nonzero" d="M73.1955357,56.32 L13.1338848,56.32 C7.12808216,56.32 2.25906112,51.4655379 2.25906112,45.4776934 L2.25906112,10.8423066 C2.25906112,4.85446206 7.12808216,5.51608537e-10 13.1338848,5.51608537e-10 L73.1955357,5.51608537e-10 C79.2017008,5.51608537e-10 84.0703593,4.85446206 84.0703593,10.8423066 L84.0703593,45.4776934 C84.0703593,51.4655379 79.2017008,56.32 73.1955357,56.32 Z"/>
      <rect width="81.811" height="13.2" y="14.594" fill="#017AFF"/>
      <g transform="translate(2.26)">
        <path fill="#D1D1D1" fill-rule="nonzero" d="M63.8611964,47.4086265 C71.829366,44.5495422 77.8127332,39.3066667 81.8112982,31.68 L81.8112982,42.24 C82.7204186,51.6266667 76.3803727,56.32 62.7911604,56.32 C54.8292912,56.32 10.3111542,56.32 10.3111542,56.32 C10.3111542,56.32 51.9089421,51.6972531 63.8611964,47.4086265 Z" opacity=".747"/>
        <g stroke="#303030" stroke-linecap="round" stroke-linejoin="round" stroke-width="1.6" transform="translate(62.402 36.96)">
          <line x1="12.447" y1="1.871" y2="1.871"/>
          <line x1="12.447" y1="6.082" y2="6.082"/>
          <line x1="12.447" y1="10.449" y2="10.449"/>
        </g>
        <path stroke="#303030" stroke-linecap="round" stroke-linejoin="round" stroke-width="1.5" d="M70.9364745,56.32 L10.8748236,56.32 C4.86902103,56.32 0,51.4655379 0,45.4776934 L0,10.8423066 C0,4.85446206 4.86902103,0 10.8748236,0 L70.9364745,0 C76.9426396,0 81.8112982,4.85446206 81.8112982,10.8423066 L81.8112982,45.4776934 C81.8112982,51.4655379 76.9426396,56.32 70.9364745,56.32 Z"/>
        <line x1="81.811" y1="12.32" y2="12.32" stroke="#303030" stroke-linecap="round" stroke-linejoin="round" stroke-width="1.5"/>
      </g>
    </g>
    <line x1="116.914" x2="35.103" y1="55.587" y2="55.587" stroke="#303030" stroke-linecap="round" stroke-linejoin="round" stroke-width="1.5"/>
    <line x1="29.609" x2="29.574" y1="86.258" y2="86.222" stroke="#303030" stroke-linecap="round" stroke-linejoin="round"/>
    <path stroke="#303030" stroke-linecap="round" stroke-linejoin="round" stroke-width="1.5" d="M26.3918879,81.0135808 C21.2639175,73.4175966 13.5719618,62.0236204 3.31602082,46.831652 C0.210811624,41.7809628 1.83563039,35.2364078 6.96283626,32.1419715 L58.0543596,1.55329033 C63.1815655,-1.50557778 69.8252689,0.0949927449 72.9665851,5.11011372 L86.2539919,26.6644634"/>
    <g stroke="#303030" stroke-linecap="round" stroke-linejoin="round" stroke-width="1.5" transform="translate(6.963 19.36)">
      <path d="M3.30263011,29.92 C3.30263011,29.92 -3.75768463,22.4312017 2.76769526,17.5382667 L23.6764123,5.12450739"/>
      <line x1="28.368" x2="30.549" y1="2.515" y2="1.004"/>
      <line x1="73.942" x2="68.95" y1="8.067" y2=".272"/>
    </g>
    <line x1="14" x2="124" y1="87.5" y2="87.5" stroke="#979797" stroke-linecap="round" stroke-linejoin="round" stroke-width="2.11"/>
  </g>
</svg>
