<?xml version="1.0" encoding="UTF-8"?>
<svg width="110px" height="54px" viewBox="0 0 110 54" version="1.1" xmlns="http://www.w3.org/2000/svg" xmlns:xlink="http://www.w3.org/1999/xlink">
    <title>Group 2</title>
    <g id="Page-1" stroke="none" stroke-width="1" fill="none" fill-rule="evenodd">
        <g id="משלוח--שגיאה-אין-סניף-שעושה-משלוחים-לכתובת" transform="translate(-591.000000, -240.000000)">
            <g id="Group-3" transform="translate(384.000000, 99.000000)">
                <g id="icons/illustrated" transform="translate(182.000000, 97.000000)">
                    <g id="Group-2" transform="translate(26.000000, 45.000000)">
                        <path d="M33.5993159,31.0361162 C13.8893185,32.6581976 0,36.5603424 0,41.1163191 C0,47.1272101 24.1766235,52 54,52 C83.8233765,52 108,47.1272101 108,41.1163191 C108,36.526168 93.9015319,32.5996943 73.9561698,31" id="Path" stroke="#2F383F" fill="#FFFFFF"></path>
                        <path d="M48.3331433,38.0103189 C42.858144,38.4737708 39,39.5886693 39,40.8903769 C39,42.6077743 45.7157288,44 54,44 C62.2842712,44 69,42.6077743 69,40.8903769 C69,39.5789051 65.0837589,38.4570555 59.5433805,38" id="Path-Copy" fill="#017AFF" transform="translate(54.000000, 41.000000) scale(1, -1) translate(-54.000000, -41.000000) "></path>
                        <g id="Group" transform="translate(39.000000, 0.000000)" stroke="#2F383F">
                            <path d="M11.7177195,35.7951454 C8.85204179,32.8901455 6.17786322,29.8257263 3.96854628,26.3842205 C2.34642703,23.8574508 1.00838139,21.2013006 0.360512993,18.2451432 C-1.44721428,9.99627928 3.73374372,2.16208859 11.6316482,0.383087791 C19.3072208,-1.34582286 26.811722,2.91671916 29.2730558,10.3566691 C30.299791,13.4601236 30.1856413,16.5754716 29.2647164,19.6905146 C28.1368378,23.5056762 26.2275081,26.9099002 23.8336543,30.0626824 C21.319071,33.3746552 18.3630376,36.2566304 15.1451178,38.8812932 C15.1065578,38.9127044 15.0616477,38.9364152 14.9641767,39 C13.8708032,37.9222613 12.7803369,36.8723504 11.7177195,35.7951454 Z" id="Fill-1" stroke-width="1.5" fill="#F5002E"></path>
                            <circle id="Oval" fill="#FFFFFF" cx="14.9999795" cy="15" r="8"></circle>
                        </g>
                    </g>
                </g>
            </g>
        </g>
    </g>
</svg>