<svg xmlns="http://www.w3.org/2000/svg" viewBox="0 0 24 24">
  <path fill="#FFF" fill-rule="evenodd" d="M18.8544851,3.2 C19.1556417,3.2 19.3522207,3.30534431 19.5005572,3.55120552 C19.7531822,3.96990088 20.0004568,4.37435392 20.3935998,5.01371644 L20.4569848,5.1167856 L20.5201347,5.21945677 L20.5264268,5.22968644 C20.7201502,5.54459431 20.8067496,5.68546432 20.9149306,5.86180765 C21.0106899,6.01797359 21.0106899,6.01797359 21.1063432,6.17432086 C21.2355296,6.38562265 21.3540577,6.5803662 21.4666784,6.76648018 C21.544883,6.89561206 21.5931803,7.05092299 21.5991526,7.19767807 L21.5996836,7.22439667 L21.6,7.40121722 L21.6,7.86418196 C21.5992572,8.01876643 21.597566,8.13962396 21.5943437,8.27542444 C21.5878129,8.55065448 21.5752742,8.79740549 21.554638,9.03136859 C21.5132033,9.5010299 21.2899281,9.9376723 20.8649237,10.4008186 C20.8063971,10.4646052 20.7664611,10.5622874 20.7663458,10.6343675 C20.7644371,11.7821185 20.7631786,12.9696583 20.7624298,14.2687798 L20.7618457,15.6077542 L20.7617836,20.9697246 C20.7617836,21.2219312 20.7348894,21.3618722 20.6216841,21.4696513 C20.5123784,21.5737188 20.3716136,21.5992247 20.1173033,21.6 L12.1311611,21.6 L10.0290385,21.5990295 L3.83926068,21.5987262 C3.62636557,21.5986862 3.49726284,21.5721023 3.38861693,21.4686621 C3.28130338,21.3664903 3.25070529,21.2412352 3.24869834,21.0474932 L3.24896363,15.1898772 L3.24939738,13.854851 L3.24957393,13.4539571 C3.25003665,12.4696276 3.25069205,11.5432143 3.25157863,10.6531435 C3.25171282,10.5430985 3.22031476,10.466848 3.13790278,10.3810246 C2.66872278,9.89235188 2.42100815,9.30151872 2.40557511,8.63267605 L2.40518692,8.61254876 L2.40494224,8.59296937 L2.40367463,8.46246553 C2.40212847,8.30054875 2.40115038,8.18680658 2.4005906,8.08975305 L2.4,7.82386462 C2.40055655,7.60331709 2.40364171,7.40743936 2.41010939,7.22156704 C2.41553145,7.06465592 2.46447716,6.89756291 2.5442102,6.76593793 C2.79949548,6.34438654 3.04872131,5.93719879 3.44462423,5.29335417 L3.50836292,5.1897084 L3.57767593,5.07701214 C4.04493236,4.31744811 4.26894059,3.95205981 4.532954,3.5171242 C4.66345593,3.30215951 4.84385316,3.20386668 5.10502678,3.2013773 L5.38401411,3.20178035 C5.74649247,3.20235009 6.11486945,3.20281001 6.49215103,3.20317316 L7.6537155,3.20398536 C7.85276386,3.20407669 8.05478987,3.2041471 8.26016926,3.20419822 L12.3181015,3.20385154 L13.2785777,3.20386377 L14.3988866,3.20430671 L16.5567862,3.20462926 C17.439819,3.20416575 18.1665719,3.20269493 18.8544851,3.2 Z M15.3583837,14.0982761 L8.65852694,14.0982761 C8.43731145,14.0982761 8.25798086,14.2761151 8.25798086,14.4954906 L8.25767766,20.6652646 L15.7589298,20.6652646 L15.7589298,14.4954906 C15.7589298,14.2960583 15.6107227,14.1309537 15.4175735,14.1025829 L15.3583837,14.0982761 Z M7.428,10.063 L7.43978841,10.0782173 L7.34625082,10.1967156 C6.97105572,10.6451271 6.52941664,10.9470108 6.00594817,11.111037 C5.73931841,11.1945339 5.46206303,11.2369295 5.18229176,11.2369295 C4.85647594,11.2369295 4.5255097,11.182233 4.17186435,11.0707923 L4.21733059,11.0840669 L4.21733059,20.6633426 L7.28021602,20.6633426 L7.2804436,14.0305059 C7.2804436,13.584262 7.6237719,13.2175397 8.06276763,13.1759401 L8.14613997,13.1720101 L15.8696301,13.1720101 C16.347741,13.1720101 16.7353264,13.5563718 16.7353264,14.0305059 L16.7350416,20.6614206 L19.7843602,20.6614206 L19.7843602,11.0891922 L19.5986277,11.1380213 C19.3940324,11.1855226 19.1943039,11.2154971 19.0011916,11.2275155 L18.8103494,11.2335327 C17.9884246,11.2335327 17.2878824,10.9003689 16.6890325,10.2307228 L16.552,10.069 L16.5638405,10.0833426 L16.4605541,10.2114353 C15.916527,10.8528717 15.2496389,11.1912754 14.4453912,11.2310702 L14.2827058,11.2350491 C13.4159827,11.2345147 12.6986558,10.895998 12.1130955,10.2144152 L12.003,10.079 L11.900109,10.2076359 C11.3535628,10.8512775 10.6858482,11.1909844 9.88267447,11.2309335 L9.72022937,11.2349278 C8.85245906,11.2346309 8.13475613,10.895688 7.54969281,10.2130608 L7.428,10.063 Z M6.995,7.589 L3.35615651,7.58922006 L3.35618408,7.63295661 L3.35590955,7.67489406 L3.35504848,7.76773722 L3.35434227,7.83243712 L3.35377294,7.8813876 L3.35300671,7.94629735 L3.35247762,7.99259787 C3.34908757,8.2984781 3.35027661,8.48872329 3.35934267,8.68389927 C3.37872016,9.10287221 3.55674798,9.48925751 3.85965562,9.78464782 C4.16460006,10.0820244 4.57885221,10.2701761 5.03970099,10.3115883 C5.08874214,10.3160437 5.13920975,10.3183064 5.18938885,10.3183064 C5.58630625,10.3183064 5.97510924,10.1837397 6.28782173,9.94428546 C6.59877567,9.70617782 6.81327104,9.38063291 6.88933804,9.02380291 C6.94120343,8.78075971 6.9626448,8.53414574 6.97536788,8.14080774 L6.97624348,8.11325255 L6.97788231,8.05939629 L6.97947738,8.00522487 C6.98384477,7.85657406 6.98605194,7.78966188 6.9897401,7.7054107 C6.99170517,7.66250114 6.99288511,7.63780546 6.99418315,7.61366109 L6.995,7.589 Z M11.527,7.585 L7.91850558,7.58537604 L7.91860029,7.66979974 C7.91838178,7.69690314 7.91810337,7.72440816 7.9176798,7.76138899 L7.91692494,7.82510134 L7.9163166,7.8732549 L7.91597375,7.90026092 L7.91486081,7.98512889 C7.91093262,8.29663021 7.91219272,8.47894277 7.92239862,8.67392516 C7.9443665,9.09266321 8.11241669,9.46921811 8.40042804,9.75916099 C8.69056118,10.0512399 9.09099529,10.2436693 9.5538831,10.3050094 C9.62031803,10.313824 9.6889105,10.3183064 9.75737922,10.3183064 C10.110287,10.3183064 10.4688704,10.1993215 10.7738584,9.98449277 C11.0787971,9.76969875 11.3111887,9.47246281 11.4292335,9.14062151 C11.5234556,8.87571853 11.5475695,8.61086867 11.5367977,8.18193185 L11.5358813,8.14730615 C11.5351518,8.121514 11.5351518,8.121514 11.5343767,8.09570858 L11.5338453,8.07834839 L11.5327395,8.04281839 L11.5317138,8.00952287 L11.5306296,7.97351393 C11.5267212,7.84102035 11.5251263,7.74247903 11.526367,7.65043673 L11.527,7.585 Z M20.6771903,7.58729805 L17.0438497,7.58729805 L17.0430985,7.71435792 C17.0429378,7.72929699 17.0427496,7.74548008 17.0425225,7.76404393 L17.0417131,7.82801453 L17.0410612,7.87635778 L17.0408635,7.89092428 L17.0402798,7.93247487 L17.0396827,7.9764075 C17.0357011,8.27764313 17.0370002,8.457408 17.0472727,8.64836511 C17.0710865,9.08759415 17.2495574,9.48296943 17.5511398,9.7815377 C17.8540554,10.0814258 18.2669402,10.2694413 18.7341863,10.3113908 C18.7824167,10.3157361 18.8320421,10.3179424 18.8813836,10.3179424 C19.2733739,10.3179424 19.66543,10.1786654 19.9826195,9.93270039 C20.2982003,9.68798286 20.5154032,9.35646422 20.5881948,9.00108788 C20.6428528,8.73433569 20.657491,8.50498774 20.6664033,7.99885966 C20.6687527,7.86397317 20.6706276,7.77517753 20.6732486,7.69579723 L20.6771903,7.58729805 Z M12.5086344,7.58986072 L12.5082962,7.62874718 C12.5074228,7.70308098 12.5059916,7.76778704 12.503028,7.87162334 L12.5005027,7.95759934 C12.4869852,8.40895572 12.4885315,8.61530007 12.5176303,8.85817831 C12.5644284,9.24867614 12.7713848,9.61267478 13.094078,9.88294959 C13.4154461,10.1521145 13.8278423,10.3083139 14.2549286,10.3152228 L14.3121001,10.3152662 C14.7376759,10.3091896 15.1475918,10.1567496 15.4682512,9.89287178 C15.7935383,9.62518585 16.0030026,9.26271159 16.0517887,8.87229247 C16.0822454,8.62837505 16.0838712,8.43122948 16.0695601,7.96362517 L16.0691605,7.95060201 C16.0639794,7.78161369 16.0618449,7.69457256 16.0610495,7.59279408 L12.5086344,7.58986072 Z M7.94886955,4.12768802 L6.55232074,4.12806714 C6.17880557,4.12857184 5.85705563,4.12991929 5.54116202,4.13257668 L5.50186221,4.13291474 L5.4310159,4.1335629 L5.39558238,4.13390631 L5.36315508,4.13421238 C5.32009239,4.13570259 5.24206404,4.18828148 5.20815674,4.24248435 C4.87209694,4.77951061 4.57023984,5.26805083 4.02301869,6.1580424 L3.95849552,6.26298602 L3.7663253,6.57557887 L3.75686843,6.59150027 L3.74670122,6.60999436 L3.727,6.646 L3.76652853,6.64878342 C3.78962119,6.6500443 3.8064989,6.65082725 3.82168965,6.65131615 L3.84377656,6.65185195 L3.86289978,6.65203155 L5.76389972,6.65261264 C5.99711923,6.65246295 6.2176845,6.65219468 6.43313016,6.65178889 C6.4898888,6.65178899 6.53410408,6.65457772 6.64153712,6.66332903 C6.74385617,6.67162862 6.79065307,6.67447498 6.84244018,6.67447498 C6.94342238,6.67447498 7.01948553,6.65877314 7.06595351,6.62542579 C7.13274517,6.57749402 7.17965056,6.48380666 7.22988254,6.29800484 L7.23706099,6.27112668 L7.24033607,6.25868579 L7.24700399,6.2331608 C7.25269566,6.21131978 7.25269566,6.21131978 7.25849294,6.18929477 C7.27397495,6.13078245 7.28601657,6.08917671 7.29996386,6.04837441 C7.43569825,5.65232545 7.54353732,5.333287 7.78280978,4.62199792 L7.81249828,4.53380563 C7.86399957,4.38081944 7.87384174,4.35161095 7.94273694,4.14715153 L7.94886955,4.12768802 Z M16.0631579,4.12768802 C16.0850276,4.19758533 16.092022,4.21948903 16.1013707,4.24737248 C16.1440624,4.37371483 16.1699203,4.4500174 16.2386488,4.65250896 L16.307521,4.85515078 L16.3125777,4.87003972 L16.3467721,4.97072815 L16.3810735,5.07176456 C16.5409246,5.54274122 16.6557478,5.88381936 16.7596555,6.19841757 L16.861188,6.50801945 C16.8815034,6.57048038 16.9045396,6.60398093 16.9324462,6.6229844 C16.9625962,6.64351547 17.0110535,6.65591809 17.0879895,6.65591809 C17.446102,6.65353989 17.8081974,6.65234576 18.234494,6.65189254 L20.1965819,6.65144188 C20.2210167,6.6506075 20.2426655,6.64896919 20.2927168,6.64445926 L20.2759982,6.64551532 L20.1376863,6.41870417 L20.0704312,6.30861993 L19.9950041,6.18516813 C19.5351104,5.43250231 19.2262587,4.9283966 18.9296938,4.4475321 L18.7683157,4.186193 C18.7538576,4.16283464 18.6973155,4.13163883 18.6665008,4.13147969 C18.3196765,4.12955486 17.9722343,4.12854417 17.55505,4.12810477 L16.0631579,4.12768802 Z M14.2017423,4.12762117 L12.4886071,4.12768802 L12.4886071,6.6378273 L15.8997092,6.6378273 L15.7793407,6.27910988 L15.7307923,6.13500259 L15.6904926,6.01541458 C15.42106,5.21606554 15.2513791,4.71852515 15.0709674,4.20350374 C15.0692476,4.19859545 15.0557813,4.18377081 15.0306547,4.16846208 C14.9954274,4.14699941 14.9494126,4.13304012 14.9252647,4.13274194 C14.6947448,4.12983798 14.4641525,4.12828505 14.2017423,4.12762117 Z M9.04972099,4.12431621 L9.01284739,4.12690036 C8.99092789,4.13026179 8.97644564,4.13677015 8.96522864,4.14556736 C8.94692525,4.15992225 8.93254137,4.18643466 8.9134421,4.24383579 C8.79679495,4.59408632 8.68437777,4.92882761 8.50072655,5.47375917 L8.46937721,5.56677256 L8.36173628,5.88628334 L8.32910833,5.98292834 C8.28004065,6.12813133 8.28004065,6.12813133 8.23066852,6.2740706 L8.19762492,6.37172606 L8.17919153,6.42620178 L8.10714986,6.63654596 L11.5247124,6.63654596 L11.5247124,4.13409471 C11.5061923,4.13129598 11.4979704,4.13012613 11.4925073,4.12952151 L11.4797475,4.1288744 L10.7964188,4.12893493 L10.3682578,4.12911692 L10.2531072,4.12909718 C9.79420124,4.12893185 9.41804117,4.12762234 9.04972099,4.12431621 Z" opacity=".878"/>
</svg>
