<?xml version="1.0" encoding="UTF-8"?>
<svg width="119px" height="83px" viewBox="0 0 119 83" version="1.1" xmlns="http://www.w3.org/2000/svg" xmlns:xlink="http://www.w3.org/1999/xlink">
    <title>Group</title>
    <g id="Page-1" stroke="none" stroke-width="1" fill="none" fill-rule="evenodd">
        <g id="תפריט-עליון/פתיחת-סינון" transform="translate(-585.000000, -120.000000)">
            <g id="Group" transform="translate(586.000000, 121.000000)">
                <path d="M100.475902,8.859375 C99.6278315,11.390625 96.235549,21.09375 90.2990545,37.96875 C56.079279,38.1608287 38.2697956,38.1608287 36.8706044,37.96875 C33.3746751,37.4888345 73.7099659,40.2221795 85.2106307,31.640625 C87.830656,29.6856171 92.0710092,22.0918671 97.9316902,8.859375 C99.6906493,8.67188182 100.53872,8.67188182 100.475902,8.859375 Z" id="Path-2-Copy-3" fill="#FFFFFF" opacity="0.245419457"></path>
                <polygon id="Path-7" fill-opacity="0.296234771" fill="#96999C" points="2.54190905 8.82284854 2.54190905 1.09628984e-12 100.410885 5.83474572e-13 100.410885 8.82284854 90.6830753 38.5722696 13.4280376 38.5722696"></polygon>
                <g id="Logos/dominos-_color_updated" transform="translate(51.034655, 23.191651) rotate(10.000000) translate(-51.034655, -23.191651) translate(41.835540, 17.714035)">
                    <g id="Group" transform="translate(0.019885, 0.075553)">
                        <path d="M18.0006755,3.13656811 L13.0223272,0.192694484 C12.8121781,0.0684660776 12.5328302,-2.38979095e-16 12.2356863,-2.38979095e-16 C11.9385424,-2.38979095e-16 11.6591236,0.0684660776 11.4489745,0.192694484 L0.325326866,6.7705949 C-0.108442289,7.02718547 -0.108442289,7.44452247 0.325326866,7.70098726 L5.30353338,10.6454059 C5.51368241,10.7696763 5.79303031,10.8381004 6.09024514,10.8381004 C6.38738906,10.8381004 6.66673697,10.7696763 6.8768151,10.6454059 L18.0006046,4.06687662 C18.4342319,3.81045376 18.4342319,3.39311675 18.0006755,3.13656811" id="Fill-13" fill="#FFFFFE"></path>
                        <path d="M13.270408,4.19697475 C12.9885785,4.36338128 12.6184071,4.44652165 12.2506463,4.44652165 C11.8823183,4.4464378 11.5129268,4.36338128 11.2307429,4.19697475 C10.9496224,4.03065207 10.8079633,3.81192119 10.8078924,3.5941127 C10.8079633,3.37588494 10.9496224,3.1570702 11.2307429,2.99108294 C11.5128559,2.82476026 11.8817511,2.74090714 12.2506463,2.74094905 C12.6184071,2.74094905 12.9885785,2.82408944 13.270408,2.99116679 C13.551103,3.1570702 13.6931875,3.37592686 13.6931167,3.5941127 C13.6931875,3.81162771 13.551103,4.03056822 13.270408,4.19697475 Z M17.6485128,3.34586552 L12.6702354,0.402033814 C12.4302372,0.260112398 12.0411354,0.260112398 11.8010663,0.402033814 L6.41851438,3.58497271 L12.2658899,7.04269829 L17.6485128,3.85980133 C17.8885109,3.71787991 17.8885109,3.48782886 17.6485128,3.34586552 L17.6485128,3.34586552 Z" id="Fill-14" fill="#F5002E"></path>
                        <path d="M7.18097817,6.655213 C7.46245309,6.4883872 7.8319864,6.40524681 8.20038531,6.40524681 C8.56935143,6.4052049 8.93888474,6.4883872 9.21986336,6.655213 C9.50254358,6.82153567 9.64342284,7.03942802 9.64335197,7.25820083 C9.64335197,7.47609318 9.50254358,7.6945725 9.21986336,7.86055976 C8.93888474,8.02637932 8.56935143,8.11002281 8.20038531,8.11027437 C7.8317028,8.11027437 7.46245309,8.02646317 7.18104907,7.86055976 C6.89929055,7.69411131 6.75841129,7.47559006 6.75841129,7.25820083 C6.75841129,7.04005692 6.89936145,6.8215776 7.18097817,6.655213 Z M4.98852253,7.8266831 C4.70633861,7.99233495 4.33680529,8.07551725 3.96847728,8.07551725 C3.59915667,8.07547532 3.23004875,7.99237688 2.94850294,7.8266831 C2.66653172,7.66052813 2.52678686,7.4418811 2.52671596,7.22403068 C2.52671596,7.00584484 2.66724072,6.78736552 2.94857384,6.6203301 C3.23004875,6.45417513 3.59915667,6.37116053 3.96847728,6.37103475 C4.33680529,6.37116053 4.70690582,6.45417513 4.98852253,6.62045588 C5.26985565,6.78736552 5.41009681,7.00584484 5.40974297,7.22369527 C5.40974297,7.4417134 5.26985565,7.66069583 4.98852253,7.8266831 Z M0.677418665,6.97880221 C0.437349629,7.12080748 0.437349629,7.35085853 0.677418665,7.49277995 L5.65562518,10.4371986 C5.7756597,10.5081803 5.93291697,10.5436502 6.09024514,10.5436502 C6.24750241,10.5436502 6.40483058,10.5081803 6.5247942,10.4371986 L11.9047228,7.25526597 L6.05734731,3.7974146 L0.677418665,6.97880221 L0.677418665,6.97880221 Z" id="Fill-15" fill="#017AFF"></path>
                        <path d="M7.83476235,10.833043 L7.89243532,10.833043 C7.93077219,10.833043 7.95793213,10.8267804 7.97357983,10.8143671 C7.98933931,10.8019538 7.99716316,10.78585 7.99716316,10.7661676 C7.99716316,10.7464852 7.98967461,10.7304932 7.97458576,10.7180799 C7.9594969,10.7055548 7.93390173,10.699404 7.8975767,10.699404 L7.83476235,10.699404 L7.83476235,10.833043 Z M7.70186865,10.6063599 L7.94083143,10.6063599 C8.00856363,10.6063599 8.05751858,10.6200034 8.08791984,10.6472904 C8.11820932,10.6745773 8.13340994,10.7111463 8.13340994,10.7569974 C8.13340994,10.7928954 8.12178594,10.8238728 8.09864969,10.8500414 C8.07551344,10.8763219 8.03907665,10.8953333 7.98933931,10.9070757 C8.00979309,10.9149039 8.02488195,10.9232913 8.03449411,10.9320142 C8.04801819,10.9442038 8.0622129,10.9623206 8.07707821,10.9863644 C8.07797237,10.9881537 8.10680885,11.0397082 8.16347589,11.1410278 L8.00632824,11.1410278 C7.95524967,11.0392609 7.92093649,10.9784244 7.90350048,10.9585183 C7.88606447,10.9386122 7.86862845,10.9286592 7.85108067,10.9286592 C7.84716875,10.9286592 7.84169205,10.9293302 7.83476235,10.9306722 L7.83476235,11.1410278 L7.70186865,11.1410278 L7.70186865,10.6063599 Z M8.33180047,10.873638 C8.33180047,10.7622535 8.29245767,10.6670846 8.21366031,10.5882432 C8.13475118,10.5094018 8.03974726,10.470037 7.92842503,10.470037 C7.8171028,10.470037 7.72198712,10.5094018 7.64318976,10.5882432 C7.5643924,10.6670846 7.52493783,10.7622535 7.52493783,10.873638 C7.52493783,10.9850224 7.5643924,11.0801913 7.64318976,11.1590327 C7.72198712,11.2378741 7.8171028,11.2773508 7.92842503,11.2773508 C8.03974726,11.2773508 8.13475118,11.2378741 8.21366031,11.1590327 C8.29245767,11.0801913 8.33180047,10.9850224 8.33180047,10.873638 Z M8.42870446,10.873638 C8.42870446,10.9632152 8.4063506,11.0466418 8.36164287,11.1239175 C8.31682338,11.2013051 8.25590911,11.2622535 8.17856475,11.3067625 C8.10133215,11.3513834 8.01795225,11.373638 7.92842503,11.373638 C7.8393449,11.373638 7.75618853,11.3513834 7.67884417,11.3067625 C7.60161158,11.2622535 7.54058553,11.2013051 7.49587781,11.1239175 C7.45105832,11.0466418 7.42870446,10.9632152 7.42870446,10.873638 C7.42870446,10.784508 7.45105832,10.7011933 7.49587781,10.6236939 C7.54058553,10.5461944 7.60161158,10.4851343 7.67884417,10.4405134 C7.75618853,10.3960043 7.8393449,10.373638 7.92842503,10.373638 C8.01795225,10.373638 8.10133215,10.3960043 8.17856475,10.4405134 C8.25590911,10.4851343 8.31682338,10.5461944 8.36164287,10.6236939 C8.4063506,10.7011933 8.42870446,10.784508 8.42870446,10.873638 L8.42870446,10.873638 Z" id="Fill-19" fill="#FFFFFF"></path>
                    </g>
                </g>
                <path d="M13.4280376,38.6667605 L90.6830753,38.5722696 L104.537953,57.7843628 C80.2948579,64.4517893 62.1280963,67.7855025 50.0376684,67.7855025 C37.9472405,67.7855025 21.3217106,64.4517893 0.161078454,57.7843628 L13.4280376,38.6667605 Z" id="Path-8" fill="#C5C4C4" opacity="0.434904553"></path>
                <g id="Group-11" transform="translate(9.896911, 37.982673)">
                    <g id="pizza" transform="translate(43.256650, 17.704827) rotate(-1.000000) translate(-43.256650, -17.704827) translate(0.289410, 0.747288)">
                        <g id="Group-12" transform="translate(42.967239, 16.957540) rotate(2.000000) translate(-42.967239, -16.957540) translate(0.514581, 1.472120)">
                            <g id="Group-35" transform="translate(-0.000000, -0.000000)">
                                <path d="M0.209778695,14.8388688 C0.117715559,15.4217825 0.088892725,15.8554065 0.088892725,16.5123667 C0.088892725,19.7388002 3.72980145,24.2142117 9.78368315,26.5219848 C15.8375649,28.8297579 27.4157056,30.9708384 42.4891298,30.9708384 C57.5625541,30.9708384 62.135534,29.8298059 72.4161442,26.5219848 C82.2095456,23.3709248 84.8857335,18.0864297 84.8857335,16.5123667 C84.8857335,15.6605468 84.9451963,14.7284908 84.8568941,13.7958198" id="Path" stroke="#F9F9F9" stroke-width="1.00352057" fill-opacity="0" fill="#D1D1D1" stroke-linecap="round"></path>
                                <path d="M42.3966037,27.8046292 C57.470028,27.8046292 62.0430078,26.6635967 72.3236181,23.3557757 C82.1170194,20.2047157 84.7932074,14.9202205 84.7932074,13.3461575 C84.7932074,5.97574203 65.8118946,-3.06712774e-13 42.3966037,-3.06712774e-13 C28.5507262,-3.06712774e-13 16.2552188,2.08945824 8.51786263,5.32120115 C7.10854063,5.90984749 5.85044377,6.53639125 4.76174809,7.19510865 C1.71945811,9.03585202 -1.80288149e-14,11.1278352 -1.80288149e-14,13.3461575 C-1.80288149e-14,16.5725911 3.63727529,21.0480026 9.69115699,23.3557757 C15.7450387,25.6635487 27.3231794,27.8046292 42.3966037,27.8046292 Z" id="Stroke-776" stroke="#F9F9F9" stroke-width="1.00352057" fill-opacity="0.861973476" fill="#333D43"></path>
                                <path d="M22.9858696,26.4534414 C47.4277603,25.9868862 63.6268579,23.4465533 71.5831623,18.8324427 C79.5394667,14.2183322 80.5261074,9.74951424 74.5430842,5.42598896 C86.0164844,9.76462601 87.8426386,14.4118135 80.0215466,19.3675515 C75.4233852,22.2811195 65.1874519,26.9388897 52.9986093,27.4067099 C47.3030295,27.6253121 37.298783,27.3075559 22.9858696,26.4534414 Z" id="Path-5" fill-opacity="0" fill="#D1D1D1" opacity="0.514534884"></path>
                                <path d="M60.8339443,6.89861217 C59.7531345,8.56913302 57.5070051,8.91611096 54.8773265,8.87862061 C52.0008766,8.83761213 50.4702707,7.43047306 50.489982,6.50355758 C50.5097113,5.5758025 52.825775,4.31162155 55.702225,4.35263003 C58.5786749,4.39363851 60.9059796,4.92979561 60.9056126,6.65204935 C60.9039215,6.73156967 60.8879222,6.81518291 60.8339443,6.89861217 Z" id="Stroke-758" fill="#017AFF" transform="translate(55.697703, 6.616460) rotate(-1.000000) translate(-55.697703, -6.616460) "></path>
                                <path d="M65.8084283,18.6930903 C65.8084283,19.9720971 63.4514912,21.0101316 60.5434906,21.0101316 C57.63549,21.0101316 55.2785529,19.9720971 55.2785529,18.6930903 C55.2785529,17.412925 57.63549,16.3760491 60.5434906,16.3760491 C63.4514912,16.3760491 65.8084283,17.412925 65.8084283,18.6930903 L65.8084283,18.6930903 Z" id="Stroke-762" fill-opacity="0" fill="#D1D1D1"></path>
                                <path d="M46.9341254,20.3459029 C46.9341254,21.6249097 44.5771883,22.6629442 41.6691877,22.6629442 C38.7611871,22.6629442 36.40425,21.6249097 36.40425,20.3459029 C36.40425,19.0657377 38.7611871,18.0288617 41.6691877,18.0288617 C44.5771883,18.0288617 46.9341254,19.0657377 46.9341254,20.3459029 L46.9341254,20.3459029 Z" id="Stroke-764" fill="#017AFF"></path>
                                <path d="M20.7687644,4.48632517 C19.3641527,5.22100939 18.4415168,6.8336626 21.7025615,7.98015545 C26.3373846,9.60963073 28.7513377,7.9830609 29.067855,6.69033586 C29.3843723,5.39761081 27.8643374,4.86259437 26.7931263,4.48632517 C25.7219152,4.11005597 22.1733762,3.75164095 20.7687644,4.48632517 Z" id="Path-36" fill-opacity="0" fill="#D1D1D1"></path>
                                <path d="M62.187989,6.05037796 C61.0173123,7.91887308 58.5844422,8.30695854 55.7361378,8.26500811 C52.620546,8.21912102 50.9626976,6.64520548 50.9840536,5.60843704 C51.005429,4.57072951 53.5140536,3.15673948 56.6296454,3.20262657 C59.7452372,3.24851366 62.2660257,3.84822821 62.2656172,5.77459429 C62.2637851,5.86353892 62.246455,5.95706145 62.187989,6.05037796 Z" id="Stroke-758" stroke="#F9F9F9" stroke-width="1.00352057" transform="translate(56.624734, 5.734751) rotate(-1.000000) translate(-56.624734, -5.734751) "></path>
                                <path d="M60.2271691,5.43101441 C60.2187214,5.8282639 59.5642638,6.14143667 58.7652499,6.13004543 C57.966236,6.11865419 57.3254907,5.78701619 57.3339384,5.3897667 C57.3423938,4.99215738 57.9968437,4.67934444 58.7958576,4.69073568 C59.5948715,4.70212692 60.2356245,5.03340509 60.2271691,5.43101441 L60.2271691,5.43101441 Z" id="Stroke-758" stroke="#F9F9F9" stroke-width="1.00352057" fill-opacity="0" fill="#FFFFFF" transform="translate(58.780554, 5.410390) rotate(-1.000000) translate(-58.780554, -5.410390) "></path>
                                <path d="M45.8756371,19.359558 C45.8756371,19.844674 45.0983975,20.2383913 44.1394354,20.2383913 C43.1804733,20.2383913 42.4032337,19.844674 42.4032337,19.359558 C42.4032337,18.8740026 43.1804733,18.4807246 44.1394354,18.4807246 C45.0983975,18.4807246 45.8756371,18.8740026 45.8756371,19.359558 L45.8756371,19.359558 Z" id="Stroke-758-Copy-2" stroke="#F9F9F9" stroke-width="1.00352057" fill-opacity="0" fill="#FFFFFF"></path>
                                <path d="M28.4851261,5.36205692 C28.4765572,5.85296878 27.8141647,6.23994928 27.0054821,6.22583368 C26.1967996,6.21171807 25.548316,5.80185614 25.5568849,5.31094429 C25.5654616,4.81958776 26.2278463,4.43305193 27.0365289,4.44716753 C27.8452115,4.46128314 28.4937027,4.8707004 28.4851261,5.36205692 L28.4851261,5.36205692 Z" id="Stroke-758-Copy" stroke="#F9F9F9" stroke-width="1.00352057" fill-opacity="0" fill="#FFFFFF" transform="translate(27.021006, 5.336500) rotate(-1.000000) translate(-27.021006, -5.336500) "></path>
                                <path d="M68.5098879,17.4642039 C68.5098879,18.7432107 65.7040728,19.7812451 62.2422444,19.7812451 C58.780416,19.7812451 55.9746009,18.7432107 55.9746009,17.4642039 C55.9746009,16.1840386 58.780416,15.1471627 62.2422444,15.1471627 C65.7040728,15.1471627 68.5098879,16.1840386 68.5098879,17.4642039 L68.5098879,17.4642039 Z" id="Stroke-762" stroke="#FFFFFF" stroke-width="1.00352057"></path>
                                <path d="M47.6615414,19.4502392 C47.6615414,20.729246 45.3046043,21.7672805 42.3966037,21.7672805 C39.4886031,21.7672805 37.131666,20.729246 37.131666,19.4502392 C37.131666,18.170074 39.4886031,17.133198 42.3966037,17.133198 C45.3046043,17.133198 47.6615414,18.170074 47.6615414,19.4502392 L47.6615414,19.4502392 Z" id="Stroke-764" stroke="#F9F9F9" stroke-width="1.00352057"></path>
                                <path d="M26.9073356,15.7692271 C26.7868117,16.1168399 26.2305474,16.3387686 25.6613037,16.2651698 C25.09206,16.1927033 24.5339416,16.414632 24.4134177,16.7622448 C24.294748,17.1098576 23.7366296,17.3317863 23.1673859,17.2581875 C22.5981422,17.1857209 22.0400238,17.4076496 21.9194998,17.7552624" id="Stroke-766" stroke="#F9F9F9" stroke-width="1.00352057" stroke-linecap="round"></path>
                                <path d="M50.4325612,14.4540686 C49.9036285,14.5693574 49.346486,14.3539827 49.1860431,13.9726427 C49.0256002,13.5925697 48.4684577,13.377195 47.9395249,13.4924838 C47.4088291,13.6065057 46.8516866,13.391131 46.6930068,13.0110579 C46.5325639,12.6309849 45.9754214,12.4156101 45.4447255,12.529632" id="Stroke-768" stroke="#F9F9F9" stroke-width="1.00352057" stroke-linecap="round"></path>
                                <path d="M38.7942779,11.1440097 C38.2653451,11.2592985 37.7064396,11.0439238 37.5477597,10.6625838 C37.3873168,10.2825108 36.8301743,10.067136 36.3012416,10.1824249 C35.7705457,10.2964468 35.2134032,10.0810721 35.0529603,9.700999 C34.8942805,9.32092594 34.3353749,9.10555121 33.8064422,9.21957313" id="Stroke-770" stroke="#F9F9F9" stroke-width="1.00352057" stroke-linecap="round"></path>
                            </g>
                        </g>
                        <path d="M66.1074834,19.7357884 C66.1074834,20.2209044 65.4597837,20.6146218 64.6606486,20.6146218 C63.8615136,20.6146218 63.2138139,20.2209044 63.2138139,19.7357884 C63.2138139,19.250233 63.8615136,18.8569551 64.6606486,18.8569551 C65.4597837,18.8569551 66.1074834,19.250233 66.1074834,19.7357884 L66.1074834,19.7357884 Z" id="Stroke-758-Copy-3" stroke="#F9F9F9" stroke-width="1.00352057"></path>
                        <path d="M22.3881096,4.21211792 C20.7575004,5.0528928 19.7095124,6.8566783 23.5535432,8.06338084 C29.0169468,9.77843029 31.8118585,7.93042147 32.1562646,6.49265573 C32.5006708,5.05489 30.7088825,4.49174265 29.4461748,4.09573177 C28.1834672,3.69972089 24.0187189,3.37134304 22.3881096,4.21211792 Z" id="Path-36" stroke="#FFFFFF" stroke-width="1.00352057" transform="translate(26.558511, 6.220159) rotate(1.000000) translate(-26.558511, -6.220159) "></path>
                        <g id="Group-8" transform="translate(8.757651, 9.533774)">
                            <path d="M5.59488672,8.290805 C4.32538383,8.50515833 3.28600661,8.25080444 2.47675506,7.52774334 C1.26287773,6.44315169 0.591222492,4.6129742 1.49159936,3.06413215 C2.0918506,2.03157079 3.08760502,1.45912821 4.4788626,1.34680442 L4.44520282,3.68323974 C6.52554315,2.63827903 7.82017508,2.19266046 8.32909861,2.34638403 C9.09248389,2.57696938 9.72844334,3.85870285 8.49981219,4.90796012 C7.68072475,5.60746497 6.27942365,5.8169308 4.29590889,5.53635762 L5.59488672,8.290805 Z" id="Path-37" fill="#F5002E" transform="translate(5.133454, 4.855566) rotate(24.000000) translate(-5.133454, -4.855566) "></path>
                            <path d="M4.90879947,7.05905152 C3.66355379,6.74340747 2.79814603,6.12233902 2.31257621,5.19584617 C1.58422147,3.80610688 1.62221091,1.99941085 3.00616746,1.04485826 C3.92880516,0.408489865 5.05049047,0.314963381 6.37122337,0.764278809 L5.50257619,2.72227171 C7.7918699,2.65428105 9.1431561,2.78464568 9.55643481,3.1133656 C10.1763529,3.6064455 10.3021378,4.93648864 8.79518032,5.34119348 C7.79054203,5.6109967 6.42574717,5.2396861 4.70079575,4.22726166 L4.90879947,7.05905152 Z" id="Path-37" stroke="#FFFFFF" stroke-width="1.00352057" stroke-linejoin="round" transform="translate(5.917401, 3.772202) rotate(1.000000) translate(-5.917401, -3.772202) "></path>
                        </g>
                        <path d="M67.205048,14.454736 C66.0735203,12.2027428 66.5183393,10.6392691 68.539505,9.76431516 C70.5606708,8.8893612 72.8534611,9.46470743 75.4178759,11.4903539 L72.8309491,12.1402513 C75.3993067,13.7635138 76.7683853,14.7994372 76.9381849,15.2480215 C77.1928844,15.920898 76.2468867,16.9630658 74.3272377,16.5078951 C73.0925162,16.2151285 71.6784804,14.355689 70.6582486,12.9477687 C70.621029,12.8964056 70.1100155,12.9291203 68.9809634,13.4788622 C68.228262,13.8453568 67.6362902,14.1706481 67.205048,14.454736 Z" id="Path-37-Copy-2" fill="#F5002E" transform="translate(71.787429, 12.993905) scale(1, -1) rotate(153.000000) translate(-71.787429, -12.993905) "></path>
                        <path d="M66.6365026,13.8587112 C65.5049748,11.6067179 65.9497938,10.0432443 67.9709596,9.16829033 C69.9921253,8.29333636 72.2849156,8.8686826 74.8493305,10.894329 L72.2624037,11.5442264 C74.8307612,13.167489 76.1998398,14.2034124 76.3696395,14.6519967 C76.624339,15.3248732 75.6783412,16.3670409 73.7586923,15.9118702 C72.5239708,15.6191037 71.109935,13.7596642 70.0897031,12.3517438 C70.0524835,12.3003808 69.5414701,12.3330955 68.4124179,12.8828374 C67.6597165,13.249332 67.0677447,13.5746233 66.6365026,13.8587112 Z" id="Path-37-Copy-2" stroke="#FFFFFF" stroke-width="1.00352057" stroke-linejoin="round" transform="translate(71.218883, 12.397880) scale(1, -1) rotate(153.000000) translate(-71.218883, -12.397880) "></path>
                        <path d="M38.3908399,7.91429631 C38.1673156,6.91126308 38.1990272,6.15923625 38.4859746,5.65821582 C38.9163957,4.90668517 40.0815957,3.93508914 41.822112,3.61026925 C42.9824563,3.39372266 44.0922021,3.4592701 45.1513496,3.80691159 L41.7791403,5.1340915 C43.6112189,5.35351898 44.5927148,5.65478183 44.723628,6.03788005 C44.8152432,6.30597852 43.545305,7.30398293 42.7753036,7.0891721 C41.8130226,6.82072015 41.089643,6.44757697 40.605165,5.96974258 L38.3908399,7.91429631 Z" id="Path-37-Copy" fill="#F5002E" transform="translate(41.697687, 5.699947) rotate(27.000000) translate(-41.697687, -5.699947) "></path>
                        <path d="M38.5577682,3.25364241 C39.3489901,2.71594639 40.9728552,2.28328485 42.8695436,2.80674967 C44.5162156,3.26121271 45.8313307,4.16935167 46.8196683,5.5229617 L43.7922032,5.28378102 C44.6742122,6.08966683 44.8135101,6.51967661 44.7776012,6.80660014 C43.8408024,7.55060411 43.5149497,7.59904203 43.1835034,7.61264839 C42.626827,7.63550078 42.0691574,7.50722237 41.7346747,7.21038261 C41.0766665,6.62642702 40.6090236,6.04614229 40.3202996,5.47643181 L37.1217029,6.3507866 C37.3676695,4.7056925 37.8876865,3.70901431 38.5577682,3.25364241 Z" id="Path-37-Copy" stroke="#FFFFFF" stroke-width="1.00352057" stroke-linejoin="round" transform="translate(41.703718, 5.092340) rotate(1.000000) translate(-41.703718, -5.092340) "></path>
                    </g>
                    <path d="M1.26343841,15.1716372 C7.94892477,21.0824138 17.9771543,24.4600004 31.348127,25.3043971 C48.0487304,26.3590648 73.6862309,21.0706815 80.235746,16.4382322 C86.7039013,11.8633285 80.7491145,6.82963759 62.6863443,3.77228239 C57.4120117,2.87953404 92.7710329,6.30547236 83.9963321,18.9714222 C80.6759616,23.7642518 71.3846829,29.631614 51.4045861,30.370777 C42.4056296,30.7036931 31.5727507,30.5908251 17.5593114,27.8375871 C13.269565,26.9947752 7.71280142,24.2214158 5.02402449,21.5046121 C2.5169671,18.9714222 1.26343841,16.8604305 1.26343841,15.1716372 Z" id="Path-2" fill="#FFFFFF" opacity="0.245419457"></path>
                </g>
                <line x1="13.5354517" y1="38.1092066" x2="27.439058" y2="38.1092066" id="Path-9" stroke="#F9F9F9" stroke-width="1.01365714" stroke-linecap="round" stroke-linejoin="round"></line>
                <line x1="76.1829284" y1="38.1092066" x2="90.0865348" y2="38.1092066" id="Path-9-Copy" stroke="#F9F9F9" stroke-width="1.01365714" stroke-linecap="round" stroke-linejoin="round"></line>
                <path d="M80.8311181,35.0040545 L77.5779949,35.0040545 M71.2174652,35.0040545 L66.1290414,35.0040545 L62.3127235,35.0040545 L17.7342141,35.0040545 C16.9093958,35.0040545 16.1719297,34.4927503 15.8863574,33.7228878 L9.82972943,17.3950776" id="Shape" stroke="#F9F9F9" stroke-width="1.16570571" stroke-linecap="round" stroke-linejoin="round"></path>
                <path d="M0.305250732,57.7887601 L13.5354517,38.1092066 L11.4490486,32.7096252 M9.83125991,28.5228109 L2.67948486,8.84328345" id="Shape" stroke="#F9F9F9" stroke-width="1.01365714" stroke-linecap="round" stroke-linejoin="round"></path>
                <path d="M100.277299,8.84328345 L98.5236012,14.8196529 M96.9684305,19.3771597 L90.576442,38.1092066 L98.1563346,48.9585419 L100.728548,52.6402306 L103.760088,56.979368 L104.392933,57.7887601" id="Shape" stroke="#F9F9F9" stroke-width="0.822851092" stroke-linecap="round" stroke-linejoin="round"></path>
                <path d="M2.67948486,8.70115729 L2.67948486,0.0233248753 L97.3975444,0.0233248753 L97.3552069,8.7822453 L63.6226284,8.7822453 C61.6066305,12.0718977 59.5647129,15.4490625 52.6210778,16.2474381 C45.6774427,17.0458137 42.8310691,13.2060869 42.8310691,9.37898587 L2.67948486,8.70115729 Z" id="Path" fill="#F5002E"></path>
                <path d="M2.55051688,8.81276458 L2.55051688,0.0233248753 L100.277299,0.0233248753 L100.277299,8.81276458 L62.7530551,8.91872388 C62.7530551,13.0249391 58.1579967,16.3536843 52.4897049,16.3536843 C46.8214132,16.3536843 42.2263548,13.0249391 42.2263548,8.91872388 L5.11961391,8.91872388 C5.11058048,8.91872388 5.10154801,8.91853671 5.09252233,8.91816248" id="Path" stroke="#F9F9F9" stroke-width="1.01365714" stroke-linecap="round" stroke-linejoin="round"></path>
                <path d="M2.67948486,70.5499436 L2.67948486,57.4970155 L2.67948486,57.4970155 L104.392933,57.4970155 L104.392933,70.9172682 L64.5154875,70.9172682 C51.4139081,57.9131279 46.0384563,66.8455012 40.1736848,70.9172682 L3.33853412,71.2038847 C2.97737242,71.2066949 2.68231488,70.9161936 2.67950465,70.5550319 C2.67949146,70.5533358 2.67948486,70.5516397 2.67948486,70.5499436 Z" id="Path-Copy" fill="#017AFF" transform="translate(53.536209, 64.353014) scale(1, -1) translate(-53.536209, -64.353014) "></path>
                <path d="M0.305250732,57.7887601 C-0.101750244,66.7355952 -0.101750244,71.2090128 0.305250732,71.2090128 L103.286516,71.2090128 C103.897018,71.2090128 104.392933,70.5448105 104.392933,69.7271372 L104.392933,57.7887601 L64.5154875,57.7887601 C61.6230269,62.2621777 57.7121789,64.4988865 52.7829435,64.4988865 C48.4535557,64.4988865 44.5328079,62.2621777 41.0207003,57.7887601 L0.305250732,57.7887601 Z" id="Path" stroke="#F9F9F9" stroke-width="1.01365714" fill="#017AFF" stroke-linecap="round" stroke-linejoin="round"></path>
                <ellipse id="Oval" fill="#2F363E" cx="91.1082295" cy="67.2623357" rx="13.4297236" ry="13.3158939"></ellipse>
                <g id="Group-10" transform="translate(76.301098, 54.368212)">
                    <path d="M21.4767984,2.65419873 C20.6870568,2.06724996 19.8299564,1.56454995 18.9190606,1.15954716 C17.2432133,0.414431409 15.38528,0 13.4297236,0 C6.01269205,0 0,5.96172876 0,13.3158939 C0,20.670059 6.01269205,26.6317878 13.4297236,26.6317878 C20.8467551,26.6317878 26.8594471,20.670059 26.8594471,13.3158939 M26.2180786,9.2382566 C25.7205375,7.70299176 24.9495871,6.28923996 23.9620709,5.05336268" id="Shape" stroke="#F9F9F9" stroke-width="1.01365714" stroke-linecap="round" stroke-linejoin="round"></path>
                    <g id="iconfinder_sound-24_434189-copy-2" transform="translate(5.509630, 8.455492)" fill="#F5002E" fill-rule="nonzero">
                        <path d="M6.90466855,12.2915943 C6.90466855,12.2915943 10.2851021,10.2901424 12.4603041,7.20274058 C13.7740755,5.33775758 13.7740755,3.78880785 13.7740755,3.78880785 C13.7740755,1.69646876 12.082619,0.000276252851 9.99612204,0.000276252851 C8.78675822,0.000276252851 7.70081011,0.532615496 7.00935152,1.41911089 L6.88703773,1.56883994 L6.76499942,1.41883464 C6.07354083,0.532339244 4.98731724,0 3.77795342,0 C1.69145647,0 0,1.6961925 0,3.78880785 C0,3.78880785 0,5.33775758 1.3140468,7.20301683 C3.48897331,10.2901424 6.86775402,12.2907656 6.86775402,12.2907656 L6.90466855,12.2915943 Z" id="Path"></path>
                    </g>
                    <path d="M16.8831598,7.77290209 C15.6737959,7.77290209 14.5878478,8.30524133 13.8963892,9.19173673 L13.7740755,9.34146578 L13.6520371,9.19146048 C12.9605786,8.30496508 11.874355,7.77262584 10.6649911,7.77262584 C8.5784942,7.77262584 6.88703773,9.46881834 6.88703773,11.5614337 C6.88703773,11.5614337 6.88703773,13.1103834 8.20108453,14.9756427 C10.376011,18.0627683 13.7547918,20.0633914 13.7547918,20.0633914 L13.7917063,20.0642202 C13.7917063,20.0642202 17.1721399,18.0627683 19.3473419,14.9753664 C19.7157255,14.4524222 19.9808137,13.9543261 20.1715708,13.5082597 C20.6611132,12.3635137 20.6611132,11.5614337 20.6611132,11.5614337 M20.3032591,9.94989288 C19.8988855,9.08840283 19.1803584,8.40447654 18.2957704,8.04662144" id="Shape" stroke="#F9F9F9" stroke-width="1.01365714" stroke-linecap="round" stroke-linejoin="round" fill-rule="nonzero"></path>
                </g>
                <path d="M108.812295,52.4383934 C108.812295,52.4383934 111.687179,50.872801 113.540758,48.4644885 C114.660278,47.0097182 114.663458,45.8038879 114.663458,45.8038879 C114.66773,44.1750385 113.234756,42.8583336 111.462827,42.8629488 C110.435791,42.8656431 109.512475,43.2824683 108.923448,43.974123 L108.819269,44.0909557 L108.715936,43.9744498 C108.130539,43.2858622 107.209168,42.8738544 106.182132,42.8765365 C104.410203,42.8811639 102.970285,44.2053714 102.966002,45.8344358 C102.966002,45.8344358 102.962832,47.0402661 104.074951,48.4894236 C105.915659,50.8878733 108.780948,52.4378301 108.780948,52.4378301 L108.812295,52.4383934 Z" id="Path" fill="#F5002E" fill-rule="nonzero" transform="translate(108.814730, 47.650671) rotate(19.000000) translate(-108.814730, -47.650671) "></path>
                <path d="M112.551412,41.8034257 C111.523453,41.8034257 110.600397,42.2174673 110.012657,42.9069637 L109.908691,43.0234197 L109.804958,42.9067489 C109.217218,42.2172524 108.293928,41.8032108 107.265969,41.8032108 C105.492447,41.8032108 104.054709,43.1224716 104.054709,44.7500614 C104.054709,44.7500614 104.054709,45.9548 105.171648,47.4055572 C107.020336,49.8066549 109.892299,51.3626952 109.892299,51.3626952 L109.923677,51.3633397 C109.923677,51.3633397 112.797045,49.8066549 114.645967,47.4053424 M115.762673,44.7500614 C115.762673,44.2567691 115.63057,43.7917872 115.397054,43.3832776 C115.147013,42.945857 114.780697,42.573185 114.335787,42.2998359" id="Shape" stroke="#F9F9F9" stroke-width="1.01365714" stroke-linecap="round" stroke-linejoin="round" fill-rule="nonzero" transform="translate(109.908691, 46.583275) rotate(19.000000) translate(-109.908691, -46.583275) "></path>
                <path d="M107.106937,36.0092044 C107.106937,36.0092044 109.286573,33.9719112 110.370141,31.3925487 C111.024545,29.8344876 110.750001,28.742685 110.750001,28.742685 C110.379143,27.2678654 108.81038,26.3857746 107.246088,26.7724905 C106.339402,26.9966367 105.619598,27.5731367 105.258324,28.326154 L105.193161,28.4543628 L105.075079,28.371248 C104.39955,27.8745436 103.490831,27.7006386 102.584144,27.9247848 C101.019853,28.3115007 100.052373,29.8205881 100.42328,31.2956023 C100.42328,31.2956023 100.697824,32.3874049 102.013601,33.4586152 C104.191369,35.2315206 107.079114,36.015462 107.079114,36.015462 L107.106937,36.0092044 Z" id="Path" fill="#F5002E" fill-rule="nonzero"></path>
                <path d="M107.587597,25.0148789 C106.680911,25.2390251 105.961107,25.8155251 105.599833,26.5685424 L105.53467,26.6967513 L105.416588,26.6136364 C104.741059,26.1169321 103.832339,25.9430271 102.925648,26.1671531 C101.361362,26.5538891 100.393882,28.0629765 100.764688,29.5380157 C100.764688,29.5380157 101.039333,30.6297933 102.35511,31.7010036 C104.532878,33.473909 107.420623,34.2578505 107.420623,34.2578505 L107.44844,34.2515685 C107.44844,34.2515685 109.628082,32.2142996 110.71165,29.6349371 C111.366053,28.076876 111.09151,26.9850734 111.09151,26.9850734 M110.266911,25.6414967 C109.797732,25.2291405 109.599459,25.1237077 109.022101,24.9642013" id="Shape" stroke="#F9F9F9" stroke-width="1.01365714" stroke-linecap="round" stroke-linejoin="round" fill-rule="nonzero"></path>
                <path d="M71.1344805,65.8103308 C71.5906441,71.5987563 73.9139036,75.6063251 78.104259,77.8330373" id="Path-10" stroke="#F9F9F9" stroke-width="1.01365714" stroke-linecap="round" stroke-linejoin="round" transform="translate(74.619370, 71.821684) rotate(13.000000) translate(-74.619370, -71.821684) "></path>
                <path d="M68.2684959,71.1011857 C68.5533125,74.7153278 70.0038952,77.2175494 72.620244,78.6078505" id="Path-10-Copy" stroke="#F9F9F9" stroke-width="1.01365714" stroke-linecap="round" stroke-linejoin="round" transform="translate(70.444370, 74.854518) rotate(13.000000) translate(-70.444370, -74.854518) "></path>
            </g>
        </g>
    </g>
</svg>