<?xml version="1.0" encoding="UTF-8"?>
<svg width="175px" height="84px" viewBox="0 0 175 84" version="1.1" xmlns="http://www.w3.org/2000/svg" xmlns:xlink="http://www.w3.org/1999/xlink">
    <title>favorite pizza</title>
    <g id="Page-1" stroke="none" stroke-width="1" fill="none" fill-rule="evenodd">
        <g id="בחירת-אמצעי-תשלום---0-לתשלום" transform="translate(-100.000000, -351.000000)">
            <g id="payment/icon+text-copy" transform="translate(100.000000, 351.000000)">
                <g id="favorite-pizza" transform="translate(0.000000, 0.000000)">
                    <g id="Group-3" transform="translate(32.538932, 0.000000)">
                        <polygon id="Combined-Shape" fill="#FFFFFF" points="2.6215129 9.03516041 2.6215129 1.12193324e-12 102.749148 5.96777652e-13 102.749148 9.03516041 92.7968359 39.5004676 13.7588758 39.5004676"></polygon>
                        <g id="Logos/dominos-_color_updated" transform="translate(52.233394, 23.749732) rotate(10.000000) translate(-52.233394, -23.749732) translate(42.821978, 18.140303)">
                            <g id="Group" transform="translate(0.020344, 0.077371)">
                                <path d="M18.4161022,3.21204607 L13.3228616,0.197331459 C13.1078627,0.0701136362 12.8220679,-2.57959882e-16 12.5180663,-2.57959882e-16 C12.2140648,-2.57959882e-16 11.9281975,0.0701136362 11.7131985,0.197331459 L0.332834889,6.9335216 C-0.110944963,7.19628673 -0.110944963,7.62366648 0.332834889,7.8863028 L5.42593043,10.9015756 C5.64092936,11.0288363 5.92672416,11.098907 6.23079823,11.098907 C6.53479976,11.098907 6.82059456,11.0288363 7.03552096,10.9015756 L18.4160297,4.1647414 C18.8596644,3.90214802 18.8596644,3.47476827 18.4161022,3.21204607" id="Fill-13" fill="#FFFFFE"></path>
                                <path d="M13.5766677,4.29797019 C13.2883341,4.46838111 12.9096197,4.55352216 12.5333716,4.55352216 C12.1565431,4.55343629 11.7786267,4.46838111 11.4899304,4.29797019 C11.2023222,4.12764515 11.0573937,3.90365076 11.0573212,3.68060095 C11.0573937,3.45712179 11.2023222,3.23304152 11.4899304,3.06305996 C11.7785541,2.89273492 12.1559629,2.80686396 12.5333716,2.80690688 C12.9096197,2.80690688 13.2883341,2.89204795 13.5766677,3.06314584 C13.8638407,3.23304152 14.0092043,3.45716472 14.0091318,3.68060095 C14.0092043,3.90335021 13.8638407,4.12755928 13.5766677,4.29797019 Z M18.0558122,3.42637998 L12.9626441,0.411708302 C12.7171072,0.266371708 12.3190255,0.266371708 12.073416,0.411708302 L6.56664339,3.67124102 L12.548967,7.21217286 L18.0558122,3.95268308 C18.3013491,3.80734648 18.3013491,3.57175951 18.0558122,3.42637998 L18.0558122,3.42637998 Z" id="Fill-14" fill="#F5002E"></path>
                                <path d="M7.34670363,6.81536316 C7.63467454,6.6445229 8.01273609,6.55938183 8.38963706,6.55938183 C8.76711832,6.55933891 9.14517987,6.6445229 9.43264302,6.81536316 C9.72184705,6.98568821 9.86597758,7.20882389 9.86590507,7.43286121 C9.86590507,7.6559969 9.72184705,7.87973367 9.43264302,8.04971523 C9.14517987,8.21952505 8.76711832,8.30518133 8.38963706,8.30543894 C8.01244594,8.30543894 7.63467454,8.21961092 7.34677617,8.04971523 C7.05851511,7.87926138 6.91438459,7.65548167 6.91438459,7.43286121 C6.91438459,7.20946792 7.05858765,6.98573114 7.34670363,6.81536316 Z M5.10364963,8.01502337 C4.81495336,8.18466144 4.43689181,8.26984543 4.06006338,8.26984543 C3.68221943,8.26980249 3.3045931,8.18470438 3.01654966,8.01502337 C2.72807099,7.84487006 2.58510105,7.62096155 2.58502852,7.3978688 C2.58502852,7.17443257 2.72879636,6.95069579 3.01662219,6.77964085 C3.3045931,6.60948754 3.68221943,6.5244753 4.06006338,6.52434649 C4.43689181,6.5244753 4.81553365,6.60948754 5.10364963,6.77976965 C5.39147547,6.95069579 5.53495316,7.17443257 5.53459117,7.39752532 C5.53459117,7.6207898 5.39147547,7.84504181 5.10364963,8.01502337 Z M0.693052401,7.14673919 C0.447442957,7.29216165 0.447442957,7.52774862 0.693052401,7.67308522 L5.78614794,10.688358 C5.90895266,10.7610478 6.06983918,10.7973712 6.23079823,10.7973712 C6.39168475,10.7973712 6.5526438,10.7610478 6.67537599,10.688358 L12.1794648,7.42985573 L6.19714118,3.88879509 L0.693052401,7.14673919 L0.693052401,7.14673919 Z" id="Fill-15" fill="#017AFF"></path>
                                <path d="M8.00620494,11.0826729 L8.0638779,11.0826729 C8.10221478,11.0826729 8.12937472,11.0764103 8.14502242,11.063997 C8.16078189,11.0515836 8.16860574,11.0354798 8.16860574,11.0157974 C8.16860574,10.996115 8.1611172,10.9801231 8.14602834,10.9677098 C8.13093949,10.9551846 8.10534432,10.9490339 8.06901929,10.9490339 L8.00620494,10.9490339 L8.00620494,11.0826729 Z M7.87331123,10.8559898 L8.11227401,10.8559898 C8.18000621,10.8559898 8.22896117,10.8696333 8.25936242,10.8969202 C8.2896519,10.9242072 8.30485253,10.9607762 8.30485253,11.0066272 C8.30485253,11.0425252 8.29322852,11.0735027 8.27009228,11.0996713 C8.24695603,11.1259518 8.21051923,11.1449632 8.16078189,11.1567055 C8.18123568,11.1645337 8.19632453,11.1729211 8.20593669,11.181644 C8.21946078,11.1938337 8.23365548,11.2119504 8.2485208,11.2359943 C8.24941495,11.2377836 8.27825144,11.289338 8.33491847,11.3906577 L8.17777083,11.3906577 C8.12669225,11.2888907 8.09237908,11.2280542 8.07494306,11.2081481 C8.05750705,11.1882421 8.04007104,11.1782891 8.02252326,11.1782891 C8.01861133,11.1782891 8.01313464,11.17896 8.00620494,11.180302 L8.00620494,11.3906577 L7.87331123,11.3906577 L7.87331123,10.8559898 Z M8.50324305,11.1232678 C8.50324305,11.0118833 8.46390026,10.9167145 8.38510289,10.837873 C8.30619376,10.7590316 8.21118985,10.7196668 8.09986762,10.7196668 C7.98854539,10.7196668 7.89342971,10.7590316 7.81463235,10.837873 C7.73583498,10.9167145 7.69638042,11.0118833 7.69638042,11.1232678 C7.69638042,11.2346523 7.73583498,11.3298212 7.81463235,11.4086626 C7.89342971,11.487504 7.98854539,11.5269806 8.09986762,11.5269806 C8.21118985,11.5269806 8.30619376,11.487504 8.38510289,11.4086626 C8.46390026,11.3298212 8.50324305,11.2346523 8.50324305,11.1232678 Z M8.60014704,11.1232678 C8.60014704,11.2128451 8.57779318,11.2962716 8.53308546,11.3735474 C8.48826597,11.450935 8.42735169,11.5118833 8.35000733,11.5563924 C8.27277474,11.6010133 8.18939484,11.6232678 8.09986762,11.6232678 C8.01078748,11.6232678 7.92763112,11.6010133 7.85028675,11.5563924 C7.77305416,11.5118833 7.71202812,11.450935 7.6673204,11.3735474 C7.6225009,11.2962716 7.60014704,11.2128451 7.60014704,11.1232678 C7.60014704,11.0341379 7.6225009,10.9508232 7.6673204,10.8733237 C7.71202812,10.7958243 7.77305416,10.7347641 7.85028675,10.6901432 C7.92763112,10.6456342 8.01078748,10.6232678 8.09986762,10.6232678 C8.18939484,10.6232678 8.27277474,10.6456342 8.35000733,10.6901432 C8.42735169,10.7347641 8.48826597,10.7958243 8.53308546,10.8733237 C8.57779318,10.9508232 8.60014704,11.0341379 8.60014704,11.1232678 L8.60014704,11.1232678 Z" id="Fill-19" fill="#FFFFFF"></path>
                            </g>
                        </g>
                        <path d="M13.7588758,39.5972323 L92.7968359,39.5004676 L106.971462,59.1748781 C82.1688751,66.0027487 63.5828538,69.4166839 51.2133983,69.4166839 C38.8439427,69.4166839 21.8347221,66.0027487 0.185736558,59.1748781 L13.7588758,39.5972323 Z" id="Path-8" fill="#C5C4C4"></path>
                        <g id="Group-3-Copy" transform="translate(0.000000, 0.023886)">
                            <g id="Group" transform="translate(1.077042, 0.530492)">
                                <line x1="13.5898383" y1="38.4347263" x2="27.5493106" y2="38.4347263" id="Path-9" stroke="#404D57" stroke-width="1.0368" stroke-linecap="round" stroke-linejoin="round"></line>
                                <line x1="76.4890383" y1="38.4347263" x2="90.4485106" y2="38.4347263" id="Path-9-Copy" stroke="#404D57" stroke-width="1.0368" stroke-linecap="round" stroke-linejoin="round"></line>
                                <path d="M83.7103396,35.3011328 L17.8054718,35.3011328 C16.9773393,35.3011328 16.23691,34.7851453 15.9501902,34.0082314 L9.86922617,17.5308679 L9.86922617,17.5308679" id="Path-3" stroke="#D1D1D1" stroke-width="1.17504" stroke-linecap="round" stroke-linejoin="round"></path>
                                <g id="illustrations/pizza" transform="translate(8.514996, 38.243408)">
                                    <g id="pizza" transform="translate(44.236800, 14.515200) rotate(-1.000000) translate(-44.236800, -14.515200) translate(0.292659, 0.619210)">
                                        <g id="Group-12" transform="translate(43.944141, 13.895990) rotate(2.000000) translate(-43.944141, -13.895990) translate(0.519602, 1.220050)">
                                            <g id="Group-35" transform="translate(0.000000, 0.000000)">
                                                <path d="M0.337850835,10.513208 C0.0673782341,11.5957681 0.0909277719,12.6858601 0.0909277719,13.5165716 C0.0909277719,16.1576419 3.81518888,19.8210913 10.0076638,21.7101712 C16.2001388,23.5992511 28.0433412,25.351881 43.4618458,25.351881 C58.8803503,25.351881 63.5580207,24.417863 74.0739879,21.7101712 C84.0915925,19.1307997 86.8290472,14.8050565 86.8290472,13.5165716 C86.8290472,12.4716813 86.9656334,11.2793024 86.5255008,10.1587571" id="Path" stroke="#2F383F" stroke-width="0.5616562" fill="#D1D1D1"></path>
                                                <path d="M43.3672014,22.7601088 C58.785706,22.7601088 63.4633763,21.8260908 73.9793436,19.118399 C83.9969481,16.5390275 86.7344028,12.2132843 86.7344028,10.9247994 C86.7344028,4.89157894 67.3185453,0 43.3672014,0 C29.2043462,0 16.6273542,1.71037335 8.71286453,4.35578968 C7.2712785,4.83763947 5.98437967,5.35051105 4.87076016,5.88971909 C1.75882217,7.39650125 0,9.10894145 0,10.9247994 C0,13.5658697 3.72054449,17.2293191 9.91301945,19.118399 C16.1054944,21.0074789 27.9486968,22.7601088 43.3672014,22.7601088 Z" id="Stroke-776" stroke="#2F383F" stroke-width="0.5616562" fill="#FFFFFF"></path>
                                                <path d="M23.5120918,21.6540634 C48.5135377,21.2721541 65.0834859,19.1927071 73.2219363,15.4157224 C81.3603867,11.6387377 82.3696148,7.98068562 76.2496205,4.44156611 C87.9856847,7.99305571 89.8536455,11.7971163 81.853503,15.8537478 C77.1500745,18.2387149 66.6798071,22.0514381 54.2119218,22.4343829 C48.3859515,22.6133246 38.1526748,22.3532182 23.5120918,21.6540634 Z" id="Path-5" fill="#D1D1D1" opacity="0.514534884"></path>
                                                <path d="M62.2273023,5.66534726 C61.1277724,7.02904043 58.8315986,7.30508045 56.141748,7.26501383 C53.1994795,7.22118733 51.6289113,6.06379707 51.6457679,5.30506201 C51.6626398,4.54563969 54.0270745,3.51899464 56.9693431,3.56282115 C59.9116116,3.60664765 62.2939627,4.05386219 62.2997277,5.46375786 C62.2982816,5.52884993 62.2822151,5.59724161 62.2273023,5.66534726 Z" id="Stroke-758" fill="#017AFF" transform="translate(56.972681, 5.415055) rotate(-1.000000) translate(-56.972681, -5.415055) "></path>
                                                <path d="M67.3149997,15.3016523 C67.3149997,16.3486123 64.9041046,17.1983189 61.9295303,17.1983189 C58.954956,17.1983189 56.5440608,16.3486123 56.5440608,15.3016523 C56.5440608,14.253744 58.954956,13.4049858 61.9295303,13.4049858 C64.9041046,13.4049858 67.3149997,14.253744 67.3149997,15.3016523 L67.3149997,15.3016523 Z" id="Stroke-762" fill="#D1D1D1"></path>
                                                <path d="M48.0086019,16.6545995 C48.0086019,17.7015594 45.5977068,18.5512661 42.6231325,18.5512661 C39.6485582,18.5512661 37.237663,17.7015594 37.237663,16.6545995 C37.237663,15.6066912 39.6485582,14.7579329 42.6231325,14.7579329 C45.5977068,14.7579329 48.0086019,15.6066912 48.0086019,16.6545995 L48.0086019,16.6545995 Z" id="Stroke-764" fill="#017AFF"></path>
                                                <path d="M21.2442297,3.67238304 C19.8074618,4.27377544 18.8637037,5.59384924 22.1994045,6.53233693 C26.940334,7.8661808 29.4095503,6.53471525 29.7333138,5.47652589 C30.0570772,4.41833654 28.5022438,3.98038671 27.4065091,3.67238304 C26.3107745,3.36437937 22.6809977,3.07099064 21.2442297,3.67238304 Z" id="Path-36" fill="#D1D1D1"></path>
                                                <path d="M62.7279932,4.7301719 C61.6284633,6.09386507 59.3322895,6.36990509 56.6424389,6.32983847 C53.7001704,6.28601197 52.1296022,5.12862171 52.1464588,4.36988665 C52.1633307,3.61046433 54.5277654,2.58381928 57.4700339,2.62764579 C60.4123025,2.67147229 62.7946536,3.11868683 62.8004186,4.5285825 C62.7989725,4.59367457 62.782906,4.66206625 62.7279932,4.7301719 Z" id="Stroke-758" stroke="#383940" stroke-width="0.52627968" transform="translate(57.473372, 4.479880) rotate(-1.000000) translate(-57.473372, -4.479880) "></path>
                                                <path d="M61.6059506,4.45083878 C61.5987263,4.77601094 60.9304433,5.03005173 60.1131465,5.0178777 C59.2958497,5.00570367 58.6392931,4.73192876 58.6465173,4.4067566 C58.6537482,4.08128989 59.3220246,3.82754364 60.1393214,3.83971767 C60.9566182,3.8518917 61.6131814,4.12537207 61.6059506,4.45083878 L61.6059506,4.45083878 Z" id="Stroke-758" stroke="#383940" stroke-width="0.631535616" fill="#FFFFFF" transform="translate(60.126234, 4.428797) rotate(-1.000000) translate(-60.126234, -4.428797) "></path>
                                                <path d="M46.9258813,15.8472045 C46.9258813,16.2443072 46.1308481,16.5665934 45.1499323,16.5665934 C44.1690164,16.5665934 43.3739832,16.2443072 43.3739832,15.8472045 C43.3739832,15.4497421 44.1690164,15.1278156 45.1499323,15.1278156 C46.1308481,15.1278156 46.9258813,15.4497421 46.9258813,15.8472045 L46.9258813,15.8472045 Z" id="Stroke-758-Copy-2" stroke="#383940" stroke-width="0.52627968" fill="#FFFFFF"></path>
                                                <path d="M29.1372443,4.39445478 C29.13023,4.7963018 28.4540942,5.11073588 27.6268982,5.09629712 C26.7997022,5.08185836 26.1349518,4.74401902 26.1419661,4.34217201 C26.1489867,3.939961 26.8251162,3.62589091 27.6523122,3.64032967 C28.4795082,3.65476843 29.1442649,3.99224378 29.1372443,4.39445478 L29.1372443,4.39445478 Z" id="Stroke-758-Copy" stroke="#383940" stroke-width="0.52627968" fill="#FFFFFF" transform="translate(27.639605, 4.368313) rotate(-1.000000) translate(-27.639605, -4.368313) "></path>
                                                <path d="M68.0269826,14.2957195 C68.0269826,15.3426795 65.6160874,16.1923861 62.6415131,16.1923861 C59.6669388,16.1923861 57.2560437,15.3426795 57.2560437,14.2957195 C57.2560437,13.2478112 59.6669388,12.3990529 62.6415131,12.3990529 C65.6160874,12.3990529 68.0269826,13.2478112 68.0269826,14.2957195 L68.0269826,14.2957195 Z" id="Stroke-762" stroke="#404042" stroke-width="0.52627968"></path>
                                                <path d="M48.7526709,15.9214337 C48.7526709,16.9683937 46.3417757,17.8181003 43.3672014,17.8181003 C40.3926271,17.8181003 37.9817319,16.9683937 37.9817319,15.9214337 C37.9817319,14.8735254 40.3926271,14.0247671 43.3672014,14.0247671 C46.3417757,14.0247671 48.7526709,14.8735254 48.7526709,15.9214337 L48.7526709,15.9214337 Z" id="Stroke-764" stroke="#383940" stroke-width="0.52627968"></path>
                                                <path d="M27.523333,12.9082579 C27.4000499,13.1928042 26.831051,13.374469 26.2487754,13.314223 C25.6664998,13.2549039 25.0956042,13.4365686 24.9723211,13.721115 C24.8509347,14.0056613 24.2800391,14.1873261 23.6977635,14.1270801 C23.115488,14.067761 22.5445924,14.2494257 22.4213093,14.5339721" id="Stroke-766" stroke="#383940" stroke-width="0.893791459" stroke-linecap="round"></path>
                                                <path d="M51.5871285,11.8317051 C51.0460867,11.9260774 50.4761894,11.7497775 50.3120734,11.4376231 C50.1479574,11.1265057 49.5780601,10.9502058 49.0370183,11.0445781 C48.4941731,11.1379133 47.9242758,10.9616134 47.7619633,10.650496 C47.5978473,10.3393786 47.02795,10.1630788 46.4851048,10.256414" id="Stroke-768" stroke="#383940" stroke-width="0.893791459" stroke-linecap="round"></path>
                                                <path d="M39.6824065,9.12218146 C39.1413648,9.21655374 38.569664,9.04025387 38.4073515,8.72809941 C38.2432355,8.416982 37.6733381,8.24068214 37.1322964,8.33505442 C36.5894512,8.42838964 36.0195539,8.25208978 35.8554379,7.94097237 C35.6931253,7.62985497 35.1214246,7.4535551 34.5803828,7.54689033" id="Stroke-770" stroke="#383940" stroke-width="0.893791459" stroke-linecap="round"></path>
                                            </g>
                                        </g>
                                        <path d="M67.6141417,16.1701888 C67.6141417,16.5672915 66.951614,16.8895778 66.1341841,16.8895778 C65.3167542,16.8895778 64.6542266,16.5672915 64.6542266,16.1701888 C64.6542266,15.7727264 65.3167542,15.4507999 66.1341841,15.4507999 C66.951614,15.4507999 67.6141417,15.7727264 67.6141417,16.1701888 L67.6141417,16.1701888 Z" id="Stroke-758-Copy-3" stroke="#383940" stroke-width="0.52627968" fill="#FFFFFF"></path>
                                        <path d="M22.7020837,3.76161614 C21.2653157,4.36300855 20.3215577,5.68308234 23.6572584,6.62157003 C28.3981879,7.9554139 30.8674043,6.62394835 31.1911677,5.56575899 C31.5149312,4.50756964 29.9600977,4.06961982 28.864363,3.76161614 C27.7686284,3.45361247 24.1388516,3.16022374 22.7020837,3.76161614 Z" id="Path-36" stroke="#404042" stroke-width="0.52627968"></path>
                                        <g id="Group-8" transform="translate(8.974265, 7.302074)">
                                            <path d="M5.40025174,7.40294296 C4.12832346,7.6820328 3.11959474,7.5441375 2.37406559,6.98925706 C1.25577187,6.1569364 0.730390264,4.64793204 1.73853339,3.25938224 C2.4106288,2.33368238 3.43898182,1.77013887 4.82359245,1.56875172 L4.61291506,3.56285635 C6.74989546,2.51421937 8.06423631,2.03609717 8.55593759,2.12848977 C9.29348952,2.26707867 9.82520255,3.31131343 8.53031431,4.29895101 C7.66705549,4.95737606 6.26513777,5.24230603 4.32456114,5.15374091 L5.40025174,7.40294296 Z" id="Path-37" fill="#F5002E" transform="translate(5.259203, 4.555896) rotate(24.000000) translate(-5.259203, -4.555896) "></path>
                                            <path d="M6.01278588,6.43824485 C4.74216807,6.70170152 3.7319538,6.58152801 2.98214307,6.07772432 C1.85742697,5.32201878 1.32117046,3.94274554 2.32007029,2.66446267 C2.98600352,1.81227409 4.01092211,1.28970125 5.39482608,1.09674415 L5.19805631,2.92493916 C7.32876033,1.95117565 8.64041353,1.50511554 9.13301589,1.58675882 C9.87191943,1.70922375 10.411244,2.66265744 9.12263447,3.57539371 C8.26356146,4.18388455 6.86292871,4.45348549 4.92073623,4.3841965 L6.01278588,6.43824485 Z" id="Path-37" stroke="#404042" stroke-width="0.52627968" stroke-linejoin="round" transform="translate(5.847226, 3.835342) rotate(24.000000) translate(-5.847226, -3.835342) "></path>
                                        </g>
                                        <path d="M68.8807367,11.4892842 C67.5848295,9.45750806 67.8918794,8.14861438 69.8018865,7.56260316 C71.7118936,6.97659194 74.0081715,7.66128143 76.6907202,9.61667165 L74.2072244,9.9622203 C76.8603832,11.5716107 78.2887684,12.5763677 78.4923799,12.9764911 C78.7977973,13.5766763 77.956115,14.3954679 76.0357396,13.8450516 C74.8005509,13.4910229 73.2600094,11.7737626 72.1430212,10.4776656 C72.1022718,10.4303821 71.6037832,10.4163041 70.5418658,10.796143 C69.8339209,11.0493689 69.2802112,11.280416 68.8807367,11.4892842 Z" id="Path-37-Copy-2" fill="#F5002E" transform="translate(73.324256, 10.693397) scale(1, -1) rotate(153.000000) translate(-73.324256, -10.693397) "></path>
                                        <path d="M68.2991754,11.0013946 C67.0032682,8.96961844 67.3103181,7.66072476 69.2203252,7.07471354 C71.1303323,6.48870232 73.4266102,7.17339181 76.1091589,9.12878203 L73.6256631,9.47433067 C76.2788219,11.0837211 77.707207,12.0884781 77.9108186,12.4886015 C78.216236,13.0887867 77.3745536,13.9075783 75.4541783,13.357162 C74.2189895,13.0031333 72.678448,11.285873 71.5614599,9.989776 C71.5207105,9.94249244 71.0222219,9.92841452 69.9603045,10.3082534 C69.2523596,10.5614793 68.6986499,10.7925264 68.2991754,11.0013946 Z" id="Path-37-Copy-2" stroke="#404042" stroke-width="0.52627968" stroke-linejoin="round" transform="translate(72.742695, 10.205508) scale(1, -1) rotate(153.000000) translate(-72.742695, -10.205508) "></path>
                                        <path d="M39.1869888,6.8658793 C39.0506606,6.02105817 39.1439173,5.37117929 39.466759,4.91624266 C39.9510215,4.23383772 41.1741298,3.30129681 42.9080419,2.87787663 C44.0639832,2.59559651 45.1469837,2.56029231 46.1570434,2.77196405 L42.7399529,4.19295862 C44.5186858,4.2303962 45.4564194,4.40856842 45.5531538,4.72747528 C45.6208501,4.95065156 44.2928339,5.9145783 43.5553849,5.79333411 C42.6337851,5.64181363 41.9551481,5.38044194 41.5194738,5.00921905 L39.1869888,6.8658793 Z" id="Path-37-Copy" fill="#F5002E" transform="translate(42.641659, 4.750891) rotate(27.000000) translate(-42.641659, -4.750891) "></path>
                                        <path d="M39.1973204,6.38635972 C39.0609921,5.54153859 39.1542488,4.89165971 39.4770905,4.43672308 C39.961353,3.75431814 41.1844613,2.82177724 42.9183734,2.39835705 C44.0743147,2.11607693 45.1573153,2.08077274 46.1673749,2.29244448 L42.7502844,3.71343904 C44.5290173,3.75087663 45.466751,3.92904885 45.5634853,4.2479557 C45.6311816,4.47113198 44.3031655,5.43505872 43.5657165,5.31381453 C42.6441166,5.16229405 41.9654796,4.90092237 41.5298054,4.52969948 L39.1973204,6.38635972 Z" id="Path-37-Copy" stroke="#404042" stroke-width="0.52627968" stroke-linejoin="round" transform="translate(42.651991, 4.271372) rotate(27.000000) translate(-42.651991, -4.271372) "></path>
                                    </g>
                                </g>
                                <path d="M0.306477257,58.2945332 L13.5898383,38.4347263 L11.4950519,32.9856879 M9.8707628,28.7605248 L2.69025127,8.90074428" id="Shape" stroke="#404D57" stroke-width="1.0368" stroke-linecap="round" stroke-linejoin="round"></path>
                                <path d="M100.680223,8.90074428 L98.9194779,14.9318538 M97.3580584,19.5311047 L90.9403864,38.4347263 L98.5507356,49.3834353 L101.133284,53.098846 L104.177005,57.4777275 L104.812393,58.2945332" id="Shape" stroke="#404D57" stroke-width="1.0368" stroke-linecap="round" stroke-linejoin="round"></path>
                                <path d="M2.69025127,8.75731633 L2.69025127,0 L97.7888966,0 L97.7463889,8.83914706 L63.8782698,8.83914706 C61.8541715,12.1589308 59.8040493,15.5670285 52.832514,16.3727167 C45.8609788,17.1784049 43.0031682,13.3035084 43.0031682,9.44135343 L2.69025127,8.75731633 Z" id="Path" fill="#F5002E"></path>
                                <path d="M2.56076509,8.86994588 L2.56076509,0 L100.680223,0 L100.680223,8.86994588 L63.0052025,8.97687571 C63.0052025,13.1207015 58.3916808,16.479936 52.7006133,16.479936 C47.0095458,16.479936 42.3960241,13.1207015 42.3960241,8.97687571 L5.14030893,8.97687571 C5.13115659,8.97687571 5.12200523,8.9766851 5.11286083,8.97630401" id="Path" stroke="#404D57" stroke-width="1.0368" stroke-linecap="round" stroke-linejoin="round"></path>
                                <path d="M2.69025127,71.1733344 L2.69025127,58.0001163 L2.69025127,58.0001163 L104.812393,58.0001163 L104.812393,71.5432907 L64.7747166,71.5432907 C51.6204938,58.4200401 46.223443,67.4342287 40.3351063,71.5432907 L3.35460407,71.8325117 C2.99055051,71.8353589 2.69311866,71.5425433 2.69027143,71.1784898 C2.69025799,71.1767714 2.69025127,71.1750529 2.69025127,71.1733344 Z" id="Path-Copy" fill="#017AFF" transform="translate(53.751322, 64.918912) scale(1, -1) translate(-53.751322, -64.918912) "></path>
                                <path d="M0.306477257,58.2945332 C-0.102159086,67.3233161 -0.102159086,71.8377075 0.306477257,71.8377075 L103.701531,71.8377075 C104.314485,71.8377075 104.812393,71.1674216 104.812393,70.3422589 L104.812393,58.2945332 L64.7747166,58.2945332 C61.8706338,62.8089246 57.9440716,65.0661203 52.9950301,65.0661203 C48.6482464,65.0661203 44.7117448,62.8089246 41.1855252,58.2945332 L0.306477257,58.2945332 Z" id="Path" stroke="#404D57" stroke-width="1.0368" fill="#017AFF" stroke-linecap="round" stroke-linejoin="round"></path>
                            </g>
                        </g>
                    </g>
                    <g id="Group-6" transform="translate(0.000000, 4.779522)" fill="#FFFFFF" fill-rule="nonzero">
                        <g id="iconfinder__Favorite_label_tag__4941427">
                            <path d="M138.121245,27.885758 C137.987602,27.885758 137.853958,27.885758 137.764863,27.8418433 C137.052097,27.6222697 136.651167,26.9196341 136.873906,26.2169986 L136.873906,26.1291691 C137.096645,25.4265336 137.80941,25.0313011 138.522175,25.2508747 C139.23494,25.4704483 139.635871,26.1730839 139.413132,26.8757194 L139.413132,26.9635488 C139.23494,27.4905255 138.700367,27.885758 138.121245,27.885758 Z" id="Path"></path>
                            <path d="M161.372977,8.99312224 C161.239334,8.99312224 161.105691,8.99312224 161.016595,8.94920752 C160.30383,8.72963391 159.9029,8.02699837 160.125639,7.32436282 L160.125639,7.23653338 C160.348378,6.53389784 161.061143,6.13866535 161.773908,6.35823895 C162.486673,6.57781256 162.887603,7.2804481 162.664864,7.98308365 L162.664864,8.07091309 C162.486673,8.59788975 161.952099,8.99312224 161.372977,8.99312224 Z M172.646545,2.69557699 C172.512901,2.69557699 172.379258,2.69557699 172.290162,2.65166227 C171.577397,2.43208866 171.176467,1.72945312 171.399206,1.02681757 L171.399206,0.93898813 C171.621945,0.236352587 172.33471,-0.158879906 173.047475,0.0606937013 C173.76024,0.280267309 174.16117,0.982902852 173.938431,1.68553839 L173.938431,1.77336784 C173.76024,2.3003445 173.225666,2.69557699 172.646545,2.69557699 Z M167.009761,17.3898492 C166.876118,17.3898492 166.742474,17.3898492 166.653379,17.3459345 C165.940613,17.1263609 165.539683,16.4237254 165.762422,15.7210898 L165.762422,15.6332604 C165.985161,14.9306248 166.697926,14.5353923 167.410691,14.754966 C168.123456,14.9745396 168.524387,15.6771751 168.301648,16.3798106 L168.301648,16.4676401 C168.123456,16.9946167 167.588883,17.3898492 167.009761,17.3898492 Z" id="Combined-Shape"></path>
                            <path d="M1.38561662,55.397022 C1.24414094,55.397022 1.10266526,55.397022 1.00834814,55.3514239 C0.253811188,55.1234331 -0.17061585,54.3938628 0.0651769486,53.6642925 L0.0651769486,53.5730962 C0.300969748,52.8435259 1.0555067,52.4331426 1.81004366,52.6611333 C2.56458062,52.889124 2.98900766,53.6186944 2.75321486,54.3482647 L2.75321486,54.439461 C2.56458062,54.9866387 1.9986779,55.397022 1.38561662,55.397022 Z M14.7729777,47.7000222 C14.631502,47.7000222 14.4900263,47.7000222 14.3957092,47.6544241 C13.6411723,47.4264334 13.2167452,46.6968631 13.452538,45.9672928 L13.452538,45.8760965 C13.6883308,45.1465262 14.4428678,44.7361429 15.1974047,44.9641336 C15.9519417,45.1921243 16.3763687,45.9216946 16.1405759,46.6512649 L16.1405759,46.7424612 C15.9519417,47.2896389 15.386039,47.7000222 14.7729777,47.7000222 Z M8.43159614,64.4934763 C8.29012046,64.4934763 8.14864478,64.4934763 8.05432766,64.4478781 C7.2997907,64.2198874 6.87536367,63.4903171 7.11115646,62.7607468 L7.11115646,62.6695505 C7.34694926,61.9399802 8.10148622,61.5295969 8.85602318,61.7575876 C9.61056013,61.9855783 10.0349872,62.7151486 9.79919437,63.4447189 L9.79919437,63.5359152 C9.61056013,64.083093 9.04465742,64.4934763 8.43159614,64.4934763 Z" id="Combined-Shape-Copy" transform="translate(8.102876, 54.697295) scale(-1, 1) translate(-8.102876, -54.697295) "></path>
                        </g>
                    </g>
                    <ellipse id="Oval" fill="#FFFFFF" cx="125.770734" cy="68.9231341" rx="13.7396601" ry="13.6446814"></ellipse>
                    <g id="Group-10" transform="translate(110.621878, 55.710637)">
                        <path d="M21.9724485,2.7197345 C21.1644809,2.11829317 20.2876,1.60318082 19.3556822,1.18817795 C17.641159,0.424664284 15.7403476,0 13.7396601,0 C6.15145534,0 0,6.10893194 0,13.6446814 C0,21.1804308 6.15145534,27.2893628 13.7396601,27.2893628 C21.3278648,27.2893628 27.4793201,21.1804308 27.4793201,13.6446814 M26.8231499,9.4663617 C26.3141262,7.89318909 25.5253836,6.44452984 24.5150771,5.17813707" id="Shape" stroke="#404D57" stroke-width="1.0368" stroke-linecap="round" stroke-linejoin="round"></path>
                        <g id="iconfinder_sound-24_434189-copy-2" transform="translate(5.636784, 8.664270)" fill="#F5002E" fill-rule="nonzero">
                            <path d="M7.06401722,12.5950905 C7.06401722,12.5950905 10.5224658,10.54422 12.747868,7.38058603 C14.091959,5.46955407 14.091959,3.88235866 14.091959,3.88235866 C14.091959,1.73835687 12.3614665,0.000283073909 10.2268165,0.000283073909 C8.98954251,0.000283073909 7.87853246,0.545766496 7.17111611,1.45415067 L7.04597952,1.60757673 L6.92112476,1.4538676 C6.21370842,0.545483422 5.10241653,0 3.86514252,0 C1.73049257,0 0,1.7380738 0,3.88235866 C0,3.88235866 0,5.46955407 1.34437289,7.3808691 C3.56949322,10.54422 7.02625077,12.5942413 7.02625077,12.5942413 L7.06401722,12.5950905 Z" id="Path"></path>
                        </g>
                        <path d="M17.272796,7.9648256 C16.035522,7.9648256 14.924512,8.51030902 14.2170956,9.41869319 L14.091959,9.57211925 L13.9671043,9.41841012 C13.2596879,8.51002595 12.148396,7.96454252 10.911122,7.96454252 C8.77647208,7.96454252 7.04597952,9.70261632 7.04597952,11.8469012 C7.04597952,11.8469012 7.04597952,13.4340966 8.39035241,15.3454116 C10.6154727,18.5087626 14.0722303,20.5587838 14.0722303,20.5587838 L14.1099967,20.559633 C14.1099967,20.559633 17.5684453,18.5087626 19.7938475,15.3451286 C20.1707328,14.8092721 20.4419388,14.2988773 20.6370983,13.841797 C21.1379385,12.6687856 21.1379385,11.8469012 21.1379385,11.8469012 M20.7718257,10.1955692 C20.3581199,9.31280784 19.6230103,8.61199448 18.7180074,8.24530345" id="Shape" stroke="#404D57" stroke-width="1.0368" stroke-linecap="round" stroke-linejoin="round" fill-rule="nonzero"></path>
                    </g>
                    <path d="M143.885593,53.7320163 C143.885593,53.7320163 146.826539,52.1294624 148.722017,49.6630175 C149.866842,48.1731315 149.869494,46.9377354 149.869494,46.9377354 C149.873061,45.2689481 148.406116,43.9192455 146.592993,43.9230983 C145.542081,43.9253445 144.597505,44.351932 143.995128,45.0602538 L143.888584,45.1798996 L143.782792,45.0604857 C143.183442,44.3547229 142.240445,43.9321551 141.189533,43.934393 C139.37641,43.9382541 137.903673,45.2942167 137.900099,46.9632243 C137.900099,46.9632243 137.897454,48.1986205 139.036148,49.683864 C140.920842,52.1420386 143.853517,53.7314236 143.853517,53.7314236 L143.885593,53.7320163 Z" id="Path" fill="#F5002E" fill-rule="nonzero" transform="translate(143.884796, 48.827557) rotate(19.000000) translate(-143.884796, -48.827557) "></path>
                    <path d="M147.708791,42.835609 C146.657108,42.835609 145.71275,43.2598739 145.111446,43.9663949 L145.00508,44.0857263 L144.898953,43.9661748 C144.29765,43.2596537 143.353051,42.8353889 142.301369,42.8353889 C140.486916,42.8353889 139.015997,44.187224 139.015997,45.8550011 C139.015997,45.8550011 139.015997,47.0894865 140.158714,48.5760648 C142.050067,51.0364489 144.988311,52.6309099 144.988311,52.6309099 L145.020412,52.6315704 C145.020412,52.6315704 147.960093,51.0364489 149.851685,48.5758447 M150.994163,45.8550011 C150.994163,45.3495288 150.859011,44.8730659 150.620106,44.4544696 C150.364294,44.0062485 149.989525,43.6243747 149.534347,43.3442763" id="Shape" stroke="#31383E" stroke-width="0.9216" stroke-linecap="round" stroke-linejoin="round" fill-rule="nonzero" transform="translate(145.005080, 47.733480) rotate(19.000000) translate(-145.005080, -47.733480) "></path>
                    <path d="M142.138666,36.8983205 C142.138666,36.8983205 144.368605,34.8107238 145.47718,32.1676733 C146.146686,30.5711416 145.865806,29.4523809 145.865806,29.4523809 C145.48639,27.9411461 143.881422,27.0372752 142.281029,27.4335397 C141.353418,27.6632203 140.617002,28.2539549 140.24739,29.0255652 L140.180724,29.1569397 L140.059916,29.0717726 C139.368798,28.562804 138.439106,28.384605 137.511495,28.6142857 C135.911102,29.0105501 134.921295,30.5568989 135.300761,32.0683332 C135.300761,32.0683332 135.581641,33.1870939 136.927784,34.2847538 C139.155811,36.1014347 142.110202,36.9047327 142.110202,36.9047327 L142.138666,36.8983205 Z" id="Path" fill="#F5002E" fill-rule="nonzero"></path>
                    <path d="M142.630419,25.6325303 C141.702808,25.8622109 140.966392,26.4529455 140.596781,27.2245558 L140.530114,27.3559303 L140.409307,27.2707633 C139.718188,26.7617946 138.788496,26.5835957 137.860884,26.8132721 C136.260492,27.2095407 135.270685,28.7558895 135.650148,30.2673247 C135.650148,30.2673247 135.931031,31.3860845 137.277175,32.4837444 C139.505202,34.3004253 142.459592,35.1037233 142.459592,35.1037233 L142.488057,35.0973111 C142.488057,35.0973111 144.717995,33.0097144 145.826571,30.366664 C146.496076,28.7701322 146.215196,27.6513715 146.215196,27.6513715 M145.371567,26.27462 C144.89156,25.8520823 144.688712,25.7440462 144.09803,25.5806013" id="Shape" stroke="#31383E" stroke-width="0.9216" stroke-linecap="round" stroke-linejoin="round" fill-rule="nonzero"></path>
                    <path d="M105.333614,67.4345358 C105.802388,73.3655742 108.180871,77.4725896 112.469063,79.7555821" id="Path-10" stroke="#404D57" stroke-width="1.0368" stroke-linecap="round" stroke-linejoin="round" transform="translate(108.901338, 73.595059) rotate(13.000000) translate(-108.901338, -73.595059) "></path>
                    <path d="M102.402392,72.8563076 C102.695082,76.5594935 104.180145,79.1238069 106.85758,80.549248" id="Path-10-Copy" stroke="#404D57" stroke-width="1.0368" stroke-linecap="round" stroke-linejoin="round" transform="translate(104.629986, 76.702778) rotate(13.000000) translate(-104.629986, -76.702778) "></path>
                </g>
            </g>
        </g>
    </g>
</svg>