<?xml version="1.0" encoding="UTF-8"?>
<svg width="107px" height="107px" viewBox="0 0 107 107" version="1.1" xmlns="http://www.w3.org/2000/svg" xmlns:xlink="http://www.w3.org/1999/xlink">
    <title>icons/illustrated/cheesy pizza copy</title>
    <g id="Page-1" stroke="none" stroke-width="1" fill="none" fill-rule="evenodd">
        <g id="בילדר-מחירון-תוספות" transform="translate(-585.000000, -112.000000)">
            <g id="icons/illustrated/cheesy-pizza-copy" transform="translate(585.000000, 112.000000)">
                <g id="Group" transform="translate(3.000000, 3.000000)">
                    <path d="M51,0 C22.8520502,0 0,22.8144735 0,51 C0,79.1855265 22.8520502,102 51,102 C79.1479498,102 102,79.1855265 102,51 C102,22.8144735 79.1479498,0 51,0 Z" id="Path" fill="#D1D1D1" fill-rule="nonzero"></path>
                    <path d="M51.2526882,5.15371719 C25.8643413,5.15371719 5.25268817,25.7314776 5.25268817,51.1537172 C5.25268817,76.5759568 25.8643413,97.1537172 51.2526882,97.1537172 C76.641035,97.1537172 97.2526882,76.5759568 97.2526882,51.1537172 C97.2526882,25.7314776 76.641035,5.15371719 51.2526882,5.15371719 Z" id="Path" fill="#F5002E" fill-rule="nonzero"></path>
                    <path d="M51.2526882,9.94159598 C74.0510026,9.94159598 92.5326882,28.3928911 92.5326882,51.1537172 C92.5326882,73.9145432 74.0510026,92.3658384 51.2526882,92.3658384 C28.4543737,92.3658384 9.97268817,73.9145432 9.97268817,51.1537172 C9.97268817,28.3928911 28.4543737,9.94159598 51.2526882,9.94159598 Z" id="Path" fill="#F5002E" fill-rule="nonzero"></path>
                    <path d="M51,10 C28.3712561,10 10,28.3410473 10,51 C10,73.6589527 28.3712561,92 51,92 C73.6287439,92 92,73.6589527 92,51 C92,28.3410473 73.6287439,10 51,10 Z" id="Path" stroke="#000000" stroke-width="1.5" fill="#FFFFFF" fill-rule="nonzero"></path>
                    <path d="M48.1236559,74.6416927 C48.1236559,77.4396098 45.8056463,79.7077697 42.9462366,79.7077697 C40.0868268,79.7077697 37.7688172,77.4396098 37.7688172,74.6416927 C37.7688172,71.8437756 40.0868268,69.5756157 42.9462366,69.5756157 C45.8043157,69.5787566 48.120446,71.8450776 48.1236559,74.6416927 Z" id="Path" fill="#F5002E" fill-rule="nonzero"></path>
                    <path d="M41.7965231,71.0277204 C43.1128855,71.029167 44.3037467,71.5529875 45.1663446,72.3970349 C46.0348942,73.246906 46.5710924,74.4209646 46.5725806,75.7180021 C46.5725806,77.01502 46.0365968,78.1900239 45.1676689,79.0402652 C44.3047066,79.8846692 43.1129018,80.4082842 41.7956989,80.4082842 C40.478496,80.4082842 39.2866913,79.8846692 38.4237289,79.0402652 C37.554801,78.1900239 37.0188172,77.01502 37.0188172,75.7180021 C37.0188172,74.4209842 37.554801,73.2459803 38.4237289,72.395739 C39.2866913,71.551335 40.478496,71.02772 41.7965231,71.0277204 Z" id="Path-Copy-13" stroke="#000000" stroke-width="1.5" fill-rule="nonzero"></path>
                    <path d="M68.3338949,33.1759744 C68.8857675,33.1765942 69.3853172,33.4005174 69.7470536,33.7622538 C70.10879,34.1239903 70.3327132,34.6235399 70.3333333,35.1759741 C70.3333333,35.7282589 70.1094757,36.2282589 69.7475469,36.5901877 C69.3856181,36.9521165 68.8856181,37.1759741 68.3333333,37.1759741 C67.7810486,37.1759741 67.2810486,36.9521165 66.9191198,36.5901877 C66.557191,36.2282589 66.3333333,35.7282589 66.3333333,35.1759741 C66.3333333,34.6236894 66.557191,34.1236894 66.9191198,33.7617605 C67.2810486,33.3998317 67.7810486,33.1759741 68.3338949,33.1759744 Z" id="Path-Copy-17" stroke="#000000" fill-rule="nonzero"></path>
                    <path d="M78.0376344,73.7447682 C78.0376344,74.3665275 77.5225212,74.8705631 76.8870968,74.8705631 C76.2516724,74.8705631 75.7365591,74.3665275 75.7365591,73.7447682 C75.7365591,73.1230088 76.2516724,72.6189733 76.8870968,72.6189733 C77.5222255,72.6196713 78.0369211,73.1232982 78.0376344,73.7447682 Z" id="Path-Copy-19" fill="#000000" fill-rule="nonzero"></path>
                    <line x1="51" y1="10.3872729" x2="50.5752688" y2="92.1505376" id="Line-5" stroke="#000000" stroke-linecap="round" stroke-linejoin="round" stroke-dasharray="4,4"></line>
                    <line x1="91.844086" y1="51" x2="9.57526882" y2="51.1505376" id="Line-5" stroke="#000000" stroke-linecap="round" stroke-linejoin="round" stroke-dasharray="4,4"></line>
                    <g id="Group-3" transform="translate(33.336632, 32.695992)">
                        <circle id="Oval" fill="#FFFFFF" cx="18.2386364" cy="18.2386364" r="18.2386364"></circle>
                        <path d="M27.8482405,13.375 L27.8482405,22.0137526 L25.1349405,22.0137526 L25.1349405,15.580639 L17.6249137,15.580639 L17.6249137,26.8845387 L14.6693548,26.8845387 L14.6693548,13.375 L27.8482405,13.375 Z M33.4963343,13.375 L33.4963343,19.246718 C33.4963343,22.7789234 31.4600134,26.8616023 26.9755315,26.8616023 L26.9755315,26.8616023 L21.072489,26.8845387 L20.3174487,18.1457709 L22.8113697,18.1457709 L23.36049,24.659708 L26.7696114,24.659708 C29.2406525,24.659708 30.6820931,22.1367042 30.6820931,19.3843364 L30.6820931,19.3843364 L30.6820931,13.375 L33.4963343,13.375 Z M8.07991202,15.3049341 L8.07991202,18.8089576 L11.8453079,18.8089576 L11.8453079,20.4667752 L8.07991202,20.4667752 L8.07991202,23.9896375 L6.21813294,23.9896375 L6.21813294,20.4667752 L2.43181818,20.4667752 L2.43181818,18.8089576 L6.21813294,18.8089576 L6.21813294,15.3049341 L8.07991202,15.3049341 Z" id="Combined-Shape" fill="#000000" fill-rule="nonzero"></path>
                    </g>
                    <g id="Group-2" transform="translate(22.351142, 23.267488)" fill-rule="nonzero">
                        <path d="M16.6468414,8.59810383 C16.6468414,13.0460746 13.0410487,16.6518673 8.59307796,16.6518673 C4.14510723,16.6518673 0.539314516,13.0460746 0.539314516,8.59810383 C0.539314516,4.1501331 4.14510723,0.544340386 8.59307796,0.544340386 C13.0389788,0.549333603 16.6418482,4.152203 16.6468414,8.59810383 Z" id="Path-Copy-15" fill="#017AFF"></path>
                        <path d="M10.6722685,0.0443407015 C13.0330708,0.0469921323 15.1700455,1.00489139 16.7174825,2.55232836 C18.2649194,4.09976533 19.2228187,6.23674001 19.2254704,8.59810383 C19.2254704,10.9601604 18.2680578,13.0986012 16.7201311,14.646528 C15.1722044,16.1944547 13.0337635,17.1518673 10.671707,17.1518673 C8.30965044,17.1518673 6.17120958,16.1944547 4.62328286,14.646528 C3.07535613,13.0986012 2.11794355,10.9601604 2.11794355,8.59810383 C2.11794355,6.23604728 3.07535613,4.09760642 4.62328286,2.54967969 C6.17120958,1.00175297 8.30965044,0.0443403862 10.6722685,0.0443407015 Z" id="Path-Copy-18" stroke="#000000"></path>
                    </g>
                    <path d="M64.8070132,74.9520179 C65.7387759,74.9530644 66.5821982,75.3311286 67.1929415,75.9418718 C67.8036847,76.5526151 68.1817489,77.3960374 68.1827957,78.3283617 C68.1827957,79.2607133 67.8048855,80.1047994 67.1938874,80.7157975 C66.5828893,81.3267956 65.7388033,81.7047057 64.8064516,81.7047057 C63.8740999,81.7047057 63.0300139,81.3267956 62.4190158,80.7157975 C61.8080177,80.1047994 61.4301075,79.2607133 61.4301075,78.3283617 C61.4301075,77.39601 61.8080177,76.551924 62.4190158,75.9409259 C63.0300139,75.3299278 63.8740999,74.9520176 64.8070132,74.9520179 Z" id="Path-Copy-18" stroke="#000000" fill-rule="nonzero" transform="translate(64.806452, 78.328362) rotate(5.000000) translate(-64.806452, -78.328362) "></path>
                    <circle id="Oval" fill="#000000" fill-rule="nonzero" cx="28.5645161" cy="69.9261764" r="2.30107527"></circle>
                    <ellipse id="Oval-Copy-3" stroke="#000000" fill="#017AFF" fill-rule="nonzero" cx="76.3387097" cy="62.9508036" rx="2.30107527" ry="2.25158978"></ellipse>
                    <circle id="Oval-Copy-2" fill="#D1D1D1" fill-rule="nonzero" cx="65.9569892" cy="66.7487571" r="1.72580645"></circle>
                    <path d="M19.8582819,58.8479956 C18.4166543,62.8645526 19.212864,65.5941327 22.246911,67.036736" id="Path-Copy-5" stroke="#000000" stroke-linecap="round" stroke-linejoin="round" transform="translate(20.704332, 62.942366) rotate(-154.000000) translate(-20.704332, -62.942366) "></path>
                    <path d="M26.8870688,40.9434167 C25.8974195,43.7095698 26.4441803,45.5894653 28.5273513,46.5831033" id="Path-Copy-7" stroke="#000000" stroke-linecap="round" stroke-linejoin="round" transform="translate(27.468161, 43.763260) rotate(-56.000000) translate(-27.468161, -43.763260) "></path>
                    <path d="M76.0496489,29.3226182 C75.063756,32.0828349 75.6148704,33.9609965 77.7029922,34.9571032" id="Path-Copy-8" stroke="#D1D1D1" stroke-linecap="round" stroke-linejoin="round" transform="translate(76.639175, 32.139861) rotate(-226.000000) translate(-76.639175, -32.139861) "></path>
                    <path d="M77.0496489,38.3226182 C76.063756,41.0828349 76.6148704,42.9609965 78.7029922,43.9571032" id="Path-Copy-10" stroke="#000000" stroke-linecap="round" stroke-linejoin="round" transform="translate(77.639175, 41.139861) rotate(-43.000000) translate(-77.639175, -41.139861) "></path>
                    <path d="M33.0403793,60.3966971 C32.0544864,63.1569137 32.6056009,65.0350753 34.6937226,66.031182" id="Path-Copy-9" stroke="#D1D1D1" stroke-linecap="round" stroke-linejoin="round" transform="translate(33.629906, 63.213940) rotate(-208.000000) translate(-33.629906, -63.213940) "></path>
                    <circle id="Oval" fill="#D1D1D1" fill-rule="nonzero" cx="63.0806452" cy="22.415944" r="3.4516129"></circle>
                    <path d="M62.327957,36.9738699 C62.327957,37.802297 61.6563841,38.4738699 60.827957,38.4738699 C59.9995299,38.4738699 59.327957,37.802297 59.327957,36.9738699 C59.327957,36.1454428 59.9995299,35.4738699 60.827957,35.4738699 C61.6559986,35.4747999 62.327027,36.1458283 62.327957,36.9738699 Z" id="Path-Copy-20" fill="#404D57" fill-rule="nonzero"></path>
                </g>
            </g>
        </g>
    </g>
</svg>