<?xml version="1.0" encoding="UTF-8"?>
<svg width="102px" height="102px" viewBox="0 0 102 102" version="1.1" xmlns="http://www.w3.org/2000/svg" xmlns:xlink="http://www.w3.org/1999/xlink">
    <title>Group</title>
    <g id="Page-1" stroke="none" stroke-width="1" fill="none" fill-rule="evenodd">
        <g id="popup_1שדרוג_מהקבועה" transform="translate(-136.000000, -196.000000)">
            <g id="icons/illustrated/cheesy-pizza" transform="translate(134.000000, 194.000000)">
                <g id="Group" transform="translate(2.000000, 2.000000)">
                    <path d="M46.9418496,0.260431608 C19.775833,2.31928423 -1.39242117,25.8407725 0.350379382,53.9079906 C1.91257884,79.0910091 22.408997,99.5874288 47.5902075,101.149628 C75.6574235,102.892429 99.1807159,81.7223672 101.239568,54.5581546 C101.398497,52.4667938 99.7207132,50.6824548 97.6221285,50.6824548 L50.817549,50.6824548 L50.817549,3.87787179 C50.817549,1.77928692 49.0332102,0.101502633 46.9418496,0.260431608 Z" id="Path" fill="#D1D1D1" fill-rule="nonzero"></path>
                    <path d="M101.577898,43.9611536 C99.4116814,28.9443062 94.7949861,20.9156839 88.2598728,14.5347116 C81.0581004,7.50280459 72.113993,3.37618958 66.3983846,1.76216655 C60.6827762,0.148143523 56.1372651,1.37518232 58.1508396,6.22081177 C61.8888815,15.2163398 62.1953114,27.7643556 59.0701294,43.864859 C75.7797802,41.6463798 88.2923587,42.4286874 96.6078651,46.2117817 C98.6291301,47.1313451 101.886903,46.1032663 101.577898,43.9611536 Z" id="Path-Copy-10" fill="#D1D1D1" fill-rule="nonzero"></path>
                    <path d="M51.0701294,5.45432733 C25.6652494,5.45432733 5.07012938,26.0494473 5.07012938,51.4543273 C5.07012938,76.8592073 25.6652494,97.4543273 51.0701294,97.4543273 C76.4750094,97.4543273 97.0701294,76.8592073 97.0701294,51.4543273 L51.0701294,51.4543273 L51.0701294,5.45432733 Z" id="Path" fill="#F5002E" fill-rule="nonzero"></path>
                    <path d="M50.3701294,11.6603594 L50.3701294,52.1543273 L90.8640973,52.1543273 C90.679342,62.8668093 86.2620895,72.5479227 79.2129071,79.5971051 C72.0105004,86.7995118 62.0605014,91.2543273 51.0701294,91.2543273 C40.0797574,91.2543273 30.1297583,86.7995118 22.9273516,79.5971051 C15.7249449,72.3946984 11.2701294,62.4446993 11.2701294,51.4543273 C11.2701294,40.4639553 15.7249449,30.5139563 22.9273516,23.3115496 C29.976534,16.2623672 39.6576474,11.8451147 50.3701294,11.6603594 L50.3701294,11.6603594 Z" id="Path" stroke="#000000" stroke-width="1.4" fill="#FFFFFF" fill-rule="nonzero"></path>
                    <path d="M97.0701294,44.4543273 C95.6016889,26.6799674 83.2596689,11.9973423 66.7063395,7.07584164 L63.409913,6.2374956 C61.6673636,5.8672706 59.8838759,5.6056212 58.0701294,5.45432733 L58.0701294,44.4543273 L97.0701294,44.4543273 Z" id="Path" fill="#F5002E" fill-rule="nonzero"></path>
                    <path d="M58.7701294,11.7254771 C59.985003,11.8568008 61.1820387,12.0511702 62.3563266,12.3078084 L62.3563266,12.3078084 L65.0755145,13.0206295 C71.8863505,15.1110231 77.8227853,19.2877397 82.1908995,24.8304368 C86.3489344,30.1065646 89.0859111,36.6206874 89.8040363,43.7543273 L89.8040363,43.7543273 L58.7701294,43.7543273 Z" id="Path" stroke="#000000" stroke-width="1.4" fill="#FFFFFF" fill-rule="nonzero"></path>
                    <circle id="Oval" fill="#017AFF" fill-rule="nonzero" cx="27.9451294" cy="39.0793273" r="8.75"></circle>
                    <circle id="Oval" stroke="#000000" fill-rule="nonzero" cx="29.9451294" cy="38.0793273" r="8.75"></circle>
                    <circle id="Oval" stroke="#000000" stroke-width="1.5" fill="#FFFFFF" fill-rule="nonzero" cx="74.3201294" cy="58.2043273" r="2.75"></circle>
                    <circle id="Oval-Copy-3" stroke="#000000" fill="#017AFF" fill-rule="nonzero" cx="21.3201294" cy="67.2043273" r="2.25"></circle>
                    <circle id="Oval" stroke="#000000" stroke-width="1.5" fill="#FFFFFF" fill-rule="nonzero" cx="80.5701294" cy="66.7043273" r="2.5"></circle>
                    <circle id="Oval-Copy" stroke="#000000" fill="#017AFF" fill-rule="nonzero" cx="59.3201294" cy="78.9543273" r="3.75"></circle>
                    <circle id="Oval" stroke="#000000" stroke-width="1.5" fill="#F5002E" fill-rule="nonzero" cx="31.8201294" cy="64.9543273" r="3.75"></circle>
                    <circle id="Oval-Copy-2" fill="#D1D1D1" fill-rule="nonzero" cx="70.8201294" cy="72.4543273" r="2.75"></circle>
                    <rect id="Rectangle" fill="#000000" fill-rule="nonzero" x="78.376581" y="33.1156176" width="3.74193548" height="3.74193548" rx="1.87096774"></rect>
                    <rect id="Rectangle" fill="#000000" fill-rule="nonzero" x="63.4249681" y="59.1801338" width="3.74193548" height="3.74193548" rx="1.87096774"></rect>
                    <rect id="Rectangle" fill="#FFFFFF" fill-rule="nonzero" x="58.6991616" y="69.293037" width="3.74193548" height="3.74193548"></rect>
                    <rect id="Rectangle" fill="#000000" fill-rule="nonzero" x="47.2475487" y="75.0511015" width="3.74193548" height="3.74193548" rx="1.87096774"></rect>
                    <rect id="Rectangle" fill="#000000" fill-rule="nonzero" x="42.4733552" y="29.7607789" width="2.7419355" height="2.7419355" rx="1.37096775"></rect>
                    <rect id="Rectangle" fill="#000000" fill-rule="nonzero" x="13.89271" y="59.6640047" width="3.74193548" height="3.74193548" rx="1.87096774"></rect>
                    <path d="M21.2905382,48.9718523 C19.8006728,53.1385189 20.6283758,55.9718523 23.7736471,57.4718523" id="Path" stroke="#D1D1D1" stroke-width="2.5" stroke-linecap="round" stroke-linejoin="round" transform="translate(22.172929, 53.221852) rotate(-87.000000) translate(-22.172929, -53.221852) "></path>
                    <path d="M55.7905382,58.9718523 C54.3006728,63.1385189 55.1283758,65.9718523 58.2736471,67.4718523" id="Path-Copy-5" stroke="#000000" stroke-linecap="round" stroke-linejoin="round" transform="translate(56.672929, 63.221852) rotate(-154.000000) translate(-56.672929, -63.221852) "></path>
                    <path d="M37.2905382,17.4718523 C35.8006728,21.6385189 36.6283758,24.4718523 39.7736471,25.9718523" id="Path-Copy" stroke="#D1D1D1" stroke-width="2.5" stroke-linecap="round" stroke-linejoin="round" transform="translate(38.172929, 21.721852) rotate(-85.000000) translate(-38.172929, -21.721852) "></path>
                    <path d="M62.8818672,18.4911975 C61.7184323,21.7449448 62.3647851,23.957493 64.8209254,25.1288421" id="Path-Copy-2" stroke="#000000" stroke-linecap="round" stroke-linejoin="round" transform="translate(63.570925, 21.810020) rotate(42.000000) translate(-63.570925, -21.810020) "></path>
                    <path d="M75.0661615,36.9718523 C74.04167,39.8370202 74.6108319,41.7853344 76.7736472,42.8167948" id="Path-Copy-8" stroke="#017AFF" stroke-width="1.5" stroke-linecap="round" stroke-linejoin="round" transform="translate(75.672929, 39.894324) rotate(76.000000) translate(-75.672929, -39.894324) "></path>
                    <path d="M65.5661615,33.9718523 C64.54167,36.8370202 65.1108319,38.7853344 67.2736472,39.8167948" id="Path-Copy-9" stroke="#000000" stroke-linecap="round" stroke-linejoin="round" transform="translate(66.172929, 36.894324) rotate(-90.000000) translate(-66.172929, -36.894324) "></path>
                    <path d="M34.0661615,75.9718523 C33.04167,78.8370202 33.6108319,80.7853344 35.7736472,81.8167948" id="Path-Copy-6" stroke="#000000" stroke-linecap="round" stroke-linejoin="round" transform="translate(34.672929, 78.894324) rotate(-22.000000) translate(-34.672929, -78.894324) "></path>
                    <path d="M43.0661615,37.9718523 C42.04167,40.8370202 42.6108319,42.7853344 44.7736472,43.8167948" id="Path-Copy-3" stroke="#000000" stroke-linecap="round" stroke-linejoin="round" transform="translate(43.672929, 40.894324) rotate(-114.000000) translate(-43.672929, -40.894324) "></path>
                    <path d="M49.0661615,81.4718523 C48.04167,84.3370202 48.6108319,86.2853344 50.7736472,87.3167948" id="Path-Copy-7" stroke="#000000" stroke-linecap="round" stroke-linejoin="round" transform="translate(49.672929, 84.394324) rotate(-114.000000) translate(-49.672929, -84.394324) "></path>
                    <circle id="Oval" stroke="#000000" fill="#FFFFFF" fill-rule="nonzero" cx="43.0701294" cy="55.7043273" r="3.75"></circle>
                    <circle id="Oval" stroke="#000000" fill="#D1D1D1" fill-rule="nonzero" cx="73.3201294" cy="27.5793273" r="3.75"></circle>
                </g>
            </g>
        </g>
    </g>
</svg>