<?xml version="1.0" encoding="UTF-8"?>
<svg width="21px" height="20px" viewBox="0 0 21 20" version="1.1" xmlns="http://www.w3.org/2000/svg" xmlns:xlink="http://www.w3.org/1999/xlink">
    <title>icons/magnifier</title>
    <g id="Page-1" stroke="none" stroke-width="1" fill="none" fill-rule="evenodd">
        <g id="איסוף-עצמי--סניף-אחר---שגיאה-copy" transform="translate(-786.000000, -182.000000)" fill="#017AFF">
            <g id="fields/search-with-icon" transform="translate(468.000000, 182.000000)">
                <g id="icons/magnifier" transform="translate(318.992958, 0.000000)">
                    <path d="M8.32651217,0 C10.62316,0 12.7034026,0.937959171 14.2101579,2.45042237 C15.7191558,3.96513677 16.6530243,6.05608989 16.6530243,8.3584932 C16.6530243,10.5082672 15.8326959,12.4645129 14.5112456,13.9418985 L14.4710485,13.9865209 L14.3492196,14.1198478 L19.2446301,18.3353024 C19.3672462,18.4658325 19.4285714,18.6333578 19.4285714,18.7995441 C19.4285714,18.9661401 19.3668629,19.1315847 19.2426178,19.2563071 C19.1213588,19.3889564 18.9498866,19.4524999 18.7898508,19.4524999 C18.6394406,19.4524999 18.4895216,19.39551 18.365188,19.2833217 L18.3491177,19.2683756 L13.3862653,14.9964351 C11.9794047,16.0767668 10.2309609,16.716653 8.32651217,16.716653 C6.02986169,16.716653 3.94961672,15.7787334 2.44286074,14.266329 C0.933866426,12.7516778 0,10.6608104 0,8.3584932 C0,6.05608989 0.933868548,3.96513677 2.44286648,2.45042237 C3.94962171,0.937959171 6.02986429,0 8.32651217,0 Z M8.32651217,1.30271351 C6.38609914,1.30271351 4.62987588,2.09400876 3.35812659,3.37054064 C2.08441918,4.64903799 1.29673399,6.41425962 1.29673399,8.3584932 C1.29673399,10.3025994 2.08445196,12.0678564 3.35820848,13.3464031 C4.62995152,14.6229287 6.38614131,15.4142729 8.32651217,15.4142729 C10.2685277,15.4142729 12.0260225,14.6248489 13.2980087,13.3480792 C14.5698503,12.0714547 15.3562903,10.3075735 15.3562903,8.3584932 C15.3562903,6.4110298 14.5679687,4.64844057 13.2963696,3.3720595 C12.0224976,2.0933969 10.263651,1.30271351 8.32651217,1.30271351 Z" id="Combined-shape-5844"></path>
                </g>
            </g>
        </g>
    </g>
</svg>