<svg xmlns="http://www.w3.org/2000/svg" viewBox="0 0 42 48">
  <g fill="none" transform="translate(4 6)">
    <path fill="#D1D1D1" d="M30.4,31.0909091 C27.928999,31.4907934 25.990998,33.4728398 25.6,36 C25.209002,33.4728398 23.271001,31.4907934 20.8,31.0909091 C23.271001,30.6910248 25.209002,28.7089783 25.6,26.1818182 C25.990998,28.7089783 27.928999,30.6910248 30.4,31.0909091 Z" opacity=".244"/>
    <path fill="#017AFF" d="M16,7.36363636 C11.8816649,7.96346278 8.65166327,10.9365325 8,14.7272727 C7.34833673,10.9365325 4.11833506,7.96346278 0,7.36363636 C4.11833506,6.76380994 7.34833673,3.79074023 8,2.27373675e-13 C8.65166327,3.79074023 11.8816649,6.76380994 16,7.36363636 Z"/>
    <path stroke="#FFF" stroke-width="1.62" d="M17.6 8.18181818C13.4816649 8.84829198 10.2516633 12.1517028 9.6 16.3636364 8.94833673 12.1517028 5.71833506 8.84829198 1.6 8.18181818 5.71833506 7.51534438 8.94833673 4.21193359 9.6 0 10.2516633 4.21193359 13.4816649 7.51534438 17.6 8.18181818zM32 31.0909091C29.528999 31.4907934 27.590998 33.4728398 27.2 36 26.809002 33.4728398 24.871001 31.4907934 22.4 31.0909091 24.871001 30.6910248 26.809002 28.7089783 27.2 26.1818182 27.590998 28.7089783 29.528999 30.6910248 32 31.0909091z"/>
  </g>
</svg>
