<?xml version="1.0" encoding="UTF-8"?>
<svg width="109px" height="107px" viewBox="0 0 109 107" version="1.1" xmlns="http://www.w3.org/2000/svg" xmlns:xlink="http://www.w3.org/1999/xlink">
    <title>icons/illustrated/cheesy pizza copy</title>
    <defs>
        <path d="M7.85510309,0.137080722 L37.3489024,7.92503544 C37.505205,7.96642666 37.5947945,8.11360995 37.5492484,8.25417639 L30.7909086,29.2734551 C30.7194786,29.4916047 30.5544924,29.675313 30.3322646,29.7841445 C30.1100368,29.892976 29.8487822,29.9180104 29.6060049,29.8537374 L0.739002536,21.89124 C0.233851973,21.7575872 -0.055234192,21.2814856 0.0931250615,20.8275319 L6.67592354,0.7182202 C6.82432392,0.266200285 7.35106044,0.00660674749 7.85510309,0.137080722 Z" id="path-1"></path>
    </defs>
    <g id="Page-1" stroke="none" stroke-width="1" fill="none" fill-rule="evenodd">
        <g id="פופאפ_קופון-_1" transform="translate(-134.000000, -341.000000)">
            <g id="icons/illustrated/cheesy-pizza-copy" transform="translate(134.000000, 341.000000)">
                <g id="Group-4" transform="translate(4.000000, 28.000000)">
                    <g id="Group-3" transform="translate(16.269863, 0.000000)">
                        <path d="M34.3418125,12.7703015 L36.7165368,12.7703015 C36.7165368,21.5452531 40.3966814,24.7539685 47.7569706,22.3964477 C44.6539211,26.9760266 41.5677284,25.7941727 39.363459,24.7539685 C35.2338061,22.8051675 33.5599239,18.8106118 34.3418125,12.7703015 Z" id="Path-6-Copy" fill="#D8D8D8"></path>
                        <path d="M1.14837113,12.7703015 L4.04043282,12.7703015 C2.86250682,21.5452531 5.9536884,24.7539685 13.3139775,22.3964477 C10.2109281,26.9760266 6.24470222,25.3068122 4.04043282,24.2666079 C-0.089220075,22.317807 -1.05324064,18.4857048 1.14837113,12.7703015 Z" id="Path-6-Copy-2" fill="#D8D8D8"></path>
                        <path d="M20.6903645,0 L30.968591,0 L30.968591,13.8668064 L30.968591,17.534061 C30.968591,21.5050101 27.8687216,24.7539685 24.0799924,24.7539685 C20.2912632,24.7539685 17.1913938,21.5050101 17.1913938,17.534061 L17.1913938,11.5747723 L20.6903645,0 Z" id="Fill-2" fill="#F5002E"></path>
                        <path d="M63.5328753,12.0918003 L56.9808787,0 L46.6244969,0 L50.2175273,13.004389 L50.2175273,17.5673325 C50.2175273,21.5199823 53.2134806,24.7539685 56.8752013,24.7539685 C60.536922,24.7539685 63.5328753,21.5199823 63.5328753,17.5673325 L63.5328753,12.0918003 Z" id="Fill-4" fill="#F5002E"></path>
                        <path d="M61.9881781,24.7539685 L61.9881781,61.5555616 M3.41667123,61.5555616 L3.41667123,23.579331" id="Shape" stroke="#2F383F" stroke-width="1.3608" stroke-linecap="round" stroke-linejoin="round"></path>
                        <g id="Group-2" transform="translate(7.294565, 26.089477)">
                            <g id="Group">
                                <path d="M15.3968109,5.41311593 L41.7410898,5.28082846 C42.8147178,5.27543725 43.6894357,6.14141428 43.6948269,7.2150423 C43.6948604,7.22171139 43.6948596,7.2283806 43.6948244,7.23504968 L43.5976628,25.669997 C43.5920454,26.7358186 42.7292745,27.5983747 41.6634515,27.6037267 L15.3191726,27.7360142 C14.2455446,27.7414054 13.3708267,26.8754284 13.3654355,25.8018004 C13.365402,25.7951313 13.3654028,25.7884621 13.365438,25.781793 L13.4625996,7.34684569 C13.468217,6.28102404 14.3309879,5.41846795 15.3968109,5.41311593 Z" id="Rectangle" stroke="#4D4D4D" stroke-width="0.972" stroke-linecap="round" stroke-linejoin="round" stroke-dasharray="1.94400007724762,1.94400007724762" transform="translate(28.530131, 16.508421) scale(-1, 1) rotate(6.000000) translate(-28.530131, -16.508421) "></path>
                                <path d="M42.600853,33.0049115 C43.3091045,32.9913365 43.9686752,33.3640899 44.3223991,33.9778357 L44.3223991,33.9778357 L44.9518962,35.0700751 C45.0718297,35.2781715 45.13714,35.513239 45.1417427,35.7533785 C45.1568035,36.5391477 44.5320209,37.1883488 43.7462516,37.2034096 L43.7462516,37.2034096 L37.9960924,37.3141179 C37.876378,37.7051757 37.5162105,37.9929021 37.0850967,38.0011654 L37.0850967,38.0011654 L9.76888148,38.5247454 C9.41475625,38.5315331 9.08497126,38.3451571 8.90810895,38.038285 L8.90810895,38.038285 L7.61063993,35.7870591 C7.52871844,35.6449179 7.48410769,35.4843538 7.48096369,35.3203253 C7.47067614,34.7836031 7.89743574,34.3401641 8.43415793,34.3298765 L8.43415793,34.3298765 L15.4277011,34.1957368 C15.6713645,33.7887159 16.1129965,33.5126024 16.6222464,33.5028417 L16.6222464,33.5028417 Z" id="Combined-Shape" fill="#D1D1D1" opacity="0.436387173"></path>
                                <g id="icons/illustrated/sucsess-animation-copy" transform="translate(24.638236, 21.347024) rotate(-23.000000) translate(-24.638236, -21.347024) translate(5.556298, 6.223737)">
                                    <mask id="mask-2" fill="white">
                                        <use xlink:href="#path-1"></use>
                                    </mask>
                                    <path stroke="#2F383F" stroke-width="1.215" d="M6.86359371,-0.335702292 C7.20085249,-0.501914802 7.60843291,-0.554294168 8.01019996,-0.450287317 L8.01019996,-0.450287317 L38.1152697,7.49907579 L31.3702185,29.4564287 C31.2509533,29.8263771 30.9777967,30.1444467 30.5994549,30.3297319 C30.2479945,30.5018525 29.834783,30.5427328 29.4444684,30.4393671 L29.4444684,30.4393671 L0.583616846,22.4785317 C0.166489569,22.3681681 -0.156156494,22.1111994 -0.348273952,21.7947975 C-0.555617209,21.4533199 -0.61571422,21.0408602 -0.484227875,20.6385349 L-0.484227875,20.6385349 L6.09873366,0.528725906 C6.22370344,0.148074365 6.50251071,-0.157748404 6.86359371,-0.335702292 Z"></path>
                                    <path d="M33.7976568,20.4280972 L2.55230224,12.0648413 L-0.550521171,21.4053401 C-0.701779586,21.8611473 -0.407044244,22.3391928 0.107977716,22.4733913 L29.5342212,30.1253194 C29.7817427,30.1898548 30.0481026,30.1647182 30.2746731,30.0554424 C30.5012435,29.9461665 30.6694538,29.7617081 30.7422797,29.5426678 L33.7976568,20.4280972 Z" id="Path" fill="#FFFFFF" fill-rule="nonzero" mask="url(#mask-2)"></path>
                                    <g id="Group-5" mask="url(#mask-2)" stroke="#2F383F" stroke-linecap="round" stroke-linejoin="round" stroke-width="1.215">
                                        <g transform="translate(4.109030, 15.438592)" id="Path">
                                            <line x1="1.55214808" y1="2.12925772e-14" x2="1.3018753e-13" y2="4.79107593"></line>
                                            <line x1="4.35351572" y1="0.746615874" x2="2.80040596" y2="5.5376918"></line>
                                            <line x1="7.15392167" y1="1.49323175" x2="5.60177359" y2="6.28430768"></line>
                                            <line x1="19.4028127" y1="4.75793177" x2="17.8497029" y2="9.5490077"></line>
                                            <line x1="22.2032187" y1="5.50454764" x2="20.6510706" y2="10.2956236"></line>
                                            <line x1="25.0045863" y1="6.25116352" x2="23.4514765" y2="11.0413672"></line>
                                            <line x1="11.2843281" y1="2.59396683" x2="9.73218004" y2="7.38504276"></line>
                                            <line x1="14.9752478" y1="3.57782514" x2="13.4230997" y2="8.36890107"></line>
                                        </g>
                                    </g>
                                    <line x1="2.55230224" y1="12.0648413" x2="33.7976568" y2="20.4906461" id="Path-15" stroke="#31383E" stroke-width="0.972" mask="url(#mask-2)"></line>
                                </g>
                            </g>
                            <g id="logo" transform="translate(18.263117, 10.722550)">
                                <path d="M10.9480468,2.97961172 L7.92023278,0.183135324 C7.79251108,0.0648604272 7.62265608,0 7.44173076,0 C7.26130114,0 7.09111568,0.0648604272 6.96339398,0.183135324 L4.4241609,2.52848837 L0.19777863,6.4320178 C-0.0659262101,6.67574039 -0.0659262101,7.07222837 0.19777863,7.31564573 L3.22575789,10.1127326 C3.3534796,10.2307022 3.5233346,10.2957153 3.70409468,10.2957153 C3.88468954,10.2957153 4.05487499,10.2307022 4.1825967,10.1127326 L7.97079273,6.61362699 L10.9480468,3.86339227 C11.2119169,3.61982229 11.2119169,3.22333431 10.9480468,2.97961172" id="Fill-10" fill="#FFFFFF"></path>
                                <path d="M8.00836229,3.9857455 C7.84558413,4.13581335 7.6319966,4.21084727 7.4195068,4.21084727 C7.207017,4.21084727 6.99374311,4.13581335 6.83096495,3.9857455 C6.66865724,3.8358225 6.58695452,3.63853253 6.58679771,3.44211167 C6.58695452,3.24540111 6.66865724,3.04811114 6.83096495,2.89847785 C6.99374311,2.74855485 7.20670337,2.67294151 7.4195068,2.67294151 C7.6319966,2.67294151 7.84558413,2.74797544 8.00836229,2.8986227 C8.17035636,3.04811114 8.25237272,3.24540111 8.25237272,3.44211167 C8.25237272,3.63853253 8.17035636,3.8358225 8.00836229,3.9857455 M10.5353443,3.21831357 L7.66179222,0.564024689 C7.523321,0.435974515 7.29859932,0.435974515 7.16012811,0.564024689 L4.0530725,3.4339999 L7.42844549,6.55181882 L10.5353443,3.68169876 C10.6739723,3.55393829 10.6739723,3.34636375 10.5353443,3.21831357" id="Fill-12" fill="#F5002E"></path>
                                <path d="M4.36536612,6.32124121 C4.52786547,6.17070655 4.74118508,6.09580142 4.95403412,6.09580142 C5.16688317,6.09580142 5.38051648,6.17070655 5.54254527,6.32124121 C5.70582888,6.47134123 5.7872354,6.66780418 5.7872354,6.86513644 C5.7872354,7.06130963 5.70582888,7.258497 5.54254527,7.40845213 C5.38051648,7.55768284 5.16688317,7.63345727 4.95403412,7.63345727 C4.74118508,7.63345727 4.52786547,7.55797261 4.36552298,7.40845213 C4.20286678,7.25820723 4.12146025,7.06116474 4.12146025,6.86513644 C4.12146025,6.66823884 4.20286678,6.47134123 4.36536612,6.32124121 L4.36536612,6.32124121 Z M3.09972209,7.37773668 C2.93675218,7.52696739 2.72327572,7.60230717 2.51074038,7.60230717 C2.29726392,7.6020174 2.08441488,7.52711228 1.92175868,7.37773668 C1.75894563,7.22778155 1.67832336,7.03059418 1.67832336,6.83413123 C1.67832336,6.63752339 1.75941618,6.44033601 1.92175868,6.28965646 C2.08441488,6.1399911 2.29726392,6.06479621 2.51074038,6.06479621 C2.72327572,6.06479621 2.93706589,6.1399911 3.09972209,6.28980135 C3.26222143,6.44033601 3.34300055,6.63752339 3.34268775,6.83398634 C3.34268775,7.03059418 3.26206458,7.22807132 3.09972209,7.37773668 L3.09972209,7.37773668 Z M0.61062737,6.61303796 C0.471969626,6.74111558 0.471969626,6.94858973 0.61062737,7.07666735 L3.48479534,9.73195979 C3.55412421,9.79570883 3.64478505,9.82772823 3.73560273,9.82772823 C3.82642042,9.82772823 3.91739495,9.79570883 3.98672383,9.73195979 L7.09287687,6.86238364 L3.71662356,3.74389647 L0.61062737,6.61303796 Z" id="Fill-14" fill="#017AFF"></path>
                            </g>
                        </g>
                        <path d="M16.5651576,12.3769842 L16.5651576,17.3867159 C16.5651576,21.7810429 12.9202759,25.3433487 8.42408647,25.3433487 C3.92789707,25.3433487 0.283015396,21.7810429 0.283015396,17.3867159 L0.283015396,12.3769842 L16.5651576,12.3769842 Z" id="Path" stroke="#2F383F" stroke-width="1.3608" stroke-linecap="round" stroke-linejoin="round"></path>
                        <path d="M66.0378203,12.3769842 L66.0378203,17.3867159 C66.0378203,21.7810429 62.3929386,25.3433487 57.8967492,25.3433487 C53.4005598,25.3433487 49.7556781,21.7810429 49.7556781,17.3867159 L49.7556781,12.3769842 L66.0378203,12.3769842 Z" id="Path-Copy-3" stroke="#2F383F" stroke-width="1.3608" stroke-linecap="round" stroke-linejoin="round"></path>
                        <path d="M33.4735359,12.3769842 L33.4735359,17.3867159 C33.4735359,21.7810429 29.6884665,25.3433487 25.0193467,25.3433487 C20.350227,25.3433487 16.5651576,21.7810429 16.5651576,17.3867159 L16.5651576,12.3769842 L33.4735359,12.3769842 Z" id="Path-Copy-4" stroke="#2F383F" stroke-width="1.3608" stroke-linecap="round" stroke-linejoin="round"></path>
                        <path d="M49.7556781,12.3769842 L49.7556781,17.3867159 C49.7556781,21.7810429 46.1107964,25.3433487 41.614607,25.3433487 C37.1184176,25.3433487 33.4735359,21.7810429 33.4735359,17.3867159 L33.4735359,12.3769842 L49.7556781,12.3769842 Z" id="Path-Copy-5" stroke="#2F383F" stroke-width="1.3608" stroke-linecap="round" stroke-linejoin="round"></path>
                        <polygon id="Path-3" stroke="#2F383F" stroke-width="1.3608" stroke-linecap="round" stroke-linejoin="round" points="8.30323882 0.0395764058 57.8967492 0.0395764058 66.0378203 12.4165606 0.283015396 12.3769842"></polygon>
                        <line x1="16.5651576" y1="12.4165606" x2="20.0825773" y2="0.0395764058" id="Path-5" stroke="#2F383F" stroke-width="1.3608"></line>
                        <line x1="45.9982607" y1="12.4165606" x2="49.5156805" y2="0.0395764058" id="Path-5-Copy-2" stroke="#2F383F" stroke-width="1.3608" transform="translate(47.756971, 6.228069) scale(-1, 1) translate(-47.756971, -6.228069) "></line>
                        <line x1="33.2743035" y1="12.4165606" x2="33.0750711" y2="0.0395764058" id="Path-5-Copy" stroke="#2F383F" stroke-width="1.3608"></line>
                    </g>
                    <path d="M0,62.6944384 L22.9268518,62.6944384 M74.457143,62.6944384 L98.0655055,62.6944384" id="Shape-Copy-3" stroke="#2F383F" stroke-width="1.26" stroke-linecap="round" stroke-linejoin="round"></path>
                </g>
                <path d="M103.82963,24.52 C102.177148,24.7839236 100.88111,26.0920743 100.61963,27.76 C100.35815,26.0920743 99.0621116,24.7839236 97.4096296,24.52 C99.0621116,24.2560764 100.35815,22.9479257 100.61963,21.28 C100.88111,22.9479257 102.177148,24.2560764 103.82963,24.52 Z" id="Path" fill="#D1D1D1" fill-rule="nonzero"></path>
                <path d="M94.1996296,8.86 C91.4454931,9.25588544 89.2854294,11.2181114 88.8496296,13.72 C88.4138298,11.2181114 86.2537662,9.25588544 83.4996296,8.86 C86.2537662,8.46411456 88.4138298,6.50188855 88.8496296,4 C89.2854294,6.50188855 91.4454931,8.46411456 94.1996296,8.86 Z" id="Path" fill="#017AFF" fill-rule="nonzero"></path>
                <path d="M95.2696296,9.4 C92.5154931,9.83987271 90.3554294,12.0201238 89.9196296,14.8 C89.4838298,12.0201238 87.3237662,9.83987271 84.5696296,9.4 C87.3237662,8.96012729 89.4838298,6.77987617 89.9196296,4 C90.3554294,6.77987617 92.5154931,8.96012729 95.2696296,9.4 Z" id="Path" stroke="#404D57" stroke-width="1.08" fill-rule="nonzero"></path>
                <path d="M104.89963,24.52 C103.247148,24.7839236 101.95111,26.0920743 101.68963,27.76 C101.42815,26.0920743 100.132112,24.7839236 98.4796296,24.52 C100.132112,24.2560764 101.42815,22.9479257 101.68963,21.28 C101.95111,22.9479257 103.247148,24.2560764 104.89963,24.52 Z" id="Path" stroke="#404D57" stroke-width="1.08" fill-rule="nonzero"></path>
            </g>
        </g>
    </g>
</svg>