<svg xmlns="http://www.w3.org/2000/svg" viewBox="0 0 108 109">
  <g fill="none" fill-rule="evenodd" transform="translate(1 2)">
    <g transform="translate(10 10)">
      <ellipse cx="48" cy="88.993" fill="#E3E3E3" rx="48" ry="7.007"/>
      <path fill="#F5002E" d="M81.2905109,2.80291971 C84.3833055,2.80291971 86.8905109,5.31012511 86.8905109,8.40291971 L86.8905109,76.3854015 C86.8905109,79.4781961 84.3833055,81.9854015 81.2905109,81.9854015 L75.6360937,81.9857854 C75.6643034,81.7579857 75.6788321,81.525945 75.6788321,81.2905109 L75.6788321,13.3080292 C75.6788321,10.2152346 73.1716267,7.7080292 70.0788321,7.7080292 L41.3856799,7.7086488 C41.7276026,4.94345764 44.0853594,2.80291971 46.9430657,2.80291971 L81.2905109,2.80291971 Z"/>
      <path fill="#FFF" stroke="#383940" stroke-linecap="round" stroke-linejoin="round" d="M63.7664234,7.7080292 L74.9781022,7.7080292 C78.0741218,7.7080292 80.5839416,10.2402581 80.5839416,13.3639208 L80.5839416,81.2346194 C80.5839416,84.358282 78.0741218,86.8905109 74.9781022,86.8905109 L21.7226277,86.8905109 C18.6266081,86.8905109 16.1167883,84.358282 16.1167883,81.2346194 L16.1167883,13.3639208 C16.1167883,10.2402581 18.6266081,7.7080292 21.7226277,7.7080292 L32.9343066,7.7080292"/>
      <path fill="#FFF" stroke="#383940" stroke-linecap="round" stroke-linejoin="round" d="M32.9343066,11.2116788 L32.9343066,5.60583942 C32.9343066,2.5098198 35.4441264,0 38.540146,0 L58.1605839,0 C61.2566036,0 63.7664234,2.5098198 63.7664234,5.60583942 L63.7664234,11.2116788 L32.9343066,11.2116788 Z"/>
      <rect width="1" height="37.139" x="20.321" y="14.015" fill="#4D4D4D" rx=".5"/>
      <rect width="1" height="7.708" x="20.321" y="56.058" fill="#4D4D4D" rx=".5"/>
      <path fill="#D1D1D1" d="M41.3386861,0.700729927 C39.0190902,0.700729927 37.1386861,2.58113398 37.1386861,4.90072993 L37.1386861,11.2116788 L32.2335766,11.2116788 L32.2335766,4.90072993 C32.2335766,2.58113398 34.1139807,0.700729927 36.4335766,0.700729927 Z" style="mix-blend-mode:multiply"/>
    </g>
    <line x1="57" x2="79.5" y1="32.5" y2="32.5" stroke="#4D4D4D" stroke-linecap="round" stroke-linejoin="round" stroke-width=".7"/>
    <line x1="71" x2="79.5" y1="36.5" y2="36.5" stroke="#4D4D4D" stroke-linecap="round" stroke-linejoin="round" stroke-width=".7"/>
    <line x1="41" x2="80" y1="44.5" y2="44.5" stroke="#4D4D4D" stroke-linecap="round" stroke-linejoin="round" stroke-width=".7"/>
    <line x1="41" x2="80" y1="49.5" y2="49.5" stroke="#4D4D4D" stroke-linecap="round" stroke-linejoin="round" stroke-width=".7"/>
    <line x1="41" x2="80" y1="54.5" y2="54.5" stroke="#4D4D4D" stroke-linecap="round" stroke-linejoin="round" stroke-width=".7"/>
    <line x1="41" x2="80" y1="58.5" y2="58.5" stroke="#4D4D4D" stroke-linecap="round" stroke-linejoin="round" stroke-width=".7"/>
    <line x1="66" x2="79.5" y1="73.5" y2="73.5" stroke="#4D4D4D" stroke-linecap="round" stroke-linejoin="round" stroke-width=".7"/>
    <line x1="72" x2="79.5" y1="77.5" y2="77.5" stroke="#4D4D4D" stroke-linecap="round" stroke-linejoin="round" stroke-width=".7"/>
    <path fill="#017AFF" d="M31.3760629,98.6202094 L31.9559471,101.136776 C32.0820044,101.683836 31.8409391,102.252487 31.3760629,102.504669 C30.9215289,102.751241 30.3688948,102.592015 30.0870048,102.133262 L28.9891742,100.346636 L28.9891742,100.346636" transform="rotate(2 30.49 100.62)"/>
    <path fill="#FFF" stroke="#383940" stroke-linecap="round" stroke-linejoin="round" d="M12,46 C14.260497,45.4348758 16.5766097,46.6977953 17.3259183,48.9040928 L32.6261993,93.9549201 C33.3918006,96.2091905 32.229148,98.6640695 30,99.5 C27.8711663,100.298313 25.4982453,99.2197122 24.6999327,97.0908785 C24.682095,97.0433113 24.6651393,96.995418 24.6490744,96.9472232 L9.30384048,50.9115214 C8.63701359,48.9110408 9.71815359,46.7487608 11.7186343,46.0819339 C11.8113398,46.0510321 11.9051975,46.0237006 12,46 Z"/>
    <path fill="#FFF" stroke="#383940" stroke-linecap="round" stroke-linejoin="round" d="M11,44.35 C10.4473399,44.543431 10.1555294,45.1477024 10.3476761,45.7008104 L23.6465642,83.9826097 C23.8329538,84.5191457 24.4190009,84.8029953 24.9555369,84.6166057 C24.9704837,84.6114132 24.9853087,84.6058765 25,84.6 C25.5594753,84.3762099 25.8439573,83.7519346 25.6457799,83.1828824 L12.3484475,45.000542 C12.1563037,44.4488149 11.5532772,44.157315 11.0015501,44.3494588 C11.0010333,44.3496388 11.0005166,44.3498192 11,44.35 Z"/>
    <g fill-rule="nonzero" transform="translate(2 2)">
      <path fill="#D1D1D1" d="M14.33,23.52 C12.6775181,23.7839236 11.3814799,25.0920743 11.12,26.76 C10.8585201,25.0920743 9.56248194,23.7839236 7.91,23.52 C9.56248194,23.2560764 10.8585201,21.9479257 11.12,20.28 C11.3814799,21.9479257 12.6775181,23.2560764 14.33,23.52 Z"/>
      <path fill="#017AFF" d="M10.7,4.86 C7.94586343,5.25588544 5.78579981,7.21811145 5.35,9.72 C4.91420019,7.21811145 2.75413657,5.25588544 0,4.86 C2.75413657,4.46411456 4.91420019,2.50188855 5.35,0 C5.78579981,2.50188855 7.94586343,4.46411456 10.7,4.86 Z"/>
      <path stroke="#404D57" stroke-width="1.08" d="M11.77 5.4C9.01586343 5.83987271 6.85579981 8.02012383 6.42 10.8 5.98420019 8.02012383 3.82413657 5.83987271 1.07 5.4 3.82413657 4.96012729 5.98420019 2.77987617 6.42 0 6.85579981 2.77987617 9.01586343 4.96012729 11.77 5.4zM15.4 23.52C13.7475181 23.7839236 12.4514799 25.0920743 12.19 26.76 11.9285201 25.0920743 10.6324819 23.7839236 8.98 23.52 10.6324819 23.2560764 11.9285201 21.9479257 12.19 20.28 12.4514799 21.9479257 13.7475181 23.2560764 15.4 23.52z"/>
    </g>
    <path stroke="#017AFF" stroke-linecap="round" stroke-linejoin="round" d="M37.3360018,78.8753468 C47.6218908,67.9618639 53,83 46.3072634,88.4538401 C39.6145267,93.9076801 48.090898,70.414941 52.9190439,74.3086958 C57.9333336,78.3525701 56.7159754,69.0807998 57.677929,68.2336947"/>
  </g>
</svg>
