<?xml version="1.0" encoding="UTF-8"?>
<svg width="85px" height="85px" viewBox="0 0 85 85" version="1.1" xmlns="http://www.w3.org/2000/svg" xmlns:xlink="http://www.w3.org/1999/xlink">
    <title>icons/fab list</title>
    <defs>
        <path d="M27.585831,0.7977015 C42.4652145,0.7977015 54.5272515,12.8597385 54.5272515,27.7390665 L54.5272515,27.807831 C54.5272515,42.687159 42.4652145,54.749196 27.585831,54.749196 C12.706725,54.749196 0.644466,42.687159 0.644466,27.807831 L0.644466,27.7390665 C0.644466,12.8597385 12.706725,0.7977015 27.585831,0.7977015 Z" id="path-1"></path>
        <filter x="-43.9%" y="-34.6%" width="187.2%" height="187.3%" filterUnits="objectBoundingBox" id="filter-2">
            <feMorphology radius="0.5" operator="dilate" in="SourceAlpha" result="shadowSpreadOuter1"></feMorphology>
            <feOffset dx="0" dy="5" in="shadowSpreadOuter1" result="shadowOffsetOuter1"></feOffset>
            <feGaussianBlur stdDeviation="7" in="shadowOffsetOuter1" result="shadowBlurOuter1"></feGaussianBlur>
            <feColorMatrix values="0 0 0 0 0.959461987   0 0 0 0 0   0 0 0 0 0.182184726  0 0 0 0.36 0" type="matrix" in="shadowBlurOuter1"></feColorMatrix>
        </filter>
    </defs>
    <g id="Page-1" stroke="none" stroke-width="1" fill="none" fill-rule="evenodd">
        <g id="מסניף-אחר_מפה-copy-2" transform="translate(-10.000000, -580.000000)">
            <g id="icons/fab-list" transform="translate(25.000000, 590.000000)">
                <g id="Rectangle-1065-copy-3">
                    <use fill="black" fill-opacity="1" filter="url(#filter-2)" xlink:href="#path-1"></use>
                    <use fill="#F5002E" fill-rule="evenodd" xlink:href="#path-1"></use>
                </g>
                <path d="M17.7029241,33.0581775 C18.6701257,33.0581775 19.4543397,33.8256474 19.4543397,34.7725504 C19.4543397,35.7194746 18.6701257,36.4869445 17.7029241,36.4869445 C16.7357481,36.4869445 15.9518411,35.7194746 15.9518411,34.7725504 C15.9518411,33.8256474 16.7357481,33.0581775 17.7029241,33.0581775 Z M38.3402239,33.9917011 C38.8589231,33.9917011 39.2795156,34.403193 39.2795156,34.9111231 C39.2795156,35.4190319 38.8589231,35.830715 38.3402239,35.830715 L38.3402239,35.830715 L22.9442008,35.830715 C22.4255016,35.830715 22.0049091,35.4190319 22.0049091,34.9111231 C22.0049091,34.403193 22.4255016,33.9917011 22.9442008,33.9917011 L22.9442008,33.9917011 Z M17.7029241,25.3039666 C18.6701257,25.3039666 19.4543397,26.0714577 19.4543397,27.0183607 C19.4543397,27.9650938 18.6701257,28.7327548 17.7029241,28.7327548 C16.7357481,28.7327548 15.9518411,27.9650938 15.9518411,27.0183607 C15.9518411,26.0714577 16.7357481,25.3039666 17.7029241,25.3039666 Z M38.3402239,26.0522806 C38.8589231,26.0522806 39.2795156,26.4637725 39.2795156,26.9717026 C39.2795156,27.4796114 38.8589231,27.8912945 38.3402239,27.8912945 L38.3402239,27.8912945 L22.9442008,27.8912945 C22.4255016,27.8912945 22.0049091,27.4796114 22.0049091,26.9717026 C22.0049091,26.4637725 22.4255016,26.0522806 22.9442008,26.0522806 L22.9442008,26.0522806 Z M17.7029241,17.549777 C18.6701257,17.549777 19.4543397,18.3172469 19.4543397,19.2641711 C19.4543397,20.211074 18.6701257,20.9785652 17.7029241,20.9785652 C16.7357481,20.9785652 15.9518411,20.211074 15.9518411,19.2641711 C15.9518411,18.3172469 16.7357481,17.549777 17.7029241,17.549777 Z M38.3402239,18.1128601 C38.8589231,18.1128601 39.2795156,18.524352 39.2795156,19.0322821 C39.2795156,19.5401909 38.8589231,19.951874 38.3402239,19.951874 L38.3402239,19.951874 L22.9442008,19.951874 C22.4255016,19.951874 22.0049091,19.5401909 22.0049091,19.0322821 C22.0049091,18.524352 22.4255016,18.1128601 22.9442008,18.1128601 L22.9442008,18.1128601 Z" id="Combined-shape-4135" fill="#FFFFFF"></path>
            </g>
        </g>
    </g>
</svg>