<?xml version="1.0" encoding="UTF-8"?>
<svg width="77px" height="40px" viewBox="0 0 77 40" version="1.1" xmlns="http://www.w3.org/2000/svg" xmlns:xlink="http://www.w3.org/1999/xlink">
    <title>illustrated/pizza copy 4</title>
    <g id="Page-1" stroke="none" stroke-width="1" fill="none" fill-rule="evenodd">
        <g id="עמוד-הסניףחדש" transform="translate(-153.000000, -72.000000)">
            <g id="Group-5" transform="translate(91.000000, 72.000000)">
                <g id="illustrated/pizza-copy-4" transform="translate(62.000000, 0.000000)">
                    <g id="Group-2" transform="translate(14.745023, 1.602171)">
                        <path d="M1.7685412,8.16895064 L1.76894333,9.40725313 C1.76894333,11.6543386 3.59056603,13.4759613 5.8376515,13.4759613 C6.99864566,13.4759613 8.04606489,12.9896892 8.78734902,12.2097053 C8.46484336,14.1333747 6.79167654,15.5987656 4.77624937,15.5987656 C2.5291639,15.5987656 0.707541203,13.7771429 0.707541203,11.5300574 L0.707541203,8.16895064 L1.7685412,8.16895064 Z" id="Combined-Shape" fill="#D1D1D1" opacity="0.37453497"></path>
                        <path d="M20.1661781,8.16895064 L20.1665803,9.40725313 C20.1665803,11.6543386 21.9882029,13.4759613 24.2352884,13.4759613 C25.3962826,13.4759613 26.4437018,12.9896892 27.1849859,12.2097053 C26.8624803,14.1333747 25.1893135,15.5987656 23.1738863,15.5987656 C20.9268008,15.5987656 19.1051781,13.7771429 19.1051781,11.5300574 L19.1051781,8.16895064 L20.1661781,8.16895064 Z" id="Combined-Shape-Copy" fill="#D1D1D1" opacity="0.37453497"></path>
                        <g id="Group">
                            <polygon id="Fill-1" fill="#017AFF" points="10.6954279 33.556108 27.3826269 33.556108 27.3826269 18.6668563 10.6954279 18.6668563"></polygon>
                            <path d="M11.3087262,0.0552917441 L17.3794971,0.0552917441 L17.3794971,8.37943623 L17.3794971,10.5808629 C17.3794971,12.9645952 15.5485784,14.9149216 13.310789,14.9149216 C11.0729995,14.9149216 9.24208079,12.9645952 9.24208079,10.5808629 L9.24208079,7.00354458" id="Fill-2" fill="#F5002E"></path>
                            <path d="M35.777134,7.31391276 L31.527103,0.0552917441 L24.809312,0.0552917441 L27.1399742,7.86173322 L27.1399742,10.6008355 C27.1399742,12.9735828 29.0833352,14.9149216 31.4585541,14.9149216 C33.8337731,14.9149216 35.777134,12.9735828 35.777134,10.6008355 L35.777134,7.31391276 Z" id="Fill-4" fill="#F5002E"></path>
                            <path d="M32.4737135,0 C32.9140506,0 33.1545012,0.131642503 33.3656385,0.490324513 C33.9558763,1.49298011 34.5621345,2.50561341 35.1553008,3.49433967 L35.2821969,3.70583131 L35.4086086,3.91648374 L35.4212196,3.93749821 C36.0455612,4.97772125 36.682789,6.0394131 37.3016785,7.08769233 C37.4187599,7.28584121 37.4920491,7.52757287 37.5006285,7.74325055 L37.501256,7.76403891 L37.5014732,7.78439557 L37.5021069,8.14739796 C37.5045101,9.23399277 37.5070525,10.3575764 37.4130748,11.4496335 C37.3397058,12.3020186 36.9364812,13.105743 36.1518919,13.9820777 C35.957932,14.1987437 35.8337719,14.5117354 35.8333546,14.7789286 C35.8291999,17.3395914 35.8267617,19.6312468 35.8253781,21.9974657 C35.5246307,22.3061326 35.1826361,22.6534032 34.800146,23.0396118 L34.799195,15.0813887 L34.3329903,15.222795 L34.2891024,15.2359918 L34.245603,15.2488172 C33.5936832,15.4391188 32.9676333,15.5358017 32.3835278,15.5358017 C30.7474055,15.5358017 29.3818993,14.8018234 28.2070837,13.3003872 L28.17121,13.2542259 L27.8770809,12.8732725 L27.5926504,13.261527 L27.5586237,13.3076262 L27.5250788,13.3523891 C26.4154237,14.8219617 25.0406991,15.538913 23.3206917,15.538913 C21.5996039,15.5378255 20.213583,14.8027267 19.082648,13.2971009 L19.0481497,13.2508286 L18.7561314,12.8562399 L18.4655623,13.2521147 L18.431333,13.2983983 L18.3975913,13.3433414 C17.2814823,14.8188277 15.9045461,15.5386641 14.1877111,15.5386641 C12.4646614,15.5380599 11.0781606,14.8021535 9.94856662,13.2942936 L9.91410962,13.2479523 L9.62012642,12.8496771 L9.32975618,13.250818 L9.30703477,13.2820478 L9.28465404,13.3124821 C8.54473437,14.3133028 7.67041996,14.9666369 6.61236755,15.3064443 C6.12430503,15.4630979 5.61660765,15.5427709 5.10381891,15.5427709 C4.5005784,15.5427709 3.88521033,15.438272 3.22338085,15.2245144 L3.18165634,15.2109141 L2.70768564,15.054728 L2.70768564,35.8301447 L9.76930797,35.8301447 L9.76930797,20.4593277 L27.7643366,20.4593277 L27.7643366,35.8256645 L34.799195,35.8256645 L34.799,33.19 L35.824,34.557 L35.8242218,35.984507 C35.8242218,36.3480483 35.7923586,36.5659473 35.6869117,36.6688447 C35.5825117,36.7707217 35.3643209,36.8032867 34.9996983,36.8044277 L30.9750628,36.8040388 L26.970104,36.8039299 L22.8650666,36.8039299 L19.013764,36.8040543 L14.8056889,36.8024365 L10.8513484,36.8025609 C8.03911056,36.8025609 5.22763382,36.8024365 2.41551979,36.8018142 C2.13349783,36.8017599 1.94660953,36.774962 1.8357867,36.6668165 C1.73055003,36.5641223 1.70138296,36.393545 1.69882321,36.1403604 L1.6986746,29.9875666 C1.69875219,27.477789 1.69900947,24.9424972 1.69986265,22.403188 L1.70004136,21.895279 L1.7005901,20.5648123 C1.70147029,18.6457116 1.70274798,16.7272772 1.70460267,14.8188035 C1.70501722,14.4703736 1.5955732,14.197173 1.34866922,13.9336331 C0.489097508,13.0160115 0.0392426007,11.9161788 0.0110437073,10.6637079 L0.0103182728,10.6257075 L0.00984290606,10.5868649 L0.00730619699,10.31919 C-0.000473639755,9.48422663 -0.00845389321,8.63016087 0.0199346317,7.79395625 C0.0281004528,7.55174632 0.10359048,7.28725921 0.22220038,7.0865701 C0.816911183,6.08002448 1.42659773,5.06208299 2.02294594,4.0680629 L2.15052036,3.85543761 L2.28924511,3.62425689 C2.91849396,2.57583904 3.56905556,1.49169776 4.20286886,0.42150203 C4.37942249,0.123424189 4.59024923,0.00635220391 4.95137704,0.00282038517 L4.96841543,0.00273773311 L5.14804047,0.00305333053 L5.50687496,0.00365210715 C7.02664068,0.00610046487 8.52573581,0.00741704965 9.91518443,0.00810977677 L16.8730083,0.00833814641 L16.8730083,0.00833814641 C18.0904467,0.00808924743 19.3078814,0.00784034871 20.525443,0.00784034872 L21.8935236,0.00809739628 L21.8935236,0.00809739628 L23.5527567,0.00883593263 L25.0589941,0.00952042083 L28.2875113,0.00923224952 C29.8689946,0.00805366568 31.2037393,0.00509591297 32.4737135,0 Z M26.7409588,21.4133254 L10.794969,21.4133254 L10.794969,35.8333804 L26.7409588,35.8333804 L26.7409588,21.4133254 Z M9.22944916,8.05934474 L0.983502905,8.05934474 L0.983343036,8.51694947 L0.982896724,8.61908923 C0.98213244,8.75528599 0.980735347,8.89137751 0.979233306,9.0256 L0.978094101,9.12599258 L0.977651237,9.16475068 L0.975497937,9.35445484 C0.970344561,9.83103959 0.967931991,10.3193283 0.989700704,10.7996621 C1.03488779,11.8010573 1.45622285,12.7004739 2.1298342,13.3737579 C2.80166684,14.0452641 3.7247724,14.4918843 4.77591799,14.5886973 C4.88866306,14.5991958 5.00386656,14.604454 5.11802537,14.604454 C6.03768435,14.604454 6.91206493,14.2793796 7.60132201,13.7384243 C8.29207658,13.1962937 8.79656318,12.4376619 8.9763324,11.5733244 C9.1052529,10.9541248 9.13842808,10.3114005 9.15839749,9.67863452 L9.16016927,9.62147194 L9.16346151,9.51057543 L9.16506104,9.45513773 L9.16665699,9.39934307 C9.17480305,9.11516218 9.18318538,8.82240542 9.19971438,8.53326056 L9.20554039,8.43697133 L9.22944916,8.05934474 Z M18.2916874,8.05125549 L10.116864,8.05125549 L10.1162166,8.60934389 C10.1154003,8.74406159 10.1139081,8.8780332 10.1123032,9.01007887 L10.1110858,9.10884607 L10.1104032,9.16396723 L10.1092699,9.25127721 L10.1081713,9.33841422 C10.1021118,9.8309091 10.0993445,10.302203 10.1238523,10.7821031 C10.1746396,11.7743325 10.5697525,12.6513953 11.2140017,13.3161472 C11.8563325,13.9789197 12.7469987,14.4309459 13.7928326,14.5729938 C13.9466954,14.5939176 14.1046317,14.604454 14.2619145,14.604454 C15.0841031,14.604454 15.8936681,14.3177215 16.5662252,13.8321629 C17.2381439,13.3470652 17.7728916,12.6638275 18.0475589,11.8724326 C18.2943218,11.1613553 18.3064952,10.4405493 18.2892247,9.73568956 L18.2873749,9.66406488 C18.2864072,9.62828103 18.2853814,9.59254065 18.2843244,9.55684713 L18.2810445,9.44824048 L18.2790009,9.3802567 L18.276839,9.30666452 C18.2690581,9.03631233 18.2632801,8.76061871 18.2725526,8.48996233 L18.2752054,8.42212251 L18.2916874,8.05125549 Z M36.6117335,8.05573569 L28.3825715,8.05573569 L28.3823884,8.5125421 L28.3818772,8.61374502 C28.3810018,8.74861835 28.3794018,8.88310664 28.3776821,9.01565635 L28.3763777,9.11480099 L28.375985,9.14446189 L28.3748135,9.22992609 L28.3736161,9.32023594 C28.3674216,9.80058568 28.3647847,10.2607129 28.3894407,10.7304823 C28.4443569,11.7686457 28.8632004,12.6841883 29.5340117,13.364865 C30.2039044,14.0446096 31.1255912,14.4904743 32.188948,14.5883248 C32.299963,14.5985761 32.4133636,14.6037073 32.5257193,14.6037073 C33.4386717,14.6037073 34.3204206,14.2664211 35.0168731,13.7128813 C35.7146761,13.1582681 36.2258449,12.3870589 36.3985261,11.5229768 C36.5390195,10.8202068 36.5521679,10.0887317 36.5643324,9.38067491 C36.5690507,9.10302761 36.5740535,8.81716889 36.5868249,8.53501212 L36.5919926,8.4294093 L36.6117335,8.05573569 Z M27.345241,8.06096259 L19.3041336,8.06096259 L19.3041336,8.41647193 L19.3038357,8.51197904 L19.3029896,8.60763866 C19.3004289,8.83101855 19.2939538,9.05529902 19.2875627,9.27380215 C19.2691479,9.90402315 19.2506,10.5557954 19.3248958,11.1913901 C19.4355755,12.137978 19.9261399,12.9861433 20.6406939,13.5995573 C21.3462516,14.2052483 22.2698905,14.5816949 23.2588907,14.5980894 L23.3859441,14.5981676 C24.3685255,14.5837878 25.2865102,14.2166227 25.9908427,13.6225503 C26.7115018,13.0147072 27.2081965,12.1696831 27.323655,11.2226536 C27.4010011,10.5877602 27.3827329,9.96200775 27.3625417,9.28581818 C27.3549782,9.03321227 27.3471902,8.7733271 27.3455535,8.51365412 L27.345241,8.06096259 Z M10.0235831,0.957823958 L8.3078037,0.957271526 C7.54324608,0.957640115 6.68605384,0.959479569 5.81814214,0.96696286 L5.73921805,0.967658785 L5.59714798,0.968991055 L5.52604454,0.969697391 L5.45495646,0.970430747 L5.44161501,0.970748392 C5.17449238,0.980646218 4.89069442,1.2020235 4.76002069,1.41612525 C3.96245586,2.72244001 3.16226311,4.05502071 2.38577252,5.3494016 L1.86995207,6.20939808 L1.84535908,6.25195108 C1.81366189,6.3088662 1.78579372,6.36696752 1.75348193,6.43459845 L1.73111046,6.48138855 L1.73111046,6.48138855 L1.69788223,6.54927918 L1.4555176,7.03447268 L2.00322135,7.06141202 L2.03157416,7.06280703 L2.058984,7.06424197 C2.09508951,7.06618556 2.12946804,7.06824116 2.16256195,7.07029619 C2.25151495,7.07564196 2.33599089,7.08065743 2.42025836,7.08206033 L2.80077096,7.08269749 L3.63258239,7.08329659 L5.29611355,7.08394174 C6.06548749,7.08394174 6.83448086,7.08344387 7.60766044,7.08195034 C7.72248064,7.08195054 7.84914939,7.09255246 7.98688271,7.10405189 C8.13235642,7.11614638 8.28241031,7.12849483 8.42698991,7.12849483 C8.62837827,7.12849483 8.92070589,7.10471104 9.14733419,6.93801527 C9.43062331,6.72964583 9.5548712,6.37449564 9.65235124,6.00493177 L9.66737131,5.94728096 L9.67402123,5.92138933 C9.67845603,5.90406558 9.68291848,5.88653226 9.68755649,5.86828403 C9.71891813,5.74496205 9.74853139,5.62822316 9.78361955,5.52301225 C10.1077403,4.55368903 10.4202162,3.60183717 10.7509606,2.59409635 C10.8568649,2.27159393 10.9634787,1.94708916 11.0710175,1.620092 L11.1356541,1.4235887 L11.2887216,0.958104454 L10.3523676,0.958000917 L10.0235831,0.957823958 L10.0235831,0.957823958 Z M29.7409362,0.957637812 L26.2504423,0.957606653 L26.3924627,1.41691448 L26.3992644,1.43871316 L26.4058211,1.45984585 C26.41882,1.50185877 26.4312646,1.54276781 26.4455566,1.58996982 C26.4727655,1.67870197 26.4954282,1.75258272 26.519452,1.82601826 C26.6109474,2.10354732 26.7026627,2.38083198 26.7945058,2.65801295 L26.9323367,3.0736695 L26.9424564,3.10420959 L27.0108898,3.31074526 L27.0795398,3.51800237 C27.4003801,4.48689506 27.7273357,5.4786716 28.0387552,6.4590414 C28.1093328,6.68145034 28.2142493,6.8373586 28.3609357,6.9397393 C28.5051767,7.04041324 28.6924267,7.09041149 28.9389437,7.09041149 C29.9714721,7.08338346 30.998164,7.08195656 31.896896,7.08173639 L32.202912,7.08170164 L33.3065314,7.08207498 L35.1125288,7.08207493 L35.1744141,7.0809581 C35.24614,7.07844774 35.3166902,7.07201448 35.3931623,7.06495192 C35.4147896,7.06294472 35.4362296,7.06095398 35.4575188,7.05916299 L35.4895257,7.05663764 L35.8031132,7.03369035 L35.8247143,6.70164578 L35.8252165,6.69733848 C35.8303113,6.65268655 35.8368407,6.56101733 35.7774647,6.45375198 L35.4386747,5.88533523 L35.3040408,5.65946601 L35.1530499,5.40617238 C34.3464009,4.05306524 33.5184896,2.66584429 32.6961565,1.30260309 C32.58264,1.11463099 32.3200225,0.965875901 32.098187,0.964701796 C31.3006105,0.960164916 30.507519,0.958349957 29.7409362,0.957637812 Z M22.6094764,0.955988805 L22.4619683,0.955988805 L22.0368581,0.956159937 L21.3995055,0.95681323 L21.0809021,0.957102042 L19.2648121,0.957233304 L19.2648121,7.05444709 L27.0750725,7.05444709 L27.03653,6.65468291 L27.0359993,6.64715541 C27.0354997,6.63958296 27.0350771,6.63176783 27.034586,6.6227394 C27.032382,6.57761957 27.0292052,6.52701132 27.0075228,6.45394601 L26.7578268,5.6941951 L26.7409901,5.64296949 L26.6606315,5.39849022 L26.5799523,5.15310332 C26.1758055,3.9241701 25.7604928,2.66638132 25.3380493,1.43034247 C25.2938164,1.30095906 25.1892941,1.19051211 25.0612988,1.11058357 C24.9151657,1.01932869 24.7411508,0.968949897 24.6125458,0.96732229 C23.9003324,0.958126373 23.2077753,0.956250401 22.6094764,0.955988805 Z M12.8495867,0.950016637 C12.6375524,0.950016637 12.4917653,1.0117908 12.3874545,1.09564029 C12.2322099,1.22043255 12.1694761,1.39998876 12.1305122,1.52001325 C11.8575371,2.36011238 11.5775547,3.21257611 11.3048912,4.04181183 L11.2420999,4.2327619 L11.0919085,4.6898932 L11.0267445,4.88795133 L10.9614539,5.0861692 C10.8960891,5.2845153 10.830484,5.48332092 10.7644827,5.68325968 L10.6983394,5.88361351 L10.6614497,5.99535279 L10.4667471,6.58499074 L10.3131155,7.05071359 L18.2659151,7.05071359 L18.2659151,1.03454372 L17.9427944,0.988110727 C17.9346916,0.986852526 17.927923,0.985764495 17.9134583,0.983392599 L17.8824468,0.978171167 L17.8636512,0.974930621 C17.8199509,0.967498072 17.7771018,0.961147389 17.7300269,0.959675037 L15.2543979,0.959806283 C14.5260035,0.959537313 13.6926243,0.957772756 12.8495867,0.950016637 Z" id="Combined-Shape" fill="#FFFFFF"></path>
                            <g id="Group-3" transform="translate(15.246482, 22.016938)">
                                <path d="M8.19545425,2.36994741 L5.9289028,0.145663639 C5.83329329,0.0515892056 5.70614377,0 5.57070727,0 C5.43564183,0 5.30824494,0.0515892056 5.21263543,0.145663639 L3.31182437,2.01112931 L0.148052501,5.11594978 C-0.0493508337,5.30980381 -0.0493508337,5.62516559 0.148052501,5.81877684 L2.41472764,8.04354616 C2.51033715,8.13737782 2.63748666,8.18908841 2.77279948,8.18908841 C2.9079886,8.18908841 3.03538549,8.13737782 3.130995,8.04354616 L5.9667508,5.26039956 L8.19545425,3.07289586 C8.39298127,2.87916322 8.39298127,2.56380144 8.19545425,2.36994741" id="Fill-10" fill="#FFFFFF"></path>
                                <path d="M5.99487451,3.17021414 C5.87302254,3.28957631 5.71313587,3.3492574 5.55407093,3.3492574 C5.39500599,3.3492574 5.23535409,3.28957631 5.11350213,3.17021414 C4.99200234,3.05096719 4.93084158,2.89404511 4.93072419,2.73781432 C4.93084158,2.5813531 4.99200234,2.42443103 5.11350213,2.3054145 C5.23535409,2.18616755 5.3947712,2.12602561 5.55407093,2.12602561 C5.71313587,2.12602561 5.87302254,2.18570669 5.99487451,2.30552972 C6.11613951,2.42443103 6.17753506,2.5813531 6.17753506,2.73781432 C6.17753506,2.89404511 6.11613951,3.05096719 5.99487451,3.17021414 M7.88651469,2.559808 L5.73544018,0.44861847 C5.63178383,0.346768898 5.46356239,0.346768898 5.35990605,0.44861847 L3.03403619,2.73136231 L5.56076222,5.21123808 L7.88651469,2.92837902 C7.99028842,2.82675988 7.99028842,2.66165757 7.88651469,2.559808" id="Fill-12" fill="#F5002E"></path>
                                <path d="M3.26781196,5.02783942 C3.38945521,4.90810595 3.54914132,4.84852731 3.70847519,4.84852731 C3.86780906,4.84852731 4.02773,4.90810595 4.149021,5.02783942 C4.27125133,5.14722717 4.33219037,5.30349144 4.33219037,5.46044715 C4.33219037,5.61648095 4.27125133,5.77332142 4.149021,5.89259393 C4.02773,6.01129025 3.86780906,6.07156032 3.70847519,6.07156032 C3.54914132,6.07156032 3.38945521,6.01152073 3.26792938,5.89259393 C3.14616872,5.77309095 3.08522968,5.61636571 3.08522968,5.46044715 C3.08522968,5.30383716 3.14616872,5.14722717 3.26781196,5.02783942 L3.26781196,5.02783942 Z M2.32038015,5.86816324 C2.19838466,5.98685955 2.03858112,6.04678391 1.87948209,6.04678391 C1.71967856,6.04655343 1.56034469,5.98697479 1.43858403,5.86816324 C1.31670595,5.74889073 1.25635399,5.59205025 1.25635399,5.43578598 C1.25635399,5.27940646 1.3170582,5.12256599 1.43858403,5.00271728 C1.56034469,4.88367525 1.71967856,4.82386614 1.87948209,4.82386614 C2.03858112,4.82386614 2.19861949,4.88367525 2.32038015,5.00283252 C2.4420234,5.12256599 2.50249277,5.27940646 2.50225862,5.43567074 C2.50225862,5.59205025 2.44190598,5.7491212 2.32038015,5.86816324 L2.32038015,5.86816324 Z M0.457101504,5.25993105 C0.35330553,5.36180245 0.35330553,5.5268249 0.457101504,5.6286963 L2.60863707,7.74068405 C2.66053506,7.79138927 2.72840166,7.81685712 2.79638567,7.81685712 C2.86436969,7.81685712 2.93247112,7.79138927 2.98436911,7.74068405 L5.30956333,5.45825761 L2.78217831,2.97785033 L0.457101504,5.25993105 Z" id="Fill-14" fill="#017AFF"></path>
                            </g>
                            <g id="Group-2" transform="translate(15.625737, 22.389169)"></g>
                        </g>
                    </g>
                    <path d="M57.7973329,27.5785319 C58.1378478,28.6305504 58.0999902,29.6866005 57.7945672,30.7425473 C57.4205084,32.0358224 56.7872828,33.1897967 55.9933656,34.2585364 C55.1594088,35.3812391 54.1790458,36.3581798 53.1118287,37.247896 C53.0990404,37.2585439 53.0841461,37.2665814 53.05182,37.2881356 C52.6892047,36.9228004 52.3275536,36.5668984 51.9751385,36.2017442 C51.0247419,35.2169985 50.1378555,34.1782123 49.4051397,33.0116002 C48.8671669,32.1550681 48.4234066,31.2546782 48.2085422,30.2525909 C47.6090129,27.4563659 49.3272679,24.800708 51.9465931,24.1976569 C54.4921824,23.6115855 56.9810362,25.056515 57.7973329,27.5785319 Z M53.0636939,26.440678 C51.5983803,26.440678 50.4105089,27.654821 50.4105089,29.1525424 C50.4105089,30.6502637 51.5983803,31.8644068 53.0636939,31.8644068 C54.5290075,31.8644068 55.7168789,30.6502637 55.7168789,29.1525424 C55.7168789,27.654821 54.5290075,26.440678 53.0636939,26.440678 Z" id="Combined-Shape" stroke="#FFFFFF" stroke-width="0.884501775" fill="#F5002E"></path>
                </g>
            </g>
        </g>
    </g>
</svg>