<svg xmlns="http://www.w3.org/2000/svg" viewBox="0 0 141 142">
  <g fill="none" fill-rule="evenodd" transform="translate(2 4)">
    <ellipse cx="70.46" cy="134.484" fill="#D1D1D1" fill-rule="nonzero" opacity=".558" rx="47.865" ry="3.326"/>
    <g transform="rotate(7 25.17 111.135)">
      <g transform="rotate(9 -266.458 85.006)">
        <g>
          <path fill="#FFF" fill-rule="nonzero" stroke="#2F383F" stroke-dasharray="2.539 2.539" stroke-linecap="round" stroke-linejoin="round" stroke-width="1.27" d="M3.41176251,10.4294725 C3.3636075,10.0209758 3.49267471,9.61193037 3.77054918,9.29239032 C4.04842366,8.97285027 4.45232404,8.76901284 4.89332907,8.72575415 L44.8046587,4.79752531 C45.2456334,4.7540092 45.6876691,4.87461805 46.0334485,5.13279904 C46.379228,5.39098003 46.6004028,5.76556639 46.6482799,6.17409051 L50.0208722,34.848122 C50.1097122,35.6115296 49.5147286,36.2958496 48.6908298,36.3778694 L8.43453042,40.3392777 C7.61051162,40.4187261 6.87116788,39.8644104 6.78305454,39.1010999 L3.41176251,10.4294725 Z" transform="rotate(-13 26.716 22.568)"/>
          <line x1="15.226" x2="42.243" y1="27.502" y2="24.899" stroke="#2F383F" stroke-linecap="round" stroke-linejoin="round" stroke-width="1.27" transform="rotate(-13 28.734 26.2)"/>
          <line x1="19.925" x2="40.662" y1="32.575" y2="30.695" stroke="#2F383F" stroke-linecap="round" stroke-linejoin="round" stroke-width="1.27" transform="rotate(-13 30.294 31.635)"/>
          <path fill="#D8D8D8" d="M7.47895493,16.199993 C7.99038735,16.0902815 8.493924,16.4159406 8.60363551,16.927373 C8.61019184,16.9579361 8.61523108,16.988805 8.61873472,17.0198664 L11.3224515,40.9895502 C11.3704191,41.4148049 11.0645674,41.7984273 10.6393127,41.8463949 C10.6101628,41.849683 10.5808496,41.851313 10.5515148,41.8512773 C10.0551053,41.8506719 9.63645065,41.4813288 9.57396345,40.9888676 L6.58804366,17.4568521 C6.51359443,16.8701181 6.90067254,16.324045 7.47895493,16.199993 Z" style="mix-blend-mode:multiply" transform="rotate(-12 8.938 28.916)"/>
          <path fill="#D1D1D1" fill-rule="nonzero" stroke="#2F383F" stroke-linecap="round" stroke-linejoin="round" stroke-width="1.27" d="M10.539393,11.7567977 L38.9890976,12.0026161 C39.6814878,12.0085987 40.2414239,12.5682142 40.247803,13.2606009 L40.3099299,20.0038186 C40.3163904,20.7050413 39.7531744,21.278732 39.0519516,21.2851925 C39.0443956,21.2852621 39.0368392,21.2852643 39.0292832,21.285199 L10.5795786,21.0393806 C9.88718838,21.033398 9.32725227,20.4737825 9.32087315,19.7813958 L9.25874629,13.0381782 C9.25228575,12.3369554 9.81550182,11.7632648 10.5167246,11.7568042 C10.5242806,11.7567346 10.531837,11.7567325 10.539393,11.7567977 Z" transform="rotate(-18.73 24.784 16.521)"/>
        </g>
        <path fill="#FFF" fill-rule="nonzero" d="M36.4004788,21.5782785 L77.7147789,33.1288907 C73.0596465,52.7649314 70.1501888,62.5829518 68.9864057,62.5829518 C67.8226226,62.5829518 54.0511892,58.7327477 27.6721055,51.0323396 L36.4004788,21.5782785 Z"/>
        <g transform="translate(27.522 22.347)">
          <polygon fill="#017AFF" points="1.852 29.078 10.7 1.419 49.752 12.522 40.916 40.279"/>
          <path fill="#FFF" fill-rule="nonzero" d="M46.2984707,27.6398656 L4.22508095,16.1678244 L0.0533131611,29.3388878 C-0.150054837,29.9816228 0.246218893,30.6557161 0.938669522,30.8449497 L40.5024597,41.6349548 C40.8352542,41.7259564 41.193377,41.6905112 41.4980025,41.5364211 C41.802628,41.3823309 42.028788,41.1222255 42.1267029,40.8133562 L46.2984707,27.6398656 Z"/>
          <path stroke="#2F383F" stroke-dasharray="2.539 2.539" stroke-linecap="round" stroke-linejoin="round" stroke-width="1.27" d="M10.6932827,0.0477436771 L51.1228128,11.0743983 C51.3370693,11.1330025 51.459877,11.3413934 51.3974433,11.5404158 L42.1332417,40.816997 C42.0353268,41.1258663 41.8091669,41.3859716 41.5045413,41.5400618 C41.1999158,41.694152 40.841793,41.7295972 40.5089986,41.6385956 L0.938669522,30.8485905 C0.246218893,30.6593569 -0.150054837,29.9852636 0.0533131611,29.3425286 L9.07688611,0.870555897 C9.28031048,0.230558919 10.0023507,-0.136989222 10.6932827,0.0477436771 Z"/>
          <line x1="8.027" x2="5.916" y1="21.373" y2="28.039" stroke="#2F383F" stroke-linecap="round" stroke-linejoin="round" stroke-width="1.27"/>
          <line x1="11.836" x2="9.724" y1="22.412" y2="29.078" stroke="#2F383F" stroke-linecap="round" stroke-linejoin="round" stroke-width="1.27"/>
          <line x1="15.644" x2="13.534" y1="23.451" y2="30.117" stroke="#2F383F" stroke-linecap="round" stroke-linejoin="round" stroke-width="1.27"/>
          <line x1="32.301" x2="30.189" y1="27.993" y2="34.659" stroke="#2F383F" stroke-linecap="round" stroke-linejoin="round" stroke-width="1.27"/>
          <line x1="36.11" x2="33.999" y1="29.032" y2="35.698" stroke="#2F383F" stroke-linecap="round" stroke-linejoin="round" stroke-width="1.27"/>
          <line x1="39.919" x2="37.807" y1="30.071" y2="36.736" stroke="#2F383F" stroke-linecap="round" stroke-linejoin="round" stroke-width="1.27"/>
          <line x1="21.261" x2="19.151" y1="24.982" y2="31.648" stroke="#2F383F" stroke-linecap="round" stroke-linejoin="round" stroke-width="1.27"/>
          <line x1="26.281" x2="24.17" y1="26.351" y2="33.017" stroke="#2F383F" stroke-linecap="round" stroke-linejoin="round" stroke-width="1.27"/>
          <g transform="translate(21.488 8.882)">
            <path fill="#FFF" d="M8.292917,0.206612119 C8.15925917,0.0734059617 7.98096697,0 7.79196579,0 C7.60280112,0 7.42467242,0.0734059617 7.29109633,0.206612119 L0.207230959,7.26670137 C-0.0690769862,7.54231999 -0.0690769862,7.99025115 0.207230959,8.26554387 L3.37757851,11.4250961 C3.5111546,11.5582208 3.68903806,11.6316268 3.87844797,11.6316268 C4.06753089,11.6316268 4.2454961,11.5582208 4.37931743,11.4250961 L11.4635915,4.36500689 C11.739736,4.08979564 11.739736,3.641783 11.4635915,3.36657175 L8.292917,0.206612119 Z"/>
            <path fill="#F5002E" d="M11.2624232,3.60687149 L8.09333939,0.449060962 C7.9407109,0.296610444 7.69297558,0.296610444 7.54042879,0.449060962 L4.11413161,3.86331737 L7.83588095,7.57310953 L11.2624232,4.15828306 C11.41497,4.00623973 11.41497,3.75940345 11.2624232,3.60687149 M8.47540086,4.52019017 C8.29605421,4.69886348 8.06057492,4.78763008 7.82615783,4.78763008 C7.59223097,4.78763008 7.35666997,4.69886348 7.17740503,4.52019017 C6.99830351,4.34151686 6.90801738,4.10714047 6.90801738,3.87317128 C6.90801738,3.63912064 6.99830351,3.40433707 7.17740503,3.22647813 C7.35666997,3.04821201 7.5914139,2.95822385 7.82656636,2.95822385 C8.06057492,2.95822385 8.29605421,3.0473162 8.47540086,3.22647813 C8.65425727,3.40433707 8.74495193,3.63944639 8.74495193,3.87317128 C8.74495193,4.10673329 8.65425727,4.34151686 8.47540086,4.52019017"/>
            <path fill="#017AFF" d="M0.450466875,7.47240634 C0.297641013,7.62439902 0.297641013,7.87136675 0.450466875,8.02392961 L3.61984641,11.182787 C3.69617761,11.2590277 3.79637254,11.2969037 3.89656746,11.2969037 C3.99651721,11.2969037 4.09671213,11.2590277 4.17304333,11.182787 L7.5985492,7.76897941 L3.87572757,4.05851726 L0.450466875,7.47240634 Z M3.195203,8.3822446 C3.01548959,8.55981375 2.78020315,8.64924996 2.54565222,8.64924996 C2.31061095,8.64924996 2.07565141,8.56013957 1.89634663,8.3822446 C1.71696012,8.20386091 1.62787981,7.96951851 1.62787981,7.73542047 C1.62787981,7.50140387 1.71736875,7.26706147 1.89634663,7.08778179 C2.07565141,6.90956101 2.31061095,6.82028771 2.54565222,6.82028771 C2.78020315,6.82028771 3.01589822,6.90956101 3.195203,7.08778179 C3.37434433,7.26706147 3.46358809,7.50140387 3.46342487,7.7350132 C3.46342487,7.96902979 3.37434433,8.20426818 3.195203,8.3822446 L3.195203,8.3822446 Z M4.59082184,7.1249247 C4.77020834,6.94613374 5.00541307,6.85702335 5.23996399,6.85702335 C5.47500526,6.85702335 5.71020998,6.94613374 5.88910613,7.1249247 C6.06906471,7.30371565 6.1587171,7.53732497 6.1587171,7.7721561 C6.1587171,8.00576542 6.06906471,8.24027074 5.88910613,8.41849151 C5.71020998,8.59654939 5.47500526,8.68598559 5.23996399,8.68680013 C5.00541307,8.68680013 4.77020834,8.59654939 4.59106701,8.41849151 C4.41168051,8.24027074 4.32202812,8.00576542 4.32202812,7.7721561 C4.32202812,7.53813951 4.41168051,7.30371565 4.59082184,7.1249247 L4.59082184,7.1249247 Z"/>
            <polyline fill="#FFF" points="5.329 11.297 5.329 10.957 5.206 10.957 5.206 10.878 5.541 10.878 5.541 10.957 5.42 10.957 5.42 11.297"/>
          </g>
        </g>
      </g>
      <g stroke="#383940" stroke-linecap="round" stroke-linejoin="round" stroke-width="2.159" transform="rotate(-18 62.265 -63.448)">
        <line x1=".209" x2="10.669" y1="12.047" y2="23.385"/>
        <line x1="26.471" x2="26.471" y1=".246" y2="18.947"/>
        <line x1="51.99" x2="41.564" y1="10.59" y2="23.366"/>
      </g>
      <g transform="translate(71.026 19.307)">
        <g fill="#017AFF" transform="translate(22.504)">
          <polygon points="2.683 37.868 9.75 46.704 15.04 42.295 7.973 34.341 3.561 33.454" transform="rotate(35 8.861 40.079)"/>
          <path d="M17.1022384,14.3322961 C16.9926569,8.77084499 16.4009575,5.23841615 15.3271403,3.73500957 C13.7164145,1.4798997 9.95238468,1.53444509 8.26763928,2.84508712 C6.58289387,4.15572914 5.62500281,7.25728805 7.39227065,9.90791472 C8.57044921,11.6749992 11.8071051,13.149793 17.1022384,14.3322961 Z" transform="rotate(35 11.775 8.133)"/>
        </g>
        <path fill="#DEDCDC" d="M13.5621864,16.263618 C11.388584,22.8778489 10.4487933,28.3307204 10.7428145,32.6222324 C11.0368356,36.9137444 12.6494388,41.2811972 15.580624,45.7245909 L0.413112069,35.0818804 L13.5621864,16.263618 Z" opacity=".334"/>
        <polygon fill="#F5002E" points="39.854 21.769 52.855 30.891 47.292 38.852 36.458 31.251"/>
        <path fill="#383940" fill-rule="nonzero" d="M38.6693483,2.95003098 C39.7451162,3.81776289 40.4405058,5.0586245 40.487975,6.48568224 C40.5319827,7.80917209 40.2358366,9.22692168 39.6656802,10.7151546 C39.5010782,11.1448019 39.3234288,11.5547691 39.1322342,11.9434818 C39.4310757,11.6300798 39.7545345,11.3224798 40.1009504,11.0204465 C41.299615,9.97535379 42.5261345,9.21227202 43.7806282,8.80080975 C45.2075214,8.41264842 46.609164,8.65669639 47.7723466,9.36174735 C48.9754372,10.0909882 49.9228886,11.3109293 50.3877293,12.8311169 C50.865504,14.3936033 50.7505192,16.0030314 50.1636604,17.332738 C49.5901883,18.6321128 48.5647185,19.6644107 47.2010131,20.1108846 C45.1759971,20.7738474 42.8791893,20.7376672 40.4268348,20.1844679 L53.1421781,29.1731604 C53.6243037,29.5114573 53.9292238,30.012027 54.0371079,30.5558486 C54.1455676,31.1025718 54.0551878,31.6929889 53.7459773,32.2083264 L49.1507012,38.7949845 C48.8015024,39.2947393 48.2967662,39.6167618 47.7538772,39.7391985 C47.211885,39.8614329 46.6317781,39.7847113 46.132658,39.4864073 L44.9769652,38.6835635 L33.4161151,55.2301186 C32.9480161,55.9000371 32.2692731,56.3299672 31.5398698,56.4902114 C30.8103645,56.6504779 30.030098,56.5409333 29.361348,56.1310383 L1.25575197,36.4168792 C0.607017466,35.9616765 0.198151282,35.2873545 0.0561921192,34.55577 C-0.0864760852,33.8205315 0.0401413876,33.0274757 0.463335109,32.3387975 L12.128324,15.6339472 L11.1095582,14.9186577 C10.6274327,14.5803608 10.3225126,14.0797911 10.2146285,13.5359695 C10.1061687,12.9892463 10.1965486,12.3988292 10.5057591,11.8834917 L15.1010352,5.29683361 C15.4502339,4.79707878 15.9549702,4.47505632 16.4978591,4.35261963 C17.0396728,4.23042544 17.619576,4.30705626 18.1185849,4.60511603 L31.0389204,13.6637358 C29.6344854,11.5042952 28.7847489,9.31237735 28.7124698,7.1378726 C28.6647241,5.70101579 29.282003,4.38230099 30.3043186,3.39787056 C31.3504979,2.39046077 32.8203685,1.73172705 34.4489564,1.64722953 C36.0694022,1.56315445 37.5679738,2.06164449 38.6693483,2.95003098 Z M17.491434,5.78524613 C17.2822772,5.63848541 17.0380575,5.58500777 16.7935211,5.62775187 C16.569162,5.66696904 16.3411087,5.78908408 16.1455074,6.00908195 L11.6318318,12.4688166 C11.493565,12.6666968 11.4386587,12.9001466 11.4615627,13.1254186 C11.4839175,13.3452874 11.571745,13.5635436 11.8596964,13.8175821 L29.0385893,25.8716345 C29.1805598,25.9712521 29.2664397,26.1216231 29.2918811,26.2833515 C29.3181162,26.4501254 29.2804932,26.6289553 29.1744679,26.7806931 C29.0770881,26.920058 28.9385839,27.0128848 28.7885077,27.0521629 C28.6353233,27.0922544 28.4726666,27.0680981 28.2630055,26.9548556 L13.1630303,16.3596421 L1.60185127,32.9067603 C1.34487561,33.2745303 1.24825943,33.7081916 1.29884693,34.1215984 C1.34928105,34.5337518 1.54051787,34.9304395 2.0097039,35.3184796 L29.9712044,54.9384514 C30.3379463,55.1957861 30.7691311,55.2889166 31.1804871,55.2347969 C31.5918785,55.1806725 31.9880051,54.9842924 32.3750715,54.5129636 L43.9431062,37.956788 L33.4727285,30.6104039 C33.3307644,30.5107908 33.2448846,30.3604199 33.2194432,30.1986915 C33.193208,30.0319175 33.2308311,29.8530876 33.3368564,29.7013498 C33.4342362,29.5619849 33.5727404,29.4691581 33.7228166,29.4298801 C33.8760008,29.3897886 34.0386574,29.4139448 34.2483182,29.5271871 L46.760299,38.3065696 C46.960239,38.4468631 47.1927004,38.5010662 47.4156435,38.47885 C47.6375652,38.4567355 47.8561737,38.3671571 48.1068606,38.0818322 L52.6199045,31.6230015 C52.7581713,31.4251213 52.8130777,31.1916715 52.7901736,30.9663995 C52.7677798,30.7461467 52.6796844,30.527512 52.3905292,30.2729045 L35.5698591,18.8220849 L35.1180533,19.5520658 C34.9593139,19.813894 34.7941714,20.0945096 34.6238182,20.3941371 C33.7240932,21.9766276 32.9495182,23.6299598 32.3915358,25.2780508 C31.585378,27.6591681 31.3011074,29.8356004 31.6334786,31.6968141 L34.7134841,34.1532795 C34.8539727,34.2653877 34.9372731,34.4352053 34.9445883,34.6188287 L35.3928913,45.8720737 C35.4002986,46.0580108 35.3310244,46.2312213 35.2146087,46.3606425 C35.0990447,46.4891168 34.9364257,46.5750099 34.7539183,46.5850241 L28.4887478,46.9287947 C28.3166995,46.938235 28.1587747,46.8776596 28.0423134,46.7705088 C27.9248995,46.6624815 27.8501758,46.5078064 27.8431861,46.3323775 L27.3948203,35.0792222 C27.38703,34.8836998 27.4653419,34.6920383 27.6076797,34.5548608 L30.3536578,31.9083076 C29.9950277,29.7945588 30.3227481,27.4317502 31.1784304,24.9043545 C31.7690618,23.1598292 32.5802434,21.430101 33.5194485,19.7781703 C33.6382591,19.5691991 33.7547921,19.3688406 33.8683209,19.1776324 L34.2203021,18.5971611 L34.4660984,17.6956139 L17.491434,5.78524613 Z M31.0858324,32.9623538 L28.6910379,35.2699487 L29.1028579,45.5839501 L34.0816736,45.3112764 L33.6719618,35.0245914 L31.0858324,32.9623538 Z M47.1479569,10.5143681 C46.2191701,9.91017703 45.1321924,9.71579191 44.1234733,10.0460056 C42.8438761,10.4649115 41.5188572,11.3628701 40.2002357,12.6541905 C38.7775106,14.047458 37.5205711,15.7220723 36.5238961,17.333513 L37.0466419,17.6718973 L37.5557394,17.8851926 C38.8571194,18.4123082 40.2286091,18.831247 41.6033971,19.0724002 C43.546734,19.4132831 45.3297199,19.3659732 46.8626305,18.8641191 C47.8621983,18.5368629 48.6358774,17.7405847 49.0546085,16.7040017 C49.4568144,15.7083276 49.5302399,14.4912667 49.1587486,13.2763635 C48.7849573,12.0539383 48.0398837,11.0945811 47.1479569,10.5143681 Z M34.6804167,2.94960652 L34.4517745,2.95680225 C33.1854748,3.02250284 32.0693221,3.50790395 31.2732179,4.2271862 C30.4444033,4.97602244 29.9623279,5.97691139 29.9973243,7.03009162 C30.0510107,8.64523822 30.6164643,10.3403964 31.6007785,12.053782 C32.2971185,13.265894 33.1590444,14.4140939 34.0962366,15.4568625 C34.2882577,15.6705151 34.4773763,15.8700939 35.2377274,15.8942553 C36.1925047,14.6396494 37.1122603,13.2162648 37.8363351,11.7382863 L38.0973573,11.1839148 C38.8584202,9.49807844 39.2482255,7.94470041 39.1884208,6.37481578 C39.085766,5.36253398 38.5104875,4.46025243 37.6331274,3.8349243 C36.7940813,3.23690409 35.6783424,2.8931631 34.4517745,2.95680225 L34.6804167,2.94960652 Z"/>
      </g>
    </g>
    <path fill="#2F383F" d="M137.075341,2.3075344 C137.586016,2.3075344 138,1.89007018 138,1.37510197 C138,0.860133753 137.586016,0.442669533 137.075341,0.442669533 C136.564665,0.442669533 136.150681,0.860133753 136.150681,1.37510197 C136.150681,1.89007018 136.564665,2.3075344 137.075341,2.3075344 Z M135.579529,8.39189189 C134.302841,8.39189189 133.267881,9.43555244 133.267881,10.722973 C133.267881,12.0103935 134.302841,13.0540541 135.579529,13.0540541 C136.856218,13.0540541 137.891178,12.0103935 137.891178,10.722973 C137.891178,9.43555244 136.856218,8.39189189 135.579529,8.39189189 Z M135.579529,9.32432432 C136.345542,9.32432432 136.966519,9.95052065 136.966519,10.722973 C136.966519,11.4954253 136.345542,12.1216216 135.579529,12.1216216 C134.813516,12.1216216 134.19254,11.4954253 134.19254,10.722973 C134.19254,9.95052065 134.813516,9.32432432 135.579529,9.32432432 Z M125.815919,0.114062306 L125.866733,0.159310163 L128.186946,2.5 L130.489094,0.16190699 C130.694832,-0.0471283902 131.036261,-0.0547574075 131.251697,0.144867103 C131.450562,0.329135882 131.472558,0.625588147 131.312948,0.834517828 L131.269259,0.884811291 L128.935946,3.255 L131.26058,5.59849935 C131.471223,5.8109129 131.471223,6.15530331 131.26058,6.36771686 C131.06614,6.56379091 130.760185,6.57887353 130.548589,6.41296472 L130.497775,6.36771686 L128.175946,4.027 L125.875414,6.36512004 C125.669676,6.57415542 125.328247,6.58178443 125.112811,6.38215992 C124.913946,6.19789115 124.89195,5.90143888 125.05156,5.6925092 L125.095249,5.64221574 L127.426946,3.272 L125.103928,0.928527675 C124.893285,0.716114124 124.893285,0.371723714 125.103928,0.159310163 C125.298368,-0.0367638838 125.604323,-0.0518465027 125.815919,0.114062306 Z"/>
    <path fill="#4D4D4D" fill-rule="nonzero" d="M8.97708438,92 C9.85548399,92 10.5675676,92.7087857 10.5675676,93.5831172 C10.5675676,94.4574487 9.85548399,95.1662345 8.97708438,95.1662345 C8.09868477,95.1662345 7.38660119,94.4574487 7.38660119,93.5831172 C7.38660119,92.7087857 8.09868477,92 8.97708438,92 Z M5.16493441,101.758986 C5.3278209,101.907966 5.34583809,102.147645 5.21510372,102.316564 L5.17931889,102.357225 L3.269,104.272861 L5.17221015,106.168211 C5.34474413,106.339945 5.34474413,106.618383 5.17221015,106.790118 C5.01294801,106.948642 4.76234483,106.960836 4.58903023,106.8267 L4.54740934,106.790118 L2.646,104.897861 L0.76131125,106.788018 C0.592795214,106.957022 0.313136587,106.96319 0.136676223,106.801795 C-0.026210266,106.652815 -0.0442274609,106.413135 0.0865069144,106.244217 L0.122291746,106.203555 L2.032,104.286861 L0.129400484,102.39257 C-0.0431334945,102.220835 -0.0431334945,101.942398 0.129400484,101.770663 C0.288662617,101.612138 0.5392658,101.599944 0.712580403,101.73408 L0.754201288,101.770663 L2.655,103.661861 L4.54029938,101.772762 C4.70881542,101.603759 4.98847404,101.597591 5.16493441,101.758986 Z"/>
  </g>
</svg>
