<?xml version="1.0" encoding="UTF-8"?>
<svg width="169px" height="132px" viewBox="0 0 169 132" version="1.1" xmlns="http://www.w3.org/2000/svg" xmlns:xlink="http://www.w3.org/1999/xlink">
    <title>icons/illustrated/vegan</title>
    <g id="Page-1" stroke="none" stroke-width="1" fill="none" fill-rule="evenodd">
        <g id="פופאפ-פיצה-טבעונית" transform="translate(-103.000000, -346.000000)">
            <g id="icons/illustrated/vegan" transform="translate(103.000000, 346.000000)">
                <g id="Group-30" transform="translate(12.781385, 12.535098)">
                    <ellipse id="Oval" fill="#D1D1D1" opacity="0.293604651" cx="71.6093074" cy="81.1890621" rx="71.6093074" ry="25.2758401"></ellipse>
                    <g id="illustrations/salad" transform="translate(38.397804, 41.760208) rotate(-3.000000) translate(-38.397804, -41.760208) translate(11.111899, 24.003220)">
                        <g id="salad" transform="translate(27.285905, 17.756987) rotate(-3.000000) translate(-27.285905, -17.756987) translate(0.821750, 1.362559)">
                            <g id="Group" transform="translate(-0.000000, 0.000000)">
                                <g id="Group-18" transform="translate(0.000000, -0.000000)">
                                    <path d="M52.9283098,30.9809211 C52.5568847,30.1699151 53.0371692,24.8981219 52.10125,21.7215913 C51.0382772,18.1138381 48.5267643,16.5806295 47.6762736,16.0447521 C47.7991298,10.8535222 46.6374356,6.54925652 44.2198486,3.24258984 C42.6877689,1.12331141 40.2207777,-0.0890098342 37.6317847,0.00510366487 C35.0073752,0.0763428933 32.5816581,1.43992233 31.130755,3.65955717 C30.1487833,5.19707982 29.4326769,6.89333823 29.0132768,8.67527845 C28.8822574,9.24837574 29.2289199,9.82205883 29.7917997,9.96363674 C30.3546796,10.1052146 30.9253712,9.76226829 31.0734398,9.19345929 C31.4345929,7.64946618 32.0526951,6.17927361 32.9011579,4.84612398 C33.9607959,3.20153295 35.7532612,2.19460072 37.6896306,2.15615979 C39.584829,2.09011384 41.390238,2.97636261 42.5152521,4.52498646 C44.7401963,7.56677525 45.7554183,11.6403496 45.5327912,16.6304983 C45.5126075,17.0838032 45.774728,17.5012934 46.1882012,17.6743971 C46.2378213,17.6951244 51.1584374,19.8534485 50.3313472,27.9467601 C50.1906156,29.1787557 50.3325579,30.427078 50.7460864,31.5942148 C50.8970774,32.0100654 51.0873319,32.4101393 51.3141967,32.7888572 M32.0143644,32.7888572 C31.6641048,32.595403 31.3095112,32.3906431 30.9505836,32.1745774 C29.4256018,31.1760757 28.505849,29.4593621 28.5093806,27.6180854 L28.5093806,25.6064671 C28.5093806,25.0118003 28.034179,24.5297277 27.447988,24.5297277 C26.8617971,24.5297277 26.3865954,25.0118003 26.3865954,25.6064671 L26.3865954,27.6180854 C26.3873168,28.1463354 26.4420953,28.6730822 26.5500499,29.1898558 C26.237116,28.9565622 25.9244474,28.7203974 25.6120442,28.4813612 L25.2015506,28.1551092 C25.1089441,28.0813526 25.0136841,28.0113645 24.9178934,27.9429915 C23.2772458,26.6584414 21.6681746,25.309287 20.176122,24.0064323 L19.6480791,23.5345513 C18.4464117,22.4666853 17.8004943,20.8941087 17.8991695,19.2765853 L18.0069008,17.4103268 C18.0412663,16.8166264 17.5946955,16.3070756 17.0094571,16.2722133 C16.4242188,16.237351 15.9219306,16.6903787 15.8875652,17.2840791 L15.7798338,19.1506068 C15.7636701,19.4375032 15.7636701,19.725102 15.7798338,20.0119984 C13.664213,18.0184154 12.2997928,16.628614 12.2607866,16.5885054 C11.8447409,16.1885094 11.1907939,16.1958857 10.7836181,16.6051673 C10.3764423,17.0144489 10.3631572,17.6777555 10.7536091,18.1034778 C11.03249,18.3890829 15.0257144,22.4583503 20.0429172,26.7289679 C19.7512786,26.7670303 19.4624057,26.8243993 19.1781476,26.9007078 L16.7711745,27.551866 C16.4001305,27.64664 16.1080889,27.9366731 16.0068007,28.3109827 C15.9055125,28.6852924 16.0106574,29.0859347 16.2820012,29.3596021 C16.5533449,29.6332694 16.948883,29.7375975 17.317261,29.6326648 L19.7247648,28.9823142 C21.0388378,28.631228 22.4380561,28.8626335 23.5741704,29.6189364 C25.0104999,30.742514 26.4765485,31.8219452 27.9200424,32.7877804 M13.8629588,32.7877804 C13.1772606,31.6830273 12.7716958,30.4233097 12.6824248,29.1209444 C12.626762,28.5289509 12.112072,28.0925009 11.527895,28.1419191 C11.31827,28.1607621 6.33503173,28.5287378 4.22020697,22.6774667 C3.86570184,21.6968263 3.50137883,20.818207 3.10707148,19.9912711 C2.13218237,17.9481581 1.01294387,14.0961229 4.46804214,11.2605297 C5.54536042,10.396635 6.81178324,9.80841784 8.16036166,9.54555307 C10.6426936,9.03813963 14.0452529,9.05079132 16.1494638,11.9951352 C16.4032294,12.348958 16.8424476,12.5123651 17.2615379,12.4088723 C17.7298774,12.2925844 28.7930378,9.71702382 34.2921129,21.4553675 C35.0710287,23.1325131 36.0284372,24.718199 37.147259,26.1841377 C37.1834612,26.241144 37.224956,26.2945062 37.2711766,26.3434952 C37.6525703,26.8307197 38.0490004,27.2959609 38.460467,27.7392186 C38.5682312,27.8732151 38.6847139,27.9997455 38.8091344,28.1179617 L38.8640615,28.1688376 C39.6713512,28.9924448 40.5321219,29.7602639 41.4405921,30.4671379 C41.9060277,30.8286953 42.5722604,30.7390297 42.9286645,30.2668643 C43.2850686,29.7946989 43.1966811,29.1188331 42.7312455,28.7572757 C41.8878856,28.1012129 41.0893053,27.3879449 40.3409893,26.6223707 C40.2465254,26.5260025 40.1552456,26.4239814 40.0629045,26.3262673 C39.776329,25.9523546 39.653205,25.4756948 39.7221974,25.0072616 C39.7998595,24.4192202 40.1607101,23.9088639 40.6848805,23.6457246 L42.2018759,22.8720874 C42.5407377,22.699269 42.7629754,22.3561837 42.7848744,21.9720685 C42.8067734,21.5879532 42.6250066,21.2211641 42.3080438,21.0098672 C41.991081,20.7985703 41.5870764,20.7748665 41.2482146,20.9476849 L39.7312193,21.7215913 C39.3105901,21.9362942 38.9318254,22.2265957 38.6133075,22.5784067 C38.3776784,20.576479 38.2726005,18.3314773 38.2359824,16.2525628 C38.322458,14.9813544 38.9259915,13.8038338 39.9021035,13.0018865 L41.004625,12.0950028 C41.4526233,11.7183939 41.51824,11.0461001 41.1517415,10.5876799 C40.785243,10.1292598 40.1232598,10.055612 39.6675357,10.4225573 L38.5650142,11.3291719 C38.4572828,11.4180029 38.3527356,11.5103333 38.251638,11.6048172 C38.2869293,10.0459677 38.3394682,9.02548794 38.3413257,8.99372413 C38.361755,8.60957111 38.1786104,8.24354256 37.8608806,8.0335179 C37.5431508,7.82349323 37.1391065,7.80138019 36.8009474,7.97550856 C36.4627882,8.14963692 36.2418886,8.49355244 36.2214593,8.87770546 C36.2084572,9.11997182 36.04288,12.3439988 36.1073596,16.181498 C36.0993991,16.3160904 36.0948882,16.4506828 36.0948882,16.5852752 C36.0951994,16.6622247 36.1035605,16.7389233 36.1198309,16.8140823 C36.1498153,18.0940563 36.2065998,19.4251754 36.3042479,20.7266841 C36.2732022,20.6618106 36.240299,20.5993597 36.2095186,20.5339478 C32.9457364,13.5682514 27.8316815,11.1563552 24.115746,10.3587605 C21.9201735,9.89225006 19.6594887,9.83278854 17.443036,10.183252 C14.5173073,6.68384894 10.1533916,6.94361232 7.74137693,7.43756652 C6.05728975,7.76828505 4.4764053,8.5053419 3.13227955,9.58646917 C-1.63284253,13.4988018 0.190895304,18.8222013 1.19523805,20.9299187 C1.55876502,21.6922502 1.89628787,22.5065343 2.22611562,23.4196093 C4.27778752,29.0948335 8.68124008,30.1112755 10.6907216,30.2709021 C10.8366277,31.1391071 11.09158,31.9847713 11.449352,32.7872421" id="Shape" stroke="#FFFFFF" stroke-width="1.19671065" fill="#383940" fill-rule="nonzero"></path>
                                    <path d="M2.59841655,14.7826283 C2.65413448,17.0091967 3.03297321,18.7380611 3.73493273,19.9692215 C4.787872,21.815962 5.14407432,24.5013293 7.53506188,26.1865052 C9.92604943,27.8716811 11.640899,26.9053984 12.4532678,27.4684747 C12.9948471,27.8438588 13.4475592,29.3656456 13.8114042,32.0338352 C19.4904653,30.9225929 22.3226848,30.3595167 22.3080628,30.3446065 C22.0944683,30.1280387 21.4623061,29.7318513 20.9843669,29.694734 C19.4869817,29.5784452 17.6596478,30.3207103 16.3730098,29.694734 C14.805748,28.9322284 15.9959434,27.0917863 15.2200455,25.9266239 C14.3712941,24.6520578 11.8899081,25.4500055 9.92604943,24.0208274 C6.81674164,21.7580604 4.37419734,18.6786607 2.59841655,14.7826283 Z" id="Path-7" fill="#D1D1D1"></path>
                                    <path d="M30.4094689,12.5208 C30.4094689,12.2611696 32.2862883,6.4194845 33.2673531,4.94824529 C33.9213962,3.96741915 34.8740243,3.27507129 36.1252373,2.87120171 C35.3447695,5.08126661 34.9182197,7.20158193 34.8455876,9.23214768 C34.7729556,11.2627134 35.0004489,14.4541404 35.5280674,18.8064287 C34.2575134,16.7581306 33.3475403,15.4168638 32.7981482,14.7826283 C31.2831278,13.0336413 30.4094689,12.632907 30.4094689,12.5208 Z" id="Path-9" fill="#D1D1D1"></path>
                                </g>
                            </g>
                        </g>
                    </g>
                    <g id="illustrations/brokkoli-copy" transform="translate(84.543869, 46.253877) rotate(7.000000) translate(-84.543869, -46.253877) translate(67.090255, 29.072506)">
                        <g id="brokkoli-copy" transform="translate(17.453614, 17.181371) scale(-1, 1) rotate(20.000000) translate(-17.453614, -17.181371) translate(3.714053, 3.898518)">
                            <path d="M19.873266,15.8778044 C20.5229028,14.2817329 21.3824847,12.7561905 22.504975,11.7277513 C23.0223226,12.3503746 23.7950636,12.7462363 24.6590591,12.7462363 C26.2164697,12.7462363 27.4791222,11.4614157 27.4791222,9.87639083 C27.4791222,8.29136601 26.216589,7.00654539 24.6590591,7.00654539 C24.5585001,7.00654539 24.4593727,7.01212945 24.3615574,7.02256923 C24.5515815,6.63641896 24.6590591,6.20098325 24.6590591,5.73969089 C24.6590591,4.15478746 23.3965258,2.86984545 21.8389959,2.86984545 C21.5760874,2.86984545 21.3220062,2.90723441 21.0805694,2.9756999 C21.0818815,2.94049601 21.0831937,2.90529212 21.0831937,2.86984545 C21.0831937,1.28494201 19.8206604,0 18.2631305,0 C16.839202,0 15.6625554,1.07408284 15.4709805,2.46949224 C15.2726063,2.42445553 15.066717,2.4000556 14.8551019,2.4000556 C13.2976913,2.4000556 12.0350388,3.68487621 12.0350388,5.26990104 C12.0350388,5.30716861 12.0364702,5.344072 12.0377824,5.38097539 C11.7909776,5.30911089 11.5306935,5.26990104 11.2612242,5.26990104 C10.7314708,5.26990104 10.2359528,5.41884992 9.81248404,5.67741643 C9.50221864,4.43556883 8.39630918,3.51686868 7.07950037,3.51686868 C5.52208975,3.51686868 4.25943722,4.8016893 4.25943722,6.38671413 C2.7020266,6.38671413 1.43937407,7.67153474 1.43937407,9.25655957 C1.43937407,10.841463 2.70190731,12.126405 4.25943722,12.126405 C5.06522067,12.126405 5.791559,11.7818925 6.30544725,11.2304053 C6.30544725,11.2304053 7.5560518,12.9434995 8.54028855,15.8592314 L10.4764353,24.8885437 L17.756817,26.0417747 C17.9277205,25.2210331 18.04992,24.6341859 18.1234155,24.2812331 M18.7009968,21.5074742 C18.997467,20.0837149 19.2431256,18.9039715 19.4379727,17.9682438" id="Shape" stroke="#FFFFFF" stroke-width="0.731323177" fill="#FFFFFF" stroke-linejoin="round"></path>
                            <path d="M18.4338919,16.4017345 C19.0835287,14.805663 19.9431106,13.2801206 21.065601,12.2516814 C21.5829485,12.8743047 22.3556895,13.2701664 23.219685,13.2701664 C24.7770956,13.2701664 26.0397481,11.9853458 26.0397481,10.4003209 C26.0397481,8.81529609 24.7772149,7.53047548 23.219685,7.53047548 C23.1191261,7.53047548 23.0199986,7.53605954 22.9221833,7.54649932 C23.1122074,7.16034905 23.219685,6.72491334 23.219685,6.26362098 C23.219685,4.67871755 21.9571517,3.39377554 20.3996218,3.39377554 C20.1367134,3.39377554 19.8826321,3.43116449 19.6411953,3.49962999 C19.6425075,3.4644261 19.6438196,3.42922221 19.6438196,3.39377554 C19.6438196,1.8088721 18.3812864,0.523930088 16.8237565,0.523930088 C15.399828,0.523930088 14.2231813,1.59801293 14.0316065,2.99342232 C13.8332322,2.94838562 13.6273429,2.92398568 13.4157279,2.92398568 C11.8583172,2.92398568 10.5956647,4.2088063 10.5956647,5.79383113 C10.5956647,5.8310987 10.5970962,5.86800209 10.5984083,5.90490548 C10.3516036,5.83304098 10.0913194,5.79383113 9.82185017,5.79383113 C9.29209675,5.79383113 8.7965787,5.94278001 8.37310997,6.20134651 C8.06284457,4.95949892 6.95693511,4.04079877 5.6401263,4.04079877 C4.08271568,4.04079877 2.82006315,5.32561938 2.82006315,6.91064421 C1.26265253,6.91064421 -1.14355005e-13,8.19546483 -1.14355005e-13,9.78048966 C-1.14355005e-13,11.3653931 1.26253324,12.6503351 2.82006315,12.6503351 C3.6258466,12.6503351 4.35218494,12.3058226 4.86607318,11.7543354 C4.86607318,11.7543354 6.11667773,13.4674296 7.10091448,16.3831614 L9.03706122,25.4124738 L16.3174429,26.5657047 C16.4883464,25.7449631 16.6105459,25.1581159 16.6840415,24.8051632 M17.2616228,22.0314043 C17.5580929,20.607645 17.8037515,19.4279015 17.9985986,18.4921739" id="Shape" fill="#017AFF"></path>
                            <path d="M5.15884159,5.91826588 C5.15884159,7.49456672 6.42137483,8.77253428 7.97890474,8.77253428 C8.78468819,8.77253428 11.2755193,9.58519367 12.2597561,12.4850995 C12.1867495,16.9734338 12.8321318,19.966868 14.1959028,21.4654022 C15.0250468,22.3764793 16.2471247,22.8749623 17.8621365,22.9608512 L17.1681023,26.2806439 L9.88772058,25.1336726 L7.95157385,16.1533698 C6.96733709,13.253464 5.71673255,11.5496683 5.71673255,11.5496683 C5.2028443,12.098162 4.47650597,12.4408046 3.67072251,12.4408046 C2.11319261,12.4408046 0.850659364,11.1628371 0.850659364,9.58653623 C0.850659364,8.01011465 2.11331189,6.73226783 3.67072251,6.73226783 C3.67072251,5.3406755 4.65465016,4.18174889 5.95670059,3.92911941 C5.46272047,4.44340656 5.15884159,5.14490766 5.15884159,5.91826588 Z M26.2244425,8.37604439 L26.3271653,8.49115884 C26.6808512,8.96806917 26.8904075,9.56075732 26.8904075,10.2030031 C26.8904075,11.7794247 25.627755,13.0572716 24.0703443,13.0572716 C23.8713124,13.0572716 23.6771231,13.0363785 23.4897828,12.9966483 L23.5927335,12.5035717 C24.2423703,10.9161634 25.1019522,9.39890137 26.2244425,8.37604439 Z M15.7545063,1.95324627 C15.7545063,1.99031155 15.7559377,2.02701464 15.7572499,2.06371772 C15.5631997,2.00752095 15.3608166,1.97140136 15.152188,1.95852781 C15.3350891,1.58748541 15.5968044,1.2617028 15.9148139,1.00419365 C15.8107926,1.30088149 15.7545063,1.62040897 15.7545063,1.95324627 Z" id="Combined-Shape" style="mix-blend-mode: multiply;"></path>
                            <path d="M19.873266,15.8778044 C20.5229028,14.2817329 21.3824847,12.7561905 22.504975,11.7277513 C23.0223226,12.3503746 23.7950636,12.7462363 24.6590591,12.7462363 C26.2164697,12.7462363 27.4791222,11.4614157 27.4791222,9.87639083 C27.4791222,8.29136601 26.216589,7.00654539 24.6590591,7.00654539 C24.5585001,7.00654539 24.4593727,7.01212945 24.3615574,7.02256923 C24.5515815,6.63641896 24.6590591,6.20098325 24.6590591,5.73969089 C24.6590591,4.15478746 23.3965258,2.86984545 21.8389959,2.86984545 C21.5760874,2.86984545 21.3220062,2.90723441 21.0805694,2.9756999 C21.0818815,2.94049601 21.0831937,2.90529212 21.0831937,2.86984545 C21.0831937,1.28494201 19.8206604,0 18.2631305,0 C16.839202,0 15.6625554,1.07408284 15.4709805,2.46949224 C15.2726063,2.42445553 15.066717,2.4000556 14.8551019,2.4000556 C13.2976913,2.4000556 12.0350388,3.68487621 12.0350388,5.26990104 C12.0350388,5.30716861 12.0364702,5.344072 12.0377824,5.38097539 C11.7909776,5.30911089 11.5306935,5.26990104 11.2612242,5.26990104 C10.7314708,5.26990104 10.2359528,5.41884992 9.81248404,5.67741643 C9.50221864,4.43556883 8.39630918,3.51686868 7.07950037,3.51686868 C5.52208975,3.51686868 4.25943722,4.8016893 4.25943722,6.38671413 C2.7020266,6.38671413 1.43937407,7.67153474 1.43937407,9.25655957 C1.43937407,10.841463 2.70190731,12.126405 4.25943722,12.126405 C5.06522067,12.126405 5.791559,11.7818925 6.30544725,11.2304053 C6.30544725,11.2304053 7.5560518,12.9434995 8.54028855,15.8592314 L10.4764353,24.8885437 L17.756817,26.0417747 C17.9277205,25.2210331 18.04992,24.6341859 18.1234155,24.2812331 M18.7009968,21.5074742 C18.997467,20.0837149 19.2431256,18.9039715 19.4379727,17.9682438" id="Shape" stroke="#474747" stroke-width="0.877587813" stroke-linejoin="round"></path>
                            <path d="M10.857678,11.7633519 C10.857678,11.7633519 11.5291526,14.0889022 12.1092494,16.3589592 C12.622659,18.3680529 13.0447419,20.3060098 13.1553029,20.9545664" id="Path" stroke="#474747" stroke-width="0.877587813" stroke-linecap="round" stroke-linejoin="round"></path>
                            <path d="M17.2776274,11.8930127 C17.2776274,11.8930127 16.7013303,13.3629105 16.1288149,15.547533 C15.5836132,17.6279314 15.0425012,20.4104279 14.9800025,21.0842273" id="Path" stroke="#474747" stroke-width="0.877587813" stroke-linecap="round" stroke-linejoin="round"></path>
                        </g>
                    </g>
                    <g id="illustrations/pilpel" transform="translate(102.607713, 45.253644) rotate(-7.000000) translate(-102.607713, -45.253644) translate(85.014742, 25.793495)">
                        <g id="pilpel-copy" transform="translate(17.592971, 19.460150) rotate(30.000000) translate(-17.592971, -19.460150) translate(6.579687, 3.348522)">
                            <path d="M0.46251373,11.49638 C0.871262366,9.48815071 3.35393384,7.65067598 5.3035056,7.71498972 C7.25307737,7.77930346 7.7497401,9.62856303 8.07033071,9.50713045 C8.45782148,9.36035758 9.08483133,7.84597624 11.0966511,7.74936756 C12.8362908,7.66582912 13.9847122,8.26262507 14.5419151,9.5397554 C15.9883291,7.80792621 17.5414091,7.32119038 19.2011549,8.07954793 C21.5972545,9.17435424 20.581932,12.4050341 20.4147591,16.5488821 C20.3100887,19.1434314 21.6336681,22.2801217 20.9416534,24.9043374 C20.1949104,27.7360903 20.2096815,30.2919111 18.8310973,31.2335578 C16.8991885,32.5531549 15.5758347,32.5531549 14.8610358,31.2335578 C13.6772887,31.8707979 12.8184575,32.1906087 12.2845424,32.1929903 C11.7506273,32.1953719 11.0183833,31.8826582 10.0878103,31.2548492 C9.3124684,31.8281086 8.71868086,32.1158 8.30644773,32.1179235 C7.27608628,32.1232312 5.90860447,31.447431 5.08186898,30.2230182 C4.25513349,28.9986055 1.94627773,21.7311554 1.53237883,19.5228998 C1.1143926,17.2928374 0.0537650934,13.5046092 0.46251373,11.49638 Z" id="Rectangle" fill="#F5002E"></path>
                            <path d="M7.22669353,18.1010906 L7.83561229,27.8183743 C7.83561229,29.642673 9.58949137,31.1219779 11.7523986,31.1219779 C13.5641094,31.1219779 15.087713,30.0861097 15.5356461,28.6795284" id="Path" stroke="#404D57" stroke-width="0.840924144" stroke-linecap="round" stroke-linejoin="round" transform="translate(11.381170, 24.611534) scale(-1, 1) translate(-11.381170, -24.611534) "></path>
                            <path d="M15.6002252,14.2925333 L15.6002252,10.4353162 C15.6002252,8.33481114 13.8744169,6.63318777 11.7438148,6.63318777 L11.7438148,6.63318777 C9.91033759,6.63318777 8.37502039,7.89614324 7.98368533,9.58756503" id="Path" stroke="#404042" stroke-width="0.840924144" stroke-linecap="round" stroke-linejoin="round"></path>
                            <path d="M11.9526302,6.12747639 L11.9526302,4.40837556 C11.9526302,1.97229255 9.78356604,0 7.10574118,0 L7.10574118,0" id="Path" stroke="#404042" stroke-width="0.840924144" stroke-linecap="round" stroke-linejoin="round"></path>
                            <path d="M7.41319391,7.77470241 C6.44322127,6.9231552 5.05402317,6.49041927 3.62255024,6.71642739 C1.24459068,7.09667803 -0.348935792,9.1618139 0.0655924662,11.3319204 L1.89867635,20.9131653 C2.31437891,23.0843429 5.23623173,30.766592 7.61653989,30.3874124" id="Path" stroke="#404042" stroke-width="0.840924144" stroke-linecap="round" stroke-linejoin="round"></path>
                            <path d="M15.102442,7.3208058 C16.0096593,6.47092694 17.3074079,6.03903882 18.6424544,6.26460415 C20.8649722,6.64410981 22.3525014,8.70519965 21.9652612,10.8710544 C21.8691671,11.4076634 21.801175,11.7873455 21.7612848,12.0101009 M21.4629958,13.6394376 C21.3307292,14.3780417 21.3886911,14.081391 21.3203178,14.4632015 M20.9828193,16.3572134 C20.8206033,17.2630611 21.1905963,24.8394258 20.8661644,26.6511211 C20.4778271,28.8180449 18.3617181,30.2676496 16.1392003,29.8892129 C15.6872371,29.8143808 16.2980477,29.7444621 15.9173894,29.5424155" id="Shape" stroke="#404042" stroke-width="0.840924144" stroke-linecap="round" stroke-linejoin="round"></path>
                        </g>
                    </g>
                    <g id="Group-9-Copy" transform="translate(13.911044, 49.204262)">
                        <g id="pizza" transform="translate(57.231130, 23.181535) rotate(-1.000000) translate(-57.231130, -23.181535) translate(0.378626, 0.988910)">
                            <g id="Group-12" transform="translate(56.852504, 22.192625) rotate(2.000000) translate(-56.852504, -22.192625) translate(0.672232, 1.948484)">
                                <g id="Group-35" transform="translate(-0.000000, -0.000000)">
                                    <path d="M0.437092763,16.7901442 C0.0871702402,18.5190494 0.117637332,20.2599834 0.117637332,21.5866732 C0.117637332,25.8046008 4.93588078,31.6553215 12.9473631,34.6722811 C20.9588454,37.6892407 36.280927,40.4882826 56.2285371,40.4882826 C76.1761473,40.4882826 82.227859,38.9966069 95.832837,34.6722811 C108.793061,30.5528897 112.334629,23.6444512 112.334629,21.5866732 C112.334629,19.9179286 112.511336,18.0136371 111.941917,16.2240675" id="Path" stroke="#2F383F" stroke-width="0.812581308" fill="#D1D1D1"></path>
                                    <path d="M56.1060915,36.3490866 C76.0537016,36.3490866 82.1054133,34.8574109 95.7103913,30.5330851 C108.670615,26.4136937 112.212183,19.5052552 112.212183,17.4474772 C112.212183,7.81210793 87.0930182,0 56.1060915,0 C37.7829711,0 21.5115531,2.73155588 11.2722232,6.9564244 C9.40717878,7.72596377 7.7422601,8.54504656 6.30152065,9.40619007 C2.27546704,11.8126001 0,14.5474569 0,17.4474772 C0,21.6654048 4.8134351,27.5161255 12.8249174,30.5330851 C20.8363997,33.5500447 36.1584813,36.3490866 56.1060915,36.3490866 Z" id="Stroke-776" stroke="#2F383F" stroke-width="0.812581308" fill="#FFFFFF"></path>
                                    <path d="M30.4186466,34.5826741 C62.7641374,33.9727449 84.2014217,30.651759 94.7304996,24.6197166 C105.259578,18.5876741 106.565261,12.7455732 98.6475504,7.09341386 C113.831022,12.7653289 116.247687,18.840613 105.897544,25.3192661 C99.812508,29.1281835 86.2666539,35.2173023 70.1363921,35.8288852 C62.5990733,36.1146646 49.3598248,35.6992609 30.4186466,34.5826741 Z" id="Path-5" fill="#D1D1D1" opacity="0.514534884"></path>
                                    <path d="M80.5054361,9.02002009 C79.0756059,11.203603 76.1032699,11.6565807 72.6232533,11.6068323 C68.8166687,11.5524155 66.7907349,9.71242199 66.8165603,8.50066322 C66.8424092,7.28780684 69.9070363,5.63578162 73.7136208,5.69019843 C77.5202054,5.74461523 80.6002098,6.44619004 80.6002098,8.69770656 C80.5979942,8.80166365 80.5768448,8.91096745 80.5054361,9.02002009 Z" id="Stroke-758" fill="#017AFF" transform="translate(73.708263, 8.649638) rotate(-1.000000) translate(-73.708263, -8.649638) "></path>
                                    <path d="M87.0884311,24.4375407 C87.0884311,26.1095906 83.969348,27.4666166 80.121008,27.4666166 C76.2726679,27.4666166 73.1535848,26.1095906 73.1535848,24.4375407 C73.1535848,22.7639763 76.2726679,21.4084648 80.121008,21.4084648 C83.969348,21.4084648 87.0884311,22.7639763 87.0884311,24.4375407 L87.0884311,24.4375407 Z" id="Stroke-762" fill="#D1D1D1"></path>
                                    <path d="M62.1108793,26.5982683 C62.1108793,28.2703182 58.9917962,29.6273442 55.1434561,29.6273442 C51.2951161,29.6273442 48.176033,28.2703182 48.176033,26.5982683 C48.176033,24.9247038 51.2951161,23.5691924 55.1434561,23.5691924 C58.9917962,23.5691924 62.1108793,24.9247038 62.1108793,26.5982683 L62.1108793,26.5982683 Z" id="Stroke-764" fill="#017AFF"></path>
                                    <path d="M27.4846118,5.86498818 C25.6258008,6.82544337 24.4048187,8.93367041 28.7203642,10.4324844 C34.8539171,12.562703 38.0484529,10.4362827 38.4673202,8.74629887 C38.8861875,7.05631501 36.8746298,6.35688619 35.4570288,5.86498818 C34.0394278,5.37309018 29.3434229,4.904533 27.4846118,5.86498818 Z" id="Path-36" fill="#D1D1D1"></path>
                                    <path d="M81.1532023,7.52649603 C79.7233721,9.71007892 76.7510362,10.1630566 73.2710195,10.1133083 C69.464435,10.0588915 67.4385011,8.21889793 67.4643266,7.00713916 C67.4901754,5.79428277 70.5548026,4.14225756 74.3613871,4.19667436 C78.1679716,4.25109116 81.247976,4.95266598 81.247976,7.20418249 C81.2457604,7.30813959 81.224611,7.41744339 81.1532023,7.52649603 Z" id="Stroke-758" stroke="#383940" stroke-width="0.7614" transform="translate(74.356029, 7.156114) rotate(-1.000000) translate(-74.356029, -7.156114) "></path>
                                    <path d="M79.7023985,7.10038914 C79.6913305,7.61971433 78.8253365,8.02894429 77.767952,8.01382852 C76.7105674,7.99871274 75.862539,7.56498007 75.873607,7.04565488 C75.8846851,6.52585929 76.750669,6.11709973 77.8080536,6.13221551 C78.8654382,6.14733129 79.7134766,6.58059355 79.7023985,7.10038914 L79.7023985,7.10038914 Z" id="Stroke-758" stroke="#383940" stroke-width="0.91368" fill="#FFFFFF" transform="translate(77.788003, 7.073022) rotate(-1.000000) translate(-77.788003, -7.073022) "></path>
                                    <path d="M60.7101151,25.3088161 C60.7101151,25.94301 59.681545,26.457718 58.4124902,26.457718 C57.1434355,26.457718 56.1148654,25.94301 56.1148654,25.3088161 C56.1148654,24.6740479 57.1434355,24.1599143 58.4124902,24.1599143 C59.681545,24.1599143 60.7101151,24.6740479 60.7101151,25.3088161 L60.7101151,25.3088161 Z" id="Stroke-758-Copy-2" stroke="#383940" stroke-width="0.7614" fill="#FFFFFF"></path>
                                    <path d="M37.6961584,7.01024571 C37.6849563,7.65201646 36.8084824,8.15773366 35.7383019,8.13905358 C34.6681213,8.12037351 33.8098307,7.58437589 33.8210328,6.94260514 C33.8322451,6.30025309 34.7087088,5.7951172 35.7788894,5.81379727 C36.8490699,5.83247734 37.7073707,6.36789366 37.6961584,7.01024571 L37.6961584,7.01024571 Z" id="Stroke-758-Copy" stroke="#383940" stroke-width="0.7614" fill="#FFFFFF" transform="translate(35.758596, 6.976425) rotate(-1.000000) translate(-35.758596, -6.976425) "></path>
                                    <path d="M88.0095552,22.8310133 C88.0095552,24.5030632 84.8904721,25.8600892 81.0421321,25.8600892 C77.1937921,25.8600892 74.074709,24.5030632 74.074709,22.8310133 C74.074709,21.1574488 77.1937921,19.8019374 81.0421321,19.8019374 C84.8904721,19.8019374 88.0095552,21.1574488 88.0095552,22.8310133 L88.0095552,22.8310133 Z" id="Stroke-762" stroke="#404042" stroke-width="0.7614"></path>
                                    <path d="M63.0735146,25.4273641 C63.0735146,27.099414 59.9544315,28.45644 56.1060915,28.45644 C52.2577514,28.45644 49.1386683,27.099414 49.1386683,25.4273641 C49.1386683,23.7537996 52.2577514,22.3982881 56.1060915,22.3982881 C59.9544315,22.3982881 63.0735146,23.7537996 63.0735146,25.4273641 L63.0735146,25.4273641 Z" id="Stroke-764" stroke="#383940" stroke-width="0.7614"></path>
                                    <path d="M35.608169,20.6151643 C35.4486722,21.0695997 34.7125328,21.3597279 33.9592168,21.2635119 C33.2059008,21.1687762 32.4673076,21.4589043 32.3078107,21.9133397 C32.1507676,22.3677751 31.4121744,22.6579032 30.6588584,22.5616873 C29.9055425,22.4669516 29.1669493,22.7570797 29.0074524,23.2115151" id="Stroke-766" stroke="#383940" stroke-width="1.29310107" stroke-linecap="round"></path>
                                    <path d="M66.7405794,18.8958532 C66.0406094,19.0465706 65.3033077,18.7650105 65.0909835,18.2664835 C64.8786593,17.7696127 64.1413576,17.4880526 63.4413877,17.63877 C62.7390845,17.7878313 62.0017828,17.5062712 61.7917918,17.0094004 C61.5794676,16.5125295 60.8421659,16.2309694 60.1398627,16.3800307" id="Stroke-768" stroke="#383940" stroke-width="1.29310107" stroke-linecap="round"></path>
                                    <path d="M51.3389072,14.5686019 C50.6389373,14.7193193 49.8993023,14.4377592 49.6893114,13.9392322 C49.4769871,13.4423614 48.7396855,13.1608013 48.0397155,13.3115187 C47.3374123,13.46058 46.6001106,13.1790199 46.3877864,12.6821491 C46.1777954,12.1852783 45.4381605,11.9037181 44.7381906,12.0527794" id="Stroke-770" stroke="#383940" stroke-width="1.29310107" stroke-linecap="round"></path>
                                </g>
                            </g>
                            <path d="M87.4754444,25.824639 C87.4754444,26.4588328 86.6183027,26.9735408 85.5607571,26.9735408 C84.5032114,26.9735408 83.6460697,26.4588328 83.6460697,25.824639 C83.6460697,25.1898708 84.5032114,24.6757372 85.5607571,24.6757372 C86.6183027,24.6757372 87.4754444,25.1898708 87.4754444,25.824639 L87.4754444,25.824639 Z" id="Stroke-758-Copy-3" stroke="#383940" stroke-width="0.7614" fill="#FFFFFF"></path>
                            <path d="M29.3707028,6.00749812 C27.5118917,6.96795331 26.2909096,9.07618035 30.6064551,10.5749944 C36.7400081,12.7052129 39.9345439,10.5787927 40.3534111,8.88880881 C40.7722784,7.19882495 38.7607207,6.49939613 37.3431197,6.00749812 C35.9255187,5.51560011 31.2295138,5.04704294 29.3707028,6.00749812 Z" id="Path-36" stroke="#404042" stroke-width="0.7614"></path>
                            <g id="Group-8" transform="translate(11.610409, 11.661795)">
                                <path d="M7.35109973,11.6722464 C5.67318045,11.9606162 4.30198642,11.6336249 3.23751766,10.6912727 C1.64081452,9.2777443 0.7646765,6.88429256 1.96305204,4.84999834 C2.76196907,3.4938022 4.08048397,2.73796709 5.91859673,2.58249301 L5.86019973,5.64337973 C8.61395341,4.26210887 10.3264408,3.67064088 10.9976619,3.86897576 C12.0044935,4.16647807 12.8367606,5.84170298 11.2078388,7.2235198 C10.1218909,8.14473102 8.26993407,8.42748485 5.6519683,8.07178128 L7.35109973,11.6722464 Z" id="Path-37" fill="#F5002E" transform="translate(6.766670, 7.178046) rotate(24.000000) translate(-6.766670, -7.178046) "></path>
                                <path d="M8.11696364,10.1488319 C6.43904366,10.4131668 5.06785043,10.1134215 4.00338394,9.24959607 C2.4066842,7.95385787 1.53055195,5.75985833 2.72893239,3.89509152 C3.52785269,2.65191365 4.84636941,1.95906797 6.68448255,1.81655449 L6.62607817,4.62236719 C9.37983518,3.35620886 11.092324,2.814034 11.7635446,2.99584259 C12.7703755,3.26855547 13.6026386,4.8041803 11.9737134,6.0708418 C10.8877633,6.9152828 9.0358058,7.17446935 6.41784089,6.84840144 L8.11696364,10.1488319 Z" id="Path-37" stroke="#404042" stroke-width="0.7614" stroke-linejoin="round" transform="translate(7.532547, 6.029145) rotate(24.000000) translate(-7.532547, -6.029145) "></path>
                            </g>
                            <path d="M88.9385875,18.8924097 C87.4302817,15.9335665 88.0073097,13.8873467 90.6696715,12.7537502 C93.3320333,11.6201537 96.3623754,12.3891046 99.7606976,15.0606028 L96.3500393,15.8955619 C99.7509521,18.039716 101.564938,19.4063049 101.791996,19.9953286 C102.132584,20.8788641 100.890587,22.2385977 98.3535924,21.6295745 C96.7217929,21.2378497 94.8431115,18.7916576 93.4872054,16.9397907 C93.4377399,16.8722318 92.7633876,16.9117885 91.2765503,17.6249531 C90.2853254,18.1003961 89.5060045,18.5228816 88.9385875,18.8924097 Z" id="Path-37-Copy-2" fill="#F5002E" transform="translate(94.983856, 17.014362) scale(1, -1) rotate(153.000000) translate(-94.983856, -17.014362) "></path>
                            <path d="M88.1861956,18.1132244 C86.6778897,15.1543812 87.2549177,13.1081614 89.9172795,11.9745649 C92.5796414,10.8409684 95.6099834,11.6099193 99.0083057,14.2814175 L95.5976473,15.1163766 C98.9985602,17.2605308 100.812546,18.6271197 101.039605,19.2161433 C101.380192,20.0996788 100.138196,21.4594124 97.6012005,20.8503892 C95.9694009,20.4586644 94.0907196,18.0124723 92.7348134,16.1606054 C92.6853479,16.0930465 92.0109957,16.1326032 90.5241583,16.8457678 C89.5329335,17.3212108 88.7536125,17.7436964 88.1861956,18.1132244 Z" id="Path-37-Copy-2" stroke="#404042" stroke-width="0.7614" stroke-linejoin="round" transform="translate(94.231464, 16.235177) scale(1, -1) rotate(153.000000) translate(-94.231464, -16.235177) "></path>
                            <path d="M50.7897984,10.3997608 C50.5012505,9.08662413 50.5479968,8.1008017 50.9300373,7.44229355 C51.5030979,6.45453132 53.0475353,5.1735752 55.347219,4.73655518 C56.8803415,4.4452085 58.3448389,4.52390673 59.7407113,4.97264989 L55.280595,6.73397617 C57.6976103,7.00965922 58.9912798,7.39812236 59.1616034,7.89936558 C59.2807987,8.25014387 57.5979299,9.56639157 56.5828827,9.2898597 C55.3143647,8.94427414 54.3618895,8.45992691 53.725457,7.83681803 L50.7897984,10.3997608 Z" id="Path-37-Copy" fill="#F5002E" transform="translate(55.172135, 7.482138) rotate(27.000000) translate(-55.172135, -7.482138) "></path>
                            <path d="M50.8031648,9.63394295 C50.5146169,8.32080624 50.5613632,7.33498381 50.9434036,6.67647566 C51.5164643,5.68871343 53.0609017,4.4077573 55.3605854,3.97073728 C56.8937079,3.6793906 58.3582053,3.75808884 59.7540777,4.206832 L55.2939614,5.96815828 C57.7109766,6.24384133 59.0046461,6.63230447 59.1749698,7.13354769 C59.2941651,7.48432598 57.6112962,8.80057367 56.5962491,8.52404181 C55.3277311,8.17845625 54.3752559,7.69410902 53.7388234,7.07100013 L50.8031648,9.63394295 Z" id="Path-37-Copy" stroke="#404042" stroke-width="0.7614" stroke-linejoin="round" transform="translate(55.185502, 6.716321) rotate(27.000000) translate(-55.185502, -6.716321) "></path>
                        </g>
                    </g>
                    <path d="M122.758813,15.3540585 C122.21498,15.3540585 121.774116,14.9131606 121.774116,14.3692855 C121.774116,13.8254104 122.21498,13.3845125 122.758813,13.3845125 C123.302645,13.3845125 123.743509,13.8254104 123.743509,14.3692855 C123.743509,14.9131606 123.302645,15.3540585 122.758813,15.3540585 Z M125.352772,0.120465006 L125.298658,0.168252776 L122.827231,2.64 L120.376173,0.170995372 C120.157078,-0.0497738647 119.79348,-0.0578311244 119.564056,0.152998979 C119.352279,0.347611382 119.328854,0.660704508 119.498828,0.881362112 L119.545354,0.934478715 L122.030231,3.437 L119.554596,5.91276189 C119.330277,6.13709893 119.330277,6.50082113 119.554596,6.72515816 C119.761661,6.9322385 120.087482,6.94816776 120.312816,6.77294593 L120.366929,6.72515816 L122.839231,4.252 L125.289414,6.72241556 C125.50851,6.9431848 125.872107,6.95124206 126.101532,6.74041196 C126.313308,6.54579955 126.336733,6.23270643 126.166759,6.01204883 L126.120234,5.95893222 L123.637231,3.455 L126.110991,0.980649046 C126.335311,0.756312011 126.335311,0.392589812 126.110991,0.168252776 C125.903927,-0.0388275638 125.578106,-0.0547568208 125.352772,0.120465006 Z M112.863621,6.46126037 C114.223203,6.46126037 115.325362,7.56350509 115.325362,8.92319285 C115.325362,10.2828806 114.223203,11.3851253 112.863621,11.3851253 C111.504039,11.3851253 110.40188,10.2828806 110.40188,8.92319285 C110.40188,7.56350509 111.504039,6.46126037 112.863621,6.46126037 Z M112.863621,7.44603336 C112.047871,7.44603336 111.386576,8.10738019 111.386576,8.92319285 C111.386576,9.73900551 112.047871,10.4003523 112.863621,10.4003523 C113.67937,10.4003523 114.340665,9.73900551 114.340665,8.92319285 C114.340665,8.10738019 113.67937,7.44603336 112.863621,7.44603336 Z" id="Combined-Shape-Copy-2" fill="#383940"></path>
                </g>
            </g>
        </g>
    </g>
</svg>