<?xml version="1.0" encoding="UTF-8"?>
<svg width="36px" height="36px" viewBox="0 0 36 36" version="1.1" xmlns="http://www.w3.org/2000/svg" xmlns:xlink="http://www.w3.org/1999/xlink">
    <title>logos/vegan friendly copy</title>
    <g id="Page-1" stroke="none" stroke-width="1" fill="none" fill-rule="evenodd">
        <g id="פיצות_טאבר-אינדיקציה-טבעוני" transform="translate(-75.000000, -337.000000)">
            <g id="logos/vegan-friendly-copy" transform="translate(75.000000, 337.000000)">
                <g id="Group" transform="translate(6.000000, 6.000000)" stroke-width="0.1">
                    <path d="M18.2712045,4.99652264 C14.8923804,4.65364089 12.1745165,6.37215386 11.427819,9.76180136 C10.9475192,9.61880195 10.4726022,9.42971183 9.99733301,9.23647595 L9.52173392,9.04341167 L9.0765052,8.86894757 C8.10967021,8.50260341 7.12628001,8.22984655 6.0789065,8.39754673 C4.30903941,8.66417653 2.46004682,9.43886464 1.51463724,11.0377074 C0.185242617,13.134816 0.354920458,16.3085963 2.14986911,18.0914806 C2.97934886,18.9398201 4.04731742,19.4308576 5.1408158,19.8530466 L5.68870654,20.0597391 L5.68870654,20.0597391 L6.23493673,20.2629695 C6.32550807,20.2969979 6.41576375,20.3312159 6.50558051,20.3657904 L7.93238245,20.8753618 L7.93238245,20.8753618 L10.7796421,21.9126735 C12.2035148,22.4306953 13.6301094,22.9410757 15.0700354,23.4137082 C15.1219952,23.430557 15.2146317,23.4090999 15.2520744,23.3702899 C16.2574928,22.3693661 17.1788989,21.2936304 18.0664556,20.1875811 C19.0172551,19.0424339 19.963599,17.8923183 20.8341232,16.6841678 L21.1219447,16.2693347 L21.1219447,16.2693347 L21.7427706,15.3869701 L21.7427706,15.3869701 L22.059837,14.9238177 C22.8480867,13.7503652 23.5783091,12.4669689 23.6901872,11.2275812 C23.8040065,8.49855996 21.6767542,6.37301852 19.4636727,5.11066849 L19.276,5.00604595 L19.5323373,5.11089383 C20.3903686,5.48113094 21.1983253,6.0141906 21.8492437,6.68637813 C22.2703121,7.04610876 22.6409299,7.40742346 22.9081312,7.89899291 C22.9415852,7.95640389 22.9810642,8.01224278 23.023295,8.0674463 L23.2208628,8.31473485 C23.3717912,8.50865248 23.4962902,8.71199901 23.4540325,8.9649361 C23.8207694,9.53635769 23.9687435,10.1944718 24,10.8844115 C23.9918653,11.9138128 23.5790716,12.8473861 23.1089846,13.7431811 L22.6326652,14.6285333 L22.6326652,14.6285333 C22.3699916,14.9492379 22.2143996,15.317969 22.0631197,15.6949805 C22.0151845,15.8143627 21.9396523,15.9392172 21.8422008,16.0191413 C21.6882002,16.145477 21.5632133,16.2943087 21.4479605,16.4506221 L21.1121249,16.9269929 C21.0737701,16.9790803 21.0343548,17.0303308 20.9931647,17.0801883 C19.8918279,18.7398742 18.6258678,20.2604809 17.3283714,21.7568944 L15.8624019,23.4362115 C15.6995978,23.6230145 15.5370807,23.8101127 15.3751106,23.9977304 C15.1915784,24.0126752 15.0053632,23.9518827 14.818446,23.8721942 L14.5377915,23.7455947 C14.3974487,23.6823141 14.2572683,23.6243911 14.118086,23.5958056 L13.5086052,23.4095262 L12.2888756,23.0417635 C11.2737509,22.7324224 10.2648233,22.406673 9.28388448,21.9953067 C8.76815535,21.7958524 8.23522641,21.6146924 7.69645806,21.4365856 L6.53715671,21.0540473 C4.68122231,20.4316898 2.85203305,19.7172528 1.50745055,18.2964752 C-0.277796067,16.3915446 -0.394436108,13.3325382 0.721513711,11.0565004 C2.24653014,8.40229897 5.89787368,7.07311015 8.77521029,8.10427554 C9.50041957,8.38811424 10.2324562,8.66928879 10.9673675,8.92324594 C11.9099024,5.78899567 15.1956588,4.05456987 18.2712045,4.99652264 Z M7.18415533,11.8104442 C7.31487331,11.8181246 7.38905152,11.9320105 7.4505224,12.0600848 L7.52099321,12.2146953 C7.54432048,12.2645762 7.56841986,12.3108381 7.59609662,12.347592 C7.72485258,12.596403 7.67272752,12.6940882 7.57631055,12.7662049 L7.43883587,12.8547213 C7.32972119,12.9279839 7.23503289,13.0294885 7.29152454,13.2847926 C7.28392055,13.4341236 7.28898429,13.6261828 7.30202425,13.8488869 L7.32697993,14.2044161 L7.32697993,14.2044161 L7.37914958,14.8040746 L7.37914958,14.8040746 L7.45774378,15.6799217 L7.45774378,15.6799217 L7.49299597,16.1301558 C7.50371083,16.2800913 7.51319434,16.4293807 7.52086006,16.5765137 L7.53781741,17.009933 C7.55847963,17.8577913 7.49258968,18.5736429 7.21347704,18.8312397 C7.04842264,18.83688 6.94283591,18.7333369 6.84726521,18.6135534 L6.73422314,18.4679662 L6.67537368,18.4004792 L6.67537368,18.4004792 L6.61180703,18.3424784 C6.25455648,18.0459671 5.95559002,17.6924288 5.62334916,17.3719402 L3.59389869,15.418623 L3.59389869,15.418623 C3.54557536,15.38373 3.50073902,15.3399114 3.45728137,15.2923026 L3.32893621,15.1432405 C3.20051057,14.9930781 3.06551859,14.8550211 2.86703648,14.8677225 L2.75286858,14.9031942 C2.57726779,14.9551148 2.39068934,14.9840085 2.30913343,14.7571968 C2.29342537,14.7001904 2.2651978,14.6450238 2.23330941,14.5904408 L2.13552051,14.4271863 C2.08999354,14.3451782 2.05616181,14.2616568 2.06392344,14.1723825 C2.63562493,13.7878106 3.18382594,13.5082201 3.83443733,13.2699598 L3.90774161,13.3470758 L3.90774161,13.3470758 L4.00418704,13.2314378 L4.00418704,13.2314378 L4.09811797,13.3637202 C4.27830368,13.6335037 4.39420892,13.9315815 4.11780867,14.2036321 L6.20863351,16.2555944 L6.20863351,16.2555944 C6.31823059,15.842608 6.32053258,15.4259089 6.31000519,15.0060069 L6.29726004,14.5006198 C6.29612477,14.4161433 6.29598777,14.3315468 6.29760478,14.2468344 L6.28953093,14.1170897 L6.28953093,14.1170897 L6.28563445,13.7337343 L6.28563445,13.7337343 L6.27869395,13.6168776 L6.27869395,13.6168776 L6.26472975,13.510983 C6.22508204,13.2977581 6.11859214,13.2040201 5.83226635,13.5046919 L5.66364133,13.2304523 C5.51473398,12.9843261 5.35921052,12.6817059 5.49319814,12.5555388 C6.05491013,12.3026617 6.61805946,12.0530968 7.18415533,11.8104442 Z M11.0025895,13.3419563 L11.1746853,13.6873388 L11.1746853,13.6873388 L11.2275028,13.8074814 C11.2960802,13.9836785 11.2657479,14.0482612 11.1117451,14.1300575 L11.0043049,14.1822315 L11.0043049,14.1822315 L10.7848929,14.2817656 L10.7848929,14.2817656 L10.5980505,14.3713216 L10.5980505,14.3713216 L10.4262167,14.1018117 L10.4262167,14.1018117 C10.366372,14.1400611 10.2940567,14.1698265 10.2174628,14.1970367 L9.98303818,14.27693 C9.77781554,14.3516719 9.60042446,14.4504023 9.60621489,14.6855459 C9.6529284,14.8829081 9.81074819,15.2013086 10.0655884,15.0776062 C10.5398562,14.8073852 10.6814543,14.8857927 10.8907102,15.2458278 L10.9857008,15.4171758 L10.9857008,15.4171758 C10.8786909,15.5458464 10.7404728,15.6181202 10.591861,15.6761012 L10.2487259,15.8002021 C10.2106024,15.8152585 10.1728048,15.8313952 10.1356586,15.8492701 L10.50218,16.4240039 L10.50218,16.4240039 L10.6109579,16.3808765 L10.6109579,16.3808765 L10.8195326,16.2915975 C10.9919655,16.2213291 11.1669672,16.1710728 11.3896648,16.213465 C11.4773701,16.1501848 11.4649189,16.0694788 11.4342572,15.9911178 L11.3770992,15.8568711 C11.3586883,15.8021274 11.3600901,15.7564764 11.4232609,15.7300408 L11.4828762,15.7139751 C11.528138,15.7034914 11.5763723,15.6796639 11.6259541,15.6510917 L11.7771179,15.5597397 C11.9290751,15.4713514 12.0785382,15.417651 12.1816385,15.6308108 C12.606367,16.2866902 12.5398056,16.4329861 12.2542454,16.5543057 L11.8820183,16.694734 L11.8820183,16.694734 L11.7339837,16.7594899 C11.6578583,16.7956894 11.5789033,16.838213 11.4986151,16.889724 C11.4657206,16.846028 11.4319343,16.8551857 11.3942794,16.8793907 L11.3345234,16.9222579 C11.3239564,16.9297081 11.3130547,16.9369173 11.3017716,16.9432948 C11.2421939,16.9769205 11.17949,17.00502 11.1096892,17.0342085 L10.8750257,17.1316565 L10.8750257,17.1316565 C10.8355707,17.2480146 10.6855844,17.2477985 10.5260398,17.2301576 C10.4883097,17.4291039 10.1785632,17.5641829 9.83166147,17.5348054 C9.81023075,17.5015541 9.79705035,17.4640517 9.78718216,17.4248217 L9.76257607,17.304473 C9.73803035,17.1839888 9.69885137,17.0706694 9.51170986,17.0326514 C9.73705583,16.8839493 9.67602356,16.7034936 9.56414743,16.523043 L9.40552749,16.2852335 C9.39324468,16.265881 9.38162653,16.2467028 9.37099614,16.2277425 L9.34239136,16.1715588 C9.124922,15.7764744 8.95948431,15.3717414 8.71578352,14.9881775 C8.55523278,15.0621254 8.47948503,14.977521 8.42580042,14.8154406 C8.41808302,14.7895525 8.40362628,14.7626163 8.38571313,14.735094 L8.26302053,14.5666223 C8.20719906,14.4825655 8.17936231,14.4015492 8.26814903,14.3360468 L8.32267137,14.3046462 C8.45077419,14.2305723 8.58269044,14.1638564 8.71538151,14.099053 L9.11274055,13.9049355 C9.37514471,13.7720886 9.62849364,13.625111 9.84847834,13.4204404 L9.88211206,13.5704962 L9.88211206,13.5704962 L10.107343,13.3320198 L10.107343,13.3320198 C10.2205814,13.3711418 10.3365427,13.3379321 10.4479151,13.2920497 L10.5788915,13.2347262 C10.7493419,13.1603661 10.9005576,13.1146549 11.0025895,13.3419563 Z M14.1194083,12.038696 C14.1341355,12.0956731 14.169457,12.1618531 14.2124569,12.2319779 L14.3515754,12.4489287 C14.4576031,12.6186937 14.5351143,12.7813093 14.4200277,12.8699791 C14.3682691,12.8877784 14.3155706,12.914774 14.2622022,12.9457282 L14.0184353,13.0940637 C13.8815108,13.1716747 13.7429334,13.2249215 13.6069252,13.1719627 C12.8923522,12.5154327 12.5507686,13.2909849 12.62242,13.9590355 C12.6644262,14.0231548 12.7004226,14.0931919 12.7347649,14.1650134 L12.8371853,14.3816973 C12.9079653,14.5242107 12.9895522,14.6573276 13.1167927,14.7479803 L13.1714719,14.7805352 L13.1714719,14.7805352 L13.286022,14.8422718 C13.3035921,14.8532359 13.3197018,14.8648873 13.3333019,14.8777506 L13.3655241,14.9205012 C13.6084344,15.3123455 14.6144996,14.9377821 14.395593,14.4428285 C14.3324219,14.3966021 14.1201988,14.4594614 14.0332399,14.4981994 C13.8385254,14.5355288 13.5272096,14.0480397 13.7414958,13.910601 L13.7915513,13.8880398 C14.1500955,13.7226472 14.5072023,13.5519984 14.8598534,13.3746532 C15.0367787,13.2747065 15.1168444,13.421442 15.159214,13.5778989 L15.182525,13.6810433 L15.182525,13.6810433 L15.1985623,13.7714658 L15.1985623,13.7714658 C15.2293213,13.9532752 14.9852612,13.988341 15.041533,14.1605019 L15.1220495,14.4838631 C15.1512531,14.5904504 15.1880693,14.6943323 15.248242,14.7909913 L15.3167834,14.8850754 C15.412582,14.9979773 15.3821104,15.109151 15.2086955,15.1303921 C15.2877491,15.2858482 15.161407,15.4042223 14.8576255,15.4601692 L14.870849,15.3741967 L14.870849,15.3741967 L14.6615006,15.3158017 L14.6615006,15.3158017 C13.8700044,16.0573784 13.2526036,15.8695232 12.6614236,15.3112968 L12.5007317,15.1502905 C12.474021,15.1220657 12.4473367,15.0931807 12.420665,15.0636879 L12.2606735,14.8798587 C12.2339962,14.848145 12.2073037,14.8159287 12.180582,14.7832621 C11.3968731,13.6118335 12.021253,11.8303173 13.6294914,12.2737162 C13.7222716,12.1070276 13.9601512,12.0029102 14.1194083,12.038696 Z M16.4551557,10.8507785 C16.6568143,11.0722044 16.8775033,11.2793562 17.1043809,11.4816902 L17.7907378,12.0836943 C17.9039443,12.1847714 18.0154875,12.2870081 18.1237622,12.3915863 L18.313491,12.5485004 C18.3760691,12.6012072 18.4341915,12.656776 18.4764852,12.7225875 C18.5629651,12.8136482 18.6470574,12.8007755 18.731847,12.7674058 L18.8599402,12.7124079 C18.9893277,12.6628964 19.1237548,12.6611323 19.2736333,12.9887132 L19.3427365,13.1111782 C19.4476793,13.3090139 19.4250016,13.3731411 19.1424761,13.5188767 C18.8641354,13.719191 18.5497895,13.8267646 18.2482358,13.9708441 C18.0818863,14.12297 17.9864374,13.9874449 17.9135146,13.808525 L17.8045391,13.5120268 C17.7905781,13.4783048 17.7764024,13.4491411 17.761481,13.4272159 C17.7502458,13.4021826 17.7532962,13.3648847 17.7615688,13.3245546 L17.7929907,13.2037004 C17.8026448,13.1665384 17.808458,13.1355768 17.8013672,13.120048 L17.6996275,13.0492817 C17.627553,13.0017379 17.5519649,12.9619278 17.50276,12.9806488 C17.2558252,13.0745417 17.0203173,13.2065965 16.7967392,13.3496679 L16.6917949,13.4004652 C16.617543,13.4376405 16.553278,13.4925233 16.6103883,13.6316345 C16.8419827,13.5835098 16.9541427,13.7041 17.0436819,13.8572145 L17.1399757,14.0360075 L17.1399757,14.0360075 C17.2476324,14.2337297 17.2245631,14.3476396 17.0244137,14.4424685 C16.7127268,14.5900761 16.3942125,14.7240031 16.0737578,14.8516657 C15.8789874,14.9314237 15.770083,14.7868777 15.6830665,14.6200938 L15.591033,14.4337362 C15.5711336,14.3949746 15.5511028,14.359559 15.5299407,14.3306467 C15.7620709,14.1938396 15.8971808,14.0108782 15.8932281,13.7556249 C15.7370772,13.2891208 15.6958247,12.7867259 15.6720337,12.2807135 L15.64563,11.6738278 C15.6354653,11.4723307 15.6218585,11.2723204 15.5985736,11.0758622 C15.5959864,10.9827614 15.6494015,10.9415572 15.7161839,10.9120537 L15.8210535,10.8715494 C15.8557989,10.8576234 15.8885567,10.8415981 15.9139976,10.8184489 C15.9367794,10.7977118 15.9862239,10.8095204 16.0161924,10.7931036 L16.1184558,10.7403719 C16.2328677,10.6890857 16.333469,10.685234 16.4551557,10.8507785 Z M21.5616179,8.56017435 C21.5659915,8.59163997 21.5754236,8.62410337 21.5873102,8.65690264 L21.6672484,8.8524337 C21.7123976,8.97841461 21.713483,9.08858913 21.5038368,9.1405964 C21.5210387,9.22240292 21.5559913,9.30612048 21.5974674,9.39052763 L21.7302384,9.64459646 C21.8456932,9.8701029 21.9276978,10.0918274 21.7633484,10.2866077 L21.8219199,10.3336982 L21.9213838,10.1235193 L21.9213838,10.1235193 L22.0802534,10.4529507 C22.1529936,10.6052473 22.2164407,10.7486269 22.273963,10.9267929 C22.2754722,11.0315583 22.1473334,11.1917666 22.1785955,11.29646 L22.2178789,11.3503704 L22.2178789,11.3503704 L22.3100944,11.4524302 C22.3717592,11.5219316 22.4259615,11.5997191 22.4256741,11.7179698 C22.4618231,11.8661175 22.4232845,11.9281487 22.3607692,11.9792264 L22.2774877,12.0400722 C22.233338,12.0726768 22.1878592,12.1121614 22.1520048,12.1747615 L21.9586002,12.230271 C21.8314383,12.2605179 21.7091846,12.262198 21.5999948,12.1450239 L20.1107681,11.0744005 L20.1107681,11.0744005 L20.0656357,11.1085303 C20.0832862,11.1361701 20.1000551,11.1720677 20.1166396,11.2132332 L20.1665366,11.349544 L20.1665366,11.349544 L20.2195091,11.4995244 C20.3033658,11.7257779 20.4117181,11.9376244 20.6080873,11.8626253 C21.0362226,12.3913354 21.0117788,12.5723225 20.7704079,12.7080659 L20.6701857,12.7574397 L20.6701857,12.7574397 L20.5523881,12.8061165 L20.5523881,12.8061165 L20.2751129,12.9155581 L20.2751129,12.9155581 L20.1211585,12.9834122 L20.1211585,12.9834122 L20.0415602,13.0221734 C19.9226223,13.0943247 19.8637002,13.0430282 19.8178453,12.9612352 L19.6689002,12.6602833 C19.6008502,12.5119743 19.6147924,12.4653772 19.7551885,12.371535 L19.8848903,12.2899675 L19.8848903,12.2899675 L18.8834964,10.2387253 L18.8834964,10.2387253 L18.5552082,10.4786417 L18.5552082,10.4786417 L18.2698246,9.74823586 L18.2698246,9.74823586 L19.3777253,9.15917336 L19.3777253,9.15917336 L19.4087719,9.20489573 L19.4087719,9.20489573 L19.3106016,9.35747162 L19.3106016,9.35747162 L21.2283709,10.678884 L21.2283709,10.678884 C21.2174902,10.6508746 21.2001013,10.6214251 21.1805127,10.591475 L21.1194562,10.5010625 C21.0604178,10.4110273 21.0203592,10.3249425 21.1156116,10.2681748 C21.0691856,10.0178178 20.8814692,9.77336516 20.7742437,9.5347448 L20.5732022,9.47896574 C20.3340396,9.40630926 20.137672,9.29975549 20.1904685,8.96721142 C20.2003143,8.90428016 20.2871296,8.81564357 20.3497975,8.80484301 C20.480787,8.81633961 20.6390061,8.72583892 20.7984442,8.62244424 L20.9347974,8.53274071 C21.2056741,8.35533109 21.4582937,8.21484447 21.5616179,8.56017435 Z M16.3528172,11.4874355 L16.2815251,11.5269655 L16.3708558,12.8195045 L16.3708558,12.8195045 C16.5087684,12.8317091 16.6235219,12.7941232 16.7297233,12.7405884 L16.8844371,12.6525548 C16.9350876,12.6220432 16.9854259,12.5917747 17.0372779,12.5659793 C17.0282729,12.3057507 16.8148109,12.0219185 16.6047189,11.7766457 L16.4303126,11.577305 C16.4029982,11.5461387 16.3769644,11.5161218 16.3528172,11.4874355 Z" id="Shape" stroke="#FF658E" fill="#FF658E"></path>
                    <path d="M11.3493762,0.300223494 C12.3256886,-0.230155966 13.9309085,-0.137775183 13.5319033,1.36602267 C13.3671843,1.72791341 13.1573328,2.06913908 12.9597706,2.43398197 C12.9636514,2.42670959 13.3896786,2.68750709 13.4349548,2.72890924 C13.5835756,2.86492428 13.674631,3.02405252 13.657886,3.23401539 C13.6409254,3.44729043 13.5219138,3.64206051 13.3691247,3.79154025 C13.2922989,3.86664014 12.4078325,4.41905274 12.4069701,4.4086122 C12.4320517,4.72550061 12.6058978,4.96527302 12.4505933,5.28525759 C12.3077937,5.57946482 12.022482,5.80224436 11.7339362,5.94142756 C11.4179373,6.09385945 11.1490112,6.5852849 10.9348477,6.85141068 C10.7002022,7.14309778 10.4084224,7.5491988 10.0477941,7.68067761 C10.2690724,6.67629761 11.0426481,5.85617515 11.7706602,5.18956463 C11.8095402,5.15399479 11.8494982,5.11684087 11.869621,5.06809435 C11.9170532,4.9532484 11.8369215,4.82479375 11.7427758,4.74386156 C11.5702233,4.59567789 11.2584645,4.3795227 11.4668068,4.12052529 C11.5151733,4.06040217 11.6213926,4.00596736 11.6980027,3.99811895 C12.0537441,3.96182907 12.4020113,3.85367947 12.7159261,3.68216659 C12.7648674,3.65545321 12.8330692,3.59684217 12.8639719,3.55003975 C13.0383211,3.28571406 12.6495929,3.05688622 12.3174239,2.90546238 C12.1644192,2.83569077 12.0234162,2.78240801 11.9549989,2.74957431 C11.9003082,2.72336495 11.8438926,2.6954275 11.8060906,2.64804905 C11.7584428,2.58828596 11.7478065,2.50670573 11.7523341,2.43038178 C11.7920047,1.75873101 12.6990373,1.50030963 12.6370162,0.793593037 C12.6340696,0.760543326 12.6290389,0.725333503 12.6071195,0.700492217 C12.5622027,0.649513578 12.479915,0.670682674 12.4168159,0.695811975 C12.1103752,0.818146309 11.7961011,0.998155628 11.4598357,1.01723662 C11.0903678,1.0381177 10.9742308,0.596014808 10.6401933,0.541435982 C10.5445384,0.974610409 10.5384297,1.43745037 10.6442178,1.86961675 C10.690572,2.05905856 10.0527529,1.95652525 9.98728214,1.92700372 C9.76930972,1.82900664 9.60768097,1.6369727 9.39667964,1.53004717 C9.35384695,1.50844605 9.28018333,1.49721347 9.23433223,1.51125419 C9.12602875,1.54437591 9.11488938,1.63567664 9.11639858,1.71833692 C9.1220042,2.02960903 9.26336647,2.32014407 9.33674261,2.62255973 C9.36714233,2.74763021 9.38518093,2.88285321 9.33717382,3.00223539 C9.27493705,3.15718741 8.998968,3.28585807 8.90166017,3.08950391 C9.06041424,3.07560719 9.14191134,2.87802896 9.11237403,2.72113283 C9.03482961,2.30991954 8.72299896,2.05725846 8.92343585,1.6060831 C9.01513807,1.39957641 9.19538035,1.23447186 9.40882515,1.16138808 C9.55378077,1.11170551 9.71627192,1.10436113 9.85914339,1.15973199 C10.0020867,1.21510286 10.1217452,1.33765321 10.1559538,1.48727695 C10.108881,1.28120228 10.0235031,1.10126497 9.95336095,0.903830745 C9.82285059,0.53617971 10.0216345,0.166800586 10.3875091,0.0350337636 C10.765098,-0.100909275 11.0166323,0.195386066 11.3493762,0.300223494 Z M6.37106716,0.477093451 C6.46887807,0.627293227 6.48634173,0.814574924 6.49582817,0.993648195 C6.52752149,1.59286322 6.50021205,2.19524641 6.41433106,2.78913315 C6.94514027,2.38756836 7.69004108,1.97959524 8.21962855,2.38274411 C8.75546844,2.79071724 8.55115074,3.62020018 8.62869516,4.28997886 C8.63764431,4.36741715 8.71598335,4.44682698 8.82113222,4.53179064 L8.84955328,4.553 L8.80042028,4.54629859 C8.77553872,4.54570082 8.75001374,4.54837864 8.72399072,4.55473657 C8.49207611,4.6114755 8.42207772,4.8972583 8.30780928,5.10722117 C8.19346899,5.31725605 7.826732,5.44139047 7.75888961,5.2120586 C8.30141313,4.52420699 8.42437746,3.53343569 8.06173689,2.73541837 C8.01401724,2.63050894 7.94322831,2.5176791 7.82967854,2.49924615 C7.75817094,2.48765355 7.6869508,2.51746309 7.62191123,2.54943274 C7.1307007,2.79086124 6.71056658,3.20956292 6.32945621,3.59485487 C6.30839919,3.61616797 6.28561737,3.63841713 6.2583798,3.64928969 C6.25205551,3.65180982 6.24551562,3.65375392 6.23868826,3.65490598 C6.20958215,3.65980223 6.18018857,3.65008173 6.15259167,3.6397852 C6.05003755,3.60162322 5.95114864,3.55359673 5.85772162,3.49649778 C5.82954978,3.47921688 5.80008434,3.45905584 5.78851376,3.42809424 C5.77888359,3.40246091 5.78326747,3.37401944 5.78779509,3.34701804 C5.82940605,3.09795714 6.06498587,0.752435706 5.81726054,0.752435706 C5.4723711,0.824439434 5.32957149,1.26503025 5.00696081,1.40687759 C4.78108302,1.50617073 4.51409734,1.43524706 4.30065254,1.31140065 C4.08720773,1.18748223 3.90581558,1.01431326 3.69402371,0.887658708 C3.400591,0.712185623 2.78907522,0.604972072 2.9421518,1.14680012 C3.0049635,1.36900363 3.15070965,1.55671735 3.29523407,1.73658266 C3.43975848,1.91644797 3.58931358,2.10005748 3.66189919,2.31916482 C3.73455666,2.53827217 3.71371525,2.80475796 3.54913996,2.96633433 C3.34439105,3.16736874 2.98958398,3.18263353 2.8797713,3.48404113 C2.77204276,3.77997645 2.99511773,4.11868199 3.25470111,4.24936876 C3.56789723,4.40712892 3.93643089,4.38358371 4.28685408,4.39078408 C4.47255825,4.39460028 4.66746139,4.41116113 4.82283771,4.51319042 C4.97814216,4.6152917 5.0750188,4.82921478 4.98899407,4.99417532 C4.84274485,5.27477385 4.36303304,5.17432865 4.1766102,5.42986988 C4.06643818,5.5809337 4.11264862,5.80457728 4.23417562,5.94649662 C4.35577448,6.08848798 4.53436382,6.16632401 4.70892861,6.23256744 C5.35731213,6.47853217 6.04206032,6.62801191 6.7337796,6.67445431 C7.18072009,6.70455187 7.63614088,6.69274326 8.06719878,6.81471758 C8.49825667,6.93669189 8.91494118,7.22600287 9.0427206,7.65608114 C8.4534117,7.12721375 7.60408822,7.02158429 6.81297697,7.00761556 C6.02193758,6.99357484 5.20143274,7.0412413 4.47083345,6.73695355 C4.10927088,6.58639375 3.76739985,6.33258061 3.62431278,5.96737771 C3.48129757,5.60210279 3.60153096,5.11982182 3.95454136,4.94996503 C3.29997729,4.82273444 2.52129901,4.58368207 2.36168254,3.93507248 C2.20831849,3.31209623 2.73776223,2.74837904 3.21912698,2.32521314 C2.73474382,1.97556303 2.19027989,1.47830529 2.32553347,0.895651121 C2.43469935,0.425538782 2.98074435,0.162869182 3.45937816,0.218168045 C3.9379401,0.273538912 4.3537622,0.566090059 4.72409254,0.874842044 C4.94695191,0.633773563 5.1808788,0.385000683 5.48674449,0.266338539 C5.79253831,0.147676396 6.19197475,0.201895203 6.37106716,0.477093451 Z M9.10755328,4.752 L9.1744283,4.80692543 C9.43004298,5.02616342 9.60932981,5.28962033 9.25889635,5.63544052 C9.16554119,5.44340658 9.22245981,5.28535839 9.2098831,5.06351491 C9.20531236,4.98313715 9.18317447,4.89947386 9.14739486,4.82344699 L9.10755328,4.752 Z" id="Combined-Shape" stroke="#CDFF6E" fill="#CDFF6E"></path>
                </g>
                <path d="M26.1830575,10.1300851 C25.9338769,10.0794573 25.6846962,10.0288295 25.4355156,9.97828271 C25.4418219,9.95333333 25.4481282,9.92846497 25.4544346,9.9035966 C25.6973089,9.97884974 25.9401832,10.05548 26.1830575,10.1300851" id="Fill-19" fill="#FFFFFF"></path>
            </g>
        </g>
    </g>
</svg>