<?xml version="1.0" encoding="UTF-8"?>
<svg width="65px" height="64px" viewBox="0 0 65 64" version="1.1" xmlns="http://www.w3.org/2000/svg" xmlns:xlink="http://www.w3.org/1999/xlink">
    <title>vi</title>
    <g id="Page-1" stroke="none" stroke-width="1" fill="none" fill-rule="evenodd">
        <g id="בילדר-אפסייל-הוספנו-לסל" transform="translate(-153.000000, -283.000000)">
            <g id="Group" transform="translate(92.500000, 233.000000)">
                <g id="vi" transform="translate(62.250000, 51.539484)">
                    <g id="Group-4-Copy" transform="translate(31.250000, 30.781842) scale(-1, 1) translate(-31.250000, -30.781842) ">
                        <path d="M53.8260323,48.9818535 C48.0436121,54.5817926 40.4487236,57.3779175 32.9014117,57.3779175 C25.3458329,57.3779175 17.7708524,54.5817926 11.980334,48.9818535 C6.21377271,43.386168 3.30670372,36.025215 3.30265465,28.6984549 C3.30670372,21.3568069 6.21377271,13.9994532 11.980334,8.41145699 C17.7668033,2.81544433 25.3340231,-0.0073477348 32.9014117,0 C40.4487236,0 48.0436121,2.79613927 53.8260323,8.41881909 C59.5888819,13.9994532 62.5,21.3568069 62.5,28.6984549 C62.5,36.021125 59.5888819,43.386168 53.8260323,48.9818535" id="Path-Copy-8" stroke="#FFFFFF" stroke-width="1.5" fill="#FFFFFF"></path>
                        <path d="M29.598757,61.5636836 C22.0431783,61.5636836 14.4681977,58.7675587 8.67767937,53.1676196 C2.91111806,47.5719342 0.00404907757,40.2109811 0,32.884221 C0.00404907757,25.542573 2.91111806,18.1852193 8.67767937,12.5972231 C14.4641486,7.00121044 22.0313685,4.17841838 29.598757,4.18575181 C37.1460689,4.18575181 44.7409575,6.98190539 50.5233776,12.6045852 C56.2862273,18.1852193 59.1973454,25.542573 59.1973454,32.884221 C59.1973454,40.2068911 56.2862273,47.5719342 50.5233776,53.1676196 C44.7409575,58.7675587 37.1460689,61.5636836 29.598757,61.5636836 Z" id="Path-Copy-8" fill="#017AFF" style="mix-blend-mode: multiply;"></path>
                    </g>
                    <path d="M39.1592501,22.3481177 C40.0477755,21.4883254 41.4769903,21.4995037 42.3514907,22.3730851 C43.1799648,23.2006886 43.2133645,24.5054029 42.459099,25.3715041 L42.3260962,25.5116361 L29.8617526,37.5729087 C29.020773,38.3866929 27.6842036,38.4263605 26.7948298,37.6639309 L21.2738592,32.9309921 C20.3342037,32.1254577 20.2366479,30.7235133 21.0559622,29.7996617 C21.8752765,28.8758101 23.3012032,28.7798951 24.2408587,29.5854295 L28.1839716,32.9671143 L39.1592501,22.3481177 Z" id="Path-12-Copy" fill="#FFFFFF"></path>
                </g>
            </g>
        </g>
    </g>
</svg>