<?xml version="1.0" encoding="UTF-8"?>
<svg width="33px" height="33px" viewBox="0 0 33 33" version="1.1" xmlns="http://www.w3.org/2000/svg" xmlns:xlink="http://www.w3.org/1999/xlink">
    <title>icons/outline/vi</title>
    <g id="Page-1" stroke="none" stroke-width="1" fill="none" fill-rule="evenodd">
        <g id="אפסיילים-בודד-נוסף-לסל" transform="translate(-170.000000, -506.000000)" fill="#017AFF">
            <g id="Group-3" transform="translate(60.000000, 450.000000)">
                <g id="Group" transform="translate(13.000000, 55.662013)">
                    <g id="icons/outline/vi" transform="translate(97.000000, 0.337987)">
                        <path d="M28.2113053,7.29767624 C28.8812619,7.17277677 29.446767,7.36914635 29.8298957,7.72811057 C30.2214428,8.09496223 30.4403633,8.653636 30.3326071,9.30168713 C30.2609741,9.73249155 30.0394774,10.2110132 29.5970638,10.674649 L29.5970638,10.674649 L14.4945288,25.1665435 C13.7422798,25.8881281 13.1915129,26.1825929 12.6722375,26.1984059 C12.1789223,26.2134283 11.6518874,25.9969103 10.9603385,25.3573365 L10.9603385,25.3573365 L4.72213729,19.3753783 C4.23728928,18.9102945 4.02005651,18.4150154 3.97104935,17.9660481 C3.90710804,17.3802653 4.12522701,16.8528485 4.50755153,16.4861089 C4.88572502,16.1233511 5.42922361,15.913338 6.03855313,15.9725524 C6.4663267,16.0141233 6.93518965,16.1905623 7.38895161,16.5733604 L7.38895161,16.5733604 L12.6480316,21.6100672 L26.6875098,8.14288921 C27.2167436,7.63522886 27.7467029,7.38429168 28.2113053,7.29767624 Z" id="Path-Copy"></path>
                    </g>
                </g>
            </g>
        </g>
    </g>
</svg>