<?xml version="1.0" encoding="UTF-8"?>
<svg width="23px" height="23px" viewBox="0 0 23 23" version="1.1" xmlns="http://www.w3.org/2000/svg" xmlns:xlink="http://www.w3.org/1999/xlink">
    <title>Group 2</title>
    <g id="Page-1" stroke="none" stroke-width="1" fill="none" fill-rule="evenodd">
        <g id="מזוהה-עם-באדג'-על--אייקון-התפריט_וידאו2" transform="translate(-27.000000, -28.000000)">
            <g id="Group-2" transform="translate(28.000000, 29.000000)">
                <path d="M1.33506846,5.38375519 C0.484873444,6.89619087 0,8.64145643 0,10.5 C0,16.2749564 4.72508714,21 10.5,21 C16.2749564,21 21,16.2749564 21,10.5 C21,4.72508714 16.2749564,4.61852778e-14 10.5,4.61852778e-14 C8.64145643,4.61852778e-14 6.89619087,0.484917012 5.38375519,1.33506846 L0,4.61852778e-14 L1.33506846,5.38375519 Z" id="path612" stroke="#FFFFFF" stroke-width="1.30636797" stroke-linecap="round" stroke-linejoin="round" transform="translate(10.500000, 10.500000) rotate(-90.000000) translate(-10.500000, -10.500000) "></path>
                <path d="M9.2685722,9.15403295 C8.83519668,9.58880266 7.09572573,11.5191471 7.72868838,12.1521097 C7.90265726,12.3260786 8.59827137,12.8012363 8.86965934,13.0726242 C9.79387718,13.9968421 8.73350788,15.1411242 8.05353485,15.8210973 C7.99798506,15.8766471 6.9512527,17.0031968 5.56159295,15.6134935 C3.07710124,13.1290018 6.61847676,8.67412631 7.69827759,7.58373834 C8.78866556,6.50389394 13.2435411,2.96251843 15.7280763,5.44701013 C17.1177797,6.83671345 15.9911863,7.88344581 15.9356365,7.93895204 C15.2557071,8.61892506 14.1113813,9.67929436 13.1871635,8.75507652 C12.9158191,8.48368855 12.4406614,7.78811801 12.266649,7.61414913 C11.6336863,6.98114291 9.70334191,8.72061386 9.2685722,9.15403295 Z" id="path616" fill="#FFFFFF" transform="translate(10.557297, 10.442722) rotate(-90.000000) translate(-10.557297, -10.442722) "></path>
            </g>
        </g>
    </g>
</svg>