<?xml version="1.0" encoding="UTF-8"?>
<svg width="15px" height="15px" viewBox="0 0 15 15" version="1.1" xmlns="http://www.w3.org/2000/svg" xmlns:xlink="http://www.w3.org/1999/xlink">
    <title>icons/outline/chef</title>
    <g id="Page-1" stroke="none" stroke-width="1" fill="none" fill-rule="evenodd">
        <g id="פיצות-קבועות_קאונטר+באדגים" transform="translate(-338.000000, -448.000000)" fill="#FFFFFF" fill-rule="nonzero">
            <g id="Group-3" transform="translate(13.500000, 443.000000)">
                <g id="componrnts/cards/headline/icon+text-copy-2" transform="translate(144.500000, 5.000000)">
                    <g id="icons/outline/chef" transform="translate(181.000000, 0.000000)">
                        <path d="M6.500031,1 C6.30136911,1 6.12471155,1.12640591 6.06058317,1.3144429 L4.74297652,5.1785728 L0.464314739,5.1785728 C0.264476863,5.1785728 0.0870541512,5.3064505 0.0238609449,5.49603717 C-0.0393464223,5.68562389 0.0258729277,5.89438107 0.185740387,6.01428698 L3.64077933,8.60556089 L2.3410396,12.9380184 C2.28321642,13.1307789 2.35614361,13.3388418 2.52167865,13.4533087 C2.60126523,13.5083441 2.69357553,13.5357184 2.78571575,13.5357184 C2.88520961,13.5357184 2.98451929,13.5038313 3.06754892,13.4404149 L6.500031,10.8189029 L9.93251308,13.440415 C10.0155427,13.5038207 10.1148666,13.5357184 10.2143463,13.5357184 C10.3065006,13.5357184 10.3987967,13.5083512 10.4783833,13.4533086 C10.6439184,13.3388418 10.7168456,13.1307788 10.6590224,12.9380183 L9.35928267,8.60556084 L12.8143216,6.01428694 C12.9741891,5.89438103 13.0394084,5.6856238 12.9762011,5.49603712 C12.9130078,5.3064505 12.7355851,5.1785728 12.5357473,5.1785728 L8.25708548,5.1785728 L6.93947883,1.3144429 C6.87535045,1.12640591 6.69869289,1 6.500031,1 L6.500031,1 Z" id="Path-Copy"></path>
                    </g>
                </g>
            </g>
        </g>
    </g>
</svg>