<?xml version="1.0" encoding="UTF-8"?>
<svg width="16px" height="15px" viewBox="0 0 16 15" version="1.1" xmlns="http://www.w3.org/2000/svg" xmlns:xlink="http://www.w3.org/1999/xlink">
    <title>icons/outline/trash copy</title>
    <g id="Page-1" stroke="none" stroke-width="1" fill="none" fill-rule="evenodd">
        <g id="הסל-ריק" transform="translate(-76.000000, -84.000000)" fill="#FFFFFF">
            <g id="components/delivery-option" transform="translate(72.500000, 79.000000)">
                <g id="Group" transform="translate(4.000000, 0.000000)">
                    <g id="icons/outline/trash-copy" transform="translate(0.000000, 5.000000)">
                        <path d="M13.1058394,2.85766423 L12.1423358,1.89416058 C11.6167883,1.36861314 10.7846715,1.36861314 10.3029197,1.89416058 L2.06934307,10.1277372 L1.5,13.5 L4.87226277,12.9306569 L13.1058394,4.69708029 C13.6313869,4.21532847 13.6313869,3.33941606 13.1058394,2.85766423 Z M4.2536438,12.3588695 L2.32758621,12.6724138 L2.64113047,10.7463562 L9.40472805,3.98275862 L11.0172414,5.59527195 L4.2536438,12.3588695 Z M12.5439952,3.99702735 L11.7306778,4.81034483 L10.1896552,3.26932224 L11.0029727,2.45600476 C11.1741974,2.28478002 11.4310345,2.28478002 11.6022592,2.45600476 L12.5439952,3.39774078 C12.6296076,3.48335315 12.6724138,3.56896552 12.6724138,3.69738407 C12.6724138,3.82580262 12.6296076,3.91141498 12.5439952,3.99702735 Z" id="Shape"></path>
                    </g>
                </g>
            </g>
        </g>
    </g>
</svg>