<?xml version="1.0" encoding="UTF-8"?>
<svg width="16px" height="16px" viewBox="0 0 16 16" version="1.1" xmlns="http://www.w3.org/2000/svg" xmlns:xlink="http://www.w3.org/1999/xlink">
    <title>edit</title>
    <g id="Page-1" stroke="none" stroke-width="1" fill="none" fill-rule="evenodd">
        <g id="פירוט-פיצה-קבועה-גלילה" transform="translate(-205.000000, -354.000000)" fill="#FFFFFF" fill-rule="nonzero">
            <g id="buttons-icons/pencil-copy" transform="translate(205.000000, 354.000000)">
                <path d="M14.9908759,1.75364964 L13.7463504,0.509124088 C13.0675182,-0.169708029 11.9927007,-0.169708029 11.370438,0.509124088 L0.73540146,11.1441606 L0,15.5 L4.35583942,14.7645985 L14.9908759,4.12956204 C15.669708,3.50729927 15.669708,2.37591241 14.9908759,1.75364964 Z M3.5567899,14.0260398 L1.06896552,14.4310345 L1.47396018,11.9432101 L10.2102737,3.20689655 L12.2931034,5.28972627 L3.5567899,14.0260398 Z M14.2651605,3.22532699 L13.2146254,4.27586207 L11.2241379,2.28537455 L12.274673,1.23483948 C12.4958383,1.0136742 12.8275862,1.0136742 13.0487515,1.23483948 L14.2651605,2.45124851 C14.3757432,2.56183115 14.4310345,2.67241379 14.4310345,2.83828775 C14.4310345,3.00416171 14.3757432,3.11474435 14.2651605,3.22532699 Z" id="edit"></path>
            </g>
        </g>
    </g>
</svg>