<?xml version="1.0" encoding="UTF-8"?>
<svg width="13px" height="15px" viewBox="0 0 13 15" version="1.1" xmlns="http://www.w3.org/2000/svg" xmlns:xlink="http://www.w3.org/1999/xlink">
    <title>icons/outline/chef</title>
    <g id="Page-1" stroke="none" stroke-width="1" fill="none" fill-rule="evenodd">
        <g id="פיצות-קבועות_קאונטר+באדגים" transform="translate(-338.000000, -256.000000)" fill-rule="nonzero">
            <g id="componrnts/cards/headline/icon+text" transform="translate(157.000000, 256.000000)">
                <g id="icons/outline/chef" transform="translate(181.000000, 0.000000)">
                    <path d="M10.392,14 L10.3400227,14.7115625 C10.3282045,14.874375 10.1996818,15 10.0454545,15 L2.95454545,15 C2.80031818,15 2.67179545,14.874375 2.65997727,14.7115625 L2.607,14 L10.392,14 Z M9.79136364,2.015625 C10.0534318,1.891875 10.3373636,1.8275 10.6269091,1.8275 C11.9133182,1.8278125 13,2.9940625 13,4.375 C13,5.6553125 12.0855682,6.71375 10.9111364,6.858125 L10.464,13 L9,13 L9,10.4 C9,10.1788 8.776,10 8.5,10 C8.224,10 8,10.1788 8,10.4 L8,10.4 L8,13 L7,13 L7,10.3333333 C7,10.149 6.776,10 6.5,10 C6.224,10 6,10.149 6,10.3333333 L6,10.3333333 L6,13 L5,13 L5,10.4 C5,10.1788 4.776,10 4.5,10 C4.224,10 4,10.1788 4,10.4 L4,10.4 L4,13 L2.535,13 L2.08886364,6.858125 C0.914431818,6.71375 0,5.6553125 0,4.375 C0,2.9940625 1.08668182,1.8278125 2.37309091,1.8278125 C2.64195455,1.8278125 2.90579545,1.883125 3.15190909,1.9903125 C3.56672727,0.7840625 4.85697727,0 6.5,0 C8.04345455,0 9.12304545,0.66 9.79136364,2.015625 Z" id="Combined-Shape" fill="#FFFFFF"></path>
                    <path d="M5.40497982,2.17362099 C4.81426033,2.05334666 4.34025558,2.12716583 3.99517297,2.39253299 C3.60334492,2.69385519 3.53843723,3.12340636 3.53218466,3.17113427 C3.51015177,3.34295474 3.6218049,3.49918409 3.78228767,3.52559353 C3.79717475,3.52813902 3.81235958,3.52941176 3.82694892,3.52941176 C3.96986493,3.52941176 4.09640514,3.41709209 4.12141544,3.26181729 C4.12290415,3.25322627 4.15803767,3.04576896 4.35127202,2.90258524 C4.55611829,2.75112868 4.88154995,2.71517365 5.29362443,2.79885659 C5.45500042,2.83099338 5.61101706,2.71835551 5.64168446,2.54558049 C5.67264959,2.37312365 5.56665355,2.20639415 5.40497982,2.17362099 Z" id="Path-Copy-6" fill="#000000"></path>
                </g>
            </g>
        </g>
    </g>
</svg>