<svg xmlns="http://www.w3.org/2000/svg" viewBox="0 0 26 23">
  <path fill="#017AFF" stroke="#017AFF" stroke-width=".5" d="M19.6258172,21 C19.6258172,21 19.6253971,21 19.6253971,21 C17.8668423,20.9995791 14.6664153,19.8931198 9.40713086,14.6230234 C6.28062446,11.4905105 4.2713275,8.77170972 3.43426043,6.54195643 C2.52873278,4.13080947 3.2418988,2.92039602 3.74716307,2.41409303 C3.74716307,2.41409303 5.54057821,0.616991001 5.54057821,0.616991001 C5.93790157,0.2192717 6.46542602,0 7.02613076,0 C7.68007628,0 8.28530139,0.296290358 8.68640478,0.81269415 C8.68640478,0.81269415 10.8712632,3.62576908 10.8712632,3.62576908 C11.4676683,4.3930096 11.4634682,5.46243261 10.8616031,6.22546446 C10.8616031,6.22546446 10.368519,6.8508728 10.368519,6.8508728 C9.97161563,7.35465058 10.013616,8.07643746 10.4663798,8.52971121 C10.4663798,8.52971121 15.4875222,13.561176 15.4875222,13.561176 C15.9289459,14.0030864 16.6727722,14.0476983 17.1629164,13.6596589 C17.1629164,13.6596589 17.7870416,13.1655611 17.7870416,13.1655611 C18.5220478,12.5839229 19.6430373,12.5797142 20.3818235,13.1558811 C20.3818235,13.1558811 23.1887072,15.3452312 23.1887072,15.3452312 C23.6645713,15.716015 23.9585737,16.2745055 23.9959541,16.8767661 C24.0333344,17.4798685 23.8103125,18.0703449 23.3844289,18.4975249 C23.3844289,18.4975249 21.5910137,20.2942061 21.5910137,20.2942061 C21.270131,20.6161693 20.668266,21 19.6258172,21 Z M7.02613076,0.841733972 C6.68970792,0.841733972 6.37302524,0.973465339 6.13446323,1.21209692 C6.13446323,1.21209692 4.34146809,3.00919895 4.34146809,3.00919895 C3.7152428,3.63671163 3.67240244,4.78609936 4.22008706,6.24524521 C5.01515378,8.36220614 6.9601902,10.9808405 10.0010159,14.0279175 C15.3233008,19.3615648 18.3158261,20.1578452 19.6253971,20.158266 C19.6253971,20.158266 19.6258172,20.158266 19.6258172,20.158266 C20.3805635,20.158266 20.788387,19.9086919 20.9971287,19.6991001 C20.9971287,19.6991001 22.7901239,17.902419 22.7901239,17.902419 C23.045906,17.646111 23.1798872,17.2913201 23.157627,16.9293745 C23.1349468,16.5674289 22.9585453,16.2324188 22.6729429,16.0093593 C22.6729429,16.0093593 19.8660592,13.8200092 19.8660592,13.8200092 C19.4187554,13.4715314 18.7522098,13.4736357 18.308266,13.8259014 C18.308266,13.8259014 17.6837208,14.3199992 17.6837208,14.3199992 C17.3141176,14.6125018 16.8516937,14.7736938 16.3808698,14.7736938 C15.818905,14.7736938 15.2909605,14.5544221 14.8940572,14.1562819 C14.8940572,14.1562819 9.87249479,9.12481712 9.87249479,9.12481712 C9.11858843,8.36978175 9.04844784,7.16778564 9.70953342,6.3294186 C9.70953342,6.3294186 10.2026176,5.70401026 10.2026176,5.70401026 C10.5638206,5.24526525 10.5663407,4.60344309 10.2084976,4.14259374 C10.2084976,4.14259374 8.02321918,1.32993968 8.02321918,1.32993968 C7.78255715,1.01976071 7.41883408,0.841733972 7.02613076,0.841733972 Z" transform="translate(0 1)"/>
</svg>
