<svg xmlns="http://www.w3.org/2000/svg" viewBox="0 0 28 21">
  <path fill="#017AFF" fill-rule="evenodd" stroke="#FFF" stroke-width=".5" d="M23.0289143,2.03069257 C24.5349014,2.05864028 25.9088897,3.3372479 25.984889,4.87437181 C25.986889,4.91130271 25.987889,4.94823361 25.988889,4.98516451 C26.0138888,8.98767548 25.988889,12.9901864 25.988889,16.9926974 C25.9798891,18.5018736 24.7118999,19.9002571 23.1399133,19.9781115 C23.1029137,19.9801077 23.065914,19.9811059 23.0289143,19.9811059 C16.3539713,20.0230274 9.68002838,19.982104 3.00508543,19.982104 C1.49009838,19.9721227 0.0931103153,18.7074889 0.015110982,17.1384247 C0.0131109991,17.1014938 0.0121110076,17.0645629 0.0111110161,17.0266339 C-0.0138887702,13.0241229 0.0111110161,9.02161198 0.0111110161,5.01910101 C0.0201109392,3.51092294 1.2881001,2.1115413 2.86008667,2.03368697 C2.89708635,2.03268884 2.93408603,2.0316907 2.97108572,2.03069257 C9.65702857,1.98976914 16.3429714,1.98976914 23.0289143,2.03069257 Z M3.01108538,4.02496113 C2.49108982,4.02795553 2.01909385,4.47112632 2.00909394,5.01011782 C1.98409415,9.00763812 1.98409415,13.0051584 2.00909394,17.0026787 C2.01909385,17.5157188 2.45609012,17.976856 2.9960855,17.9868373 C9.6650285,18.0287589 16.3349715,18.0287589 23.0039145,17.9868373 C23.5199101,17.9778541 23.9809061,17.532687 23.9909061,17.0026787 C24.0159058,13.0051584 24.0159058,9.00763812 23.9909061,5.01011782 C23.9809061,4.49707776 23.5439099,4.03494245 23.0039145,4.02496113 C16.3399715,3.9840377 9.67602841,4.02496113 3.01108538,4.02496113 Z M21.0569311,6.02122595 C21.3449287,6.05116992 21.426928,6.10207468 21.5679268,6.20088979 C22.0349228,6.52927535 22.121922,7.28785598 21.7099256,7.71106412 C21.661926,7.76097074 21.6469261,7.77095207 21.5929266,7.81486989 L13.5989949,13.7986737 C13.2419979,14.0452124 12.764002,14.0502031 12.4000051,13.7986737 L4.40707344,7.81486989 C4.20907514,7.65317244 4.17307544,7.58529944 4.11007598,7.45654036 C3.83807831,6.903575 4.21407509,6.12303546 4.86506953,6.03020914 C5.12406732,5.99327824 5.38906505,6.06913631 5.6060632,6.21885617 L13,11.7544985 L20.3939368,6.21885617 C20.3939368,6.21885617 20.725934,6.01423902 21.0569311,6.02122595 L21.0569311,6.02122595 Z" transform="translate(1)"/>
</svg>
