<?xml version="1.0" encoding="UTF-8"?>
<svg width="36px" height="36px" viewBox="0 0 36 36" version="1.1" xmlns="http://www.w3.org/2000/svg" xmlns:xlink="http://www.w3.org/1999/xlink">
    <title>apple pay</title>
    <g id="Page-1" stroke="none" stroke-width="1" fill="none" fill-rule="evenodd">
        <g id="גיפטקארד-תשלום-חלקי" transform="translate(-363.000000, -522.000000)">
            <g id="payment-options/5-options-copy" transform="translate(126.000000, 398.000000)">
                <g id="payment/icon+text-copy-3" transform="translate(212.000000, 103.000000)">
                    <g id="Group-2" transform="translate(-0.008652, 21.000000)">
                        <g id="apple-pay" transform="translate(25.008652, 0.000000)">
                            <rect id="Rectangle" x="0" y="0" width="36" height="36"></rect>
                            <path d="M33.6521739,30.4634146 L2.34782609,30.4634146 C1.05115758,30.4634146 0,29.4574995 0,28.2166428 L0,7.24677188 C0,6.00591377 1.05115758,5 2.34782609,5 L33.6521739,5 C34.9488413,5 36,6.00591377 36,7.24677188 L36,28.2166428 C36,29.4574995 34.9488413,30.4634146 33.6521739,30.4634146 Z" id="Path" fill="#000000"></path>
                            <g id="iconfinder_apple_pay_onlyne_payments_pay_online_send_money_credit_card_card_ecommerce_2327539" transform="translate(2.439024, 10.292683)" fill="#FFFFFF">
                                <g id="Group" transform="translate(14.628571, 4.375000)" fill-rule="nonzero">
                                    <path d="M3.11185969,0 C4.64904438,0 5.73632088,1.01093818 5.73632088,2.48572087 C5.73632088,3.96050191 4.63654651,4.9833339 3.07436763,4.9833339 L1.23724647,4.9833339 L1.23724647,7.56420237 L0,7.56420237 L0,0 L3.11185969,0 Z M1.23724647,3.99618172 L2.7869273,3.99618172 C3.84920805,3.99618172 4.47408022,3.44908491 4.47408022,2.49761287 C4.47408022,1.54614083 3.86170592,0.987151856 2.7869273,0.987151856 L1.23724647,0.987151856 L1.23724647,3.99618172 Z" id="Shape"></path>
                                    <path d="M5.97377111,5.93480578 C5.97377111,4.93575994 6.78610358,4.36487698 8.26080028,4.26972938 L9.87296909,4.1864756 L9.87296909,3.74642038 C9.87296909,3.09228364 9.41056303,2.73548072 8.62322648,2.73548072 C7.97336012,2.73548072 7.49845792,3.05660366 7.39847788,3.54423285 L6.28620546,3.54423285 C6.32369752,2.53329318 7.32349202,1.79590266 8.66071836,1.79590266 C10.1229172,1.79590266 11.0602239,2.53329318 11.0602239,3.65127295 L11.0602239,7.55230872 L9.92295746,7.55230872 L9.92295746,6.60083667 L9.89796171,6.60083667 C9.57302931,7.21929344 8.82318482,7.61177634 8.01085061,7.61177634 C6.79860145,7.62366834 5.97377111,6.94574561 5.97377111,5.93480578 Z M9.87296909,5.42339061 L9.87296909,4.98333374 L8.42326813,5.07848134 C7.61093566,5.12605514 7.1860234,5.41149662 7.1860234,5.92291179 C7.1860234,6.41054081 7.63593141,6.7197701 8.32328983,6.7197701 C9.19810854,6.70787628 9.87296909,6.17267346 9.87296909,5.42339061 Z" id="Shape"></path>
                                    <path d="M12.3599599,9.59797239 L12.3599599,8.6702865 C12.4474386,8.69407414 12.6349006,8.69407414 12.7348805,8.69407414 C13.2972664,8.69407414 13.6221988,8.4680988 13.8221587,7.86153586 L13.9096374,7.56420056 L11.7350877,1.85536847 L13.0223226,1.85536847 L14.5595055,6.50568858 L14.5845013,6.50568858 L16.1216842,1.85536847 L17.3714286,1.85536847 L15.1343893,7.81396206 C14.6219951,9.18170316 14.0596091,9.62175689 12.8348638,9.62175689 C12.7473784,9.63365402 12.4599398,9.60986621 12.3599599,9.59797239 Z" id="Path"></path>
                                </g>
                                <path d="M9.9266192,7.51569815 C9.90898705,5.76629486 11.4348049,4.92317243 11.5036629,4.88321227 C10.6468634,3.69276936 9.31011619,3.52980689 8.83406283,3.51075446 C7.6976671,3.40261101 6.61626466,4.14569044 6.03931266,4.14569044 C5.46392489,4.14569044 4.57301123,3.52722773 3.63127805,3.54481238 C2.39127527,3.56115371 1.24904376,4.2270521 0.610620253,5.27823075 C-0.675943268,7.3953824 0.281754571,10.5308983 1.53640976,12.2484536 C2.14876711,13.087158 2.88068978,14.0332787 3.84044667,13.9991004 C4.76624348,13.9646979 5.11482281,13.4332468 6.23137899,13.4332468 C7.34882959,13.4332468 7.6626659,13.9991004 8.64188538,13.9816477 C9.63535951,13.9646979 10.2670395,13.1250139 10.8756269,12.2828826 C11.5791524,11.3074008 11.8688496,10.3631206 11.8857143,10.3140836 C11.8643114,10.3067136 9.94672404,9.60899354 9.9266192,7.51569815 L9.9266192,7.51569815 Z" id="Path"></path>
                                <path d="M7.51097212,2.42163694 C7.98385779,1.77951585 8.30115871,0.888473726 8.21422362,0 C7.53357238,0.0302940501 6.70828049,0.509008459 6.22072812,1.14912859 C5.78246764,1.71715818 5.39891774,2.62422491 5.50291954,3.49409313 C6.26221485,3.56023553 7.03784605,3.0625235 7.51097212,2.42163694 L7.51097212,2.42163694 Z" id="Path"></path>
                            </g>
                        </g>
                    </g>
                </g>
            </g>
        </g>
    </g>
</svg>