<svg width="40" height="22" viewBox="0 0 40 22" fill="none" xmlns="http://www.w3.org/2000/svg">
<path fill-rule="evenodd" clip-rule="evenodd" d="M19.5689 5.90584C20.3586 5.90584 20.9986 6.54391 20.9986 7.33036V18.5149C20.9986 19.302 20.3586 19.9394 19.5689 19.9394C19.3815 19.9397 19.1959 19.9032 19.0226 19.8317C18.8493 19.7603 18.6918 19.6555 18.5591 19.5232C18.4263 19.391 18.3209 19.2338 18.2489 19.0608C18.1769 18.8878 18.1396 18.7023 18.1393 18.5149V7.33036C18.1393 6.54326 18.7793 5.90584 19.5689 5.90584ZM4.67991 0.352295C5.47411 0.352295 6.11798 0.988424 6.11798 1.77359V5.90455H10.3257C14.2315 5.90455 17.4096 9.0452 17.4096 12.9046C17.4096 16.7646 14.2315 19.9046 10.3257 19.9046C6.41927 19.9046 3.24185 16.7646 3.24185 12.9046V8.74713H1.77733C0.982494 8.74713 0.338623 8.111 0.338623 7.32584C0.338623 6.54133 0.982494 5.90455 1.77733 5.90455H3.24185V1.77423C3.24185 0.989069 3.88572 0.35294 4.67991 0.35294V0.352295ZM25.1599 0.352295C25.958 0.352295 26.6051 0.988424 26.6051 1.77359V5.90455H30.227C31.0251 5.90455 31.6722 6.54133 31.6722 7.32584C31.6722 8.111 31.0251 8.74713 30.227 8.74713H26.6051V12.9046C26.6051 15.1775 28.4141 17.0033 30.7231 17.0613C31.5212 17.0807 32.1515 17.7336 32.1315 18.5181C32.1109 19.2904 31.4683 19.9026 30.687 19.9026H30.6496C28.8017 19.8622 27.0416 19.1064 25.7399 17.7942C25.0972 17.1525 24.5875 16.3903 24.24 15.5512C23.8925 14.7122 23.714 13.8127 23.7148 12.9046V8.74713H23.0993C22.3012 8.74713 21.6541 8.111 21.6541 7.32584C21.6541 6.54133 22.3012 5.90455 23.0993 5.90455H23.7148V1.77423C23.7148 0.989069 24.3619 0.35294 25.1599 0.35294V0.352295ZM10.3257 8.74713H6.11798V12.9046C6.11798 15.1975 8.00572 17.0626 10.3257 17.0626C12.6457 17.0626 14.5335 15.1975 14.5335 12.9046C14.5335 10.6123 12.6457 8.74713 10.3257 8.74713Z" fill="white"/>
<path fill-rule="evenodd" clip-rule="evenodd" d="M21.2129 3.68451C21.2129 4.56064 20.4929 5.2716 19.6045 5.2716C18.7161 5.2716 17.9961 4.56064 17.9961 3.68451C17.9961 2.80838 18.7161 2.09741 19.6045 2.09741C20.4929 2.09741 21.2129 2.80838 21.2129 3.68451ZM33.3916 21.3884L39.3496 18.1032C39.4126 18.0684 39.4641 18.0163 39.4981 17.9529C39.5321 17.8896 39.5471 17.8178 39.5414 17.7461C39.5356 17.6745 39.5092 17.606 39.4655 17.549C39.4218 17.4919 39.3625 17.4487 39.2948 17.4245L32.8838 15.1168C32.8289 15.097 32.7688 15.0969 32.7139 15.1166C32.6589 15.1362 32.6125 15.1744 32.5825 15.2245C32.563 15.2589 32.5518 15.2975 32.55 15.3371C32.5482 15.3767 32.5558 15.4162 32.5722 15.4522L33.4954 17.5774C33.5286 17.6528 33.5823 17.7175 33.6504 17.7639C33.7185 17.8103 33.7983 17.8367 33.8806 17.84L36.5142 17.9542C36.5221 17.9545 36.5296 17.9576 36.5353 17.9631C36.541 17.9686 36.5445 17.976 36.5451 17.9839C36.5456 17.9916 36.5432 17.9993 36.5385 18.0054C36.5338 18.0116 36.5269 18.0159 36.5193 18.0174L33.9374 18.5438C33.8566 18.56 33.7821 18.5985 33.7222 18.6551C33.6624 18.7118 33.6198 18.7841 33.5993 18.8638L33.0296 21.1064C33.0193 21.1447 33.0181 21.1848 33.0261 21.2236C33.0342 21.2624 33.0513 21.2987 33.0761 21.3297C33.1136 21.3746 33.1657 21.4051 33.2233 21.4158C33.2809 21.4265 33.3404 21.4168 33.3916 21.3884Z" fill="#D32733"/>
</svg>
