<?xml version="1.0" encoding="UTF-8"?>
<svg width="37px" height="36px" viewBox="0 0 37 36" version="1.1" xmlns="http://www.w3.org/2000/svg" xmlns:xlink="http://www.w3.org/1999/xlink">
    <title>bit</title>
    <defs>
        <polygon id="path-1" points="0 0 35.9947286 0 35.9947286 36 0 36"></polygon>
        <linearGradient x1="50%" y1="0%" x2="50%" y2="100%" id="linearGradient-3">
            <stop stop-color="#0E5B8A" offset="0%"></stop>
            <stop stop-color="#00ADB6" offset="100%"></stop>
        </linearGradient>
        <polygon id="path-4" points="0.00648028875 0 0.119519711 0 0.119519711 0.12726 0.00648028875 0.12726"></polygon>
    </defs>
    <g id="Page-1" stroke="none" stroke-width="1" fill="none" fill-rule="evenodd">
        <g id="גיפטקארד-תשלום-חלקי" transform="translate(-151.000000, -522.000000)">
            <g id="payment-options/5-options-copy" transform="translate(126.000000, 398.000000)">
                <g id="payment/icon+text" transform="translate(0.000000, 103.000000)">
                    <g id="Group-2" transform="translate(-0.008652, 21.000000)">
                        <g id="bit" transform="translate(25.008652, 0.000000)">
                            <rect id="Rectangle" x="0" y="0" width="36" height="36"></rect>
                            <g id="Group-3" transform="translate(0.000000, 0.000000)">
                                <mask id="mask-2" fill="white">
                                    <use xlink:href="#path-1"></use>
                                </mask>
                                <g id="Clip-2"></g>
                                <path d="M30.9125456,2.36033811e-06 L32.5935406,0.0114932722 C34.1429202,0.0339007469 35.6804648,0.930073852 35.9184241,2.57777855 C35.9310145,2.64210563 35.943605,2.70630682 35.9561954,2.77050801 C35.9587135,5.92014295 35.9612316,9.07103673 35.9637497,12.2206717 C35.9499002,12.2332601 35.9222012,12.2496251 35.9247193,12.2571782 C35.9322736,12.2886494 35.9511592,12.3188617 35.9650087,12.3478152 L35.9650087,13.7237349 C35.9675268,16.9564537 35.9689118,20.1879137 35.9713039,23.4193737 C35.9775992,26.6898579 36.0191476,29.9590833 35.973822,33.2283087 C35.9524183,34.8232677 34.6644162,35.9927365 33.0629122,35.9939953 C22.9981141,36.0015484 12.934575,36.0015484 2.87103591,35.996513 C1.32241174,35.9952541 0.0432229822,34.762843 0.0167830572,33.167884 C-0.0222473083,30.9271365 0.0180421012,28.6838714 0.0243373215,26.4406062 L0.0344096738,21.780355 C0.0356687179,19.1392942 0.0369277619,16.4994923 0.0369277619,13.8584315 C0.0306325417,10.1712689 -0.0109159119,6.48536521 0.0318915857,2.79946149 C0.0507772465,1.18813747 1.31737556,0.0325160153 2.94154238,0.0299983215 C5.95166489,0.026977089 8.9617874,0.025340588 11.9719099,0.0244593952 C16.6029257,0.0232005483 21.2339416,0.0239558564 25.8649574,0.024962934 C28.1061817,0.025340588 30.353953,-0.0208590931 32.5935406,0.0114932722 Z" id="Combined-Shape" fill="#FFFFFF" mask="url(#mask-2)"></path>
                                <path d="M30.9125456,1.28731307e-05 L32.5935406,0.011503785 C34.1429202,0.0339112597 35.6804648,0.930084365 35.9184241,2.57778907 C35.9310145,2.64211614 35.943605,2.70631734 35.9561954,2.77051853 C35.9587135,5.92015346 35.9612316,9.07104724 35.9637497,12.2206822 C35.9499002,12.2332706 35.9222012,12.2496357 35.9247193,12.2571887 C35.9322736,12.2886599 35.9511592,12.3188722 35.9650087,12.3478257 L35.9650087,13.7237454 C35.9675268,16.9564642 35.9689118,20.1879242 35.9713039,23.4193842 C35.9775992,26.6898684 36.0191476,29.9590938 35.973822,33.2283192 C35.9524183,34.8232782 34.6644162,35.992747 33.0629122,35.9940058 C22.9981141,36.0015589 12.934575,36.0015589 2.87103591,35.9965235 C1.32241174,35.9952647 0.0432229822,34.7628535 0.0167830572,33.1678945 C-0.0222473083,30.9271471 0.0180421012,28.6838819 0.0243373215,26.4406167 L0.0344096738,21.7803655 C0.0356687179,19.1393047 0.0369277619,16.4995028 0.0369277619,13.858442 C0.0306325417,10.1712794 -0.0109159119,6.48537572 0.0318915857,2.79947201 C0.0507772465,1.18814798 1.31737556,0.0325265281 2.94154238,0.0300088343 C5.95166489,0.0269876018 8.9617874,0.0253511008 11.9719099,0.024469908 C16.6029257,0.0232110611 21.2339416,0.0239663692 25.8649574,0.0249734467 C28.1061817,0.0253511008 30.353953,-0.0208485803 32.5935406,0.011503785 Z M28.9546515,21.2365436 C28.7204693,21.1509421 28.4749557,21.1068824 28.6008601,21.4618772 C28.8010481,22.0321349 28.9798323,22.6527464 29.3462142,23.1097078 C29.6257219,23.4584084 30.2187317,23.2141921 30.6682104,23.2720991 C30.8218138,23.2922406 30.9754172,23.297276 31.2146355,23.3148999 C30.8293681,23.5666693 30.4642453,23.5666693 30.1293396,23.6069524 C29.657198,23.6648593 29.4179797,23.8423567 29.2580811,24.3257539 C29.1246224,24.7311026 29.1283995,25.1893229 28.8589641,25.5493531 C28.8715546,25.944631 29.0352303,26.0113499 29.370136,25.8111933 C29.7591806,25.5783066 30.1645928,25.3743734 30.5637098,25.1578517 C31.514288,24.5938883 32.4661253,24.0299249 33.4167036,23.4634438 C33.5564575,23.3803599 33.7528683,23.3186764 33.7239103,23.1122255 C33.6987294,22.9208808 33.5111319,22.8692681 33.3563954,22.8113611 C33.0452856,22.696806 32.7317836,22.5898041 32.4195407,22.4777667 C31.2649973,22.0648649 30.1091949,21.653222 28.9546515,21.2365436 Z M8.046966,9.98874663 C6.8836093,9.89181542 6.57262542,10.1725383 6.56255306,11.3067593 C6.5549988,12.2420826 6.5348541,13.1774058 6.52100461,14.1114702 C6.13196,14.3216976 5.71269833,14.1479768 5.31118919,14.2134368 C4.76463816,14.3015561 4.34915363,14.7497056 4.35290521,15.2721271 C4.35670789,15.8411259 4.78100574,16.3068992 5.35512982,16.3559942 C5.56299799,16.3736181 5.77565053,16.3836889 5.97961567,16.3547354 C6.43035344,16.2930519 6.58017968,16.431525 6.57766159,16.9199576 C6.57136637,18.2480411 6.46434763,19.5824188 6.6720899,20.9054669 C6.69727078,20.9633739 6.73126497,21.0175043 6.7463735,21.0779289 C7.62896337,24.5183575 11.3557338,25.5367646 14.0186119,24.3068712 C16.0960346,23.3476299 17.1246736,21.669587 17.1825896,19.3910741 C16.7847317,15.9242097 14.8432858,14.203366 11.3280348,14.2021072 C10.6368196,14.2021072 9.94434538,14.1781891 9.2531302,14.2109191 C8.85149514,14.228543 8.75454875,14.0825167 8.76588015,13.7073804 C8.79106103,12.9117891 8.75706684,12.1136802 8.77847059,11.318089 C8.79483816,10.7188778 8.59339111,10.2656929 8.046966,9.98874663 Z M19.0585652,14.2486845 C18.4907364,14.0825167 18.0916194,14.3179211 17.7202014,14.9976984 C17.7063519,15.0052515 17.679912,15.0153223 17.679912,15.0216165 C17.6836891,15.0480523 17.6937615,15.0744881 17.7025748,15.099665 L17.6849482,19.3935918 C17.6962796,20.8110534 17.7000567,22.2297738 17.7227195,23.6472355 C17.7340509,24.3396012 18.0966556,24.736138 18.7047739,24.7751623 C19.3632539,24.8179631 19.850504,24.3106478 19.8656125,23.527645 C19.8870162,22.4853198 19.8857572,21.4429945 19.8945705,20.4006693 C19.8857572,18.7679449 19.8706487,17.1339616 19.8719077,15.5012372 C19.8719077,14.8957318 19.6767559,14.4286996 19.0585652,14.2486845 Z M22.9087219,9.95979054 C22.2351334,9.961052 21.853643,10.4041661 21.8410526,11.2287108 C21.8284622,12.0671029 21.8309802,12.9054949 21.8410526,13.7438869 C21.8448297,14.0346806 21.8007632,14.1895187 21.4419356,14.2159545 C20.681473,14.2738615 20.2672475,14.7194933 20.2924284,15.3514344 C20.3188683,15.9833756 20.6562921,16.2880165 21.4658575,16.3559942 C21.7164072,16.3761358 21.853643,16.4189366 21.8473478,16.7059537 C21.823426,17.6878542 21.8146127,18.6710137 21.8007632,19.6529143 C21.9480713,20.2898908 21.9241495,20.94575 22.165886,21.5802089 C22.9905598,23.7441667 24.8451317,24.7789388 27.0383864,24.7714268 C27.6943484,24.768868 28.0670254,24.3396012 28.0657695,23.6862597 C28.0632483,22.9661993 27.6754627,22.6351226 26.7739872,22.5784744 C25.0591692,22.4714725 24.0418616,21.4417357 23.996536,19.7284451 C23.9713551,18.7654272 24.0003131,17.8011505 23.9839456,16.8368737 C23.9789094,16.5133501 24.0267531,16.333335 24.4195748,16.3509588 C25.2140316,16.3862066 26.0110065,16.3761358 26.8067223,16.3849477 C27.5520764,16.0765302 27.8655784,15.6585931 27.7648548,15.1097358 C27.6565771,14.5155601 27.1919898,14.2071426 26.3887197,14.2021072 C25.7818605,14.1983307 25.1712241,14.1668595 24.566883,14.212178 C24.0720786,14.2499434 23.9650599,14.0611163 23.9839456,13.6079315 C24.0191988,12.8123402 24.0053493,12.0154901 23.9902408,11.21864 C23.9738732,10.412978 23.5709791,9.9585343 22.9087219,9.95979054 Z M12.1338608,16.3698038 C14.1747712,16.4591819 15.5244664,18.571527 14.8206607,20.5302928 C14.7917027,20.5844232 14.7614857,20.6385536 14.7312686,20.692684 C14.7237144,20.7417791 14.6947563,20.766956 14.6456536,20.7656971 C14.513454,21.5222641 13.943107,21.9250951 13.3488383,22.2523953 C11.9311547,23.0341393 10.2276681,22.5658482 9.30227069,21.1911874 C8.97743732,20.8374514 8.854051,20.396855 8.8024302,19.9386347 C8.74199608,19.4074013 8.72783184,18.8749091 8.72578589,18.3421022 L8.72773275,17.2763484 C8.72737718,17.0987461 8.72583835,16.9211787 8.72185138,16.7436813 C8.71429711,16.4352638 8.8339063,16.3521799 9.12474547,16.3559565 C10.1282036,16.3685449 11.1329207,16.3257441 12.1338608,16.3698038 Z M18.8961486,11.2312285 C18.2187829,11.1708039 17.6131827,11.6818957 17.5565257,12.3629319 C17.5023868,13.011238 18.0450348,13.6230376 18.7173643,13.669615 C19.3456273,13.7136746 19.9487094,13.176147 19.9915169,12.5328762 C20.0368425,11.8707227 19.5470743,11.2891355 18.8961486,11.2312285 Z" id="Combined-Shape" fill="url(#linearGradient-3)" mask="url(#mask-2)"></path>
                            </g>
                            <g id="Group-6" transform="translate(35.875381, 12.220634)">
                                <mask id="mask-5" fill="white">
                                    <use xlink:href="#path-4"></use>
                                </mask>
                                <g id="Clip-5"></g>
                                <path d="M0.0897207113,0.12726 C0.0758607113,0.09828 0.0569607113,0.06804 0.0494007113,0.03654 C0.0468807113,0.02898 0.0746007113,0.0126 0.0884607113,0 C0.0884607113,0.04284 0.0897207113,0.08568 0.0897207113,0.12726" id="Fill-4" fill="#01879E" mask="url(#mask-5)"></path>
                            </g>
                            <path d="M33.4167036,23.4634333 C32.4661253,24.0299144 31.514288,24.5938778 30.5637098,25.1578412 C30.1645928,25.3743629 29.7591806,25.5782961 29.370136,25.8111828 C29.0352303,26.0113394 28.8715546,25.9446205 28.8589641,25.5493426 C29.1283995,25.1893124 29.1246224,24.7310921 29.2580811,24.3257434 C29.4179797,23.8423462 29.657198,23.6648488 30.1293396,23.6069418 C30.4642453,23.5666587 30.8293681,23.5666587 31.2146355,23.3148894 C30.9754172,23.2972655 30.8218138,23.2922301 30.6682104,23.2720886 C30.2187317,23.2141816 29.6257219,23.4583979 29.3462142,23.1096973 C28.9798323,22.6527359 28.8010481,22.0321244 28.6008601,21.4618667 C28.4749557,21.1068719 28.7204693,21.1509315 28.9546515,21.2365331 C30.1091949,21.6532115 31.2649973,22.0648544 32.4195407,22.4777562 C32.7317836,22.5897935 33.0452856,22.6967955 33.3563954,22.8113506 C33.5111319,22.8692576 33.6987294,22.9208703 33.7239103,23.112215 C33.7528683,23.3186659 33.5564575,23.3803494 33.4167036,23.4634333 M19.9915295,12.5328531 C19.948722,13.1761239 19.3456399,13.7136515 18.7173769,13.6695919 C18.0450474,13.6230145 17.5023994,13.0112149 17.5565383,12.3629088 C17.6131953,11.6818726 18.2187955,11.1707808 18.8961612,11.2312054 C19.5470869,11.2891124 20.0368551,11.8706996 19.9915295,12.5328531" id="Combined-Shape" fill="#E2082C"></path>
                            <path d="M17.7026252,15.0996042 C17.6938119,15.0744272 17.6837395,15.0479914 17.6799624,15.0215557 C17.6799624,15.0152614 17.7064023,15.0051906 17.7202518,14.9976376 C17.7353603,15.035403 17.7303241,15.0693918 17.7026252,15.0996042" id="Fill-11" fill="#01879E"></path>
                        </g>
                    </g>
                </g>
            </g>
        </g>
    </g>
</svg>