<svg xmlns="http://www.w3.org/2000/svg" width="39" height="39" viewBox="0 0 39 22" fill="none">
<path d="M28.9576 19.3762C27.9852 21.0314 26.4541 21.859 24.3644 21.859C23.0196 21.859 21.8816 21.5073 20.9505 20.8038C20.0195 20.1003 19.3988 19.0244 19.0884 17.5761C18.2815 18.9624 16.9884 20.0176 15.209 20.7417C13.4297 21.4659 11.4538 21.828 9.28129 21.828C3.75701 21.828 0.994873 19.2417 0.994873 14.0691V2.49299C0.994873 2.05849 1.1397 1.69641 1.42937 1.40675C1.73972 1.0964 2.11214 0.941223 2.54664 0.941223C2.98113 0.941223 3.34321 1.0964 3.63287 1.40675C3.94322 1.69641 4.0984 2.05849 4.0984 2.49299V8.51383C5.19498 7.39656 6.56053 6.83792 8.19505 6.83792C9.47785 6.83792 10.6158 7.14828 11.6089 7.76898C12.6228 8.369 13.409 9.20695 13.9676 10.2828C14.5469 11.3587 14.8366 12.5794 14.8366 13.945C14.8366 14.9174 14.6918 15.8278 14.4021 16.6761C14.1124 17.5244 13.6883 18.2692 13.1297 18.9106C14.7642 18.4761 16.078 17.6589 17.0711 16.4589C18.0643 15.2588 18.5608 13.8209 18.5608 12.145V8.38969C18.5608 7.95519 18.7057 7.59311 18.9953 7.30345C19.3057 6.9931 19.6781 6.83792 20.1126 6.83792C20.5471 6.83792 20.9092 6.9931 21.1988 7.30345C21.5092 7.59311 21.6644 7.95519 21.6644 8.38969V14.9692C21.6644 16.3968 21.892 17.452 22.3471 18.1348C22.8023 18.8175 23.5161 19.1589 24.4886 19.1589C25.6058 19.1589 26.4645 18.7658 27.0645 17.9796C27.6852 17.1727 27.9956 16.0244 27.9956 14.5347V9.81731H26.0093C25.5748 9.81731 25.2024 9.67248 24.892 9.38282C24.6024 9.09315 24.4575 8.74142 24.4575 8.32762C24.4575 7.91381 24.6024 7.56208 24.892 7.27242C25.2024 6.98275 25.5748 6.83792 26.0093 6.83792H27.9956V2.52402C27.9956 2.08953 28.1404 1.72745 28.43 1.43779C28.7404 1.12743 29.1128 0.972258 29.5473 0.972258C29.9818 0.972258 30.3439 1.12743 30.6336 1.43779C30.9439 1.72745 31.0991 2.08953 31.0991 2.52402V6.83792H35.1337C35.5682 6.83792 35.9302 6.98275 36.2199 7.27242C36.5303 7.56208 36.6854 7.91381 36.6854 8.32762C36.6854 8.74142 36.5303 9.09315 36.2199 9.38282C35.9302 9.67248 35.5682 9.81731 35.1337 9.81731H31.0991V14.9381C31.0991 17.483 31.8129 18.7555 33.2405 18.7555C33.944 18.7555 34.5233 18.4865 34.9785 17.9485C35.2268 17.6589 35.4544 17.4416 35.6613 17.2968C35.8682 17.1313 36.1061 17.0485 36.3751 17.0485C36.8096 17.0485 37.1716 17.1934 37.4613 17.483C37.751 17.752 37.8958 18.1037 37.8958 18.5382C37.8958 19.0762 37.6786 19.6038 37.2441 20.121C36.8096 20.6383 36.2302 21.0521 35.5061 21.3624C34.7819 21.6935 34.0164 21.859 33.2095 21.859C32.2577 21.859 31.4198 21.6417 30.6956 21.2073C29.9922 20.7934 29.4128 20.1831 28.9576 19.3762ZM21.323 3.85854C20.9919 4.18958 20.5885 4.3551 20.1126 4.3551C19.6367 4.3551 19.2333 4.18958 18.9022 3.85854C18.5712 3.5275 18.4057 3.13438 18.4057 2.6792C18.4057 2.20332 18.5712 1.79987 18.9022 1.46882C19.254 1.13778 19.6574 0.972258 20.1126 0.972258C20.5885 0.972258 20.9919 1.13778 21.323 1.46882C21.654 1.79987 21.8195 2.20332 21.8195 2.6792C21.8195 3.13438 21.654 3.5275 21.323 3.85854ZM5.21567 17.5451C5.96052 18.352 6.89157 18.7555 8.00884 18.7555C9.06404 18.7555 9.94338 18.352 10.6468 17.5451C11.3503 16.7382 11.702 15.6726 11.702 14.3485C11.702 13.045 11.34 11.9794 10.6158 11.1518C9.89165 10.3242 8.99163 9.91042 7.91574 9.91042C6.83985 9.91042 5.93983 10.3139 5.21567 11.1208C4.49151 11.9277 4.12943 12.9829 4.12943 14.2864C4.12943 15.6312 4.49151 16.7175 5.21567 17.5451Z" fill="#00353B"/>
</svg>