<svg xmlns="http://www.w3.org/2000/svg" viewBox="0 0 31 25">
  <path fill="#FFF" d="M24.5465839,0 C27.4006268,0 29.7142857,2.30264573 29.7142857,5.14310319 L29.7142857,18.3865939 C29.7142857,21.2270514 27.4006268,23.5296971 24.5465839,23.5296971 L22.027,23.529 L22.0278162,23.5766423 L21.2253156,23.5766423 C21.0056151,23.5766423 20.7896272,23.5608223 20.5784393,23.5302644 L5.16770186,23.5296971 C2.31365893,23.5296971 0,21.2270514 0,18.3865939 L0,5.14310319 C0,2.30264573 2.31365893,0 5.16770186,0 L24.5465839,0 Z M8.95996649,15.8619875 L1.291,15.861 L1.29192547,18.3865939 C1.29192547,20.4408533 2.90543697,22.1200508 4.93997056,22.2373732 L5.16770186,22.2439213 L8.738,22.243 L8.73850016,22.1686254 L8.95996649,22.1686254 L9.16828971,22.1619181 C10.8210396,22.0551547 12.1283673,20.6871752 12.1283673,19.0153065 C12.1283673,17.2737765 10.7098259,15.8619875 8.95996649,15.8619875 Z M24.5465839,1.2857758 L5.16770186,1.2857758 C3.10361724,1.2857758 1.41638843,2.89160686 1.29850485,4.91645591 L1.29192547,5.14310319 L1.291,8.147 L8.20597823,8.14733276 C9.33455865,8.14733276 10.2494538,7.23679254 10.2494538,6.11358425 C10.2494538,5.05277643 9.43338992,4.18166326 8.39197616,4.08814701 L8.20597823,4.07983575 L6.99155995,4.07983575 L6.99155995,2.79405995 L8.20597823,2.79405995 C10.0480694,2.79405995 11.5413793,4.2802616 11.5413793,6.11358425 C11.5413793,7.87639449 10.1607303,9.31827186 8.41691424,9.4265778 L8.20597823,9.43310856 L7.751,9.433 L7.751,14.576 L8.95996649,14.5762117 L9.20469211,14.5827802 C11.5542482,14.7092242 13.4202927,16.6453836 13.4202927,19.0153065 C13.4202927,20.2873402 12.8827032,21.4344108 12.0213049,22.2437551 L18.0407362,22.2443062 C17.2535004,21.4443079 16.7681569,20.3489132 16.7681569,19.1407001 C16.7681569,16.7724602 18.6328762,14.8376758 20.9807638,14.7113216 L21.2253156,14.7047578 L21.962,14.704 L21.962,9.341 L21.7693423,9.33594668 C20.0889313,9.23157875 18.745984,7.88802381 18.6522026,6.21264423 L18.6469694,6.02517151 C18.6469694,4.19307645 20.1392794,2.70786995 21.9801371,2.70786995 L23.1965724,2.70786995 L23.1965724,3.99364575 L21.9801371,3.99364575 L21.7943424,4.00194793 C20.7540669,4.09536198 19.9388948,4.96552308 19.9388948,6.02517151 C19.9388948,7.14715221 20.8527901,8.05669727 21.9801371,8.05669727 L28.422,8.056 L28.4223602,5.14310319 C28.4223602,3.08884378 26.8088487,1.40964631 24.7743152,1.29232386 L24.5465839,1.2857758 Z M28.422,15.99 L21.2253156,15.9905336 C19.4772055,15.9905336 18.0600823,17.4009112 18.0600823,19.1407001 C18.0600823,20.6940252 19.1897202,21.9847652 20.6759918,22.2435955 L24.5465839,22.2439213 C26.6106685,22.2439213 28.2978973,20.6380902 28.4157809,18.6132412 L28.4223602,18.3865939 L28.422,15.99 Z M23.254,14.704 L28.422,14.704 L28.422,9.342 L23.254,9.342 L23.254,14.704 Z M6.459,9.433 L1.291,9.433 L1.291,14.576 L6.459,14.576 L6.459,9.433 Z" transform="translate(.595 .71)"/>
</svg>
