<svg xmlns="http://www.w3.org/2000/svg" xmlns:xlink="http://www.w3.org/1999/xlink" viewBox="0 0 284 194">
  <defs>
    <linearGradient id="card_front_with_chip_and_dots-c" x1="15.345%" x2="60.502%" y1="31.991%" y2="62.593%">
      <stop offset="0%" stop-color="#4E5A64"/>
      <stop offset="100%" stop-color="#2A3034"/>
    </linearGradient>
    <rect id="card_front_with_chip_and_dots-b" width="260" height="170" rx="14.49"/>
    <filter id="card_front_with_chip_and_dots-a" width="115.4%" height="123.5%" x="-7.7%" y="-9.4%" filterUnits="objectBoundingBox">
      <feOffset dy="4" in="SourceAlpha" result="shadowOffsetOuter1"/>
      <feGaussianBlur in="shadowOffsetOuter1" result="shadowBlurOuter1" stdDeviation="6"/>
      <feColorMatrix in="shadowBlurOuter1" values="0 0 0 0 0   0 0 0 0 0   0 0 0 0 0  0 0 0 0.4 0"/>
    </filter>
  </defs>
  <g fill="none" fill-rule="evenodd" transform="translate(12 8)">
    <use fill="#000" filter="url(#card_front_with_chip_and_dots-a)" xlink:href="#card_front_with_chip_and_dots-b"/>
    <use fill="url(#card_front_with_chip_and_dots-c)" xlink:href="#card_front_with_chip_and_dots-b"/>
    <path fill="#FFF" d="M122.495909,98.6371729 C123.637281,98.6371729 124.562546,97.7089827 124.562546,96.5640021 C124.562546,95.4190216 123.637281,94.4908314 122.495909,94.4908314 C121.354536,94.4908314 120.429271,95.4190216 120.429271,96.5640021 C120.429271,97.7089827 121.354536,98.6371729 122.495909,98.6371729 Z M130.762459,98.6371729 C131.903832,98.6371729 132.829097,97.7089827 132.829097,96.5640021 C132.829097,95.4190216 131.903832,94.4908314 130.762459,94.4908314 C129.621087,94.4908314 128.695822,95.4190216 128.695822,96.5640021 C128.695822,97.7089827 129.621087,98.6371729 130.762459,98.6371729 Z M139.02901,98.6371729 C140.170382,98.6371729 141.095648,97.7089827 141.095648,96.5640021 C141.095648,95.4190216 140.170382,94.4908314 139.02901,94.4908314 C137.887637,94.4908314 136.962372,95.4190216 136.962372,96.5640021 C136.962372,97.7089827 137.887637,98.6371729 139.02901,98.6371729 Z M147.29556,98.6371729 C148.436933,98.6371729 149.362198,97.7089827 149.362198,96.5640021 C149.362198,95.4190216 148.436933,94.4908314 147.29556,94.4908314 C146.154188,94.4908314 145.228923,95.4190216 145.228923,96.5640021 C145.228923,97.7089827 146.154188,98.6371729 147.29556,98.6371729 Z M75.492982,98.6371729 C76.6343544,98.6371729 77.5596196,97.7089827 77.5596196,96.5640021 C77.5596196,95.4190216 76.6343544,94.4908314 75.492982,94.4908314 C74.3516096,94.4908314 73.4263444,95.4190216 73.4263444,96.5640021 C73.4263444,97.7089827 74.3516096,98.6371729 75.492982,98.6371729 Z M83.7595325,98.6371729 C84.900905,98.6371729 85.8261702,97.7089827 85.8261702,96.5640021 C85.8261702,95.4190216 84.900905,94.4908314 83.7595325,94.4908314 C82.6181601,94.4908314 81.6928949,95.4190216 81.6928949,96.5640021 C81.6928949,97.7089827 82.6181601,98.6371729 83.7595325,98.6371729 Z M92.026083,98.6371729 C93.1674555,98.6371729 94.0927207,97.7089827 94.0927207,96.5640021 C94.0927207,95.4190216 93.1674555,94.4908314 92.026083,94.4908314 C90.8847106,94.4908314 89.9594454,95.4190216 89.9594454,96.5640021 C89.9594454,97.7089827 90.8847106,98.6371729 92.026083,98.6371729 Z M100.292634,98.6371729 C101.434006,98.6371729 102.359271,97.7089827 102.359271,96.5640021 C102.359271,95.4190216 101.434006,94.4908314 100.292634,94.4908314 C99.1512611,94.4908314 98.2259959,95.4190216 98.2259959,96.5640021 C98.2259959,97.7089827 99.1512611,98.6371729 100.292634,98.6371729 Z M28.4900552,98.6371729 C29.6314276,98.6371729 30.5566928,97.7089827 30.5566928,96.5640021 C30.5566928,95.4190216 29.6314276,94.4908314 28.4900552,94.4908314 C27.3486827,94.4908314 26.4234175,95.4190216 26.4234175,96.5640021 C26.4234175,97.7089827 27.3486827,98.6371729 28.4900552,98.6371729 Z M36.7566057,98.6371729 C37.8979781,98.6371729 38.8232433,97.7089827 38.8232433,96.5640021 C38.8232433,95.4190216 37.8979781,94.4908314 36.7566057,94.4908314 C35.6152332,94.4908314 34.6899681,95.4190216 34.6899681,96.5640021 C34.6899681,97.7089827 35.6152332,98.6371729 36.7566057,98.6371729 Z M45.0231562,98.6371729 C46.1645287,98.6371729 47.0897938,97.7089827 47.0897938,96.5640021 C47.0897938,95.4190216 46.1645287,94.4908314 45.0231562,94.4908314 C43.8817838,94.4908314 42.9565186,95.4190216 42.9565186,96.5640021 C42.9565186,97.7089827 43.8817838,98.6371729 45.0231562,98.6371729 Z M53.2897067,98.6371729 C54.4310792,98.6371729 55.3563444,97.7089827 55.3563444,96.5640021 C55.3563444,95.4190216 54.4310792,94.4908314 53.2897067,94.4908314 C52.1483343,94.4908314 51.2230691,95.4190216 51.2230691,96.5640021 C51.2230691,97.7089827 52.1483343,98.6371729 53.2897067,98.6371729 Z" opacity=".529"/>
    <g fill="#FFF" fill-rule="nonzero" transform="translate(24.595 25.71)">
      <path d="M24.5465839,0 C27.4006268,0 29.7142857,2.30264573 29.7142857,5.14310319 L29.7142857,18.3865939 C29.7142857,21.2270514 27.4006268,23.5296971 24.5465839,23.5296971 L22.027,23.529 L22.0278162,23.5766423 L21.2253156,23.5766423 C21.0056151,23.5766423 20.7896272,23.5608223 20.5784393,23.5302644 L5.16770186,23.5296971 C2.31365893,23.5296971 3.55271368e-15,21.2270514 3.55271368e-15,18.3865939 L3.55271368e-15,5.14310319 C3.55271368e-15,2.30264573 2.31365893,0 5.16770186,0 L24.5465839,0 Z M8.95996649,15.8619875 L1.291,15.861 L1.29192547,18.3865939 C1.29192547,20.4408533 2.90543697,22.1200508 4.93997056,22.2373732 L5.16770186,22.2439213 L8.738,22.243 L8.73850016,22.1686254 L8.95996649,22.1686254 L9.16828971,22.1619181 C10.8210396,22.0551547 12.1283673,20.6871752 12.1283673,19.0153065 C12.1283673,17.2737765 10.7098259,15.8619875 8.95996649,15.8619875 Z M24.5465839,1.2857758 L5.16770186,1.2857758 C3.10361724,1.2857758 1.41638843,2.89160686 1.29850485,4.91645591 L1.29192547,5.14310319 L1.291,8.147 L8.20597823,8.14733276 C9.33455865,8.14733276 10.2494538,7.23679254 10.2494538,6.11358425 C10.2494538,5.05277643 9.43338992,4.18166326 8.39197616,4.08814701 L8.20597823,4.07983575 L6.99155995,4.07983575 L6.99155995,2.79405995 L8.20597823,2.79405995 C10.0480694,2.79405995 11.5413793,4.2802616 11.5413793,6.11358425 C11.5413793,7.87639449 10.1607303,9.31827186 8.41691424,9.4265778 L8.20597823,9.43310856 L7.751,9.433 L7.751,14.576 L8.95996649,14.5762117 L9.20469211,14.5827802 C11.5542482,14.7092242 13.4202927,16.6453836 13.4202927,19.0153065 C13.4202927,20.2873402 12.8827032,21.4344108 12.0213049,22.2437551 L18.0407362,22.2443062 C17.2535004,21.4443079 16.7681569,20.3489132 16.7681569,19.1407001 C16.7681569,16.7724602 18.6328762,14.8376758 20.9807638,14.7113216 L21.2253156,14.7047578 L21.962,14.704 L21.962,9.341 L21.7693423,9.33594668 C20.0889313,9.23157875 18.745984,7.88802381 18.6522026,6.21264423 L18.6469694,6.02517151 C18.6469694,4.19307645 20.1392794,2.70786995 21.9801371,2.70786995 L23.1965724,2.70786995 L23.1965724,3.99364575 L21.9801371,3.99364575 L21.7943424,4.00194793 C20.7540669,4.09536198 19.9388948,4.96552308 19.9388948,6.02517151 C19.9388948,7.14715221 20.8527901,8.05669727 21.9801371,8.05669727 L28.422,8.056 L28.4223602,5.14310319 C28.4223602,3.08884378 26.8088487,1.40964631 24.7743152,1.29232386 L24.5465839,1.2857758 Z M28.422,15.99 L21.2253156,15.9905336 C19.4772055,15.9905336 18.0600823,17.4009112 18.0600823,19.1407001 C18.0600823,20.6940252 19.1897202,21.9847652 20.6759918,22.2435955 L24.5465839,22.2439213 C26.6106685,22.2439213 28.2978973,20.6380902 28.4157809,18.6132412 L28.4223602,18.3865939 L28.422,15.99 Z M23.254,14.704 L28.422,14.704 L28.422,9.342 L23.254,9.342 L23.254,14.704 Z M6.459,9.433 L1.291,9.433 L1.291,14.576 L6.459,14.576 L6.459,9.433 Z"/>
    </g>
  </g>
</svg>
