<?xml version="1.0" encoding="UTF-8"?>
<svg width="39px" height="36px" viewBox="0 0 39 36" version="1.1" xmlns="http://www.w3.org/2000/svg" xmlns:xlink="http://www.w3.org/1999/xlink">
    <title>cash</title>
    <g id="Page-1" stroke="none" stroke-width="1" fill="none" fill-rule="evenodd">
        <g id="גיפטקארד-תשלום-חלקי" transform="translate(-176.000000, -419.000000)">
            <g id="payment-options/5-options-copy" transform="translate(126.000000, 398.000000)">
                <g id="Group-2" transform="translate(-0.013864, 21.000000)">
                    <g id="cash" transform="translate(50.911591, 0.000000)">
                        <rect id="Rectangle" x="0" y="0" width="36" height="36"></rect>
                        <path d="M0,33.440678 L37,33.440678" id="Path-22" stroke="#2F383F" stroke-width="1.12162712" stroke-linecap="round" stroke-linejoin="round"></path>
                        <path d="M3.57427639,31.4554658 C5.36936079,32.8555465 8.23956764,33.5550441 12.1848969,33.5539585 C18.1028908,33.5523275 22.4371238,32.9291488 24.3262783,27.7088091 C25.1955197,25.3068163 24.1185389,20.2957333 21.9981174,16.5250253 C19.5101484,12.100714 15.8313433,9.04667491 15.831384,8.89672923 C15.8314342,8.71156931 14.0703977,8.71205427 10.5482744,8.8981841 C7.9563153,10.8646771 5.94141833,13.2039872 4.50358347,15.9161142 C2.34683118,19.9843048 1.06636282,21.9677586 1.06558598,24.8323289 C1.06506841,26.7420424 1.90129855,28.9497547 3.57427639,31.4554658 Z" id="Path-2" fill="#FFFFFF" transform="translate(12.846982, 21.156090) rotate(-1.000000) translate(-12.846982, -21.156090) "></path>
                        <path d="M5.99005398,1.5127103 C6.54958993,1.46062522 7.75530267,1.91617757 9.29169144,1.82855391 C9.64336087,1.80849742 9.9981636,1.72806396 10.3527012,1.64678643 C10.8262534,2.68669658 11.6509203,4.25524972 12.825771,6.35237472 L12.7393662,6.74477913 C12.6155468,7.3071002 12.5192669,7.87513342 12.4508705,8.44684851 L12.4465529,8.48293869 C12.3923898,8.9356791 12.4085505,9.39351756 12.4939712,9.8403069 L12.5535263,10.1069254 C11.8062212,10.9850736 11.2447347,11.6384389 10.8690671,12.0670213 C9.41466066,13.7262886 4.55696883,19.6778095 4.55696883,24.8940781 C4.55696883,28.410057 6.16689136,31.9927877 9.45065462,33.1702261 C10.3644339,33.4978742 11.5721143,33.6582592 12.8003777,33.7288714 C12.2114573,33.7467594 11.6032104,33.7585796 10.9771127,33.7696808 C9.04839223,33.8038761 6.57280254,33.7396227 4.98480973,33.1702261 C1.70104647,31.9927877 0.0911239425,28.410057 0.0911239425,24.8940781 C0.0911239425,19.6778095 4.94881577,13.7262886 6.40322222,12.0670213 C6.77888986,11.6384389 7.4442328,10.9850736 8.39925104,10.1069254 L8.30634782,9.70474199 C8.22298612,9.30059035 8.1683026,8.89087464 8.14277999,8.47865957 L8.14081038,8.44684851 C8.10999461,7.94914369 8.43765271,7.49993036 8.92098305,7.37724589 L9.82349347,7.14816031 C6.87063521,3.42817045 5.59282205,1.54968711 5.99005398,1.5127103 Z" id="Combined-Shape" fill="#F5002E"></path>
                        <path d="M18.6118126,1.00055644 C18.7786102,1.00117936 18.9367605,1.08526616 19.028157,1.22780581 C19.1352415,1.39481188 19.1294131,1.60893372 19.0134297,1.77004469 L15.629961,6.78885611 L15.7829482,6.8512374 L15.9198785,6.91347982 C16.5431386,7.22711765 16.9418012,7.85913295 16.9424287,8.5555542 C16.9974245,9.04487044 16.9008454,9.52488518 16.6667382,9.94410671 L16.6947574,10.1020046 L16.8999762,10.2841124 C17.4608925,10.7886144 18.1288224,11.443336 18.8482038,12.228344 C20.0374546,13.5260859 21.1391079,14.9370779 22.0762706,16.4347153 C24.6260304,20.5093715 25.6040642,24.6152886 24.4069742,28.5458646 C23.5407621,31.2979215 21.1412351,33.3181927 18.237597,33.7400168 C18.0705351,33.8284052 17.9295509,33.8458741 17.7996147,33.8062811 L17.7492522,33.9345746 C17.7311549,33.9372169 17.69173,33.9396231 17.6331617,33.9418118 C17.6326122,33.9152261 17.6542247,33.8810762 17.6931411,33.8195844 L17.7289687,33.8063768 L17.6631165,33.8107631 L17.335313,33.8192009 L16.5256512,33.8272283 L13.2744415,33.8321588 L8.30158748,33.8250583 C5.05711216,33.727233 2.21237537,31.6137374 1.24460842,28.546507 C0.0476402316,24.617213 1.02551895,20.5113797 3.57521886,16.4363295 C4.5122289,14.938756 5.61363529,13.5278151 6.80288338,12.2296593 C7.61135725,11.3471479 8.3523099,10.6315787 8.95540854,10.102847 L8.98336148,9.94508434 L8.90209903,9.78511368 C8.72761859,9.40581343 8.65948266,8.98634954 8.70653127,8.5704873 C8.70880876,7.76689096 9.22100391,7.06569755 9.98153979,6.81108308 L10.1326451,6.76049559 L6.72158075,1.72824888 L6.68736172,1.65561236 C6.63174956,1.50657992 6.65293322,1.33808442 6.74804119,1.20580579 L6.80003494,1.14473644 L6.86036646,1.09361224 C6.94572887,1.03233208 7.04949653,0.999104379 7.15635423,1.00001837 L7.24646263,1.00858098 L10.5509252,1.57323629 L10.6402334,1.59032556 C10.8596081,1.61988215 11.1567071,1.57788315 11.5484026,1.47845942 L11.6488598,1.45227374 L12.199671,1.29456335 L12.4057123,1.23775671 L12.6988405,1.16940763 C13.2229892,1.06853791 13.7628587,1.11907482 14.256273,1.31607545 L14.612141,1.46311972 C14.8593275,1.56006737 15.0462517,1.61586089 15.2417683,1.64424883 C15.4201318,1.67014621 15.5873542,1.66719392 15.7459035,1.63099297 L18.5279622,1.0073161 Z M10.163755,10.8333155 L9.66763949,10.8333155 L9.57664829,10.8678169 L9.17583841,11.2370537 L8.83894062,11.56081 L8.57515433,11.8211468 C3.59552113,16.7831257 0.474774456,22.6268905 2.19294379,28.2686686 C2.90713766,30.5321284 4.81990132,32.2338464 7.18481587,32.7100068 L7.4969646,32.7728559 L7.32488201,32.5130238 L7.14264612,32.2322631 C5.17000923,29.1302357 4.26199374,25.5814133 5.40939976,21.9787948 C5.46235333,21.8124872 5.60132258,21.6868728 5.7736717,21.6489191 C5.94568228,21.6110399 6.12529422,21.6661158 6.24508375,21.7937422 C6.3654114,21.9219421 6.40699613,22.1037997 6.35391205,22.2705171 C5.65036453,24.4800075 5.82803802,26.7604474 6.66161275,29.0141167 C7.22085577,30.5260973 7.98769526,31.8175646 8.74548803,32.8015696 L8.85289866,32.853747 L17.1043901,32.853747 L17.3821767,32.8477187 L17.6645968,32.8298167 L17.7607018,32.777876 L17.9512921,32.5228113 C18.6495011,31.5645927 19.3357994,30.3557918 19.8428608,28.9694408 C20.6621553,26.7294165 20.8324512,24.464461 20.1338539,22.2705157 C20.0807703,22.1037997 20.122355,21.9219421 20.2426827,21.7937422 C20.3624722,21.6661157 20.5420842,21.6110399 20.7140947,21.6489191 C20.8864439,21.6868728 21.0254131,21.8124872 21.0783637,21.9787855 C22.2148013,25.5465315 21.3300739,29.0804159 19.3549923,32.2152382 L19.1490391,32.5421242 L19.5178065,32.4036994 L19.7520325,32.3106947 C21.5297761,31.5655995 22.8884143,30.0887642 23.4587172,28.2680855 C25.2073657,22.5273356 21.9442931,16.5759074 16.8134412,11.5620684 L16.6270812,11.3816559 L16.3335694,11.1046194 L16.0752579,10.8690054 L15.9843179,10.8345499 L15.488018,10.8345499 L15.6640291,11.0456981 L15.908003,11.3443917 C17.1881782,12.9445759 18.1255428,14.6559664 18.4076414,16.32371 C18.445556,16.5837492 18.2633504,16.827953 17.998078,16.8711753 C17.7332562,16.9143241 17.481226,16.7415648 17.4310544,16.4810984 C17.0979801,14.5125931 15.7433769,12.4995958 14.1974066,10.8751337 L14.0988737,10.8333155 L11.5518259,10.8333155 L11.4532022,10.8752292 L11.2333391,11.1107478 C9.77778524,12.6973089 8.53800748,14.6066734 8.22039681,16.482662 C8.17073139,16.7403305 7.91870121,16.9130898 7.65387941,16.8699409 C7.38860703,16.8267187 7.20640143,16.5825148 7.24475971,16.3196591 C7.54399586,14.5518146 8.58253344,12.7321863 9.98797138,11.0444121 L10.163755,10.8333155 Z M15.0697573,7.68620398 L10.5877212,7.68606726 L10.4840091,7.69192798 C10.0417673,7.74224739 9.69906502,8.1104103 9.69906502,8.55636682 L9.69091781,8.68944036 C9.66502911,9.38375211 9.92261414,9.82803199 10.5819546,9.85853614 L15.0636073,9.858684 L15.1673194,9.85282328 C15.6095612,9.80250387 15.9522635,9.43434095 15.9522635,8.98838443 L15.9605508,8.85525953 C15.9871311,8.16063914 15.7293702,7.71554701 15.0697573,7.68620398 Z M13.7712011,2.18056884 C13.301538,2.02976757 12.8791724,2.09528189 11.9937885,2.352812 L11.7646989,2.41864735 L11.5220945,2.48294328 C11.0507321,2.59897632 10.7166699,2.6210332 10.3927509,2.53726209 L8.10002847,2.14448058 L11.2059185,6.64432986 L11.3229061,6.71081854 L14.4020038,6.71081854 L14.5117215,6.65555162 L17.4957209,2.1867208 L17.0875807,2.23676393 L16.8382963,2.27646582 L16.5495955,2.48405673 C16.5084669,2.49461843 16.4674649,2.50538126 16.426575,2.51622608 L16.2494804,2.54459808 C15.4235357,2.6641021 14.8305747,2.64327022 14.426338,2.43869584 L13.882572,2.21997184 Z" id="Combined-Shape" fill="#404042" fill-rule="nonzero"></path>
                        <g id="Group-22" transform="translate(13.392744, 22.309229)">
                            <path d="M1.98140706,3.72840215 L10.2472048,3.72840215 L10.2472048,3.72840215 L10.2472048,7.69095516 L1.98140706,7.69095516 C0.887178265,7.69095516 0.000130559105,6.80390745 0.000130559105,5.70967865 C0.000130559105,4.61544986 0.887178265,3.72840215 1.98140706,3.72840215 Z" id="Rectangle" fill="#FFFFFF"></path>
                            <path d="M3.43261381,7.69095516 L10.5181939,7.69095516 L10.5181939,7.69095516 L10.5181939,10.8609976 L3.43261381,10.8609976 C2.55723077,10.8609976 1.8475926,10.1513594 1.8475926,9.27597636 C1.8475926,8.40059332 2.55723077,7.69095516 3.43261381,7.69095516 Z" id="Rectangle" fill="#FFFFFF"></path>
                            <g id="Group-21">
                                <path d="M11.0932693,6.42647051 C11.0973681,6.60733295 11.0973681,6.73420079 11.0932693,6.80707402 C11.0596629,7.40456356 11.1256238,7.22963633 12.1017483,7.39676562 C12.8892992,7.53160785 15.3544701,7.53160785 19.4972612,7.39676562 C20.6177935,7.39676562 21.5142193,6.57490277 21.5142193,5.54757421 C21.5142193,5.29504612 21.2286083,4.83527922 20.6573865,4.16827349 C19.6375268,5.43858664 18.3432244,6.19131898 16.7744793,6.42647051 C15.2057341,6.66162204 13.3119975,6.66162204 11.0932693,6.42647051 Z" id="Path" fill="#D1D1D1" fill-rule="nonzero"></path>
                                <path d="M12.6697423,2.4639175 C12.6738411,2.64477994 12.6738411,2.77164778 12.6697423,2.84452101 C12.6361359,3.44201055 12.7020968,3.26708332 13.6782213,3.43421261 C14.4657721,3.56905484 16.9309431,3.56905484 21.0737342,3.43421261 C22.1942664,3.43421261 23.0906922,2.61234976 23.0906922,1.5850212 C23.0906922,1.33249311 22.8050813,0.872726207 22.2338594,0.205720484 C21.2139998,1.47603363 19.9196974,2.22876597 18.3509522,2.4639175 C16.7822071,2.69906903 14.8884704,2.69906903 12.6697423,2.4639175 Z" id="Path-Copy" fill="#D1D1D1" fill-rule="nonzero"></path>
                                <path d="M0.846195047,6.42647051 C0.850293872,6.60733295 0.850293872,6.73420079 0.846195047,6.80707402 C0.812588673,7.40456356 0.878549559,7.22963633 1.85467408,7.39676562 C2.64222491,7.53160785 5.10739587,7.53160785 9.25018695,7.39676562 C10.3707192,7.39676562 11.267145,6.57490277 11.267145,5.54757421 C11.267145,5.29504612 10.9815341,4.83527922 10.4103122,4.16827349 C9.39045256,5.43858664 8.09615016,6.19131898 6.527405,6.42647051 C4.95865985,6.66162204 3.06492319,6.66162204 0.846195047,6.42647051 Z" id="Path-Copy-3" fill="#D1D1D1" fill-rule="nonzero"></path>
                                <path d="M1.58288402,9.94915218 C1.58698284,10.1300146 1.58698284,10.2568825 1.58288402,10.3297557 C1.54927764,10.9272452 1.61523853,10.752318 2.59136305,10.9194473 C3.37891388,11.0542895 5.84408484,11.0542895 9.98687592,10.9194473 C11.1074082,10.9194473 12.003834,10.0975844 12.003834,9.07025588 C12.003834,8.81772779 11.718223,8.35796088 11.1470012,7.69095516 C10.1271415,8.96126831 8.83283913,9.71400065 7.26409397,9.94915218 C5.69534882,10.1843037 3.80161216,10.1843037 1.58288402,9.94915218 Z" id="Path-Copy-4" fill="#D1D1D1" fill-rule="nonzero"></path>
                                <path d="M12.1017483,9.24595702 C12.1017483,8.21862846 11.2053225,7.39676562 10.0847903,7.39676562 L3.36159676,7.39676562 C2.24106451,7.39676562 1.34463871,8.21862846 1.34463871,9.24595702 C1.34463871,10.2732856 2.24106451,11.0951484 3.36159676,11.0951484 L10.0847903,11.0951484 C11.2053225,11.0951484 12.1017483,10.2732856 12.1017483,9.24595702 Z" id="Path" stroke="#383940" stroke-width="0.934689266" stroke-linecap="round" stroke-linejoin="round"></path>
                                <path d="M22.858858,9.24595702 C22.858858,8.21862846 21.9624322,7.39676562 20.8418999,7.39676562 L14.1187064,7.39676562 C12.9981741,7.39676562 12.1017483,8.21862846 12.1017483,9.24595702 C12.1017483,10.2732856 12.9981741,11.0951484 14.1187064,11.0951484 L20.8418999,11.0951484 C21.9624322,11.0951484 22.858858,10.2732856 22.858858,9.24595702 Z" id="Path" stroke="#383940" stroke-width="0.934689266" fill="#017AFF" stroke-linecap="round" stroke-linejoin="round"></path>
                                <path d="M21.5142193,5.54757421 C21.5142193,4.52024566 20.6177935,3.69838281 19.4972612,3.69838281 L12.7740677,3.69838281 C11.6535354,3.69838281 10.7571096,4.52024566 10.7571096,5.54757421 C10.7571096,6.57490277 11.6535354,7.39676562 12.7740677,7.39676562 L19.4972612,7.39676562 C20.6177935,7.39676562 21.5142193,6.57490277 21.5142193,5.54757421 Z" id="Path" stroke="#383940" stroke-width="0.934689266" stroke-linecap="round" stroke-linejoin="round"></path>
                                <path d="M10.7571096,5.54757421 C10.7571096,4.52024566 9.86068384,3.69838281 8.74015158,3.69838281 L2.01695806,3.69838281 C0.896425803,3.69838281 0,4.52024566 0,5.54757421 C0,6.57490277 0.896425803,7.39676562 2.01695806,7.39676562 L8.74015158,7.39676562 C9.86068384,7.39676562 10.7571096,6.57490277 10.7571096,5.54757421 Z" id="Path" stroke="#383940" stroke-width="0.934689266" stroke-linecap="round" stroke-linejoin="round"></path>
                                <path d="M22.858858,1.8491914 C22.858858,0.821862846 21.9624322,0 20.8418999,0 L14.1187064,0 C12.9981741,0 12.1017483,0.821862846 12.1017483,1.8491914 C12.1017483,2.87651996 12.9981741,3.69838281 14.1187064,3.69838281 L20.8418999,3.69838281 C21.9624322,3.69838281 22.858858,2.87651996 22.858858,1.8491914 Z" id="Path" stroke="#383940" stroke-width="0.934689266" stroke-linecap="round" stroke-linejoin="round"></path>
                                <path d="M12.6697423,10.3890235 C12.6738411,10.569886 12.6738411,10.6967538 12.6697423,10.769627 C12.6361359,11.3671166 12.7020968,11.1921893 13.6782213,11.3593186 C14.4657721,11.4941609 16.9309431,11.4941609 21.0737342,11.3593186 C22.1942664,11.3593186 23.0906922,10.5374558 23.0906922,9.51012722 C23.0906922,9.25759913 22.8050813,8.79783223 22.2338594,8.1308265 C21.2139998,9.40113965 19.9196974,10.153872 18.3509522,10.3890235 C16.7822071,10.624175 14.8884704,10.624175 12.6697423,10.3890235 Z" id="Path-Copy-2" fill="#017AFF" fill-rule="nonzero" opacity="0" style="mix-blend-mode: multiply;"></path>
                            </g>
                        </g>
                        <text id="₪" font-family="OEDooPro-Medium, OE Doo Pro" font-size="9.77161546" font-weight="400" letter-spacing="-0.0868588045" fill="#404042">
                            <tspan x="9.05711351" y="25.1244275">₪</tspan>
                        </text>
                    </g>
                </g>
            </g>
        </g>
    </g>
</svg>