<?xml version="1.0" encoding="UTF-8"?>
<svg width="37px" height="36px" viewBox="0 0 37 36" version="1.1" xmlns="http://www.w3.org/2000/svg" xmlns:xlink="http://www.w3.org/1999/xlink">
    <title>credit card</title>
    <g id="Page-1" stroke="none" stroke-width="1" fill="none" fill-rule="evenodd">
        <g id="גיפטקארד-תשלום-חלקי" transform="translate(-336.000000, -419.000000)">
            <g id="payment-options/5-options-copy" transform="translate(126.000000, 398.000000)">
                <g id="payment/icon+text-copy-2" transform="translate(160.000000, 0.000000)">
                    <g id="Group-2" transform="translate(-0.013765, 21.000000)">
                        <g id="credit-card" transform="translate(50.422856, 0.000000)">
                            <rect id="Rectangle" x="0" y="0" width="36" height="36"></rect>
                            <g id="Group-10" transform="translate(0.000000, 5.000000)">
                                <g id="Group-11">
                                    <path d="M2.12531572,9.82754208 C1.81930636,10.6614648 1.88962983,11.6149221 2.40112017,12.4316044 L7.74909346,20.2570784 C7.79221899,20.3201822 7.83686448,20.3822337 7.88299079,20.4431785 C9.46286973,22.530608 12.4358106,22.9420591 14.5232401,21.3621801 L24.7589462,13.6170092 C24.4500131,14.1570632 24.0298878,14.6438207 23.5054665,15.0407309 L12.5804015,23.3094078 C10.492972,24.8892867 7.5200311,24.4778357 5.94015216,22.3904062 C5.89402586,22.3294614 5.84938036,22.2674098 5.80625484,22.204306 L0.458281539,14.378832 C-0.445045102,12.9365157 0.0276258147,11.0675987 1.51916515,10.183926 Z" id="Combined-Shape" fill="#F43735" fill-rule="nonzero"></path>
                                    <path d="M4.47870099,13.6090952 L3.7677576,12.4096919 L3.7677576,12.4096919 C3.60629385,12.1518873 3.6907807,11.8178306 3.95738363,11.6598798 L6.6140255,10.0985278 C6.88062843,9.94239255 7.22608575,10.0240912 7.38942698,10.2800803 L8.08034162,11.3802889 C8.30573874,11.7479574 8.190405,12.2287321 7.82273648,12.4541292 C7.81667438,12.4578456 7.8105618,12.4614789 7.80440045,12.4650283 L5.39923287,13.8505734 C5.07801775,14.0356158 4.66772225,13.9279852 4.47870099,13.6090952 Z" id="Path" fill="#C2C2C2" fill-rule="nonzero"></path>
                                    <g id="Group-19" transform="translate(9.554583, 8.837385)">
                                        <path d="M21.2930831,16.0832026 L3.82073711,16.0832026 C2.07360796,16.0832026 0.657176367,14.6969225 0.657176367,12.9869843 L0.657176367,3.09621827 C0.657176367,1.38628013 2.07360796,1.57787655e-10 3.82073711,1.57787655e-10 L21.2930831,1.57787655e-10 C23.0403177,1.57787655e-10 24.4566438,1.38628013 24.4566438,3.09621827 L24.4566438,12.9869843 C24.4566438,14.6969225 23.0403177,16.0832026 21.2930831,16.0832026 Z" id="Path" fill="#FFFFFF" fill-rule="nonzero"></path>
                                        <rect id="Rectangle-Copy" fill="#017AFF" x="0" y="4.16754183" width="23.7994675" height="3.76950061"></rect>
                                        <g id="Group-16" transform="translate(0.657176, 0.000000)">
                                            <path d="M18.5776598,13.5383975 C20.895655,12.7219338 22.6362575,11.2247351 23.7994675,9.04680146 L23.7994675,12.0624019 C24.0639368,14.7429357 22.219574,16.0832026 18.266379,16.0832026 C15.9502167,16.0832026 2.99958544,16.0832026 2.99958544,16.0832026 C2.99958544,16.0832026 15.1006671,14.763093 18.5776598,13.5383975 Z" id="Rectangle" fill="#D1D1D1" fill-rule="nonzero" opacity="0.746768043"></path>
                                            <g id="Group" transform="translate(18.153119, 10.554602)" stroke="#303030" stroke-linecap="round" stroke-linejoin="round" stroke-width="0.7524">
                                                <line x1="3.62086192" y1="0.534404801" x2="0" y2="0.534404801" id="Path"></line>
                                                <line x1="3.62086192" y1="1.7368156" x2="0" y2="1.7368156" id="Path"></line>
                                                <line x1="3.62086192" y1="2.98379577" x2="0" y2="2.98379577" id="Path"></line>
                                            </g>
                                            <path d="M20.6359067,16.0832026 L3.16356074,16.0832026 C1.4164316,16.0832026 0,14.6969225 0,12.9869843 L0,3.09621827 C0,1.38628013 1.4164316,0 3.16356074,0 L20.6359067,0 C22.3831413,0 23.7994675,1.38628013 23.7994675,3.09621827 L23.7994675,12.9869843 C23.7994675,14.6969225 22.3831413,16.0832026 20.6359067,16.0832026 Z" id="Path" stroke="#303030" stroke-width="0.84645" stroke-linecap="round" stroke-linejoin="round"></path>
                                            <line x1="23.7994675" y1="3.51820057" x2="0" y2="3.51820057" id="Path" stroke="#303030" stroke-width="0.84645" stroke-linecap="round" stroke-linejoin="round"></line>
                                        </g>
                                    </g>
                                    <line x1="34.0112267" y1="15.8737859" x2="10.2117592" y2="15.8737859" id="Path" stroke="#303030" stroke-width="0.84645" stroke-linecap="round" stroke-linejoin="round"></line>
                                    <line x1="8.61338174" y1="24.63243" x2="8.6032543" y2="24.622378" id="Path" stroke="#303030" stroke-width="0.55" stroke-linecap="round" stroke-linejoin="round"></line>
                                    <path d="M7.67758112,23.1349047 C6.18581936,20.965733 3.94817671,17.7119754 0.964653187,13.3736319 C0.0613265464,11.9313155 0.533997463,10.0623985 2.0255368,9.17872583 L16.8884112,0.443570368 C18.3799505,-0.429945178 20.3126494,0.0271269098 21.2264798,1.45928612 L25.0918775,7.61452357" id="Path" stroke="#303030" stroke-width="0.84645" stroke-linecap="round" stroke-linejoin="round"></path>
                                    <g id="Group" transform="translate(2.025487, 5.528601)" stroke="#303030" stroke-linecap="round" stroke-linejoin="round" stroke-width="0.84645">
                                        <path d="M0.96075774,8.54420138 C0.96075774,8.54420138 -1.09313622,6.40563851 0.805141525,5.00837174 L6.88763065,1.46339649" id="Path"></path>
                                        <line x1="8.25236559" y1="0.718180849" x2="8.88698154" y2="0.286830135" id="Path"></line>
                                        <line x1="21.5101159" y1="2.3035837" x2="20.0580855" y2="0.0777326731" id="Path"></line>
                                    </g>
                                </g>
                                <line x1="4.13641511" y1="24.9205874" x2="36" y2="24.9205874" id="Path-21-Copy" stroke="#2F383F" stroke-width="1.1286" stroke-linecap="round" stroke-linejoin="round"></line>
                            </g>
                        </g>
                    </g>
                </g>
            </g>
        </g>
    </g>
</svg>