<?xml version="1.0" encoding="UTF-8"?>
<svg width="36px" height="37px" viewBox="0 0 36 37" version="1.1" xmlns="http://www.w3.org/2000/svg" xmlns:xlink="http://www.w3.org/1999/xlink">
    <title>payment/bit</title>
    <g id="Page-1" stroke="none" stroke-width="1" fill="none" fill-rule="evenodd">
        <g id="בחירת-אמצעי-תשלום-3-אופציות" transform="translate(-65.000000, -435.000000)" fill-rule="nonzero">
            <g id="payment-options/3-options" transform="translate(40.000000, 414.000000)">
                <g id="Group-2" transform="translate(-0.008652, 21.000000)">
                    <g id="payment/bit" transform="translate(25.008652, 0.000000)">
                        <g id="google-pay-mark_800" transform="translate(0.000000, 8.228571)">
                            <path d="M26.4255319,0 L9.57446809,0 C4.30851064,0 0,4.39714286 0,9.77142857 L0,9.77142857 C0,15.1457143 4.30851064,19.5428571 9.57446809,19.5428571 L26.4255319,19.5428571 C31.6914894,19.5428571 36,15.1457143 36,9.77142857 L36,9.77142857 C36,4.39714286 31.6914894,0 26.4255319,0 Z" id="Base_1_" fill="#FFFFFF"></path>
                            <path d="M26.4255319,0.791485714 C27.6079787,0.791485714 28.7569149,1.03088571 29.8388298,1.49991429 C30.887234,1.95428571 31.8255319,2.60408571 32.6393617,3.42977143 C33.4484043,4.25545714 34.0851064,5.21794286 34.5303191,6.28791429 C34.9898936,7.39208571 35.2244681,8.56465714 35.2244681,9.77142857 C35.2244681,10.9782 34.9898936,12.1507714 34.5303191,13.2549429 C34.0851064,14.3249143 33.4484043,15.2825143 32.6393617,16.1130857 C31.8303191,16.9387714 30.887234,17.5885714 29.8388298,18.0429429 C28.7569149,18.5119714 27.6079787,18.7513714 26.4255319,18.7513714 L9.57446809,18.7513714 C8.39202128,18.7513714 7.24308511,18.5119714 6.16117021,18.0429429 C5.11276596,17.5885714 4.17446809,16.9387714 3.3606383,16.1130857 C2.55159574,15.2874 1.91489362,14.3249143 1.46968085,13.2549429 C1.01010638,12.1507714 0.775531915,10.9782 0.775531915,9.77142857 C0.775531915,8.56465714 1.01010638,7.39208571 1.46968085,6.28791429 C1.91489362,5.21794286 2.55159574,4.26034286 3.3606383,3.42977143 C4.16968085,2.60408571 5.11276596,1.95428571 6.16117021,1.49991429 C7.24308511,1.03088571 8.39202128,0.791485714 9.57446809,0.791485714 L26.4255319,0.791485714 M26.4255319,0 L9.57446809,0 C4.30851064,0 0,4.39714286 0,9.77142857 L0,9.77142857 C0,15.1457143 4.30851064,19.5428571 9.57446809,19.5428571 L26.4255319,19.5428571 C31.6914894,19.5428571 36,15.1457143 36,9.77142857 L36,9.77142857 C36,4.39714286 31.6914894,0 26.4255319,0 L26.4255319,0 Z" id="Outline" fill="#3C4043"></path>
                            <g id="G_Pay_Lockup_1_" transform="translate(5.481383, 5.589257)">
                                <g id="Pay_Typeface_3_" transform="translate(10.766489, 0.532543)" fill="#3C4043">
                                    <path d="M0.919148936,4.3434 L0.919148936,7.29925714 L0,7.29925714 L0,0 L2.43670213,0 C3.05425532,0 3.58085106,0.210085714 4.01170213,0.630257143 C4.45212766,1.05042857 4.67234043,1.56342857 4.67234043,2.16925714 C4.67234043,2.78974286 4.45212766,3.30274286 4.01170213,3.71802857 C3.5856383,4.13331429 3.05904255,4.33851429 2.43670213,4.33851429 L0.919148936,4.33851429 L0.919148936,4.3434 Z M0.919148936,0.898971429 L0.919148936,3.44442857 L2.45585106,3.44442857 C2.81968085,3.44442857 3.12606383,3.3174 3.36542553,3.06822857 C3.60957447,2.81905714 3.73404255,2.51614286 3.73404255,2.17414286 C3.73404255,1.83702857 3.60957447,1.539 3.36542553,1.28982857 C3.12606383,1.03088571 2.82446809,0.903857143 2.45585106,0.903857143 L0.919148936,0.903857143 L0.919148936,0.898971429 Z" id="Letter_p_3_"></path>
                                    <path d="M7.07553191,2.13994286 C7.75531915,2.13994286 8.29148936,2.3256 8.68404255,2.69691429 C9.07659574,3.06822857 9.27287234,3.57634286 9.27287234,4.22125714 L9.27287234,7.29925714 L8.39680851,7.29925714 L8.39680851,6.60548571 L8.35851064,6.60548571 C7.98031915,7.17711429 7.47287234,7.46048571 6.84095745,7.46048571 C6.3,7.46048571 5.85,7.29925714 5.48617021,6.97191429 C5.12234043,6.64457143 4.94042553,6.23905714 4.94042553,5.75048571 C4.94042553,5.2326 5.13191489,4.8222 5.51489362,4.51928571 C5.89787234,4.21148571 6.41010638,4.06002857 7.04680851,4.06002857 C7.59255319,4.06002857 8.04255319,4.16262857 8.39202128,4.36782857 L8.39202128,4.15285714 C8.39202128,3.82551429 8.26755319,3.55191429 8.01382979,3.32228571 C7.76010638,3.09265714 7.46329787,2.98028571 7.12340426,2.98028571 C6.61117021,2.98028571 6.20425532,3.20014286 5.90744681,3.64474286 L5.09840426,3.12685714 C5.54361702,2.46728571 6.20425532,2.13994286 7.07553191,2.13994286 Z M5.88829787,5.76514286 C5.88829787,6.00942857 5.98882979,6.21462857 6.19468085,6.37585714 C6.39574468,6.53708571 6.63510638,6.62014286 6.90797872,6.62014286 C7.29574468,6.62014286 7.64042553,6.47357143 7.94202128,6.18042857 C8.24361702,5.88728571 8.39680851,5.54528571 8.39680851,5.14954286 C8.10957447,4.91991429 7.71223404,4.80265714 7.2,4.80265714 C6.82659574,4.80265714 6.51542553,4.89548571 6.26648936,5.07625714 C6.01276596,5.2668 5.88829787,5.49642857 5.88829787,5.76514286 Z" id="Letter_a_3_"></path>
                                    <polygon id="Letter_y_3_" points="14.2707447 2.30117143 11.2069149 9.49294286 10.2590426 9.49294286 11.3984043 6.9768 9.37819149 2.30117143 10.3787234 2.30117143 11.8340426 5.88728571 11.8531915 5.88728571 13.2702128 2.30117143"></polygon>
                                </g>
                                <g id="G_Mark_1_">
                                    <path d="M8.02962766,4.27988571 C8.02962766,3.97404 8.00281915,3.68138571 7.95303191,3.39996857 L4.10026596,3.39996857 L4.10026596,5.01225429 L6.31914894,5.01274286 C6.22914894,5.54919429 5.93952128,6.00649714 5.49574468,6.31136571 L5.49574468,7.35739714 L6.81654255,7.35739714 C7.58776596,6.62893714 8.02962766,5.55212571 8.02962766,4.27988571 Z" id="Blue_500" fill="#4285F4"></path>
                                    <path d="M5.4962234,6.31136571 C5.12856383,6.56444571 4.65510638,6.71248286 4.1012234,6.71248286 C3.0312766,6.71248286 2.12361702,5.97669429 1.79856383,4.98489429 L0.436117021,4.98489429 L0.436117021,6.06366 C1.11111702,7.43068286 2.49845745,8.36874 4.1012234,8.36874 C5.20898936,8.36874 6.13962766,7.99693714 6.81702128,7.35690857 L5.4962234,6.31136571 Z" id="Green_500_1_" fill="#34A853"></path>
                                    <path d="M1.67026596,4.18461429 C1.67026596,3.90612857 1.71574468,3.63692571 1.79856383,3.38384571 L1.79856383,2.30508 L0.436117021,2.30508 C0.157021277,2.87035714 0,3.50843143 0,4.18461429 C0,4.86079714 0.1575,5.49887143 0.436117021,6.06414857 L1.79856383,4.98538286 C1.71574468,4.73230286 1.67026596,4.4631 1.67026596,4.18461429 Z" id="Yellow_500_1_" fill="#FABB05"></path>
                                    <path d="M4.1012234,1.65625714 C4.70585106,1.65625714 5.24728723,1.86878571 5.67478723,2.28407143 L6.84526596,1.09049143 C6.1343617,0.414797143 5.20755319,0 4.1012234,0 C2.49893617,0 1.11111702,0.938057143 0.436117021,2.30508 L1.79856383,3.38384571 C2.12361702,2.39204571 3.0312766,1.65625714 4.1012234,1.65625714 Z" id="Red_500" fill="#E94235"></path>
                                </g>
                            </g>
                        </g>
                    </g>
                </g>
            </g>
        </g>
    </g>
</svg>