<?xml version="1.0" encoding="UTF-8"?>
<svg width="44px" height="66px" viewBox="0 0 44 66" version="1.1" xmlns="http://www.w3.org/2000/svg" xmlns:xlink="http://www.w3.org/1999/xlink">
    <title>icons/illustrated/big/2</title>
    <g id="Page-1" stroke="none" stroke-width="1" fill="none" fill-rule="evenodd">
        <g id="משלוח---כתובת-אחרת-סוג-הכתובת" transform="translate(-529.000000, -449.000000)">
            <g id="component/big-square+icon-copy" transform="translate(470.500000, 424.000000)">
                <g id="small-square/icon+text/בית-פרטי" transform="translate(29.000000, 18.229508)">
                    <g id="icons/illustrated/big/2" transform="translate(30.500000, 7.000000)">
                        <g id="Group" transform="translate(-0.075630, 13.022848)">
                            <rect id="Rectangle" fill="#C2C2C2" x="2.35754717" y="33.3393027" width="18.0745283" height="3.53632075"></rect>
                            <rect id="Rectangle-Copy-10" fill="#C2C2C2" x="3.92924528" y="27.8383593" width="16.5028302" height="3.53632075"></rect>
                            <rect id="Rectangle" fill="#017AFF" x="27.504717" y="23.909114" width="3.14339623" height="16.1099057"></rect>
                            <path d="M28.9310072,0.529465842 L28.9102985,0.553560362 C28.8103091,0.679445166 28.7196285,0.824635343 28.639893,0.986892422 C28.5406257,1.18897968 28.4466015,1.27917143 28.3446589,1.31352044 C28.2429497,1.34779084 28.117295,1.33156829 27.9268887,1.2278316 C27.4528262,0.969798372 26.9681495,0.947317097 26.5624477,1.17911281 C26.1461225,1.41730647 25.8713407,1.88750078 25.7760486,2.49205503 C25.7450379,2.68803547 25.6778438,2.80965893 25.5877819,2.88274596 C25.4944601,2.95847842 25.3678532,2.99191666 25.1878234,2.95963923 C24.670832,2.86739076 24.1825953,3.01740375 23.8514436,3.38114827 C23.5242257,3.74055573 23.3822923,4.27388759 23.4524058,4.84050391 C23.4840037,5.09677364 23.4640736,5.2345719 23.4045573,5.3280525 C23.3433917,5.42412358 23.2329569,5.49097914 23.0001107,5.54001214 C22.4872967,5.64826705 22.0877349,5.9589744 21.8800726,6.42096578 C21.6728009,6.88205638 21.6879025,7.42368514 21.9134811,7.94565754 C22.0146718,8.17978433 22.0329276,8.31770843 21.999957,8.42808313 C21.9668246,8.53899949 21.8773778,8.63932266 21.6676646,8.76494574 C21.213194,9.0369044 20.9204086,9.46422427 20.8486444,9.97239768 C20.777011,10.4809966 20.9470191,11.0118828 21.3074131,11.4310688 C21.4584672,11.6067148 21.5127388,11.7319362 21.5132499,11.8494733 C21.513761,11.9670256 21.4605719,12.0927668 21.3110297,12.2698883 C20.9414306,12.7071514 20.7703165,13.2223614 20.8404103,13.7238103 C20.910703,14.2270565 21.2162604,14.6612566 21.6909129,14.9531536 C21.8782093,15.0683159 21.9572405,15.1614271 21.9885524,15.2758432 C22.0171141,15.3802102 22.0023253,15.5175582 21.9276279,15.7548124 C21.8281479,16.0708958 21.7265149,16.4393217 21.7622298,16.7777705 C21.8024382,17.1577038 21.925708,17.4681978 22.1325069,17.6994445 C22.3403657,17.9318762 22.6304652,18.0823704 22.9933008,18.1514013 C23.2167831,18.1937114 23.3284017,18.2619542 23.3935608,18.3648359 C23.4546395,18.461275 23.4784541,18.6048743 23.4573411,18.8588578 C23.4327146,19.1564597 23.4405977,19.38819 23.4857136,19.5880503 C23.5763737,19.9889543 23.7723725,20.3038304 24.048569,20.5070466 C24.3272307,20.7120767 24.6849285,20.8023071 25.0896886,20.7628026 C25.351535,20.7372212 25.4913593,20.7622891 25.5798356,20.8226522 C25.6824935,20.8926908 25.740904,21.0124042 25.7785294,21.2594957 C25.8643581,21.8238992 26.141329,22.2869614 26.5478605,22.5222074 C26.8157244,22.6772977 26.9307838,23.5379505 27.1117891,24.0250124 L27.0719644,24.3613208 C26.6896651,24.2596141 26.3890837,23.9808989 26.1649985,23.5499057 C26.0451226,23.3197644 25.9289,23.2154826 25.8004892,23.1754127 C25.6724356,23.1354544 25.5121137,23.1533895 25.2674284,23.2689584 C24.728159,23.5231245 24.1453425,23.5376003 23.6686028,23.2963487 C23.187484,23.0530167 22.8596965,22.574038 22.7581207,21.9902346 C22.713592,21.73465 22.6444648,21.6108217 22.5229719,21.5383758 C22.4182627,21.4759378 22.2527845,21.4500083 21.9428964,21.476469 C21.463874,21.5173313 21.0405485,21.4239995 20.71076,21.211922 C20.3838891,21.0017161 20.1519299,20.6760217 20.0446361,20.2613376 C19.9912428,20.0546077 19.9819133,19.8149123 20.011058,19.5070811 C20.0360448,19.2443677 20.0078608,19.0958325 19.9355758,18.9960785 C19.8584618,18.8896605 19.7263643,18.819072 19.4618791,18.7753076 C19.0324732,18.703904 18.6891484,18.548237 18.4431532,18.307816 C18.1984123,18.0686209 18.0525259,17.7474545 18.0049404,17.3544619 C17.9626728,17.0043798 18.0829527,16.6232903 18.2006845,16.2963424 C18.2890869,16.0509332 18.3065889,15.9088642 18.2727869,15.8009099 C18.2357303,15.6825611 18.1421989,15.5862494 17.9205388,15.4671286 C17.3588007,15.1651985 16.9971818,14.7160739 16.9139924,14.19553 C16.8310383,13.6768451 17.0335472,13.1439261 17.4709575,12.6916332 C17.6479366,12.5084237 17.7108844,12.3783604 17.7102795,12.2567676 C17.7096747,12.1351905 17.6454457,12.0056649 17.4666774,11.8239815 C17.040161,11.3903871 16.8389611,10.8412531 16.9237372,10.3151725 C17.0086682,9.78953192 17.3551716,9.34752407 17.8930252,9.06621755 C18.1412149,8.93627651 18.2470727,8.83250499 18.286284,8.71777618 C18.3253039,8.60360764 18.3036986,8.46094276 18.1839421,8.21876848 C17.9169761,7.67885466 17.8991038,7.11860885 18.1444042,6.64166948 C18.3901668,6.16379837 18.8630372,5.84241128 19.4699384,5.73043539 C19.7455055,5.67971701 19.876202,5.61056347 19.9485899,5.5111902 C20.0190258,5.41449645 20.0426125,5.27196174 20.0052172,5.00688342 C19.9222399,4.42079117 20.0902142,3.86912743 20.4774675,3.4973663 C20.8693765,3.12111902 21.4471911,2.96594972 22.0590363,3.06136899 C22.2720966,3.09475587 22.4219324,3.06016829 22.5323762,2.98183273 C22.638962,2.90623351 22.7184843,2.78042958 22.7551846,2.57771282 C22.8679602,1.95237862 23.1931569,1.46602262 23.6858663,1.2196417 C24.1660033,0.979878615 24.7396048,1.00313262 25.3006448,1.27003506 C25.5259854,1.37733743 25.6746943,1.39411758 25.7950644,1.35866923 C25.9157106,1.32313956 26.0269856,1.22984771 26.1444658,1.02081424 C26.459015,0.46136678 26.9174891,0.0980696829 27.4481617,0.0166789359 C27.9547115,-0.0594752066 28.4773532,0.1275027 28.9310072,0.529465842 Z" id="Combined-Shape" fill="#F5002E"></path>
                            <path d="M20.3752917,20.1582856 C20.3250259,19.9526071 20.3406705,18.9987084 20.2726196,18.8994618 C20.2000226,18.793585 20.0756628,18.7233556 19.8266698,18.6798137 C19.4224164,18.6087733 19.099202,18.4538981 18.867616,18.2146999 C18.6372108,17.9767213 18.4998697,17.6571884 18.4550716,17.2661947 C18.4152798,16.9178932 18.5285142,16.5387419 18.6393499,16.2134569 C18.7225741,15.9692959 18.739051,15.8279495 18.7072289,15.7205442 C18.6723429,15.6027973 18.5842901,15.5069755 18.3756138,15.3884606 C17.8467796,15.0880662 17.5063426,14.6412259 17.428026,14.1233295 C17.349931,13.6072827 17.5405779,13.0770742 17.9523668,12.6270818 C18.1189793,12.444804 18.1782399,12.3154023 18.1776705,12.1944279 C18.1771011,12.0734692 18.1166343,11.9446024 17.9483374,11.7638431 C17.5468043,11.332454 17.3573896,10.7861129 17.4372,10.262708 C17.5171561,9.73974097 17.8433631,9.29998124 18.3497118,9.02010548 C18.5833637,8.89082533 18.6830209,8.78758162 18.7199354,8.67343633 C18.7566697,8.55984847 18.7363299,8.4179092 18.6235882,8.17696666 C18.3722598,7.63979892 18.3554343,7.08240259 18.5863662,6.60788901 C18.8177332,6.13244841 19.2629051,5.81269594 19.834257,5.70128958 C20.0936828,5.65082917 20.2167237,5.58202735 20.2848714,5.48315951 C20.3511816,5.38695756 20.3733866,5.24514779 20.3381818,4.9814177 C20.2600649,4.39830639 20.4182,3.8494485 20.7827699,3.47957819 C21.1517228,3.10524456 21.6956919,2.95086448 22.2716981,3.04579844 C22.4722784,3.0790155 22.6133375,3.04460384 22.717312,2.9666667 C22.8176545,2.891452 22.8925188,2.76628792 22.9270694,2.56460221 C23.0332391,1.94244855 23.3393874,1.45856622 23.8032362,1.21343842 C24.2552491,0.974894813 24.7952518,0.998030549 25.3234288,1.26357548 C25.53557,1.37033209 25.6755682,1.3870269 25.7888877,1.35175884 C25.902467,1.31640989 26.0072241,1.22359253 26.1178228,1.01562223 C26.4139473,0.459020203 26.8455661,0.0975708866 27.3451545,0.0165941045 C27.8373937,-0.0616132195 28.3457739,0.139109989 28.7822071,0.56608221 C28.9477134,0.727773113 29.0780377,0.784746268 29.1999984,0.784044605 C29.3210298,0.783348289 29.4514764,0.725086034 29.6178505,0.563058807 C30.0544368,0.138202719 30.5648177,-0.0624277008 31.0567282,0.0176097973 C31.557292,0.0992734465 31.9896538,0.460348478 32.2858039,1.01605821 C32.398586,1.22808107 32.5054219,1.32316066 32.6172041,1.35863268 C32.732663,1.39527142 32.8726973,1.37765613 33.0804266,1.26033759 C33.5745322,0.980207559 34.1386198,0.97232495 34.6280776,1.23994193 C35.1039733,1.50048404 35.4181276,1.98137921 35.469587,2.52592235 C35.4912758,2.75291444 35.5650333,2.88350116 35.655653,2.95429541 C35.756191,3.0324127 35.9275752,3.07424828 36.2049417,3.02177605 C36.7100244,2.9281931 37.2118076,3.08417449 37.5825219,3.44965235 C37.9575455,3.81896913 38.1330855,4.33592331 38.0664004,4.86728845 C38.0237222,5.20795222 38.0352364,5.36772357 38.1048874,5.47110345 C38.1761662,5.5768994 38.3160706,5.6435514 38.6469946,5.71788362 C39.184748,5.83890878 39.6034862,6.1594672 39.8228501,6.62509649 C40.0435193,7.09392952 40.0285767,7.63603129 39.7881434,8.15170673 C39.6746058,8.39525461 39.6527201,8.54631409 39.6905914,8.66759974 C39.7290808,8.79086501 39.8327023,8.90073963 40.0665376,9.02999413 C40.5550575,9.29995349 40.8826702,9.74986299 40.9612305,10.2673597 C41.0410572,10.7917732 40.8584261,11.3326067 40.46652,11.7526641 C40.2882823,11.9437453 40.224864,12.0748154 40.2244492,12.1971337 C40.2240337,12.3196979 40.2865943,12.4508667 40.463926,12.6421708 C40.8650781,13.07517 41.0474854,13.5991737 40.9681345,14.1202429 C40.8906798,14.6300766 40.5741396,15.0647835 40.081988,15.354058 L40.05879,15.3675109 L40.0352434,15.3808022 C39.8133258,15.5045504 39.7114351,15.6314318 39.6794237,15.7433365 C39.6488791,15.8502727 39.6645872,16.0008052 39.772369,16.2048822 C40.0521076,16.7346326 40.0548237,17.3352284 39.7773667,17.8526644 C39.5187116,18.335319 39.051903,18.6597134 38.5534241,18.6893366 C38.3980558,18.6985152 38.2070649,18.7564751 38.1121776,18.8880478 C38.0200863,19.0156015 38.0205369,19.2157002 38.0548699,19.3667682 C38.1747688,19.8943322 37.9605233,20.5281542 37.5825219,20.9116684 C37.213569,21.286002 36.7876169,21.4104563 36.2116107,21.3155223 C36.0110304,21.2823053 35.8699713,21.3167169 35.7659968,21.3946541 C35.6656543,21.4698688 35.59079,21.5950328 35.5562394,21.7967185 C35.4500697,22.4188722 35.1439214,22.9027545 34.6800726,23.1478823 C34.2280597,23.3864259 33.6880569,23.3632902 33.15988,23.0977453 C32.9477387,22.9909887 32.8077405,22.9742939 32.6944211,23.0095619 C32.5808418,23.0449109 32.4760847,23.1377282 32.365486,23.3456985 C32.0693615,23.9023006 31.6377427,24.2637499 31.1381543,24.3447267 C30.6459151,24.422934 30.1375349,24.2222108 29.7011017,23.7952385 C29.5355954,23.6335476 29.4052711,23.5765745 29.2833104,23.5772761 C29.162279,23.5779725 29.0318324,23.6362347 28.8654583,23.7982619 C28.428872,24.223118 27.9184911,24.4237485 27.4265806,24.343711 C26.9260168,24.2620473 26.493655,23.9009723 26.1975048,23.3452625 C26.0847227,23.1332397 25.9778869,23.0381601 25.8661047,23.0026881 C25.7506458,22.9660493 25.6106115,22.9836646 25.4028822,23.1009832 C24.9087766,23.3811132 24.344689,23.3889958 23.8552311,23.1213788 C23.3793355,22.8608367 23.0651811,22.3799415 23.0137218,21.8353984 C22.992033,21.6084063 22.9182755,21.4778196 22.8276558,21.4070253 C22.7271178,21.3289081 22.5557336,21.2870725 22.2783671,21.3395447 C21.7732844,21.4331277 21.2715012,21.2771463 20.9007869,20.9116684 C20.5257633,20.5423516 20.2714967,20.1971226 20.3381818,19.6657575" id="Path" stroke="#2F383F" stroke-width="0.875" stroke-linecap="round"></path>
                            <line x1="27.7011792" y1="24.3510802" x2="27.7011792" y2="39.2822123" id="Path-38" stroke="#2F383F" stroke-width="0.875" stroke-linecap="round"></line>
                            <line x1="30.4516509" y1="24.3510802" x2="30.4516509" y2="39.2822123" id="Path-39" stroke="#2F383F" stroke-width="0.875" stroke-linecap="round"></line>
                            <path d="M0,39.7464623 L41.65,39.7464623 L0,39.7464623 Z" id="Path-34" stroke="#2F383F" stroke-width="0.875" stroke-linecap="round" stroke-linejoin="round"></path>
                            <line x1="4.1298876" y1="28.2899184" x2="22.4800378" y2="28.2899184" id="Path-35" stroke="#2F383F" stroke-width="0.875" stroke-linecap="round" stroke-linejoin="round"></line>
                            <line x1="4.1298876" y1="31.0403901" x2="22.4800378" y2="31.0403901" id="Path-35-Copy" stroke="#2F383F" stroke-width="0.875" stroke-linecap="round" stroke-linejoin="round"></line>
                            <line x1="4.1298876" y1="26.7086274" x2="4.1298876" y2="33.7908618" id="Path-36" stroke="#2F383F" stroke-width="0.875" stroke-linecap="round" stroke-linejoin="round"></line>
                            <line x1="22.5889803" y1="26.7086274" x2="22.5889803" y2="33.7908618" id="Path-36-Copy" stroke="#2F383F" stroke-width="0.875" stroke-linecap="round" stroke-linejoin="round"></line>
                            <polygon id="Path-35-Copy-2" stroke="#2F383F" stroke-width="0.875" stroke-linecap="round" stroke-linejoin="round" points="2.7504717 36.5182405 23.9683962 36.5182405 23.9683962 33.7812689 2.7504717 33.7812689"></polygon>
                            <path d="M4.1298876,36.9111652 L4.1298876,39.4508706 L4.1298876,36.9111652 Z" id="Path-37" stroke="#2F383F" stroke-width="0.875" stroke-linecap="round" stroke-linejoin="round"></path>
                            <path d="M22.5973404,36.9111652 L22.5973404,39.4508706 L22.5973404,36.9111652 Z" id="Path-37-Copy" stroke="#2F383F" stroke-width="0.875" stroke-linecap="round" stroke-linejoin="round"></path>
                            <path d="M25.1471698,6.73087093 C25.5350568,5.57512027 26.2554185,5.34917446 27.3082547,6.0530335" id="Path-40" stroke="#2F383F" stroke-width="0.875" stroke-linecap="round" stroke-linejoin="round"></path>
                            <path d="M22.7938027,14.7294176 C23.249428,13.514624 24.0338837,13.3001517 25.1471699,14.0860008" id="Path-41" stroke="#2F383F" stroke-width="0.875" stroke-linecap="round" stroke-linejoin="round"></path>
                            <path d="M33.9829145,10.4330732 C35.0220616,9.88914297 35.7091909,10.2097224 36.0443023,11.3948113" id="Path-42" stroke="#2F383F" stroke-width="0.875" stroke-linecap="round" stroke-linejoin="round"></path>
                            <path d="M30.4516509,18.9010842 C31.8153987,19.2881309 32.4972726,18.8547854 32.4972726,17.6010477" id="Path-43" stroke="#2F383F" stroke-width="0.875" stroke-linecap="round" stroke-linejoin="round"></path>
                        </g>
                    </g>
                </g>
            </g>
        </g>
    </g>
</svg>