<?xml version="1.0" encoding="UTF-8"?>
<svg width="33px" height="25px" viewBox="0 0 33 25" version="1.1" xmlns="http://www.w3.org/2000/svg" xmlns:xlink="http://www.w3.org/1999/xlink">
    <title>credit cards/master card copy 3</title>
    <g id="Page-1" stroke="none" stroke-width="1" fill="none" fill-rule="evenodd">
        <g id="ui-style-guide_1-of2" transform="translate(-759.000000, -7220.000000)">
            <g id="credit-cards/master-card-copy-3" transform="translate(759.041667, 7220.750000)">
                <g id="visa" transform="translate(0.000000, 0.000000)" fill="#AEAEAE">
                    <rect id="Rectangle-Copy-27" x="0" y="0" width="32.3970223" height="24" rx="5"></rect>
                </g>
                <g id="credit-card/amax" transform="translate(1.032258, 2.000000)" fill="#FFFFFF" fill-rule="nonzero">
                    <g id="Group" transform="translate(0.000000, 5.000000)">
                        <path d="M16.0155049,3.72953443 L16.0155049,3.01012788 C16.0155049,3.01012788 15.9767999,2.44683575 15.3787162,2.44683575 L14.4489265,2.44683575 L14.4489265,3.72953443 L13.4944668,3.72953443 L13.4944668,0.0315784982 L15.8117065,0.0315784982 C15.8117065,0.0315784982 17.0211132,-0.112373935 17.0211132,1.11392441 C17.0211132,1.75225103 16.4864769,1.9772834 16.4864769,1.9772834 C16.4864769,1.9772834 16.9506483,2.19043826 16.9506483,2.81617616 L16.9506483,3.72946331 L16.0155049,3.72946331 M14.4489988,1.57707572 L15.4360141,1.57707572 C15.7226487,1.57707572 15.9582793,1.42053456 15.9582793,1.22672508 C15.9582793,1.03255999 15.7226487,0.876089956 15.4360141,0.876089956 L14.4489988,0.876089956 L14.4489988,1.57707572 L14.4489988,1.57707572" id="SVGID_1_"></path>
                        <path d="M27.2822963,3.72953443 L25.7675175,1.25787684 L25.7675175,3.72953443 L24.946319,3.72953443 L24.7929456,3.72953443 L23.8963627,3.72953443 L23.5586519,2.95372754 L21.8146813,2.95372754 L21.4831199,3.72953443 L20.6045511,3.72953443 L20.4456795,3.72953443 L19.9870787,3.72953443 C19.9870787,3.72953443 18.7016365,3.54824256 18.7016365,1.98382669 C18.7016365,-0.0689179386 20.1596961,0.0125887256 20.2101212,0 L21.387768,0.0315784982 L21.387768,0.863714599 L20.4207201,0.875947711 C20.4207201,0.875947711 19.7902255,0.875947711 19.7134665,1.68354646 C19.7044956,1.7762194 19.7004442,1.86142445 19.7010953,1.94058406 C19.7044956,3.19070852 20.804877,2.80259171 20.8408329,2.79106983 L22.0247015,0.0315784982 L23.3610752,0.0315784982 L24.7929456,3.38565597 L24.7929456,0.0315784982 L26.1425587,0.0315784982 L27.6385999,2.46589664 L27.6385999,0.0315784982 L28.6000771,0.0315784982 L28.6000771,3.72953443 L27.2822963,3.72953443 M22.2221335,2.00893302 L23.151055,2.00893302 L22.6931777,0.907526209 L22.2221335,2.00893302 L22.2221335,2.00893302" id="SVGID_4_"></path>
                        <path d="M8.52278305,3.72953443 L8.52278305,1.17672579 L7.32647097,3.72953443 L6.54361581,3.72953443 L5.34043087,1.18903003 L5.34043087,3.72953443 L4.50671653,3.72953443 L4.37924302,3.72953443 L3.45625382,3.72953443 L3.12541594,2.95372754 L1.38137293,2.95372754 L1.04395158,3.72953443 L0,3.72953443 L1.58480965,0.0315784982 L2.92820097,0.0315784982 L4.37931537,3.42939645 L4.37931537,0.0315784982 L5.88787242,0.0315784982 L6.93840747,2.32806077 L7.98279313,0.0315784982 L9.49127783,0.0315784982 L9.49127783,3.72953443 L8.52278305,3.72953443 M1.78853575,2.00893302 L2.71781905,2.00893302 L2.25335826,0.907526209 L1.78853575,2.00893302 L1.78853575,2.00893302" id="SVGID_7_"></path>
                        <polyline id="SVGID_10_" points="10.0188966 3.72953443 10.0188966 0.0316496209 12.9985355 0.0316496209 12.9985355 0.895008606 10.9803738 0.895008606 10.9803738 1.46434617 12.9474593 1.46434617 12.9474593 2.30295444 10.9803738 2.30295444 10.9803738 2.92897683 12.9985355 2.92897683 12.9985355 3.72953443 10.0188966 3.72953443"></polyline>
                        <polyline id="SVGID_13_" points="17.4162666 3.74212316 17.4162666 0.0316496209 18.6509316 0.0316496209 18.6509316 3.74212316 17.4162666 3.74212316"></polyline>
                        <path d="M19.7010953,9.99992888 L19.7010953,9.28016671 C19.7010953,9.28016671 19.6624626,8.71730132 19.0643066,8.71730132 L18.1352403,8.71730132 L18.1352403,9.99992888 L17.1799848,9.99992888 L17.1799848,6.30168845 L19.4972245,6.30168845 C19.4972245,6.30168845 20.7067036,6.15780714 20.7067036,7.38438998 C20.7067036,8.02264548 20.1721396,8.2481757 20.1721396,8.2481757 C20.1721396,8.2481757 20.6308127,8.46069046 20.6308127,9.08600162 L20.6308127,10 L19.7010953,10 M18.1352403,7.84747016 L19.122328,7.84747016 C19.408239,7.84747016 19.6437973,7.69135574 19.6437973,7.49711953 C19.6437973,7.30302556 19.408239,7.14669777 19.122328,7.14669777 L18.1352403,7.14669777 L18.1352403,7.84747016 L18.1352403,7.84747016" id="SVGID_16_"></path>
                        <path d="M13.3355951,9.99388344 L12.5012297,9.99388344 L11.4900508,8.89852207 L10.4706245,9.99388344 L9.89178483,9.99388344 L6.91901877,9.99388344 L6.91901877,6.28938422 L9.89178483,6.28938422 L10.3946613,6.28938422 L11.4901232,7.46589664 L12.5911557,6.29550078 L13.323224,6.29550078 L13.323224,6.28938422 L15.6398849,6.28938422 C15.6398849,6.28938422 16.849364,6.15773602 16.849364,7.37763332 C16.849364,8.46673589 16.4479888,8.80485342 15.2129717,8.80485342 L14.2778284,8.80485342 L14.2778284,9.99388344 L13.3355951,9.99388344 M12.1392831,8.1734257 L13.3230793,9.46216981 L13.3230793,6.89001579 L12.1392831,8.1734257 L12.1392831,8.1734257 M7.880496,9.19339696 L9.89178483,9.19339696 L10.8339457,8.1734257 L9.89178483,7.15893088 L7.880496,7.15893088 L7.880496,7.72798395 L9.84070861,7.72798395 L9.84070861,8.56730345 L7.880496,8.56730345 L7.880496,9.19339696 L7.880496,9.19339696 M14.277756,7.8407135 L15.2640479,7.8407135 C15.5506824,7.8407135 15.7862407,7.68452796 15.7862407,7.49036287 C15.7862407,7.29683788 15.5506824,7.13994111 15.2640479,7.13994111 L14.277756,7.13994111 L14.277756,7.8407135 L14.277756,7.8407135" id="SVGID_19_"></path>
                        <path d="M26.2128789,9.98776689 L24.5130393,9.98776689 L24.5130393,9.13621428 L26.0030034,9.13621428 C26.0030034,9.13621428 26.5376397,9.19880229 26.5376397,8.84297521 C26.5376397,8.51019189 25.7295358,8.53600945 25.7295358,8.53600945 C25.7295358,8.53600945 24.4116826,8.64881012 24.4116826,7.43467376 C24.4116826,6.22672508 25.6017006,6.2955719 25.6017006,6.2955719 L27.4354526,6.2955719 L27.4354526,7.15900201 L25.9588724,7.15900201 C25.9588724,7.15900201 25.4491231,7.05857669 25.4491231,7.42251177 C25.4491231,7.72805508 26.1425587,7.68459908 26.1425587,7.68459908 C26.1425587,7.68459908 27.6005459,7.57869732 27.6005459,8.69219499 C27.6005459,9.88663035 26.6612066,9.99253211 26.328343,9.99253211 C26.2565035,9.99246099 26.2128789,9.98776689 26.2128789,9.98776689" id="SVGID_22_"></path>
                        <polyline id="SVGID_25_" points="21.1018569 9.99388344 21.1018569 6.30168845 24.0801936 6.30168845 24.0801936 7.15893088 22.0625384 7.15893088 22.0625384 7.72798395 24.0296962 7.72798395 24.0296962 8.56730345 22.0625384 8.56730345 22.0625384 9.19339696 24.0801936 9.19339696 24.0801936 9.99388344 21.1018569 9.99388344"></polyline>
                        <path d="M29.5800749,9.98776689 L27.8803076,9.98776689 L27.8803076,9.13621428 L29.3639053,9.13621428 C29.3639053,9.13621428 29.9048357,9.19880229 29.9048357,8.84297521 C29.9048357,8.51019189 29.0968042,8.53600945 29.0968042,8.53600945 C29.0968042,8.53600945 27.7788063,8.64881012 27.7788063,7.43467376 C27.7788063,6.22672508 28.9688243,6.2955719 28.9688243,6.2955719 L30.7964268,6.2955719 L30.7964268,7.15900201 L29.3253449,7.15900201 C29.3253449,7.15900201 28.8161744,7.05857669 28.8161744,7.42251177 C28.8161744,7.72805508 29.5104058,7.68459908 29.5104058,7.68459908 C29.5104058,7.68459908 30.9677419,7.57869732 30.9677419,8.69219499 C30.9677419,9.88663035 30.0284749,9.99253211 29.6956113,9.99253211 C29.6236272,9.99246099 29.5800749,9.98776689 29.5800749,9.98776689" id="SVGID_28_"></path>
                    </g>
                </g>
            </g>
        </g>
    </g>
</svg>