<?xml version="1.0" encoding="UTF-8"?>
<svg width="34px" height="25px" viewBox="0 0 34 25" version="1.1" xmlns="http://www.w3.org/2000/svg" xmlns:xlink="http://www.w3.org/1999/xlink">
    <title>credit card/diners</title>
    <g id="Page-1" stroke="none" stroke-width="1" fill="none" fill-rule="evenodd">
        <g id="ui-style-guide_1-of2" transform="translate(-714.000000, -7152.000000)">
            <g id="credit-cards/master-card-copy-2" transform="translate(714.916667, 7152.750000)">
                <g id="credit-card/diners" transform="translate(0.000000, 0.000000)">
                    <rect id="Rectangle-Copy-27" fill="#000000" x="0" y="0" width="32.3970223" height="24" rx="5"></rect>
                    <path d="M19.2261997,6 C22.6126439,5.99885888 25.3894653,8.68890459 25.3660463,12.0520959 C25.3894653,15.3256106 22.6126439,18.01591 19.2261997,18 L12.4408728,18 C9.01344663,18.0160369 6.23675619,15.3256106 6.19354839,12.0520959 C6.23688712,8.68877775 9.01344663,5.99873204 12.4408728,6 Z M12.4408728,6.41740142 C9.24637596,6.40690665 6.65770492,8.91430119 6.62444801,12.0520959 C6.65770492,15.1004677 9.24650689,17.6078622 12.4408728,17.5819867 C15.6319653,17.6078622 18.2199817,15.1004677 18.2571666,12.0520959 C18.2198507,8.91430119 15.6318344,6.40690665 12.4408728,6.41740142 Z M11.1483048,8.71313123 L11.1483048,15.2869241 C9.76198906,14.772203 8.80539452,13.4982111 8.77868424,12.0522228 C8.80539452,10.5492828 9.80977951,9.29824915 11.1483048,8.71313123 Z M13.732917,8.71300439 C15.1163522,9.24307328 16.0725539,10.5166846 16.1029303,12.0520959 C16.0725539,13.4980843 15.1163522,14.7720761 13.732917,15.2867973 Z" id="Combined-Shape" fill="#FFFFFF"></path>
                </g>
            </g>
        </g>
    </g>
</svg>