<?xml version="1.0" encoding="UTF-8"?>
<svg width="34px" height="25px" viewBox="0 0 34 25" version="1.1" xmlns="http://www.w3.org/2000/svg" xmlns:xlink="http://www.w3.org/1999/xlink">
    <title>credit cards/visa</title>
    <g id="Page-1" stroke="none" stroke-width="1" fill="none" fill-rule="evenodd">
        <g id="ui-style-guide_1-of2" transform="translate(-625.000000, -7220.000000)">
            <g id="credit-cards/visa" transform="translate(625.916667, 7220.750000)">
                <rect id="Rectangle-Copy-27" fill="#AEAEAE" x="4.6189862e-12" y="0" width="32.3970223" height="24" rx="5"></rect>
                <path d="M20.3935162,8.11124016 C20.6841284,8.16373458 20.9674282,8.25071765 21.2676291,8.32551772 C21.2191049,8.54310979 21.1744065,8.74578662 21.1285943,8.94823951 C21.060457,9.24945536 20.989511,9.55013373 20.9239889,9.85179748 C20.8994847,9.96466945 20.8820993,9.98065964 20.7674234,9.93461505 C20.2385488,9.72221868 19.6822159,9.62569523 19.1098051,9.6169163 C18.7657291,9.61158624 18.4255272,9.65270388 18.1257138,9.83437399 C17.8965073,9.97326921 17.794132,10.1690931 17.846046,10.3926871 C17.8825118,10.5499912 17.9884708,10.6722244 18.1318156,10.7529368 C18.5097423,10.9657363 18.8909136,11.1741911 19.2781384,11.3720753 C19.765753,11.6212894 20.2226162,11.9021704 20.5392824,12.3382504 C20.7027245,12.5633672 20.8026785,12.8133428 20.8385631,13.0837428 C20.8956105,13.5138656 20.8438417,13.9305961 20.6485344,14.3268573 C20.4078991,14.8150285 20.0409169,15.1980765 19.5324302,15.464535 C18.7558015,15.8715907 17.9148613,16.0109786 17.032661,15.9993331 C16.2523518,15.9889417 15.4940286,15.8764281 14.7600158,15.627617 C14.700644,15.6074613 14.6840334,15.5882462 14.6966245,15.5333331 C14.7682485,15.221054 14.8371121,14.9081927 14.9073801,14.5956896 C14.945783,14.425038 14.9841859,14.2544311 15.0245742,14.0841825 C15.0372622,14.0308371 15.0564394,13.9787906 15.0765367,13.9134861 C15.2636114,13.9830009 15.4384824,14.0459315 15.6116585,14.1125797 C16.2079439,14.342086 16.8338669,14.4132133 17.4708313,14.3772017 C17.8089507,14.3580762 18.1435834,14.2796033 18.3963255,14.0433784 C18.6936692,13.7654536 18.673475,13.3634144 18.3262512,13.1425527 C17.9926355,12.9303803 17.6363074,12.7467394 17.2802214,12.56704 C16.8104281,12.3299641 16.3614101,12.0697315 16.0166076,11.6841753 C15.6867692,11.3154154 15.5416326,10.8913841 15.5833285,10.4097971 C15.6570833,9.55815122 16.1377728,8.95410706 16.9100915,8.52667169 C17.4561578,8.22447044 18.056608,8.08235031 18.686163,8.02394355 C19.2612857,7.97055332 19.8302097,8.00938665 20.3935162,8.11124016 Z M26.654678,8.14196031 C26.7574407,8.14103925 26.7933738,8.17396024 26.8130837,8.26237661 C26.9788019,9.00607743 27.1488302,9.74892723 27.3178415,10.4919562 C27.4478688,11.0634377 27.5793974,11.6346952 27.708214,12.2064455 C27.8203717,12.7043362 27.9282193,13.2031228 28.0407644,13.7009688 C28.1375221,14.1293 28.2384446,14.5567353 28.3370426,14.9847082 C28.3988359,15.2530031 28.4593216,15.5216115 28.521357,15.7899511 C28.5364179,15.8551212 28.5169501,15.8884901 28.4383526,15.8883558 C27.8295729,15.8873256 27.22089,15.8871464 26.6121588,15.8884901 C26.5353046,15.8886693 26.522084,15.8469246 26.5097834,15.7907126 C26.4403871,15.4733273 26.3646952,15.1571515 26.2989794,14.8391392 C26.281933,14.7565456 26.2471137,14.7299401 26.1571842,14.7302088 C25.3065586,14.7328514 24.4559329,14.7334337 23.6053557,14.7294922 C23.5093727,14.7290443 23.4680642,14.7667578 23.4395406,14.8396767 C23.3167289,15.1532995 23.1915927,15.4661161 23.0701855,15.7801868 C23.0449064,15.8457152 23.0152689,15.8894307 22.9280513,15.8892076 C22.2427081,15.8871016 21.5574132,15.8880422 20.87207,15.8875047 C20.8486796,15.88746 20.8252892,15.8813684 20.7734235,15.8741572 C20.8477595,15.7057898 20.9141049,15.551845 20.9834043,15.3991096 L23.5837571,9.66920021 C23.7239057,9.36050435 23.861294,9.05068873 24.0056558,8.74365012 C24.1933116,8.3446119 24.5195664,8.1398747 24.9978345,8.14359231 C25.5500511,8.14793698 26.1024129,8.14704117 26.654678,8.14196031 Z M3.63942431,8.14470087 L5.46545465,8.1497286 C5.89786208,8.15241603 6.27951769,8.43284911 6.38324899,8.8226157 C6.47342063,9.16145554 6.53661827,9.50656604 6.60674101,9.84984014 C6.70519373,10.3321438 6.79807731,10.8154777 6.89502878,11.2980501 C7.00897823,11.8650974 7.12447736,12.4317863 7.23997649,12.9984752 C7.26404486,13.1165876 7.29126101,13.2341626 7.31702434,13.3519167 L7.35794541,13.3470794 L7.81175772,12.2952202 C8.22503636,11.329717 8.63715275,10.3637659 9.0504314,9.39821792 C9.21871629,9.00509204 9.38714647,8.61192137 9.56095208,8.22081106 C9.57577084,8.18748696 9.63141381,8.14802656 9.66836385,8.14780261 C10.3697365,8.14350273 11.0711577,8.14453291 11.7725788,8.14507039 C11.7954849,8.14511518 11.818391,8.15196812 11.862363,8.15900023 C11.8030396,8.2929685 11.7486557,8.41860574 11.6920442,8.54339196 C10.9658767,10.1430833 10.2395639,11.7427298 9.51300904,13.3423316 C9.14157159,14.1601158 8.76892346,14.9774522 8.39927782,15.7959082 C8.36775164,15.8656918 8.32247211,15.8894307 8.24343874,15.8892068 C7.55010497,15.8873704 6.85672278,15.8871464 6.16338901,15.8895221 C6.07849594,15.8897891 6.04604964,15.8603169 6.02541961,15.7856512 C5.6689462,14.4948797 5.30980928,13.2047353 4.95018809,11.9146804 C4.74635755,11.1834761 4.54088048,10.4526302 4.33520971,9.72191858 C4.31598407,9.65361313 4.28833207,9.58741283 4.26678192,9.51960007 C4.18227627,9.25376868 3.98706579,9.08786481 3.71897221,8.97579908 C3.10738374,8.72013513 2.47429355,8.52614764 1.81834566,8.39733027 C1.7022654,8.37453193 1.6634267,8.32405308 1.70144214,8.22932125 C1.7153892,8.19451906 1.76677058,8.17248215 1.80149296,8.1450256 L3.63942431,8.14470087 Z M12.9206208,8.14271865 C13.5697404,8.14594829 14.2189085,8.14429104 14.8680765,8.14491811 C14.8987795,8.14491811 14.9294339,8.15154709 14.9669651,8.15593656 C14.8460421,8.69068988 14.7310273,9.20976653 14.6108307,9.72781301 C14.4694229,10.3375456 14.3220586,10.9461136 14.1798761,11.5556669 L13.677588,13.727422 C13.5169547,14.4189868 13.3558854,15.1104619 13.1901188,15.8009517 C13.181983,15.8348132 13.1268243,15.8837692 13.0932157,15.884038 C12.4239503,15.8886066 11.7546365,15.8872326 11.0853227,15.8863671 C11.0701649,15.8863223 11.0550072,15.8796037 11.0225124,15.8718997 C11.0482758,15.7436199 11.0705523,15.6173556 11.0992697,15.4923454 C11.1841628,15.1226897 11.2710898,14.7533923 11.358259,14.3841398 C11.4557916,13.9711717 11.5560361,13.5586964 11.6522612,13.14537 C11.7638377,12.6661568 11.87154,12.1861375 11.9823901,11.70679 C12.136389,11.0410693 12.2919859,10.3756622 12.4465174,9.71007598 C12.5588688,9.22607026 12.6722371,8.74219891 12.7810533,8.25752132 C12.7983903,8.18025778 12.8259938,8.14223068 12.9206208,8.14271865 Z M25.2648626,10.278664 C25.2542571,10.2801869 25.2436515,10.2817546 25.2329975,10.2832774 C24.8618022,11.2311332 24.4905584,12.1790785 24.1145204,13.1392516 L25.9120936,13.1392516 C25.6945097,12.1775108 25.4796862,11.2280874 25.2648626,10.278664 Z" id="Combined-Shape" fill="#FFFFFF"></path>
            </g>
        </g>
    </g>
</svg>