<?xml version="1.0" encoding="UTF-8"?>
<svg width="35px" height="35px" viewBox="0 0 35 35" version="1.1" xmlns="http://www.w3.org/2000/svg" xmlns:xlink="http://www.w3.org/1999/xlink">
    <title>logo/without text</title>
    <g id="Page-1" stroke="none" stroke-width="1" fill="none" fill-rule="evenodd">
        <g id="ui-style-guide-menu-&amp;-builder" transform="translate(-200.000000, -318.000000)">
            <g id="Group-12" transform="translate(201.000000, 318.818182)">
                <path d="M23.8612764,0.597910827 C23.4767016,0.212428097 22.9637,-8.52651283e-15 22.4198854,-8.52651283e-15 C21.8756004,-8.52651283e-15 21.3630693,0.212428097 20.9787297,0.597910827 L0.596267293,21.028967 C-0.198755764,21.8265744 -0.198755764,23.1228338 0.596267293,23.9194981 L9.71833363,33.0628655 C10.1026732,33.4481124 10.6144987,33.6605405 11.1594893,33.6605405 C11.7035391,33.6605405 12.2155998,33.4481124 12.600645,33.0628655 L32.9842835,12.6318093 C33.7788362,11.8353808 33.7788362,10.5388856 32.9842835,9.74245709 L23.8612764,0.597910827 Z" id="Fill-20" fill="#FFFFFF"></path>
                <path d="M32.4054604,10.4378559 L23.2870301,1.29952886 C22.8478709,0.858355244 22.1350601,0.858355244 21.696136,1.29952886 L11.8376238,11.1799797 L22.5462429,21.9156757 L32.4054604,12.0335752 C32.8443845,11.5935799 32.8443845,10.8792652 32.4054604,10.4378559 M24.3863386,13.0808912 C23.8703031,13.5979504 23.1927566,13.8548304 22.5182664,13.8548304 C21.8451868,13.8548304 21.1674053,13.5979504 20.6516049,13.0808912 C20.1362746,12.5638319 19.8764936,11.8855746 19.8764936,11.2084957 C19.8764936,10.5311811 20.1362746,9.85174541 20.6516049,9.33704286 C21.1674053,8.82116196 21.8428359,8.56074698 22.5194419,8.56074698 C23.1927566,8.56074698 23.8703031,8.81856959 24.3863386,9.33704286 C24.9009636,9.85174541 25.1619201,10.5321237 25.1619201,11.2084957 C25.1619201,11.8843963 24.9009636,12.5638319 24.3863386,13.0808912" id="Fill-22" fill="#F5002E"></path>
                <path d="M1.29613194,21.6242527 C0.856404866,22.0641013 0.856404866,22.7787965 1.29613194,23.2202952 L10.415413,32.3616518 C10.6350414,32.5822833 10.923333,32.6918919 11.2116247,32.6918919 C11.4992109,32.6918919 11.7875025,32.5822833 12.0071309,32.3616518 L21.8633663,22.4824997 L11.1516619,11.7448649 L1.29613194,21.6242527 Z M9.19358312,24.2572161 C8.6764923,24.77108 7.99950073,25.0298977 7.32462549,25.0298977 C6.64833936,25.0298977 5.97228838,24.7720229 5.4563733,24.2572161 C4.94022308,23.7409949 4.68391157,23.062836 4.68391157,22.3853842 C4.68391157,21.7081681 4.94139882,21.0300091 5.4563733,20.5111951 C5.97228838,19.9954454 6.64833936,19.7370991 7.32462549,19.7370991 C7.99950073,19.7370991 8.67766804,19.9954454 9.19358312,20.5111951 C9.7090279,21.0300091 9.96580969,21.7081681 9.96534004,22.3842056 C9.96534004,23.0614217 9.7090279,23.7421735 9.19358312,24.2572161 L9.19358312,24.2572161 Z M13.2092084,20.6186822 C13.7253586,20.1012825 14.402115,19.8434077 15.0769902,19.8434077 C15.7532764,19.8434077 16.4300328,20.1012825 16.9447721,20.6186822 C17.4625684,21.1360819 17.7205259,21.8121194 17.7205259,22.4916927 C17.7205259,23.1677302 17.4625684,23.8463606 16.9447721,24.3621103 C16.4300328,24.8773885 15.7532764,25.1362063 15.0769902,25.1385634 C14.402115,25.1385634 13.7253586,24.8773885 13.2099138,24.3621103 C12.6937636,23.8463606 12.435806,23.1677302 12.435806,22.4916927 C12.435806,21.8144766 12.6937636,21.1360819 13.2092084,20.6186822 L13.2092084,20.6186822 Z" id="Fill-24" fill="#017AFF"></path>
                <polyline id="Fill-26" fill="#FFFFFF" points="15.3324538 32.6918919 15.3324538 31.7086288 14.9782178 31.7086288 14.9782178 31.4810811 15.9445545 31.4810811 15.9445545 31.7086288 15.5936581 31.7086288 15.5936581 32.6918919"></polyline>
                <polyline id="Fill-28" fill="#FFFFFF" points="17.1287987 32.6918919 17.1287987 31.8193084 16.7849957 32.6918919 16.6727237 32.6918919 16.3255478 31.8193084 16.3255478 32.6918919 16.0653465 32.6918919 16.0653465 31.4810811 16.4317966 31.4810811 16.7303053 32.2379866 17.0261637 31.4810811 17.3940594 31.4810811 17.3940594 32.6918919"></polyline>
            </g>
        </g>
    </g>
</svg>