<?xml version="1.0" encoding="UTF-8"?><svg version="1.1" width="81px" height="75px" viewBox="0 0 81.0 75.0" xmlns="http://www.w3.org/2000/svg" xmlns:xlink="http://www.w3.org/1999/xlink"><defs><clipPath id="i0"><path d="M360,0 L360,960 L0,960 L0,0 L360,0 Z"></path></clipPath><clipPath id="i1"><path d="M18.1453836,4.2 C20.7479006,4.2 22.8564356,6.30380216 22.8564356,8.898066 C22.8564356,11.4961978 20.7479006,13.6 18.1453836,13.6 C15.5428666,13.6 13.4331683,11.4961978 13.4331683,8.898066 C13.4331683,6.30380216 15.5428666,4.2 18.1453836,4.2 Z M61.8519474,4.2 C64.4541432,4.2 66.5643564,6.30298268 66.5643564,8.89864648 C66.5643564,11.4966306 64.4541432,13.6 61.8519474,13.6 C59.2516901,13.6 57.1410891,11.4966306 57.1410891,8.89864648 C57.1410891,6.30298268 59.2516901,4.2 61.8519474,4.2 Z M73.1933063,4.2 C75.1165996,4.2 76.226237,4.78058365 76.9835899,5.23063339 C77.1290392,5.31947438 77.1790863,5.50494943 77.0938499,5.65145913 L76.1738439,7.24747969 C76.1316167,7.32307246 76.0577191,7.3787929 75.9744376,7.39827558 C75.8892012,7.41970652 75.8020098,7.40412038 75.7285032,7.35385508 C75.037228,6.90029846 74.4198505,6.59169292 73.3328907,6.59169292 C72.7886288,6.59169292 72.3511079,6.74015089 72.3604917,7.0740839 C72.3819963,7.96600066 77.5935386,6.84652628 77.5915842,10.453938 C77.5915842,12.4088294 75.9896864,13.6 73.210901,13.6 C71.7798675,13.6 70.1310511,13.136702 69.1089961,12.449743 C68.9709757,12.3570055 68.9307034,12.1793235 69.0120299,12.0343724 L70.0751392,10.2680733 C70.1181484,10.1932598 70.1873541,10.1406566 70.2706356,10.1196153 C70.351962,10.098574 70.4411084,10.1122119 70.5114871,10.1562427 C71.2391246,10.6043442 72.3933351,11.111673 73.4106982,11.111673 C74.1962027,11.111673 74.6517092,10.9187946 74.6689129,10.6581164 C74.7486754,9.53669375 69.6161137,10.6639612 69.1782018,7.37333775 C68.9307034,5.50105289 70.4180398,4.2 73.1933063,4.2 Z M5.58042232,1 C9.74100176,1 12.4306931,3.42874937 12.4306931,7.19024912 C12.4306931,10.96384 9.7476769,13.4 5.59809183,13.4 L0.3153025,13.4 C0.140178073,13.4 0,13.2588072 0,13.0868017 L0,1.31280825 C0,1.13885254 0.140178073,1 0.3153025,1 Z M36.3218174,4.2 C38.112008,4.2 39.0965347,5.15571756 39.0965347,6.89441383 L39.0965347,13.0872764 C39.0965347,13.2584555 38.9563343,13.4 38.784501,13.4 L36.0586001,13.4 C35.8855952,13.4 35.7457853,13.2584555 35.7457853,13.0872764 L35.7457853,8.15739595 C35.7457853,7.52064084 35.3724385,7.15293719 34.7214246,7.15293719 C33.95208,7.15293719 33.5416328,7.63255065 33.3455866,7.86026956 L33.3455866,13.0872764 C33.3455866,13.2584555 33.2042147,13.4 33.0308192,13.4 L30.3072615,13.4 C30.1346471,13.4 29.9940562,13.2584555 29.9940562,13.0872764 L29.9940562,8.15739595 C29.9940562,7.51245232 29.6296915,7.15293719 28.9696955,7.15293719 C28.2179248,7.15293719 27.8090396,7.630601 27.6102598,7.85870984 L27.6102598,13.0872764 C27.6102598,13.2584555 27.4704499,13.4 27.2974451,13.4 L24.5734968,13.4 C24.4004919,13.4 24.259901,13.2584555 24.259901,13.0872764 L24.259901,4.73498347 C24.259901,4.56146478 24.4004919,4.42186997 24.5734968,4.42186997 L27.2974451,4.42186997 C27.4704499,4.42186997 27.6102598,4.56146478 27.6102598,4.73498347 L27.6102598,5.44387556 C28.0000089,4.9432059 29.1157538,4.2 30.5896148,4.2 C31.9205418,4.2 32.7933769,4.73108417 33.1760965,5.77999491 C33.7025312,4.99350682 34.8768556,4.2 36.3218174,4.2 Z M43.9897677,4.4 C44.1648739,4.4 44.3094059,4.54111362 44.3094059,4.71349896 L44.3094059,13.086501 C44.3094059,13.2584955 44.1648739,13.4 43.9897677,13.4 L41.2194372,13.4 C41.0423456,13.4 40.9009901,13.2584955 40.9009901,13.086501 L40.9009901,4.71349896 C40.9009901,4.54111362 41.0423456,4.4 41.2194372,4.4 Z M52.5424149,4.2 C54.4202046,4.2 55.5371287,5.25670933 55.5371287,7.02582012 L55.5371287,13.0872764 C55.5371287,13.2584555 55.3975132,13.4 55.2235788,13.4 L52.5038061,13.4 C52.3318217,13.4 52.1910362,13.2584555 52.1910362,13.0872764 L52.1910362,8.43541578 C52.1910362,7.58614902 51.7542502,7.15293719 50.888868,7.15293719 C50.081204,7.15293719 49.675617,7.61500381 49.4595639,7.86026956 L49.4595639,13.0872764 C49.4595639,13.2584555 49.3199484,13.4 49.146404,13.4 L46.4262414,13.4 C46.2523069,13.4 46.1138614,13.2584555 46.1138614,13.0872764 L46.1138614,4.73498347 C46.1138614,4.56146478 46.2523069,4.42186997 46.4262414,4.42186997 L49.146404,4.42186997 C49.3199484,4.42186997 49.4595639,4.56146478 49.4595639,4.73498347 L49.4595639,5.44387556 C49.8651509,4.97829957 50.8100905,4.2 52.5424149,4.2 Z M18.1453836,7.22941322 C17.2582324,7.22941322 16.5381975,7.94576578 16.5381975,8.8311497 C16.5381975,9.72001481 17.2582324,10.4386882 18.1453836,10.4386882 C19.0329225,10.4386882 19.7529574,9.72001481 19.7529574,8.8311497 C19.7529574,7.94576578 19.0329225,7.22941322 18.1453836,7.22941322 Z M61.8519474,7.22840334 C60.964518,7.22840334 60.244572,7.94654215 60.244572,8.82981034 C60.244572,9.71694574 60.964518,10.4374049 61.8519474,10.4374049 C62.7413152,10.4374049 63.4593228,9.71694574 63.4593228,8.82981034 C63.4593228,7.94654215 62.7413152,7.22840334 61.8519474,7.22840334 Z M5.59809183,4.27122547 L3.78245203,4.27122547 L3.78245203,10.1291646 L5.58042232,10.1291646 C7.55822891,10.1291646 8.59326925,8.65093105 8.59326925,7.19024912 C8.59326925,5.36254404 7.47184467,4.27122547 5.59809183,4.27122547 Z M79.4964843,4.2 C80.3383427,4.2 81,4.8647414 81,5.7 C81,6.52698871 80.3383427,7.2 79.4964843,7.2 C78.6680325,7.2 77.9925743,6.52698871 77.9925743,5.7 C77.9925743,4.8647414 78.6680325,4.2 79.4964843,4.2 Z M79.4964843,4.42604358 C78.7871151,4.42604358 78.2228531,4.98209504 78.2228531,5.7 C78.2228531,6.40057758 78.7871151,6.97395642 79.4964843,6.97395642 C80.2034876,6.97395642 80.7697212,6.40057758 80.7697212,5.7 C80.7697212,4.98209504 80.2034876,4.42604358 79.4964843,4.42604358 Z M79.6270019,4.84386978 C79.9144561,4.84386978 80.183772,5.04825413 80.183772,5.36447887 C80.183772,5.74843791 79.8422968,5.87603045 79.7445072,5.87603045 L80.2034876,6.56440011 L79.9085414,6.56440011 L79.457053,5.88508795 L79.1640784,5.88508795 L79.1640784,6.56440011 L78.9239417,6.56440011 L78.9239417,4.84386978 L79.6270019,4.84386978 Z M79.6270019,5.05652402 L79.1640784,5.05652402 L79.1640784,5.66495143 L79.6270019,5.66495143 C79.7732921,5.66495143 79.935749,5.54208454 79.935749,5.36447887 C79.935749,5.17348385 79.7732921,5.05652402 79.6270019,5.05652402 Z M69.510992,1.45727153 C69.5125548,1.45924262 69.5125548,1.4627906 69.5145083,1.46712701 C69.5164618,1.47304031 69.5207594,1.47658828 69.5207594,1.4809247 L69.5207594,1.50024145 C69.7274387,2.35964001 69.3672151,4.12889723 67.3023757,4.98395938 C67.194543,5.0289004 67.1015569,4.97568077 67.0409986,4.87081837 L66.8343194,4.56017339 C66.8343194,4.56017339 66.7378169,4.3886879 66.8960497,4.29880584 C67.1378918,4.16004057 67.4285712,3.85727998 67.4672503,3.52337604 C66.6604587,3.47291595 65.9595463,2.94939242 65.7970159,2.16016494 C65.5997134,1.20142306 66.2654629,0.250565568 67.2797152,0.0376870257 C68.2842,-0.171249321 69.300015,0.514298428 69.510992,1.45727153 Z M42.8072754,0 C43.8555543,0 44.710396,0.852779221 44.710396,1.89940779 C44.710396,2.94919481 43.8555543,3.8 42.8072754,3.8 C41.7574142,3.8 40.9009901,2.94919481 40.9009901,1.89940779 C40.9009901,0.852779221 41.7574142,0 42.8072754,0 Z"></path></clipPath><clipPath id="i2"><path d="M37.2133344,0 C38.1159775,0 38.967476,0.350885696 39.6058071,0.987620562 L54.7485034,16.0924514 C56.0673305,17.4079807 56.0673305,19.5495128 54.7485034,20.8650421 L20.9150051,54.6127689 C20.2758932,55.2491143 19.4259564,55.6 18.5229229,55.6 C17.6183277,55.6 16.7687813,55.2491143 16.1308407,54.6127689 L0.989705958,39.5098852 C-0.329901986,38.1939665 -0.329901986,36.0528238 0.989705958,34.7353473 L34.8212522,0.987620562 C35.4591929,0.350885696 36.3099105,0 37.2133344,0 Z"></path></clipPath><clipPath id="i3"><path d="M16.3635142,0.546543208 C17.0920562,-0.182181069 18.2752053,-0.182181069 19.0041376,0.546543208 L34.1392371,15.6411012 C34.8677791,16.3702148 34.8677791,17.5501097 34.1392371,18.2768876 L17.7745522,34.6 L0,16.8669307 Z M17.730067,12.5405196 C16.6070119,12.5405196 15.4859079,12.9706693 14.6297637,13.822794 C13.7744,14.6729723 13.3432061,15.7952544 13.3432061,16.9140331 C13.3432061,18.0324224 13.7744,19.1527581 14.6297637,20.0068292 C15.4859079,20.8609003 16.6109141,21.2852109 17.7281159,21.2852109 C18.8476591,21.2852109 19.9722751,20.8609003 20.8288095,20.0068292 C21.6830026,19.1527581 22.1161475,18.030476 22.1161475,16.9140331 C22.1161475,15.7968115 21.6830026,14.6729723 20.8288095,13.822794 C19.9722751,12.9663873 18.8476591,12.5405196 17.730067,12.5405196 Z"></path></clipPath><clipPath id="i4"><path d="M16.9059702,0 L34.6856436,17.7362719 L18.3259086,34.0545142 C17.9613614,34.4189501 17.4828446,34.6 17.0054986,34.6 C16.5269817,34.6 16.0484648,34.4189501 15.6839177,34.0545142 L0.547406139,18.9549519 C-0.182468713,18.2256907 -0.182468713,17.0451674 0.547406139,16.3186316 L16.9059702,0 Z M23.4213718,13.3770573 C22.3011895,13.3770573 21.1778848,13.8030113 20.32116,14.6576447 C19.4656062,15.5122782 19.037439,16.6328408 19.037439,17.7514567 C19.037439,18.8681258 19.4656062,19.9890778 20.322331,20.8409858 C21.1778848,21.692115 22.3011895,22.1235199 23.4213718,22.1235199 C24.5438959,22.1196264 25.6672006,21.692115 26.5215835,20.8409858 C27.3810404,19.9890778 27.8092077,18.8681258 27.8092077,17.7514567 C27.8092077,16.6289473 27.3810404,15.5122782 26.5215835,14.6576447 C25.6672006,13.8030113 24.5438959,13.3770573 23.4213718,13.3770573 Z M10.5537172,13.2014584 C9.43119305,13.2014584 8.30905925,13.6281911 7.4527248,14.480099 C6.59795158,15.3370686 6.17056496,16.4572419 6.17056496,17.5758578 C6.17056496,18.694863 6.59600004,19.8150363 7.4527248,20.667723 C8.30905925,21.5180735 9.43119305,21.9440275 10.5537172,21.9440275 C11.6738994,21.9440275 12.7975944,21.5165161 13.6558804,20.667723 C14.5114343,19.8169831 14.9368704,18.6925269 14.9368704,17.573911 C14.93765,16.4572419 14.5114343,15.3370686 13.6558804,14.480099 C12.799546,13.6281911 11.6738994,13.2014584 10.5537172,13.2014584 Z"></path></clipPath><clipPath id="i5"><path d="M1.6039604,0 L1.6039604,0.375860035 L1.02152995,0.375860035 L1.02152995,2 L0.587973633,0.375860035 L0,0.375860035 L0,0 L1.6039604,0 Z"></path></clipPath><clipPath id="i6"><path d="M0.608247085,0 L1.10372252,1.25024572 L1.59479906,0 L2.20544554,0 L2.20544554,2 L1.76515623,0.558678986 L1.1944997,2 L1.00814655,2 L0.431891421,0.558678986 L0.431891421,2 L0,2 L0,0 L0.608247085,0 Z"></path></clipPath></defs><g transform="translate(-39.0 -790.0)"><g clip-path="url(#i0)"><g transform="translate(39.0 791.0)"><g transform="translate(0.0 60.399940000000015)"><g clip-path="url(#i1)"><polygon points="0,0 81,0 81,13.6 0,13.6 0,0" stroke="none" fill="#007AFF"></polygon></g></g><g transform="translate(10.425742574257427 -5.999999998351768e-05)"><g clip-path="url(#i2)"><polygon points="0,0 55.7376238,0 55.7376238,55.6 0,55.6 0,0" stroke="none" fill="#FEFFFE"></polygon></g></g><g transform="translate(30.074257425742562 1.5999400000000676)"><g clip-path="url(#i3)"><polygon points="0,0 34.6856436,0 34.6856436,34.6 0,34.6 0,0" stroke="none" fill="#F4002E"></polygon></g></g><g transform="translate(12.029702970297027 19.39994000000001)"><g clip-path="url(#i4)"><polygon points="-1.11022302e-16,0 34.6856436,0 34.6856436,34.6 -1.11022302e-16,34.6 -1.11022302e-16,0" stroke="none" fill="#007AFF"></polygon></g></g><g transform="translate(35.28712871287128 51.99994000000002)"><g clip-path="url(#i5)"><polygon points="0,0 1.6039604,0 1.6039604,2 0,2 0,0" stroke="none" fill="#FEFFFE"></polygon></g></g><g transform="translate(37.09158415841584 51.99994000000002)"><g clip-path="url(#i6)"><polygon points="0,0 2.20544554,0 2.20544554,2 0,2 0,0" stroke="none" fill="#FEFFFE"></polygon></g></g></g></g></g></svg>