<?xml version="1.0" encoding="UTF-8"?>
<svg width="134px" height="28px" viewBox="0 0 134 28" version="1.1" xmlns="http://www.w3.org/2000/svg" xmlns:xlink="http://www.w3.org/1999/xlink">
    <title>logos/dominos/colors</title>
    <g id="Page-1" stroke="none" stroke-width="1" fill="none" fill-rule="evenodd">
        <g id="ראשי-מזוהה-עם-באדג'-על--אייקון-התפריט" transform="translate(-41.000000, -37.000000)">
            <g id="header" transform="translate(-1.000000, 27.000000)">
                <g id="logos/dominos/colors" transform="translate(42.000000, 10.000000)">
                    <path d="M58.887458,15.5657754 C61.9719226,15.5657754 64.4709271,18.1533396 64.4709271,21.3441454 C64.4709271,24.5397086 61.9719226,27.1272727 58.887458,27.1272727 C55.8029934,27.1272727 53.3026103,24.5397086 53.3026103,21.3441454 C53.3026103,18.1533396 55.8029934,15.5657754 58.887458,15.5657754 Z M110.68783,15.5657754 C113.771914,15.5657754 116.272907,18.1523316 116.272907,21.3448593 C116.272907,24.5402408 113.771914,27.1272727 110.68783,27.1272727 C107.606043,27.1272727 105.10459,24.5402408 105.10459,21.3448593 C105.10459,18.1523316 107.606043,15.5657754 110.68783,15.5657754 Z M124.12944,15.5657754 C126.408899,15.5657754 127.724025,16.2798622 128.621628,16.8333994 C128.794013,16.942669 128.853328,17.1707934 128.752307,17.3509925 L128.752307,17.3509925 L127.66193,19.3140125 C127.611882,19.4069875 127.5243,19.4755207 127.425596,19.4994833 C127.324575,19.5258422 127.221237,19.5066721 127.134118,19.4448485 C126.314829,18.8869981 125.583122,18.5074298 124.294874,18.5074298 C123.649823,18.5074298 123.131279,18.6900252 123.142401,19.1007449 C123.167888,20.1977548 129.344531,18.8208612 129.342214,23.2577847 C129.342214,25.6621966 127.443669,27.1272727 124.150293,27.1272727 C122.454254,27.1272727 120.500101,26.557441 119.288777,25.7125181 C119.125197,25.5984559 119.077467,25.3799166 119.173854,25.2016345 L119.173854,25.2016345 L120.433835,23.029181 C120.484809,22.9371645 120.56683,22.8724653 120.665534,22.8465857 C120.761921,22.820706 120.867576,22.8374799 120.950988,22.8916355 C121.813373,23.4427763 123.181326,24.0667636 124.38709,24.0667636 C125.318058,24.0667636 125.857918,23.8295334 125.878308,23.5089132 C125.972841,22.1296233 119.889805,23.516102 119.370798,19.4688111 C119.077467,17.1660009 120.840236,15.5657754 124.12944,15.5657754 Z M43.995652,11.6299465 C48.9267092,11.6299465 52.1144914,14.6171784 52.1144914,19.2436219 C52.1144914,23.8849368 48.9346204,26.8812834 44.0165937,26.8812834 L44.0165937,26.8812834 L37.75551,26.8812834 C37.5479552,26.8812834 37.3818182,26.7076239 37.3818182,26.4960663 L37.3818182,26.4960663 L37.3818182,12.0146839 C37.3818182,11.8007277 37.5479552,11.6299465 37.75551,11.6299465 L37.75551,11.6299465 Z M80.4298981,15.5657754 C82.5516054,15.5657754 83.7184518,16.7412569 83.7184518,18.8797603 L83.7184518,18.8797603 L83.7184518,26.4966501 C83.7184518,26.7071913 83.5522885,26.8812834 83.3486342,26.8812834 L83.3486342,26.8812834 L80.1179368,26.8812834 C79.9128939,26.8812834 79.7471934,26.7071913 79.7471934,26.4966501 L79.7471934,26.4966501 L79.7471934,20.4331608 C79.7471934,19.6499861 79.3047082,19.1977302 78.5331362,19.1977302 C77.6213205,19.1977302 77.1348644,19.7876291 76.9025134,20.0677112 L76.9025134,20.0677112 L76.9025134,26.4966501 C76.9025134,26.7071913 76.7349615,26.8812834 76.5294558,26.8812834 L76.5294558,26.8812834 L73.3015355,26.8812834 C73.0969555,26.8812834 72.9303293,26.7071913 72.9303293,26.4966501 L72.9303293,26.4966501 L72.9303293,20.4331608 C72.9303293,19.6399146 72.4984896,19.1977302 71.7162721,19.1977302 C70.8252846,19.1977302 70.34068,19.7852312 70.105089,20.0657929 L70.105089,20.0657929 L70.105089,26.4966501 C70.105089,26.7071913 69.9393885,26.8812834 69.7343457,26.8812834 L69.7343457,26.8812834 L66.5059625,26.8812834 C66.3009197,26.8812834 66.1342934,26.7071913 66.1342934,26.4966501 L66.1342934,26.4966501 L66.1342934,16.2237765 C66.1342934,16.0103577 66.3009197,15.8386636 66.5059625,15.8386636 L66.5059625,15.8386636 L69.7343457,15.8386636 C69.9393885,15.8386636 70.105089,16.0103577 70.105089,16.2237765 L70.105089,16.2237765 L70.105089,17.0956758 C70.5670139,16.4798789 71.8893782,15.5657754 73.6361765,15.5657754 C75.2135715,15.5657754 76.2480426,16.2189805 76.7016362,17.5090847 C77.3255589,16.5417464 78.7173508,15.5657754 80.4298981,15.5657754 Z M89.5178391,15.8117647 C89.7253724,15.8117647 89.8966697,15.9853269 89.8966697,16.1973517 L89.8966697,16.1973517 L89.8966697,26.4956965 C89.8966697,26.7072404 89.7253724,26.8812834 89.5178391,26.8812834 L89.5178391,26.8812834 L86.2344844,26.8812834 C86.0245982,26.8812834 85.8570657,26.7072404 85.8570657,26.4956965 L85.8570657,26.4956965 L85.8570657,16.1973517 C85.8570657,15.9853269 86.0245982,15.8117647 86.2344844,15.8117647 L86.2344844,15.8117647 Z M99.6543099,15.5657754 C101.879838,15.5657754 103.2036,16.8654714 103.2036,19.041383 L103.2036,19.041383 L103.2036,26.4966501 C103.2036,26.7071913 103.03813,26.8812834 102.831986,26.8812834 L102.831986,26.8812834 L99.6085514,26.8812834 C99.4047179,26.8812834 99.2378611,26.7071913 99.2378611,26.4966501 L99.2378611,26.4966501 L99.2378611,20.7751103 C99.2378611,19.7305576 98.7201888,19.1977302 97.6945506,19.1977302 C96.7373192,19.1977302 96.2566235,19.7660475 96.0005606,20.0677112 L96.0005606,20.0677112 L96.0005606,26.4966501 C96.0005606,26.7071913 95.8350904,26.8812834 95.6294081,26.8812834 L95.6294081,26.8812834 L92.4055116,26.8812834 C92.1993671,26.8812834 92.0352835,26.7071913 92.0352835,26.4966501 L92.0352835,26.4966501 L92.0352835,16.2237765 C92.0352835,16.0103577 92.1993671,15.8386636 92.4055116,15.8386636 L92.4055116,15.8386636 L95.6294081,15.8386636 C95.8350904,15.8386636 96.0005606,16.0103577 96.0005606,16.2237765 L96.0005606,16.2237765 L96.0005606,17.0956758 C96.4812563,16.5230422 97.6011848,15.5657754 99.6543099,15.5657754 Z M58.887458,19.2917917 C57.8360195,19.2917917 56.9826449,20.172867 56.9826449,21.2618419 C56.9826449,22.3550984 57.8360195,23.2390282 58.887458,23.2390282 C59.939356,23.2390282 60.7927307,22.3550984 60.7927307,21.2618419 C60.7927307,20.172867 59.939356,19.2917917 58.887458,19.2917917 Z M110.68783,19.2905496 C109.636062,19.2905496 108.782792,20.1738219 108.782792,21.2601945 C108.782792,22.3513236 109.636062,23.2374498 110.68783,23.2374498 C111.741896,23.2374498 112.592867,22.3513236 112.592867,21.2601945 C112.592867,20.1738219 111.741896,19.2905496 110.68783,19.2905496 Z M44.0165937,15.6533789 L41.8647243,15.6533789 L41.8647243,22.8583308 L43.995652,22.8583308 C46.3397191,22.8583308 47.5664336,21.0401826 47.5664336,19.2436219 C47.5664336,16.9956424 46.2373378,15.6533789 44.0165937,15.6533789 L44.0165937,15.6533789 Z M131.599874,15.5657754 C132.597632,15.5657754 133.381818,16.3833718 133.381818,17.4106952 C133.381818,18.4278471 132.597632,19.255615 131.599874,19.255615 C130.618005,19.255615 129.817462,18.4278471 129.817462,17.4106952 C129.817462,16.3833718 130.618005,15.5657754 131.599874,15.5657754 Z M131.599874,15.8437969 C130.75914,15.8437969 130.090385,16.5277105 130.090385,17.4106952 C130.090385,18.2723681 130.75914,18.9775935 131.599874,18.9775935 C132.437803,18.9775935 133.108895,18.2723681 133.108895,17.4106952 C133.108895,16.5277105 132.437803,15.8437969 131.599874,15.8437969 Z M131.754561,16.3577008 C132.095248,16.3577008 132.414437,16.6090826 132.414437,16.9980221 C132.414437,17.4702712 132.009726,17.6272032 131.893827,17.6272032 L132.437803,18.4738611 L132.088238,18.4738611 L131.55314,17.6383435 L131.205911,17.6383435 L131.205911,18.4738611 L130.921305,18.4738611 L130.921305,16.3577008 L131.754561,16.3577008 Z M131.754561,16.6192541 L131.205911,16.6192541 L131.205911,17.3675873 L131.754561,17.3675873 C131.927942,17.3675873 132.120484,17.2164676 132.120484,16.9980221 C132.120484,16.7631085 131.927942,16.6192541 131.754561,16.6192541 Z M117.12074,10.446353 C118.31124,10.1893725 119.515169,11.0325596 119.765216,12.192366 L119.765216,12.192366 C119.767068,12.1947904 119.767068,12.1991542 119.769384,12.2044878 C119.771699,12.2117608 119.776792,12.2161246 119.776792,12.2214582 L119.776792,12.2214582 L119.776792,12.2452168 C120.021746,13.302231 119.594814,15.4783228 117.147597,16.5300035 C117.019795,16.5852786 116.909589,16.5198213 116.837817,16.3908461 L116.837817,16.3908461 L116.592863,16.0087694 C116.592863,16.0087694 116.47849,15.7978514 116.666025,15.6873013 C116.952653,15.5166274 117.297162,15.1442481 117.343004,14.7335641 C116.386806,14.6715009 115.556095,14.027595 115.363467,13.0568874 C115.129627,11.8776861 115.918663,10.7081822 117.12074,10.446353 Z M88.1163668,10.4 C89.3587714,10.4 90.3719172,11.4488728 90.3719172,12.73617 C90.3719172,14.0273519 89.3587714,15.0737968 88.1163668,15.0737968 C86.8720868,15.0737968 85.8570657,14.0273519 85.8570657,12.73617 C85.8570657,11.4488728 86.8720868,10.4 88.1163668,10.4 Z" id="Combined-Shape" fill="#306DDB"></path>
                    <g id="Group-11">
                        <path d="M19.3948437,0.487452625 C19.0822549,0.173184075 18.6652787,-2.79049511e-15 18.2232571,-2.79049511e-15 C17.7808532,-2.79049511e-15 17.3642593,0.173184075 17.0518617,0.487452625 L0.484656009,17.1440702 C-0.161552003,17.7943274 -0.161552003,18.8511154 0.484656009,19.5006038 L7.89922379,26.9548231 C8.21162139,27.2688995 8.62764169,27.4420835 9.0706192,27.4420835 C9.51283196,27.4420835 9.92904345,27.2688995 10.2420146,26.9548231 L26.8101762,10.2982056 C27.4560019,9.64890944 27.4560019,8.59192916 26.8101762,7.94263304 L19.3948437,0.487452625 Z" id="Fill-20" fill="#FFFFFF"></path>
                        <path d="M26.3396991,8.50956367 L18.9280868,1.05945356 C18.5711309,0.699782474 17.9917463,0.699782474 17.6349815,1.05945356 L9.62181818,9.11458731 L18.3259625,17.8669681 L26.3396991,9.81048939 C26.6964639,9.45177896 26.6964639,8.86942689 26.3396991,8.50956367 M19.8216231,10.664324 C19.4021808,11.0858615 18.8514597,11.2952854 18.3032228,11.2952854 C17.7561325,11.2952854 17.2052203,11.0858615 16.7859691,10.664324 C16.3671001,10.2427864 16.1559458,9.68983049 16.1559458,9.13783528 C16.1559458,8.58564794 16.3671001,8.03173141 16.7859691,7.61211514 C17.2052203,7.19153821 17.7542216,6.97923236 18.3041783,6.97923236 C18.8514597,6.97923236 19.4021808,7.18942476 19.8216231,7.61211514 C20.2399188,8.03173141 20.4520286,8.58641647 20.4520286,9.13783528 C20.4520286,9.68886983 20.2399188,10.2427864 19.8216231,10.664324" id="Fill-22" fill="#F5002E"></path>
                        <path d="M1.05351767,17.6293826 C0.69610017,17.9879735 0.69610017,18.5706357 1.05351767,18.9305718 L8.46582153,26.3831518 C8.64433915,26.5630238 8.87866741,26.6523833 9.11299568,26.6523833 C9.34675055,26.6523833 9.58107882,26.5630238 9.75959644,26.3831518 L17.7709091,18.3290769 L9.06425693,9.57511548 L1.05351767,17.6293826 Z M7.47269781,19.7759317 C7.05239776,20.1948642 6.50212771,20.4058679 5.95357785,20.4058679 C5.4038812,20.4058679 4.85437568,20.1956329 4.4350313,19.7759317 C4.01549578,19.3550774 3.80716151,18.8022017 3.80716151,18.2499025 C3.80716151,17.6977955 4.01645144,17.1449197 4.4350313,16.7219516 C4.85437568,16.3014816 5.4038812,16.0908623 5.95357785,16.0908623 C6.50212771,16.0908623 7.05335342,16.3014816 7.47269781,16.7219516 C7.89165993,17.1449197 8.10037646,17.6977955 8.09999472,18.2489416 C8.09999472,18.8010486 7.89165993,19.3560382 7.47269781,19.7759317 L7.47269781,19.7759317 Z M10.736665,16.8095815 C11.1562006,16.3877664 11.7062795,16.1775314 12.2548293,16.1775314 C12.804526,16.1775314 13.3546049,16.3877664 13.7729936,16.8095815 C14.1938671,17.2313967 14.4035393,17.7825428 14.4035393,18.3365716 C14.4035393,18.8877177 14.1938671,19.4409778 13.7729936,19.8614477 C13.3546049,20.2815333 12.804526,20.492537 12.2548293,20.4944587 C11.7062795,20.4944587 11.1562006,20.2815333 10.7372384,19.8614477 C10.3177029,19.4409778 10.1080307,18.8877177 10.1080307,18.3365716 C10.1080307,17.7844645 10.3177029,17.2313967 10.736665,16.8095815 L10.736665,16.8095815 Z" id="Fill-24" fill="#017AFF"></path>
                        <polyline id="Fill-26" fill="#FFFFFF" points="12.4624744 26.6523833 12.4624744 25.8507685 12.1745455 25.8507685 12.1745455 25.665258 12.96 25.665258 12.96 25.8507685 12.6747856 25.8507685 12.6747856 26.6523833"></polyline>
                        <polyline id="Fill-28" fill="#FFFFFF" points="13.9225735 26.6523833 13.9225735 25.9410011 13.6431247 26.6523833 13.5518681 26.6523833 13.2696777 25.9410011 13.2696777 26.6523833 13.0581818 26.6523833 13.0581818 25.665258 13.3560386 25.665258 13.5986714 26.2823326 13.8391501 25.665258 14.1381818 25.665258 14.1381818 26.6523833"></polyline>
                    </g>
                </g>
            </g>
        </g>
    </g>
</svg>
