<svg width="276" height="98" viewBox="0 0 276 98" fill="none" xmlns="http://www.w3.org/2000/svg">
<g clip-path="url(#clip0_17_2)">
<path d="M171.66 96.6H191.01C186.85 92.87 182.89 87.31 182.89 79.64V3.48C182.89 1.82 181.54 0.470001 179.88 0.470001H167.05C165.39 0.470001 164.04 1.82 164.04 3.48V77.75C164.04 87.15 167.21 92.98 171.65 96.6H171.66Z" fill="#3DACC0"/>
<path d="M148.82 24.38H135.99C134.33 24.38 132.98 25.73 132.98 27.39V93.43C132.98 95.09 134.33 96.44 135.99 96.44H148.82C150.48 96.44 151.83 95.09 151.83 93.43V27.39C151.83 25.73 150.48 24.38 148.82 24.38Z" fill="#3DACC0"/>
<path d="M148.82 0H135.99C134.328 0 132.98 1.34762 132.98 3.01V14.49C132.98 16.1524 134.328 17.5 135.99 17.5H148.82C150.482 17.5 151.83 16.1524 151.83 14.49V3.01C151.83 1.34762 150.482 0 148.82 0Z" fill="black"/>
<path d="M15.84 0H3.01C1.34762 0 0 1.34762 0 3.01V14.49C0 16.1524 1.34762 17.5 3.01 17.5H15.84C17.5024 17.5 18.85 16.1524 18.85 14.49V3.01C18.85 1.34762 17.5024 0 15.84 0Z" fill="#3DACC0"/>
<path d="M61.79 96.6H42.43C37.99 92.98 34.82 87.15 34.82 77.75V58.872C34.6591 58.8839 34.4956 58.89 34.33 58.89H18.85V93.43C18.85 95.09 17.5 96.44 15.84 96.44H3.01C1.35 96.44 0 95.09 0 93.43V27.39C0 25.73 1.35 24.38 3.01 24.38H15.84C17.5 24.38 18.85 25.73 18.85 27.39V41.39H34.33C34.4956 41.39 34.6591 41.3961 34.82 41.408V3.48C34.82 1.82 36.17 0.470001 37.83 0.470001H50.66C52.32 0.470001 53.67 1.82 53.67 3.48V79.64C53.67 87.31 57.63 92.87 61.79 96.6Z" fill="#3DACC0"/>
<path d="M272.93 79.09H260.1C258.438 79.09 257.09 80.4376 257.09 82.1V93.58C257.09 95.2424 258.438 96.59 260.1 96.59H272.93C274.592 96.59 275.94 95.2424 275.94 93.58V82.1C275.94 80.4376 274.592 79.09 272.93 79.09Z" fill="#3DACC0"/>
<path d="M65.33 78.73C65.48 80.72 66.01 83.5 66.64 85.04C67.73 87.66 69.22 89.81 71.11 91.49C73 93.16 75.23 94.5 77.8 95.49C80.37 96.48 83.22 97.16 86.36 97.53C89.49 97.89 96.98 98.29 105.36 96.72C107.83 96.26 111.84 94.58 114.58 92.65C117.32 90.72 118.81 89 119.89 87.36C120.96 85.72 122.01 83.13 122.27 82.27C122.53 81.41 122.77 80.48 122.98 79.49C123.05 79.13 123.12 78.72 123.19 78.27C123.26 77.82 123.24 77.36 123.14 76.91C122.85 75.91 122.54 75.57 121.71 75.15C121.43 75.01 120.87 74.92 120.21 74.86C118.89 74.74 109.96 74.86 109.96 74.86C109.21 74.86 108.51 74.83 107.84 75.01C106.94 75.28 106.35 75.82 106.09 76.64C105.83 77.45 105.68 78.1 104.93 79.68C104.18 81.26 102.6 83.3 100.3 84.24C97.99 85.18 97.42 85.3 94.6 85.26C91.77 85.22 89.47 84.79 88.71 84.51C86.01 83.51 83.68 81.01 83.27 78.95C82.95 77.32 82.59 75.64 82.97 74.06C83.26 72.89 83.65 72.16 84.37 71.35C85.49 70.08 86.77 69.29 88.22 68.97C89.67 68.65 102.41 66.88 112.07 63.44C116.71 61.79 120.2 58 121.75 53.27C123.3 48.54 122.73 41.47 121.63 38.35C120.53 35.23 118.04 30.16 108.93 26.33C105.8 25.02 88.47 20.82 75.09 31.38C67.93 37.03 65.15 44.44 65.33 49.42V78.73ZM105.72 51.39C104.57 53.02 103.14 54.24 101.42 55.05C100.85 55.32 99.67 55.67 97.24 56.27C94.81 56.87 93 57.19 91.37 57.52C89.74 57.85 86.18 58.55 84.82 58.71C83.46 58.87 83.36 58.53 82.93 58.17C82.59 57.9 82.31 57.22 82.19 56.63C82.1 56.18 81.97 55.49 81.91 54.03C81.85 52.57 81.94 51.25 81.94 51.25C81.96 49.93 82.05 49.05 82.42 47.18C82.79 45.31 83.89 42.86 85.08 41.28C86.27 39.7 87.94 38.54 90.08 37.82C91.4 37.37 92.82 37.07 94.36 36.94C95.9 36.8 97.35 36.87 98.73 37.14C100.11 37.41 101.4 37.84 102.58 38.43C103.77 39.02 104.67 39.81 105.28 40.8C106.06 41.79 106.57 43.06 106.79 44.6C107.22 47.49 106.87 49.76 105.72 51.39Z" fill="#3DACC0"/>
<path d="M253 43.51C252.85 41.52 252.32 38.74 251.69 37.2C250.6 34.58 249.11 32.43 247.22 30.75C245.33 29.08 243.1 27.74 240.53 26.75C237.96 25.76 235.11 25.08 231.97 24.71C228.84 24.35 221.35 23.95 212.97 25.52C210.5 25.98 206.49 27.66 203.75 29.59C201.01 31.52 199.52 33.24 198.44 34.88C197.36 36.52 196.32 39.11 196.06 39.97C195.8 40.83 195.56 41.76 195.35 42.75C195.28 43.11 195.21 43.52 195.14 43.97C195.07 44.42 195.09 44.88 195.19 45.33C195.48 46.33 195.79 46.67 196.62 47.09C196.9 47.23 197.46 47.32 198.12 47.38C199.44 47.5 208.37 47.38 208.37 47.38C209.12 47.38 209.82 47.41 210.49 47.23C211.39 46.96 211.98 46.42 212.24 45.6C212.5 44.79 212.65 44.14 213.4 42.56C214.15 40.98 215.73 38.94 218.03 38C220.33 37.06 220.91 36.94 223.73 36.98C226.55 37.02 228.86 37.45 229.62 37.73C232.32 38.73 234.65 41.23 235.06 43.29C235.38 44.92 235.74 46.6 235.36 48.18C235.07 49.35 234.68 50.08 233.96 50.89C232.84 52.16 231.56 52.95 230.11 53.27C228.66 53.59 214.61 55.36 204.96 58.8C200.32 60.45 196.83 64.24 195.28 68.97C193.73 73.7 194.3 80.77 195.4 83.89C196.5 87.01 198.99 92.08 208.1 95.91C211.23 97.22 230.76 101.42 244.14 90.86C251.3 85.21 253.18 77.8 253.01 72.82V43.51H253ZM211.77 70.85C212.92 69.22 214.35 68 216.07 67.19C216.64 66.92 218.66 66.57 221.09 65.97C223.52 65.37 225.33 65.05 226.96 64.72C228.59 64.39 231.43 63.69 232.79 63.53C234.15 63.37 234.25 63.71 234.68 64.07C235.02 64.34 235.3 65.02 235.42 65.61C235.51 66.06 235.64 66.75 235.7 68.21C235.76 69.67 235.67 70.99 235.67 70.99C235.65 72.31 235.56 73.19 235.19 75.06C234.82 76.93 233.72 79.38 232.53 80.96C231.34 82.54 229.67 83.7 227.53 84.42C226.21 84.87 225.51 85.17 223.97 85.3C222.43 85.44 220.13 85.37 218.75 85.1C217.37 84.83 216.08 84.4 214.9 83.81C213.71 83.22 212.81 82.43 212.2 81.44C211.42 80.45 210.91 79.18 210.69 77.64C210.26 74.75 210.61 72.48 211.76 70.85H211.77Z" fill="#3DACC0"/>
</g>
<defs>
<clipPath id="clip0_17_2">
<rect width="275.94" height="97.85" fill="white"/>
</clipPath>
</defs>
</svg>
