<svg xmlns="http://www.w3.org/2000/svg" viewBox="0 0 253 239"><defs><clipPath id="i"><path d="M11.973 0c3.491 0 5.574 1.965 5.574 5.26v11.285a.58.58 0 0 1-.582.58h-5.064a.58.58 0 0 1-.583-.58V7.884c0-1.58-.815-2.384-2.424-2.384-1.505 0-2.26.857-2.663 1.314v9.731c0 .318-.263.58-.583.58H.582a.583.583 0 0 1-.582-.58V.996A.58.58 0 0 1 .582.415h5.065c.32 0 .583.259.583.581v1.319c.758-.865 2.514-2.316 5.743-2.316z"/></clipPath><clipPath id="a"><path d="M375 0v667H0V0h375z"/></clipPath><clipPath id="c"><path d="M142.68 0v23.077H0V0h142.68z"/></clipPath><clipPath id="d"><path d="M1.793 0a1.77 1.77 0 0 1 .898.239c.278.16.496.379.657.657a1.76 1.76 0 0 1 .241.896c0 .321-.08.62-.241.898s-.379.496-.657.655-.576.24-.898.24-.618-.08-.896-.24S.401 2.967.24 2.69A1.76 1.76 0 0 1 0 1.792 1.76 1.76 0 0 1 .241.896C.401.618.62.399.898.239S1.474 0 1.793 0zm0 .345c-.399 0-.741.141-1.024.424s-.424.623-.424 1.023.142.741.424 1.023.624.424 1.024.424.74-.142 1.024-.424.424-.624.424-1.023A1.39 1.39 0 0 0 2.817.769 1.394 1.394 0 0 0 1.793.345zm.045.489c.243 0 .419.049.528.147s.163.229.163.393c0 .129-.042.24-.125.334s-.214.162-.392.204a.527.527 0 0 1 .162.089.924.924 0 0 1 .153.195l.31.555h-.564l-.369-.654c-.063-.071-.125-.107-.188-.107a.315.315 0 0 0-.059.007v.754H.98V.834h.858zm-.155.334h-.225v.479h.207c.138 0 .235-.022.291-.067a.21.21 0 0 0 .085-.173c0-.07-.027-.128-.081-.172s-.146-.067-.276-.067z"/></clipPath><clipPath id="e"><path d="M10.32 0c7.693 0 12.666 4.521 12.666 11.521 0 7.021-4.961 11.556-12.635 11.556H.584a.58.58 0 0 1-.583-.58V.584A.58.58 0 0 1 .584 0zm.031 6.089H6.994v10.902h3.326c3.657 0 5.569-2.753 5.569-5.47 0-3.402-2.072-5.432-5.538-5.432z"/></clipPath><clipPath id="f"><path d="M22.425 0c3.328 0 5.159 1.781 5.159 5.017v11.528c0 .318-.262.58-.582.58h-5.066a.58.58 0 0 1-.582-.58V7.369c0-1.188-.694-1.87-1.906-1.87-1.43 0-2.193.888-2.558 1.314v9.731c0 .318-.262.58-.584.58h-5.065a.583.583 0 0 1-.582-.58V7.369c0-1.204-.677-1.87-1.904-1.87-1.398 0-2.159.887-2.526 1.31v9.735c0 .318-.261.58-.582.58H.581a.58.58 0 0 1-.58-.58V.996a.58.58 0 0 1 .58-.581h5.066a.58.58 0 0 1 .582.581v1.319C6.953 1.385 9.027 0 11.767 0c2.475 0 4.096.99 4.811 2.941.975-1.464 3.16-2.94 5.848-2.94z"/></clipPath><clipPath id="g"><path d="M5.649 0c.321 0 .584.261.584.581V16.13c0 .318-.262.58-.584.58H.584A.583.583 0 0 1 0 16.13V.581C0 .261.261 0 .584 0z"/></clipPath><clipPath id="h"><path d="M3.498 0a3.5 3.5 0 0 1 3.495 3.493 3.5 3.5 0 0 1-3.495 3.496A3.5 3.5 0 0 1 0 3.493 3.501 3.501 0 0 1 3.498 0z"/></clipPath><clipPath id="o"><path d="M31.452 0 64.53 33.067 34.097 63.496c-.679.679-1.569 1.018-2.458 1.018s-1.78-.339-2.459-1.018L1.019 35.339a3.474 3.474 0 0 1 0-4.915L31.452.001zm12.123 24.939c-2.084 0-4.174.795-5.767 2.39s-2.39 3.68-2.39 5.766c0 2.079.797 4.169 2.391 5.76a8.153 8.153 0 0 0 11.533 0 8.09 8.09 0 0 0 2.396-5.76 8.096 8.096 0 0 0-2.396-5.766 8.113 8.113 0 0 0-5.767-2.39zm-23.939-.327a8.145 8.145 0 0 0-8.155 8.157 8.11 8.11 0 0 0 2.386 5.763 8.16 8.16 0 0 0 5.77 2.38c2.084 0 4.174-.795 5.77-2.38s2.383-3.681 2.383-5.766a8.14 8.14 0 0 0-8.153-8.154z"/></clipPath><clipPath id="j"><path d="M8.824 0a8.821 8.821 0 1 1 0 17.641A8.822 8.822 0 0 1 0 8.815C0 3.95 3.951 0 8.824 0zm0 5.686a3.005 3.005 0 0 0-3.009 3.005 3.01 3.01 0 1 0 6.02 0 3.01 3.01 0 0 0-3.011-3.005z"/></clipPath><clipPath id="k"><path d="M8.822 0c4.874 0 8.828 3.949 8.828 8.819a8.83 8.83 0 0 1-8.828 8.824C3.951 17.642 0 13.693 0 8.819S3.951 0 8.822 0zm0 5.687a3.007 3.007 0 0 0-3.009 3.004c0 1.664 1.346 3.015 3.009 3.015s3.011-1.351 3.011-3.015a3.006 3.006 0 0 0-3.011-3.004z"/></clipPath><clipPath id="l"><path d="M2.82.07c1.866-.386 3.759.871 4.148 2.61.006.012.008.029.012.043.403 1.576-.257 4.871-4.121 6.454-.201.083-.371-.016-.482-.209l-.388-.574s-.176-.316.118-.481c.439-.246.965-.779 1.061-1.375C1.664 6.445.366 5.433.064 3.977-.302 2.212.935.459 2.82.07z"/></clipPath><clipPath id="m"><path d="M7.841 0c3.574 0 5.633 1.083 7.038 1.922a.58.58 0 0 1 .207.785L13.375 5.68a.571.571 0 0 1-.369.28.57.57 0 0 1-.456-.082c-1.286-.848-2.434-1.423-4.45-1.423-1.013 0-1.822.276-1.806.9.042 1.66 9.718-.424 9.716 6.296-.001 3.642-2.976 5.858-8.136 5.858-2.66 0-5.722-.861-7.619-2.141a.582.582 0 0 1-.18-.771l1.977-3.292a.579.579 0 0 1 .81-.208c1.353.837 3.497 1.781 5.383 1.781 1.46 0 2.304-.36 2.338-.844.149-2.091-9.384.009-10.195-6.12C-.073 2.426 2.687 0 7.842 0z"/></clipPath><clipPath id="n"><path d="M30.448 1.018a3.48 3.48 0 0 1 4.917 0L63.526 29.17a3.474 3.474 0 0 1 0 4.915L33.077 64.523-.001 31.457zm2.543 22.367a8.15 8.15 0 0 0-5.769 2.392c-1.59 1.587-2.392 3.68-2.392 5.767s.802 4.175 2.392 5.765a8.151 8.151 0 0 0 5.769 2.386 8.15 8.15 0 0 0 5.769-2.386 8.153 8.153 0 0 0 2.391-5.765 8.14 8.14 0 0 0-2.391-5.766 8.13 8.13 0 0 0-5.769-2.393z"/></clipPath><clipPath id="p"><path d="M1.793 0a1.77 1.77 0 0 1 .898.24c.278.16.496.379.657.657a1.76 1.76 0 0 1 .241.896 1.76 1.76 0 0 1-.241.897 1.76 1.76 0 0 1-.657.656c-.277.16-.576.24-.898.24s-.618-.08-.896-.24A1.76 1.76 0 0 1 .24 2.69 1.763 1.763 0 0 1 0 1.793 1.76 1.76 0 0 1 .241.896C.401.619.62.4.898.24S1.474 0 1.793 0zm0 .346c-.399 0-.741.141-1.024.424s-.424.624-.424 1.023.142.741.424 1.023.624.424 1.024.424.74-.142 1.024-.424.424-.624.424-1.023S3.1 1.052 2.817.77 2.193.346 1.793.346zm.045.489c.243 0 .419.049.528.147s.163.229.163.393c0 .129-.042.24-.125.334s-.214.162-.392.204a.527.527 0 0 1 .162.089.924.924 0 0 1 .153.195l.31.555h-.564l-.369-.654c-.063-.071-.125-.107-.188-.107a.33.33 0 0 0-.059.007v.754H.98V.834h.857zm-.155.334h-.225v.479h.207c.138 0 .235-.022.291-.067a.21.21 0 0 0 .085-.173c0-.071-.027-.128-.081-.172s-.146-.067-.276-.067z"/></clipPath><filter id="b" x="-40.765%" y="-36.46%" width="161.48%" height="163.91%" filterUnits="userSpaceOnUse"><feDropShadow dx="-1" dy="12" flood-color="rgba(0, 0, 0, 0.616282)" stdDeviation="11.5"/></filter></defs><g clip-path="url(#a)" transform="translate(-61 -169)"><g filter="url(#b)" transform="translate(111 219)"><g clip-path="url(#c)" transform="translate(5.083 114.78)"><g clip-path="url(#d)" transform="translate(139.1 5.191)"><path fill="#fff" d="M0 0h3.588v3.585H0z"/></g><g clip-path="url(#e)" transform="translate(-.024)"><path fill="#fff" d="M.024 0h22.961v23.077H.024z"/></g></g><g clip-path="url(#f)" transform="translate(48.781 120.73)"><path fill="#fff" d="M0 0h27.583v17.125H0z"/></g><g clip-path="url(#g)" transform="translate(78.901 121.15)"><path fill="#fff" d="M0 0h6.232v16.71H0z"/></g><g clip-path="url(#h)" transform="translate(78.672 112.95)"><path fill="#fff" d="M0 0h6.994v6.989H0z"/></g><g clip-path="url(#i)" transform="translate(87.772 120.73)"><path fill="#fff" d="M0 0h17.547v17.125H0z"/></g><g clip-path="url(#j)" transform="translate(29.263 120.66)"><path fill="#fff" d="M0 0h17.648v17.641H0z"/></g><g clip-path="url(#k)" transform="translate(107.163 120.68)"><path fill="#fff" d="M0 0h17.65v17.642H0z"/></g><g clip-path="url(#l)" transform="translate(122.703 113.02)"><path fill="#fff" d="M0 0h7.083v9.207H0z"/></g><g clip-path="url(#m)" transform="translate(127.883 120.76)"><path fill="#fff" d="M0 0h16.012v17.508H0z"/></g><g clip-path="url(#n)" transform="translate(60.271 2.827)"><path fill="#fff" d="M0 0h64.545v64.522H0z"/></g><g clip-path="url(#o)" transform="translate(26.776 36.315)"><path fill="#fff" d="M0 0h64.53v64.514H0z"/></g><g clip-path="url(#p)" transform="translate(65.986 99.203)"><path fill="#fff" d="M0 0h3.588v3.585H0z"/></g></g></g></svg>