<svg xmlns="http://www.w3.org/2000/svg" viewBox="0 0 132 40">
  <defs>
    <linearGradient id="appstore-a" x1="49.998%" x2="49.998%" y1="100.266%" y2="-260.383%">
      <stop offset="0%" stop-color="#1A1A1A" stop-opacity=".1"/>
      <stop offset="12.3%" stop-color="#212121" stop-opacity=".151"/>
      <stop offset="30.8%" stop-color="#353535" stop-opacity=".227"/>
      <stop offset="53.2%" stop-color="#575757" stop-opacity=".318"/>
      <stop offset="78.3%" stop-color="#858585" stop-opacity=".421"/>
      <stop offset="100%" stop-color="#B3B3B3" stop-opacity=".51"/>
    </linearGradient>
  </defs>
  <g fill="none">
    <path fill="#FFF" d="M131.124415,35.2777014 C131.124415,36.2944536 130.729116,37.2695039 130.025586,37.9880809 C129.322057,38.7066579 128.368009,39.1098168 127.373587,39.108757 L4.6264128,39.108757 C2.5547284,39.110966 0.873392937,37.3959057 0.870693041,35.2777014 L0.870693041,4.72629973 C0.873391509,2.60728681 2.55393647,0.890794848 4.6264128,0.890244817 L127.372609,0.890244817 C128.36756,0.890244817 129.321746,1.29443133 130.025191,2.01385994 C130.728636,2.73328856 131.124415,3.7090067 131.124415,4.72629973 L131.124415,35.2777014 Z"/>
    <path fill="#A6A6A6" d="M127.373587,40 L4.6264128,40 C2.0745917,39.9994531 0.00485541761,37.88682 0,35.2777014 L0,4.72730001 C0.00377500789,2.11691334 2.07335421,0.00220326476 4.6264128,0 L127.372609,0 C129.925222,0.00330249303 131.994172,2.11736983 131.999023,4.72730001 L131.999023,35.2777014 C132.000978,37.8824177 129.922076,40 127.373587,40 L127.373587,40 Z"/>
    <path fill="#000" d="M131.124415,35.2777014 C131.124415,36.2944536 130.729116,37.2695039 130.025586,37.9880809 C129.322057,38.7066579 128.368009,39.1098168 127.373587,39.108757 L4.6264128,39.108757 C2.5547284,39.110966 0.873392937,37.3959057 0.870693041,35.2777014 L0.870693041,4.72629973 C0.873391509,2.60728681 2.55393647,0.890794848 4.6264128,0.890244817 L127.372609,0.890244817 C128.36756,0.890244817 129.321746,1.29443133 130.025191,2.01385994 C130.728636,2.73328856 131.124415,3.7090067 131.124415,4.72629973 L131.124415,35.2777014 Z"/>
    <path fill="#FFF" d="M29.4744269,19.7894421 C29.446056,16.5655555 32.0561785,14.9971242 32.175532,14.9241041 C30.6973104,12.7204981 28.4061159,12.4194153 27.6009694,12.3954087 C25.67664,12.1883518 23.8100306,13.5727325 22.8297672,13.5727325 C21.8299377,13.5727325 20.3204103,12.4154142 18.6934861,12.4494236 C16.5999096,12.4824327 14.6413394,13.7217735 13.5671585,15.6463027 C11.3503154,19.5703819 13.0036538,25.3369677 15.1275579,28.5088399 C16.189999,30.0632674 17.4314704,31.7967441 19.0564379,31.7357273 C20.6461865,31.6697092 21.2400187,30.7004426 23.1584783,30.7004426 C25.0593284,30.7004426 25.6169632,31.7357273 27.2742149,31.6967166 C28.980382,31.6697092 30.0545628,30.1362875 31.0798284,28.5688564 C32.3076034,26.7893671 32.80067,25.0348846 32.8202361,24.9448598 C32.7811039,24.930856 29.5076893,23.6525044 29.4744269,19.7894421 Z M26.3438452,10.3088349 C27.1988853,9.21553427 27.7839128,7.72812523 27.6215139,6.21871015 C26.3839558,6.27472555 24.8362744,7.09395084 23.9450369,8.16324489 C23.1565217,9.10550401 22.4521408,10.6499287 22.6341058,12.1023281 C24.0242798,12.2083573 25.4516294,11.3851309 26.3438452,10.3088349 L26.3438452,10.3088349 Z"/>
    <path fill="url(#appstore-a)" d="M127.373587,0 L61.6264795,0 L87.3784491,40 L127.373587,40 C129.925883,39.9977993 131.995148,37.8843058 132,35.2747005 L132,4.72730001 C131.995687,2.11714164 129.926423,0.00275310063 127.373587,0 L127.373587,0 Z"/>
    <path fill="#FFF" d="M10.9912768,13.5087149 L8.76954205,13.5087149 L7.5525284,9.59863963 L3.32232985,9.59863963 L2.16303631,13.5087149 L0,13.5087149 L4.19204459,0.19705419 L6.78064435,0.19705419 L10.9912768,13.5087149 L10.9912768,13.5087149 Z M7.18566336,7.9581885 L6.08506822,4.48223261 C5.96864971,4.12713496 5.74950899,3.290905 5.42862437,1.974543 L5.3894921,1.974543 C5.2603556,2.54069869 5.05393287,3.37692866 4.77120221,4.48223261 L3.6891949,7.9581885 L7.18566336,7.9581885 Z M21.7506948,8.59136262 C21.7506948,10.2238115 21.3173049,11.5141664 20.4495468,12.4614269 C19.6727712,13.3046588 18.7071824,13.7257746 17.5557153,13.7257746 C16.3122874,13.7257746 15.418115,13.27265 14.8751547,12.3644002 L14.8751547,17.4007852 L12.7894046,17.4007852 L12.7894046,7.06494286 C12.7894046,6.03966091 12.7629904,4.9883718 12.7121184,3.91007527 L14.5464436,3.91007527 L14.6628621,5.43149366 L14.7019944,5.43149366 C15.3975705,4.28517842 16.4531636,3.71202081 17.8697518,3.71202081 C18.9771951,3.71202081 19.901695,4.15914376 20.6412949,5.05438996 C21.3799165,5.9516367 21.7506948,7.12996074 21.7506948,8.59136262 Z M19.6258125,8.66938408 C19.6258125,7.73512716 19.4203681,6.96491535 19.0075226,6.35774838 C18.5565232,5.72657481 17.9509513,5.41048788 17.1917852,5.41048788 C16.6771958,5.41048788 16.2095652,5.5865363 15.7918282,5.93363175 C15.3731129,6.28372803 15.099187,6.74085373 14.9710288,7.30700943 C14.9138164,7.51873929 14.8813063,7.73664683 14.8741764,7.95618795 L14.8741764,9.55762835 C14.8741764,10.2548201 15.0835341,10.8439821 15.5022494,11.3261147 C15.9209647,11.8062467 16.4649032,12.047313 17.1340651,12.047313 C17.9196454,12.047313 18.5310872,11.7362275 18.9683903,11.1190577 C19.4066718,10.4998875 19.6258125,9.68366301 19.6258125,8.66938408 L19.6258125,8.66938408 Z M32.5482668,8.59136262 C32.5482668,10.2238115 32.1148769,11.5141664 31.2471188,12.4614269 C30.4693649,13.3046588 29.5047544,13.7257746 28.352309,13.7257746 C27.1088811,13.7257746 26.2147087,13.27265 25.6717484,12.3644002 L25.6717484,17.4007852 L23.5859984,17.4007852 L23.5859984,7.06494286 C23.5859984,6.03966091 23.5595841,4.9883718 23.5087121,3.91007527 L25.3430373,3.91007527 L25.4594559,5.43149366 L25.4985881,5.43149366 C26.1931859,4.28517842 27.248779,3.71202081 28.6663455,3.71202081 C29.7728105,3.71202081 30.6973104,4.15914376 31.4388669,5.05438996 C32.1765103,5.9516367 32.5482668,7.12996074 32.5482668,8.59136262 L32.5482668,8.59136262 Z M30.4224062,8.66938408 C30.4224062,7.73512716 30.2159835,6.96491535 29.803138,6.35774838 C29.3521386,5.72657481 28.7485233,5.41048788 27.9893572,5.41048788 C27.4747678,5.41048788 27.0071372,5.5865363 26.5874436,5.93363175 C26.1687283,6.28372803 25.8957807,6.74085373 25.7676225,7.30700943 C25.7040326,7.57108205 25.6697918,7.78614119 25.6697918,7.95618795 L25.6697918,9.55762835 C25.6697918,10.2548201 25.8801278,10.8439821 26.2968865,11.3261147 C26.7156018,11.8052464 27.2595403,12.047313 27.9306588,12.047313 C28.7172175,12.047313 29.3286592,11.7362275 29.764984,11.1190577 C30.2032655,10.4998875 30.4224062,9.68366301 30.4224062,8.66938408 L30.4224062,8.66938408 Z M44.6205726,9.77468804 C44.6205726,10.9079997 44.2331631,11.829253 43.4632357,12.5404486 C42.616022,13.3166621 41.4332491,13.7057691 39.9168736,13.7057691 C38.5159382,13.7057691 37.3928421,13.4296932 36.5456284,12.876541 L37.0279336,11.0990522 C37.9426505,11.6532046 38.9473715,11.9292806 40.0411185,11.9292806 C40.8276772,11.9292806 41.4391189,11.7472305 41.8754438,11.3861312 C42.3127469,11.0240316 42.5338442,10.5398985 42.5338442,9.93573233 C42.5338442,9.39458351 42.3509009,8.9414589 41.9918623,8.5723574 C41.6308671,8.20425617 41.0340999,7.86116182 40.195691,7.54607517 C37.9162362,6.67683613 36.7755305,5.40548651 36.7755305,3.73302658 C36.7755305,2.6407262 37.1785929,1.74648028 37.982761,1.047288 C38.7869292,0.349096001 39.8532836,0 41.1798676,0 C42.3645972,0 43.3517087,0.211058041 44.1353324,0.632173848 L43.6119383,2.37065193 C42.874295,1.9625397 42.0417559,1.75848358 41.1104079,1.75848358 C40.3747211,1.75848358 39.7975201,1.94353447 39.3846747,2.3116357 C39.0373758,2.6407262 38.8612805,3.04183651 38.8612805,3.51796744 C38.8612805,4.04311186 39.0618334,4.47923179 39.4609826,4.82132586 C39.8073032,5.13641251 40.4392894,5.47950686 41.3530279,5.84760809 C42.4741675,6.30973518 43.2979018,6.84788317 43.8252092,7.46605316 C44.3564298,8.08422316 44.6205726,8.85543524 44.6205726,9.77468804 Z M51.5342667,5.51051539 L49.2352457,5.51051539 L49.2352457,10.170797 C49.2352457,11.3561229 49.6402647,11.9472855 50.4522594,11.9472855 C50.8249943,11.9472855 51.1341392,11.9152767 51.3787159,11.8482583 L51.436436,13.4677036 C51.0255471,13.6247468 50.4845435,13.7037685 49.8144033,13.7037685 C48.990669,13.7037685 48.3469432,13.4466978 47.8822474,12.9325565 C47.4195083,12.4184151 47.1866713,11.5571782 47.1866713,10.3448448 L47.1866713,5.50651429 L45.8170418,5.50651429 L45.8170418,3.90607417 L47.1866713,3.90607417 L47.1866713,2.14859086 L49.2352457,1.51641701 L49.2352457,3.90607417 L51.5342667,3.90607417 L51.5342667,5.51051539 L51.5342667,5.51051539 Z M61.8867091,8.63037335 C61.8867091,10.1057791 61.4738636,11.3171122 60.6501293,12.2643727 C59.788241,13.2396409 58.6416655,13.7257746 57.2123593,13.7257746 C55.8329467,13.7257746 54.7362648,13.2586461 53.9184003,12.3253895 C53.1005358,11.3901323 52.6916036,10.2118082 52.6916036,8.79041736 C52.6916036,7.30300833 53.1142321,6.08467329 53.9565543,5.13741279 C54.800833,4.18915202 55.9376255,3.71502163 57.3669317,3.71502163 C58.7443877,3.71502163 59.8508527,4.18315037 60.6882833,5.11740729 C61.4885382,6.02365651 61.8867091,7.19397834 61.8867091,8.63037335 Z M59.7246511,8.67938683 C59.7246511,7.80014504 59.5387728,7.04593763 59.1660379,6.41476406 C58.7287348,5.65255445 58.1026185,5.27144965 57.2916021,5.27144965 C56.4561281,5.27144965 55.8153372,5.65255445 55.3790124,6.41476406 C55.0052992,7.04593763 54.8194209,7.81314862 54.8194209,8.71939783 C54.8194209,9.5996399 55.0052992,10.3558479 55.3790124,10.9850209 C55.8300118,11.7472305 56.459063,12.1283353 57.2739926,12.1283353 C58.0713126,12.1283353 58.6964507,11.7392283 59.1484284,10.9660157 C59.5319247,10.319838 59.7246511,9.56062917 59.7246511,8.67938683 Z M68.6693101,5.78559104 C68.4523769,5.74554708 68.2323268,5.72579336 68.0118879,5.72657481 C67.2781578,5.72657481 66.7107399,6.00865238 66.3115907,6.57680862 C65.9652701,7.07694616 65.7911315,7.70912001 65.7911315,8.47232989 L65.7911315,13.5087149 L63.7053814,13.5087149 L63.7053814,6.93290655 C63.7072415,5.92529276 63.6870181,4.91776286 63.6447264,3.91107555 L65.4614421,3.91107555 L65.53775,5.74758058 L65.5954701,5.74758058 C65.8165675,5.11640701 66.1628881,4.607267 66.6383452,4.22616219 C67.0735483,3.89314833 67.6023337,3.71281156 68.1459159,3.71202081 C68.3386424,3.71202081 68.512781,3.72602466 68.6673535,3.75103153 L68.6693101,5.78559104 L68.6693101,5.78559104 Z M77.9974653,8.2552702 C78.0027543,8.57945899 77.977198,8.90340545 77.9211574,9.2225362 L71.6639071,9.2225362 C71.6873865,10.170797 71.9906616,10.8969967 72.5717758,11.3971342 C73.0990832,11.8432569 73.780963,12.0673185 74.6183936,12.0673185 C75.5448502,12.0673185 76.3901072,11.9172773 77.1502516,11.6141939 L77.4770061,13.0936007 C76.5887035,13.4897097 75.5399586,13.6867639 74.3297931,13.6867639 C72.8740726,13.6867639 71.7314103,13.2486434 70.8998495,12.374403 C70.0702454,11.4991623 69.654465,10.3228388 69.654465,8.84943359 C69.654465,7.40303583 70.0408962,6.19770437 70.8147369,5.23644002 C71.6247749,4.21015779 72.7195002,3.69701668 74.0969561,3.69701668 C75.4499544,3.69701668 76.4742416,4.21015779 77.1698178,5.23644002 C77.7206045,6.04966366 77.9974653,7.05794093 77.9974653,8.2552702 L77.9974653,8.2552702 Z M76.0085676,7.70211808 C76.0232422,7.06894396 75.8862792,6.52379404 75.6035486,6.06266723 C75.2425534,5.46850384 74.6868751,5.17242242 73.9423837,5.17242242 C73.2605038,5.17242242 72.7048256,5.46150191 72.282197,6.04166146 C71.9348981,6.50278827 71.7284754,7.05694066 71.6648855,7.70011753 L76.0085676,7.70211808 Z" transform="translate(41.51 18.004)"/>
    <path fill="#FFF" d="M1.49974431,6.93990847 C0.919608381,6.93990847 0.417736999,6.9109005 0,6.86188702 L0,0.426117182 C0.58425322,0.333836933 1.174663,0.28835283 1.76584375,0.290032392 C4.15780385,0.290032392 5.25937729,1.49341069 5.25937729,3.45495011 C5.25937729,5.71757233 3.95822926,6.93990847 1.49974431,6.93990847 Z M1.84997814,1.11530671 C1.5271369,1.11530671 1.25223269,1.13531221 1.02428721,1.18332541 L1.02428721,6.07567081 C1.14755386,6.09567631 1.38430411,6.10467879 1.71692841,6.10467879 C3.28417589,6.10467879 4.17639168,5.19242792 4.17639168,3.48395809 C4.17639168,1.96053915 3.36928858,1.11530671 1.84997814,1.11530671 L1.84997814,1.11530671 Z M8.69225581,6.98892195 C7.34414906,6.98892195 6.4705211,5.9596389 6.4705211,4.56225462 C6.4705211,3.10585411 7.36273689,2.06756858 8.76856374,2.06756858 C10.0971044,2.06756858 10.9902985,3.04783816 10.9902985,4.48523344 C10.9902985,5.9596389 10.0697118,6.98892195 8.69225581,6.98892195 Z M8.73138808,2.83377929 C7.99080985,2.83377929 7.51633105,3.54197404 7.51633105,4.53224637 C7.51633105,5.50351347 8.00059291,6.21170822 8.72160502,6.21170822 C9.44261712,6.21170822 9.92687898,5.45449999 9.92687898,4.51224087 C9.92687898,3.55197679 9.45240019,2.83377929 8.73138808,2.83377929 Z M18.6778332,2.16459526 L17.2348307,6.88189252 L16.2946779,6.88189252 L15.6969324,4.83332917 C15.5483069,4.33223681 15.4245562,3.82378139 15.3261541,3.30991023 L15.306588,3.30991023 C15.2312584,3.82405161 15.0884256,4.33919328 14.936788,4.83332917 L14.3008886,6.88189252 L13.3509527,6.88189252 L11.9930629,2.16459526 L13.0466993,2.16459526 L13.5691152,4.40721198 C13.6923818,4.94135887 13.7960823,5.44549751 13.8821733,5.92162845 L13.9017395,5.92162845 C13.9770691,5.52451924 14.1003357,5.02838281 14.2813225,4.41721473 L14.936788,2.16559554 L15.772262,2.16559554 L16.3993567,4.36920153 C16.5509942,4.90334842 16.6742609,5.42749256 16.770135,5.92262872 L16.7975276,5.92262872 C16.8640524,5.43749531 16.9687312,4.92235365 17.1105857,4.36920153 L17.6711555,2.16559554 L18.6778332,2.16459526 L18.6778332,2.16459526 Z M23.9900391,6.88189252 L22.9647735,6.88189252 L22.9647735,4.17314762 C22.9647735,3.3389182 22.6517154,2.92080322 22.0344038,2.92080322 C21.4268753,2.92080322 21.0091383,3.45495011 21.0091383,4.07612093 L21.0091383,6.88189252 L19.9838728,6.88189252 L19.9838728,3.51296607 C19.9838728,3.09585136 19.9740897,2.6487284 19.9457188,2.16359499 L20.8477177,2.16359499 L20.8956547,2.89179524 L20.9240256,2.89179524 C21.1999081,2.38765661 21.7594996,2.06756858 22.3865942,2.06756858 C23.355118,2.06756858 23.9910174,2.82477681 23.9910174,4.05711571 L23.9900391,6.88189252 L23.9900391,6.88189252 Z M26.8173457,6.88189252 L25.7911019,6.88189252 L25.7911019,0 L26.8173457,0 L26.8173457,6.88189252 Z M30.5554559,6.98892195 C29.2083275,6.98892195 28.3337212,5.9596389 28.3337212,4.56225462 C28.3337212,3.10585411 29.225937,2.06756858 30.6307855,2.06756858 C31.9603045,2.06756858 32.852521,3.04783816 32.852521,4.48523344 C32.8534986,5.9596389 31.9319336,6.98892195 30.5554559,6.98892195 Z M30.5936099,2.83377929 C29.8530316,2.83377929 29.3785528,3.54197404 29.3785528,4.53224637 C29.3785528,5.50351347 29.863793,6.21170822 30.5828485,6.21170822 C31.3048389,6.21170822 31.788124,5.45449999 31.788124,4.51224087 C31.7891008,3.55197679 31.3156003,2.83377929 30.5936099,2.83377929 L30.5936099,2.83377929 Z M36.8948839,6.88189252 L36.8205326,6.33874315 L36.79314,6.33874315 C36.4800818,6.77586336 36.0232126,6.98892195 35.4440549,6.98892195 C34.6173857,6.98892195 34.0304016,6.39675911 34.0304016,5.60054015 C34.0304016,4.43621996 35.0175132,3.83405436 36.7266151,3.83405436 L36.7266151,3.74703043 C36.7266151,3.12585961 36.4047522,2.81477406 35.7688528,2.81477406 C35.3139401,2.81477406 34.914791,2.93180625 34.5635788,3.16487034 L34.3551995,2.47568081 C34.7817412,2.20360599 35.3139401,2.06756858 35.9390782,2.06756858 C37.1443521,2.06756858 37.752859,2.71774738 37.752859,4.01910525 L37.752859,5.75658306 C37.752859,6.232714 37.7734034,6.6018155 37.8193838,6.8828928 L36.8948839,6.88189252 L36.8948839,6.88189252 Z M36.7540077,4.53224637 C35.6152586,4.53224637 35.0439275,4.81432394 35.0439275,5.48350796 C35.0439275,5.97864413 35.3383978,6.2207107 35.74733,6.2207107 C36.2687676,6.2207107 36.7540077,5.81359874 36.7540077,5.26044662 L36.7540077,4.53224637 L36.7540077,4.53224637 Z M42.7314622,6.88189252 L42.6835252,6.12468429 L42.6551543,6.12468429 C42.3606839,6.69684163 41.8656607,6.98892195 41.1739978,6.98892195 C40.061663,6.98892195 39.2379287,5.98864688 39.2379287,4.58125985 C39.2379287,3.10585411 40.0919905,2.06656831 41.2581322,2.06656831 C41.8754438,2.06656831 42.3127469,2.2796269 42.5592802,2.70774463 L42.5798246,2.70774463 L42.5798246,0 L43.6060685,0 L43.6060685,5.6105429 C43.6060685,6.06666833 43.6168298,6.49378579 43.6442224,6.88189252 L42.7314622,6.88189252 Z M42.5798246,4.10612919 C42.5798246,3.44594764 42.1523046,2.88279277 41.499774,2.88279277 C40.7396296,2.88279277 40.2749339,3.5719823 40.2749339,4.54224912 C40.2749339,5.49351072 40.7572391,6.14468979 41.4792295,6.14468979 C42.1239337,6.14468979 42.5798246,5.57153217 42.5798246,4.89234539 L42.5798246,4.10612919 Z M50.1127869,6.98892195 C48.7656585,6.98892195 47.8920305,5.9596389 47.8920305,4.56225462 C47.8920305,3.10585411 48.7842463,2.06756858 50.1890948,2.06756858 C51.5186138,2.06756858 52.4108303,3.04783816 52.4108303,4.48523344 C52.4118079,5.9596389 51.4912212,6.98892195 50.1127869,6.98892195 Z M50.1509409,2.83377929 C49.4113409,2.83377929 48.9368622,3.54197404 48.9368622,4.53224637 C48.9368622,5.50351347 49.421124,6.21170822 50.1411578,6.21170822 C50.8631482,6.21170822 51.3464378,5.45449999 51.3464378,4.51224087 C51.3483884,3.55197679 50.8739096,2.83377929 50.1509409,2.83377929 Z M57.9245666,6.88189252 L56.8983228,6.88189252 L56.8983228,4.17314762 C56.8983228,3.3389182 56.5852646,2.92080322 55.967953,2.92080322 C55.3604245,2.92080322 54.9436658,3.45495011 54.9436658,4.07612093 L54.9436658,6.88189252 L53.917422,6.88189252 L53.917422,3.51296607 C53.917422,3.09585136 53.9076389,2.6487284 53.879268,2.16359499 L54.7812669,2.16359499 L54.8292039,2.89179524 L54.8575748,2.89179524 C55.132479,2.38765661 55.6930488,2.06656831 56.3191652,2.06656831 C57.2876889,2.06656831 57.9245666,2.82377654 57.9245666,4.05611543 L57.9245666,6.88189252 Z M64.8226078,2.95081147 L63.6946201,2.95081147 L63.6946201,5.2414414 C63.6946201,5.82460177 63.892238,6.11568181 64.2913872,6.11568181 C64.472374,6.11568181 64.6240115,6.09567631 64.7462999,6.06666833 L64.7746707,6.86288729 C64.5760745,6.94090875 64.309975,6.97991948 63.9793073,6.97991948 C63.1712259,6.97991948 62.6879424,6.52379404 62.6879424,5.3294656 L62.6879424,2.95081147 L62.0148673,2.95081147 L62.0148673,2.16459526 L62.6879424,2.16459526 L62.6879424,1.3003576 L63.6946201,0.98927205 L63.6946201,2.16359499 L64.8226078,2.16359499 L64.8226078,2.95081147 L64.8226078,2.95081147 Z M70.2502538,6.88189252 L69.2259666,6.88189252 L69.2259666,4.19315312 C69.2259666,3.34892095 68.9138868,2.9218035 68.2955969,2.9218035 C67.7643763,2.9218035 67.2693531,3.290905 67.2693531,4.03811048 L67.2693531,6.88189252 L66.2450659,6.88189252 L66.2450659,0 L67.2693531,0 L67.2693531,2.83377929 L67.2898975,2.83377929 C67.6127387,2.3196379 68.0803694,2.06656831 68.6771365,2.06656831 C69.6534867,2.06656831 70.2502538,2.84278176 70.2502538,4.07612093 L70.2502538,6.88189252 L70.2502538,6.88189252 Z M75.8109496,4.77531321 L72.7341748,4.77531321 C72.7537409,5.66855885 73.3319202,6.17269749 74.1879387,6.17269749 C74.6428513,6.17269749 75.0615666,6.09467604 75.4313666,5.94963615 L75.5908306,6.67783641 C75.1545058,6.87188977 74.6408947,6.96891645 74.0431493,6.96891645 C72.6001467,6.96891645 71.7460849,6.03666008 71.7460849,4.5912626 C71.7460849,3.14486484 72.6206912,2.05756583 73.9277091,2.05756583 C75.1065687,2.05756583 75.8461687,2.95081147 75.8461687,4.30018255 C75.8527983,4.45942537 75.8409765,4.61891095 75.8109496,4.77531321 L75.8109496,4.77531321 Z M74.8707968,4.02810773 C74.8707968,3.29990747 74.5117582,2.78576609 73.8562927,2.78576609 C73.267352,2.78576609 72.8016779,3.30991023 72.7351531,4.02810773 L74.8707968,4.02810773 L74.8707968,4.02810773 Z" transform="translate(42.73 6.555)"/>
  </g>
</svg>
