<svg xmlns="http://www.w3.org/2000/svg" xmlns:xlink="http://www.w3.org/1999/xlink" viewBox="0 0 136 40">
  <defs>
    <polygon id="googleplay-a" points="0 0 135.143 0 135.143 40 0 40"/>
  </defs>
  <g fill="none" fill-rule="evenodd">
    <mask id="googleplay-b" fill="#fff">
      <use xlink:href="#googleplay-a"/>
    </mask>
    <path fill="#0A0B09" d="M130.135203,40.0600901 L4.94742113,40.0600901 C2.19328993,40.0600901 -0.0600901352,37.8067101 -0.0600901352,35.0525789 L-0.0600901352,5.00751127 C-0.0600901352,2.25338007 2.19328993,0 4.94742113,0 L130.135203,0 C132.889334,0 135.142714,2.25338007 135.142714,5.00751127 L135.142714,35.0525789 C135.142714,37.8067101 132.889334,40.0600901 130.135203,40.0600901" mask="url(#googleplay-b)"/>
    <path fill="#9D9E9A" d="M130.135203,0 L4.94742113,0 C2.19328993,0 -0.0600901352,2.25338007 -0.0600901352,5.00751127 L-0.0600901352,35.0525789 C-0.0600901352,37.8067101 2.19328993,40.0600901 4.94742113,40.0600901 L130.135203,40.0600901 C132.889334,40.0600901 135.142714,37.8067101 135.142714,35.0525789 L135.142714,5.00751127 C135.142714,2.25338007 132.889334,0 130.135203,0 Z M130.135203,0.801201803 C132.454682,0.801201803 134.341512,2.68803205 134.341512,5.00751127 L134.341512,35.0525789 C134.341512,37.3720581 132.454682,39.2588883 130.135203,39.2588883 L4.94742113,39.2588883 C2.62794191,39.2588883 0.741111668,37.3720581 0.741111668,35.0525789 L0.741111668,5.00751127 C0.741111668,2.68803205 2.62794191,0.801201803 4.94742113,0.801201803 L130.135203,0.801201803 L130.135203,0.801201803 Z" mask="url(#googleplay-b)"/>
    <text fill="#FFFFFE" font-family="LucidaGrande, Lucida Grande" font-size="8.38" letter-spacing=".02">
      <tspan x="41.074" y="11.143">GET IT</tspan> <tspan x="67.456" y="11.143" letter-spacing="-.147"> </tspan> <tspan x="69.96" y="11.143">ON</tspan>
    </text>
    <g font-family="LucidaGrande, Lucida Grande" font-size="8.38" transform="translate(41.043 3.135)">
      <text fill="#000" fill-opacity="0">
        <tspan x=".005" y="8.008">G</tspan>
      </text>
      <text fill="#000" fill-opacity="0">
        <tspan x="6.894" y="8.008">E</tspan>
      </text>
      <text fill="#000" fill-opacity="0">
        <tspan x="11.611" y="8.008">T</tspan>
      </text>
      <text fill="#000" fill-opacity="0">
        <tspan x="18.323" y="8.008">I</tspan>
      </text>
      <text fill="#000" fill-opacity="0">
        <tspan x="20.474" y="8.008">T</tspan>
      </text>
      <text fill="#000" fill-opacity="0">
        <tspan x="27.021" y="8.008">O</tspan>
      </text>
      <text fill="#000" fill-opacity="0">
        <tspan x="33.988" y="8.008">N</tspan>
      </text>
    </g>
    <path fill="#FFFFFE" d="M107.036555,30.0450676 L108.905358,30.0450676 L108.905358,17.5242864 L107.036555,17.5242864 L107.036555,30.0450676 Z M123.868803,22.0350526 L121.72659,27.4631948 L121.662494,27.4631948 L119.439159,22.0350526 L117.426139,22.0350526 L120.761142,29.6214321 L118.859289,33.8417626 L120.808212,33.8417626 L125.94692,22.0350526 L123.868803,22.0350526 Z M113.269905,28.6229344 C112.658988,28.6229344 111.804707,28.3164747 111.804707,27.5603405 C111.804707,26.5938908 112.868302,26.223335 113.785679,26.223335 C114.60691,26.223335 114.994492,26.3995994 115.49324,26.6419629 C115.348022,27.8017026 114.349524,28.6229344 113.269905,28.6229344 Z M113.496244,21.7616425 C112.143215,21.7616425 110.742113,22.3575363 110.162243,23.6785178 L111.820731,24.3705558 C112.175263,23.6785178 112.835253,23.4521783 113.528292,23.4521783 C114.494742,23.4521783 115.477216,24.0320481 115.49324,25.0635954 L115.49324,25.1917877 C115.154732,24.9984977 114.429644,24.7090636 113.544316,24.7090636 C111.755633,24.7090636 109.935904,25.6915373 109.935904,27.5272909 C109.935904,29.2028042 111.402103,30.2824236 113.044567,30.2824236 C114.300451,30.2824236 114.994492,29.7185779 115.428142,29.0575864 L115.49324,29.0575864 L115.49324,30.0250376 L117.297947,30.0250376 L117.297947,25.2248373 C117.297947,23.0015023 115.637456,21.7616425 113.496244,21.7616425 Z M101.94692,23.559339 L99.2889334,23.559339 L99.2889334,19.2679019 L101.94692,19.2679019 C103.344016,19.2679019 104.137206,20.424637 104.137206,21.4131197 C104.137206,22.3835754 103.344016,23.559339 101.94692,23.559339 Z M101.898848,17.5252879 L97.4211317,17.5252879 L97.4211317,30.0450676 L99.2889334,30.0450676 L99.2889334,25.3019529 L101.898848,25.3019529 C103.969955,25.3019529 106.006009,23.8027041 106.006009,21.4131197 C106.006009,19.0245368 103.969955,17.5252879 101.898848,17.5252879 Z M77.4812218,28.6259389 C76.1902854,28.6259389 75.1096645,27.5443165 75.1096645,26.0600901 C75.1096645,24.5588383 76.1902854,23.4621933 77.4812218,23.4621933 C78.7551327,23.4621933 79.7556335,24.5588383 79.7556335,26.0600901 C79.7556335,27.5443165 78.7551327,28.6259389 77.4812218,28.6259389 Z M79.6264397,22.7361042 L79.5623435,22.7361042 C79.1427141,22.2363545 78.3355033,21.7836755 77.31998,21.7836755 C75.1897847,21.7836755 73.2368553,23.6564847 73.2368553,26.0600901 C73.2368553,28.4476715 75.1897847,30.3034552 77.31998,30.3034552 C78.3355033,30.3034552 79.1427141,29.8517777 79.5623435,29.336004 L79.6264397,29.336004 L79.6264397,29.9479219 C79.6264397,31.5783676 78.7551327,32.448673 77.352028,32.448673 C76.2063095,32.448673 75.4962444,31.6264397 75.2058087,30.9323986 L73.5763645,31.6104156 C74.0440661,32.7391087 75.2859289,34.1271908 77.352028,34.1271908 C79.5463195,34.1271908 81.4021032,32.8362544 81.4021032,29.6905358 L81.4021032,22.0420631 L79.6264397,22.0420631 L79.6264397,22.7361042 Z M82.6930396,30.0450676 L84.5638458,30.0450676 L84.5638458,17.5242864 L82.6930396,17.5242864 L82.6930396,30.0450676 Z M87.3229845,25.9148723 C87.2749124,24.2684026 88.5978968,23.4301452 89.549324,23.4301452 C90.2924387,23.4301452 90.9213821,23.8017026 91.1316975,24.3335003 L87.3229845,25.9148723 Z M93.1316975,24.4947421 C92.7761642,23.543315 91.6955433,21.7836755 89.4852278,21.7836755 C87.2909364,21.7836755 85.4672008,23.5112669 85.4672008,26.0440661 C85.4672008,28.4316475 87.2749124,30.3034552 89.6945418,30.3034552 C91.6464697,30.3034552 92.7761642,29.1096645 93.2448673,28.4156234 L91.792689,27.4471708 C91.3079619,28.1572359 90.6469705,28.6259389 89.6945418,28.6259389 C88.7431147,28.6259389 88.0650976,28.1892839 87.6304457,27.334001 L93.3249875,24.9784677 L93.1316975,24.4947421 Z M47.7556335,23.0916375 L47.7556335,24.8983475 L52.0801202,24.8983475 C51.9499249,25.9148723 51.6114171,26.6569855 51.094642,27.1727591 C50.4656985,27.8027041 49.4812218,28.4967451 47.7556335,28.4967451 C45.092639,28.4967451 43.0115173,26.3505258 43.0115173,23.6885328 C43.0115173,21.0265398 45.092639,18.8803205 47.7556335,18.8803205 C49.1917877,18.8803205 50.239359,19.4451678 51.0145218,20.1712569 L52.2894342,18.8963445 C51.2078117,17.8637957 49.772659,17.0726089 47.7556335,17.0726089 C44.1081622,17.0726089 41.0425638,20.0420631 41.0425638,23.6885328 C41.0425638,27.334001 44.1081622,30.3034552 47.7556335,30.3034552 C49.7235854,30.3034552 51.2078117,29.6574862 52.3695543,28.4476715 C53.563345,27.2538808 53.9349024,25.5763645 53.9349024,24.2203305 C53.9349024,23.8017026 53.9028543,23.4141212 53.8377566,23.0916375 L47.7556335,23.0916375 Z M58.8512769,28.6259389 C57.5603405,28.6259389 56.44667,27.5603405 56.44667,26.0440661 C56.44667,24.5107661 57.5603405,23.4621933 58.8512769,23.4621933 C60.1412118,23.4621933 61.2548823,24.5107661 61.2548823,26.0440661 C61.2548823,27.5603405 60.1412118,28.6259389 58.8512769,28.6259389 Z M58.8512769,21.7836755 C56.4947421,21.7836755 54.5748623,23.575363 54.5748623,26.0440661 C54.5748623,28.4967451 56.4947421,30.3034552 58.8512769,30.3034552 C61.2068102,30.3034552 63.12669,28.4967451 63.12669,26.0440661 C63.12669,23.575363 61.2068102,21.7836755 58.8512769,21.7836755 Z M68.1782674,28.6259389 C66.887331,28.6259389 65.7736605,27.5603405 65.7736605,26.0440661 C65.7736605,24.5107661 66.887331,23.4621933 68.1782674,23.4621933 C69.4692038,23.4621933 70.5818728,24.5107661 70.5818728,26.0440661 C70.5818728,27.5603405 69.4692038,28.6259389 68.1782674,28.6259389 Z M68.1782674,21.7836755 C65.8227341,21.7836755 63.9028543,23.575363 63.9028543,26.0440661 C63.9028543,28.4967451 65.8227341,30.3034552 68.1782674,30.3034552 C70.5338007,30.3034552 72.4536805,28.4967451 72.4536805,26.0440661 C72.4536805,23.575363 70.5338007,21.7836755 68.1782674,21.7836755 L68.1782674,21.7836755 Z"/>
    <path fill="#D84037" d="M20.688032,19.4531798 L10.0260391,30.7701552 C10.0260391,30.7731597 10.0270406,30.7751627 10.0270406,30.7771657 C10.3545318,32.006009 11.4762143,32.9103655 12.8082123,32.9103655 C13.3410115,32.9103655 13.8407611,32.7671507 14.2694041,32.5137707 L14.3044567,32.4937406 L26.3064597,25.5683525 L20.688032,19.4531798"/>
    <path fill="#F1B628" d="M31.4752128,17.5262894 L31.4651978,17.5192789 L26.2834251,14.5157737 L20.4456685,19.7105658 L26.3044567,25.567351 L31.4581873,22.5938908 C32.3625438,22.1051577 32.9754632,21.1527291 32.9754632,20.0540811 C32.9754632,18.9634452 32.3705558,18.016024 31.4752128,17.5262894"/>
    <path fill="#5373AA" d="M10.0250376,9.2909364 C9.96094141,9.52729094 9.92789184,9.7756635 9.92789184,10.0320481 L9.92789184,30.0300451 C9.92789184,30.2864296 9.96094141,30.5348022 10.0260391,30.7701552 L21.0545819,19.7426139 L10.0250376,9.2909364"/>
    <path fill="#319F4F" d="M20.7671507,20.0310466 L26.2854281,14.5137707 L14.2974462,7.56334502 C13.8617927,7.30195293 13.3530295,7.15172759 12.8082123,7.15172759 C11.4762143,7.15172759 10.3525288,8.05808713 10.0260391,9.2879319 C10.0250376,9.2889334 10.0250376,9.2899349 10.0250376,9.2909364 L20.7671507,20.0310466"/>
  </g>
</svg>
