<?xml version="1.0" encoding="UTF-8"?>
<svg width="21px" height="21px" viewBox="0 0 21 21" version="1.1" xmlns="http://www.w3.org/2000/svg" xmlns:xlink="http://www.w3.org/1999/xlink">
    <title>icons/menu/cart</title>
    <g id="Page-1" stroke="none" stroke-width="1" fill="none" fill-rule="evenodd">
        <g id="white-version" transform="translate(-326.000000, -207.000000)">
            <g id="Group-27" transform="translate(146.000000, 164.000000)">
                <g id="Group-16" transform="translate(0.058696, 40.000000)">
                    <g id="icons/menu/cart" transform="translate(180.000000, 3.000000)">
                        <g id="Group-9" transform="translate(1.000000, 1.952381)">
                            <g id="Group-6">
                                <path d="M16.7418809,2.99428658 C17.2140753,2.99136201 17.5992353,3.37178037 17.6021599,3.84397478 C17.6029035,3.96404181 17.57835,4.08291926 17.5300981,4.19286652 L15.3720966,9.11010881 C15.2389626,9.413469 14.9425651,9.61261667 14.6113885,9.62122386 L5.42013495,9.86010192 C4.9917802,9.87123474 4.62134092,9.5635659 4.55365529,9.14044607 L4.45010456,8.49765118 L10.9923408,8.32870685 C11.2867201,8.32105602 11.5536195,8.16285468 11.7028004,7.91473372 L11.7530489,7.8175918 L13.8611046,3.01265118 L16.7418809,2.99428658 Z" id="Combined-Shape" fill="#F5002E"></path>
                                <path d="M17.3850093,3.33532922 L17.8307068,3.35869487 C18.3022879,3.38293166 18.6649321,3.78487143 18.6406953,4.25645248 C18.6365959,4.33621464 18.6213409,4.41500902 18.5953751,4.49053773 L16.5667811,10.3912701 C16.3306682,11.0780704 15.686489,11.5408068 14.9602496,11.5452978 L6.40077631,11.598229 C5.96901549,11.6008989 5.60301946,11.2812428 5.54756928,10.8530492 L5.42100932,9.87732922 L14.9128496,9.87553644 C15.2581578,9.87543258 15.5653487,9.66831676 15.6984498,9.35747028 L15.7361825,9.25015459 L17.3850093,3.33532922 Z" id="Combined-Shape-Copy-3" fill="#D1D1D1"></path>
                                <path d="M14.702381,13.0687831 C14.0754349,13.0687831 13.626294,13.0687831 13.3549583,13.0687831 M11.480492,13.0687831 C10.318779,13.0687831 8.57620941,13.0687831 6.25278333,13.0687831 C5.80815238,13.0687831 5.38042143,12.7208437 5.29954286,12.2993244 L3.91758095,1.53578621 C3.7538119,0.687659626 2.89714286,0 2.01190476,0 L0,0" id="Shape" stroke="#31383E" stroke-width="1.06875" stroke-linecap="round" stroke-linejoin="round"></path>
                                <path d="M5.88095238,17.7362056 C6.69289137,17.7362056 7.35119048,17.1092541 7.35119048,16.3359788 C7.35119048,15.5627036 6.69289137,14.9357521 5.88095238,14.9357521 C5.06901339,14.9357521 4.41071429,15.5627036 4.41071429,16.3359788 C4.41071429,17.1092541 5.06901339,17.7362056 5.88095238,17.7362056 Z" id="Cart-path" stroke="#31383E" stroke-width="0.855" fill="#017AFF"></path>
                                <path d="M16.172619,16.3359788 C16.172619,15.5627036 15.5143199,14.9357521 14.702381,14.9357521 C13.890442,14.9357521 13.2321429,15.5627036 13.2321429,16.3359788 C13.2321429,17.1092541 13.890442,17.7362056 14.702381,17.7362056 C15.5143199,17.7362056 16.172619,17.1092541 16.172619,16.3359788 Z" id="Cart-path" stroke="#31383E" stroke-width="0.855" fill="#017AFF"></path>
                            </g>
                            <path d="M8.55664571,2.8410398 C11.1221348,2.8410398 13.4929542,2.8410398 16.5185138,2.8410398 C16.9751967,2.8410398 17.2453939,3.16755022 17.1235565,3.56553182 L15.7178682,8.68046634 C15.4721215,9.48244817 14.5280891,10.1328359 13.6143088,10.1328359 L5.51339286,10.2277433" id="Path" stroke="#31383E" stroke-width="1.06875" stroke-linecap="round" stroke-linejoin="round"></path>
                        </g>
                    </g>
                </g>
            </g>
        </g>
    </g>
</svg>