<?xml version="1.0" encoding="UTF-8"?>
<svg width="21px" height="21px" viewBox="0 0 21 21" version="1.1" xmlns="http://www.w3.org/2000/svg" xmlns:xlink="http://www.w3.org/1999/xlink">
    <title>icons/menu/ copy 13</title>
    <g id="Page-1" stroke="none" stroke-width="1" fill="none" fill-rule="evenodd">
        <g id="תפריט-לאתר-מותאם" transform="translate(-323.000000, -699.000000)" fill="#31383E" stroke="#FFFFFF" stroke-width="0.5">
            <g id="icons/menu/-copy-13" transform="translate(323.500000, 699.500000)">
                <path d="M16.9430945,3.52216686 C17.985701,3.54235131 18.9369236,4.46579015 18.9895386,5.5759352 C18.9909232,5.60260751 18.9916155,5.62927983 18.9923078,5.65595214 C19.0096153,8.54665451 18.9923078,11.4373569 18.9923078,14.3280592 C18.986077,15.4180198 18.1082384,16.4279635 17.01994,16.4841916 C16.9943248,16.4856334 16.9687097,16.4863542 16.9430945,16.4863542 C12.3219802,16.5166309 7.70155811,16.4870751 3.08044376,16.4870751 C2.03160657,16.4798664 1.06446099,15.5665198 1.01046145,14.4333068 C1.00907685,14.4066344 1.00838454,14.3799621 1.00769224,14.3525689 C0.990384698,11.4618666 1.00769224,8.57116421 1.00769224,5.68046184 C1.01392296,4.59122212 1.89176161,3.5805576 2.98006,3.52432948 C3.00567517,3.5236086 3.03129033,3.52288773 3.0569055,3.52216686 C7.68563517,3.49261105 12.3143648,3.49261105 16.9430945,3.52216686 Z M3.08459757,4.96247193 C2.72460064,4.96463455 2.39783421,5.28470234 2.39091119,5.67397398 C2.37360364,8.56107198 2.37360364,11.44817 2.39091119,14.335268 C2.39783421,14.7057969 2.70037008,15.0388404 3.07421304,15.0460492 C7.69117358,15.0763258 12.3088264,15.0763258 16.925787,15.0460492 C17.2830147,15.0395613 17.6021658,14.7180518 17.6090888,14.335268 C17.6263964,11.44817 17.6263964,8.56107198 17.6090888,5.67397398 C17.6021658,5.30344505 17.2996299,4.96968066 16.925787,4.96247193 C12.3122879,4.93291612 7.6987889,4.96247193 3.08459757,4.96247193 Z M15.5778754,6.40421874 C15.7772583,6.42584494 15.8340271,6.46260949 15.9316416,6.53397596 C16.2549465,6.77114331 16.3151768,7.3190071 16.0299485,7.62465742 C15.996718,7.66070109 15.9863335,7.66790983 15.9489492,7.69962826 L10.4146888,12.0212643 C10.167537,12.1993201 9.83661678,12.2029244 9.58461893,12.0212643 L4.05105085,7.69962826 C3.91397509,7.58284676 3.88905223,7.53382737 3.84543722,7.4408347 C3.65713114,7.04147084 3.9174366,6.47774783 4.36812506,6.4107066 C4.54743122,6.38403429 4.73089119,6.43882067 4.88112067,6.54695168 L10,10.5449156 L15.1188793,6.54695168 C15.1188793,6.54695168 15.3487235,6.39917263 15.5778754,6.40421874 L15.5778754,6.40421874 Z" id="email"></path>
            </g>
        </g>
    </g>
</svg>