<?xml version="1.0" encoding="UTF-8"?>
<svg width="22px" height="22px" viewBox="0 0 22 22" version="1.1" xmlns="http://www.w3.org/2000/svg" xmlns:xlink="http://www.w3.org/1999/xlink">
    <title>Group</title>
    <g id="Page-1" stroke="none" stroke-width="1" fill="none" fill-rule="evenodd">
        <g id="white-version" transform="translate(-322.000000, -164.000000)">
            <g id="icons/menu/pizza-new" transform="translate(321.500000, 164.000000)">
                <g id="Group" transform="translate(1.000000, 0.000000)">
                    <path d="M9.66359773,0.354714526 C4.04117201,0.785798916 -0.339924369,5.71074901 0.0207750598,11.5874881 C0.34409631,16.8603308 4.58614587,21.1518894 9.79778539,21.4789841 C15.6067282,21.8438933 20.4752361,17.4112869 20.9013473,11.72362 C20.9342401,11.285729 20.5869968,10.9121225 20.1526624,10.9121225 L10.4657335,10.9121225 L10.4657335,1.11213736 C10.4657335,0.6727338 10.096437,0.321437836 9.66359773,0.354714526 Z" id="Path" fill="#D1D1D1" fill-rule="nonzero"></path>
                    <path d="M21.49576,8.97612374 C21.0474282,5.83188291 20.0919319,4.15084284 18.7393895,2.81478921 C17.2488718,1.34244227 15.3977509,0.478407955 14.2148177,0.14046238 C13.0318845,-0.197483194 12.0911209,0.0594352771 12.5078612,1.07401747 C13.2815065,2.95750912 13.3449269,5.5848238 12.6981224,8.9559615 C16.1564421,8.49145436 18.746113,8.65525461 20.4671352,9.44736225 C20.8854671,9.63990126 21.5597134,9.42464121 21.49576,8.97612374 Z" id="Path-Copy-10" fill="#D1D1D1" fill-rule="nonzero"></path>
                    <path d="M10.5180088,1.44221702 C5.26007747,1.44221702 0.997600046,5.75444153 0.997600046,11.0737379 C0.997600046,16.3930342 5.26007747,20.7052587 10.5180088,20.7052587 C15.7759402,20.7052587 20.0384176,16.3930342 20.0384176,11.0737379 L10.5180088,11.0737379 L10.5180088,1.44221702 Z" id="Path" fill="#F5002E" fill-rule="nonzero"></path>
                    <path d="M10.5180088,2.5938119 C5.88874318,2.5938119 2.13590979,6.39044435 2.13590979,11.0737379 C2.13590979,15.7570314 5.88874318,19.5536638 10.5180088,19.5536638 C15.1472745,19.5536638 18.9001079,15.7570314 18.9001079,11.0737379 L10.5180088,11.0737379 L10.5180088,2.5938119 Z" id="Path" fill="#FFFFFF" fill-rule="nonzero"></path>
                    <path d="M20.5628079,9.0793849 C20.2588915,5.35777364 17.7045203,2.28351255 14.2785537,1.25304439 L13.5963075,1.07751075 C13.23566,0.999992709 12.8665397,0.945208325 12.491157,0.913530281 L12.491157,8.5493849 C12.491157,8.84209582 12.728446,9.0793849 13.021157,9.0793849 L20.5628079,9.0793849 L20.5628079,9.0793849 Z" id="Path" fill="#F5002E" fill-rule="nonzero"></path>
                    <path d="M19.2175327,9.0793849 C18.9642691,5.88261626 16.8356264,3.24190481 13.9806542,2.35675907 L13.4121157,2.20598018 C13.1115762,2.13939417 12.8039759,2.09233579 12.491157,2.06512516 L12.491157,8.5493849 C12.491157,8.84209582 12.728446,9.0793849 13.021157,9.0793849 L19.2175327,9.0793849 L19.2175327,9.0793849 Z" id="Path" fill="#FFFFFF" fill-rule="nonzero"></path>
                    <ellipse id="Oval-Copy-2" fill="#017AFF" transform="translate(15.198118, 5.416809) rotate(19.000000) translate(-15.198118, -5.416809) " cx="15.1981185" cy="5.41680898" rx="1" ry="1"></ellipse>
                    <path d="M5.25971231,12.0364231 C5.25971231,14.9631711 6.94954687,17.5109517 9.44349801,18.8293126 C6.05143119,18.2825503 3.46629768,15.4493616 3.46629768,12.0364231 C3.46629768,8.62415972 6.05040859,5.79141682 9.44210195,5.24398882 C6.94865041,6.56324635 5.25971231,9.11045156 5.25971231,12.0364231 Z" id="Combined-Shape" fill="#D1D1D1" transform="translate(6.454898, 12.036651) rotate(-11.000000) translate(-6.454898, -12.036651) "></path>
                    <ellipse id="Oval" fill="#017AFF" fill-rule="nonzero" cx="5.73193377" cy="8.48264937" rx="1.81094733" ry="1.83208277"></ellipse>
                    <ellipse id="Oval-Copy-3" stroke="#31383E" stroke-width="0.795" fill="#FFFFFF" fill-rule="nonzero" cx="5.72777774" cy="13.6360365" rx="1" ry="1"></ellipse>
                    <ellipse id="Oval-Copy" fill="#017AFF" fill-rule="nonzero" cx="12.2254735" cy="16.8317123" rx="1" ry="1"></ellipse>
                    <ellipse id="Oval-Copy-2" fill="#D1D1D1" fill-rule="nonzero" cx="14.6055757" cy="15.4707365" rx="1" ry="1"></ellipse>
                    <ellipse id="Oval-Copy-4" fill="#D1D1D1" fill-rule="nonzero" cx="15.1299659" cy="7.01174863" rx="1" ry="1"></ellipse>
                    <rect id="Rectangle" fill="#31383E" fill-rule="nonzero" x="13.0750331" y="12.6913741" width="1" height="1" rx="0.388867805"></rect>
                    <rect id="Rectangle" fill="#FFFFFF" fill-rule="nonzero" x="12.0969546" y="14.8088227" width="1" height="1"></rect>
                    <rect id="Rectangle" fill="#31383E" fill-rule="nonzero" x="9.72686688" y="16.0144514" width="1" height="1" rx="0.388867805"></rect>
                    <rect id="Rectangle" fill="#31383E" fill-rule="nonzero" x="8.73877396" y="6.53152344" width="1" height="1" rx="0.388867805"></rect>
                    <rect id="Rectangle" fill="#31383E" fill-rule="nonzero" x="7.54308125" y="11.2066272" width="1" height="1" rx="0.388867805"></rect>
                    <path d="M9.07275722,12.1506346 C8.76029174,13.0132062 8.93323375,13.5995224 9.59158327,13.9095834" id="Path" stroke="#D1D1D1" stroke-width="0.795" stroke-linecap="round" stroke-linejoin="round" transform="translate(9.256743, 13.030109) rotate(-87.000000) translate(-9.256743, -13.030109) "></path>
                    <path d="M11.4874235,12.6474993 C11.1823468,13.5165677 11.3567334,14.1092861 12.0105833,14.4256545" id="Path-Copy-5" stroke="#31383E" stroke-width="0.636" stroke-linecap="round" stroke-linejoin="round" transform="translate(11.676210, 13.536577) rotate(-154.000000) translate(-11.676210, -13.536577) "></path>
                    <path d="M8.73917116,7.8741868 C8.49708574,8.64810726 8.63519066,9.17549442 9.15348592,9.4563483" id="Path-Copy" stroke="#D1D1D1" stroke-width="0.795" stroke-linecap="round" stroke-linejoin="round" transform="translate(8.888523, 8.665268) rotate(-139.000000) translate(-8.888523, -8.665268) "></path>
                    <path d="M7.52564476,15.1522781 C7.31046596,15.7518568 7.426695,16.1583858 7.87433187,16.371865" id="Path-Copy-6" stroke="#31383E" stroke-width="0.636" stroke-linecap="round" stroke-linejoin="round" transform="translate(7.647596, 15.762072) rotate(-27.000000) translate(-7.647596, -15.762072) "></path>
                    <path d="M16.197726,12.4842822 C15.986198,13.0774983 16.1068909,13.4820214 16.5598045,13.6978513" id="Path-Copy-3" stroke="#31383E" stroke-width="0.636" stroke-linecap="round" stroke-linejoin="round" transform="translate(16.328260, 13.091067) rotate(-114.000000) translate(-16.328260, -13.091067) "></path>
                    <path d="M10.098055,17.3628569 C9.88652704,17.956073 10.0072199,18.360596 10.4601336,18.576426" id="Path-Copy-7" stroke="#31383E" stroke-width="0.636" stroke-linecap="round" stroke-linejoin="round" transform="translate(10.228589, 17.969641) rotate(-114.000000) translate(-10.228589, -17.969641) "></path>
                </g>
            </g>
        </g>
    </g>
</svg>