<?xml version="1.0" encoding="UTF-8"?>
<svg width="20px" height="21px" viewBox="0 0 20 21" version="1.1" xmlns="http://www.w3.org/2000/svg" xmlns:xlink="http://www.w3.org/1999/xlink">
    <title>icons/menu/tracker</title>
    <g id="Page-1" stroke="none" stroke-width="1" fill="none" fill-rule="evenodd">
        <g id="white-version" transform="translate(-326.000000, -243.000000)">
            <g id="Group-27" transform="translate(146.000000, 164.000000)">
                <g id="Group-17" transform="translate(0.000000, 41.500000)">
                    <g id="icons/menu/tracker" transform="translate(180.000000, 38.000000)">
                        <g id="Group-3" transform="translate(2.168500, 3.112857)">
                            <path d="M2.3465,7.43714286 C2.3465,10.2042547 3.95677185,12.613177 6.33355292,13.8603261 C3.10014345,13.3429924 0.6365,10.6640747 0.6365,7.43714286 C0.6365,4.20888556 3.1021678,1.52909262 6.33780119,1.01271853 C3.95859239,2.25838613 2.3465,4.66846718 2.3465,7.43714286 Z" id="Combined-Shape" fill="#D1D1D1"></path>
                            <path d="M0,7.04809524 L8.1795,7.04809524 L8.1795,14.4671429 C5.68700384,14.4438084 3.7979542,13.8491012 2.51235107,12.6830213 C1.22674795,11.5169414 0.389297592,9.63863268 0,7.04809524 Z" id="Rectangle" fill="#F5002E"></path>
                            <path d="M13.4147677,2.68025587 C12.0215036,1.04163546 9.93156516,0 7.59525,0 C3.40050925,0 0,3.35786438 0,7.5 C0,11.6421356 3.40050925,15 7.59525,15 C11.7899907,15 15.1905,11.6421356 15.1905,7.5" id="Path" stroke="#31383E" stroke-width="0.9747" stroke-linecap="round" stroke-linejoin="round"></path>
                            <path d="M13.243,5.86401312 L9.03200322,5.9352381 L8.9585,1.8547619 C10.3277053,2.12484454 11.3490135,2.57496049 12.0224247,3.20510975 C12.6958358,3.83525901 13.1026943,4.72156013 13.243,5.86401312 Z" id="Rectangle-Copy-7" fill="#017AFF"></path>
                            <path d="M13.0793152,2.01417421 L14.229731,2.39328625 C14.4427584,2.46348806 14.5585415,2.69309073 14.4883397,2.90611817 C14.4697434,2.96254844 14.4389919,3.01421112 14.3982543,3.05746205 L13.6270481,3.87624839 C13.4732614,4.03952309 13.2162323,4.04721461 13.0529576,3.89342788 C13.0025525,3.84595184 12.9651231,3.7863766 12.9442254,3.72036195 L12.5650158,2.52246358 C12.4973228,2.30862569 12.6157966,2.0803998 12.8296345,2.01270678 C12.9109506,1.98696516 12.9983073,1.98747858 13.0793152,2.01417421 Z" id="Path" fill="#31383E" fill-rule="nonzero" transform="translate(13.580602, 3.072687) rotate(73.000000) translate(-13.580602, -3.072687) "></path>
                            <path d="M7.73120755,3.50595238 C8.04826477,3.50595238 8.27566509,3.72515607 8.27566509,4.02831101 L8.274975,6.94857143 L10.5752925,6.94885417 C10.8635263,6.94885417 11.0776635,7.13001424 11.1142155,7.39071723 L11.11975,7.4712128 C11.11975,7.77436774 10.8923497,7.99357143 10.5752925,7.99357143 L7.73120755,7.99357143 C7.42171177,7.99357143 7.18675,7.7509008 7.18675,7.4712128 L7.18675,4.02831101 C7.18675,3.72515607 7.41415032,3.50595238 7.73120755,3.50595238 Z" id="Combined-Shape" fill="#31383E" fill-rule="nonzero"></path>
                        </g>
                    </g>
                </g>
            </g>
        </g>
    </g>
</svg>