<svg xmlns="http://www.w3.org/2000/svg" viewBox="0 0 31 21">
  <g fill="#FFF" transform="translate(.844 5.573)">
    <path d="M15.5150204 3.72953443L15.5150204 3.01012788C15.5150204 3.01012788 15.4775249 2.44683575 14.8981313 2.44683575L13.9973975 2.44683575 13.9973975 3.72953443 13.0727647 3.72953443 13.0727647.0315784982 15.3175907.0315784982C15.3175907.0315784982 16.4892034-.112373935 16.4892034 1.11392441 16.4892034 1.75225103 15.9712745 1.9772834 15.9712745 1.9772834 15.9712745 1.9772834 16.4209405 2.19043826 16.4209405 2.81617616L16.4209405 3.72946331 15.5150204 3.72946331M13.9974676 1.57707572L14.9536387 1.57707572C15.2313159 1.57707572 15.4595831 1.42053456 15.4595831 1.22672508 15.4595831 1.03255999 15.2313159.876089956 14.9536387.876089956L13.9974676.876089956 13.9974676 1.57707572 13.9974676 1.57707572M26.4297245 3.72953443L24.9622825 1.25787684 24.9622825 3.72953443 24.1667465 3.72953443 24.0181661 3.72953443 23.1496013 3.72953443 22.8224441 2.95372754 21.1329725 2.95372754 20.8117724 3.72953443 19.9606589 3.72953443 19.806752 3.72953443 19.3624825 3.72953443C19.3624825 3.72953443 18.1172103 3.54824256 18.1172103 1.98382669 18.1172103-.0689179386 19.5297056.0125887256 19.5785549 0L20.7194003.0315784982 20.7194003.863714599 19.7825726.875947711C19.7825726.875947711 19.1717809.875947711 19.0974206 1.68354646 19.0887301 1.7762194 19.0848053 1.86142445 19.0854361 1.94058406 19.0887301 3.19070852 20.1547246 2.80259171 20.1895569 2.79106983L21.3364295.0315784982 22.6310416.0315784982 24.0181661 3.38565597 24.0181661.0315784982 25.3256037.0315784982 26.7748936 2.46589664 26.7748936.0315784982 27.7063247.0315784982 27.7063247 3.72953443 26.4297245 3.72953443M21.5276918 2.00893302L22.4275846 2.00893302 21.9840159.907526209 21.5276918 2.00893302 21.5276918 2.00893302M8.25644608 3.72953443L8.25644608 1.17672579 7.09751875 3.72953443 6.33912781 3.72953443 5.1735424 1.18903003 5.1735424 3.72953443 4.36588164 3.72953443 4.24239168 3.72953443 3.34824589 3.72953443 3.02774669 2.95372754 1.33820503 2.95372754 1.01132809 3.72953443 0 3.72953443 1.53528435.0315784982 2.83669469.0315784982 4.24246176 3.42939645 4.24246176.0315784982 5.70387641.0315784982 6.72158224 2.32806077 7.73333084.0315784982 9.1946754.0315784982 9.1946754 3.72953443 8.25644608 3.72953443M1.73264401 2.00893302L2.6328872 2.00893302 2.18294082.907526209 1.73264401 2.00893302 1.73264401 2.00893302"/>
    <polyline points="9.706 3.73 9.706 .032 12.592 .032 12.592 .895 10.637 .895 10.637 1.464 12.543 1.464 12.543 2.303 10.637 2.303 10.637 2.929 12.592 2.929 12.592 3.73 9.706 3.73"/>
    <polyline points="16.872 3.742 16.872 .032 18.068 .032 18.068 3.742 16.872 3.742"/>
    <path d="M19.0854361 9.99992888L19.0854361 9.28016671C19.0854361 9.28016671 19.0480106 8.71730132 18.468547 8.71730132L17.568514 8.71730132 17.568514 9.99992888 16.6431103 9.99992888 16.6431103 6.30168845 18.8879363 6.30168845C18.8879363 6.30168845 20.0596191 6.15780714 20.0596191 7.38438998 20.0596191 8.02264548 19.5417602 8.2481757 19.5417602 8.2481757 19.5417602 8.2481757 19.9860998 8.46069046 19.9860998 9.08600162L19.9860998 10 19.0854361 10M17.568514 7.84747016L18.5247552 7.84747016C18.8017316 7.84747016 19.0299287 7.69135574 19.0299287 7.49711953 19.0299287 7.30302556 18.8017316 7.14669777 18.5247552 7.14669777L17.568514 7.14669777 17.568514 7.84747016 17.568514 7.84747016M12.9188578 9.99388344L12.1105663 9.99388344 11.1309867 8.89852207 10.1434175 9.99388344 9.58266655 9.99388344 6.70279943 9.99388344 6.70279943 6.28938422 9.58266655 6.28938422 10.0698281 6.28938422 11.1310568 7.46589664 12.1976821 6.29550078 12.9068732 6.29550078 12.9068732 6.28938422 15.1511385 6.28938422C15.1511385 6.28938422 16.3228213 6.15773602 16.3228213 7.37763332 16.3228213 8.46673589 15.9339892 8.80485342 14.7375663 8.80485342L13.8316462 8.80485342 13.8316462 9.99388344 12.9188578 9.99388344M11.7599305 8.1734257L12.9067331 9.46216981 12.9067331 6.89001579 11.7599305 8.1734257 11.7599305 8.1734257M7.6342305 9.19339696L9.58266655 9.19339696 10.4953849 8.1734257 9.58266655 7.15893088 7.6342305 7.15893088 7.6342305 7.72798395 9.53318647 7.72798395 9.53318647 8.56730345 7.6342305 8.56730345 7.6342305 9.19339696 7.6342305 9.19339696M13.8315761 7.8407135L14.7870464 7.8407135C15.0647236 7.8407135 15.2929207 7.68452796 15.2929207 7.49036287 15.2929207 7.29683788 15.0647236 7.13994111 14.7870464 7.13994111L13.8315761 7.13994111 13.8315761 7.8407135 13.8315761 7.8407135M25.3937264 9.98776689L23.7470068 9.98776689 23.7470068 9.13621428 25.1904096 9.13621428C25.1904096 9.13621428 25.7083385 9.19880229 25.7083385 8.84297521 25.7083385 8.51019189 24.9254879 8.53600945 24.9254879 8.53600945 24.9254879 8.53600945 23.6488175 8.64881012 23.6488175 7.43467376 23.6488175 6.22672508 24.8016475 6.2955719 24.8016475 6.2955719L26.5780947 6.2955719 26.5780947 7.15900201 25.1476576 7.15900201C25.1476576 7.15900201 24.653838 7.05857669 24.653838 7.42251177 24.653838 7.72805508 25.3256037 7.68459908 25.3256037 7.68459908 25.3256037 7.68459908 26.7380289 7.57869732 26.7380289 8.69219499 26.7380289 9.88663035 25.8280439 9.99253211 25.5055823 9.99253211 25.4359878 9.99246099 25.3937264 9.98776689 25.3937264 9.98776689"/>
    <polyline points="20.442 9.994 20.442 6.302 23.328 6.302 23.328 7.159 21.373 7.159 21.373 7.728 23.279 7.728 23.279 8.567 21.373 8.567 21.373 9.193 23.328 9.193 23.328 9.994 20.442 9.994"/>
    <path d="M28.6556976,9.98776689 L27.009048,9.98776689 L27.009048,9.13621428 L28.4462833,9.13621428 C28.4462833,9.13621428 28.9703096,9.19880229 28.9703096,8.84297521 C28.9703096,8.51019189 28.1875291,8.53600945 28.1875291,8.53600945 C28.1875291,8.53600945 26.9107186,8.64881012 26.9107186,7.43467376 C26.9107186,6.22672508 28.0635485,6.2955719 28.0635485,6.2955719 L29.8340385,6.2955719 L29.8340385,7.15900201 L28.4089279,7.15900201 C28.4089279,7.15900201 27.9156689,7.05857669 27.9156689,7.42251177 C27.9156689,7.72805508 28.5882056,7.68459908 28.5882056,7.68459908 C28.5882056,7.68459908 30,7.57869732 30,8.69219499 C30,9.88663035 29.0900851,9.99253211 28.7676235,9.99253211 C28.6978888,9.99246099 28.6556976,9.98776689 28.6556976,9.98776689"/>
  </g>
</svg>
