<?xml version="1.0" encoding="UTF-8"?>
<svg width="38px" height="25px" viewBox="0 0 38 25" version="1.1" xmlns="http://www.w3.org/2000/svg" xmlns:xlink="http://www.w3.org/1999/xlink">
    <title>credit card/visa</title>
    <g id="Page-1" stroke="none" stroke-width="1" fill="none" fill-rule="evenodd">
        <g id="ui-style-guide_1-of2" transform="translate(-936.000000, -7535.000000)">
            <g id="credit-card-copy-3" transform="translate(738.250000, 7412.750000)">
                <g id="credit-card/visa" transform="translate(198.397213, 122.317073)">
                    <rect id="Rectangle" x="0" y="0" width="37.1428571" height="24.8175182"></rect>
                    <g id="2310350_diners_mean_method_payment_icon" transform="translate(6.756286, 5.360087)" fill="#FFFFFF">
                        <path d="M15.6314241,5.55985707e-07 C19.6931413,-0.00141543405 23.0236741,3.33659749 22.9955853,7.50990061 C23.0236741,11.5719261 19.6931413,14.9102539 15.6314241,14.8905115 L7.49307059,14.8905115 C3.38219938,14.9104113 0.0518236429,11.5719261 0,7.50990061 C0.0519806842,3.33644009 3.38219938,-0.00157282809 7.49307059,5.55985707e-07 Z M7.49307059,0.51794393 C3.66157593,0.504921211 0.556711557,3.61628671 0.516823057,7.50990061 C0.556711557,11.2925517 3.66173297,14.4039172 7.49307059,14.3718088 C11.3204822,14.4039172 14.4245613,11.2925517 14.4691611,7.50990061 C14.4244043,3.61628671 11.3203251,0.504921211 7.49307059,0.51794393 Z M5.94275847,3.36665975 L5.94275847,11.523921 C4.28000474,10.8852159 3.13266069,9.30435013 3.10062426,7.51005801 C3.13266069,5.64509596 4.33732483,4.09271848 5.94275847,3.36665975 Z M9.04275456,3.36650236 C10.7020534,4.02425207 11.8489263,5.60464569 11.8853599,7.50990061 C11.8489263,9.30419273 10.7020534,10.8850585 9.04275456,11.5237636 Z" id="Combined-Shape"></path>
                    </g>
                </g>
            </g>
        </g>
    </g>
</svg>