<?xml version="1.0" encoding="UTF-8"?>
<svg width="38px" height="25px" viewBox="0 0 38 25" version="1.1" xmlns="http://www.w3.org/2000/svg" xmlns:xlink="http://www.w3.org/1999/xlink">
    <title>credit card/visa</title>
    <g id="Page-1" stroke="none" stroke-width="1" fill="none" fill-rule="evenodd">
        <g id="ui-style-guide_1-of2" transform="translate(-604.000000, -7535.000000)">
            <g id="credit-card-copy" transform="translate(406.250000, 7412.750000)">
                <g id="credit-card/MASTERCARD" transform="translate(198.397213, 122.317073)">
                    <g id="credit-card/visa" transform="translate(-0.000000, 0.000000)">
                        <rect id="Rectangle" x="0" y="0" width="37.1428571" height="24.8175182"></rect>
                        <path d="M25.8880048,6.36365098 C26.2901915,6.43881144 26.6822581,6.56335206 27.0977147,6.6704493 C27.0305607,6.98199324 26.9687013,7.27218186 26.9053004,7.56204983 C26.8110034,7.99332463 26.7128192,8.42382987 26.6221412,8.85574598 C26.5882291,9.01735378 26.564169,9.04024822 26.4054658,8.9743225 C25.673541,8.67021765 24.903616,8.53201732 24.1114404,8.51944782 C23.6352638,8.51181635 23.1644487,8.57068776 22.7495283,8.83079937 C22.4323229,9.02966676 22.2906428,9.31004348 22.3624882,9.63018085 C22.4129542,9.8554057 22.5595938,10.0304167 22.7579728,10.1459791 C23.2809964,10.4506611 23.8085103,10.7491225 24.3444017,11.0324492 C25.0192254,11.389269 25.6514915,11.7914287 26.0897348,12.4157992 C26.3159271,12.738117 26.4542563,13.096027 26.503918,13.4831803 C26.5828675,14.0990215 26.5112232,14.6956878 26.2409318,15.2630466 C25.9079098,15.9620004 25.4000327,16.5104408 24.6963234,16.8919507 C23.6215247,17.4747649 22.4577235,17.6743377 21.2368213,17.6576639 C20.1569291,17.6427857 19.107464,17.4816909 18.0916428,17.1254483 C18.0094764,17.0965898 17.9864885,17.069078 18.0039137,16.9904545 C18.1030362,16.5433396 18.1983385,16.095391 18.2955845,15.6479554 C18.3487313,15.4036198 18.4018781,15.1593483 18.4577727,14.9155898 C18.4753319,14.8392109 18.5018718,14.7646917 18.5296851,14.6711901 C18.7885831,14.77072 19.0305921,14.8608227 19.2702554,14.9562483 C20.0954719,15.2848508 20.9617045,15.3866894 21.8432177,15.3351288 C22.3111509,15.3077453 22.7742587,15.1953894 23.1240357,14.8571673 C23.5355381,14.4592402 23.5075908,13.8836085 23.0270579,13.5673831 C22.5653575,13.2635989 22.0722248,13.0006656 21.5794273,12.7433757 C20.9292669,12.4039352 20.307858,12.0313394 19.8306761,11.4793076 C19.3742033,10.9513247 19.1733446,10.3442052 19.2310487,9.65467854 C19.3331201,8.43530916 19.99836,7.57045087 21.0671939,6.9584575 C21.8229107,6.52577183 22.6538909,6.32228708 23.52515,6.23866145 C24.3210788,6.1622184 25.108429,6.21781918 25.8880048,6.36365098 Z M0.165328176,6.4106936 C1.85913975,6.41272973 3.5439539,6.40804824 5.22863401,6.41875796 C5.82705501,6.42260577 6.35523912,6.82412421 6.49879582,7.38218419 C6.62358694,7.86732826 6.71104795,8.36145054 6.80809282,8.85294349 C6.94434435,9.54349622 7.07288858,10.2355239 7.20706249,10.9264614 C7.3647604,11.7383483 7.52460294,12.5497221 7.68444549,13.3610959 C7.7177544,13.5302069 7.7554196,13.6985484 7.79107421,13.8671464 L7.84770605,13.8602203 C8.05714335,13.35821 8.26785402,12.8567128 8.47574986,12.3541895 L10.1899858,8.20631987 C10.42288,7.64345014 10.6559754,7.08051628 10.8965099,6.5205324 C10.917018,6.47281962 10.9940239,6.41632102 11.0451601,6.41600037 C12.0158099,6.40984388 12.9865266,6.41131887 13.9572433,6.41208843 C13.9889438,6.41215256 14.0206442,6.42196447 14.0814983,6.43203289 C13.9993989,6.62384597 13.9241355,6.80373085 13.8457892,6.98239725 C12.8408253,9.27280314 11.8356603,11.5631449 10.8301602,13.8534225 C10.3161173,15.0243096 9.80039888,16.1945553 9.28883572,17.3664043 C9.24520574,17.466319 9.1825421,17.5003079 9.07316556,17.4999872 C8.11364115,17.4973579 7.15404972,17.4970373 6.19452531,17.5004388 C6.07703937,17.5008209 6.03213601,17.4586233 6.00358552,17.3517185 C5.51025177,15.5036178 5.01323194,13.6564149 4.5155419,11.8093403 C4.23345499,10.7624167 3.94908941,9.71600614 3.66445574,8.66978798 C3.63784883,8.5719896 3.59958044,8.47720534 3.56975657,8.3801124 C3.45280679,7.99950036 3.18264943,7.76196253 2.81162707,7.60150907 C1.96523231,7.23545456 1.0890807,6.95770717 0.181295675,6.77326906 C0.020648891,6.74062684 -0.0331010969,6.66835224 0.0195095521,6.53271712 C0.0259434659,6.51610743 0.0381336474,6.50152852 0.0533074572,6.48801608 L0.157972738,6.4120243 Z M34.5530055,6.40763548 C34.6952219,6.40631673 34.7449506,6.45345234 34.7722278,6.58004512 C35.00157,7.644861 35.236877,8.70845842 35.4707765,9.77231235 C35.6507251,10.5905481 35.8327512,11.4084631 36.0110242,12.2270836 C36.1662424,12.9399536 36.3154958,13.6541062 36.4712501,14.3669121 C36.605156,14.9801881 36.7448255,15.5921814 36.8812781,16.2049444 C36.9667955,16.5890836 37.0505034,16.9736717 37.136356,17.357875 C37.1571992,17.4511843 37.1302572,17.4989612 37.0214838,17.4987688 C36.1789762,17.4972938 35.3366026,17.4970373 34.494162,17.4989612 C34.3878014,17.4992177 34.369505,17.4394485 34.3524819,17.3589652 C34.2564423,16.9045394 34.1516902,16.4518452 34.0607441,15.9965216 C34.0371531,15.8782657 33.9889658,15.8401725 33.8645098,15.8405572 C32.6873046,15.8443409 31.5100994,15.8451746 30.3329613,15.8395312 C30.2001278,15.8388899 30.1429598,15.8928874 30.103485,15.9972912 C29.9335225,16.44633 29.760343,16.8942145 29.592324,17.3438946 C29.5573396,17.4377169 29.5163234,17.5003079 29.3956205,17.4999885 C28.4471544,17.4969731 27.4987553,17.4983199 26.5502891,17.4975503 C26.5179185,17.4974862 26.4855479,17.4887645 26.4137695,17.4784395 C26.5166451,17.2373746 26.6084624,17.0169595 26.704368,16.7982759 C27.9035557,14.0635127 29.1033465,11.3288777 30.3030704,8.59430687 C30.4970261,8.15232234 30.6871617,7.70873457 30.8869481,7.26912285 C31.1466503,6.69778795 31.5981636,6.40464934 32.2600525,6.40997214 C33.0242808,6.41619276 33.7887102,6.41491016 34.5530055,6.40763548 Z M15.5460514,6.40872125 C16.4443866,6.41334538 17.3427889,6.41097257 18.2411911,6.41187039 C18.2836817,6.41187039 18.3261054,6.42136164 18.3780458,6.42764639 C18.210697,7.19329544 18.0515247,7.93649897 17.8851812,8.6782275 C17.689483,9.5512303 17.4855413,10.4225657 17.2887708,11.295312 C17.0551393,12.3313976 16.8262662,13.3685093 16.59364,14.4047873 C16.3713349,15.3949558 16.1484266,16.384996 15.9190174,17.3736253 C15.907758,17.4221077 15.8314223,17.4922019 15.7849105,17.4925866 C14.858695,17.4991279 13.9324124,17.4971607 13.0061299,17.4959214 C12.9851527,17.4958573 12.9641754,17.4862378 12.9192051,17.4752074 C12.9548597,17.2915388 12.9856888,17.1107561 13.0254317,16.9317691 C13.1429176,16.4025035 13.2632184,15.873751 13.3838543,15.3450626 C13.5188324,14.7537832 13.6575637,14.1632093 13.7907323,13.5714169 C13.9451462,12.8852891 14.0941986,12.1980071 14.2476072,11.5116869 C14.4607306,10.5585215 14.6760656,9.605805 14.8899263,8.65283198 C15.0454125,7.95984231 15.2023062,7.26704504 15.3529,6.57309342 C15.3768931,6.46246903 15.4150945,6.40802259 15.5460514,6.40872125 Z M32.6296004,9.4669249 C32.6149231,9.46910532 32.6002457,9.47134987 32.5855013,9.4735303 C32.0717935,10.8306511 31.5580187,12.1879002 31.0376089,13.5626567 L33.5253219,13.5626567 C33.2242013,12.1856556 32.9269009,10.8262902 32.6296004,9.4669249 Z" id="Combined-Shape" fill="#FFFFFF"></path>
                    </g>
                </g>
            </g>
        </g>
    </g>
</svg>